<?xml version="1.0" encoding="UTF-8" standalone="no"?>
<!DOCTYPE svg PUBLIC "-//W3C//DTD SVG 1.1//EN"
 "http://www.w3.org/Graphics/SVG/1.1/DTD/svg11.dtd">
<!-- Generated by graphviz version 2.47.0 (20210316.0004)
 -->
<!-- Title: Test Pages: 1 -->
<svg width="541pt" height="314pt"
 viewBox="0.00 0.00 540.56 314.00" xmlns="http://www.w3.org/2000/svg" xmlns:xlink="http://www.w3.org/1999/xlink">
<g id="graph0" class="graph" transform="scale(1 1) rotate(0) translate(4 310)">
<title>Test</title>
<polygon fill="white" stroke="transparent" points="-4,4 -4,-310 536.56,-310 536.56,4 -4,4"/>
<!-- Body synchronization -->
<g id="node1" class="node">
<title>Body synchronization</title>
<g id="a_node1"><a xlink:href="https://scholar.google.com/scholar?hl=en&amp;q=Unraveling%20Students&#39;%20Interaction%20around%20a%20Tangible%20Interface%20Using%20Multimodal%20Learning%20Analytics." xlink:title="Body synchronization" target="_blank">
<ellipse fill="none" stroke="black" cx="410.37" cy="-72" rx="88.28" ry="18"/>
<text text-anchor="middle" x="410.37" y="-68.3" font-family="Times,serif" font-size="14.00">Body synchronization</text>
</a>
</g>
</g>
<!-- learning gain group (high or low -->
<g id="node9" class="node">
<title>learning gain group (high or low</title>
<ellipse fill="none" stroke="black" cx="126.09" cy="-126" rx="126.18" ry="18"/>
<text text-anchor="middle" x="126.09" y="-122.3" font-family="Times,serif" font-size="14.00">learning gain group (high or low</text>
</g>
<!-- Body synchronization&#45;&gt;learning gain group (high or low -->
<g id="edge9" class="edge">
<title>Body synchronization&#45;&gt;learning gain group (high or low</title>
<path fill="none" stroke="black" d="M345.31,-84.25C305.93,-91.79 254.99,-101.53 212.23,-109.71"/>
<polygon fill="black" stroke="black" points="211.56,-106.28 202.4,-111.59 212.87,-113.15 211.56,-106.28"/>
</g>
<!-- learning gains -->
<g id="node10" class="node">
<title>learning gains</title>
<ellipse fill="none" stroke="black" cx="126.09" cy="-72" rx="60.39" ry="18"/>
<text text-anchor="middle" x="126.09" y="-68.3" font-family="Times,serif" font-size="14.00">learning gains</text>
</g>
<!-- Body synchronization&#45;&gt;learning gains -->
<g id="edge5" class="edge">
<title>Body synchronization&#45;&gt;learning gains</title>
<path fill="none" stroke="black" d="M321.6,-72C281.51,-72 234.68,-72 197.02,-72"/>
<polygon fill="black" stroke="black" points="196.65,-68.5 186.65,-72 196.65,-75.5 196.65,-68.5"/>
</g>
<!-- amount of movement -->
<g id="node2" class="node">
<title>amount of movement</title>
<g id="a_node2"><a xlink:href="https://scholar.google.com/scholar?hl=en&amp;q=Unraveling%20Students&#39;%20Interaction%20around%20a%20Tangible%20Interface%20Using%20Multimodal%20Learning%20Analytics." xlink:title="amount of movement" target="_blank">
<ellipse fill="none" stroke="black" cx="410.37" cy="-18" rx="87.99" ry="18"/>
<text text-anchor="middle" x="410.37" y="-14.3" font-family="Times,serif" font-size="14.00">amount of movement</text>
</a>
</g>
</g>
<!-- amount of movement&#45;&gt;learning gain group (high or low -->
<g id="edge7" class="edge">
<title>amount of movement&#45;&gt;learning gain group (high or low</title>
<path fill="none" stroke="black" d="M331.7,-26.11C316.38,-30.17 301.07,-36.16 288.18,-45 264.39,-61.31 276.02,-82.77 252.18,-99 245.52,-103.53 238.24,-107.32 230.64,-110.49"/>
<polygon fill="black" stroke="black" points="229.35,-107.24 221.24,-114.05 231.83,-113.78 229.35,-107.24"/>
</g>
<!-- amount of movement&#45;&gt;learning gains -->
<g id="edge3" class="edge">
<title>amount of movement&#45;&gt;learning gains</title>
<path fill="none" stroke="black" d="M345.67,-30.19C298.25,-39.26 233.94,-51.56 187.37,-60.47"/>
<polygon fill="black" stroke="black" points="186.58,-57.06 177.41,-62.37 187.89,-63.93 186.58,-57.06"/>
</g>
<!-- Body distance -->
<g id="node3" class="node">
<title>Body distance</title>
<g id="a_node3"><a xlink:href="https://scholar.google.com/scholar?hl=en&amp;q=Unraveling%20Students&#39;%20Interaction%20around%20a%20Tangible%20Interface%20Using%20Multimodal%20Learning%20Analytics." xlink:title="Body distance" target="_blank">
<ellipse fill="none" stroke="black" cx="410.37" cy="-180" rx="61.19" ry="18"/>
<text text-anchor="middle" x="410.37" y="-176.3" font-family="Times,serif" font-size="14.00">Body distance</text>
</a>
</g>
</g>
<!-- Body distance&#45;&gt;learning gain group (high or low -->
<g id="edge10" class="edge">
<title>Body distance&#45;&gt;learning gain group (high or low</title>
<path fill="none" stroke="black" d="M358.58,-170.28C317.9,-162.5 259.95,-151.42 212.2,-142.28"/>
<polygon fill="black" stroke="black" points="212.66,-138.81 202.18,-140.37 211.35,-145.68 212.66,-138.81"/>
</g>
<!-- Body distance&#45;&gt;learning gains -->
<g id="edge6" class="edge">
<title>Body distance&#45;&gt;learning gains</title>
<path fill="none" stroke="black" d="M350.56,-175.99C329.46,-172.31 306.4,-165.49 288.18,-153 264.39,-136.69 276.02,-115.23 252.18,-99 235.6,-87.71 215.16,-81.03 195.64,-77.11"/>
<polygon fill="black" stroke="black" points="196.01,-73.62 185.55,-75.3 194.77,-80.51 196.01,-73.62"/>
</g>
<!-- gesture -->
<g id="node4" class="node">
<title>gesture</title>
<g id="a_node4"><a xlink:href="https://scholar.google.com/scholar?hl=en&amp;q=The%20Additive%20Value%20of%20Multimodal%20Features%20for%20Predicting%20Engagement,%20Frustration,%20and%20Learning%20during%20Tutoring" xlink:title="gesture" target="_blank">
<ellipse fill="none" stroke="black" cx="410.37" cy="-234" rx="36.29" ry="18"/>
<text text-anchor="middle" x="410.37" y="-230.3" font-family="Times,serif" font-size="14.00">gesture</text>
</a>
</g>
</g>
<!-- learning -->
<g id="node8" class="node">
<title>learning</title>
<ellipse fill="none" stroke="black" cx="126.09" cy="-234" rx="39.79" ry="18"/>
<text text-anchor="middle" x="126.09" y="-230.3" font-family="Times,serif" font-size="14.00">learning</text>
</g>
<!-- gesture&#45;&gt;learning -->
<g id="edge1" class="edge">
<title>gesture&#45;&gt;learning</title>
<path fill="none" stroke="black" d="M373.9,-234C323.86,-234 232.34,-234 175.91,-234"/>
<polygon fill="black" stroke="black" points="175.8,-230.5 165.8,-234 175.8,-237.5 175.8,-230.5"/>
</g>
<!-- type of movement -->
<g id="node5" class="node">
<title>type of movement</title>
<g id="a_node5"><a xlink:href="https://scholar.google.com/scholar?hl=en&amp;q=Unraveling%20Students&#39;%20Interaction%20around%20a%20Tangible%20Interface%20Using%20Multimodal%20Learning%20Analytics." xlink:title="type of movement" target="_blank">
<ellipse fill="none" stroke="black" cx="410.37" cy="-126" rx="76.09" ry="18"/>
<text text-anchor="middle" x="410.37" y="-122.3" font-family="Times,serif" font-size="14.00">type of movement</text>
</a>
</g>
</g>
<!-- type of movement&#45;&gt;learning gain group (high or low -->
<g id="edge8" class="edge">
<title>type of movement&#45;&gt;learning gain group (high or low</title>
<path fill="none" stroke="black" d="M334.09,-126C311.99,-126 287.1,-126 262.45,-126"/>
<polygon fill="black" stroke="black" points="262.29,-122.5 252.29,-126 262.29,-129.5 262.29,-122.5"/>
</g>
<!-- type of movement&#45;&gt;learning gains -->
<g id="edge4" class="edge">
<title>type of movement&#45;&gt;learning gains</title>
<path fill="none" stroke="black" d="M350.54,-114.75C302.72,-105.6 235.52,-92.74 187.33,-83.52"/>
<polygon fill="black" stroke="black" points="187.83,-80.06 177.35,-81.61 186.51,-86.93 187.83,-80.06"/>
</g>
<!-- clustered hand/wrist movement -->
<g id="node6" class="node">
<title>clustered hand/wrist movement</title>
<g id="a_node6"><a xlink:href="https://scholar.google.com/scholar?hl=en&amp;q=(Dis)Engagement%20Maters:%20Identifying%20Efficacious%20Learning%20Practices%20with%20Multimodal%20Learning%20Analytics" xlink:title="clustered hand/wrist movement" target="_blank">
<ellipse fill="none" stroke="black" cx="410.37" cy="-288" rx="122.38" ry="18"/>
<text text-anchor="middle" x="410.37" y="-284.3" font-family="Times,serif" font-size="14.00">clustered hand/wrist movement</text>
</a>
</g>
</g>
<!-- Learning gains -->
<g id="node7" class="node">
<title>Learning gains</title>
<ellipse fill="none" stroke="black" cx="126.09" cy="-288" rx="63.89" ry="18"/>
<text text-anchor="middle" x="126.09" y="-284.3" font-family="Times,serif" font-size="14.00">Learning gains</text>
</g>
<!-- clustered hand/wrist movement&#45;&gt;Learning gains -->
<g id="edge2" class="edge">
<title>clustered hand/wrist movement&#45;&gt;Learning gains</title>
<path fill="none" stroke="black" d="M288.02,-288C258.07,-288 226.91,-288 200.08,-288"/>
<polygon fill="black" stroke="black" points="200.02,-284.5 190.02,-288 200.02,-291.5 200.02,-284.5"/>
</g>
</g>
</svg>
