<?xml version="1.0" encoding="UTF-8" standalone="no"?>
<!DOCTYPE svg PUBLIC "-//W3C//DTD SVG 1.1//EN"
 "http://www.w3.org/Graphics/SVG/1.1/DTD/svg11.dtd">
<!-- Generated by graphviz version 2.47.0 (20210316.0004)
 -->
<!-- Title: Test Pages: 1 -->
<svg width="720pt" height="530pt"
 viewBox="0.00 0.00 719.94 530.00" xmlns="http://www.w3.org/2000/svg" xmlns:xlink="http://www.w3.org/1999/xlink">
<g id="graph0" class="graph" transform="scale(1 1) rotate(0) translate(4 526)">
<title>Test</title>
<polygon fill="white" stroke="transparent" points="-4,4 -4,-526 715.94,-526 715.94,4 -4,4"/>
<!-- Physical synchrony -->
<g id="node1" class="node">
<title>Physical synchrony</title>
<g id="a_node1"><a xlink:href="https://scholar.google.com/scholar?hl=en&amp;q=An%20Interactive%20Table%20for%20Supporting%20Participation%20Balance%20in%20Face-to-Face%20Collaborative%20Learning" xlink:title="Physical synchrony">
<ellipse fill="none" stroke="black" cx="498.76" cy="-126" rx="79.09" ry="18"/>
<text text-anchor="middle" x="498.76" y="-122.3" font-family="Times,serif" font-size="14.00">Physical synchrony</text>
</a>
</g>
</g>
<!-- Collaboration -->
<g id="node10" class="node">
<title>Collaboration</title>
<ellipse fill="none" stroke="black" cx="124.79" cy="-72" rx="59.29" ry="18"/>
<text text-anchor="middle" x="124.79" y="-68.3" font-family="Times,serif" font-size="14.00">Collaboration</text>
</g>
<!-- Physical synchrony&#45;&gt;Collaboration -->
<g id="edge1" class="edge">
<title>Physical synchrony&#45;&gt;Collaboration</title>
<path fill="none" stroke="black" d="M427.9,-117.84C386.47,-112.82 332.96,-106.02 285.58,-99 252.57,-94.11 215.85,-87.96 185.95,-82.76"/>
<polygon fill="black" stroke="black" points="186.54,-79.31 176.08,-81.04 185.33,-86.21 186.54,-79.31"/>
</g>
<!-- Total movement across upper body joints and body parts -->
<g id="node2" class="node">
<title>Total movement across upper body joints and body parts</title>
<g id="a_node2"><a xlink:href="https://scholar.google.com/scholar?hl=en&amp;q=An%20Interactive%20Table%20for%20Supporting%20Participation%20Balance%20in%20Face-to-Face%20Collaborative%20Learning" xlink:title="Total movement across upper body joints and body parts">
<ellipse fill="none" stroke="black" cx="498.76" cy="-180" rx="213.36" ry="18"/>
<text text-anchor="middle" x="498.76" y="-176.3" font-family="Times,serif" font-size="14.00">Total movement across upper body joints and body parts</text>
</a>
</g>
</g>
<!-- collaboration quality -->
<g id="node15" class="node">
<title>collaboration quality</title>
<ellipse fill="none" stroke="black" cx="124.79" cy="-180" rx="83.69" ry="18"/>
<text text-anchor="middle" x="124.79" y="-176.3" font-family="Times,serif" font-size="14.00">collaboration quality</text>
</g>
<!-- Total movement across upper body joints and body parts&#45;&gt;collaboration quality -->
<g id="edge4" class="edge">
<title>Total movement across upper body joints and body parts&#45;&gt;collaboration quality</title>
<path fill="none" stroke="black" d="M285.43,-180C262.29,-180 239.7,-180 219.15,-180"/>
<polygon fill="black" stroke="black" points="218.91,-176.5 208.91,-180 218.91,-183.5 218.91,-176.5"/>
</g>
<!-- dyad proximity -->
<g id="node3" class="node">
<title>dyad proximity</title>
<g id="a_node3"><a xlink:href="https://scholar.google.com/scholar?hl=en&amp;q=An%20Interactive%20Table%20for%20Supporting%20Participation%20Balance%20in%20Face-to-Face%20Collaborative%20Learning" xlink:title="dyad proximity">
<ellipse fill="none" stroke="black" cx="498.76" cy="-72" rx="65.79" ry="18"/>
<text text-anchor="middle" x="498.76" y="-68.3" font-family="Times,serif" font-size="14.00">dyad proximity</text>
</a>
</g>
</g>
<!-- dyad proximity&#45;&gt;Collaboration -->
<g id="edge7" class="edge">
<title>dyad proximity&#45;&gt;Collaboration</title>
<path fill="none" stroke="black" d="M432.97,-72C366.15,-72 262.36,-72 194.23,-72"/>
<polygon fill="black" stroke="black" points="194.03,-68.5 184.03,-72 194.03,-75.5 194.03,-68.5"/>
</g>
<!-- upper body agitation -->
<g id="node4" class="node">
<title>upper body agitation</title>
<g id="a_node4"><a xlink:href="https://scholar.google.com/scholar?hl=en&amp;q=An%20Interactive%20Table%20for%20Supporting%20Participation%20Balance%20in%20Face-to-Face%20Collaborative%20Learning" xlink:title="upper body agitation">
<ellipse fill="none" stroke="black" cx="498.76" cy="-288" rx="83.69" ry="18"/>
<text text-anchor="middle" x="498.76" y="-284.3" font-family="Times,serif" font-size="14.00">upper body agitation</text>
</a>
</g>
</g>
<!-- Agreement -->
<g id="node13" class="node">
<title>Agreement</title>
<ellipse fill="none" stroke="black" cx="124.79" cy="-261" rx="50.09" ry="18"/>
<text text-anchor="middle" x="124.79" y="-257.3" font-family="Times,serif" font-size="14.00">Agreement</text>
</g>
<!-- upper body agitation&#45;&gt;Agreement -->
<g id="edge8" class="edge">
<title>upper body agitation&#45;&gt;Agreement</title>
<path fill="none" stroke="black" d="M418.87,-282.27C348.57,-277.17 247.3,-269.82 184.09,-265.23"/>
<polygon fill="black" stroke="black" points="184.12,-261.72 173.89,-264.49 183.61,-268.71 184.12,-261.72"/>
</g>
<!-- Face and upper body movement -->
<g id="node5" class="node">
<title>Face and upper body movement</title>
<g id="a_node5"><a xlink:href="https://scholar.google.com/scholar?hl=en&amp;q=An%20Interactive%20Table%20for%20Supporting%20Participation%20Balance%20in%20Face-to-Face%20Collaborative%20Learning" xlink:title="Face and upper body movement">
<ellipse fill="none" stroke="black" cx="498.76" cy="-342" rx="125.38" ry="18"/>
<text text-anchor="middle" x="498.76" y="-338.3" font-family="Times,serif" font-size="14.00">Face and upper body movement</text>
</a>
</g>
</g>
<!-- Perceived Collaboration Quality -->
<g id="node11" class="node">
<title>Perceived Collaboration Quality</title>
<ellipse fill="none" stroke="black" cx="124.79" cy="-342" rx="124.58" ry="18"/>
<text text-anchor="middle" x="124.79" y="-338.3" font-family="Times,serif" font-size="14.00">Perceived Collaboration Quality</text>
</g>
<!-- Face and upper body movement&#45;&gt;Perceived Collaboration Quality -->
<g id="edge10" class="edge">
<title>Face and upper body movement&#45;&gt;Perceived Collaboration Quality</title>
<path fill="none" stroke="black" d="M373.12,-342C336.84,-342 297.05,-342 260.2,-342"/>
<polygon fill="black" stroke="black" points="259.89,-338.5 249.89,-342 259.89,-345.5 259.89,-338.5"/>
</g>
<!-- hand agitation -->
<g id="node6" class="node">
<title>hand agitation</title>
<g id="a_node6"><a xlink:href="https://scholar.google.com/scholar?hl=en&amp;q=An%20Interactive%20Table%20for%20Supporting%20Participation%20Balance%20in%20Face-to-Face%20Collaborative%20Learning" xlink:title="hand agitation">
<ellipse fill="none" stroke="black" cx="498.76" cy="-234" rx="61.19" ry="18"/>
<text text-anchor="middle" x="498.76" y="-230.3" font-family="Times,serif" font-size="14.00">hand agitation</text>
</a>
</g>
</g>
<!-- hand agitation&#45;&gt;Agreement -->
<g id="edge9" class="edge">
<title>hand agitation&#45;&gt;Agreement</title>
<path fill="none" stroke="black" d="M439.23,-238.25C369.56,-243.31 253.92,-251.7 184.27,-256.75"/>
<polygon fill="black" stroke="black" points="183.64,-253.29 173.92,-257.51 184.15,-260.27 183.64,-253.29"/>
</g>
<!-- Distance between hands -->
<g id="node7" class="node">
<title>Distance between hands</title>
<g id="a_node7"><a xlink:href="https://scholar.google.com/scholar?hl=en&amp;q=An%20Interactive%20Table%20for%20Supporting%20Participation%20Balance%20in%20Face-to-Face%20Collaborative%20Learning" xlink:title="Distance between hands">
<ellipse fill="none" stroke="black" cx="498.76" cy="-423" rx="96.38" ry="18"/>
<text text-anchor="middle" x="498.76" y="-419.3" font-family="Times,serif" font-size="14.00">Distance between hands</text>
</a>
</g>
</g>
<!-- Synchronisation -->
<g id="node12" class="node">
<title>Synchronisation</title>
<ellipse fill="none" stroke="black" cx="124.79" cy="-450" rx="67.69" ry="18"/>
<text text-anchor="middle" x="124.79" y="-446.3" font-family="Times,serif" font-size="14.00">Synchronisation</text>
</g>
<!-- Distance between hands&#45;&gt;Synchronisation -->
<g id="edge3" class="edge">
<title>Distance between hands&#45;&gt;Synchronisation</title>
<path fill="none" stroke="black" d="M408.66,-429.47C345.07,-434.08 260.51,-440.22 200.45,-444.58"/>
<polygon fill="black" stroke="black" points="200,-441.1 190.28,-445.32 200.51,-448.09 200,-441.1"/>
</g>
<!-- Individual accountability -->
<g id="node14" class="node">
<title>Individual accountability</title>
<ellipse fill="none" stroke="black" cx="124.79" cy="-396" rx="98.58" ry="18"/>
<text text-anchor="middle" x="124.79" y="-392.3" font-family="Times,serif" font-size="14.00">Individual accountability</text>
</g>
<!-- Distance between hands&#45;&gt;Individual accountability -->
<g id="edge2" class="edge">
<title>Distance between hands&#45;&gt;Individual accountability</title>
<path fill="none" stroke="black" d="M408.66,-416.53C353.92,-412.56 283.64,-407.46 226.82,-403.33"/>
<polygon fill="black" stroke="black" points="226.97,-399.84 216.74,-402.6 226.46,-406.82 226.97,-399.84"/>
</g>
<!-- Joint movement -->
<g id="node8" class="node">
<title>Joint movement</title>
<g id="a_node8"><a xlink:href="https://scholar.google.com/scholar?hl=en&amp;q=An%20Interactive%20Table%20for%20Supporting%20Participation%20Balance%20in%20Face-to-Face%20Collaborative%20Learning" xlink:title="Joint movement">
<ellipse fill="none" stroke="black" cx="498.76" cy="-18" rx="68.49" ry="18"/>
<text text-anchor="middle" x="498.76" y="-14.3" font-family="Times,serif" font-size="14.00">Joint movement</text>
</a>
</g>
</g>
<!-- Joint movement&#45;&gt;Collaboration -->
<g id="edge6" class="edge">
<title>Joint movement&#45;&gt;Collaboration</title>
<path fill="none" stroke="black" d="M435.92,-25.19C393.55,-30.29 336.09,-37.52 285.58,-45 252.57,-49.89 215.85,-56.04 185.95,-61.24"/>
<polygon fill="black" stroke="black" points="185.33,-57.79 176.08,-62.96 186.54,-64.69 185.33,-57.79"/>
</g>
<!-- Distance between learners (DBL -->
<g id="node9" class="node">
<title>Distance between learners (DBL</title>
<g id="a_node9"><a xlink:href="https://scholar.google.com/scholar?hl=en&amp;q=An%20Interactive%20Table%20for%20Supporting%20Participation%20Balance%20in%20Face-to-Face%20Collaborative%20Learning" xlink:title="Distance between learners (DBL">
<ellipse fill="none" stroke="black" cx="498.76" cy="-504" rx="126.18" ry="18"/>
<text text-anchor="middle" x="498.76" y="-500.3" font-family="Times,serif" font-size="14.00">Distance between learners (DBL</text>
</a>
</g>
</g>
<!-- collaborative problem solving -->
<g id="node16" class="node">
<title>collaborative problem solving</title>
<ellipse fill="none" stroke="black" cx="124.79" cy="-504" rx="116.98" ry="18"/>
<text text-anchor="middle" x="124.79" y="-500.3" font-family="Times,serif" font-size="14.00">collaborative problem solving</text>
</g>
<!-- Distance between learners (DBL&#45;&gt;collaborative problem solving -->
<g id="edge5" class="edge">
<title>Distance between learners (DBL&#45;&gt;collaborative problem solving</title>
<path fill="none" stroke="black" d="M372.6,-504C333.87,-504 291.18,-504 252.35,-504"/>
<polygon fill="black" stroke="black" points="252.04,-500.5 242.04,-504 252.04,-507.5 252.04,-500.5"/>
</g>
</g>
</svg>
