<?xml version="1.0" encoding="UTF-8" standalone="no"?>
<!DOCTYPE svg PUBLIC "-//W3C//DTD SVG 1.1//EN"
 "http://www.w3.org/Graphics/SVG/1.1/DTD/svg11.dtd">
<!-- Generated by graphviz version 2.47.0 (20210316.0004)
 -->
<!-- Title: Test Pages: 1 -->
<svg width="440pt" height="206pt"
 viewBox="0.00 0.00 440.46 206.00" xmlns="http://www.w3.org/2000/svg" xmlns:xlink="http://www.w3.org/1999/xlink">
<g id="graph0" class="graph" transform="scale(1 1) rotate(0) translate(4 202)">
<title>Test</title>
<polygon fill="white" stroke="transparent" points="-4,4 -4,-202 436.46,-202 436.46,4 -4,4"/>
<!-- gesture -->
<g id="node1" class="node">
<title>gesture</title>
<g id="a_node1"><a xlink:href="https://scholar.google.com/scholar?hl=en&amp;q=An%20Interactive%20Table%20for%20Supporting%20Participation%20Balance%20in%20Face-to-Face%20Collaborative%20Learning" xlink:title="gesture">
<ellipse fill="none" stroke="black" cx="333.02" cy="-18" rx="36.29" ry="18"/>
<text text-anchor="middle" x="333.02" y="-14.3" font-family="Times,serif" font-size="14.00">gesture</text>
</a>
</g>
</g>
<!-- engagement -->
<g id="node6" class="node">
<title>engagement</title>
<ellipse fill="none" stroke="black" cx="98.79" cy="-18" rx="53.89" ry="18"/>
<text text-anchor="middle" x="98.79" y="-14.3" font-family="Times,serif" font-size="14.00">engagement</text>
</g>
<!-- gesture&#45;&gt;engagement -->
<g id="edge1" class="edge">
<title>gesture&#45;&gt;engagement</title>
<path fill="none" stroke="black" d="M296.5,-18C261.09,-18 205.96,-18 163.06,-18"/>
<polygon fill="black" stroke="black" points="162.99,-14.5 152.99,-18 162.99,-21.5 162.99,-14.5"/>
</g>
<!-- gesture type and location -->
<g id="node2" class="node">
<title>gesture type and location</title>
<g id="a_node2"><a xlink:href="https://scholar.google.com/scholar?hl=en&amp;q=An%20Interactive%20Table%20for%20Supporting%20Participation%20Balance%20in%20Face-to-Face%20Collaborative%20Learning" xlink:title="gesture type and location">
<ellipse fill="none" stroke="black" cx="333.02" cy="-72" rx="99.38" ry="18"/>
<text text-anchor="middle" x="333.02" y="-68.3" font-family="Times,serif" font-size="14.00">gesture type and location</text>
</a>
</g>
</g>
<!-- subjective workload -->
<g id="node4" class="node">
<title>subjective workload</title>
<ellipse fill="none" stroke="black" cx="98.79" cy="-72" rx="81.79" ry="18"/>
<text text-anchor="middle" x="98.79" y="-68.3" font-family="Times,serif" font-size="14.00">subjective workload</text>
</g>
<!-- gesture type and location&#45;&gt;subjective workload -->
<g id="edge3" class="edge">
<title>gesture type and location&#45;&gt;subjective workload</title>
<path fill="none" stroke="black" d="M233.54,-72C219.41,-72 204.93,-72 190.95,-72"/>
<polygon fill="black" stroke="black" points="190.88,-68.5 180.88,-72 190.88,-75.5 190.88,-68.5"/>
</g>
<!-- Distance between hands -->
<g id="node3" class="node">
<title>Distance between hands</title>
<g id="a_node3"><a xlink:href="https://scholar.google.com/scholar?hl=en&amp;q=An%20Interactive%20Table%20for%20Supporting%20Participation%20Balance%20in%20Face-to-Face%20Collaborative%20Learning" xlink:title="Distance between hands">
<ellipse fill="none" stroke="black" cx="333.02" cy="-153" rx="96.38" ry="18"/>
<text text-anchor="middle" x="333.02" y="-149.3" font-family="Times,serif" font-size="14.00">Distance between hands</text>
</a>
</g>
</g>
<!-- Physical engagement -->
<g id="node5" class="node">
<title>Physical engagement</title>
<ellipse fill="none" stroke="black" cx="98.79" cy="-180" rx="85.59" ry="18"/>
<text text-anchor="middle" x="98.79" y="-176.3" font-family="Times,serif" font-size="14.00">Physical engagement</text>
</g>
<!-- Distance between hands&#45;&gt;Physical engagement -->
<g id="edge2" class="edge">
<title>Distance between hands&#45;&gt;Physical engagement</title>
<path fill="none" stroke="black" d="M250.8,-162.44C229.35,-164.94 206.14,-167.64 184.51,-170.15"/>
<polygon fill="black" stroke="black" points="183.89,-166.7 174.36,-171.33 184.7,-173.65 183.89,-166.7"/>
</g>
<!-- Individual accountability -->
<g id="node7" class="node">
<title>Individual accountability</title>
<ellipse fill="none" stroke="black" cx="98.79" cy="-126" rx="98.58" ry="18"/>
<text text-anchor="middle" x="98.79" y="-122.3" font-family="Times,serif" font-size="14.00">Individual accountability</text>
</g>
<!-- Distance between hands&#45;&gt;Individual accountability -->
<g id="edge4" class="edge">
<title>Distance between hands&#45;&gt;Individual accountability</title>
<path fill="none" stroke="black" d="M250.8,-143.56C231.98,-141.37 211.8,-139.02 192.53,-136.78"/>
<polygon fill="black" stroke="black" points="192.88,-133.3 182.54,-135.62 192.07,-140.25 192.88,-133.3"/>
</g>
</g>
</svg>
