<?xml version="1.0" encoding="UTF-8" standalone="no"?>
<!DOCTYPE svg PUBLIC "-//W3C//DTD SVG 1.1//EN"
 "http://www.w3.org/Graphics/SVG/1.1/DTD/svg11.dtd">
<!-- Generated by graphviz version 2.47.0 (20210316.0004)
 -->
<!-- Title: Test Pages: 1 -->
<svg width="541pt" height="314pt"
 viewBox="0.00 0.00 540.56 314.00" xmlns="http://www.w3.org/2000/svg" xmlns:xlink="http://www.w3.org/1999/xlink">
<g id="graph0" class="graph" transform="scale(1 1) rotate(0) translate(4 310)">
<title>Test</title>
<polygon fill="white" stroke="transparent" points="-4,4 -4,-310 536.56,-310 536.56,4 -4,4"/>
<!-- Body distance -->
<g id="node1" class="node">
<title>Body distance</title>
<g id="a_node1"><a xlink:href="https://scholar.google.com/scholar?hl=en&amp;q=An%20Interactive%20Table%20for%20Supporting%20Participation%20Balance%20in%20Face-to-Face%20Collaborative%20Learning" xlink:title="Body distance">
<ellipse fill="none" stroke="black" cx="410.37" cy="-72" rx="61.19" ry="18"/>
<text text-anchor="middle" x="410.37" y="-68.3" font-family="Times,serif" font-size="14.00">Body distance</text>
</a>
</g>
</g>
<!-- learning gains -->
<g id="node7" class="node">
<title>learning gains</title>
<ellipse fill="none" stroke="black" cx="126.09" cy="-126" rx="60.39" ry="18"/>
<text text-anchor="middle" x="126.09" y="-122.3" font-family="Times,serif" font-size="14.00">learning gains</text>
</g>
<!-- Body distance&#45;&gt;learning gains -->
<g id="edge6" class="edge">
<title>Body distance&#45;&gt;learning gains</title>
<path fill="none" stroke="black" d="M358.58,-81.72C310.51,-90.91 238.33,-104.72 187.37,-114.47"/>
<polygon fill="black" stroke="black" points="186.64,-111.04 177.47,-116.36 187.95,-117.92 186.64,-111.04"/>
</g>
<!-- learning gain group (high or low -->
<g id="node10" class="node">
<title>learning gain group (high or low</title>
<ellipse fill="none" stroke="black" cx="126.09" cy="-72" rx="126.18" ry="18"/>
<text text-anchor="middle" x="126.09" y="-68.3" font-family="Times,serif" font-size="14.00">learning gain group (high or low</text>
</g>
<!-- Body distance&#45;&gt;learning gain group (high or low -->
<g id="edge10" class="edge">
<title>Body distance&#45;&gt;learning gain group (high or low</title>
<path fill="none" stroke="black" d="M349.16,-72C323.7,-72 292.94,-72 262.53,-72"/>
<polygon fill="black" stroke="black" points="262.23,-68.5 252.23,-72 262.23,-75.5 262.23,-68.5"/>
</g>
<!-- Body synchronization -->
<g id="node2" class="node">
<title>Body synchronization</title>
<g id="a_node2"><a xlink:href="https://scholar.google.com/scholar?hl=en&amp;q=An%20Interactive%20Table%20for%20Supporting%20Participation%20Balance%20in%20Face-to-Face%20Collaborative%20Learning" xlink:title="Body synchronization">
<ellipse fill="none" stroke="black" cx="410.37" cy="-18" rx="88.28" ry="18"/>
<text text-anchor="middle" x="410.37" y="-14.3" font-family="Times,serif" font-size="14.00">Body synchronization</text>
</a>
</g>
</g>
<!-- Body synchronization&#45;&gt;learning gains -->
<g id="edge5" class="edge">
<title>Body synchronization&#45;&gt;learning gains</title>
<path fill="none" stroke="black" d="M331.38,-26.19C316.16,-30.25 300.98,-36.22 288.18,-45 264.39,-61.31 276.02,-82.77 252.18,-99 235.6,-110.29 215.16,-116.97 195.64,-120.89"/>
<polygon fill="black" stroke="black" points="194.77,-117.49 185.55,-122.7 196.01,-124.38 194.77,-117.49"/>
</g>
<!-- Body synchronization&#45;&gt;learning gain group (high or low -->
<g id="edge9" class="edge">
<title>Body synchronization&#45;&gt;learning gain group (high or low</title>
<path fill="none" stroke="black" d="M345.31,-30.25C305.93,-37.79 254.99,-47.53 212.23,-55.71"/>
<polygon fill="black" stroke="black" points="211.56,-52.28 202.4,-57.59 212.87,-59.15 211.56,-52.28"/>
</g>
<!-- clustered hand/wrist movement -->
<g id="node3" class="node">
<title>clustered hand/wrist movement</title>
<g id="a_node3"><a xlink:href="https://scholar.google.com/scholar?hl=en&amp;q=An%20Interactive%20Table%20for%20Supporting%20Participation%20Balance%20in%20Face-to-Face%20Collaborative%20Learning" xlink:title="clustered hand/wrist movement">
<ellipse fill="none" stroke="black" cx="410.37" cy="-234" rx="122.38" ry="18"/>
<text text-anchor="middle" x="410.37" y="-230.3" font-family="Times,serif" font-size="14.00">clustered hand/wrist movement</text>
</a>
</g>
</g>
<!-- Learning gains -->
<g id="node8" class="node">
<title>Learning gains</title>
<ellipse fill="none" stroke="black" cx="126.09" cy="-234" rx="63.89" ry="18"/>
<text text-anchor="middle" x="126.09" y="-230.3" font-family="Times,serif" font-size="14.00">Learning gains</text>
</g>
<!-- clustered hand/wrist movement&#45;&gt;Learning gains -->
<g id="edge2" class="edge">
<title>clustered hand/wrist movement&#45;&gt;Learning gains</title>
<path fill="none" stroke="black" d="M288.02,-234C258.07,-234 226.91,-234 200.08,-234"/>
<polygon fill="black" stroke="black" points="200.02,-230.5 190.02,-234 200.02,-237.5 200.02,-230.5"/>
</g>
<!-- gesture -->
<g id="node4" class="node">
<title>gesture</title>
<g id="a_node4"><a xlink:href="https://scholar.google.com/scholar?hl=en&amp;q=An%20Interactive%20Table%20for%20Supporting%20Participation%20Balance%20in%20Face-to-Face%20Collaborative%20Learning" xlink:title="gesture">
<ellipse fill="none" stroke="black" cx="410.37" cy="-288" rx="36.29" ry="18"/>
<text text-anchor="middle" x="410.37" y="-284.3" font-family="Times,serif" font-size="14.00">gesture</text>
</a>
</g>
</g>
<!-- learning -->
<g id="node9" class="node">
<title>learning</title>
<ellipse fill="none" stroke="black" cx="126.09" cy="-288" rx="39.79" ry="18"/>
<text text-anchor="middle" x="126.09" y="-284.3" font-family="Times,serif" font-size="14.00">learning</text>
</g>
<!-- gesture&#45;&gt;learning -->
<g id="edge1" class="edge">
<title>gesture&#45;&gt;learning</title>
<path fill="none" stroke="black" d="M373.9,-288C323.86,-288 232.34,-288 175.91,-288"/>
<polygon fill="black" stroke="black" points="175.8,-284.5 165.8,-288 175.8,-291.5 175.8,-284.5"/>
</g>
<!-- amount of movement -->
<g id="node5" class="node">
<title>amount of movement</title>
<g id="a_node5"><a xlink:href="https://scholar.google.com/scholar?hl=en&amp;q=An%20Interactive%20Table%20for%20Supporting%20Participation%20Balance%20in%20Face-to-Face%20Collaborative%20Learning" xlink:title="amount of movement">
<ellipse fill="none" stroke="black" cx="410.37" cy="-180" rx="87.99" ry="18"/>
<text text-anchor="middle" x="410.37" y="-176.3" font-family="Times,serif" font-size="14.00">amount of movement</text>
</a>
</g>
</g>
<!-- amount of movement&#45;&gt;learning gains -->
<g id="edge3" class="edge">
<title>amount of movement&#45;&gt;learning gains</title>
<path fill="none" stroke="black" d="M345.67,-167.81C298.25,-158.74 233.94,-146.44 187.37,-137.53"/>
<polygon fill="black" stroke="black" points="187.89,-134.07 177.41,-135.63 186.58,-140.94 187.89,-134.07"/>
</g>
<!-- amount of movement&#45;&gt;learning gain group (high or low -->
<g id="edge7" class="edge">
<title>amount of movement&#45;&gt;learning gain group (high or low</title>
<path fill="none" stroke="black" d="M331.7,-171.89C316.38,-167.83 301.07,-161.84 288.18,-153 264.39,-136.69 276.02,-115.23 252.18,-99 245.52,-94.47 238.24,-90.68 230.64,-87.51"/>
<polygon fill="black" stroke="black" points="231.83,-84.22 221.24,-83.95 229.35,-90.76 231.83,-84.22"/>
</g>
<!-- type of movement -->
<g id="node6" class="node">
<title>type of movement</title>
<g id="a_node6"><a xlink:href="https://scholar.google.com/scholar?hl=en&amp;q=An%20Interactive%20Table%20for%20Supporting%20Participation%20Balance%20in%20Face-to-Face%20Collaborative%20Learning" xlink:title="type of movement">
<ellipse fill="none" stroke="black" cx="410.37" cy="-126" rx="76.09" ry="18"/>
<text text-anchor="middle" x="410.37" y="-122.3" font-family="Times,serif" font-size="14.00">type of movement</text>
</a>
</g>
</g>
<!-- type of movement&#45;&gt;learning gains -->
<g id="edge4" class="edge">
<title>type of movement&#45;&gt;learning gains</title>
<path fill="none" stroke="black" d="M334.09,-126C291.39,-126 238.33,-126 196.61,-126"/>
<polygon fill="black" stroke="black" points="196.54,-122.5 186.54,-126 196.54,-129.5 196.54,-122.5"/>
</g>
<!-- type of movement&#45;&gt;learning gain group (high or low -->
<g id="edge8" class="edge">
<title>type of movement&#45;&gt;learning gain group (high or low</title>
<path fill="none" stroke="black" d="M350.54,-114.75C310.5,-107.09 256.89,-96.83 212.22,-88.28"/>
<polygon fill="black" stroke="black" points="212.72,-84.82 202.24,-86.38 211.41,-91.69 212.72,-84.82"/>
</g>
</g>
</svg>
