<?xml version="1.0" encoding="UTF-8" standalone="no"?>
<!DOCTYPE svg PUBLIC "-//W3C//DTD SVG 1.1//EN"
 "http://www.w3.org/Graphics/SVG/1.1/DTD/svg11.dtd">
<!-- Generated by graphviz version 2.47.0 (20210316.0004)
 -->
<!-- Title: Test Pages: 1 -->
<svg width="541pt" height="314pt"
 viewBox="0.00 0.00 540.56 314.00" xmlns="http://www.w3.org/2000/svg" xmlns:xlink="http://www.w3.org/1999/xlink">
<g id="graph0" class="graph" transform="scale(1 1) rotate(0) translate(4 310)">
<title>Test</title>
<polygon fill="white" stroke="transparent" points="-4,4 -4,-310 536.56,-310 536.56,4 -4,4"/>
<!-- type of movement -->
<g id="node1" class="node">
<title>type of movement</title>
<g id="a_node1"><a xlink:href="https://scholar.google.com/scholar?hl=en&amp;q=Unraveling%20Students&#39;%20Interaction%20around%20a%20Tangible%20Interface%20Using%20Multimodal%20Learning%20Analytics." xlink:title="type of movement">
<ellipse fill="none" stroke="black" cx="410.37" cy="-72" rx="76.09" ry="18"/>
<text text-anchor="middle" x="410.37" y="-68.3" font-family="Times,serif" font-size="14.00">type of movement</text>
</a>
</g>
</g>
<!-- learning gains -->
<g id="node8" class="node">
<title>learning gains</title>
<ellipse fill="none" stroke="black" cx="126.09" cy="-126" rx="60.39" ry="18"/>
<text text-anchor="middle" x="126.09" y="-122.3" font-family="Times,serif" font-size="14.00">learning gains</text>
</g>
<!-- type of movement&#45;&gt;learning gains -->
<g id="edge4" class="edge">
<title>type of movement&#45;&gt;learning gains</title>
<path fill="none" stroke="black" d="M350.54,-83.25C302.72,-92.4 235.52,-105.26 187.33,-114.48"/>
<polygon fill="black" stroke="black" points="186.51,-111.07 177.35,-116.39 187.83,-117.94 186.51,-111.07"/>
</g>
<!-- learning gain group (high or low -->
<g id="node9" class="node">
<title>learning gain group (high or low</title>
<ellipse fill="none" stroke="black" cx="126.09" cy="-72" rx="126.18" ry="18"/>
<text text-anchor="middle" x="126.09" y="-68.3" font-family="Times,serif" font-size="14.00">learning gain group (high or low</text>
</g>
<!-- type of movement&#45;&gt;learning gain group (high or low -->
<g id="edge8" class="edge">
<title>type of movement&#45;&gt;learning gain group (high or low</title>
<path fill="none" stroke="black" d="M334.09,-72C311.99,-72 287.1,-72 262.45,-72"/>
<polygon fill="black" stroke="black" points="262.29,-68.5 252.29,-72 262.29,-75.5 262.29,-68.5"/>
</g>
<!-- clustered hand/wrist movement -->
<g id="node2" class="node">
<title>clustered hand/wrist movement</title>
<g id="a_node2"><a xlink:href="https://scholar.google.com/scholar?hl=en&amp;q=(Dis)Engagement%20Maters:%20Identifying%20Efficacious%20Learning%20Practices%20with%20Multimodal%20Learning%20Analytics" xlink:title="clustered hand/wrist movement">
<ellipse fill="none" stroke="black" cx="410.37" cy="-234" rx="122.38" ry="18"/>
<text text-anchor="middle" x="410.37" y="-230.3" font-family="Times,serif" font-size="14.00">clustered hand/wrist movement</text>
</a>
</g>
</g>
<!-- Learning gains -->
<g id="node7" class="node">
<title>Learning gains</title>
<ellipse fill="none" stroke="black" cx="126.09" cy="-234" rx="63.89" ry="18"/>
<text text-anchor="middle" x="126.09" y="-230.3" font-family="Times,serif" font-size="14.00">Learning gains</text>
</g>
<!-- clustered hand/wrist movement&#45;&gt;Learning gains -->
<g id="edge2" class="edge">
<title>clustered hand/wrist movement&#45;&gt;Learning gains</title>
<path fill="none" stroke="black" d="M288.02,-234C258.07,-234 226.91,-234 200.08,-234"/>
<polygon fill="black" stroke="black" points="200.02,-230.5 190.02,-234 200.02,-237.5 200.02,-230.5"/>
</g>
<!-- Body synchronization -->
<g id="node3" class="node">
<title>Body synchronization</title>
<g id="a_node3"><a xlink:href="https://scholar.google.com/scholar?hl=en&amp;q=Unraveling%20Students&#39;%20Interaction%20around%20a%20Tangible%20Interface%20Using%20Multimodal%20Learning%20Analytics." xlink:title="Body synchronization">
<ellipse fill="none" stroke="black" cx="410.37" cy="-18" rx="88.28" ry="18"/>
<text text-anchor="middle" x="410.37" y="-14.3" font-family="Times,serif" font-size="14.00">Body synchronization</text>
</a>
</g>
</g>
<!-- Body synchronization&#45;&gt;learning gains -->
<g id="edge5" class="edge">
<title>Body synchronization&#45;&gt;learning gains</title>
<path fill="none" stroke="black" d="M331.38,-26.19C316.16,-30.25 300.98,-36.22 288.18,-45 264.39,-61.31 276.02,-82.77 252.18,-99 235.6,-110.29 215.16,-116.97 195.64,-120.89"/>
<polygon fill="black" stroke="black" points="194.77,-117.49 185.55,-122.7 196.01,-124.38 194.77,-117.49"/>
</g>
<!-- Body synchronization&#45;&gt;learning gain group (high or low -->
<g id="edge9" class="edge">
<title>Body synchronization&#45;&gt;learning gain group (high or low</title>
<path fill="none" stroke="black" d="M345.31,-30.25C305.93,-37.79 254.99,-47.53 212.23,-55.71"/>
<polygon fill="black" stroke="black" points="211.56,-52.28 202.4,-57.59 212.87,-59.15 211.56,-52.28"/>
</g>
<!-- Body distance -->
<g id="node4" class="node">
<title>Body distance</title>
<g id="a_node4"><a xlink:href="https://scholar.google.com/scholar?hl=en&amp;q=Unraveling%20Students&#39;%20Interaction%20around%20a%20Tangible%20Interface%20Using%20Multimodal%20Learning%20Analytics." xlink:title="Body distance">
<ellipse fill="none" stroke="black" cx="410.37" cy="-180" rx="61.19" ry="18"/>
<text text-anchor="middle" x="410.37" y="-176.3" font-family="Times,serif" font-size="14.00">Body distance</text>
</a>
</g>
</g>
<!-- Body distance&#45;&gt;learning gains -->
<g id="edge6" class="edge">
<title>Body distance&#45;&gt;learning gains</title>
<path fill="none" stroke="black" d="M358.58,-170.28C310.51,-161.09 238.33,-147.28 187.37,-137.53"/>
<polygon fill="black" stroke="black" points="187.95,-134.08 177.47,-135.64 186.64,-140.96 187.95,-134.08"/>
</g>
<!-- Body distance&#45;&gt;learning gain group (high or low -->
<g id="edge10" class="edge">
<title>Body distance&#45;&gt;learning gain group (high or low</title>
<path fill="none" stroke="black" d="M350.56,-175.99C329.46,-172.31 306.4,-165.49 288.18,-153 264.39,-136.69 276.02,-115.23 252.18,-99 245.52,-94.47 238.24,-90.68 230.64,-87.51"/>
<polygon fill="black" stroke="black" points="231.83,-84.22 221.24,-83.95 229.35,-90.76 231.83,-84.22"/>
</g>
<!-- gesture -->
<g id="node5" class="node">
<title>gesture</title>
<g id="a_node5"><a xlink:href="https://scholar.google.com/scholar?hl=en&amp;q=The%20Additive%20Value%20of%20Multimodal%20Features%20for%20Predicting%20Engagement,%20Frustration,%20and%20Learning%20during%20Tutoring" xlink:title="gesture">
<ellipse fill="none" stroke="black" cx="410.37" cy="-288" rx="36.29" ry="18"/>
<text text-anchor="middle" x="410.37" y="-284.3" font-family="Times,serif" font-size="14.00">gesture</text>
</a>
</g>
</g>
<!-- learning -->
<g id="node10" class="node">
<title>learning</title>
<ellipse fill="none" stroke="black" cx="126.09" cy="-288" rx="39.79" ry="18"/>
<text text-anchor="middle" x="126.09" y="-284.3" font-family="Times,serif" font-size="14.00">learning</text>
</g>
<!-- gesture&#45;&gt;learning -->
<g id="edge1" class="edge">
<title>gesture&#45;&gt;learning</title>
<path fill="none" stroke="black" d="M373.9,-288C323.86,-288 232.34,-288 175.91,-288"/>
<polygon fill="black" stroke="black" points="175.8,-284.5 165.8,-288 175.8,-291.5 175.8,-284.5"/>
</g>
<!-- amount of movement -->
<g id="node6" class="node">
<title>amount of movement</title>
<g id="a_node6"><a xlink:href="https://scholar.google.com/scholar?hl=en&amp;q=Unraveling%20Students&#39;%20Interaction%20around%20a%20Tangible%20Interface%20Using%20Multimodal%20Learning%20Analytics." xlink:title="amount of movement">
<ellipse fill="none" stroke="black" cx="410.37" cy="-126" rx="87.99" ry="18"/>
<text text-anchor="middle" x="410.37" y="-122.3" font-family="Times,serif" font-size="14.00">amount of movement</text>
</a>
</g>
</g>
<!-- amount of movement&#45;&gt;learning gains -->
<g id="edge3" class="edge">
<title>amount of movement&#45;&gt;learning gains</title>
<path fill="none" stroke="black" d="M322.37,-126C282.1,-126 234.89,-126 196.98,-126"/>
<polygon fill="black" stroke="black" points="196.54,-122.5 186.54,-126 196.54,-129.5 196.54,-122.5"/>
</g>
<!-- amount of movement&#45;&gt;learning gain group (high or low -->
<g id="edge7" class="edge">
<title>amount of movement&#45;&gt;learning gain group (high or low</title>
<path fill="none" stroke="black" d="M345.67,-113.81C306.22,-106.27 255.08,-96.48 212.18,-88.28"/>
<polygon fill="black" stroke="black" points="212.8,-84.83 202.32,-86.39 211.48,-91.71 212.8,-84.83"/>
</g>
</g>
</svg>
