<?xml version="1.0" encoding="UTF-8" standalone="no"?>
<!DOCTYPE svg PUBLIC "-//W3C//DTD SVG 1.1//EN"
 "http://www.w3.org/Graphics/SVG/1.1/DTD/svg11.dtd">
<!-- Generated by graphviz version 2.47.0 (20210316.0004)
 -->
<!-- Title: Test Pages: 1 -->
<svg width="658pt" height="260pt"
 viewBox="0.00 0.00 657.55 260.00" xmlns="http://www.w3.org/2000/svg" xmlns:xlink="http://www.w3.org/1999/xlink">
<g id="graph0" class="graph" transform="scale(1 1) rotate(0) translate(4 256)">
<title>Test</title>
<polygon fill="white" stroke="transparent" points="-4,4 -4,-256 653.55,-256 653.55,4 -4,4"/>
<!-- gesture type and location -->
<g id="node1" class="node">
<title>gesture type and location</title>
<g id="a_node1"><a xlink:href="https://scholar.google.com/scholar?hl=en&amp;q=An%20Interactive%20Table%20for%20Supporting%20Participation%20Balance%20in%20Face-to-Face%20Collaborative%20Learning" xlink:title="gesture type and location">
<ellipse fill="none" stroke="black" cx="436.36" cy="-18" rx="99.38" ry="18"/>
<text text-anchor="middle" x="436.36" y="-14.3" font-family="Times,serif" font-size="14.00">gesture type and location</text>
</a>
</g>
</g>
<!-- frequency of utterances -->
<g id="node7" class="node">
<title>frequency of utterances</title>
<ellipse fill="none" stroke="black" cx="93.59" cy="-18" rx="93.68" ry="18"/>
<text text-anchor="middle" x="93.59" y="-14.3" font-family="Times,serif" font-size="14.00">frequency of utterances</text>
</g>
<!-- gesture type and location&#45;&gt;frequency of utterances -->
<g id="edge1" class="edge">
<title>gesture type and location&#45;&gt;frequency of utterances</title>
<path fill="none" stroke="black" d="M336.8,-18C293.12,-18 241.74,-18 197.57,-18"/>
<polygon fill="black" stroke="black" points="197.38,-14.5 187.38,-18 197.38,-21.5 197.38,-14.5"/>
</g>
<!-- Physical synchrony -->
<g id="node2" class="node">
<title>Physical synchrony</title>
<g id="a_node2"><a xlink:href="https://scholar.google.com/scholar?hl=en&amp;q=An%20Interactive%20Table%20for%20Supporting%20Participation%20Balance%20in%20Face-to-Face%20Collaborative%20Learning" xlink:title="Physical synchrony">
<ellipse fill="none" stroke="black" cx="436.36" cy="-180" rx="79.09" ry="18"/>
<text text-anchor="middle" x="436.36" y="-176.3" font-family="Times,serif" font-size="14.00">Physical synchrony</text>
</a>
</g>
</g>
<!-- Collaboration -->
<g id="node6" class="node">
<title>Collaboration</title>
<ellipse fill="none" stroke="black" cx="93.59" cy="-126" rx="59.29" ry="18"/>
<text text-anchor="middle" x="93.59" y="-122.3" font-family="Times,serif" font-size="14.00">Collaboration</text>
</g>
<!-- Physical synchrony&#45;&gt;Collaboration -->
<g id="edge2" class="edge">
<title>Physical synchrony&#45;&gt;Collaboration</title>
<path fill="none" stroke="black" d="M364.43,-172.42C323.1,-167.64 270.06,-160.89 223.18,-153 199.48,-149.01 173.51,-143.73 151.15,-138.9"/>
<polygon fill="black" stroke="black" points="151.66,-135.43 141.15,-136.72 150.17,-142.27 151.66,-135.43"/>
</g>
<!-- Total movement across upper body joints and body parts -->
<g id="node3" class="node">
<title>Total movement across upper body joints and body parts</title>
<g id="a_node3"><a xlink:href="https://scholar.google.com/scholar?hl=en&amp;q=An%20Interactive%20Table%20for%20Supporting%20Participation%20Balance%20in%20Face-to-Face%20Collaborative%20Learning" xlink:title="Total movement across upper body joints and body parts">
<ellipse fill="none" stroke="black" cx="436.36" cy="-234" rx="213.36" ry="18"/>
<text text-anchor="middle" x="436.36" y="-230.3" font-family="Times,serif" font-size="14.00">Total movement across upper body joints and body parts</text>
</a>
</g>
</g>
<!-- collaboration quality -->
<g id="node8" class="node">
<title>collaboration quality</title>
<ellipse fill="none" stroke="black" cx="93.59" cy="-234" rx="83.69" ry="18"/>
<text text-anchor="middle" x="93.59" y="-230.3" font-family="Times,serif" font-size="14.00">collaboration quality</text>
</g>
<!-- Total movement across upper body joints and body parts&#45;&gt;collaboration quality -->
<g id="edge3" class="edge">
<title>Total movement across upper body joints and body parts&#45;&gt;collaboration quality</title>
<path fill="none" stroke="black" d="M222.94,-234C210.85,-234 199.06,-234 187.84,-234"/>
<polygon fill="black" stroke="black" points="187.7,-230.5 177.7,-234 187.7,-237.5 187.7,-230.5"/>
</g>
<!-- dyad proximity -->
<g id="node4" class="node">
<title>dyad proximity</title>
<g id="a_node4"><a xlink:href="https://scholar.google.com/scholar?hl=en&amp;q=An%20Interactive%20Table%20for%20Supporting%20Participation%20Balance%20in%20Face-to-Face%20Collaborative%20Learning" xlink:title="dyad proximity">
<ellipse fill="none" stroke="black" cx="436.36" cy="-126" rx="65.79" ry="18"/>
<text text-anchor="middle" x="436.36" y="-122.3" font-family="Times,serif" font-size="14.00">dyad proximity</text>
</a>
</g>
</g>
<!-- dyad proximity&#45;&gt;Collaboration -->
<g id="edge5" class="edge">
<title>dyad proximity&#45;&gt;Collaboration</title>
<path fill="none" stroke="black" d="M370.47,-126C311.14,-126 223.68,-126 163.21,-126"/>
<polygon fill="black" stroke="black" points="163,-122.5 153,-126 163,-129.5 163,-122.5"/>
</g>
<!-- Joint movement -->
<g id="node5" class="node">
<title>Joint movement</title>
<g id="a_node5"><a xlink:href="https://scholar.google.com/scholar?hl=en&amp;q=An%20Interactive%20Table%20for%20Supporting%20Participation%20Balance%20in%20Face-to-Face%20Collaborative%20Learning" xlink:title="Joint movement">
<ellipse fill="none" stroke="black" cx="436.36" cy="-72" rx="68.49" ry="18"/>
<text text-anchor="middle" x="436.36" y="-68.3" font-family="Times,serif" font-size="14.00">Joint movement</text>
</a>
</g>
</g>
<!-- Joint movement&#45;&gt;Collaboration -->
<g id="edge4" class="edge">
<title>Joint movement&#45;&gt;Collaboration</title>
<path fill="none" stroke="black" d="M372.5,-78.66C330.17,-83.47 273.17,-90.59 223.18,-99 199.48,-102.99 173.51,-108.27 151.15,-113.1"/>
<polygon fill="black" stroke="black" points="150.17,-109.73 141.15,-115.28 151.66,-116.57 150.17,-109.73"/>
</g>
</g>
</svg>
