<?xml version="1.0" encoding="UTF-8" standalone="no"?>
<!DOCTYPE svg PUBLIC "-//W3C//DTD SVG 1.1//EN"
 "http://www.w3.org/Graphics/SVG/1.1/DTD/svg11.dtd">
<!-- Generated by graphviz version 2.47.0 (20210316.0004)
 -->
<!-- Title: Test Pages: 1 -->
<svg width="440pt" height="219pt"
 viewBox="0.00 0.00 440.46 219.00" xmlns="http://www.w3.org/2000/svg" xmlns:xlink="http://www.w3.org/1999/xlink">
<g id="graph0" class="graph" transform="scale(1 1) rotate(0) translate(4 215)">
<title>Test</title>
<polygon fill="white" stroke="transparent" points="-4,4 -4,-215 436.46,-215 436.46,4 -4,4"/>
<!-- gesture type and location -->
<g id="node1" class="node">
<title>gesture type and location</title>
<g id="a_node1"><a xlink:href="https://scholar.google.com/scholar?hl=en&amp;q=Improving%20Visibility%20of%20Remote%20Gestures%20in%20Distributed%20Tabletop%20Collaboration" xlink:title="gesture type and location">
<ellipse fill="none" stroke="black" cx="333.02" cy="-18" rx="99.38" ry="18"/>
<text text-anchor="middle" x="333.02" y="-14.3" font-family="Times,serif" font-size="14.00">gesture type and location</text>
</a>
</g>
</g>
<!-- subjective workload -->
<g id="node4" class="node">
<title>subjective workload</title>
<ellipse fill="none" stroke="black" cx="98.79" cy="-18" rx="81.79" ry="18"/>
<text text-anchor="middle" x="98.79" y="-14.3" font-family="Times,serif" font-size="14.00">subjective workload</text>
</g>
<!-- gesture type and location&#45;&gt;subjective workload -->
<g id="edge3" class="edge">
<title>gesture type and location&#45;&gt;subjective workload</title>
<path fill="none" stroke="black" d="M233.54,-18C219.41,-18 204.93,-18 190.95,-18"/>
<polygon fill="black" stroke="black" points="190.88,-14.5 180.88,-18 190.88,-21.5 190.88,-14.5"/>
</g>
<!-- Distance between hands -->
<g id="node2" class="node">
<title>Distance between hands</title>
<g id="a_node2"><a xlink:href="https://scholar.google.com/scholar?hl=en&amp;q=Using%20Multimodal%20Learning%20Analytics%20to%20Identify%20Aspects%20of%20Collaboration%20in%20Project-Based%20Learning" xlink:title="Distance between hands">
<ellipse fill="none" stroke="black" cx="333.02" cy="-99" rx="96.38" ry="18"/>
<text text-anchor="middle" x="333.02" y="-95.3" font-family="Times,serif" font-size="14.00">Distance between hands</text>
</a>
</g>
</g>
<!-- Physical engagement -->
<g id="node5" class="node">
<title>Physical engagement</title>
<ellipse fill="none" stroke="black" cx="98.79" cy="-139" rx="85.59" ry="18"/>
<text text-anchor="middle" x="98.79" y="-135.3" font-family="Times,serif" font-size="14.00">Physical engagement</text>
</g>
<!-- Distance between hands&#45;&gt;Physical engagement -->
<g id="edge2" class="edge">
<title>Distance between hands&#45;&gt;Physical engagement</title>
<path fill="none" stroke="black" d="M261.72,-111.11C234.61,-115.78 203.53,-121.13 175.9,-125.89"/>
<polygon fill="black" stroke="black" points="175.15,-122.47 165.89,-127.62 176.34,-129.37 175.15,-122.47"/>
</g>
<!-- Individual accountability -->
<g id="node6" class="node">
<title>Individual accountability</title>
<ellipse fill="none" stroke="black" cx="98.79" cy="-85" rx="98.58" ry="18"/>
<text text-anchor="middle" x="98.79" y="-81.3" font-family="Times,serif" font-size="14.00">Individual accountability</text>
</g>
<!-- Distance between hands&#45;&gt;Individual accountability -->
<g id="edge4" class="edge">
<title>Distance between hands&#45;&gt;Individual accountability</title>
<path fill="none" stroke="black" d="M241.24,-93.53C228.69,-92.77 215.73,-91.99 202.98,-91.22"/>
<polygon fill="black" stroke="black" points="203,-87.72 192.81,-90.61 202.58,-94.7 203,-87.72"/>
</g>
<!-- gesture -->
<g id="node3" class="node">
<title>gesture</title>
<g id="a_node3"><a xlink:href="https://scholar.google.com/scholar?hl=en&amp;q=The%20Additive%20Value%20of%20Multimodal%20Features%20for%20Predicting%20Engagement,%20Frustration,%20and%20Learning%20during%20Tutoring" xlink:title="gesture">
<ellipse fill="none" stroke="black" cx="333.02" cy="-193" rx="36.29" ry="18"/>
<text text-anchor="middle" x="333.02" y="-189.3" font-family="Times,serif" font-size="14.00">gesture</text>
</a>
</g>
</g>
<!-- engagement -->
<g id="node7" class="node">
<title>engagement</title>
<ellipse fill="none" stroke="black" cx="98.79" cy="-193" rx="53.89" ry="18"/>
<text text-anchor="middle" x="98.79" y="-189.3" font-family="Times,serif" font-size="14.00">engagement</text>
</g>
<!-- gesture&#45;&gt;engagement -->
<g id="edge1" class="edge">
<title>gesture&#45;&gt;engagement</title>
<path fill="none" stroke="black" d="M296.5,-193C261.09,-193 205.96,-193 163.06,-193"/>
<polygon fill="black" stroke="black" points="162.99,-189.5 152.99,-193 162.99,-196.5 162.99,-189.5"/>
</g>
</g>
</svg>
