<?xml version="1.0" encoding="UTF-8" standalone="no"?>
<!DOCTYPE svg PUBLIC "-//W3C//DTD SVG 1.1//EN"
 "http://www.w3.org/Graphics/SVG/1.1/DTD/svg11.dtd">
<!-- Generated by graphviz version 2.47.0 (20210316.0004)
 -->
<!-- Title: Test Pages: 1 -->
<svg width="720pt" height="476pt"
 viewBox="0.00 0.00 719.94 476.00" xmlns="http://www.w3.org/2000/svg" xmlns:xlink="http://www.w3.org/1999/xlink">
<g id="graph0" class="graph" transform="scale(1 1) rotate(0) translate(4 472)">
<title>Test</title>
<polygon fill="white" stroke="transparent" points="-4,4 -4,-472 715.94,-472 715.94,4 -4,4"/>
<!-- dyad proximity -->
<g id="node1" class="node">
<title>dyad proximity</title>
<g id="a_node1"><a xlink:href="https://scholar.google.com/scholar?hl=en&amp;q=Exploring%20Collaboration%20Using%20Motion%20Sensors%20and%20Multi-Modal%20Learning%20Analytics" xlink:title="dyad proximity">
<ellipse fill="none" stroke="black" cx="498.76" cy="-126" rx="65.79" ry="18"/>
<text text-anchor="middle" x="498.76" y="-122.3" font-family="Times,serif" font-size="14.00">dyad proximity</text>
</a>
</g>
</g>
<!-- Collaboration -->
<g id="node10" class="node">
<title>Collaboration</title>
<ellipse fill="none" stroke="black" cx="124.79" cy="-72" rx="59.29" ry="18"/>
<text text-anchor="middle" x="124.79" y="-68.3" font-family="Times,serif" font-size="14.00">Collaboration</text>
</g>
<!-- dyad proximity&#45;&gt;Collaboration -->
<g id="edge7" class="edge">
<title>dyad proximity&#45;&gt;Collaboration</title>
<path fill="none" stroke="black" d="M437.76,-119.03C395.22,-113.92 336.82,-106.59 285.58,-99 252.57,-94.11 215.85,-87.96 185.95,-82.76"/>
<polygon fill="black" stroke="black" points="186.54,-79.31 176.08,-81.04 185.33,-86.21 186.54,-79.31"/>
</g>
<!-- Physical synchrony -->
<g id="node2" class="node">
<title>Physical synchrony</title>
<g id="a_node2"><a xlink:href="https://scholar.google.com/scholar?hl=en&amp;q=Predicting%20the%20Quality%20of%20Collaborative%20Problem%20Solving%20Through%20Linguistic%20Analysis%20of%20Discourse" xlink:title="Physical synchrony">
<ellipse fill="none" stroke="black" cx="498.76" cy="-72" rx="79.09" ry="18"/>
<text text-anchor="middle" x="498.76" y="-68.3" font-family="Times,serif" font-size="14.00">Physical synchrony</text>
</a>
</g>
</g>
<!-- Physical synchrony&#45;&gt;Collaboration -->
<g id="edge1" class="edge">
<title>Physical synchrony&#45;&gt;Collaboration</title>
<path fill="none" stroke="black" d="M419.33,-72C352.7,-72 258.01,-72 194.36,-72"/>
<polygon fill="black" stroke="black" points="194.03,-68.5 184.03,-72 194.03,-75.5 194.03,-68.5"/>
</g>
<!-- Distance between learners (DBL -->
<g id="node3" class="node">
<title>Distance between learners (DBL</title>
<g id="a_node3"><a xlink:href="https://scholar.google.com/scholar?hl=en&amp;q=Estimation%20of%20success%20in%20collaborative%20learning%20based%20on%20multimodal%20learning%20analytics%20features" xlink:title="Distance between learners (DBL">
<ellipse fill="none" stroke="black" cx="498.76" cy="-180" rx="126.18" ry="18"/>
<text text-anchor="middle" x="498.76" y="-176.3" font-family="Times,serif" font-size="14.00">Distance between learners (DBL</text>
</a>
</g>
</g>
<!-- collaborative problem solving -->
<g id="node11" class="node">
<title>collaborative problem solving</title>
<ellipse fill="none" stroke="black" cx="124.79" cy="-180" rx="116.98" ry="18"/>
<text text-anchor="middle" x="124.79" y="-176.3" font-family="Times,serif" font-size="14.00">collaborative problem solving</text>
</g>
<!-- Distance between learners (DBL&#45;&gt;collaborative problem solving -->
<g id="edge5" class="edge">
<title>Distance between learners (DBL&#45;&gt;collaborative problem solving</title>
<path fill="none" stroke="black" d="M372.6,-180C333.87,-180 291.18,-180 252.35,-180"/>
<polygon fill="black" stroke="black" points="252.04,-176.5 242.04,-180 252.04,-183.5 252.04,-176.5"/>
</g>
<!-- hand agitation -->
<g id="node4" class="node">
<title>hand agitation</title>
<g id="a_node4"><a xlink:href="https://scholar.google.com/scholar?hl=en&amp;q=Multi-modal%20Social%20Signal%20Analysis%20for%20Predicting%20Agreement%20in%20Conversation%20Settings" xlink:title="hand agitation">
<ellipse fill="none" stroke="black" cx="498.76" cy="-288" rx="61.19" ry="18"/>
<text text-anchor="middle" x="498.76" y="-284.3" font-family="Times,serif" font-size="14.00">hand agitation</text>
</a>
</g>
</g>
<!-- Agreement -->
<g id="node12" class="node">
<title>Agreement</title>
<ellipse fill="none" stroke="black" cx="124.79" cy="-234" rx="50.09" ry="18"/>
<text text-anchor="middle" x="124.79" y="-230.3" font-family="Times,serif" font-size="14.00">Agreement</text>
</g>
<!-- hand agitation&#45;&gt;Agreement -->
<g id="edge9" class="edge">
<title>hand agitation&#45;&gt;Agreement</title>
<path fill="none" stroke="black" d="M441.38,-281.46C398.58,-276.34 338.29,-268.8 285.58,-261 250.32,-255.78 210.83,-249.12 179.93,-243.71"/>
<polygon fill="black" stroke="black" points="180.25,-240.22 169.8,-241.93 179.04,-247.11 180.25,-240.22"/>
</g>
<!-- upper body agitation -->
<g id="node5" class="node">
<title>upper body agitation</title>
<g id="a_node5"><a xlink:href="https://scholar.google.com/scholar?hl=en&amp;q=Multi-modal%20Social%20Signal%20Analysis%20for%20Predicting%20Agreement%20in%20Conversation%20Settings" xlink:title="upper body agitation">
<ellipse fill="none" stroke="black" cx="498.76" cy="-234" rx="83.69" ry="18"/>
<text text-anchor="middle" x="498.76" y="-230.3" font-family="Times,serif" font-size="14.00">upper body agitation</text>
</a>
</g>
</g>
<!-- upper body agitation&#45;&gt;Agreement -->
<g id="edge8" class="edge">
<title>upper body agitation&#45;&gt;Agreement</title>
<path fill="none" stroke="black" d="M414.74,-234C344.97,-234 246.97,-234 184.93,-234"/>
<polygon fill="black" stroke="black" points="184.91,-230.5 174.91,-234 184.91,-237.5 184.91,-230.5"/>
</g>
<!-- Distance between hands -->
<g id="node6" class="node">
<title>Distance between hands</title>
<g id="a_node6"><a xlink:href="https://scholar.google.com/scholar?hl=en&amp;q=Using%20Multimodal%20Learning%20Analytics%20to%20Identify%20Aspects%20of%20Collaboration%20in%20Project-Based%20Learning" xlink:title="Distance between hands">
<ellipse fill="none" stroke="black" cx="498.76" cy="-342" rx="96.38" ry="18"/>
<text text-anchor="middle" x="498.76" y="-338.3" font-family="Times,serif" font-size="14.00">Distance between hands</text>
</a>
</g>
</g>
<!-- Individual accountability -->
<g id="node14" class="node">
<title>Individual accountability</title>
<ellipse fill="none" stroke="black" cx="124.79" cy="-342" rx="98.58" ry="18"/>
<text text-anchor="middle" x="124.79" y="-338.3" font-family="Times,serif" font-size="14.00">Individual accountability</text>
</g>
<!-- Distance between hands&#45;&gt;Individual accountability -->
<g id="edge2" class="edge">
<title>Distance between hands&#45;&gt;Individual accountability</title>
<path fill="none" stroke="black" d="M402.45,-342C350.99,-342 287.26,-342 233.94,-342"/>
<polygon fill="black" stroke="black" points="233.77,-338.5 223.77,-342 233.77,-345.5 233.77,-338.5"/>
</g>
<!-- Synchronisation -->
<g id="node16" class="node">
<title>Synchronisation</title>
<ellipse fill="none" stroke="black" cx="124.79" cy="-288" rx="67.69" ry="18"/>
<text text-anchor="middle" x="124.79" y="-284.3" font-family="Times,serif" font-size="14.00">Synchronisation</text>
</g>
<!-- Distance between hands&#45;&gt;Synchronisation -->
<g id="edge3" class="edge">
<title>Distance between hands&#45;&gt;Synchronisation</title>
<path fill="none" stroke="black" d="M416.8,-332.48C377.19,-327.63 328.83,-321.4 285.58,-315 254.58,-310.41 220.31,-304.71 191.49,-299.72"/>
<polygon fill="black" stroke="black" points="191.98,-296.26 181.53,-297.99 190.79,-303.15 191.98,-296.26"/>
</g>
<!-- Face and upper body movement -->
<g id="node7" class="node">
<title>Face and upper body movement</title>
<g id="a_node7"><a xlink:href="https://scholar.google.com/scholar?hl=en&amp;q=Modeling%20Team-level%20Multimodal%20Dynamics%20during%20Multiparty%20Collaboration" xlink:title="Face and upper body movement">
<ellipse fill="none" stroke="black" cx="498.76" cy="-396" rx="125.38" ry="18"/>
<text text-anchor="middle" x="498.76" y="-392.3" font-family="Times,serif" font-size="14.00">Face and upper body movement</text>
</a>
</g>
</g>
<!-- Perceived Collaboration Quality -->
<g id="node15" class="node">
<title>Perceived Collaboration Quality</title>
<ellipse fill="none" stroke="black" cx="124.79" cy="-396" rx="124.58" ry="18"/>
<text text-anchor="middle" x="124.79" y="-392.3" font-family="Times,serif" font-size="14.00">Perceived Collaboration Quality</text>
</g>
<!-- Face and upper body movement&#45;&gt;Perceived Collaboration Quality -->
<g id="edge10" class="edge">
<title>Face and upper body movement&#45;&gt;Perceived Collaboration Quality</title>
<path fill="none" stroke="black" d="M373.12,-396C336.84,-396 297.05,-396 260.2,-396"/>
<polygon fill="black" stroke="black" points="259.89,-392.5 249.89,-396 259.89,-399.5 259.89,-392.5"/>
</g>
<!-- Total movement across upper body joints and body parts -->
<g id="node8" class="node">
<title>Total movement across upper body joints and body parts</title>
<g id="a_node8"><a xlink:href="https://scholar.google.com/scholar?hl=en&amp;q=Toward%20Using%20Multi-Modal%20Learning%20Analytics%20to%20Support%20and%20Measure%20Collaboration%20in%20Co-Located%20Dyads" xlink:title="Total movement across upper body joints and body parts">
<ellipse fill="none" stroke="black" cx="498.76" cy="-450" rx="213.36" ry="18"/>
<text text-anchor="middle" x="498.76" y="-446.3" font-family="Times,serif" font-size="14.00">Total movement across upper body joints and body parts</text>
</a>
</g>
</g>
<!-- collaboration quality -->
<g id="node13" class="node">
<title>collaboration quality</title>
<ellipse fill="none" stroke="black" cx="124.79" cy="-450" rx="83.69" ry="18"/>
<text text-anchor="middle" x="124.79" y="-446.3" font-family="Times,serif" font-size="14.00">collaboration quality</text>
</g>
<!-- Total movement across upper body joints and body parts&#45;&gt;collaboration quality -->
<g id="edge4" class="edge">
<title>Total movement across upper body joints and body parts&#45;&gt;collaboration quality</title>
<path fill="none" stroke="black" d="M285.43,-450C262.29,-450 239.7,-450 219.15,-450"/>
<polygon fill="black" stroke="black" points="218.91,-446.5 208.91,-450 218.91,-453.5 218.91,-446.5"/>
</g>
<!-- Joint movement -->
<g id="node9" class="node">
<title>Joint movement</title>
<g id="a_node9"><a xlink:href="https://scholar.google.com/scholar?hl=en&amp;q=Exploring%20Collaboration%20Using%20Motion%20Sensors%20and%20Multi-Modal%20Learning%20Analytics" xlink:title="Joint movement">
<ellipse fill="none" stroke="black" cx="498.76" cy="-18" rx="68.49" ry="18"/>
<text text-anchor="middle" x="498.76" y="-14.3" font-family="Times,serif" font-size="14.00">Joint movement</text>
</a>
</g>
</g>
<!-- Joint movement&#45;&gt;Collaboration -->
<g id="edge6" class="edge">
<title>Joint movement&#45;&gt;Collaboration</title>
<path fill="none" stroke="black" d="M435.92,-25.19C393.55,-30.29 336.09,-37.52 285.58,-45 252.57,-49.89 215.85,-56.04 185.95,-61.24"/>
<polygon fill="black" stroke="black" points="185.33,-57.79 176.08,-62.96 186.54,-64.69 185.33,-57.79"/>
</g>
</g>
</svg>
