<?xml version="1.0" encoding="UTF-8" standalone="no"?>
<!DOCTYPE svg PUBLIC "-//W3C//DTD SVG 1.1//EN"
 "http://www.w3.org/Graphics/SVG/1.1/DTD/svg11.dtd">
<!-- Generated by graphviz version 2.47.0 (20210316.0004)
 -->
<!-- Title: Test Pages: 1 -->
<svg width="785pt" height="746pt"
 viewBox="0.00 0.00 784.93 746.00" xmlns="http://www.w3.org/2000/svg" xmlns:xlink="http://www.w3.org/1999/xlink">
<g id="graph0" class="graph" transform="scale(1 1) rotate(0) translate(4 742)">
<title>Test</title>
<polygon fill="white" stroke="transparent" points="-4,4 -4,-742 780.93,-742 780.93,4 -4,4"/>
<!-- Gaze transitions -->
<g id="node1" class="node">
<title>Gaze transitions</title>
<g id="a_node1"><a xlink:href="https://scholar.google.com/scholar?hl=en&amp;q=Understanding%20collaborative%20program%20comprehension:%20Interlacing%20gaze%20and%20dialogues" xlink:title="Gaze transitions">
<ellipse fill="none" stroke="black" cx="538.41" cy="-126" rx="67.69" ry="18"/>
<text text-anchor="middle" x="538.41" y="-122.3" font-family="Times,serif" font-size="14.00">Gaze transitions</text>
</a>
</g>
</g>
<!-- Dialogue episodes -->
<g id="node15" class="node">
<title>Dialogue episodes</title>
<ellipse fill="none" stroke="black" cx="131.94" cy="-72" rx="75.29" ry="18"/>
<text text-anchor="middle" x="131.94" y="-68.3" font-family="Times,serif" font-size="14.00">Dialogue episodes</text>
</g>
<!-- Gaze transitions&#45;&gt;Dialogue episodes -->
<g id="edge3" class="edge">
<title>Gaze transitions&#45;&gt;Dialogue episodes</title>
<path fill="none" stroke="black" d="M474.79,-119.7C426.84,-114.67 359.08,-107.15 299.88,-99 268.13,-94.63 233.1,-89.08 203.37,-84.15"/>
<polygon fill="black" stroke="black" points="203.94,-80.69 193.5,-82.5 202.78,-87.6 203.94,-80.69"/>
</g>
<!-- Joint visual Attention -->
<g id="node2" class="node">
<title>Joint visual Attention</title>
<g id="a_node2"><a xlink:href="https://scholar.google.com/scholar?hl=en&amp;q=Leveraging%20Mobile%20Eye-Trackers%20to%20Capture%20Joint%20Visual%20Attention%20in%20Co-Located%20Collaborative%20Learning" xlink:title="Joint visual Attention">
<ellipse fill="none" stroke="black" cx="538.41" cy="-396" rx="86.38" ry="18"/>
<text text-anchor="middle" x="538.41" y="-392.3" font-family="Times,serif" font-size="14.00">Joint visual Attention</text>
</a>
</g>
</g>
<!-- collaboration quality -->
<g id="node18" class="node">
<title>collaboration quality</title>
<ellipse fill="none" stroke="black" cx="131.94" cy="-288" rx="83.69" ry="18"/>
<text text-anchor="middle" x="131.94" y="-284.3" font-family="Times,serif" font-size="14.00">collaboration quality</text>
</g>
<!-- Joint visual Attention&#45;&gt;collaboration quality -->
<g id="edge6" class="edge">
<title>Joint visual Attention&#45;&gt;collaboration quality</title>
<path fill="none" stroke="black" d="M452.77,-393.33C406.81,-390.15 349.4,-383.37 299.88,-369 252.51,-355.25 202.09,-328.98 169.21,-310.08"/>
<polygon fill="black" stroke="black" points="170.82,-306.96 160.42,-304.96 167.3,-313.01 170.82,-306.96"/>
</g>
<!-- Cross&#45;Recurrence Quantification Analysis (CRQA -->
<g id="node3" class="node">
<title>Cross&#45;Recurrence Quantification Analysis (CRQA</title>
<g id="a_node3"><a xlink:href="https://scholar.google.com/scholar?hl=en&amp;q=Dynamics%20of%20Visual%20Attention%20in%20Multiparty%20Collaborative%20Problem%20Solving%20using%20Multidimensional%20Recurrence%20Quantification%20Analysis" xlink:title="Cross&#45;Recurrence Quantification Analysis (CRQA">
<ellipse fill="none" stroke="black" cx="538.41" cy="-450" rx="188.47" ry="18"/>
<text text-anchor="middle" x="538.41" y="-446.3" font-family="Times,serif" font-size="14.00">Cross&#45;Recurrence Quantification Analysis (CRQA</text>
</a>
</g>
</g>
<!-- Construction of shared knowledge -->
<g id="node19" class="node">
<title>Construction of shared knowledge</title>
<ellipse fill="none" stroke="black" cx="131.94" cy="-450" rx="131.88" ry="18"/>
<text text-anchor="middle" x="131.94" y="-446.3" font-family="Times,serif" font-size="14.00">Construction of shared knowledge</text>
</g>
<!-- Cross&#45;Recurrence Quantification Analysis (CRQA&#45;&gt;Construction of shared knowledge -->
<g id="edge8" class="edge">
<title>Cross&#45;Recurrence Quantification Analysis (CRQA&#45;&gt;Construction of shared knowledge</title>
<path fill="none" stroke="black" d="M349.68,-450C324.27,-450 298.56,-450 274.15,-450"/>
<polygon fill="black" stroke="black" points="274.15,-446.5 264.15,-450 274.15,-453.5 274.15,-446.5"/>
</g>
<!-- joint&#45;visual attention -->
<g id="node4" class="node">
<title>joint&#45;visual attention</title>
<g id="a_node4"><a xlink:href="https://scholar.google.com/scholar?hl=en&amp;q=Unpacking%20Collaborative%20Learning%20Processes%20during%20Hands-on%20Activities%20using%20Mobile%20Eye-Trackers" xlink:title="joint&#45;visual attention">
<ellipse fill="none" stroke="black" cx="538.41" cy="-342" rx="83.69" ry="18"/>
<text text-anchor="middle" x="538.41" y="-338.3" font-family="Times,serif" font-size="14.00">joint&#45;visual attention</text>
</a>
</g>
</g>
<!-- joint&#45;visual attention&#45;&gt;collaboration quality -->
<g id="edge13" class="edge">
<title>joint&#45;visual attention&#45;&gt;collaboration quality</title>
<path fill="none" stroke="black" d="M462.41,-334.39C415.6,-329.41 354.15,-322.47 299.88,-315 269.7,-310.85 236.56,-305.62 207.81,-300.88"/>
<polygon fill="black" stroke="black" points="208.28,-297.41 197.84,-299.23 207.13,-304.32 208.28,-297.41"/>
</g>
<!-- Joint visual attention -->
<g id="node5" class="node">
<title>Joint visual attention</title>
<g id="a_node5"><a xlink:href="https://scholar.google.com/scholar?hl=en&amp;q=The%20Effect%20of%20Mutual%20Gaze%20Perception%20on%20Students’%20Verbal%20Coordination" xlink:title="Joint visual attention">
<ellipse fill="none" stroke="black" cx="538.41" cy="-504" rx="84.49" ry="18"/>
<text text-anchor="middle" x="538.41" y="-500.3" font-family="Times,serif" font-size="14.00">Joint visual attention</text>
</a>
</g>
</g>
<!-- Quality of Collaboration -->
<g id="node20" class="node">
<title>Quality of Collaboration</title>
<ellipse fill="none" stroke="black" cx="131.94" cy="-504" rx="97.48" ry="18"/>
<text text-anchor="middle" x="131.94" y="-500.3" font-family="Times,serif" font-size="14.00">Quality of Collaboration</text>
</g>
<!-- Joint visual attention&#45;&gt;Quality of Collaboration -->
<g id="edge4" class="edge">
<title>Joint visual attention&#45;&gt;Quality of Collaboration</title>
<path fill="none" stroke="black" d="M457.5,-498.5C393.53,-497 303.42,-496.85 234.37,-498.06"/>
<polygon fill="black" stroke="black" points="234.27,-494.56 224.34,-498.25 234.4,-501.56 234.27,-494.56"/>
</g>
<!-- Joint visual attention&#45;&gt;Quality of Collaboration -->
<g id="edge5" class="edge">
<title>Joint visual attention&#45;&gt;Quality of Collaboration</title>
<path fill="none" stroke="black" d="M457.5,-509.5C393.53,-511 303.42,-511.15 234.37,-509.94"/>
<polygon fill="black" stroke="black" points="234.4,-506.44 224.34,-509.75 234.27,-513.44 234.4,-506.44"/>
</g>
<!-- Cycles of collaborative / individual work -->
<g id="node6" class="node">
<title>Cycles of collaborative / individual work</title>
<g id="a_node6"><a xlink:href="https://scholar.google.com/scholar?hl=en&amp;q=Leveraging%20Mobile%20Eye-Trackers%20to%20Capture%20Joint%20Visual%20Attention%20in%20Co-Located%20Collaborative%20Learning" xlink:title="Cycles of collaborative / individual work">
<ellipse fill="none" stroke="black" cx="538.41" cy="-288" rx="155.97" ry="18"/>
<text text-anchor="middle" x="538.41" y="-284.3" font-family="Times,serif" font-size="14.00">Cycles of collaborative / individual work</text>
</a>
</g>
</g>
<!-- Cycles of collaborative / individual work&#45;&gt;collaboration quality -->
<g id="edge7" class="edge">
<title>Cycles of collaborative / individual work&#45;&gt;collaboration quality</title>
<path fill="none" stroke="black" d="M382.18,-288C329.47,-288 272.24,-288 225.93,-288"/>
<polygon fill="black" stroke="black" points="225.92,-284.5 215.92,-288 225.92,-291.5 225.92,-284.5"/>
</g>
<!-- shared gaze -->
<g id="node7" class="node">
<title>shared gaze</title>
<g id="a_node7"><a xlink:href="https://scholar.google.com/scholar?hl=en&amp;q=Effects%20of%20Shared%20Gaze%20on%20Audio-%20Versus%20Text-Based%20Remote%20Collaborations" xlink:title="shared gaze">
<ellipse fill="none" stroke="black" cx="538.41" cy="-558" rx="51.99" ry="18"/>
<text text-anchor="middle" x="538.41" y="-554.3" font-family="Times,serif" font-size="14.00">shared gaze</text>
</a>
</g>
</g>
<!-- quality of collaboration -->
<g id="node14" class="node">
<title>quality of collaboration</title>
<ellipse fill="none" stroke="black" cx="131.94" cy="-558" rx="93.68" ry="18"/>
<text text-anchor="middle" x="131.94" y="-554.3" font-family="Times,serif" font-size="14.00">quality of collaboration</text>
</g>
<!-- shared gaze&#45;&gt;quality of collaboration -->
<g id="edge15" class="edge">
<title>shared gaze&#45;&gt;quality of collaboration</title>
<path fill="none" stroke="black" d="M486.18,-558C423.49,-558 315.84,-558 235.81,-558"/>
<polygon fill="black" stroke="black" points="235.7,-554.5 225.7,-558 235.7,-561.5 235.7,-554.5"/>
</g>
<!-- joint visual attention -->
<g id="node8" class="node">
<title>joint visual attention</title>
<g id="a_node8"><a xlink:href="https://scholar.google.com/scholar?hl=en&amp;q=3D%20Tangibles%20Facilitate%20Joint%20Visual%20Attention%20in%20Dyads" xlink:title="joint visual attention">
<ellipse fill="none" stroke="black" cx="538.41" cy="-234" rx="83.39" ry="18"/>
<text text-anchor="middle" x="538.41" y="-230.3" font-family="Times,serif" font-size="14.00">joint visual attention</text>
</a>
</g>
</g>
<!-- joint visual attention&#45;&gt;collaboration quality -->
<g id="edge14" class="edge">
<title>joint visual attention&#45;&gt;collaboration quality</title>
<path fill="none" stroke="black" d="M462.67,-241.58C415.84,-246.56 354.25,-253.52 299.88,-261 269.7,-265.15 236.56,-270.38 207.81,-275.12"/>
<polygon fill="black" stroke="black" points="207.13,-271.68 197.84,-276.77 208.28,-278.59 207.13,-271.68"/>
</g>
<!-- Multidimensional Recurrence Quantification Analysis (MdRQA -->
<g id="node9" class="node">
<title>Multidimensional Recurrence Quantification Analysis (MdRQA</title>
<g id="a_node9"><a xlink:href="https://scholar.google.com/scholar?hl=en&amp;q=Dynamics%20of%20Visual%20Attention%20in%20Multiparty%20Collaborative%20Problem%20Solving%20using%20Multidimensional%20Recurrence%20Quantification%20Analysis" xlink:title="Multidimensional Recurrence Quantification Analysis (MdRQA">
<ellipse fill="none" stroke="black" cx="538.41" cy="-639" rx="238.56" ry="18"/>
<text text-anchor="middle" x="538.41" y="-635.3" font-family="Times,serif" font-size="14.00">Multidimensional Recurrence Quantification Analysis (MdRQA</text>
</a>
</g>
</g>
<!-- Coordination -->
<g id="node16" class="node">
<title>Coordination</title>
<ellipse fill="none" stroke="black" cx="131.94" cy="-666" rx="57.39" ry="18"/>
<text text-anchor="middle" x="131.94" y="-662.3" font-family="Times,serif" font-size="14.00">Coordination</text>
</g>
<!-- Multidimensional Recurrence Quantification Analysis (MdRQA&#45;&gt;Coordination -->
<g id="edge10" class="edge">
<title>Multidimensional Recurrence Quantification Analysis (MdRQA&#45;&gt;Coordination</title>
<path fill="none" stroke="black" d="M359.12,-650.9C301.87,-654.72 242.02,-658.72 198.28,-661.64"/>
<polygon fill="black" stroke="black" points="197.82,-658.16 188.08,-662.32 198.29,-665.15 197.82,-658.16"/>
</g>
<!-- Negotiation -->
<g id="node17" class="node">
<title>Negotiation</title>
<ellipse fill="none" stroke="black" cx="131.94" cy="-612" rx="51.99" ry="18"/>
<text text-anchor="middle" x="131.94" y="-608.3" font-family="Times,serif" font-size="14.00">Negotiation</text>
</g>
<!-- Multidimensional Recurrence Quantification Analysis (MdRQA&#45;&gt;Negotiation -->
<g id="edge9" class="edge">
<title>Multidimensional Recurrence Quantification Analysis (MdRQA&#45;&gt;Negotiation</title>
<path fill="none" stroke="black" d="M359.12,-627.1C299.71,-623.13 237.51,-618.98 193.4,-616.04"/>
<polygon fill="black" stroke="black" points="193.37,-612.53 183.16,-615.35 192.9,-619.51 193.37,-612.53"/>
</g>
<!-- Together gaze -->
<g id="node10" class="node">
<title>Together gaze</title>
<g id="a_node10"><a xlink:href="https://scholar.google.com/scholar?hl=en&amp;q=Understanding%20collaborative%20program%20comprehension:%20Interlacing%20gaze%20and%20dialogues" xlink:title="Together gaze">
<ellipse fill="none" stroke="black" cx="538.41" cy="-72" rx="61.19" ry="18"/>
<text text-anchor="middle" x="538.41" y="-68.3" font-family="Times,serif" font-size="14.00">Together gaze</text>
</a>
</g>
</g>
<!-- Together gaze&#45;&gt;Dialogue episodes -->
<g id="edge2" class="edge">
<title>Together gaze&#45;&gt;Dialogue episodes</title>
<path fill="none" stroke="black" d="M477.29,-72C408.53,-72 295.44,-72 217.74,-72"/>
<polygon fill="black" stroke="black" points="217.49,-68.5 207.49,-72 217.49,-75.5 217.49,-68.5"/>
</g>
<!-- Count of faces looking at screen -->
<g id="node11" class="node">
<title>Count of faces looking at screen</title>
<g id="a_node11"><a xlink:href="https://scholar.google.com/scholar?hl=en&amp;q=Using%20Multimodal%20Learning%20Analytics%20to%20Identify%20Aspects%20of%20Collaboration%20in%20Project-Based%20Learning" xlink:title="Count of faces looking at screen">
<ellipse fill="none" stroke="black" cx="538.41" cy="-720" rx="125.38" ry="18"/>
<text text-anchor="middle" x="538.41" y="-716.3" font-family="Times,serif" font-size="14.00">Count of faces looking at screen</text>
</a>
</g>
</g>
<!-- Synchronisation -->
<g id="node21" class="node">
<title>Synchronisation</title>
<ellipse fill="none" stroke="black" cx="131.94" cy="-720" rx="67.69" ry="18"/>
<text text-anchor="middle" x="131.94" y="-716.3" font-family="Times,serif" font-size="14.00">Synchronisation</text>
</g>
<!-- Count of faces looking at screen&#45;&gt;Synchronisation -->
<g id="edge11" class="edge">
<title>Count of faces looking at screen&#45;&gt;Synchronisation</title>
<path fill="none" stroke="black" d="M412.75,-720C346.4,-720 266.93,-720 209.66,-720"/>
<polygon fill="black" stroke="black" points="209.59,-716.5 199.59,-720 209.59,-723.5 209.59,-716.5"/>
</g>
<!-- Network features [+20] -->
<g id="node12" class="node">
<title>Network features [+20]</title>
<g id="a_node12"><a xlink:href="https://scholar.google.com/scholar?hl=en&amp;q=Toward%20Collaboration%20Sensing" xlink:title="Network features [+20]">
<ellipse fill="none" stroke="black" cx="538.41" cy="-180" rx="94.48" ry="18"/>
<text text-anchor="middle" x="538.41" y="-176.3" font-family="Times,serif" font-size="14.00">Network features [+20]</text>
</a>
</g>
</g>
<!-- Network features [+20]&#45;&gt;collaboration quality -->
<g id="edge12" class="edge">
<title>Network features [+20]&#45;&gt;collaboration quality</title>
<path fill="none" stroke="black" d="M445.47,-183.2C400.82,-186.58 346.81,-193.38 299.88,-207 252.51,-220.75 202.09,-247.02 169.21,-265.92"/>
<polygon fill="black" stroke="black" points="167.3,-262.99 160.42,-271.04 170.82,-269.04 167.3,-262.99"/>
</g>
<!-- Focused gaze -->
<g id="node13" class="node">
<title>Focused gaze</title>
<g id="a_node13"><a xlink:href="https://scholar.google.com/scholar?hl=en&amp;q=Understanding%20collaborative%20program%20comprehension:%20Interlacing%20gaze%20and%20dialogues" xlink:title="Focused gaze">
<ellipse fill="none" stroke="black" cx="538.41" cy="-18" rx="58.49" ry="18"/>
<text text-anchor="middle" x="538.41" y="-14.3" font-family="Times,serif" font-size="14.00">Focused gaze</text>
</a>
</g>
</g>
<!-- Focused gaze&#45;&gt;Dialogue episodes -->
<g id="edge1" class="edge">
<title>Focused gaze&#45;&gt;Dialogue episodes</title>
<path fill="none" stroke="black" d="M482.59,-23.49C434.39,-28.49 362.37,-36.4 299.88,-45 268.13,-49.37 233.1,-54.92 203.37,-59.85"/>
<polygon fill="black" stroke="black" points="202.78,-56.4 193.5,-61.5 203.94,-63.31 202.78,-56.4"/>
</g>
</g>
</svg>
