<?xml version="1.0" encoding="UTF-8" standalone="no"?>
<!DOCTYPE svg PUBLIC "-//W3C//DTD SVG 1.1//EN"
 "http://www.w3.org/Graphics/SVG/1.1/DTD/svg11.dtd">
<!-- Generated by graphviz version 2.47.0 (20210316.0004)
 -->
<!-- Title: Test Pages: 1 -->
<svg width="551pt" height="368pt"
 viewBox="0.00 0.00 550.96 368.00" xmlns="http://www.w3.org/2000/svg" xmlns:xlink="http://www.w3.org/1999/xlink">
<g id="graph0" class="graph" transform="scale(1 1) rotate(0) translate(4 364)">
<title>Test</title>
<polygon fill="white" stroke="transparent" points="-4,4 -4,-364 546.96,-364 546.96,4 -4,4"/>
<!-- Joint visual Attention -->
<g id="node1" class="node">
<title>Joint visual Attention</title>
<g id="a_node1"><a xlink:href="https://scholar.google.com/scholar?hl=en&amp;q=Leveraging%20Mobile%20Eye-Trackers%20to%20Capture%20Joint%20Visual%20Attention%20in%20Co-Located%20Collaborative%20Learning" xlink:title="Joint visual Attention">
<ellipse fill="none" stroke="black" cx="386.97" cy="-234" rx="86.38" ry="18"/>
<text text-anchor="middle" x="386.97" y="-230.3" font-family="Times,serif" font-size="14.00">Joint visual Attention</text>
</a>
</g>
</g>
<!-- collaboration quality -->
<g id="node10" class="node">
<title>collaboration quality</title>
<ellipse fill="none" stroke="black" cx="97.49" cy="-126" rx="83.69" ry="18"/>
<text text-anchor="middle" x="97.49" y="-122.3" font-family="Times,serif" font-size="14.00">collaboration quality</text>
</g>
<!-- Joint visual Attention&#45;&gt;collaboration quality -->
<g id="edge3" class="edge">
<title>Joint visual Attention&#45;&gt;collaboration quality</title>
<path fill="none" stroke="black" d="M308.38,-226.32C283.15,-222.3 255.39,-216.2 230.98,-207 193.59,-192.9 155.07,-167.97 129.28,-149.48"/>
<polygon fill="black" stroke="black" points="131.18,-146.53 121.04,-143.48 127.06,-152.19 131.18,-146.53"/>
</g>
<!-- joint&#45;visual attention -->
<g id="node2" class="node">
<title>joint&#45;visual attention</title>
<g id="a_node2"><a xlink:href="https://scholar.google.com/scholar?hl=en&amp;q=Unpacking%20Collaborative%20Learning%20Processes%20during%20Hands-on%20Activities%20using%20Mobile%20Eye-Trackers" xlink:title="joint&#45;visual attention">
<ellipse fill="none" stroke="black" cx="386.97" cy="-180" rx="83.69" ry="18"/>
<text text-anchor="middle" x="386.97" y="-176.3" font-family="Times,serif" font-size="14.00">joint&#45;visual attention</text>
</a>
</g>
</g>
<!-- joint&#45;visual attention&#45;&gt;collaboration quality -->
<g id="edge6" class="edge">
<title>joint&#45;visual attention&#45;&gt;collaboration quality</title>
<path fill="none" stroke="black" d="M320.28,-168.98C292.68,-164.24 260.24,-158.53 230.98,-153 210.47,-149.12 188.21,-144.68 167.91,-140.53"/>
<polygon fill="black" stroke="black" points="168.61,-137.11 158.11,-138.53 167.2,-143.96 168.61,-137.11"/>
</g>
<!-- Joint visual attention -->
<g id="node3" class="node">
<title>Joint visual attention</title>
<g id="a_node3"><a xlink:href="https://scholar.google.com/scholar?hl=en&amp;q=The%20Effect%20of%20Mutual%20Gaze%20Perception%20on%20Students’%20Verbal%20Coordination" xlink:title="Joint visual attention">
<ellipse fill="none" stroke="black" cx="386.97" cy="-288" rx="84.49" ry="18"/>
<text text-anchor="middle" x="386.97" y="-284.3" font-family="Times,serif" font-size="14.00">Joint visual attention</text>
</a>
</g>
</g>
<!-- Quality of Collaboration -->
<g id="node9" class="node">
<title>Quality of Collaboration</title>
<ellipse fill="none" stroke="black" cx="97.49" cy="-288" rx="97.48" ry="18"/>
<text text-anchor="middle" x="97.49" y="-284.3" font-family="Times,serif" font-size="14.00">Quality of Collaboration</text>
</g>
<!-- Joint visual attention&#45;&gt;Quality of Collaboration -->
<g id="edge1" class="edge">
<title>Joint visual attention&#45;&gt;Quality of Collaboration</title>
<path fill="none" stroke="black" d="M307.41,-281.91C274.05,-281.19 234.74,-281.06 199.28,-281.53"/>
<polygon fill="black" stroke="black" points="198.84,-278.03 188.9,-281.68 198.95,-285.03 198.84,-278.03"/>
</g>
<!-- Joint visual attention&#45;&gt;Quality of Collaboration -->
<g id="edge2" class="edge">
<title>Joint visual attention&#45;&gt;Quality of Collaboration</title>
<path fill="none" stroke="black" d="M307.41,-294.09C274.05,-294.81 234.74,-294.94 199.28,-294.47"/>
<polygon fill="black" stroke="black" points="198.95,-290.97 188.9,-294.32 198.84,-297.97 198.95,-290.97"/>
</g>
<!-- Cycles of collaborative / individual work -->
<g id="node4" class="node">
<title>Cycles of collaborative / individual work</title>
<g id="a_node4"><a xlink:href="https://scholar.google.com/scholar?hl=en&amp;q=Leveraging%20Mobile%20Eye-Trackers%20to%20Capture%20Joint%20Visual%20Attention%20in%20Co-Located%20Collaborative%20Learning" xlink:title="Cycles of collaborative / individual work">
<ellipse fill="none" stroke="black" cx="386.97" cy="-126" rx="155.97" ry="18"/>
<text text-anchor="middle" x="386.97" y="-122.3" font-family="Times,serif" font-size="14.00">Cycles of collaborative / individual work</text>
</a>
</g>
</g>
<!-- Cycles of collaborative / individual work&#45;&gt;collaboration quality -->
<g id="edge4" class="edge">
<title>Cycles of collaborative / individual work&#45;&gt;collaboration quality</title>
<path fill="none" stroke="black" d="M230.87,-126C217.48,-126 204.22,-126 191.56,-126"/>
<polygon fill="black" stroke="black" points="191.55,-122.5 181.55,-126 191.55,-129.5 191.55,-122.5"/>
</g>
<!-- joint visual attention -->
<g id="node5" class="node">
<title>joint visual attention</title>
<g id="a_node5"><a xlink:href="https://scholar.google.com/scholar?hl=en&amp;q=3D%20Tangibles%20Facilitate%20Joint%20Visual%20Attention%20in%20Dyads" xlink:title="joint visual attention">
<ellipse fill="none" stroke="black" cx="386.97" cy="-72" rx="83.39" ry="18"/>
<text text-anchor="middle" x="386.97" y="-68.3" font-family="Times,serif" font-size="14.00">joint visual attention</text>
</a>
</g>
</g>
<!-- joint visual attention&#45;&gt;collaboration quality -->
<g id="edge7" class="edge">
<title>joint visual attention&#45;&gt;collaboration quality</title>
<path fill="none" stroke="black" d="M320.66,-82.95C292.97,-87.7 260.37,-93.45 230.98,-99 210.47,-102.88 188.21,-107.32 167.91,-111.47"/>
<polygon fill="black" stroke="black" points="167.2,-108.04 158.11,-113.47 168.61,-114.89 167.2,-108.04"/>
</g>
<!-- Network features [+20] -->
<g id="node6" class="node">
<title>Network features [+20]</title>
<g id="a_node6"><a xlink:href="https://scholar.google.com/scholar?hl=en&amp;q=Toward%20Collaboration%20Sensing" xlink:title="Network features [+20]">
<ellipse fill="none" stroke="black" cx="386.97" cy="-18" rx="94.48" ry="18"/>
<text text-anchor="middle" x="386.97" y="-14.3" font-family="Times,serif" font-size="14.00">Network features [+20]</text>
</a>
</g>
</g>
<!-- Network features [+20]&#45;&gt;collaboration quality -->
<g id="edge5" class="edge">
<title>Network features [+20]&#45;&gt;collaboration quality</title>
<path fill="none" stroke="black" d="M303.59,-26.46C279.68,-30.48 253.86,-36.37 230.98,-45 193.59,-59.1 155.07,-84.03 129.28,-102.52"/>
<polygon fill="black" stroke="black" points="127.06,-99.81 121.04,-108.52 131.18,-105.47 127.06,-99.81"/>
</g>
<!-- shared gaze -->
<g id="node7" class="node">
<title>shared gaze</title>
<g id="a_node7"><a xlink:href="https://scholar.google.com/scholar?hl=en&amp;q=Effects%20of%20Shared%20Gaze%20on%20Audio-%20Versus%20Text-Based%20Remote%20Collaborations" xlink:title="shared gaze">
<ellipse fill="none" stroke="black" cx="386.97" cy="-342" rx="51.99" ry="18"/>
<text text-anchor="middle" x="386.97" y="-338.3" font-family="Times,serif" font-size="14.00">shared gaze</text>
</a>
</g>
</g>
<!-- quality of collaboration -->
<g id="node8" class="node">
<title>quality of collaboration</title>
<ellipse fill="none" stroke="black" cx="97.49" cy="-342" rx="93.68" ry="18"/>
<text text-anchor="middle" x="97.49" y="-338.3" font-family="Times,serif" font-size="14.00">quality of collaboration</text>
</g>
<!-- shared gaze&#45;&gt;quality of collaboration -->
<g id="edge8" class="edge">
<title>shared gaze&#45;&gt;quality of collaboration</title>
<path fill="none" stroke="black" d="M334.9,-342C297.93,-342 246.69,-342 201.36,-342"/>
<polygon fill="black" stroke="black" points="201.19,-338.5 191.19,-342 201.19,-345.5 201.19,-338.5"/>
</g>
</g>
</svg>
