<?xml version="1.0" encoding="UTF-8" standalone="no"?>
<!DOCTYPE svg PUBLIC "-//W3C//DTD SVG 1.1//EN"
 "http://www.w3.org/Graphics/SVG/1.1/DTD/svg11.dtd">
<!-- Generated by graphviz version 2.47.0 (20210316.0004)
 -->
<!-- Title: Test Pages: 1 -->
<svg width="535pt" height="530pt"
 viewBox="0.00 0.00 535.36 530.00" xmlns="http://www.w3.org/2000/svg" xmlns:xlink="http://www.w3.org/1999/xlink">
<g id="graph0" class="graph" transform="scale(1 1) rotate(0) translate(4 526)">
<title>Test</title>
<polygon fill="white" stroke="transparent" points="-4,4 -4,-526 531.36,-526 531.36,4 -4,4"/>
<!-- joint visual attention -->
<g id="node1" class="node">
<title>joint visual attention</title>
<g id="a_node1"><a xlink:href="https://scholar.google.com/scholar?hl=en&amp;q=An%20Interactive%20Table%20for%20Supporting%20Participation%20Balance%20in%20Face-to-Face%20Collaborative%20Learning" xlink:title="joint visual attention">
<ellipse fill="none" stroke="black" cx="371.37" cy="-342" rx="83.39" ry="18"/>
<text text-anchor="middle" x="371.37" y="-338.3" font-family="Times,serif" font-size="14.00">joint visual attention</text>
</a>
</g>
</g>
<!-- learning gains -->
<g id="node11" class="node">
<title>learning gains</title>
<ellipse fill="none" stroke="black" cx="89.69" cy="-207" rx="60.39" ry="18"/>
<text text-anchor="middle" x="89.69" y="-203.3" font-family="Times,serif" font-size="14.00">learning gains</text>
</g>
<!-- joint visual attention&#45;&gt;learning gains -->
<g id="edge11" class="edge">
<title>joint visual attention&#45;&gt;learning gains</title>
<path fill="none" stroke="black" d="M306.94,-330.52C277.92,-326.28 243.76,-319.47 215.38,-306 176.86,-287.72 140.97,-254.17 117.68,-231.07"/>
<polygon fill="black" stroke="black" points="120.12,-228.56 110.58,-223.97 115.18,-233.51 120.12,-228.56"/>
</g>
<!-- joint visual attention&#45;&gt;learning gains -->
<g id="edge12" class="edge">
<title>joint visual attention&#45;&gt;learning gains</title>
<path fill="none" stroke="black" d="M289,-344.8C264.49,-341.29 238.08,-334.77 215.38,-324 170.6,-302.74 129.37,-260.86 107.36,-233.17"/>
<polygon fill="black" stroke="black" points="110.02,-230.89 101.17,-225.08 104.47,-235.15 110.02,-230.89"/>
</g>
<!-- cognitive load (from pupil size -->
<g id="node2" class="node">
<title>cognitive load (from pupil size</title>
<g id="a_node2"><a xlink:href="https://scholar.google.com/scholar?hl=en&amp;q=An%20Interactive%20Table%20for%20Supporting%20Participation%20Balance%20in%20Face-to-Face%20Collaborative%20Learning" xlink:title="cognitive load (from pupil size">
<ellipse fill="none" stroke="black" cx="371.37" cy="-288" rx="120.48" ry="18"/>
<text text-anchor="middle" x="371.37" y="-284.3" font-family="Times,serif" font-size="14.00">cognitive load (from pupil size</text>
</a>
</g>
</g>
<!-- cognitive load (from pupil size&#45;&gt;learning gains -->
<g id="edge13" class="edge">
<title>cognitive load (from pupil size&#45;&gt;learning gains</title>
<path fill="none" stroke="black" d="M280.61,-276.07C259.02,-272.18 236.19,-267.22 215.38,-261 185.95,-252.2 154.2,-238.38 130.1,-226.92"/>
<polygon fill="black" stroke="black" points="131.46,-223.69 120.94,-222.51 128.42,-230 131.46,-223.69"/>
</g>
<!-- perceptual with&#45;me&#45;ness (gaze -->
<g id="node3" class="node">
<title>perceptual with&#45;me&#45;ness (gaze</title>
<g id="a_node3"><a xlink:href="https://scholar.google.com/scholar?hl=en&amp;q=An%20Interactive%20Table%20for%20Supporting%20Participation%20Balance%20in%20Face-to-Face%20Collaborative%20Learning" xlink:title="perceptual with&#45;me&#45;ness (gaze">
<ellipse fill="none" stroke="black" cx="371.37" cy="-234" rx="118.88" ry="18"/>
<text text-anchor="middle" x="371.37" y="-230.3" font-family="Times,serif" font-size="14.00">perceptual with&#45;me&#45;ness (gaze</text>
</a>
</g>
</g>
<!-- perceptual with&#45;me&#45;ness (gaze&#45;&gt;learning gains -->
<g id="edge1" class="edge">
<title>perceptual with&#45;me&#45;ness (gaze&#45;&gt;learning gains</title>
<path fill="none" stroke="black" d="M270.58,-224.37C233.19,-220.76 191.63,-216.74 157.88,-213.49"/>
<polygon fill="black" stroke="black" points="157.97,-209.98 147.68,-212.5 157.29,-216.95 157.97,-209.98"/>
</g>
<!-- conceptual with&#45;me&#45;ness (gaze -->
<g id="node4" class="node">
<title>conceptual with&#45;me&#45;ness (gaze</title>
<g id="a_node4"><a xlink:href="https://scholar.google.com/scholar?hl=en&amp;q=An%20Interactive%20Table%20for%20Supporting%20Participation%20Balance%20in%20Face-to-Face%20Collaborative%20Learning" xlink:title="conceptual with&#45;me&#45;ness (gaze">
<ellipse fill="none" stroke="black" cx="371.37" cy="-180" rx="120.48" ry="18"/>
<text text-anchor="middle" x="371.37" y="-176.3" font-family="Times,serif" font-size="14.00">conceptual with&#45;me&#45;ness (gaze</text>
</a>
</g>
</g>
<!-- conceptual with&#45;me&#45;ness (gaze&#45;&gt;learning gains -->
<g id="edge2" class="edge">
<title>conceptual with&#45;me&#45;ness (gaze&#45;&gt;learning gains</title>
<path fill="none" stroke="black" d="M269.8,-189.71C232.47,-193.31 191.08,-197.31 157.5,-200.55"/>
<polygon fill="black" stroke="black" points="156.97,-197.09 147.35,-201.53 157.64,-204.05 156.97,-197.09"/>
</g>
<!-- Joint visual attention -->
<g id="node5" class="node">
<title>Joint visual attention</title>
<g id="a_node5"><a xlink:href="https://scholar.google.com/scholar?hl=en&amp;q=An%20Interactive%20Table%20for%20Supporting%20Participation%20Balance%20in%20Face-to-Face%20Collaborative%20Learning" xlink:title="Joint visual attention">
<ellipse fill="none" stroke="black" cx="371.37" cy="-396" rx="84.49" ry="18"/>
<text text-anchor="middle" x="371.37" y="-392.3" font-family="Times,serif" font-size="14.00">Joint visual attention</text>
</a>
</g>
</g>
<!-- Learning gains -->
<g id="node12" class="node">
<title>Learning gains</title>
<ellipse fill="none" stroke="black" cx="89.69" cy="-396" rx="63.89" ry="18"/>
<text text-anchor="middle" x="89.69" y="-392.3" font-family="Times,serif" font-size="14.00">Learning gains</text>
</g>
<!-- Joint visual attention&#45;&gt;Learning gains -->
<g id="edge5" class="edge">
<title>Joint visual attention&#45;&gt;Learning gains</title>
<path fill="none" stroke="black" d="M306.21,-384.44C259.58,-381.78 196.89,-381.86 151.14,-384.66"/>
<polygon fill="black" stroke="black" points="150.81,-381.17 141.07,-385.34 151.28,-388.16 150.81,-381.17"/>
</g>
<!-- Joint visual attention&#45;&gt;Learning gains -->
<g id="edge6" class="edge">
<title>Joint visual attention&#45;&gt;Learning gains</title>
<path fill="none" stroke="black" d="M286.84,-396C247.85,-396 201.85,-396 164.2,-396"/>
<polygon fill="black" stroke="black" points="163.81,-392.5 153.81,-396 163.81,-399.5 163.81,-392.5"/>
</g>
<!-- Joint visual attention&#45;&gt;Learning gains -->
<g id="edge7" class="edge">
<title>Joint visual attention&#45;&gt;Learning gains</title>
<path fill="none" stroke="black" d="M306.21,-407.56C259.58,-410.22 196.89,-410.14 151.14,-407.34"/>
<polygon fill="black" stroke="black" points="151.28,-403.84 141.07,-406.66 150.81,-410.83 151.28,-403.84"/>
</g>
<!-- Joint visual Attention -->
<g id="node6" class="node">
<title>Joint visual Attention</title>
<g id="a_node6"><a xlink:href="https://scholar.google.com/scholar?hl=en&amp;q=An%20Interactive%20Table%20for%20Supporting%20Participation%20Balance%20in%20Face-to-Face%20Collaborative%20Learning" xlink:title="Joint visual Attention">
<ellipse fill="none" stroke="black" cx="371.37" cy="-126" rx="86.38" ry="18"/>
<text text-anchor="middle" x="371.37" y="-122.3" font-family="Times,serif" font-size="14.00">Joint visual Attention</text>
</a>
</g>
</g>
<!-- Joint visual Attention&#45;&gt;learning gains -->
<g id="edge9" class="edge">
<title>Joint visual Attention&#45;&gt;learning gains</title>
<path fill="none" stroke="black" d="M296.61,-135.2C270.63,-139.4 241.42,-145.21 215.38,-153 185.95,-161.8 154.2,-175.62 130.1,-187.08"/>
<polygon fill="black" stroke="black" points="128.42,-184 120.94,-191.49 131.46,-190.31 128.42,-184"/>
</g>
<!-- (not -->
<g id="node7" class="node">
<title>(not</title>
<g id="a_node7"><a xlink:href="https://scholar.google.com/scholar?hl=en&amp;q=An%20Interactive%20Table%20for%20Supporting%20Participation%20Balance%20in%20Face-to-Face%20Collaborative%20Learning" xlink:title="(not">
<ellipse fill="none" stroke="black" cx="371.37" cy="-450" rx="27" ry="18"/>
<text text-anchor="middle" x="371.37" y="-446.3" font-family="Times,serif" font-size="14.00">(not</text>
</a>
</g>
</g>
<!-- level of understanding -->
<g id="node14" class="node">
<title>level of understanding</title>
<ellipse fill="none" stroke="black" cx="89.69" cy="-450" rx="89.88" ry="18"/>
<text text-anchor="middle" x="89.69" y="-446.3" font-family="Times,serif" font-size="14.00">level of understanding</text>
</g>
<!-- (not&#45;&gt;level of understanding -->
<g id="edge4" class="edge">
<title>(not&#45;&gt;level of understanding</title>
<path fill="none" stroke="black" d="M344.31,-450C309.2,-450 244.76,-450 189.62,-450"/>
<polygon fill="black" stroke="black" points="189.44,-446.5 179.44,-450 189.44,-453.5 189.44,-446.5"/>
</g>
<!-- gaze similarity -->
<g id="node8" class="node">
<title>gaze similarity</title>
<g id="a_node8"><a xlink:href="https://scholar.google.com/scholar?hl=en&amp;q=An%20Interactive%20Table%20for%20Supporting%20Participation%20Balance%20in%20Face-to-Face%20Collaborative%20Learning" xlink:title="gaze similarity">
<ellipse fill="none" stroke="black" cx="371.37" cy="-72" rx="63.89" ry="18"/>
<text text-anchor="middle" x="371.37" y="-68.3" font-family="Times,serif" font-size="14.00">gaze similarity</text>
</a>
</g>
</g>
<!-- gaze similarity&#45;&gt;learning gains -->
<g id="edge3" class="edge">
<title>gaze similarity&#45;&gt;learning gains</title>
<path fill="none" stroke="black" d="M308.45,-75.12C279.11,-78.48 244.25,-85.3 215.38,-99 173.59,-118.83 134.9,-156.63 112.03,-181.83"/>
<polygon fill="black" stroke="black" points="109.21,-179.73 105.18,-189.53 114.44,-184.39 109.21,-179.73"/>
</g>
<!-- Cycles of collaborative / individual work -->
<g id="node9" class="node">
<title>Cycles of collaborative / individual work</title>
<g id="a_node9"><a xlink:href="https://scholar.google.com/scholar?hl=en&amp;q=An%20Interactive%20Table%20for%20Supporting%20Participation%20Balance%20in%20Face-to-Face%20Collaborative%20Learning" xlink:title="Cycles of collaborative / individual work">
<ellipse fill="none" stroke="black" cx="371.37" cy="-18" rx="155.97" ry="18"/>
<text text-anchor="middle" x="371.37" y="-14.3" font-family="Times,serif" font-size="14.00">Cycles of collaborative / individual work</text>
</a>
</g>
</g>
<!-- Cycles of collaborative / individual work&#45;&gt;learning gains -->
<g id="edge8" class="edge">
<title>Cycles of collaborative / individual work&#45;&gt;learning gains</title>
<path fill="none" stroke="black" d="M250.7,-29.45C238.29,-33.36 226.25,-38.43 215.38,-45 161.43,-77.61 122.32,-142.96 103.43,-179.92"/>
<polygon fill="black" stroke="black" points="100.18,-178.59 98.85,-189.1 106.44,-181.71 100.18,-178.59"/>
</g>
<!-- EVT of spatial entropy -->
<g id="node10" class="node">
<title>EVT of spatial entropy</title>
<g id="a_node10"><a xlink:href="https://scholar.google.com/scholar?hl=en&amp;q=An%20Interactive%20Table%20for%20Supporting%20Participation%20Balance%20in%20Face-to-Face%20Collaborative%20Learning" xlink:title="EVT of spatial entropy">
<ellipse fill="none" stroke="black" cx="371.37" cy="-504" rx="92.08" ry="18"/>
<text text-anchor="middle" x="371.37" y="-500.3" font-family="Times,serif" font-size="14.00">EVT of spatial entropy</text>
</a>
</g>
</g>
<!-- post&#45;test score -->
<g id="node13" class="node">
<title>post&#45;test score</title>
<ellipse fill="none" stroke="black" cx="89.69" cy="-504" rx="61.99" ry="18"/>
<text text-anchor="middle" x="89.69" y="-500.3" font-family="Times,serif" font-size="14.00">post&#45;test score</text>
</g>
<!-- EVT of spatial entropy&#45;&gt;post&#45;test score -->
<g id="edge10" class="edge">
<title>EVT of spatial entropy&#45;&gt;post&#45;test score</title>
<path fill="none" stroke="black" d="M278.79,-504C240.8,-504 197.4,-504 161.86,-504"/>
<polygon fill="black" stroke="black" points="161.58,-500.5 151.58,-504 161.58,-507.5 161.58,-500.5"/>
</g>
</g>
</svg>
