<?xml version="1.0" encoding="UTF-8" standalone="no"?>
<!DOCTYPE svg PUBLIC "-//W3C//DTD SVG 1.1//EN"
 "http://www.w3.org/Graphics/SVG/1.1/DTD/svg11.dtd">
<!-- Generated by graphviz version 2.47.0 (20210316.0004)
 -->
<!-- Title: Test Pages: 1 -->
<svg width="551pt" height="368pt"
 viewBox="0.00 0.00 550.96 368.00" xmlns="http://www.w3.org/2000/svg" xmlns:xlink="http://www.w3.org/1999/xlink">
<g id="graph0" class="graph" transform="scale(1 1) rotate(0) translate(4 364)">
<title>Test</title>
<polygon fill="white" stroke="transparent" points="-4,4 -4,-364 546.96,-364 546.96,4 -4,4"/>
<!-- Joint visual attention -->
<g id="node1" class="node">
<title>Joint visual attention</title>
<g id="a_node1"><a xlink:href="https://scholar.google.com/scholar?hl=en&amp;q=The%20Effect%20of%20Mutual%20Gaze%20Perception%20on%20Students’%20Verbal%20Coordination" xlink:title="Joint visual attention">
<ellipse fill="none" stroke="black" cx="386.97" cy="-18" rx="84.49" ry="18"/>
<text text-anchor="middle" x="386.97" y="-14.3" font-family="Times,serif" font-size="14.00">Joint visual attention</text>
</a>
</g>
</g>
<!-- Quality of Collaboration -->
<g id="node8" class="node">
<title>Quality of Collaboration</title>
<ellipse fill="none" stroke="black" cx="97.49" cy="-18" rx="97.48" ry="18"/>
<text text-anchor="middle" x="97.49" y="-14.3" font-family="Times,serif" font-size="14.00">Quality of Collaboration</text>
</g>
<!-- Joint visual attention&#45;&gt;Quality of Collaboration -->
<g id="edge1" class="edge">
<title>Joint visual attention&#45;&gt;Quality of Collaboration</title>
<path fill="none" stroke="black" d="M307.41,-11.91C274.05,-11.19 234.74,-11.06 199.28,-11.53"/>
<polygon fill="black" stroke="black" points="198.84,-8.03 188.9,-11.68 198.95,-15.03 198.84,-8.03"/>
</g>
<!-- Joint visual attention&#45;&gt;Quality of Collaboration -->
<g id="edge2" class="edge">
<title>Joint visual attention&#45;&gt;Quality of Collaboration</title>
<path fill="none" stroke="black" d="M307.41,-24.09C274.05,-24.81 234.74,-24.94 199.28,-24.47"/>
<polygon fill="black" stroke="black" points="198.95,-20.97 188.9,-24.32 198.84,-27.97 198.95,-20.97"/>
</g>
<!-- Network features [+20] -->
<g id="node2" class="node">
<title>Network features [+20]</title>
<g id="a_node2"><a xlink:href="https://scholar.google.com/scholar?hl=en&amp;q=Toward%20Collaboration%20Sensing" xlink:title="Network features [+20]">
<ellipse fill="none" stroke="black" cx="386.97" cy="-288" rx="94.48" ry="18"/>
<text text-anchor="middle" x="386.97" y="-284.3" font-family="Times,serif" font-size="14.00">Network features [+20]</text>
</a>
</g>
</g>
<!-- collaboration quality -->
<g id="node9" class="node">
<title>collaboration quality</title>
<ellipse fill="none" stroke="black" cx="97.49" cy="-180" rx="83.69" ry="18"/>
<text text-anchor="middle" x="97.49" y="-176.3" font-family="Times,serif" font-size="14.00">collaboration quality</text>
</g>
<!-- Network features [+20]&#45;&gt;collaboration quality -->
<g id="edge5" class="edge">
<title>Network features [+20]&#45;&gt;collaboration quality</title>
<path fill="none" stroke="black" d="M303.59,-279.54C279.68,-275.52 253.86,-269.63 230.98,-261 193.59,-246.9 155.07,-221.97 129.28,-203.48"/>
<polygon fill="black" stroke="black" points="131.18,-200.53 121.04,-197.48 127.06,-206.19 131.18,-200.53"/>
</g>
<!-- shared gaze -->
<g id="node3" class="node">
<title>shared gaze</title>
<g id="a_node3"><a xlink:href="https://scholar.google.com/scholar?hl=en&amp;q=Effects%20of%20Shared%20Gaze%20on%20Audio-%20Versus%20Text-Based%20Remote%20Collaborations" xlink:title="shared gaze">
<ellipse fill="none" stroke="black" cx="386.97" cy="-342" rx="51.99" ry="18"/>
<text text-anchor="middle" x="386.97" y="-338.3" font-family="Times,serif" font-size="14.00">shared gaze</text>
</a>
</g>
</g>
<!-- quality of collaboration -->
<g id="node10" class="node">
<title>quality of collaboration</title>
<ellipse fill="none" stroke="black" cx="97.49" cy="-342" rx="93.68" ry="18"/>
<text text-anchor="middle" x="97.49" y="-338.3" font-family="Times,serif" font-size="14.00">quality of collaboration</text>
</g>
<!-- shared gaze&#45;&gt;quality of collaboration -->
<g id="edge8" class="edge">
<title>shared gaze&#45;&gt;quality of collaboration</title>
<path fill="none" stroke="black" d="M334.9,-342C297.93,-342 246.69,-342 201.36,-342"/>
<polygon fill="black" stroke="black" points="201.19,-338.5 191.19,-342 201.19,-345.5 201.19,-338.5"/>
</g>
<!-- joint&#45;visual attention -->
<g id="node4" class="node">
<title>joint&#45;visual attention</title>
<g id="a_node4"><a xlink:href="https://scholar.google.com/scholar?hl=en&amp;q=Unpacking%20Collaborative%20Learning%20Processes%20during%20Hands-on%20Activities%20using%20Mobile%20Eye-Trackers" xlink:title="joint&#45;visual attention">
<ellipse fill="none" stroke="black" cx="386.97" cy="-234" rx="83.69" ry="18"/>
<text text-anchor="middle" x="386.97" y="-230.3" font-family="Times,serif" font-size="14.00">joint&#45;visual attention</text>
</a>
</g>
</g>
<!-- joint&#45;visual attention&#45;&gt;collaboration quality -->
<g id="edge6" class="edge">
<title>joint&#45;visual attention&#45;&gt;collaboration quality</title>
<path fill="none" stroke="black" d="M320.28,-222.98C292.68,-218.24 260.24,-212.53 230.98,-207 210.47,-203.12 188.21,-198.68 167.91,-194.53"/>
<polygon fill="black" stroke="black" points="168.61,-191.11 158.11,-192.53 167.2,-197.96 168.61,-191.11"/>
</g>
<!-- Cycles of collaborative / individual work -->
<g id="node5" class="node">
<title>Cycles of collaborative / individual work</title>
<g id="a_node5"><a xlink:href="https://scholar.google.com/scholar?hl=en&amp;q=Leveraging%20Mobile%20Eye-Trackers%20to%20Capture%20Joint%20Visual%20Attention%20in%20Co-Located%20Collaborative%20Learning" xlink:title="Cycles of collaborative / individual work">
<ellipse fill="none" stroke="black" cx="386.97" cy="-180" rx="155.97" ry="18"/>
<text text-anchor="middle" x="386.97" y="-176.3" font-family="Times,serif" font-size="14.00">Cycles of collaborative / individual work</text>
</a>
</g>
</g>
<!-- Cycles of collaborative / individual work&#45;&gt;collaboration quality -->
<g id="edge4" class="edge">
<title>Cycles of collaborative / individual work&#45;&gt;collaboration quality</title>
<path fill="none" stroke="black" d="M230.87,-180C217.48,-180 204.22,-180 191.56,-180"/>
<polygon fill="black" stroke="black" points="191.55,-176.5 181.55,-180 191.55,-183.5 191.55,-176.5"/>
</g>
<!-- Joint visual Attention -->
<g id="node6" class="node">
<title>Joint visual Attention</title>
<g id="a_node6"><a xlink:href="https://scholar.google.com/scholar?hl=en&amp;q=Leveraging%20Mobile%20Eye-Trackers%20to%20Capture%20Joint%20Visual%20Attention%20in%20Co-Located%20Collaborative%20Learning" xlink:title="Joint visual Attention">
<ellipse fill="none" stroke="black" cx="386.97" cy="-126" rx="86.38" ry="18"/>
<text text-anchor="middle" x="386.97" y="-122.3" font-family="Times,serif" font-size="14.00">Joint visual Attention</text>
</a>
</g>
</g>
<!-- Joint visual Attention&#45;&gt;collaboration quality -->
<g id="edge3" class="edge">
<title>Joint visual Attention&#45;&gt;collaboration quality</title>
<path fill="none" stroke="black" d="M319.14,-137.21C291.78,-141.91 259.83,-147.55 230.98,-153 210.47,-156.88 188.21,-161.32 167.91,-165.47"/>
<polygon fill="black" stroke="black" points="167.2,-162.04 158.11,-167.47 168.61,-168.89 167.2,-162.04"/>
</g>
<!-- joint visual attention -->
<g id="node7" class="node">
<title>joint visual attention</title>
<g id="a_node7"><a xlink:href="https://scholar.google.com/scholar?hl=en&amp;q=3D%20Tangibles%20Facilitate%20Joint%20Visual%20Attention%20in%20Dyads" xlink:title="joint visual attention">
<ellipse fill="none" stroke="black" cx="386.97" cy="-72" rx="83.39" ry="18"/>
<text text-anchor="middle" x="386.97" y="-68.3" font-family="Times,serif" font-size="14.00">joint visual attention</text>
</a>
</g>
</g>
<!-- joint visual attention&#45;&gt;collaboration quality -->
<g id="edge7" class="edge">
<title>joint visual attention&#45;&gt;collaboration quality</title>
<path fill="none" stroke="black" d="M310.74,-79.31C284.9,-83.32 256.16,-89.51 230.98,-99 193.59,-113.1 155.07,-138.03 129.28,-156.52"/>
<polygon fill="black" stroke="black" points="127.06,-153.81 121.04,-162.52 131.18,-159.47 127.06,-153.81"/>
</g>
</g>
</svg>
