<?xml version="1.0" encoding="UTF-8" standalone="no"?>
<!DOCTYPE svg PUBLIC "-//W3C//DTD SVG 1.1//EN"
 "http://www.w3.org/Graphics/SVG/1.1/DTD/svg11.dtd">
<!-- Generated by graphviz version 2.47.0 (20210316.0004)
 -->
<!-- Title: Test Pages: 1 -->
<svg width="785pt" height="719pt"
 viewBox="0.00 0.00 784.93 719.00" xmlns="http://www.w3.org/2000/svg" xmlns:xlink="http://www.w3.org/1999/xlink">
<g id="graph0" class="graph" transform="scale(1 1) rotate(0) translate(4 715)">
<title>Test</title>
<polygon fill="white" stroke="transparent" points="-4,4 -4,-715 780.93,-715 780.93,4 -4,4"/>
<!-- Multidimensional Recurrence Quantification Analysis (MdRQA -->
<g id="node1" class="node">
<title>Multidimensional Recurrence Quantification Analysis (MdRQA</title>
<g id="a_node1"><a xlink:href="https://scholar.google.com/scholar?hl=en&amp;q=Dynamics%20of%20Visual%20Attention%20in%20Multiparty%20Collaborative%20Problem%20Solving%20using%20Multidimensional%20Recurrence%20Quantification%20Analysis" xlink:title="Multidimensional Recurrence Quantification Analysis (MdRQA">
<ellipse fill="none" stroke="black" cx="538.41" cy="-45" rx="238.56" ry="18"/>
<text text-anchor="middle" x="538.41" y="-41.3" font-family="Times,serif" font-size="14.00">Multidimensional Recurrence Quantification Analysis (MdRQA</text>
</a>
</g>
</g>
<!-- Negotiation -->
<g id="node16" class="node">
<title>Negotiation</title>
<ellipse fill="none" stroke="black" cx="131.94" cy="-72" rx="51.99" ry="18"/>
<text text-anchor="middle" x="131.94" y="-68.3" font-family="Times,serif" font-size="14.00">Negotiation</text>
</g>
<!-- Multidimensional Recurrence Quantification Analysis (MdRQA&#45;&gt;Negotiation -->
<g id="edge9" class="edge">
<title>Multidimensional Recurrence Quantification Analysis (MdRQA&#45;&gt;Negotiation</title>
<path fill="none" stroke="black" d="M359.12,-56.9C299.71,-60.87 237.51,-65.02 193.4,-67.96"/>
<polygon fill="black" stroke="black" points="192.9,-64.49 183.16,-68.65 193.37,-71.47 192.9,-64.49"/>
</g>
<!-- Coordination -->
<g id="node17" class="node">
<title>Coordination</title>
<ellipse fill="none" stroke="black" cx="131.94" cy="-18" rx="57.39" ry="18"/>
<text text-anchor="middle" x="131.94" y="-14.3" font-family="Times,serif" font-size="14.00">Coordination</text>
</g>
<!-- Multidimensional Recurrence Quantification Analysis (MdRQA&#45;&gt;Coordination -->
<g id="edge10" class="edge">
<title>Multidimensional Recurrence Quantification Analysis (MdRQA&#45;&gt;Coordination</title>
<path fill="none" stroke="black" d="M359.12,-33.1C301.87,-29.28 242.02,-25.28 198.28,-22.36"/>
<polygon fill="black" stroke="black" points="198.29,-18.85 188.08,-21.68 197.82,-25.84 198.29,-18.85"/>
</g>
<!-- Network features [+20] -->
<g id="node2" class="node">
<title>Network features [+20]</title>
<g id="a_node2"><a xlink:href="https://scholar.google.com/scholar?hl=en&amp;q=Toward%20Collaboration%20Sensing" xlink:title="Network features [+20]">
<ellipse fill="none" stroke="black" cx="538.41" cy="-315" rx="94.48" ry="18"/>
<text text-anchor="middle" x="538.41" y="-311.3" font-family="Times,serif" font-size="14.00">Network features [+20]</text>
</a>
</g>
</g>
<!-- collaboration quality -->
<g id="node18" class="node">
<title>collaboration quality</title>
<ellipse fill="none" stroke="black" cx="131.94" cy="-207" rx="83.69" ry="18"/>
<text text-anchor="middle" x="131.94" y="-203.3" font-family="Times,serif" font-size="14.00">collaboration quality</text>
</g>
<!-- Network features [+20]&#45;&gt;collaboration quality -->
<g id="edge12" class="edge">
<title>Network features [+20]&#45;&gt;collaboration quality</title>
<path fill="none" stroke="black" d="M445.47,-311.8C400.82,-308.42 346.81,-301.62 299.88,-288 252.51,-274.25 202.09,-247.98 169.21,-229.08"/>
<polygon fill="black" stroke="black" points="170.82,-225.96 160.42,-223.96 167.3,-232.01 170.82,-225.96"/>
</g>
<!-- joint&#45;visual attention -->
<g id="node3" class="node">
<title>joint&#45;visual attention</title>
<g id="a_node3"><a xlink:href="https://scholar.google.com/scholar?hl=en&amp;q=Unpacking%20Collaborative%20Learning%20Processes%20during%20Hands-on%20Activities%20using%20Mobile%20Eye-Trackers" xlink:title="joint&#45;visual attention">
<ellipse fill="none" stroke="black" cx="538.41" cy="-261" rx="83.69" ry="18"/>
<text text-anchor="middle" x="538.41" y="-257.3" font-family="Times,serif" font-size="14.00">joint&#45;visual attention</text>
</a>
</g>
</g>
<!-- joint&#45;visual attention&#45;&gt;collaboration quality -->
<g id="edge13" class="edge">
<title>joint&#45;visual attention&#45;&gt;collaboration quality</title>
<path fill="none" stroke="black" d="M462.41,-253.39C415.6,-248.41 354.15,-241.47 299.88,-234 269.7,-229.85 236.56,-224.62 207.81,-219.88"/>
<polygon fill="black" stroke="black" points="208.28,-216.41 197.84,-218.23 207.13,-223.32 208.28,-216.41"/>
</g>
<!-- joint visual attention -->
<g id="node4" class="node">
<title>joint visual attention</title>
<g id="a_node4"><a xlink:href="https://scholar.google.com/scholar?hl=en&amp;q=3D%20Tangibles%20Facilitate%20Joint%20Visual%20Attention%20in%20Dyads" xlink:title="joint visual attention">
<ellipse fill="none" stroke="black" cx="538.41" cy="-207" rx="83.39" ry="18"/>
<text text-anchor="middle" x="538.41" y="-203.3" font-family="Times,serif" font-size="14.00">joint visual attention</text>
</a>
</g>
</g>
<!-- joint visual attention&#45;&gt;collaboration quality -->
<g id="edge14" class="edge">
<title>joint visual attention&#45;&gt;collaboration quality</title>
<path fill="none" stroke="black" d="M455.07,-207C388.58,-207 295.04,-207 225.88,-207"/>
<polygon fill="black" stroke="black" points="225.85,-203.5 215.85,-207 225.85,-210.5 225.85,-203.5"/>
</g>
<!-- Cross&#45;Recurrence Quantification Analysis (CRQA -->
<g id="node5" class="node">
<title>Cross&#45;Recurrence Quantification Analysis (CRQA</title>
<g id="a_node5"><a xlink:href="https://scholar.google.com/scholar?hl=en&amp;q=Dynamics%20of%20Visual%20Attention%20in%20Multiparty%20Collaborative%20Problem%20Solving%20using%20Multidimensional%20Recurrence%20Quantification%20Analysis" xlink:title="Cross&#45;Recurrence Quantification Analysis (CRQA">
<ellipse fill="none" stroke="black" cx="538.41" cy="-369" rx="188.47" ry="18"/>
<text text-anchor="middle" x="538.41" y="-365.3" font-family="Times,serif" font-size="14.00">Cross&#45;Recurrence Quantification Analysis (CRQA</text>
</a>
</g>
</g>
<!-- Construction of shared knowledge -->
<g id="node14" class="node">
<title>Construction of shared knowledge</title>
<ellipse fill="none" stroke="black" cx="131.94" cy="-369" rx="131.88" ry="18"/>
<text text-anchor="middle" x="131.94" y="-365.3" font-family="Times,serif" font-size="14.00">Construction of shared knowledge</text>
</g>
<!-- Cross&#45;Recurrence Quantification Analysis (CRQA&#45;&gt;Construction of shared knowledge -->
<g id="edge8" class="edge">
<title>Cross&#45;Recurrence Quantification Analysis (CRQA&#45;&gt;Construction of shared knowledge</title>
<path fill="none" stroke="black" d="M349.68,-369C324.27,-369 298.56,-369 274.15,-369"/>
<polygon fill="black" stroke="black" points="274.15,-365.5 264.15,-369 274.15,-372.5 274.15,-365.5"/>
</g>
<!-- shared gaze -->
<g id="node6" class="node">
<title>shared gaze</title>
<g id="a_node6"><a xlink:href="https://scholar.google.com/scholar?hl=en&amp;q=Effects%20of%20Shared%20Gaze%20on%20Audio-%20Versus%20Text-Based%20Remote%20Collaborations" xlink:title="shared gaze">
<ellipse fill="none" stroke="black" cx="538.41" cy="-423" rx="51.99" ry="18"/>
<text text-anchor="middle" x="538.41" y="-419.3" font-family="Times,serif" font-size="14.00">shared gaze</text>
</a>
</g>
</g>
<!-- quality of collaboration -->
<g id="node15" class="node">
<title>quality of collaboration</title>
<ellipse fill="none" stroke="black" cx="131.94" cy="-423" rx="93.68" ry="18"/>
<text text-anchor="middle" x="131.94" y="-419.3" font-family="Times,serif" font-size="14.00">quality of collaboration</text>
</g>
<!-- shared gaze&#45;&gt;quality of collaboration -->
<g id="edge15" class="edge">
<title>shared gaze&#45;&gt;quality of collaboration</title>
<path fill="none" stroke="black" d="M486.18,-423C423.49,-423 315.84,-423 235.81,-423"/>
<polygon fill="black" stroke="black" points="235.7,-419.5 225.7,-423 235.7,-426.5 235.7,-419.5"/>
</g>
<!-- Joint visual Attention -->
<g id="node7" class="node">
<title>Joint visual Attention</title>
<g id="a_node7"><a xlink:href="https://scholar.google.com/scholar?hl=en&amp;q=Leveraging%20Mobile%20Eye-Trackers%20to%20Capture%20Joint%20Visual%20Attention%20in%20Co-Located%20Collaborative%20Learning" xlink:title="Joint visual Attention">
<ellipse fill="none" stroke="black" cx="538.41" cy="-153" rx="86.38" ry="18"/>
<text text-anchor="middle" x="538.41" y="-149.3" font-family="Times,serif" font-size="14.00">Joint visual Attention</text>
</a>
</g>
</g>
<!-- Joint visual Attention&#45;&gt;collaboration quality -->
<g id="edge6" class="edge">
<title>Joint visual Attention&#45;&gt;collaboration quality</title>
<path fill="none" stroke="black" d="M460.27,-160.84C413.74,-165.8 353.33,-172.64 299.88,-180 269.7,-184.15 236.56,-189.38 207.81,-194.12"/>
<polygon fill="black" stroke="black" points="207.13,-190.68 197.84,-195.77 208.28,-197.59 207.13,-190.68"/>
</g>
<!-- Joint visual attention -->
<g id="node8" class="node">
<title>Joint visual attention</title>
<g id="a_node8"><a xlink:href="https://scholar.google.com/scholar?hl=en&amp;q=The%20Effect%20of%20Mutual%20Gaze%20Perception%20on%20Students’%20Verbal%20Coordination" xlink:title="Joint visual attention">
<ellipse fill="none" stroke="black" cx="538.41" cy="-477" rx="84.49" ry="18"/>
<text text-anchor="middle" x="538.41" y="-473.3" font-family="Times,serif" font-size="14.00">Joint visual attention</text>
</a>
</g>
</g>
<!-- Quality of Collaboration -->
<g id="node20" class="node">
<title>Quality of Collaboration</title>
<ellipse fill="none" stroke="black" cx="131.94" cy="-477" rx="97.48" ry="18"/>
<text text-anchor="middle" x="131.94" y="-473.3" font-family="Times,serif" font-size="14.00">Quality of Collaboration</text>
</g>
<!-- Joint visual attention&#45;&gt;Quality of Collaboration -->
<g id="edge4" class="edge">
<title>Joint visual attention&#45;&gt;Quality of Collaboration</title>
<path fill="none" stroke="black" d="M457.5,-471.5C393.53,-470 303.42,-469.85 234.37,-471.06"/>
<polygon fill="black" stroke="black" points="234.27,-467.56 224.34,-471.25 234.4,-474.56 234.27,-467.56"/>
</g>
<!-- Joint visual attention&#45;&gt;Quality of Collaboration -->
<g id="edge5" class="edge">
<title>Joint visual attention&#45;&gt;Quality of Collaboration</title>
<path fill="none" stroke="black" d="M457.5,-482.5C393.53,-484 303.42,-484.15 234.37,-482.94"/>
<polygon fill="black" stroke="black" points="234.4,-479.44 224.34,-482.75 234.27,-486.44 234.4,-479.44"/>
</g>
<!-- Count of faces looking at screen -->
<g id="node9" class="node">
<title>Count of faces looking at screen</title>
<g id="a_node9"><a xlink:href="https://scholar.google.com/scholar?hl=en&amp;q=Using%20Multimodal%20Learning%20Analytics%20to%20Identify%20Aspects%20of%20Collaboration%20in%20Project-Based%20Learning" xlink:title="Count of faces looking at screen">
<ellipse fill="none" stroke="black" cx="538.41" cy="-531" rx="125.38" ry="18"/>
<text text-anchor="middle" x="538.41" y="-527.3" font-family="Times,serif" font-size="14.00">Count of faces looking at screen</text>
</a>
</g>
</g>
<!-- Synchronisation -->
<g id="node19" class="node">
<title>Synchronisation</title>
<ellipse fill="none" stroke="black" cx="131.94" cy="-531" rx="67.69" ry="18"/>
<text text-anchor="middle" x="131.94" y="-527.3" font-family="Times,serif" font-size="14.00">Synchronisation</text>
</g>
<!-- Count of faces looking at screen&#45;&gt;Synchronisation -->
<g id="edge11" class="edge">
<title>Count of faces looking at screen&#45;&gt;Synchronisation</title>
<path fill="none" stroke="black" d="M412.75,-531C346.4,-531 266.93,-531 209.66,-531"/>
<polygon fill="black" stroke="black" points="209.59,-527.5 199.59,-531 209.59,-534.5 209.59,-527.5"/>
</g>
<!-- Gaze transitions -->
<g id="node10" class="node">
<title>Gaze transitions</title>
<g id="a_node10"><a xlink:href="https://scholar.google.com/scholar?hl=en&amp;q=Understanding%20collaborative%20program%20comprehension:%20Interlacing%20gaze%20and%20dialogues" xlink:title="Gaze transitions">
<ellipse fill="none" stroke="black" cx="538.41" cy="-693" rx="67.69" ry="18"/>
<text text-anchor="middle" x="538.41" y="-689.3" font-family="Times,serif" font-size="14.00">Gaze transitions</text>
</a>
</g>
</g>
<!-- Dialogue episodes -->
<g id="node21" class="node">
<title>Dialogue episodes</title>
<ellipse fill="none" stroke="black" cx="131.94" cy="-639" rx="75.29" ry="18"/>
<text text-anchor="middle" x="131.94" y="-635.3" font-family="Times,serif" font-size="14.00">Dialogue episodes</text>
</g>
<!-- Gaze transitions&#45;&gt;Dialogue episodes -->
<g id="edge3" class="edge">
<title>Gaze transitions&#45;&gt;Dialogue episodes</title>
<path fill="none" stroke="black" d="M474.79,-686.7C426.84,-681.67 359.08,-674.15 299.88,-666 268.13,-661.63 233.1,-656.08 203.37,-651.15"/>
<polygon fill="black" stroke="black" points="203.94,-647.69 193.5,-649.5 202.78,-654.6 203.94,-647.69"/>
</g>
<!-- Together gaze -->
<g id="node11" class="node">
<title>Together gaze</title>
<g id="a_node11"><a xlink:href="https://scholar.google.com/scholar?hl=en&amp;q=Understanding%20collaborative%20program%20comprehension:%20Interlacing%20gaze%20and%20dialogues" xlink:title="Together gaze">
<ellipse fill="none" stroke="black" cx="538.41" cy="-639" rx="61.19" ry="18"/>
<text text-anchor="middle" x="538.41" y="-635.3" font-family="Times,serif" font-size="14.00">Together gaze</text>
</a>
</g>
</g>
<!-- Together gaze&#45;&gt;Dialogue episodes -->
<g id="edge2" class="edge">
<title>Together gaze&#45;&gt;Dialogue episodes</title>
<path fill="none" stroke="black" d="M477.29,-639C408.53,-639 295.44,-639 217.74,-639"/>
<polygon fill="black" stroke="black" points="217.49,-635.5 207.49,-639 217.49,-642.5 217.49,-635.5"/>
</g>
<!-- Focused gaze -->
<g id="node12" class="node">
<title>Focused gaze</title>
<g id="a_node12"><a xlink:href="https://scholar.google.com/scholar?hl=en&amp;q=Understanding%20collaborative%20program%20comprehension:%20Interlacing%20gaze%20and%20dialogues" xlink:title="Focused gaze">
<ellipse fill="none" stroke="black" cx="538.41" cy="-585" rx="58.49" ry="18"/>
<text text-anchor="middle" x="538.41" y="-581.3" font-family="Times,serif" font-size="14.00">Focused gaze</text>
</a>
</g>
</g>
<!-- Focused gaze&#45;&gt;Dialogue episodes -->
<g id="edge1" class="edge">
<title>Focused gaze&#45;&gt;Dialogue episodes</title>
<path fill="none" stroke="black" d="M482.59,-590.49C434.39,-595.49 362.37,-603.4 299.88,-612 268.13,-616.37 233.1,-621.92 203.37,-626.85"/>
<polygon fill="black" stroke="black" points="202.78,-623.4 193.5,-628.5 203.94,-630.31 202.78,-623.4"/>
</g>
<!-- Cycles of collaborative / individual work -->
<g id="node13" class="node">
<title>Cycles of collaborative / individual work</title>
<g id="a_node13"><a xlink:href="https://scholar.google.com/scholar?hl=en&amp;q=Leveraging%20Mobile%20Eye-Trackers%20to%20Capture%20Joint%20Visual%20Attention%20in%20Co-Located%20Collaborative%20Learning" xlink:title="Cycles of collaborative / individual work">
<ellipse fill="none" stroke="black" cx="538.41" cy="-99" rx="155.97" ry="18"/>
<text text-anchor="middle" x="538.41" y="-95.3" font-family="Times,serif" font-size="14.00">Cycles of collaborative / individual work</text>
</a>
</g>
</g>
<!-- Cycles of collaborative / individual work&#45;&gt;collaboration quality -->
<g id="edge7" class="edge">
<title>Cycles of collaborative / individual work&#45;&gt;collaboration quality</title>
<path fill="none" stroke="black" d="M398,-106.88C365.38,-110.91 331.07,-116.95 299.88,-126 252.51,-139.75 202.09,-166.02 169.21,-184.92"/>
<polygon fill="black" stroke="black" points="167.3,-181.99 160.42,-190.04 170.82,-188.04 167.3,-181.99"/>
</g>
</g>
</svg>
