<?xml version="1.0" encoding="UTF-8" standalone="no"?>
<!DOCTYPE svg PUBLIC "-//W3C//DTD SVG 1.1//EN"
 "http://www.w3.org/Graphics/SVG/1.1/DTD/svg11.dtd">
<!-- Generated by graphviz version 2.47.0 (20210316.0004)
 -->
<!-- Title: Test Pages: 1 -->
<svg width="785pt" height="692pt"
 viewBox="0.00 0.00 784.93 692.00" xmlns="http://www.w3.org/2000/svg" xmlns:xlink="http://www.w3.org/1999/xlink">
<g id="graph0" class="graph" transform="scale(1 1) rotate(0) translate(4 688)">
<title>Test</title>
<polygon fill="white" stroke="transparent" points="-4,4 -4,-688 780.93,-688 780.93,4 -4,4"/>
<!-- joint visual attention -->
<g id="node1" class="node">
<title>joint visual attention</title>
<g id="a_node1"><a xlink:href="https://scholar.google.com/scholar?hl=en&amp;q=An%20Interactive%20Table%20for%20Supporting%20Participation%20Balance%20in%20Face-to-Face%20Collaborative%20Learning" xlink:title="joint visual attention">
<ellipse fill="none" stroke="black" cx="538.41" cy="-234" rx="83.39" ry="18"/>
<text text-anchor="middle" x="538.41" y="-230.3" font-family="Times,serif" font-size="14.00">joint visual attention</text>
</a>
</g>
</g>
<!-- collaboration quality -->
<g id="node18" class="node">
<title>collaboration quality</title>
<ellipse fill="none" stroke="black" cx="131.94" cy="-126" rx="83.69" ry="18"/>
<text text-anchor="middle" x="131.94" y="-122.3" font-family="Times,serif" font-size="14.00">collaboration quality</text>
</g>
<!-- joint visual attention&#45;&gt;collaboration quality -->
<g id="edge14" class="edge">
<title>joint visual attention&#45;&gt;collaboration quality</title>
<path fill="none" stroke="black" d="M455.81,-231.53C409.35,-228.45 350.5,-221.69 299.88,-207 252.51,-193.25 202.09,-166.98 169.21,-148.08"/>
<polygon fill="black" stroke="black" points="170.82,-144.96 160.42,-142.96 167.3,-151.01 170.82,-144.96"/>
</g>
<!-- Focused gaze -->
<g id="node2" class="node">
<title>Focused gaze</title>
<g id="a_node2"><a xlink:href="https://scholar.google.com/scholar?hl=en&amp;q=An%20Interactive%20Table%20for%20Supporting%20Participation%20Balance%20in%20Face-to-Face%20Collaborative%20Learning" xlink:title="Focused gaze">
<ellipse fill="none" stroke="black" cx="538.41" cy="-396" rx="58.49" ry="18"/>
<text text-anchor="middle" x="538.41" y="-392.3" font-family="Times,serif" font-size="14.00">Focused gaze</text>
</a>
</g>
</g>
<!-- Dialogue episodes -->
<g id="node20" class="node">
<title>Dialogue episodes</title>
<ellipse fill="none" stroke="black" cx="131.94" cy="-342" rx="75.29" ry="18"/>
<text text-anchor="middle" x="131.94" y="-338.3" font-family="Times,serif" font-size="14.00">Dialogue episodes</text>
</g>
<!-- Focused gaze&#45;&gt;Dialogue episodes -->
<g id="edge1" class="edge">
<title>Focused gaze&#45;&gt;Dialogue episodes</title>
<path fill="none" stroke="black" d="M482.59,-390.51C434.39,-385.51 362.37,-377.6 299.88,-369 268.13,-364.63 233.1,-359.08 203.37,-354.15"/>
<polygon fill="black" stroke="black" points="203.94,-350.69 193.5,-352.5 202.78,-357.6 203.94,-350.69"/>
</g>
<!-- Gaze transitions -->
<g id="node3" class="node">
<title>Gaze transitions</title>
<g id="a_node3"><a xlink:href="https://scholar.google.com/scholar?hl=en&amp;q=An%20Interactive%20Table%20for%20Supporting%20Participation%20Balance%20in%20Face-to-Face%20Collaborative%20Learning" xlink:title="Gaze transitions">
<ellipse fill="none" stroke="black" cx="538.41" cy="-342" rx="67.69" ry="18"/>
<text text-anchor="middle" x="538.41" y="-338.3" font-family="Times,serif" font-size="14.00">Gaze transitions</text>
</a>
</g>
</g>
<!-- Gaze transitions&#45;&gt;Dialogue episodes -->
<g id="edge3" class="edge">
<title>Gaze transitions&#45;&gt;Dialogue episodes</title>
<path fill="none" stroke="black" d="M470.62,-342C401.4,-342 293,-342 217.77,-342"/>
<polygon fill="black" stroke="black" points="217.38,-338.5 207.38,-342 217.38,-345.5 217.38,-338.5"/>
</g>
<!-- Multidimensional Recurrence Quantification Analysis (MdRQA -->
<g id="node4" class="node">
<title>Multidimensional Recurrence Quantification Analysis (MdRQA</title>
<g id="a_node4"><a xlink:href="https://scholar.google.com/scholar?hl=en&amp;q=An%20Interactive%20Table%20for%20Supporting%20Participation%20Balance%20in%20Face-to-Face%20Collaborative%20Learning" xlink:title="Multidimensional Recurrence Quantification Analysis (MdRQA">
<ellipse fill="none" stroke="black" cx="538.41" cy="-450" rx="238.56" ry="18"/>
<text text-anchor="middle" x="538.41" y="-446.3" font-family="Times,serif" font-size="14.00">Multidimensional Recurrence Quantification Analysis (MdRQA</text>
</a>
</g>
</g>
<!-- Coordination -->
<g id="node15" class="node">
<title>Coordination</title>
<ellipse fill="none" stroke="black" cx="131.94" cy="-450" rx="57.39" ry="18"/>
<text text-anchor="middle" x="131.94" y="-446.3" font-family="Times,serif" font-size="14.00">Coordination</text>
</g>
<!-- Multidimensional Recurrence Quantification Analysis (MdRQA&#45;&gt;Coordination -->
<g id="edge10" class="edge">
<title>Multidimensional Recurrence Quantification Analysis (MdRQA&#45;&gt;Coordination</title>
<path fill="none" stroke="black" d="M299.79,-450C263.03,-450 227.88,-450 199.41,-450"/>
<polygon fill="black" stroke="black" points="199.23,-446.5 189.23,-450 199.23,-453.5 199.23,-446.5"/>
</g>
<!-- Negotiation -->
<g id="node17" class="node">
<title>Negotiation</title>
<ellipse fill="none" stroke="black" cx="131.94" cy="-396" rx="51.99" ry="18"/>
<text text-anchor="middle" x="131.94" y="-392.3" font-family="Times,serif" font-size="14.00">Negotiation</text>
</g>
<!-- Multidimensional Recurrence Quantification Analysis (MdRQA&#45;&gt;Negotiation -->
<g id="edge9" class="edge">
<title>Multidimensional Recurrence Quantification Analysis (MdRQA&#45;&gt;Negotiation</title>
<path fill="none" stroke="black" d="M398.79,-435.36C366.3,-431.62 331.84,-427.4 299.88,-423 262.87,-417.91 221.42,-411.21 189.07,-405.76"/>
<polygon fill="black" stroke="black" points="189.35,-402.25 178.91,-404.03 188.18,-409.16 189.35,-402.25"/>
</g>
<!-- joint&#45;visual attention -->
<g id="node5" class="node">
<title>joint&#45;visual attention</title>
<g id="a_node5"><a xlink:href="https://scholar.google.com/scholar?hl=en&amp;q=An%20Interactive%20Table%20for%20Supporting%20Participation%20Balance%20in%20Face-to-Face%20Collaborative%20Learning" xlink:title="joint&#45;visual attention">
<ellipse fill="none" stroke="black" cx="538.41" cy="-180" rx="83.69" ry="18"/>
<text text-anchor="middle" x="538.41" y="-176.3" font-family="Times,serif" font-size="14.00">joint&#45;visual attention</text>
</a>
</g>
</g>
<!-- joint&#45;visual attention&#45;&gt;collaboration quality -->
<g id="edge13" class="edge">
<title>joint&#45;visual attention&#45;&gt;collaboration quality</title>
<path fill="none" stroke="black" d="M462.41,-172.39C415.6,-167.41 354.15,-160.47 299.88,-153 269.7,-148.85 236.56,-143.62 207.81,-138.88"/>
<polygon fill="black" stroke="black" points="208.28,-135.41 197.84,-137.23 207.13,-142.32 208.28,-135.41"/>
</g>
<!-- Joint visual attention -->
<g id="node6" class="node">
<title>Joint visual attention</title>
<g id="a_node6"><a xlink:href="https://scholar.google.com/scholar?hl=en&amp;q=An%20Interactive%20Table%20for%20Supporting%20Participation%20Balance%20in%20Face-to-Face%20Collaborative%20Learning" xlink:title="Joint visual attention">
<ellipse fill="none" stroke="black" cx="538.41" cy="-504" rx="84.49" ry="18"/>
<text text-anchor="middle" x="538.41" y="-500.3" font-family="Times,serif" font-size="14.00">Joint visual attention</text>
</a>
</g>
</g>
<!-- Quality of Collaboration -->
<g id="node14" class="node">
<title>Quality of Collaboration</title>
<ellipse fill="none" stroke="black" cx="131.94" cy="-504" rx="97.48" ry="18"/>
<text text-anchor="middle" x="131.94" y="-500.3" font-family="Times,serif" font-size="14.00">Quality of Collaboration</text>
</g>
<!-- Joint visual attention&#45;&gt;Quality of Collaboration -->
<g id="edge4" class="edge">
<title>Joint visual attention&#45;&gt;Quality of Collaboration</title>
<path fill="none" stroke="black" d="M457.5,-498.5C393.53,-497 303.42,-496.85 234.37,-498.06"/>
<polygon fill="black" stroke="black" points="234.27,-494.56 224.34,-498.25 234.4,-501.56 234.27,-494.56"/>
</g>
<!-- Joint visual attention&#45;&gt;Quality of Collaboration -->
<g id="edge5" class="edge">
<title>Joint visual attention&#45;&gt;Quality of Collaboration</title>
<path fill="none" stroke="black" d="M457.5,-509.5C393.53,-511 303.42,-511.15 234.37,-509.94"/>
<polygon fill="black" stroke="black" points="234.4,-506.44 224.34,-509.75 234.27,-513.44 234.4,-506.44"/>
</g>
<!-- Joint visual Attention -->
<g id="node7" class="node">
<title>Joint visual Attention</title>
<g id="a_node7"><a xlink:href="https://scholar.google.com/scholar?hl=en&amp;q=An%20Interactive%20Table%20for%20Supporting%20Participation%20Balance%20in%20Face-to-Face%20Collaborative%20Learning" xlink:title="Joint visual Attention">
<ellipse fill="none" stroke="black" cx="538.41" cy="-126" rx="86.38" ry="18"/>
<text text-anchor="middle" x="538.41" y="-122.3" font-family="Times,serif" font-size="14.00">Joint visual Attention</text>
</a>
</g>
</g>
<!-- Joint visual Attention&#45;&gt;collaboration quality -->
<g id="edge6" class="edge">
<title>Joint visual Attention&#45;&gt;collaboration quality</title>
<path fill="none" stroke="black" d="M451.63,-126C385.46,-126 294.06,-126 226.1,-126"/>
<polygon fill="black" stroke="black" points="225.83,-122.5 215.83,-126 225.83,-129.5 225.83,-122.5"/>
</g>
<!-- Together gaze -->
<g id="node8" class="node">
<title>Together gaze</title>
<g id="a_node8"><a xlink:href="https://scholar.google.com/scholar?hl=en&amp;q=An%20Interactive%20Table%20for%20Supporting%20Participation%20Balance%20in%20Face-to-Face%20Collaborative%20Learning" xlink:title="Together gaze">
<ellipse fill="none" stroke="black" cx="538.41" cy="-288" rx="61.19" ry="18"/>
<text text-anchor="middle" x="538.41" y="-284.3" font-family="Times,serif" font-size="14.00">Together gaze</text>
</a>
</g>
</g>
<!-- Together gaze&#45;&gt;Dialogue episodes -->
<g id="edge2" class="edge">
<title>Together gaze&#45;&gt;Dialogue episodes</title>
<path fill="none" stroke="black" d="M480.2,-293.74C432.03,-298.75 361.34,-306.54 299.88,-315 268.13,-319.37 233.1,-324.92 203.37,-329.85"/>
<polygon fill="black" stroke="black" points="202.78,-326.4 193.5,-331.5 203.94,-333.31 202.78,-326.4"/>
</g>
<!-- Network features [+20] -->
<g id="node9" class="node">
<title>Network features [+20]</title>
<g id="a_node9"><a xlink:href="https://scholar.google.com/scholar?hl=en&amp;q=An%20Interactive%20Table%20for%20Supporting%20Participation%20Balance%20in%20Face-to-Face%20Collaborative%20Learning" xlink:title="Network features [+20]">
<ellipse fill="none" stroke="black" cx="538.41" cy="-72" rx="94.48" ry="18"/>
<text text-anchor="middle" x="538.41" y="-68.3" font-family="Times,serif" font-size="14.00">Network features [+20]</text>
</a>
</g>
</g>
<!-- Network features [+20]&#45;&gt;collaboration quality -->
<g id="edge12" class="edge">
<title>Network features [+20]&#45;&gt;collaboration quality</title>
<path fill="none" stroke="black" d="M454.84,-80.42C409.11,-85.32 351.27,-91.93 299.88,-99 269.7,-103.15 236.56,-108.38 207.81,-113.12"/>
<polygon fill="black" stroke="black" points="207.13,-109.68 197.84,-114.77 208.28,-116.59 207.13,-109.68"/>
</g>
<!-- Count of faces looking at screen -->
<g id="node10" class="node">
<title>Count of faces looking at screen</title>
<g id="a_node10"><a xlink:href="https://scholar.google.com/scholar?hl=en&amp;q=An%20Interactive%20Table%20for%20Supporting%20Participation%20Balance%20in%20Face-to-Face%20Collaborative%20Learning" xlink:title="Count of faces looking at screen">
<ellipse fill="none" stroke="black" cx="538.41" cy="-558" rx="125.38" ry="18"/>
<text text-anchor="middle" x="538.41" y="-554.3" font-family="Times,serif" font-size="14.00">Count of faces looking at screen</text>
</a>
</g>
</g>
<!-- Synchronisation -->
<g id="node16" class="node">
<title>Synchronisation</title>
<ellipse fill="none" stroke="black" cx="131.94" cy="-558" rx="67.69" ry="18"/>
<text text-anchor="middle" x="131.94" y="-554.3" font-family="Times,serif" font-size="14.00">Synchronisation</text>
</g>
<!-- Count of faces looking at screen&#45;&gt;Synchronisation -->
<g id="edge11" class="edge">
<title>Count of faces looking at screen&#45;&gt;Synchronisation</title>
<path fill="none" stroke="black" d="M412.75,-558C346.4,-558 266.93,-558 209.66,-558"/>
<polygon fill="black" stroke="black" points="209.59,-554.5 199.59,-558 209.59,-561.5 209.59,-554.5"/>
</g>
<!-- shared gaze -->
<g id="node11" class="node">
<title>shared gaze</title>
<g id="a_node11"><a xlink:href="https://scholar.google.com/scholar?hl=en&amp;q=An%20Interactive%20Table%20for%20Supporting%20Participation%20Balance%20in%20Face-to-Face%20Collaborative%20Learning" xlink:title="shared gaze">
<ellipse fill="none" stroke="black" cx="538.41" cy="-612" rx="51.99" ry="18"/>
<text text-anchor="middle" x="538.41" y="-608.3" font-family="Times,serif" font-size="14.00">shared gaze</text>
</a>
</g>
</g>
<!-- quality of collaboration -->
<g id="node19" class="node">
<title>quality of collaboration</title>
<ellipse fill="none" stroke="black" cx="131.94" cy="-612" rx="93.68" ry="18"/>
<text text-anchor="middle" x="131.94" y="-608.3" font-family="Times,serif" font-size="14.00">quality of collaboration</text>
</g>
<!-- shared gaze&#45;&gt;quality of collaboration -->
<g id="edge15" class="edge">
<title>shared gaze&#45;&gt;quality of collaboration</title>
<path fill="none" stroke="black" d="M486.18,-612C423.49,-612 315.84,-612 235.81,-612"/>
<polygon fill="black" stroke="black" points="235.7,-608.5 225.7,-612 235.7,-615.5 235.7,-608.5"/>
</g>
<!-- Cycles of collaborative / individual work -->
<g id="node12" class="node">
<title>Cycles of collaborative / individual work</title>
<g id="a_node12"><a xlink:href="https://scholar.google.com/scholar?hl=en&amp;q=An%20Interactive%20Table%20for%20Supporting%20Participation%20Balance%20in%20Face-to-Face%20Collaborative%20Learning" xlink:title="Cycles of collaborative / individual work">
<ellipse fill="none" stroke="black" cx="538.41" cy="-18" rx="155.97" ry="18"/>
<text text-anchor="middle" x="538.41" y="-14.3" font-family="Times,serif" font-size="14.00">Cycles of collaborative / individual work</text>
</a>
</g>
</g>
<!-- Cycles of collaborative / individual work&#45;&gt;collaboration quality -->
<g id="edge7" class="edge">
<title>Cycles of collaborative / individual work&#45;&gt;collaboration quality</title>
<path fill="none" stroke="black" d="M398,-25.88C365.38,-29.91 331.07,-35.95 299.88,-45 252.51,-58.75 202.09,-85.02 169.21,-103.92"/>
<polygon fill="black" stroke="black" points="167.3,-100.99 160.42,-109.04 170.82,-107.04 167.3,-100.99"/>
</g>
<!-- Cross&#45;Recurrence Quantification Analysis (CRQA -->
<g id="node13" class="node">
<title>Cross&#45;Recurrence Quantification Analysis (CRQA</title>
<g id="a_node13"><a xlink:href="https://scholar.google.com/scholar?hl=en&amp;q=An%20Interactive%20Table%20for%20Supporting%20Participation%20Balance%20in%20Face-to-Face%20Collaborative%20Learning" xlink:title="Cross&#45;Recurrence Quantification Analysis (CRQA">
<ellipse fill="none" stroke="black" cx="538.41" cy="-666" rx="188.47" ry="18"/>
<text text-anchor="middle" x="538.41" y="-662.3" font-family="Times,serif" font-size="14.00">Cross&#45;Recurrence Quantification Analysis (CRQA</text>
</a>
</g>
</g>
<!-- Construction of shared knowledge -->
<g id="node21" class="node">
<title>Construction of shared knowledge</title>
<ellipse fill="none" stroke="black" cx="131.94" cy="-666" rx="131.88" ry="18"/>
<text text-anchor="middle" x="131.94" y="-662.3" font-family="Times,serif" font-size="14.00">Construction of shared knowledge</text>
</g>
<!-- Cross&#45;Recurrence Quantification Analysis (CRQA&#45;&gt;Construction of shared knowledge -->
<g id="edge8" class="edge">
<title>Cross&#45;Recurrence Quantification Analysis (CRQA&#45;&gt;Construction of shared knowledge</title>
<path fill="none" stroke="black" d="M349.68,-666C324.27,-666 298.56,-666 274.15,-666"/>
<polygon fill="black" stroke="black" points="274.15,-662.5 264.15,-666 274.15,-669.5 274.15,-662.5"/>
</g>
</g>
</svg>
