<?xml version="1.0" encoding="UTF-8" standalone="no"?>
<!DOCTYPE svg PUBLIC "-//W3C//DTD SVG 1.1//EN"
 "http://www.w3.org/Graphics/SVG/1.1/DTD/svg11.dtd">
<!-- Generated by graphviz version 2.47.0 (20210316.0004)
 -->
<!-- Title: Test Pages: 1 -->
<svg width="589pt" height="530pt"
 viewBox="0.00 0.00 588.65 530.00" xmlns="http://www.w3.org/2000/svg" xmlns:xlink="http://www.w3.org/1999/xlink">
<g id="graph0" class="graph" transform="scale(1 1) rotate(0) translate(4 526)">
<title>Test</title>
<polygon fill="white" stroke="transparent" points="-4,4 -4,-526 584.65,-526 584.65,4 -4,4"/>
<!-- 22 Intra&#45;Personal Features -->
<g id="node1" class="node">
<title>22 Intra&#45;Personal Features</title>
<g id="a_node1"><a xlink:href="https://scholar.google.com/scholar?hl=en&amp;q=Personality%20classification%20and%20behaviour%20interpretation:%20An%20approach%20based%20on%20feature%20categories" xlink:title="22 Intra&#45;Personal Features">
<ellipse fill="none" stroke="black" cx="435.71" cy="-72" rx="103.98" ry="18"/>
<text text-anchor="middle" x="435.71" y="-68.3" font-family="Times,serif" font-size="14.00">22 Intra&#45;Personal Features</text>
</a>
</g>
</g>
<!-- Social Impressions -->
<g id="node12" class="node">
<title>Social Impressions</title>
<ellipse fill="none" stroke="black" cx="127.39" cy="-45" rx="77.99" ry="18"/>
<text text-anchor="middle" x="127.39" y="-41.3" font-family="Times,serif" font-size="14.00">Social Impressions</text>
</g>
<!-- 22 Intra&#45;Personal Features&#45;&gt;Social Impressions -->
<g id="edge4" class="edge">
<title>22 Intra&#45;Personal Features&#45;&gt;Social Impressions</title>
<path fill="none" stroke="black" d="M342.81,-63.9C300.89,-60.2 251.65,-55.86 210.93,-52.28"/>
<polygon fill="black" stroke="black" points="211.04,-48.77 200.77,-51.38 210.43,-55.74 211.04,-48.77"/>
</g>
<!-- smiling synchrony -->
<g id="node2" class="node">
<title>smiling synchrony</title>
<g id="a_node2"><a xlink:href="https://scholar.google.com/scholar?hl=en&amp;q=Physiological%20evidence%20of%20interpersonal%20dynamics%20in%20a%20cooperative%20production%20task" xlink:title="smiling synchrony">
<ellipse fill="none" stroke="black" cx="435.71" cy="-126" rx="76.89" ry="18"/>
<text text-anchor="middle" x="435.71" y="-122.3" font-family="Times,serif" font-size="14.00">smiling synchrony</text>
</a>
</g>
</g>
<!-- team cohesion -->
<g id="node15" class="node">
<title>team cohesion</title>
<ellipse fill="none" stroke="black" cx="127.39" cy="-126" rx="61.99" ry="18"/>
<text text-anchor="middle" x="127.39" y="-122.3" font-family="Times,serif" font-size="14.00">team cohesion</text>
</g>
<!-- smiling synchrony&#45;&gt;team cohesion -->
<g id="edge10" class="edge">
<title>smiling synchrony&#45;&gt;team cohesion</title>
<path fill="none" stroke="black" d="M358.99,-126C310.3,-126 247.44,-126 199.65,-126"/>
<polygon fill="black" stroke="black" points="199.38,-122.5 189.38,-126 199.38,-129.5 199.38,-122.5"/>
</g>
<!-- 51 Facial Action Units -->
<g id="node3" class="node">
<title>51 Facial Action Units</title>
<g id="a_node3"><a xlink:href="https://scholar.google.com/scholar?hl=en&amp;q=Automatic%20Recognition%20of%20Affective%20Laughter%20in%20Spontaneous%20Dyadic%20Interactions%20from%20Audiovisual%20Signals" xlink:title="51 Facial Action Units">
<ellipse fill="none" stroke="black" cx="435.71" cy="-234" rx="90.98" ry="18"/>
<text text-anchor="middle" x="435.71" y="-230.3" font-family="Times,serif" font-size="14.00">51 Facial Action Units</text>
</a>
</g>
</g>
<!-- Voiced Laughter -->
<g id="node11" class="node">
<title>Voiced Laughter</title>
<ellipse fill="none" stroke="black" cx="127.39" cy="-288" rx="69.59" ry="18"/>
<text text-anchor="middle" x="127.39" y="-284.3" font-family="Times,serif" font-size="14.00">Voiced Laughter</text>
</g>
<!-- 51 Facial Action Units&#45;&gt;Voiced Laughter -->
<g id="edge1" class="edge">
<title>51 Facial Action Units&#45;&gt;Voiced Laughter</title>
<path fill="none" stroke="black" d="M367.11,-245.92C316.07,-254.91 246.37,-267.2 195.46,-276.18"/>
<polygon fill="black" stroke="black" points="194.78,-272.74 185.54,-277.93 195.99,-279.64 194.78,-272.74"/>
</g>
<!-- Unvoiced Laughter -->
<g id="node13" class="node">
<title>Unvoiced Laughter</title>
<ellipse fill="none" stroke="black" cx="127.39" cy="-234" rx="79.09" ry="18"/>
<text text-anchor="middle" x="127.39" y="-230.3" font-family="Times,serif" font-size="14.00">Unvoiced Laughter</text>
</g>
<!-- 51 Facial Action Units&#45;&gt;Unvoiced Laughter -->
<g id="edge2" class="edge">
<title>51 Facial Action Units&#45;&gt;Unvoiced Laughter</title>
<path fill="none" stroke="black" d="M344.46,-234C304.2,-234 256.91,-234 216.85,-234"/>
<polygon fill="black" stroke="black" points="216.83,-230.5 206.83,-234 216.83,-237.5 216.83,-230.5"/>
</g>
<!-- Speech Laughter -->
<g id="node14" class="node">
<title>Speech Laughter</title>
<ellipse fill="none" stroke="black" cx="127.39" cy="-180" rx="70.39" ry="18"/>
<text text-anchor="middle" x="127.39" y="-176.3" font-family="Times,serif" font-size="14.00">Speech Laughter</text>
</g>
<!-- 51 Facial Action Units&#45;&gt;Speech Laughter -->
<g id="edge3" class="edge">
<title>51 Facial Action Units&#45;&gt;Speech Laughter</title>
<path fill="none" stroke="black" d="M367.11,-222.08C316.24,-213.11 246.82,-200.88 195.95,-191.91"/>
<polygon fill="black" stroke="black" points="196.49,-188.45 186.04,-190.16 195.28,-195.35 196.49,-188.45"/>
</g>
<!-- 9 Dyadic Features -->
<g id="node4" class="node">
<title>9 Dyadic Features</title>
<g id="a_node4"><a xlink:href="https://scholar.google.com/scholar?hl=en&amp;q=Personality%20classification%20and%20behaviour%20interpretation:%20An%20approach%20based%20on%20feature%20categories" xlink:title="9 Dyadic Features">
<ellipse fill="none" stroke="black" cx="435.71" cy="-18" rx="75.29" ry="18"/>
<text text-anchor="middle" x="435.71" y="-14.3" font-family="Times,serif" font-size="14.00">9 Dyadic Features</text>
</a>
</g>
</g>
<!-- 9 Dyadic Features&#45;&gt;Social Impressions -->
<g id="edge5" class="edge">
<title>9 Dyadic Features&#45;&gt;Social Impressions</title>
<path fill="none" stroke="black" d="M364.82,-24.16C318.99,-28.2 258.87,-33.5 210.73,-37.74"/>
<polygon fill="black" stroke="black" points="210.3,-34.27 200.64,-38.63 210.91,-41.24 210.3,-34.27"/>
</g>
<!-- facial features -->
<g id="node5" class="node">
<title>facial features</title>
<g id="a_node5"><a xlink:href="https://scholar.google.com/scholar?hl=en&amp;q=Real-time%20mutual%20gaze%20perception" xlink:title="facial features">
<ellipse fill="none" stroke="black" cx="435.71" cy="-342" rx="60.39" ry="18"/>
<text text-anchor="middle" x="435.71" y="-338.3" font-family="Times,serif" font-size="14.00">facial features</text>
</a>
</g>
</g>
<!-- identity of emergent leader -->
<g id="node7" class="node">
<title>identity of emergent leader</title>
<ellipse fill="none" stroke="black" cx="127.39" cy="-342" rx="106.68" ry="18"/>
<text text-anchor="middle" x="127.39" y="-338.3" font-family="Times,serif" font-size="14.00">identity of emergent leader</text>
</g>
<!-- facial features&#45;&gt;identity of emergent leader -->
<g id="edge6" class="edge">
<title>facial features&#45;&gt;identity of emergent leader</title>
<path fill="none" stroke="black" d="M374.92,-342C337.78,-342 288.77,-342 244.25,-342"/>
<polygon fill="black" stroke="black" points="244.23,-338.5 234.23,-342 244.23,-345.5 244.23,-338.5"/>
</g>
<!-- facial expression features (60 features -->
<g id="node6" class="node">
<title>facial expression features (60 features</title>
<g id="a_node6"><a xlink:href="https://scholar.google.com/scholar?hl=en&amp;q=Multimodal%20Analysis%20of%20Vocal%20Collaborative%20Search:A%20Public%20Corpus%20and%20Results" xlink:title="facial expression features (60 features">
<ellipse fill="none" stroke="black" cx="435.71" cy="-450" rx="144.87" ry="18"/>
<text text-anchor="middle" x="435.71" y="-446.3" font-family="Times,serif" font-size="14.00">facial expression features (60 features</text>
</a>
</g>
</g>
<!-- perception of peer helpfulness -->
<g id="node8" class="node">
<title>perception of peer helpfulness</title>
<ellipse fill="none" stroke="black" cx="127.39" cy="-504" rx="117.78" ry="18"/>
<text text-anchor="middle" x="127.39" y="-500.3" font-family="Times,serif" font-size="14.00">perception of peer helpfulness</text>
</g>
<!-- facial expression features (60 features&#45;&gt;perception of peer helpfulness -->
<g id="edge7" class="edge">
<title>facial expression features (60 features&#45;&gt;perception of peer helpfulness</title>
<path fill="none" stroke="black" d="M351.41,-464.68C309.18,-472.13 257.93,-481.16 215.21,-488.7"/>
<polygon fill="black" stroke="black" points="214.35,-485.29 205.11,-490.48 215.56,-492.19 214.35,-485.29"/>
</g>
<!-- perception of peer clarity -->
<g id="node9" class="node">
<title>perception of peer clarity</title>
<ellipse fill="none" stroke="black" cx="127.39" cy="-450" rx="100.18" ry="18"/>
<text text-anchor="middle" x="127.39" y="-446.3" font-family="Times,serif" font-size="14.00">perception of peer clarity</text>
</g>
<!-- facial expression features (60 features&#45;&gt;perception of peer clarity -->
<g id="edge9" class="edge">
<title>facial expression features (60 features&#45;&gt;perception of peer clarity</title>
<path fill="none" stroke="black" d="M290.52,-450C272.92,-450 255.15,-450 238.16,-450"/>
<polygon fill="black" stroke="black" points="237.7,-446.5 227.7,-450 237.7,-453.5 237.7,-446.5"/>
</g>
<!-- perception of peer understanding -->
<g id="node10" class="node">
<title>perception of peer understanding</title>
<ellipse fill="none" stroke="black" cx="127.39" cy="-396" rx="127.28" ry="18"/>
<text text-anchor="middle" x="127.39" y="-392.3" font-family="Times,serif" font-size="14.00">perception of peer understanding</text>
</g>
<!-- facial expression features (60 features&#45;&gt;perception of peer understanding -->
<g id="edge8" class="edge">
<title>facial expression features (60 features&#45;&gt;perception of peer understanding</title>
<path fill="none" stroke="black" d="M351.41,-435.32C310,-428.01 259.91,-419.19 217.7,-411.74"/>
<polygon fill="black" stroke="black" points="218.17,-408.27 207.71,-409.98 216.95,-415.17 218.17,-408.27"/>
</g>
</g>
</svg>
