<?xml version="1.0" encoding="UTF-8" standalone="no"?>
<!DOCTYPE svg PUBLIC "-//W3C//DTD SVG 1.1//EN"
 "http://www.w3.org/Graphics/SVG/1.1/DTD/svg11.dtd">
<!-- Generated by graphviz version 2.47.0 (20210316.0004)
 -->
<!-- Title: Test Pages: 1 -->
<svg width="589pt" height="503pt"
 viewBox="0.00 0.00 588.65 503.00" xmlns="http://www.w3.org/2000/svg" xmlns:xlink="http://www.w3.org/1999/xlink">
<g id="graph0" class="graph" transform="scale(1 1) rotate(0) translate(4 499)">
<title>Test</title>
<polygon fill="white" stroke="transparent" points="-4,4 -4,-499 584.65,-499 584.65,4 -4,4"/>
<!-- smiling synchrony -->
<g id="node1" class="node">
<title>smiling synchrony</title>
<g id="a_node1"><a xlink:href="https://scholar.google.com/scholar?hl=en&amp;q=An%20Interactive%20Table%20for%20Supporting%20Participation%20Balance%20in%20Face-to-Face%20Collaborative%20Learning" xlink:title="smiling synchrony">
<ellipse fill="none" stroke="black" cx="435.71" cy="-18" rx="76.89" ry="18"/>
<text text-anchor="middle" x="435.71" y="-14.3" font-family="Times,serif" font-size="14.00">smiling synchrony</text>
</a>
</g>
</g>
<!-- team cohesion -->
<g id="node7" class="node">
<title>team cohesion</title>
<ellipse fill="none" stroke="black" cx="127.39" cy="-18" rx="61.99" ry="18"/>
<text text-anchor="middle" x="127.39" y="-14.3" font-family="Times,serif" font-size="14.00">team cohesion</text>
</g>
<!-- smiling synchrony&#45;&gt;team cohesion -->
<g id="edge10" class="edge">
<title>smiling synchrony&#45;&gt;team cohesion</title>
<path fill="none" stroke="black" d="M358.99,-18C310.3,-18 247.44,-18 199.65,-18"/>
<polygon fill="black" stroke="black" points="199.38,-14.5 189.38,-18 199.38,-21.5 199.38,-14.5"/>
</g>
<!-- facial expression features (60 features -->
<g id="node2" class="node">
<title>facial expression features (60 features</title>
<g id="a_node2"><a xlink:href="https://scholar.google.com/scholar?hl=en&amp;q=An%20Interactive%20Table%20for%20Supporting%20Participation%20Balance%20in%20Face-to-Face%20Collaborative%20Learning" xlink:title="facial expression features (60 features">
<ellipse fill="none" stroke="black" cx="435.71" cy="-126" rx="144.87" ry="18"/>
<text text-anchor="middle" x="435.71" y="-122.3" font-family="Times,serif" font-size="14.00">facial expression features (60 features</text>
</a>
</g>
</g>
<!-- perception of peer understanding -->
<g id="node11" class="node">
<title>perception of peer understanding</title>
<ellipse fill="none" stroke="black" cx="127.39" cy="-180" rx="127.28" ry="18"/>
<text text-anchor="middle" x="127.39" y="-176.3" font-family="Times,serif" font-size="14.00">perception of peer understanding</text>
</g>
<!-- facial expression features (60 features&#45;&gt;perception of peer understanding -->
<g id="edge8" class="edge">
<title>facial expression features (60 features&#45;&gt;perception of peer understanding</title>
<path fill="none" stroke="black" d="M351.41,-140.68C310,-147.99 259.91,-156.81 217.7,-164.26"/>
<polygon fill="black" stroke="black" points="216.95,-160.83 207.71,-166.02 218.17,-167.73 216.95,-160.83"/>
</g>
<!-- perception of peer clarity -->
<g id="node14" class="node">
<title>perception of peer clarity</title>
<ellipse fill="none" stroke="black" cx="127.39" cy="-126" rx="100.18" ry="18"/>
<text text-anchor="middle" x="127.39" y="-122.3" font-family="Times,serif" font-size="14.00">perception of peer clarity</text>
</g>
<!-- facial expression features (60 features&#45;&gt;perception of peer clarity -->
<g id="edge9" class="edge">
<title>facial expression features (60 features&#45;&gt;perception of peer clarity</title>
<path fill="none" stroke="black" d="M290.52,-126C272.92,-126 255.15,-126 238.16,-126"/>
<polygon fill="black" stroke="black" points="237.7,-122.5 227.7,-126 237.7,-129.5 237.7,-122.5"/>
</g>
<!-- perception of peer helpfulness -->
<g id="node15" class="node">
<title>perception of peer helpfulness</title>
<ellipse fill="none" stroke="black" cx="127.39" cy="-72" rx="117.78" ry="18"/>
<text text-anchor="middle" x="127.39" y="-68.3" font-family="Times,serif" font-size="14.00">perception of peer helpfulness</text>
</g>
<!-- facial expression features (60 features&#45;&gt;perception of peer helpfulness -->
<g id="edge7" class="edge">
<title>facial expression features (60 features&#45;&gt;perception of peer helpfulness</title>
<path fill="none" stroke="black" d="M351.41,-111.32C309.18,-103.87 257.93,-94.84 215.21,-87.3"/>
<polygon fill="black" stroke="black" points="215.56,-83.81 205.11,-85.52 214.35,-90.71 215.56,-83.81"/>
</g>
<!-- facial features -->
<g id="node3" class="node">
<title>facial features</title>
<g id="a_node3"><a xlink:href="https://scholar.google.com/scholar?hl=en&amp;q=An%20Interactive%20Table%20for%20Supporting%20Participation%20Balance%20in%20Face-to-Face%20Collaborative%20Learning" xlink:title="facial features">
<ellipse fill="none" stroke="black" cx="435.71" cy="-234" rx="60.39" ry="18"/>
<text text-anchor="middle" x="435.71" y="-230.3" font-family="Times,serif" font-size="14.00">facial features</text>
</a>
</g>
</g>
<!-- identity of emergent leader -->
<g id="node9" class="node">
<title>identity of emergent leader</title>
<ellipse fill="none" stroke="black" cx="127.39" cy="-234" rx="106.68" ry="18"/>
<text text-anchor="middle" x="127.39" y="-230.3" font-family="Times,serif" font-size="14.00">identity of emergent leader</text>
</g>
<!-- facial features&#45;&gt;identity of emergent leader -->
<g id="edge6" class="edge">
<title>facial features&#45;&gt;identity of emergent leader</title>
<path fill="none" stroke="black" d="M374.92,-234C337.78,-234 288.77,-234 244.25,-234"/>
<polygon fill="black" stroke="black" points="244.23,-230.5 234.23,-234 244.23,-237.5 244.23,-230.5"/>
</g>
<!-- 22 Intra&#45;Personal Features -->
<g id="node4" class="node">
<title>22 Intra&#45;Personal Features</title>
<g id="a_node4"><a xlink:href="https://scholar.google.com/scholar?hl=en&amp;q=An%20Interactive%20Table%20for%20Supporting%20Participation%20Balance%20in%20Face-to-Face%20Collaborative%20Learning" xlink:title="22 Intra&#45;Personal Features">
<ellipse fill="none" stroke="black" cx="435.71" cy="-342" rx="103.98" ry="18"/>
<text text-anchor="middle" x="435.71" y="-338.3" font-family="Times,serif" font-size="14.00">22 Intra&#45;Personal Features</text>
</a>
</g>
</g>
<!-- Social Impressions -->
<g id="node8" class="node">
<title>Social Impressions</title>
<ellipse fill="none" stroke="black" cx="127.39" cy="-315" rx="77.99" ry="18"/>
<text text-anchor="middle" x="127.39" y="-311.3" font-family="Times,serif" font-size="14.00">Social Impressions</text>
</g>
<!-- 22 Intra&#45;Personal Features&#45;&gt;Social Impressions -->
<g id="edge4" class="edge">
<title>22 Intra&#45;Personal Features&#45;&gt;Social Impressions</title>
<path fill="none" stroke="black" d="M342.81,-333.9C300.89,-330.2 251.65,-325.86 210.93,-322.28"/>
<polygon fill="black" stroke="black" points="211.04,-318.77 200.77,-321.38 210.43,-325.74 211.04,-318.77"/>
</g>
<!-- 51 Facial Action Units -->
<g id="node5" class="node">
<title>51 Facial Action Units</title>
<g id="a_node5"><a xlink:href="https://scholar.google.com/scholar?hl=en&amp;q=An%20Interactive%20Table%20for%20Supporting%20Participation%20Balance%20in%20Face-to-Face%20Collaborative%20Learning" xlink:title="51 Facial Action Units">
<ellipse fill="none" stroke="black" cx="435.71" cy="-423" rx="90.98" ry="18"/>
<text text-anchor="middle" x="435.71" y="-419.3" font-family="Times,serif" font-size="14.00">51 Facial Action Units</text>
</a>
</g>
</g>
<!-- Voiced Laughter -->
<g id="node10" class="node">
<title>Voiced Laughter</title>
<ellipse fill="none" stroke="black" cx="127.39" cy="-477" rx="69.59" ry="18"/>
<text text-anchor="middle" x="127.39" y="-473.3" font-family="Times,serif" font-size="14.00">Voiced Laughter</text>
</g>
<!-- 51 Facial Action Units&#45;&gt;Voiced Laughter -->
<g id="edge1" class="edge">
<title>51 Facial Action Units&#45;&gt;Voiced Laughter</title>
<path fill="none" stroke="black" d="M367.11,-434.92C316.07,-443.91 246.37,-456.2 195.46,-465.18"/>
<polygon fill="black" stroke="black" points="194.78,-461.74 185.54,-466.93 195.99,-468.64 194.78,-461.74"/>
</g>
<!-- Unvoiced Laughter -->
<g id="node12" class="node">
<title>Unvoiced Laughter</title>
<ellipse fill="none" stroke="black" cx="127.39" cy="-423" rx="79.09" ry="18"/>
<text text-anchor="middle" x="127.39" y="-419.3" font-family="Times,serif" font-size="14.00">Unvoiced Laughter</text>
</g>
<!-- 51 Facial Action Units&#45;&gt;Unvoiced Laughter -->
<g id="edge2" class="edge">
<title>51 Facial Action Units&#45;&gt;Unvoiced Laughter</title>
<path fill="none" stroke="black" d="M344.46,-423C304.2,-423 256.91,-423 216.85,-423"/>
<polygon fill="black" stroke="black" points="216.83,-419.5 206.83,-423 216.83,-426.5 216.83,-419.5"/>
</g>
<!-- Speech Laughter -->
<g id="node13" class="node">
<title>Speech Laughter</title>
<ellipse fill="none" stroke="black" cx="127.39" cy="-369" rx="70.39" ry="18"/>
<text text-anchor="middle" x="127.39" y="-365.3" font-family="Times,serif" font-size="14.00">Speech Laughter</text>
</g>
<!-- 51 Facial Action Units&#45;&gt;Speech Laughter -->
<g id="edge3" class="edge">
<title>51 Facial Action Units&#45;&gt;Speech Laughter</title>
<path fill="none" stroke="black" d="M367.11,-411.08C316.24,-402.11 246.82,-389.88 195.95,-380.91"/>
<polygon fill="black" stroke="black" points="196.49,-377.45 186.04,-379.16 195.28,-384.35 196.49,-377.45"/>
</g>
<!-- 9 Dyadic Features -->
<g id="node6" class="node">
<title>9 Dyadic Features</title>
<g id="a_node6"><a xlink:href="https://scholar.google.com/scholar?hl=en&amp;q=An%20Interactive%20Table%20for%20Supporting%20Participation%20Balance%20in%20Face-to-Face%20Collaborative%20Learning" xlink:title="9 Dyadic Features">
<ellipse fill="none" stroke="black" cx="435.71" cy="-288" rx="75.29" ry="18"/>
<text text-anchor="middle" x="435.71" y="-284.3" font-family="Times,serif" font-size="14.00">9 Dyadic Features</text>
</a>
</g>
</g>
<!-- 9 Dyadic Features&#45;&gt;Social Impressions -->
<g id="edge5" class="edge">
<title>9 Dyadic Features&#45;&gt;Social Impressions</title>
<path fill="none" stroke="black" d="M364.82,-294.16C318.99,-298.2 258.87,-303.5 210.73,-307.74"/>
<polygon fill="black" stroke="black" points="210.3,-304.27 200.64,-308.63 210.91,-311.24 210.3,-304.27"/>
</g>
</g>
</svg>
