<?xml version="1.0" encoding="UTF-8" standalone="no"?>
<!DOCTYPE svg PUBLIC "-//W3C//DTD SVG 1.1//EN"
 "http://www.w3.org/Graphics/SVG/1.1/DTD/svg11.dtd">
<!-- Generated by graphviz version 2.47.0 (20210316.0004)
 -->
<!-- Title: Test Pages: 1 -->
<svg width="589pt" height="503pt"
 viewBox="0.00 0.00 588.65 503.00" xmlns="http://www.w3.org/2000/svg" xmlns:xlink="http://www.w3.org/1999/xlink">
<g id="graph0" class="graph" transform="scale(1 1) rotate(0) translate(4 499)">
<title>Test</title>
<polygon fill="white" stroke="transparent" points="-4,4 -4,-499 584.65,-499 584.65,4 -4,4"/>
<!-- facial features -->
<g id="node1" class="node">
<title>facial features</title>
<g id="a_node1"><a xlink:href="https://scholar.google.com/scholar?hl=en&amp;q=Real-time%20mutual%20gaze%20perception" xlink:title="facial features" target="_blank">
<ellipse fill="none" stroke="black" cx="435.71" cy="-18" rx="60.39" ry="18"/>
<text text-anchor="middle" x="435.71" y="-14.3" font-family="Times,serif" font-size="14.00">facial features</text>
</a>
</g>
</g>
<!-- identity of emergent leader -->
<g id="node13" class="node">
<title>identity of emergent leader</title>
<ellipse fill="none" stroke="black" cx="127.39" cy="-18" rx="106.68" ry="18"/>
<text text-anchor="middle" x="127.39" y="-14.3" font-family="Times,serif" font-size="14.00">identity of emergent leader</text>
</g>
<!-- facial features&#45;&gt;identity of emergent leader -->
<g id="edge6" class="edge">
<title>facial features&#45;&gt;identity of emergent leader</title>
<path fill="none" stroke="black" d="M374.92,-18C337.78,-18 288.77,-18 244.25,-18"/>
<polygon fill="black" stroke="black" points="244.23,-14.5 234.23,-18 244.23,-21.5 244.23,-14.5"/>
</g>
<!-- 22 Intra&#45;Personal Features -->
<g id="node2" class="node">
<title>22 Intra&#45;Personal Features</title>
<g id="a_node2"><a xlink:href="https://scholar.google.com/scholar?hl=en&amp;q=Personality%20classification%20and%20behaviour%20interpretation:%20An%20approach%20based%20on%20feature%20categories" xlink:title="22 Intra&#45;Personal Features" target="_blank">
<ellipse fill="none" stroke="black" cx="435.71" cy="-126" rx="103.98" ry="18"/>
<text text-anchor="middle" x="435.71" y="-122.3" font-family="Times,serif" font-size="14.00">22 Intra&#45;Personal Features</text>
</a>
</g>
</g>
<!-- Social Impressions -->
<g id="node15" class="node">
<title>Social Impressions</title>
<ellipse fill="none" stroke="black" cx="127.39" cy="-86" rx="77.99" ry="18"/>
<text text-anchor="middle" x="127.39" y="-82.3" font-family="Times,serif" font-size="14.00">Social Impressions</text>
</g>
<!-- 22 Intra&#45;Personal Features&#45;&gt;Social Impressions -->
<g id="edge4" class="edge">
<title>22 Intra&#45;Personal Features&#45;&gt;Social Impressions</title>
<path fill="none" stroke="black" d="M352.22,-115.23C306.59,-109.27 250.23,-101.91 205.49,-96.07"/>
<polygon fill="black" stroke="black" points="205.91,-92.59 195.54,-94.77 205.01,-99.53 205.91,-92.59"/>
</g>
<!-- 51 Facial Action Units -->
<g id="node3" class="node">
<title>51 Facial Action Units</title>
<g id="a_node3"><a xlink:href="https://scholar.google.com/scholar?hl=en&amp;q=Automatic%20Recognition%20of%20Affective%20Laughter%20in%20Spontaneous%20Dyadic%20Interactions%20from%20Audiovisual%20Signals" xlink:title="51 Facial Action Units" target="_blank">
<ellipse fill="none" stroke="black" cx="435.71" cy="-207" rx="90.98" ry="18"/>
<text text-anchor="middle" x="435.71" y="-203.3" font-family="Times,serif" font-size="14.00">51 Facial Action Units</text>
</a>
</g>
</g>
<!-- Speech Laughter -->
<g id="node8" class="node">
<title>Speech Laughter</title>
<ellipse fill="none" stroke="black" cx="127.39" cy="-261" rx="70.39" ry="18"/>
<text text-anchor="middle" x="127.39" y="-257.3" font-family="Times,serif" font-size="14.00">Speech Laughter</text>
</g>
<!-- 51 Facial Action Units&#45;&gt;Speech Laughter -->
<g id="edge3" class="edge">
<title>51 Facial Action Units&#45;&gt;Speech Laughter</title>
<path fill="none" stroke="black" d="M367.11,-218.92C316.24,-227.89 246.82,-240.12 195.95,-249.09"/>
<polygon fill="black" stroke="black" points="195.28,-245.65 186.04,-250.84 196.49,-252.55 195.28,-245.65"/>
</g>
<!-- Voiced Laughter -->
<g id="node10" class="node">
<title>Voiced Laughter</title>
<ellipse fill="none" stroke="black" cx="127.39" cy="-207" rx="69.59" ry="18"/>
<text text-anchor="middle" x="127.39" y="-203.3" font-family="Times,serif" font-size="14.00">Voiced Laughter</text>
</g>
<!-- 51 Facial Action Units&#45;&gt;Voiced Laughter -->
<g id="edge1" class="edge">
<title>51 Facial Action Units&#45;&gt;Voiced Laughter</title>
<path fill="none" stroke="black" d="M344.46,-207C300.93,-207 249.19,-207 207.26,-207"/>
<polygon fill="black" stroke="black" points="207.1,-203.5 197.1,-207 207.1,-210.5 207.1,-203.5"/>
</g>
<!-- Unvoiced Laughter -->
<g id="node11" class="node">
<title>Unvoiced Laughter</title>
<ellipse fill="none" stroke="black" cx="127.39" cy="-153" rx="79.09" ry="18"/>
<text text-anchor="middle" x="127.39" y="-149.3" font-family="Times,serif" font-size="14.00">Unvoiced Laughter</text>
</g>
<!-- 51 Facial Action Units&#45;&gt;Unvoiced Laughter -->
<g id="edge2" class="edge">
<title>51 Facial Action Units&#45;&gt;Unvoiced Laughter</title>
<path fill="none" stroke="black" d="M367.11,-195.08C317.72,-186.38 250.86,-174.59 200.46,-165.7"/>
<polygon fill="black" stroke="black" points="201.06,-162.26 190.61,-163.97 199.85,-169.15 201.06,-162.26"/>
</g>
<!-- 9 Dyadic Features -->
<g id="node4" class="node">
<title>9 Dyadic Features</title>
<g id="a_node4"><a xlink:href="https://scholar.google.com/scholar?hl=en&amp;q=Personality%20classification%20and%20behaviour%20interpretation:%20An%20approach%20based%20on%20feature%20categories" xlink:title="9 Dyadic Features" target="_blank">
<ellipse fill="none" stroke="black" cx="435.71" cy="-72" rx="75.29" ry="18"/>
<text text-anchor="middle" x="435.71" y="-68.3" font-family="Times,serif" font-size="14.00">9 Dyadic Features</text>
</a>
</g>
</g>
<!-- 9 Dyadic Features&#45;&gt;Social Impressions -->
<g id="edge5" class="edge">
<title>9 Dyadic Features&#45;&gt;Social Impressions</title>
<path fill="none" stroke="black" d="M361.34,-75.35C317.07,-77.38 260.45,-79.96 214.12,-82.08"/>
<polygon fill="black" stroke="black" points="213.92,-78.59 204.09,-82.54 214.24,-85.58 213.92,-78.59"/>
</g>
<!-- smiling synchrony -->
<g id="node5" class="node">
<title>smiling synchrony</title>
<g id="a_node5"><a xlink:href="https://scholar.google.com/scholar?hl=en&amp;q=Physiological%20evidence%20of%20interpersonal%20dynamics%20in%20a%20cooperative%20production%20task" xlink:title="smiling synchrony" target="_blank">
<ellipse fill="none" stroke="black" cx="435.71" cy="-315" rx="76.89" ry="18"/>
<text text-anchor="middle" x="435.71" y="-311.3" font-family="Times,serif" font-size="14.00">smiling synchrony</text>
</a>
</g>
</g>
<!-- team cohesion -->
<g id="node12" class="node">
<title>team cohesion</title>
<ellipse fill="none" stroke="black" cx="127.39" cy="-315" rx="61.99" ry="18"/>
<text text-anchor="middle" x="127.39" y="-311.3" font-family="Times,serif" font-size="14.00">team cohesion</text>
</g>
<!-- smiling synchrony&#45;&gt;team cohesion -->
<g id="edge10" class="edge">
<title>smiling synchrony&#45;&gt;team cohesion</title>
<path fill="none" stroke="black" d="M358.99,-315C310.3,-315 247.44,-315 199.65,-315"/>
<polygon fill="black" stroke="black" points="199.38,-311.5 189.38,-315 199.38,-318.5 199.38,-311.5"/>
</g>
<!-- facial expression features (60 features -->
<g id="node6" class="node">
<title>facial expression features (60 features</title>
<g id="a_node6"><a xlink:href="https://scholar.google.com/scholar?hl=en&amp;q=Multimodal%20Analysis%20of%20Vocal%20Collaborative%20Search:A%20Public%20Corpus%20and%20Results" xlink:title="facial expression features (60 features" target="_blank">
<ellipse fill="none" stroke="black" cx="435.71" cy="-423" rx="144.87" ry="18"/>
<text text-anchor="middle" x="435.71" y="-419.3" font-family="Times,serif" font-size="14.00">facial expression features (60 features</text>
</a>
</g>
</g>
<!-- perception of peer helpfulness -->
<g id="node7" class="node">
<title>perception of peer helpfulness</title>
<ellipse fill="none" stroke="black" cx="127.39" cy="-477" rx="117.78" ry="18"/>
<text text-anchor="middle" x="127.39" y="-473.3" font-family="Times,serif" font-size="14.00">perception of peer helpfulness</text>
</g>
<!-- facial expression features (60 features&#45;&gt;perception of peer helpfulness -->
<g id="edge7" class="edge">
<title>facial expression features (60 features&#45;&gt;perception of peer helpfulness</title>
<path fill="none" stroke="black" d="M351.41,-437.68C309.18,-445.13 257.93,-454.16 215.21,-461.7"/>
<polygon fill="black" stroke="black" points="214.35,-458.29 205.11,-463.48 215.56,-465.19 214.35,-458.29"/>
</g>
<!-- perception of peer clarity -->
<g id="node9" class="node">
<title>perception of peer clarity</title>
<ellipse fill="none" stroke="black" cx="127.39" cy="-423" rx="100.18" ry="18"/>
<text text-anchor="middle" x="127.39" y="-419.3" font-family="Times,serif" font-size="14.00">perception of peer clarity</text>
</g>
<!-- facial expression features (60 features&#45;&gt;perception of peer clarity -->
<g id="edge9" class="edge">
<title>facial expression features (60 features&#45;&gt;perception of peer clarity</title>
<path fill="none" stroke="black" d="M290.52,-423C272.92,-423 255.15,-423 238.16,-423"/>
<polygon fill="black" stroke="black" points="237.7,-419.5 227.7,-423 237.7,-426.5 237.7,-419.5"/>
</g>
<!-- perception of peer understanding -->
<g id="node14" class="node">
<title>perception of peer understanding</title>
<ellipse fill="none" stroke="black" cx="127.39" cy="-369" rx="127.28" ry="18"/>
<text text-anchor="middle" x="127.39" y="-365.3" font-family="Times,serif" font-size="14.00">perception of peer understanding</text>
</g>
<!-- facial expression features (60 features&#45;&gt;perception of peer understanding -->
<g id="edge8" class="edge">
<title>facial expression features (60 features&#45;&gt;perception of peer understanding</title>
<path fill="none" stroke="black" d="M351.41,-408.32C310,-401.01 259.91,-392.19 217.7,-384.74"/>
<polygon fill="black" stroke="black" points="218.17,-381.27 207.71,-382.98 216.95,-388.17 218.17,-381.27"/>
</g>
</g>
</svg>
