<?xml version="1.0" encoding="UTF-8" standalone="no"?>
<!DOCTYPE svg PUBLIC "-//W3C//DTD SVG 1.1//EN"
 "http://www.w3.org/Graphics/SVG/1.1/DTD/svg11.dtd">
<!-- Generated by graphviz version 2.47.0 (20210316.0004)
 -->
<!-- Title: Test Pages: 1 -->
<svg width="589pt" height="476pt"
 viewBox="0.00 0.00 588.65 476.00" xmlns="http://www.w3.org/2000/svg" xmlns:xlink="http://www.w3.org/1999/xlink">
<g id="graph0" class="graph" transform="scale(1 1) rotate(0) translate(4 472)">
<title>Test</title>
<polygon fill="white" stroke="transparent" points="-4,4 -4,-472 584.65,-472 584.65,4 -4,4"/>
<!-- smiling synchrony -->
<g id="node1" class="node">
<title>smiling synchrony</title>
<g id="a_node1"><a xlink:href="https://scholar.google.com/scholar?hl=en&amp;q=Physiological%20evidence%20of%20interpersonal%20dynamics%20in%20a%20cooperative%20production%20task" xlink:title="smiling synchrony">
<ellipse fill="none" stroke="black" cx="435.71" cy="-18" rx="76.89" ry="18"/>
<text text-anchor="middle" x="435.71" y="-14.3" font-family="Times,serif" font-size="14.00">smiling synchrony</text>
</a>
</g>
</g>
<!-- team cohesion -->
<g id="node11" class="node">
<title>team cohesion</title>
<ellipse fill="none" stroke="black" cx="127.39" cy="-18" rx="61.99" ry="18"/>
<text text-anchor="middle" x="127.39" y="-14.3" font-family="Times,serif" font-size="14.00">team cohesion</text>
</g>
<!-- smiling synchrony&#45;&gt;team cohesion -->
<g id="edge10" class="edge">
<title>smiling synchrony&#45;&gt;team cohesion</title>
<path fill="none" stroke="black" d="M358.99,-18C310.3,-18 247.44,-18 199.65,-18"/>
<polygon fill="black" stroke="black" points="199.38,-14.5 189.38,-18 199.38,-21.5 199.38,-14.5"/>
</g>
<!-- facial expression features (60 features -->
<g id="node2" class="node">
<title>facial expression features (60 features</title>
<g id="a_node2"><a xlink:href="https://scholar.google.com/scholar?hl=en&amp;q=Multimodal%20Analysis%20of%20Vocal%20Collaborative%20Search:A%20Public%20Corpus%20and%20Results" xlink:title="facial expression features (60 features">
<ellipse fill="none" stroke="black" cx="435.71" cy="-126" rx="144.87" ry="18"/>
<text text-anchor="middle" x="435.71" y="-122.3" font-family="Times,serif" font-size="14.00">facial expression features (60 features</text>
</a>
</g>
</g>
<!-- perception of peer clarity -->
<g id="node9" class="node">
<title>perception of peer clarity</title>
<ellipse fill="none" stroke="black" cx="127.39" cy="-180" rx="100.18" ry="18"/>
<text text-anchor="middle" x="127.39" y="-176.3" font-family="Times,serif" font-size="14.00">perception of peer clarity</text>
</g>
<!-- facial expression features (60 features&#45;&gt;perception of peer clarity -->
<g id="edge9" class="edge">
<title>facial expression features (60 features&#45;&gt;perception of peer clarity</title>
<path fill="none" stroke="black" d="M351.41,-140.68C307.28,-148.46 253.3,-157.98 209.5,-165.7"/>
<polygon fill="black" stroke="black" points="208.7,-162.29 199.46,-167.47 209.92,-169.18 208.7,-162.29"/>
</g>
<!-- perception of peer helpfulness -->
<g id="node10" class="node">
<title>perception of peer helpfulness</title>
<ellipse fill="none" stroke="black" cx="127.39" cy="-126" rx="117.78" ry="18"/>
<text text-anchor="middle" x="127.39" y="-122.3" font-family="Times,serif" font-size="14.00">perception of peer helpfulness</text>
</g>
<!-- facial expression features (60 features&#45;&gt;perception of peer helpfulness -->
<g id="edge7" class="edge">
<title>facial expression features (60 features&#45;&gt;perception of peer helpfulness</title>
<path fill="none" stroke="black" d="M290.52,-126C278.76,-126 266.93,-126 255.3,-126"/>
<polygon fill="black" stroke="black" points="255.15,-122.5 245.15,-126 255.15,-129.5 255.15,-122.5"/>
</g>
<!-- perception of peer understanding -->
<g id="node15" class="node">
<title>perception of peer understanding</title>
<ellipse fill="none" stroke="black" cx="127.39" cy="-72" rx="127.28" ry="18"/>
<text text-anchor="middle" x="127.39" y="-68.3" font-family="Times,serif" font-size="14.00">perception of peer understanding</text>
</g>
<!-- facial expression features (60 features&#45;&gt;perception of peer understanding -->
<g id="edge8" class="edge">
<title>facial expression features (60 features&#45;&gt;perception of peer understanding</title>
<path fill="none" stroke="black" d="M351.41,-111.32C310,-104.01 259.91,-95.19 217.7,-87.74"/>
<polygon fill="black" stroke="black" points="218.17,-84.27 207.71,-85.98 216.95,-91.17 218.17,-84.27"/>
</g>
<!-- 9 Dyadic Features -->
<g id="node3" class="node">
<title>9 Dyadic Features</title>
<g id="a_node3"><a xlink:href="https://scholar.google.com/scholar?hl=en&amp;q=Personality%20classification%20and%20behaviour%20interpretation:%20An%20approach%20based%20on%20feature%20categories" xlink:title="9 Dyadic Features">
<ellipse fill="none" stroke="black" cx="435.71" cy="-261" rx="75.29" ry="18"/>
<text text-anchor="middle" x="435.71" y="-257.3" font-family="Times,serif" font-size="14.00">9 Dyadic Features</text>
</a>
</g>
</g>
<!-- Social Impressions -->
<g id="node7" class="node">
<title>Social Impressions</title>
<ellipse fill="none" stroke="black" cx="127.39" cy="-234" rx="77.99" ry="18"/>
<text text-anchor="middle" x="127.39" y="-230.3" font-family="Times,serif" font-size="14.00">Social Impressions</text>
</g>
<!-- 9 Dyadic Features&#45;&gt;Social Impressions -->
<g id="edge5" class="edge">
<title>9 Dyadic Features&#45;&gt;Social Impressions</title>
<path fill="none" stroke="black" d="M364.82,-254.84C318.99,-250.8 258.87,-245.5 210.73,-241.26"/>
<polygon fill="black" stroke="black" points="210.91,-237.76 200.64,-240.37 210.3,-244.73 210.91,-237.76"/>
</g>
<!-- 51 Facial Action Units -->
<g id="node4" class="node">
<title>51 Facial Action Units</title>
<g id="a_node4"><a xlink:href="https://scholar.google.com/scholar?hl=en&amp;q=Automatic%20Recognition%20of%20Affective%20Laughter%20in%20Spontaneous%20Dyadic%20Interactions%20from%20Audiovisual%20Signals" xlink:title="51 Facial Action Units">
<ellipse fill="none" stroke="black" cx="435.71" cy="-342" rx="90.98" ry="18"/>
<text text-anchor="middle" x="435.71" y="-338.3" font-family="Times,serif" font-size="14.00">51 Facial Action Units</text>
</a>
</g>
</g>
<!-- Speech Laughter -->
<g id="node12" class="node">
<title>Speech Laughter</title>
<ellipse fill="none" stroke="black" cx="127.39" cy="-396" rx="70.39" ry="18"/>
<text text-anchor="middle" x="127.39" y="-392.3" font-family="Times,serif" font-size="14.00">Speech Laughter</text>
</g>
<!-- 51 Facial Action Units&#45;&gt;Speech Laughter -->
<g id="edge3" class="edge">
<title>51 Facial Action Units&#45;&gt;Speech Laughter</title>
<path fill="none" stroke="black" d="M367.11,-353.92C316.24,-362.89 246.82,-375.12 195.95,-384.09"/>
<polygon fill="black" stroke="black" points="195.28,-380.65 186.04,-385.84 196.49,-387.55 195.28,-380.65"/>
</g>
<!-- Unvoiced Laughter -->
<g id="node13" class="node">
<title>Unvoiced Laughter</title>
<ellipse fill="none" stroke="black" cx="127.39" cy="-342" rx="79.09" ry="18"/>
<text text-anchor="middle" x="127.39" y="-338.3" font-family="Times,serif" font-size="14.00">Unvoiced Laughter</text>
</g>
<!-- 51 Facial Action Units&#45;&gt;Unvoiced Laughter -->
<g id="edge2" class="edge">
<title>51 Facial Action Units&#45;&gt;Unvoiced Laughter</title>
<path fill="none" stroke="black" d="M344.46,-342C304.2,-342 256.91,-342 216.85,-342"/>
<polygon fill="black" stroke="black" points="216.83,-338.5 206.83,-342 216.83,-345.5 216.83,-338.5"/>
</g>
<!-- Voiced Laughter -->
<g id="node14" class="node">
<title>Voiced Laughter</title>
<ellipse fill="none" stroke="black" cx="127.39" cy="-288" rx="69.59" ry="18"/>
<text text-anchor="middle" x="127.39" y="-284.3" font-family="Times,serif" font-size="14.00">Voiced Laughter</text>
</g>
<!-- 51 Facial Action Units&#45;&gt;Voiced Laughter -->
<g id="edge1" class="edge">
<title>51 Facial Action Units&#45;&gt;Voiced Laughter</title>
<path fill="none" stroke="black" d="M367.11,-330.08C316.07,-321.09 246.37,-308.8 195.46,-299.82"/>
<polygon fill="black" stroke="black" points="195.99,-296.36 185.54,-298.07 194.78,-303.26 195.99,-296.36"/>
</g>
<!-- facial features -->
<g id="node5" class="node">
<title>facial features</title>
<g id="a_node5"><a xlink:href="https://scholar.google.com/scholar?hl=en&amp;q=Real-time%20mutual%20gaze%20perception" xlink:title="facial features">
<ellipse fill="none" stroke="black" cx="435.71" cy="-450" rx="60.39" ry="18"/>
<text text-anchor="middle" x="435.71" y="-446.3" font-family="Times,serif" font-size="14.00">facial features</text>
</a>
</g>
</g>
<!-- identity of emergent leader -->
<g id="node8" class="node">
<title>identity of emergent leader</title>
<ellipse fill="none" stroke="black" cx="127.39" cy="-450" rx="106.68" ry="18"/>
<text text-anchor="middle" x="127.39" y="-446.3" font-family="Times,serif" font-size="14.00">identity of emergent leader</text>
</g>
<!-- facial features&#45;&gt;identity of emergent leader -->
<g id="edge6" class="edge">
<title>facial features&#45;&gt;identity of emergent leader</title>
<path fill="none" stroke="black" d="M374.92,-450C337.78,-450 288.77,-450 244.25,-450"/>
<polygon fill="black" stroke="black" points="244.23,-446.5 234.23,-450 244.23,-453.5 244.23,-446.5"/>
</g>
<!-- 22 Intra&#45;Personal Features -->
<g id="node6" class="node">
<title>22 Intra&#45;Personal Features</title>
<g id="a_node6"><a xlink:href="https://scholar.google.com/scholar?hl=en&amp;q=Personality%20classification%20and%20behaviour%20interpretation:%20An%20approach%20based%20on%20feature%20categories" xlink:title="22 Intra&#45;Personal Features">
<ellipse fill="none" stroke="black" cx="435.71" cy="-207" rx="103.98" ry="18"/>
<text text-anchor="middle" x="435.71" y="-203.3" font-family="Times,serif" font-size="14.00">22 Intra&#45;Personal Features</text>
</a>
</g>
</g>
<!-- 22 Intra&#45;Personal Features&#45;&gt;Social Impressions -->
<g id="edge4" class="edge">
<title>22 Intra&#45;Personal Features&#45;&gt;Social Impressions</title>
<path fill="none" stroke="black" d="M342.81,-215.1C300.89,-218.8 251.65,-223.14 210.93,-226.72"/>
<polygon fill="black" stroke="black" points="210.43,-223.26 200.77,-227.62 211.04,-230.23 210.43,-223.26"/>
</g>
</g>
</svg>
