<?xml version="1.0" encoding="UTF-8" standalone="no"?>
<!DOCTYPE svg PUBLIC "-//W3C//DTD SVG 1.1//EN"
 "http://www.w3.org/Graphics/SVG/1.1/DTD/svg11.dtd">
<!-- Generated by graphviz version 2.47.0 (20210316.0004)
 -->
<!-- Title: world Pages: 1 -->
<svg width="1080pt" height="685pt"
 viewBox="0.00 0.00 1080.00 685.47" xmlns="http://www.w3.org/2000/svg" xmlns:xlink="http://www.w3.org/1999/xlink">
<g id="graph0" class="graph" transform="scale(0.92 0.92) rotate(0) translate(4 740.5)">
<title>world</title>
<polygon fill="white" stroke="transparent" points="-4,4 -4,-740.5 1169,-740.5 1169,4 -4,4"/>
<!-- Visual Attention -->
<g id="node1" class="node">
<title>Visual Attention</title>
<g id="a_node1"><a xlink:href="Visual_Attention.svg" xlink:title="73">
<text text-anchor="middle" x="1022.5" y="-709.3" font-family="Times new roman" font-size="34.00">Visual Attention</text>
</a>
</g>
</g>
<!-- Gaze -->
<g id="node2" class="node">
<title>Gaze</title>
<g id="a_node2"><a xlink:href="Gaze.svg" xlink:title="152">
<text text-anchor="middle" x="744.5" y="-530.5" font-family="Times new roman" font-size="50.00">Gaze</text>
</a>
</g>
</g>
<!-- Visual Attention&#45;&gt;Gaze -->
<g id="edge1" class="edge">
<title>Visual Attention&#45;&gt;Gaze</title>
<path fill="none" stroke="#a6d854" stroke-width="14.6" d="M904.65,-701.17C896.07,-698.05 887.75,-694.36 880,-690 832.2,-663.1 792.01,-613.13 768.35,-578.99"/>
<polygon fill="#a6d854" stroke="#a6d854" stroke-width="14.6" points="778.88,-571.75 762.69,-570.67 757.75,-586.12 778.88,-571.75"/>
</g>
<!-- performance -->
<g id="node3" class="node">
<title>performance</title>
<g id="a_node3"><a xlink:href="performance.svg" xlink:title="130">
<text text-anchor="middle" x="426" y="-522" font-family="Times new roman" font-size="45.00">performance</text>
</a>
</g>
</g>
<!-- Gaze&#45;&gt;performance -->
<g id="edge2" class="edge">
<title>Gaze&#45;&gt;performance</title>
<g id="a_edge2"><a xlink:href="Gaze -&gt; performance.gv.svg">
<path fill="none" stroke="#a6d854" stroke-width="2.8" d="M684.34,-541.13C649.89,-540.04 604.95,-538.62 562.29,-537.27"/>
<polygon fill="#a6d854" stroke="#a6d854" stroke-width="2.8" points="562.18,-533.77 552.07,-536.95 561.96,-540.77 562.18,-533.77"/>
</a>
</g>
</g>
<!-- coordination -->
<g id="node5" class="node">
<title>coordination</title>
<g id="a_node5"><a xlink:href="coordination.svg" xlink:title="108">
<text text-anchor="middle" x="426" y="-399.7" font-family="Times new roman" font-size="41.00">coordination</text>
</a>
</g>
</g>
<!-- Gaze&#45;&gt;coordination -->
<g id="edge4" class="edge">
<title>Gaze&#45;&gt;coordination</title>
<g id="a_edge4"><a xlink:href="Gaze -&gt; coordination.gv.svg">
<path fill="none" stroke="#a6d854" stroke-width="3" d="M684.31,-529.07C670.35,-523.8 656.28,-516.65 645,-507 619.91,-485.53 635.89,-461.18 609,-442 590.68,-428.94 568.75,-420.63 546.55,-415.45"/>
<polygon fill="#a6d854" stroke="#a6d854" stroke-width="3" points="547.19,-412.01 536.68,-413.35 545.74,-418.86 547.19,-412.01"/>
</a>
</g>
</g>
<!-- learning -->
<g id="node12" class="node">
<title>learning</title>
<g id="a_node12"><a xlink:href="learning.svg" xlink:title="78">
<text text-anchor="middle" x="426" y="-461.5" font-family="Times new roman" font-size="35.00">learning</text>
</a>
</g>
</g>
<!-- Gaze&#45;&gt;learning -->
<g id="edge27" class="edge">
<title>Gaze&#45;&gt;learning</title>
<g id="a_edge27"><a xlink:href="Gaze -&gt; learning.gv.svg">
<path fill="none" stroke="#a6d854" stroke-width="2.4" d="M684.49,-521.46C661.21,-513.55 634.08,-505.06 609,-499 573.06,-490.32 532.49,-483.56 498.79,-478.77"/>
<polygon fill="#a6d854" stroke="#a6d854" stroke-width="2.4" points="498.95,-475.26 488.56,-477.34 497.98,-482.19 498.95,-475.26"/>
</a>
</g>
</g>
<!-- interpersonal -->
<g id="node15" class="node">
<title>interpersonal</title>
<g id="a_node15"><a xlink:href="interpersonal.svg" xlink:title="164">
<text text-anchor="middle" x="426" y="-327.9" font-family="Times new roman" font-size="52.00">interpersonal</text>
</a>
</g>
</g>
<!-- Gaze&#45;&gt;interpersonal -->
<g id="edge17" class="edge">
<title>Gaze&#45;&gt;interpersonal</title>
<g id="a_edge17"><a xlink:href="Gaze -&gt; interpersonal.gv.svg">
<path fill="none" stroke="#a6d854" stroke-width="3" d="M684.45,-531.47C669.91,-526.13 655.52,-518.35 645,-507 604.84,-463.65 652.19,-419.34 609,-379 602.24,-372.69 594.72,-367.32 586.69,-362.75"/>
<polygon fill="#a6d854" stroke="#a6d854" stroke-width="3" points="588.27,-359.63 577.78,-358.1 585.03,-365.83 588.27,-359.63"/>
</a>
</g>
</g>
<!-- group composition -->
<g id="node17" class="node">
<title>group composition</title>
<g id="a_node17"><a xlink:href="group_composition.svg" xlink:title="130">
<text text-anchor="middle" x="426" y="-590" font-family="Times new roman" font-size="45.00">group composition</text>
</a>
</g>
</g>
<!-- Gaze&#45;&gt;group composition -->
<g id="edge21" class="edge">
<title>Gaze&#45;&gt;group composition</title>
<g id="a_edge21"><a xlink:href="Gaze -&gt; group composition.gv.svg">
<path fill="none" stroke="#a6d854" stroke-width="2" d="M684.34,-553.84C652.92,-559.6 612.78,-566.96 573.59,-574.14"/>
<polygon fill="#a6d854" stroke="#a6d854" stroke-width="2" points="572.86,-570.71 563.66,-575.96 574.12,-577.6 572.86,-570.71"/>
</a>
</g>
</g>
<!-- communication -->
<g id="node33" class="node">
<title>communication</title>
<g id="a_node33"><a xlink:href="communication.svg" xlink:title="70">
<text text-anchor="middle" x="426" y="-267.6" font-family="Times new roman" font-size="33.00">communication</text>
</a>
</g>
</g>
<!-- Gaze&#45;&gt;communication -->
<g id="edge69" class="edge">
<title>Gaze&#45;&gt;communication</title>
<g id="a_edge69"><a xlink:href="Gaze -&gt; communication.gv.svg">
<path fill="none" stroke="#a6d854" stroke-width="1.6" d="M684.45,-532.42C669.65,-527.09 655.12,-519.07 645,-507 586.11,-436.8 674.53,-368.05 609,-304 592.1,-287.48 569.77,-278.16 546.58,-273.27"/>
<polygon fill="#a6d854" stroke="#a6d854" stroke-width="1.6" points="547.06,-269.8 536.59,-271.44 545.8,-276.69 547.06,-269.8"/>
</a>
</g>
</g>
<!-- product -->
<g id="node4" class="node">
<title>product</title>
<g id="a_node4"><a xlink:href="product.svg" xlink:title="98">
<text text-anchor="middle" x="103.5" y="-491.3" font-family="Times new roman" font-size="39.00">product</text>
</a>
</g>
</g>
<!-- performance&#45;&gt;product -->
<g id="edge3" class="edge">
<title>performance&#45;&gt;product</title>
<path fill="none" stroke="black" stroke-width="12.4" d="M299.71,-520.49C258.96,-516.42 215.04,-512.04 179.2,-508.46"/>
<polygon fill="black" stroke="black" stroke-width="12.4" points="179.86,-497.62 168.84,-507.42 177.71,-519.21 179.86,-497.62"/>
</g>
<!-- process -->
<g id="node6" class="node">
<title>process</title>
<g id="a_node6"><a xlink:href="process.svg" xlink:title="200">
<text text-anchor="middle" x="103.5" y="-326.3" font-family="Times new roman" font-size="59.00">process</text>
</a>
</g>
</g>
<!-- performance&#45;&gt;process -->
<g id="edge71" class="edge">
<title>performance&#45;&gt;process</title>
<path fill="none" stroke="black" stroke-width="0.6" d="M299.69,-521.01C279.92,-515.95 260.32,-508.87 243,-499 217,-484.19 167.44,-423.47 135.2,-381.77"/>
<polygon fill="black" stroke="black" stroke-width="0.6" points="137.86,-379.49 128.99,-373.7 132.32,-383.76 137.86,-379.49"/>
</g>
<!-- coordination&#45;&gt;process -->
<g id="edge5" class="edge">
<title>coordination&#45;&gt;process</title>
<path fill="none" stroke="black" stroke-width="10.8" d="M315.42,-393.14C291.47,-388.96 266.31,-384.17 243,-379 234.51,-377.12 225.76,-375.04 216.99,-372.86"/>
<polygon fill="black" stroke="black" stroke-width="10.8" points="219.09,-363.65 207.08,-370.36 214.46,-381.97 219.09,-363.65"/>
</g>
<!-- Eye Motion -->
<g id="node7" class="node">
<title>Eye Motion</title>
<g id="a_node7"><a xlink:href="Eye_Motion.svg" xlink:title="3">
<text text-anchor="middle" x="1022.5" y="-665" font-family="Times new roman" font-size="20.00">Eye Motion</text>
</a>
</g>
</g>
<!-- Eye Motion&#45;&gt;Gaze -->
<g id="edge6" class="edge">
<title>Eye Motion&#45;&gt;Gaze</title>
<path fill="none" stroke="#a6d854" stroke-width="0.6" d="M972.3,-669.39C944.27,-667.51 909.06,-662.5 880,-650 841.08,-633.26 803.96,-602.17 778.61,-577.81"/>
<polygon fill="#a6d854" stroke="#a6d854" stroke-width="0.6" points="781.06,-575.3 771.46,-570.81 776.16,-580.3 781.06,-575.3"/>
</g>
<!-- EDA -->
<g id="node8" class="node">
<title>EDA</title>
<g id="a_node8"><a xlink:href="EDA.svg" xlink:title="24">
<text text-anchor="middle" x="1022.5" y="-128.8" font-family="Times new roman" font-size="24.00">EDA</text>
</a>
</g>
</g>
<!-- Physiological -->
<g id="node9" class="node">
<title>Physiological</title>
<g id="a_node9"><a xlink:href="Physiological.svg" xlink:title="66">
<text text-anchor="middle" x="744.5" y="-193.6" font-family="Times new roman" font-size="33.00">Physiological</text>
</a>
</g>
</g>
<!-- EDA&#45;&gt;Physiological -->
<g id="edge7" class="edge">
<title>EDA&#45;&gt;Physiological</title>
<path fill="none" stroke="#66c2a5" stroke-width="4.8" d="M997.98,-137.43C969.7,-140.63 920.95,-147.04 880,-157 854.14,-163.29 826.13,-172.29 802.4,-180.59"/>
<polygon fill="#66c2a5" stroke="#66c2a5" stroke-width="4.8" points="800.88,-176.68 792.86,-183.98 803.69,-184.6 800.88,-176.68"/>
</g>
<!-- Physiological&#45;&gt;performance -->
<g id="edge55" class="edge">
<title>Physiological&#45;&gt;performance</title>
<g id="a_edge55"><a xlink:href="Physiological -&gt; performance.gv.svg">
<path fill="none" stroke="#66c2a5" stroke-width="0.4" d="M656.03,-220.11C651.98,-222.96 648.26,-226.24 645,-230 566.06,-321.2 692.06,-411.53 609,-499 596.11,-512.57 579.68,-521.73 561.97,-527.77"/>
<polygon fill="#66c2a5" stroke="#66c2a5" stroke-width="0.4" points="560.55,-524.55 552.01,-530.82 562.6,-531.24 560.55,-524.55"/>
</a>
</g>
</g>
<!-- Physiological&#45;&gt;coordination -->
<g id="edge53" class="edge">
<title>Physiological&#45;&gt;coordination</title>
<g id="a_edge53"><a xlink:href="Physiological -&gt; coordination.gv.svg">
<path fill="none" stroke="#66c2a5" d="M656.93,-220.23C652.6,-223.05 648.57,-226.28 645,-230 597.8,-279.12 658.79,-332.5 609,-379 591.88,-394.98 569.71,-404.37 546.77,-409.62"/>
<polygon fill="#66c2a5" stroke="#66c2a5" points="546,-406.2 536.9,-411.62 547.4,-413.06 546,-406.2"/>
</a>
</g>
</g>
<!-- cognitive engagement -->
<g id="node10" class="node">
<title>cognitive engagement</title>
<g id="a_node10"><a xlink:href="cognitive_engagement.svg" xlink:title="26">
<text text-anchor="middle" x="426" y="-220" font-family="Times new roman" font-size="25.00">cognitive engagement</text>
</a>
</g>
</g>
<!-- Physiological&#45;&gt;cognitive engagement -->
<g id="edge8" class="edge">
<title>Physiological&#45;&gt;cognitive engagement</title>
<g id="a_edge8"><a xlink:href="Physiological -&gt; cognitive engagement.gv.svg">
<path fill="none" stroke="#66c2a5" stroke-width="1.2" d="M648.11,-209.23C620.68,-211.31 590.23,-213.62 560.93,-215.84"/>
<polygon fill="#66c2a5" stroke="#66c2a5" stroke-width="1.2" points="560.32,-212.38 550.62,-216.63 560.85,-219.36 560.32,-212.38"/>
</a>
</g>
</g>
<!-- affective -->
<g id="node11" class="node">
<title>affective</title>
<g id="a_node11"><a xlink:href="affective.svg" xlink:title="20">
<text text-anchor="middle" x="426" y="-175.1" font-family="Times new roman" font-size="23.00">affective</text>
</a>
</g>
</g>
<!-- Physiological&#45;&gt;affective -->
<g id="edge10" class="edge">
<title>Physiological&#45;&gt;affective</title>
<g id="a_edge10"><a xlink:href="Physiological -&gt; affective.gv.svg">
<path fill="none" stroke="#66c2a5" stroke-width="0.6" d="M648.11,-195.67C592.44,-191.98 524.37,-187.46 478.59,-184.42"/>
<polygon fill="#66c2a5" stroke="#66c2a5" stroke-width="0.6" points="478.81,-180.93 468.6,-183.76 478.34,-187.91 478.81,-180.93"/>
</a>
</g>
</g>
<!-- Physiological&#45;&gt;learning -->
<g id="edge12" class="edge">
<title>Physiological&#45;&gt;learning</title>
<g id="a_edge12"><a xlink:href="Physiological -&gt; learning.gv.svg">
<path fill="none" stroke="#66c2a5" d="M656.19,-220.25C652.1,-223.06 648.32,-226.29 645,-230 581.19,-301.15 677.1,-374.95 609,-442 580.58,-469.98 536.63,-477.34 499.04,-477.53"/>
<polygon fill="#66c2a5" stroke="#66c2a5" points="498.66,-474.03 488.62,-477.41 498.58,-481.03 498.66,-474.03"/>
</a>
</g>
</g>
<!-- Physiological&#45;&gt;interpersonal -->
<g id="edge62" class="edge">
<title>Physiological&#45;&gt;interpersonal</title>
<g id="a_edge62"><a xlink:href="Physiological -&gt; interpersonal.gv.svg">
<path fill="none" stroke="#66c2a5" stroke-width="1.2" d="M659.75,-220.17C654.49,-222.99 649.51,-226.24 645,-230 617.21,-253.16 637.59,-280.84 609,-303 602.05,-308.39 594.51,-313.06 586.6,-317.1"/>
<polygon fill="#66c2a5" stroke="#66c2a5" stroke-width="1.2" points="585.05,-313.96 577.52,-321.41 588.05,-320.29 585.05,-313.96"/>
</a>
</g>
</g>
<!-- Physiological&#45;&gt;communication -->
<g id="edge64" class="edge">
<title>Physiological&#45;&gt;communication</title>
<g id="a_edge64"><a xlink:href="Physiological -&gt; communication.gv.svg">
<path fill="none" stroke="#66c2a5" stroke-width="0.6" d="M673.21,-220.03C663.62,-223.06 653.99,-226.39 645,-230 628.21,-236.73 626.19,-243.37 609,-249 589.21,-255.48 567.71,-260.41 546.63,-264.16"/>
<polygon fill="#66c2a5" stroke="#66c2a5" stroke-width="0.6" points="545.94,-260.73 536.66,-265.85 547.11,-267.63 545.94,-260.73"/>
</a>
</g>
</g>
<!-- cognitive engagement&#45;&gt;process -->
<g id="edge9" class="edge">
<title>cognitive engagement&#45;&gt;process</title>
<path fill="none" stroke="black" stroke-width="2.6" d="M301.26,-233.83C281.4,-237.3 261.36,-242.17 243,-249 209.8,-261.35 176.6,-283 151.03,-302.2"/>
<polygon fill="black" stroke="black" stroke-width="2.6" points="148.83,-299.47 143.01,-308.33 153.08,-305.04 148.83,-299.47"/>
</g>
<!-- affective&#45;&gt;process -->
<g id="edge11" class="edge">
<title>affective&#45;&gt;process</title>
<path fill="none" stroke="black" stroke-width="2" d="M383.46,-178.52C345.11,-177.91 287.52,-181.39 243,-203 197.73,-224.98 158.44,-267.78 133.39,-299.92"/>
<polygon fill="black" stroke="black" stroke-width="2" points="130.31,-298.18 127.02,-308.26 135.88,-302.43 130.31,-298.18"/>
</g>
<!-- learning&#45;&gt;product -->
<g id="edge13" class="edge">
<title>learning&#45;&gt;product</title>
<path fill="none" stroke="black" stroke-width="7.2" d="M363.2,-475.98C310.55,-481.07 234.73,-488.4 178.78,-493.82"/>
<polygon fill="black" stroke="black" stroke-width="7.2" points="177.92,-487.57 168.58,-494.8 179.14,-500.11 177.92,-487.57"/>
</g>
<!-- learning&#45;&gt;process -->
<g id="edge36" class="edge">
<title>learning&#45;&gt;process</title>
<path fill="none" stroke="black" stroke-width="0.6" d="M363.21,-467.78C327.04,-464.72 281.12,-457.73 243,-442 207.6,-427.39 172.79,-401.95 146.93,-380.25"/>
<polygon fill="black" stroke="black" stroke-width="0.6" points="149.07,-377.49 139.19,-373.66 144.53,-382.81 149.07,-377.49"/>
</g>
<!-- Speech Participation -->
<g id="node13" class="node">
<title>Speech Participation</title>
<g id="a_node13"><a xlink:href="Speech_Participation.svg" xlink:title="60">
<text text-anchor="middle" x="1022.5" y="-269.2" font-family="Times new roman" font-size="31.00">Speech Participation</text>
</a>
</g>
</g>
<!-- Verbal -->
<g id="node14" class="node">
<title>Verbal</title>
<g id="a_node14"><a xlink:href="Verbal.svg" xlink:title="250">
<text text-anchor="middle" x="744.5" y="-259.5" font-family="Times new roman" font-size="70.00">Verbal</text>
</a>
</g>
</g>
<!-- Speech Participation&#45;&gt;Verbal -->
<g id="edge14" class="edge">
<title>Speech Participation&#45;&gt;Verbal</title>
<path fill="none" stroke="#8da0cb" stroke-width="12" d="M879.86,-277C871.3,-277 862.75,-277 854.36,-277"/>
<polygon fill="#8da0cb" stroke="#8da0cb" stroke-width="12" points="854.21,-266.5 844.21,-277 854.21,-287.5 854.21,-266.5"/>
</g>
<!-- Verbal&#45;&gt;performance -->
<g id="edge22" class="edge">
<title>Verbal&#45;&gt;performance</title>
<g id="a_edge22"><a xlink:href="Verbal -&gt; performance.gv.svg">
<path fill="none" stroke="#8da0cb" stroke-width="3.4" d="M654.33,-315.85C650.94,-318.99 647.8,-322.37 645,-326 597.02,-388.18 665.1,-444.04 609,-499 595.83,-511.91 579.42,-520.74 561.88,-526.67"/>
<polygon fill="#8da0cb" stroke="#8da0cb" stroke-width="3.4" points="560.58,-523.4 552.04,-529.67 562.62,-530.1 560.58,-523.4"/>
</a>
</g>
</g>
<!-- Verbal&#45;&gt;coordination -->
<g id="edge50" class="edge">
<title>Verbal&#45;&gt;coordination</title>
<g id="a_edge50"><a xlink:href="Verbal -&gt; coordination.gv.svg">
<path fill="none" stroke="#8da0cb" stroke-width="3.4" d="M658.35,-315.66C653.66,-318.91 649.17,-322.36 645,-326 623.55,-344.73 632.95,-363.6 609,-379 590.41,-390.95 568.64,-398.71 546.74,-403.68"/>
<polygon fill="#8da0cb" stroke="#8da0cb" stroke-width="3.4" points="545.76,-400.3 536.68,-405.76 547.18,-407.16 545.76,-400.3"/>
</a>
</g>
</g>
<!-- Verbal&#45;&gt;cognitive engagement -->
<g id="edge28" class="edge">
<title>Verbal&#45;&gt;cognitive engagement</title>
<g id="a_edge28"><a xlink:href="Verbal -&gt; cognitive engagement.gv.svg">
<path fill="none" stroke="#8da0cb" stroke-width="0.2" d="M644.87,-255.53C632.82,-253.18 620.65,-250.94 609,-249 592.72,-246.28 575.57,-243.72 558.57,-241.37"/>
<polygon fill="#8da0cb" stroke="#8da0cb" stroke-width="0.2" points="558.97,-237.89 548.59,-240 558.03,-244.82 558.97,-237.89"/>
</a>
</g>
</g>
<!-- Verbal&#45;&gt;affective -->
<g id="edge32" class="edge">
<title>Verbal&#45;&gt;affective</title>
<g id="a_edge32"><a xlink:href="Verbal -&gt; affective.gv.svg">
<path fill="none" stroke="#8da0cb" stroke-width="0.4" d="M661.49,-238.39C655.85,-235.32 650.3,-232.18 645,-229 628.07,-218.86 627.38,-210.19 609,-203 567.14,-186.63 516.08,-181.62 478.71,-180.43"/>
<polygon fill="#8da0cb" stroke="#8da0cb" stroke-width="0.4" points="478.63,-176.92 468.55,-180.18 478.46,-183.92 478.63,-176.92"/>
</a>
</g>
</g>
<!-- Verbal&#45;&gt;learning -->
<g id="edge35" class="edge">
<title>Verbal&#45;&gt;learning</title>
<g id="a_edge35"><a xlink:href="Verbal -&gt; learning.gv.svg">
<path fill="none" stroke="#8da0cb" stroke-width="1.2" d="M655.19,-315.81C651.52,-318.97 648.09,-322.36 645,-326 610.02,-367.11 649.89,-406.76 609,-442 579.12,-467.75 535.75,-475.18 498.85,-475.97"/>
<polygon fill="#8da0cb" stroke="#8da0cb" stroke-width="1.2" points="498.61,-472.47 488.63,-476.03 498.65,-479.47 498.61,-472.47"/>
</a>
</g>
</g>
<!-- Verbal&#45;&gt;interpersonal -->
<g id="edge15" class="edge">
<title>Verbal&#45;&gt;interpersonal</title>
<g id="a_edge15"><a xlink:href="Verbal -&gt; interpersonal.gv.svg">
<path fill="none" stroke="#8da0cb" stroke-width="7.2" d="M644.66,-296.99C623.49,-301.27 600.66,-305.88 578.02,-310.46"/>
<polygon fill="#8da0cb" stroke="#8da0cb" stroke-width="7.2" points="576.55,-304.33 567.99,-312.49 579.04,-316.68 576.55,-304.33"/>
</a>
</g>
</g>
<!-- Verbal&#45;&gt;group composition -->
<g id="edge19" class="edge">
<title>Verbal&#45;&gt;group composition</title>
<g id="a_edge19"><a xlink:href="Verbal -&gt; group composition.gv.svg">
<path fill="none" stroke="#8da0cb" stroke-width="6.6" d="M654.08,-315.65C650.75,-318.85 647.7,-322.29 645,-326 581.31,-413.59 684.17,-489.04 609,-567 608.22,-567.81 607.43,-568.6 606.62,-569.38"/>
<polygon fill="#8da0cb" stroke="#8da0cb" stroke-width="6.6" points="602.8,-565.05 599.05,-575.98 610.39,-573.76 602.8,-565.05"/>
</a>
</g>
</g>
<!-- Verbal&#45;&gt;communication -->
<g id="edge65" class="edge">
<title>Verbal&#45;&gt;communication</title>
<g id="a_edge65"><a xlink:href="Verbal -&gt; communication.gv.svg">
<path fill="none" stroke="#8da0cb" stroke-width="2.4" d="M644.66,-276.69C613.73,-276.59 579.25,-276.48 547.03,-276.38"/>
<polygon fill="#8da0cb" stroke="#8da0cb" stroke-width="2.4" points="546.66,-272.88 536.65,-276.35 546.64,-279.88 546.66,-272.88"/>
</a>
</g>
</g>
<!-- interpersonal&#45;&gt;process -->
<g id="edge16" class="edge">
<title>interpersonal&#45;&gt;process</title>
<path fill="none" stroke="black" stroke-width="16.4" d="M274.13,-341C254.96,-341 235.6,-341 217.16,-341"/>
<polygon fill="black" stroke="black" stroke-width="16.4" points="217.02,-326.65 207.02,-341 217.02,-355.35 217.02,-326.65"/>
</g>
<!-- Combined -->
<g id="node16" class="node">
<title>Combined</title>
<g id="a_node16"><a xlink:href="Combined.svg" xlink:title="6">
<text text-anchor="middle" x="1022.5" y="-86.7" font-family="Times new roman" font-size="21.00">Combined</text>
</a>
</g>
</g>
<!-- Combined&#45;&gt;Physiological -->
<g id="edge18" class="edge">
<title>Combined&#45;&gt;Physiological</title>
<path fill="none" stroke="#66c2a5" stroke-width="1.2" d="M973.99,-93.89C945.89,-96.25 910.03,-101.49 880,-113 840.36,-128.19 800.51,-156.6 774.59,-177.24"/>
<polygon fill="#66c2a5" stroke="#66c2a5" stroke-width="1.2" points="772.25,-174.63 766.68,-183.65 776.66,-180.07 772.25,-174.63"/>
</g>
<!-- condition -->
<g id="node18" class="node">
<title>condition</title>
<g id="a_node18"><a xlink:href="condition.svg" xlink:title="65">
<text text-anchor="middle" x="103.5" y="-592.9" font-family="Times new roman" font-size="32.00">condition</text>
</a>
</g>
</g>
<!-- group composition&#45;&gt;condition -->
<g id="edge20" class="edge">
<title>group composition&#45;&gt;condition</title>
<path fill="none" stroke="black" stroke-width="13" d="M242.75,-601C220.06,-601 197.98,-601 178.36,-601"/>
<polygon fill="black" stroke="black" stroke-width="13" points="178.34,-589.63 168.34,-601 178.34,-612.38 178.34,-589.63"/>
</g>
<!-- Speech Features -->
<g id="node19" class="node">
<title>Speech Features</title>
<g id="a_node19"><a xlink:href="Speech_Features.svg" xlink:title="41">
<text text-anchor="middle" x="1022.5" y="-219.1" font-family="Times new roman" font-size="28.00">Speech Features</text>
</a>
</g>
</g>
<!-- Speech Features&#45;&gt;Verbal -->
<g id="edge23" class="edge">
<title>Speech Features&#45;&gt;Verbal</title>
<path fill="none" stroke="#8da0cb" stroke-width="8.2" d="M932.39,-241.52C915.01,-244.61 896.93,-247.87 880,-251 871.59,-252.56 862.89,-254.19 854.14,-255.84"/>
<polygon fill="#8da0cb" stroke="#8da0cb" stroke-width="8.2" points="852.75,-248.8 844.26,-257.72 855.43,-262.9 852.75,-248.8"/>
</g>
<!-- Facial Expressions -->
<g id="node20" class="node">
<title>Facial Expressions</title>
<g id="a_node20"><a xlink:href="Facial_Expressions.svg" xlink:title="17">
<text text-anchor="middle" x="1022.5" y="-360.1" font-family="Times new roman" font-size="23.00">Facial Expressions</text>
</a>
</g>
</g>
<!-- Head -->
<g id="node21" class="node">
<title>Head</title>
<g id="a_node21"><a xlink:href="Head.svg" xlink:title="46">
<text text-anchor="middle" x="744.5" y="-343.8" font-family="Times new roman" font-size="29.00">Head</text>
</a>
</g>
</g>
<!-- Facial Expressions&#45;&gt;Head -->
<g id="edge24" class="edge">
<title>Facial Expressions&#45;&gt;Head</title>
<path fill="none" stroke="#ffd92f" stroke-width="3.4" d="M925.74,-360.8C879.83,-358.3 827.01,-355.43 790.48,-353.44"/>
<polygon fill="#ffd92f" stroke="#ffd92f" stroke-width="3.4" points="790.33,-349.93 780.15,-352.88 789.95,-356.92 790.33,-349.93"/>
</g>
<!-- Head&#45;&gt;performance -->
<g id="edge59" class="edge">
<title>Head&#45;&gt;performance</title>
<g id="a_edge59"><a xlink:href="Head -&gt; performance.gv.svg">
<path fill="none" stroke="#ffd92f" stroke-width="0.6" d="M708.82,-351.89C687.8,-354.23 661.87,-360.61 645,-377 604.45,-416.39 650.97,-461.12 609,-499 595.61,-511.08 579.35,-519.51 562.12,-525.29"/>
<polygon fill="#ffd92f" stroke="#ffd92f" stroke-width="0.6" points="561,-521.97 552.45,-528.24 563.04,-528.66 561,-521.97"/>
</a>
</g>
</g>
<!-- Head&#45;&gt;coordination -->
<g id="edge60" class="edge">
<title>Head&#45;&gt;coordination</title>
<g id="a_edge60"><a xlink:href="Head -&gt; coordination.gv.svg">
<path fill="none" stroke="#ffd92f" stroke-width="0.4" d="M708.73,-358.6C681.62,-364.44 642.98,-372.57 609,-379 588.97,-382.79 567.66,-386.61 546.95,-390.21"/>
<polygon fill="#ffd92f" stroke="#ffd92f" stroke-width="0.4" points="546.09,-386.81 536.83,-391.96 547.28,-393.7 546.09,-386.81"/>
</a>
</g>
</g>
<!-- Head&#45;&gt;cognitive engagement -->
<g id="edge29" class="edge">
<title>Head&#45;&gt;cognitive engagement</title>
<g id="a_edge29"><a xlink:href="Head -&gt; cognitive engagement.gv.svg">
<path fill="none" stroke="#ffd92f" stroke-width="0.2" d="M708.73,-349.05C688.2,-346.27 662.82,-339.81 645,-325 616.25,-301.12 639.27,-270.93 609,-249 594.77,-238.69 578.22,-231.76 561.01,-227.22"/>
<polygon fill="#ffd92f" stroke="#ffd92f" stroke-width="0.2" points="561.35,-223.7 550.82,-224.82 559.75,-230.52 561.35,-223.7"/>
</a>
</g>
</g>
<!-- Head&#45;&gt;affective -->
<g id="edge33" class="edge">
<title>Head&#45;&gt;affective</title>
<g id="a_edge33"><a xlink:href="Head -&gt; affective.gv.svg">
<path fill="none" stroke="#ffd92f" stroke-width="0.2" d="M708.82,-350.11C687.8,-347.77 661.87,-341.39 645,-325 604.45,-285.61 652.16,-239.51 609,-203 573.34,-172.84 518.77,-170.03 478.68,-173.12"/>
<polygon fill="#ffd92f" stroke="#ffd92f" stroke-width="0.2" points="478.2,-169.65 468.56,-174.05 478.84,-176.62 478.2,-169.65"/>
</a>
</g>
</g>
<!-- Head&#45;&gt;learning -->
<g id="edge37" class="edge">
<title>Head&#45;&gt;learning</title>
<g id="a_edge37"><a xlink:href="Head -&gt; learning.gv.svg">
<path fill="none" stroke="#ffd92f" stroke-width="0.2" d="M708.59,-353.43C688.26,-356.39 663.14,-362.88 645,-377 618.94,-397.29 636.09,-423.11 609,-442 577.25,-464.13 534.84,-471.59 498.94,-473.31"/>
<polygon fill="#ffd92f" stroke="#ffd92f" stroke-width="0.2" points="498.39,-469.83 488.52,-473.66 498.63,-476.82 498.39,-469.83"/>
</a>
</g>
</g>
<!-- Head&#45;&gt;interpersonal -->
<g id="edge25" class="edge">
<title>Head&#45;&gt;interpersonal</title>
<g id="a_edge25"><a xlink:href="Head -&gt; interpersonal.gv.svg">
<path fill="none" stroke="#ffd92f" stroke-width="2" d="M708.72,-349.9C678.8,-348.96 633.35,-347.52 587.63,-346.08"/>
<polygon fill="#ffd92f" stroke="#ffd92f" stroke-width="2" points="587.67,-342.57 577.57,-345.76 587.45,-349.57 587.67,-342.57"/>
</a>
</g>
</g>
<!-- Head&#45;&gt;group composition -->
<g id="edge49" class="edge">
<title>Head&#45;&gt;group composition</title>
<g id="a_edge49"><a xlink:href="Head -&gt; group composition.gv.svg">
<path fill="none" stroke="#ffd92f" stroke-width="0.6" d="M708.72,-351.27C687.38,-353.35 661.15,-359.66 645,-377 586.42,-439.89 669.85,-506.3 609,-567 608.2,-567.79 607.39,-568.57 606.57,-569.34"/>
<polygon fill="#ffd92f" stroke="#ffd92f" stroke-width="0.6" points="604.28,-566.69 598.88,-575.81 608.79,-572.05 604.28,-566.69"/>
</a>
</g>
</g>
<!-- Head&#45;&gt;communication -->
<g id="edge57" class="edge">
<title>Head&#45;&gt;communication</title>
<g id="a_edge57"><a xlink:href="Head -&gt; communication.gv.svg">
<path fill="none" stroke="#ffd92f" stroke-width="0.2" d="M708.56,-344.2C689.38,-339.87 665.42,-333.47 645,-325 627.89,-317.91 626.46,-310.18 609,-304 589.36,-297.04 567.92,-291.82 546.88,-287.88"/>
<polygon fill="#ffd92f" stroke="#ffd92f" stroke-width="0.2" points="547.37,-284.42 536.91,-286.11 546.15,-291.31 547.37,-284.42"/>
</a>
</g>
</g>
<!-- Speech Content -->
<g id="node22" class="node">
<title>Speech Content</title>
<g id="a_node22"><a xlink:href="Speech_Content.svg" xlink:title="24">
<text text-anchor="middle" x="1022.5" y="-172.8" font-family="Times new roman" font-size="24.00">Speech Content</text>
</a>
</g>
</g>
<!-- Speech Content&#45;&gt;Verbal -->
<g id="edge26" class="edge">
<title>Speech Content&#45;&gt;Verbal</title>
<path fill="none" stroke="#8da0cb" stroke-width="4.8" d="M935.36,-185.29C916.61,-188.59 897.23,-193.56 880,-201 861.39,-209.04 861.2,-218.28 844,-229 841.58,-230.51 839.1,-232.01 836.59,-233.49"/>
<polygon fill="#8da0cb" stroke="#8da0cb" stroke-width="4.8" points="834.49,-229.85 827.9,-238.46 838.67,-237.14 834.49,-229.85"/>
</g>
<!-- Hand Motion -->
<g id="node23" class="node">
<title>Hand Motion</title>
<g id="a_node23"><a xlink:href="Hand_Motion.svg" xlink:title="15">
<text text-anchor="middle" x="1022.5" y="-491.4" font-family="Times new roman" font-size="22.00">Hand Motion</text>
</a>
</g>
</g>
<!-- Body -->
<g id="node24" class="node">
<title>Body</title>
<g id="a_node24"><a xlink:href="Body.svg" xlink:title="112">
<text text-anchor="middle" x="744.5" y="-398.4" font-family="Times new roman" font-size="42.00">Body</text>
</a>
</g>
</g>
<!-- Hand Motion&#45;&gt;Body -->
<g id="edge30" class="edge">
<title>Hand Motion&#45;&gt;Body</title>
<path fill="none" stroke="#fc8d62" stroke-width="3" d="M960.25,-495.98C934.42,-493.54 904.69,-487.99 880,-476 860.2,-466.39 862.88,-453.32 844,-442 831.31,-434.39 816.63,-428.27 802.54,-423.46"/>
<polygon fill="#fc8d62" stroke="#fc8d62" stroke-width="3" points="803.51,-420.1 792.92,-420.34 801.35,-426.76 803.51,-420.1"/>
</g>
<!-- Body&#45;&gt;performance -->
<g id="edge44" class="edge">
<title>Body&#45;&gt;performance</title>
<g id="a_edge44"><a xlink:href="Body -&gt; performance.gv.svg">
<path fill="none" stroke="#fc8d62" stroke-width="2.8" d="M696.42,-417.77C678.96,-422.73 659.83,-430.37 645,-442 621.43,-460.5 633.8,-482.18 609,-499 594.88,-508.58 578.79,-515.65 562.16,-520.83"/>
<polygon fill="#fc8d62" stroke="#fc8d62" stroke-width="2.8" points="560.95,-517.54 552.31,-523.68 562.89,-524.27 560.95,-517.54"/>
</a>
</g>
</g>
<!-- Body&#45;&gt;coordination -->
<g id="edge54" class="edge">
<title>Body&#45;&gt;coordination</title>
<g id="a_edge54"><a xlink:href="Body -&gt; coordination.gv.svg">
<path fill="none" stroke="#fc8d62" stroke-width="1.4" d="M696.46,-409.15C656.99,-409.27 598.85,-409.46 546.67,-409.62"/>
<polygon fill="#fc8d62" stroke="#fc8d62" stroke-width="1.4" points="546.65,-406.12 536.66,-409.65 546.67,-413.12 546.65,-406.12"/>
</a>
</g>
</g>
<!-- Body&#45;&gt;cognitive engagement -->
<g id="edge31" class="edge">
<title>Body&#45;&gt;cognitive engagement</title>
<g id="a_edge31"><a xlink:href="Body -&gt; cognitive engagement.gv.svg">
<path fill="none" stroke="#fc8d62" stroke-width="0.8" d="M696.28,-402.8C678.08,-398.17 658.44,-390.09 645,-376 604.5,-333.55 653.49,-287.25 609,-249 595.14,-237.09 578.36,-229.36 560.65,-224.54"/>
<polygon fill="#fc8d62" stroke="#fc8d62" stroke-width="0.8" points="561.27,-221.09 550.73,-222.15 559.63,-227.89 561.27,-221.09"/>
</a>
</g>
</g>
<!-- Body&#45;&gt;affective -->
<g id="edge34" class="edge">
<title>Body&#45;&gt;affective</title>
<g id="a_edge34"><a xlink:href="Body -&gt; affective.gv.svg">
<path fill="none" stroke="#fc8d62" stroke-width="0.8" d="M696.28,-403.39C677.85,-398.86 658.06,-390.7 645,-376 592.84,-317.29 666.84,-256.13 609,-203 574.43,-171.24 519.27,-168.78 478.73,-172.39"/>
<polygon fill="#fc8d62" stroke="#fc8d62" stroke-width="0.8" points="478.35,-168.91 468.76,-173.43 479.07,-175.88 478.35,-168.91"/>
</a>
</g>
</g>
<!-- Body&#45;&gt;learning -->
<g id="edge38" class="edge">
<title>Body&#45;&gt;learning</title>
<g id="a_edge38"><a xlink:href="Body -&gt; learning.gv.svg">
<path fill="none" stroke="#fc8d62" stroke-width="1.4" d="M696.42,-421.63C670.71,-428.25 638.24,-436.18 609,-442 572.91,-449.19 532.49,-455.57 498.92,-460.42"/>
<polygon fill="#fc8d62" stroke="#fc8d62" stroke-width="1.4" points="498.14,-457 488.73,-461.88 499.13,-463.93 498.14,-457"/>
</a>
</g>
</g>
<!-- Body&#45;&gt;interpersonal -->
<g id="edge61" class="edge">
<title>Body&#45;&gt;interpersonal</title>
<g id="a_edge61"><a xlink:href="Body -&gt; interpersonal.gv.svg">
<path fill="none" stroke="#fc8d62" stroke-width="1.2" d="M696.23,-398.29C670.46,-392.5 638,-385.26 609,-379 597.78,-376.58 586.17,-374.1 574.5,-371.62"/>
<polygon fill="#fc8d62" stroke="#fc8d62" stroke-width="1.2" points="575.18,-368.19 564.68,-369.54 573.73,-375.03 575.18,-368.19"/>
</a>
</g>
</g>
<!-- Body&#45;&gt;group composition -->
<g id="edge47" class="edge">
<title>Body&#45;&gt;group composition</title>
<g id="a_edge47"><a xlink:href="Body -&gt; group composition.gv.svg">
<path fill="none" stroke="#fc8d62" stroke-width="2" d="M696.31,-415.23C678.11,-419.86 658.47,-427.94 645,-442 605,-483.75 651.79,-528.12 609,-567 608,-567.91 606.98,-568.8 605.94,-569.67"/>
<polygon fill="#fc8d62" stroke="#fc8d62" stroke-width="2" points="603.54,-567.11 597.71,-575.96 607.78,-572.67 603.54,-567.11"/>
</a>
</g>
</g>
<!-- Body&#45;&gt;communication -->
<g id="edge68" class="edge">
<title>Body&#45;&gt;communication</title>
<g id="a_edge68"><a xlink:href="Body -&gt; communication.gv.svg">
<path fill="none" stroke="#fc8d62" stroke-width="0.6" d="M696.29,-401.13C678.62,-396.28 659.36,-388.48 645,-376 617.99,-352.54 637.91,-325.07 609,-304 590.77,-290.71 568.77,-282.62 546.45,-277.87"/>
<polygon fill="#fc8d62" stroke="#fc8d62" stroke-width="0.6" points="547.01,-274.42 536.53,-275.98 545.7,-281.29 547.01,-274.42"/>
</a>
</g>
</g>
<!-- Task&#45;related -->
<g id="node25" class="node">
<title>Task&#45;related</title>
<g id="a_node25"><a xlink:href="Task-related.svg" xlink:title="30">
<text text-anchor="middle" x="1022.5" y="-621" font-family="Times new roman" font-size="25.00">Task&#45;related</text>
</a>
</g>
</g>
<!-- Log Data -->
<g id="node26" class="node">
<title>Log Data</title>
<g id="a_node26"><a xlink:href="Log_Data.svg" xlink:title="116">
<text text-anchor="middle" x="744.5" y="-463.1" font-family="Times new roman" font-size="43.00">Log Data</text>
</a>
</g>
</g>
<!-- Task&#45;related&#45;&gt;Log Data -->
<g id="edge39" class="edge">
<title>Task&#45;related&#45;&gt;Log Data</title>
<path fill="none" stroke="#e78ac3" stroke-width="6" d="M952.95,-629.76C927.61,-627.45 900.18,-620.6 880,-604 844.48,-574.79 877.03,-538.99 844,-507 842.75,-505.79 841.46,-504.63 840.13,-503.51"/>
<polygon fill="#e78ac3" stroke="#e78ac3" stroke-width="6" points="843.25,-499.29 832.09,-497.54 836.99,-507.72 843.25,-499.29"/>
</g>
<!-- Log Data&#45;&gt;performance -->
<g id="edge40" class="edge">
<title>Log Data&#45;&gt;performance</title>
<g id="a_edge40"><a xlink:href="Log Data -&gt; performance.gv.svg">
<path fill="none" stroke="#e78ac3" stroke-width="3" d="M656.6,-490.2C627.41,-495.64 594.12,-501.85 562.13,-507.81"/>
<polygon fill="#e78ac3" stroke="#e78ac3" stroke-width="3" points="561.43,-504.38 552.25,-509.65 562.72,-511.26 561.43,-504.38"/>
</a>
</g>
</g>
<!-- Log Data&#45;&gt;coordination -->
<g id="edge52" class="edge">
<title>Log Data&#45;&gt;coordination</title>
<g id="a_edge52"><a xlink:href="Log Data -&gt; coordination.gv.svg">
<path fill="none" stroke="#e78ac3" stroke-width="1.6" d="M656.85,-452.58C640.97,-448.89 624.51,-445.21 609,-442 589.02,-437.87 567.74,-433.82 547.03,-430.06"/>
<polygon fill="#e78ac3" stroke="#e78ac3" stroke-width="1.6" points="547.38,-426.57 536.92,-428.24 546.14,-433.46 547.38,-426.57"/>
</a>
</g>
</g>
<!-- Log Data&#45;&gt;cognitive engagement -->
<g id="edge70" class="edge">
<title>Log Data&#45;&gt;cognitive engagement</title>
<g id="a_edge70"><a xlink:href="Log Data -&gt; cognitive engagement.gv.svg">
<path fill="none" stroke="#e78ac3" stroke-width="0.2" d="M656.61,-451.48C652.36,-448.42 648.43,-444.94 645,-441 587.98,-375.52 672.19,-308.53 609,-249 595.5,-236.29 578.73,-228.16 560.88,-223.21"/>
<polygon fill="#e78ac3" stroke="#e78ac3" stroke-width="0.2" points="561.4,-219.73 550.86,-220.77 559.75,-226.53 561.4,-219.73"/>
</a>
</g>
</g>
<!-- Log Data&#45;&gt;learning -->
<g id="edge42" class="edge">
<title>Log Data&#45;&gt;learning</title>
<g id="a_edge42"><a xlink:href="Log Data -&gt; learning.gv.svg">
<path fill="none" stroke="#e78ac3" stroke-width="1.6" d="M656.6,-472.9C606.98,-472.27 545.54,-471.5 498.7,-470.91"/>
<polygon fill="#e78ac3" stroke="#e78ac3" stroke-width="1.6" points="498.68,-467.41 488.64,-470.78 498.59,-474.41 498.68,-467.41"/>
</a>
</g>
</g>
<!-- Log Data&#45;&gt;interpersonal -->
<g id="edge63" class="edge">
<title>Log Data&#45;&gt;interpersonal</title>
<g id="a_edge63"><a xlink:href="Log Data -&gt; interpersonal.gv.svg">
<path fill="none" stroke="#e78ac3" stroke-width="1.8" d="M658.55,-450.25C653.76,-447.49 649.19,-444.42 645,-441 620.3,-420.87 634.84,-397.65 609,-379 602.13,-374.04 594.76,-369.7 587.07,-365.91"/>
<polygon fill="#e78ac3" stroke="#e78ac3" stroke-width="1.8" points="588.44,-362.68 577.89,-361.69 585.52,-369.05 588.44,-362.68"/>
</a>
</g>
</g>
<!-- Log Data&#45;&gt;group composition -->
<g id="edge46" class="edge">
<title>Log Data&#45;&gt;group composition</title>
<g id="a_edge46"><a xlink:href="Log Data -&gt; group composition.gv.svg">
<path fill="none" stroke="#e78ac3" stroke-width="1.8" d="M659.08,-497.55C654.11,-500.36 649.36,-503.5 645,-507 620.76,-526.48 634.53,-549.25 609,-567 607.12,-568.3 605.21,-569.56 603.27,-570.78"/>
<polygon fill="#e78ac3" stroke="#e78ac3" stroke-width="1.8" points="601.45,-567.78 594.54,-575.82 604.95,-573.85 601.45,-567.78"/>
</a>
</g>
</g>
<!-- Log Data&#45;&gt;communication -->
<g id="edge66" class="edge">
<title>Log Data&#45;&gt;communication</title>
<g id="a_edge66"><a xlink:href="Log Data -&gt; communication.gv.svg">
<path fill="none" stroke="#e78ac3" stroke-width="1.6" d="M656.94,-451.18C652.6,-448.2 648.57,-444.82 645,-441 601.98,-395.03 655.78,-346.14 609,-304 591.65,-288.37 569.37,-279.38 546.4,-274.51"/>
<polygon fill="#e78ac3" stroke="#e78ac3" stroke-width="1.6" points="547,-271.06 536.53,-272.67 545.72,-277.94 547,-271.06"/>
</a>
</g>
</g>
<!-- Text -->
<g id="node27" class="node">
<title>Text</title>
<g id="a_node27"><a xlink:href="Text.svg" xlink:title="17">
<text text-anchor="middle" x="1022.5" y="-576.1" font-family="Times new roman" font-size="23.00">Text</text>
</a>
</g>
</g>
<!-- Text&#45;&gt;Log Data -->
<g id="edge41" class="edge">
<title>Text&#45;&gt;Log Data</title>
<path fill="none" stroke="#e78ac3" stroke-width="3.4" d="M1000.51,-583.71C971.2,-585.06 917.39,-583.66 880,-560 855.94,-544.77 866.69,-524.2 844,-507 842.13,-505.58 840.2,-504.23 838.21,-502.92"/>
<polygon fill="#e78ac3" stroke="#e78ac3" stroke-width="3.4" points="839.59,-499.67 829.2,-497.57 836.02,-505.69 839.59,-499.67"/>
</g>
<!-- Gross Body Motion -->
<g id="node28" class="node">
<title>Gross Body Motion</title>
<g id="a_node28"><a xlink:href="Gross_Body_Motion.svg" xlink:title="28">
<text text-anchor="middle" x="1022.5" y="-447" font-family="Times new roman" font-size="25.00">Gross Body Motion</text>
</a>
</g>
</g>
<!-- Gross Body Motion&#45;&gt;Body -->
<g id="edge43" class="edge">
<title>Gross Body Motion&#45;&gt;Body</title>
<path fill="none" stroke="#fc8d62" stroke-width="5.6" d="M933.41,-438.96C890.73,-432.15 840.68,-424.17 802.97,-418.16"/>
<polygon fill="#fc8d62" stroke="#fc8d62" stroke-width="5.6" points="803.33,-413.26 792.68,-416.52 801.79,-422.93 803.33,-413.26"/>
</g>
<!-- Location -->
<g id="node29" class="node">
<title>Location</title>
<g id="a_node29"><a xlink:href="Location.svg" xlink:title="13">
<text text-anchor="middle" x="1022.5" y="-403.4" font-family="Times new roman" font-size="22.00">Location</text>
</a>
</g>
</g>
<!-- Location&#45;&gt;Body -->
<g id="edge45" class="edge">
<title>Location&#45;&gt;Body</title>
<path fill="none" stroke="#fc8d62" stroke-width="2.6" d="M980.78,-409C933.82,-409 856.3,-409 803.16,-409"/>
<polygon fill="#fc8d62" stroke="#fc8d62" stroke-width="2.6" points="802.88,-405.5 792.88,-409 802.88,-412.5 802.88,-405.5"/>
</g>
<!-- Head Motion -->
<g id="node30" class="node">
<title>Head Motion</title>
<g id="a_node30"><a xlink:href="Head_Motion.svg" xlink:title="6">
<text text-anchor="middle" x="1022.5" y="-318.7" font-family="Times new roman" font-size="21.00">Head Motion</text>
</a>
</g>
</g>
<!-- Head Motion&#45;&gt;Head -->
<g id="edge48" class="edge">
<title>Head Motion&#45;&gt;Head</title>
<path fill="none" stroke="#ffd92f" stroke-width="1.2" d="M961.95,-329.83C910.39,-334.87 836.94,-342.05 790.25,-346.62"/>
<polygon fill="#ffd92f" stroke="#ffd92f" stroke-width="1.2" points="789.75,-343.15 780.14,-347.61 790.43,-350.12 789.75,-343.15"/>
</g>
<!-- Touch -->
<g id="node31" class="node">
<title>Touch</title>
<g id="a_node31"><a xlink:href="Touch.svg" xlink:title="11">
<text text-anchor="middle" x="1022.5" y="-533.4" font-family="Times new roman" font-size="22.00">Touch</text>
</a>
</g>
</g>
<!-- Touch&#45;&gt;Log Data -->
<g id="edge51" class="edge">
<title>Touch&#45;&gt;Log Data</title>
<path fill="none" stroke="#e78ac3" stroke-width="2.2" d="M992.77,-536.18C963.99,-533.01 918.55,-527.1 880,-518 873.85,-516.55 850.93,-509.16 825.71,-500.84"/>
<polygon fill="#e78ac3" stroke="#e78ac3" stroke-width="2.2" points="826.55,-497.43 815.96,-497.62 824.35,-504.08 826.55,-497.43"/>
</g>
<!-- Heart -->
<g id="node32" class="node">
<title>Heart</title>
<g id="a_node32"><a xlink:href="Heart.svg" xlink:title="1">
<text text-anchor="middle" x="1022.5" y="-46" font-family="Times new roman" font-size="20.00">Heart</text>
</a>
</g>
</g>
<!-- Heart&#45;&gt;Physiological -->
<g id="edge56" class="edge">
<title>Heart&#45;&gt;Physiological</title>
<path fill="none" stroke="#66c2a5" stroke-width="0.2" d="M997.91,-49.97C968.72,-49.65 918.2,-52.25 880,-71 830.25,-95.42 787.26,-145.18 763.99,-175.86"/>
<polygon fill="#66c2a5" stroke="#66c2a5" stroke-width="0.2" points="761.12,-173.85 757.96,-183.96 766.74,-178.03 761.12,-173.85"/>
</g>
<!-- communication&#45;&gt;process -->
<g id="edge58" class="edge">
<title>communication&#45;&gt;process</title>
<path fill="none" stroke="black" stroke-width="7" d="M315.42,-290.89C291.47,-294.69 266.31,-299.11 243,-304 234.51,-305.78 225.75,-307.77 216.98,-309.86"/>
<polygon fill="black" stroke="black" stroke-width="7" points="215.33,-303.96 207.06,-312.27 218.23,-315.86 215.33,-303.96"/>
</g>
<!-- Brain -->
<g id="node34" class="node">
<title>Brain</title>
<g id="a_node34"><a xlink:href="Brain.svg" xlink:title="2">
<text text-anchor="middle" x="1022.5" y="-6" font-family="Times new roman" font-size="20.00">Brain</text>
</a>
</g>
</g>
<!-- Brain&#45;&gt;Physiological -->
<g id="edge67" class="edge">
<title>Brain&#45;&gt;Physiological</title>
<path fill="none" stroke="#66c2a5" stroke-width="0.4" d="M998.25,-9.19C968.74,-7.98 917.2,-9.59 880,-31 821.16,-64.88 778.63,-135.5 758.52,-174.55"/>
<polygon fill="#66c2a5" stroke="#66c2a5" stroke-width="0.4" points="755.26,-173.25 753.9,-183.76 761.51,-176.39 755.26,-173.25"/>
</g>
</g>
</svg>
