<?xml version="1.0" encoding="UTF-8" standalone="no"?>
<!DOCTYPE svg PUBLIC "-//W3C//DTD SVG 1.1//EN"
 "http://www.w3.org/Graphics/SVG/1.1/DTD/svg11.dtd">
<!-- Generated by graphviz version 2.47.0 (20210316.0004)
 -->
<!-- Title: world Pages: 1 -->
<svg width="720pt" height="464pt"
 viewBox="0.00 0.00 720.00 463.75" xmlns="http://www.w3.org/2000/svg" xmlns:xlink="http://www.w3.org/1999/xlink">
<g id="graph0" class="graph" transform="scale(0.42 0.42) rotate(0) translate(4 1110.03)">
<title>world</title>
<polygon fill="white" stroke="transparent" points="-4,4 -4,-1110.03 1725.62,-1110.03 1725.62,4 -4,4"/>
<!-- Visual Attention -->
<g id="node1" class="node">
<title>Visual Attention</title>
<g id="a_node1"><a xlink:href="Visual_Attention.svg" xlink:title="77">
<ellipse fill="#33a02c" stroke="#33a02c" cx="1511.61" cy="-1074.21" rx="175.23" ry="31.64"/>
<text text-anchor="middle" x="1511.61" y="-1065.51" font-family="Arial" font-size="34.00">Visual attention</text>
</a>
</g>
</g>
<!-- Gaze -->
<g id="node2" class="node">
<title>Gaze</title>
<g id="a_node2"><a xlink:href="Gaze.svg" xlink:title="160">
<ellipse fill="#33a02c" stroke="#33a02c" cx="1113.57" cy="-811.21" rx="96.33" ry="44.6"/>
<text text-anchor="middle" x="1113.57" y="-798.71" font-family="Arial" font-size="50.00">Gaze</text>
</a>
</g>
</g>
<!-- Visual Attention&#45;&gt;Gaze -->
<g id="edge1" class="edge">
<title>Visual Attention&#45;&gt;Gaze</title>
<g id="a_edge1"><a xlink:title="77">
<path fill="none" stroke="#33a02c" stroke-width="15.4" d="M1360.99,-1057.79C1340.19,-1051.87 1319.76,-1043.91 1301.6,-1033.21 1231.6,-992 1175.61,-914.68 1143.73,-863.06"/>
<polygon fill="#33a02c" stroke="#33a02c" stroke-width="15.4" points="1155.15,-855.91 1138.44,-854.37 1132.13,-869.92 1155.15,-855.91"/>
</a>
</g>
</g>
<!-- performance -->
<g id="node3" class="node">
<title>performance</title>
<g id="a_node3"><a xlink:href="performance.svg" xlink:title="132">
<ellipse fill="lightgrey" stroke="black" cx="648.35" cy="-792.21" rx="190.84" ry="39.7"/>
<text text-anchor="middle" x="648.35" y="-781.01" font-family="Arial" font-size="44.00">Performance</text>
</a>
</g>
</g>
<!-- Gaze&#45;&gt;performance -->
<g id="edge2" class="edge">
<title>Gaze&#45;&gt;performance</title>
<g id="a_edge2"><a xlink:href="Gaze -&gt; performance.gv.svg" xlink:title="14">
<path fill="none" stroke="#33a02c" stroke-width="2.8" d="M1017.71,-807.32C968.17,-805.29 905.62,-802.72 846.2,-800.29"/>
<polygon fill="#33a02c" stroke="#33a02c" stroke-width="2.8" points="846.06,-796.78 835.92,-799.87 845.77,-803.77 846.06,-796.78"/>
</a>
</g>
</g>
<!-- coordination -->
<g id="node5" class="node">
<title>coordination</title>
<g id="a_node5"><a xlink:href="coordination.svg" xlink:title="120">
<ellipse fill="lightgrey" stroke="black" cx="648.35" cy="-615.21" rx="179.71" ry="38.37"/>
<text text-anchor="middle" x="648.35" y="-604.61" font-family="Arial" font-size="42.00">Coordination</text>
</a>
</g>
</g>
<!-- Gaze&#45;&gt;coordination -->
<g id="edge4" class="edge">
<title>Gaze&#45;&gt;coordination</title>
<g id="a_edge4"><a xlink:href="Gaze -&gt; coordination.gv.svg" xlink:title="16">
<path fill="none" stroke="#33a02c" stroke-width="3.2" d="M1024.62,-793.87C1001.81,-785.85 978.83,-774.18 961.54,-757.21 929.31,-725.59 960.4,-690.9 925.54,-662.21 900.35,-641.49 869.41,-628.39 837.45,-620.36"/>
<polygon fill="#33a02c" stroke="#33a02c" stroke-width="3.2" points="838.04,-616.9 827.51,-618.02 836.44,-623.72 838.04,-616.9"/>
</a>
</g>
</g>
<!-- learning -->
<g id="node12" class="node">
<title>learning</title>
<g id="a_node12"><a xlink:href="learning.svg" xlink:title="80">
<ellipse fill="lightgrey" stroke="black" cx="648.35" cy="-703.21" rx="104.8" ry="31.64"/>
<text text-anchor="middle" x="648.35" y="-694.51" font-family="Arial" font-size="34.00">Learning</text>
</a>
</g>
</g>
<!-- Gaze&#45;&gt;learning -->
<g id="edge27" class="edge">
<title>Gaze&#45;&gt;learning</title>
<g id="a_edge27"><a xlink:href="Gaze -&gt; learning.gv.svg" xlink:title="13">
<path fill="none" stroke="#33a02c" stroke-width="2.6" d="M1036.36,-784.43C1012.37,-775.87 985.8,-766.27 961.54,-757.21 945.46,-751.21 942.14,-747.58 925.54,-743.21 871.51,-728.99 810.12,-719.47 758.96,-713.29"/>
<polygon fill="#33a02c" stroke="#33a02c" stroke-width="2.6" points="759.21,-709.8 748.87,-712.1 758.39,-716.75 759.21,-709.8"/>
</a>
</g>
</g>
<!-- interpersonal -->
<g id="node15" class="node">
<title>interpersonal</title>
<g id="a_node15"><a xlink:href="interpersonal.svg" xlink:title="182">
<ellipse fill="lightgrey" stroke="black" cx="648.35" cy="-511.21" rx="234.52" ry="47.25"/>
<text text-anchor="middle" x="648.35" y="-497.51" font-family="Arial" font-size="54.00">Interpersonal</text>
</a>
</g>
</g>
<!-- Gaze&#45;&gt;interpersonal -->
<g id="edge17" class="edge">
<title>Gaze&#45;&gt;interpersonal</title>
<g id="a_edge17"><a xlink:href="Gaze -&gt; interpersonal.gv.svg" xlink:title="16">
<path fill="none" stroke="#33a02c" stroke-width="3.2" d="M1023,-795.89C1000.04,-787.89 977.38,-775.73 961.54,-757.21 905.94,-692.24 985.54,-629.14 925.54,-568.21 911.07,-553.52 893.89,-542.13 875.29,-533.33"/>
<polygon fill="#33a02c" stroke="#33a02c" stroke-width="3.2" points="876.6,-530.09 866.04,-529.22 873.76,-536.48 876.6,-530.09"/>
</a>
</g>
</g>
<!-- group composition -->
<g id="node17" class="node">
<title>group composition</title>
<g id="a_node17"><a xlink:href="group_composition.svg" xlink:title="138">
<ellipse fill="lightgrey" stroke="black" cx="648.35" cy="-891.21" rx="277.37" ry="41.02"/>
<text text-anchor="middle" x="648.35" y="-880.21" font-family="Arial" font-size="45.00">Group composition</text>
</a>
</g>
</g>
<!-- Gaze&#45;&gt;group composition -->
<g id="edge21" class="edge">
<title>Gaze&#45;&gt;group composition</title>
<g id="a_edge21"><a xlink:href="Gaze -&gt; group composition.gv.svg" xlink:title="10">
<path fill="none" stroke="#33a02c" stroke-width="2" d="M1023.26,-826.64C971.1,-835.65 903.23,-847.37 839.65,-858.35"/>
<polygon fill="#33a02c" stroke="#33a02c" stroke-width="2" points="838.74,-854.95 829.48,-860.1 839.93,-861.85 838.74,-854.95"/>
</a>
</g>
</g>
<!-- communication -->
<g id="node33" class="node">
<title>communication</title>
<g id="a_node33"><a xlink:href="communication.svg" xlink:title="80">
<ellipse fill="lightgrey" stroke="black" cx="648.35" cy="-414.21" rx="178.8" ry="31.64"/>
<text text-anchor="middle" x="648.35" y="-405.51" font-family="Arial" font-size="34.00">Communication</text>
</a>
</g>
</g>
<!-- Gaze&#45;&gt;communication -->
<g id="edge69" class="edge">
<title>Gaze&#45;&gt;communication</title>
<g id="a_edge69"><a xlink:href="Gaze -&gt; communication.gv.svg" xlink:title="9">
<path fill="none" stroke="#33a02c" stroke-width="1.8" d="M1022.54,-796.72C999.43,-788.74 976.82,-776.37 961.54,-757.21 877.28,-651.52 1019.74,-552.16 925.54,-455.21 900.45,-429.39 866.68,-415.1 831.36,-407.83"/>
<polygon fill="#33a02c" stroke="#33a02c" stroke-width="1.8" points="831.84,-404.36 821.37,-405.96 830.56,-411.24 831.84,-404.36"/>
</a>
</g>
</g>
<!-- product -->
<g id="node4" class="node">
<title>product</title>
<g id="a_node4"><a xlink:href="product.svg" xlink:title="100">
<ellipse fill="lightgrey" stroke="black" cx="167.58" cy="-747.21" rx="103.89" ry="35.21"/>
<text text-anchor="middle" x="167.58" y="-737.81" font-family="Arial" font-size="38.00">Product</text>
</a>
</g>
</g>
<!-- performance&#45;&gt;product -->
<g id="edge3" class="edge">
<title>performance&#45;&gt;product</title>
<g id="a_edge3"><a xlink:title="63">
<path fill="none" stroke="black" stroke-width="12.6" d="M474.17,-775.94C408.75,-769.79 336.18,-762.97 278.18,-757.51"/>
<polygon fill="black" stroke="black" stroke-width="12.6" points="278.88,-746.51 267.9,-756.55 276.82,-768.46 278.88,-746.51"/>
</a>
</g>
</g>
<!-- process -->
<g id="node6" class="node">
<title>process</title>
<g id="a_node6"><a xlink:href="process.svg" xlink:title="220">
<ellipse fill="lightgrey" stroke="black" cx="167.58" cy="-511.21" rx="167.67" ry="53.07"/>
<text text-anchor="middle" x="167.58" y="-495.91" font-family="Arial" font-size="61.00">Process</text>
</a>
</g>
</g>
<!-- performance&#45;&gt;process -->
<g id="edge71" class="edge">
<title>performance&#45;&gt;process</title>
<g id="a_edge71"><a xlink:title="3">
<path fill="none" stroke="black" stroke-width="0.6" d="M467.73,-779.29C434.21,-771.88 400.52,-760.77 371.17,-744.21 370.54,-743.86 279.69,-639.25 219.88,-570.33"/>
<polygon fill="black" stroke="black" stroke-width="0.6" points="222.31,-567.79 213.11,-562.53 217.02,-572.38 222.31,-567.79"/>
</a>
</g>
</g>
<!-- coordination&#45;&gt;process -->
<g id="edge5" class="edge">
<title>coordination&#45;&gt;process</title>
<g id="a_edge5"><a xlink:title="60">
<path fill="none" stroke="black" stroke-width="12" d="M502.77,-592.82C460.21,-585.49 413.67,-576.76 371.17,-567.21 348.35,-562.09 324.26,-556.02 300.96,-549.8"/>
<polygon fill="black" stroke="black" stroke-width="12" points="303.42,-539.59 291.03,-547.13 297.96,-559.87 303.42,-539.59"/>
</a>
</g>
</g>
<!-- Eye Motion -->
<g id="node7" class="node">
<title>Eye Motion</title>
<g id="a_node7"><a xlink:href="Eye_Motion.svg" xlink:title="3">
<ellipse fill="#33a02c" stroke="#33a02c" cx="1511.61" cy="-1003.21" rx="82.05" ry="21.43"/>
<text text-anchor="middle" x="1511.61" y="-998.21" font-family="Arial" font-size="20.00">Eye motion</text>
</a>
</g>
</g>
<!-- Eye Motion&#45;&gt;Gaze -->
<g id="edge6" class="edge">
<title>Eye Motion&#45;&gt;Gaze</title>
<g id="a_edge6"><a xlink:title="3">
<path fill="none" stroke="#33a02c" stroke-width="0.6" d="M1429.45,-1002.22C1389.44,-999.12 1341.36,-991.36 1301.6,-973.21 1244.32,-947.07 1191.32,-897.76 1156.47,-860.38"/>
<polygon fill="#33a02c" stroke="#33a02c" stroke-width="0.6" points="1158.66,-857.59 1149.32,-852.59 1153.51,-862.32 1158.66,-857.59"/>
</a>
</g>
</g>
<!-- EDA -->
<g id="node8" class="node">
<title>EDA</title>
<g id="a_node8"><a xlink:href="EDA.svg" xlink:title="24">
<ellipse fill="#fb9a99" stroke="#fb9a99" cx="1511.61" cy="-204.21" rx="41.94" ry="24.08"/>
<text text-anchor="middle" x="1511.61" y="-198.01" font-family="Arial" font-size="24.00">Eda</text>
</a>
</g>
</g>
<!-- Physiological -->
<g id="node9" class="node">
<title>Physiological</title>
<g id="a_node9"><a xlink:href="Physiological.svg" xlink:title="66">
<ellipse fill="#fb9a99" stroke="#fb9a99" cx="1113.57" cy="-307.21" rx="142.67" ry="30.31"/>
<text text-anchor="middle" x="1113.57" y="-299.11" font-family="Arial" font-size="32.00">Physiological</text>
</a>
</g>
</g>
<!-- EDA&#45;&gt;Physiological -->
<g id="edge7" class="edge">
<title>EDA&#45;&gt;Physiological</title>
<g id="a_edge7"><a xlink:title="24">
<path fill="none" stroke="#fb9a99" stroke-width="4.8" d="M1470.43,-208.12C1427.98,-212.82 1359.33,-222.02 1301.6,-237.21 1262.98,-247.38 1221.26,-262.56 1187.04,-276.2"/>
<polygon fill="#fb9a99" stroke="#fb9a99" stroke-width="4.8" points="1185.3,-272.37 1177.59,-279.99 1188.44,-280.16 1185.3,-272.37"/>
</a>
</g>
</g>
<!-- Physiological&#45;&gt;performance -->
<g id="edge55" class="edge">
<title>Physiological&#45;&gt;performance</title>
<g id="a_edge55"><a xlink:href="Physiological -&gt; performance.gv.svg" xlink:title="2">
<path fill="none" stroke="#fb9a99" stroke-width="0.4" d="M992.48,-323.64C980.72,-329.48 970.03,-337.16 961.54,-347.21 904.39,-414.9 985.57,-679.07 925.54,-744.21 905.02,-766.48 878.16,-780.76 849.26,-789.62"/>
<polygon fill="#fb9a99" stroke="#fb9a99" stroke-width="0.4" points="848.05,-786.32 839.38,-792.42 849.96,-793.06 848.05,-786.32"/>
</a>
</g>
</g>
<!-- Physiological&#45;&gt;coordination -->
<g id="edge53" class="edge">
<title>Physiological&#45;&gt;coordination</title>
<g id="a_edge53"><a xlink:href="Physiological -&gt; coordination.gv.svg" xlink:title="5">
<path fill="none" stroke="#fb9a99" d="M993.91,-323.9C981.75,-329.68 970.56,-337.27 961.54,-347.21 894.95,-420.58 995.25,-496.81 925.54,-567.21 901.78,-591.21 870.6,-605.73 837.78,-614.14"/>
<polygon fill="#fb9a99" stroke="#fb9a99" points="836.93,-610.74 828.01,-616.45 838.55,-617.55 836.93,-610.74"/>
</a>
</g>
</g>
<!-- cognitive engagement -->
<g id="node10" class="node">
<title>cognitive engagement</title>
<g id="a_node10"><a xlink:href="cognitive_engagement.svg" xlink:title="26">
<ellipse fill="lightgrey" stroke="black" cx="648.35" cy="-340.21" rx="183.28" ry="24.08"/>
<text text-anchor="middle" x="648.35" y="-334.01" font-family="Arial" font-size="24.00">Cognitive engagement</text>
</a>
</g>
</g>
<!-- Physiological&#45;&gt;cognitive engagement -->
<g id="edge8" class="edge">
<title>Physiological&#45;&gt;cognitive engagement</title>
<g id="a_edge8"><a xlink:href="Physiological -&gt; cognitive engagement.gv.svg" xlink:title="6">
<path fill="none" stroke="#fb9a99" stroke-width="1.2" d="M977.97,-316.8C928.53,-320.32 871.9,-324.36 819.73,-328.08"/>
<polygon fill="#fb9a99" stroke="#fb9a99" stroke-width="1.2" points="819.43,-324.59 809.7,-328.79 819.92,-331.57 819.43,-324.59"/>
</a>
</g>
</g>
<!-- affective -->
<g id="node11" class="node">
<title>affective</title>
<g id="a_node11"><a xlink:href="affective.svg" xlink:title="20">
<ellipse fill="lightgrey" stroke="black" cx="648.35" cy="-275.21" rx="73.58" ry="23.17"/>
<text text-anchor="middle" x="648.35" y="-269.31" font-family="Arial" font-size="23.00">Affective</text>
</a>
</g>
</g>
<!-- Physiological&#45;&gt;affective -->
<g id="edge10" class="edge">
<title>Physiological&#45;&gt;affective</title>
<g id="a_edge10"><a xlink:href="Physiological -&gt; affective.gv.svg" xlink:title="3">
<path fill="none" stroke="#fb9a99" stroke-width="0.6" d="M977.34,-297.87C897.33,-292.34 798.65,-285.53 730.54,-280.82"/>
<polygon fill="#fb9a99" stroke="#fb9a99" stroke-width="0.6" points="730.52,-277.31 720.3,-280.11 730.03,-284.3 730.52,-277.31"/>
</a>
</g>
</g>
<!-- Physiological&#45;&gt;learning -->
<g id="edge12" class="edge">
<title>Physiological&#45;&gt;learning</title>
<g id="a_edge12"><a xlink:href="Physiological -&gt; learning.gv.svg" xlink:title="5">
<path fill="none" stroke="#fb9a99" d="M993.07,-323.66C981.13,-329.49 970.23,-337.16 961.54,-347.21 869.39,-453.81 1023.49,-560.91 925.54,-662.21 882.3,-706.93 813.01,-717.12 754.65,-716.16"/>
<polygon fill="#fb9a99" stroke="#fb9a99" points="754.73,-712.66 744.64,-715.89 754.54,-719.66 754.73,-712.66"/>
</a>
</g>
</g>
<!-- Physiological&#45;&gt;interpersonal -->
<g id="edge62" class="edge">
<title>Physiological&#45;&gt;interpersonal</title>
<g id="a_edge62"><a xlink:href="Physiological -&gt; interpersonal.gv.svg" xlink:title="6">
<path fill="none" stroke="#fb9a99" stroke-width="1.2" d="M996.53,-324.87C983.68,-330.46 971.62,-337.74 961.54,-347.21 924.66,-381.85 963.43,-421.68 925.54,-455.21 909.89,-469.07 891.76,-479.86 872.43,-488.22"/>
<polygon fill="#fb9a99" stroke="#fb9a99" stroke-width="1.2" points="871.09,-484.99 863.16,-492.02 873.74,-491.47 871.09,-484.99"/>
</a>
</g>
</g>
<!-- Physiological&#45;&gt;communication -->
<g id="edge64" class="edge">
<title>Physiological&#45;&gt;communication</title>
<g id="a_edge64"><a xlink:href="Physiological -&gt; communication.gv.svg" xlink:title="3">
<path fill="none" stroke="#fb9a99" stroke-width="0.6" d="M1011.21,-328.55C994.24,-333.67 977.11,-339.84 961.54,-347.21 943.7,-355.66 943.82,-365.77 925.54,-373.21 894.18,-385.98 859.36,-394.83 825.32,-400.95"/>
<polygon fill="#fb9a99" stroke="#fb9a99" stroke-width="0.6" points="824.53,-397.53 815.27,-402.68 825.72,-404.43 824.53,-397.53"/>
</a>
</g>
</g>
<!-- cognitive engagement&#45;&gt;process -->
<g id="edge9" class="edge">
<title>cognitive engagement&#45;&gt;process</title>
<g id="a_edge9"><a xlink:title="13">
<path fill="none" stroke="black" stroke-width="2.6" d="M474.88,-347.95C439.82,-353.07 403.73,-361.02 371.17,-373.21 320.94,-392.03 271.07,-425.77 233.37,-455.17"/>
<polygon fill="black" stroke="black" stroke-width="2.6" points="231.2,-452.43 225.52,-461.38 235.54,-457.93 231.2,-452.43"/>
</a>
</g>
</g>
<!-- affective&#45;&gt;process -->
<g id="edge11" class="edge">
<title>affective&#45;&gt;process</title>
<g id="a_edge11"><a xlink:title="10">
<path fill="none" stroke="black" stroke-width="2" d="M575.97,-270.83C517.98,-270.17 435.54,-275.95 371.17,-307.21 304.32,-339.68 246.71,-403.38 210.2,-451.01"/>
<polygon fill="black" stroke="black" stroke-width="2" points="207.31,-449.02 204.07,-459.1 212.9,-453.24 207.31,-449.02"/>
</a>
</g>
</g>
<!-- learning&#45;&gt;product -->
<g id="edge13" class="edge">
<title>learning&#45;&gt;product</title>
<g id="a_edge13"><a xlink:title="37">
<path fill="none" stroke="black" stroke-width="7.4" d="M547.86,-712.36C469.3,-719.58 359.78,-729.64 278.61,-737.1"/>
<polygon fill="black" stroke="black" stroke-width="7.4" points="277.73,-730.68 268.36,-738.04 278.91,-743.58 277.73,-730.68"/>
</a>
</g>
</g>
<!-- learning&#45;&gt;process -->
<g id="edge36" class="edge">
<title>learning&#45;&gt;process</title>
<g id="a_edge36"><a xlink:title="3">
<path fill="none" stroke="black" stroke-width="0.6" d="M544.12,-699.9C490.79,-695.25 425.67,-684.87 371.17,-662.21 318.23,-640.21 266.54,-601.31 228.62,-568.51"/>
<polygon fill="black" stroke="black" stroke-width="0.6" points="230.57,-565.56 220.74,-561.61 225.96,-570.83 230.57,-565.56"/>
</a>
</g>
</g>
<!-- Speech Participation -->
<g id="node13" class="node">
<title>Speech Participation</title>
<g id="a_node13"><a xlink:href="Speech_Participation.svg" xlink:title="63">
<ellipse fill="#1f78b4" stroke="#1f78b4" cx="1511.61" cy="-415.21" rx="210.02" ry="29.9"/>
<text text-anchor="middle" x="1511.61" y="-407.41" font-family="Arial" font-size="31.00">Speech participation</text>
</a>
</g>
</g>
<!-- Verbal -->
<g id="node14" class="node">
<title>Verbal</title>
<g id="a_node14"><a xlink:href="Verbal.svg" xlink:title="266">
<ellipse fill="#1f78b4" stroke="#1f78b4" cx="1113.57" cy="-416.21" rx="152.06" ry="60.21"/>
<text text-anchor="middle" x="1113.57" y="-398.71" font-family="Arial" font-size="70.00">Verbal</text>
</a>
</g>
</g>
<!-- Speech Participation&#45;&gt;Verbal -->
<g id="edge14" class="edge">
<title>Speech Participation&#45;&gt;Verbal</title>
<g id="a_edge14"><a xlink:title="63">
<path fill="none" stroke="#1f78b4" stroke-width="12.6" d="M1301.57,-415.74C1292.88,-415.76 1284.22,-415.78 1275.66,-415.81"/>
<polygon fill="#1f78b4" stroke="#1f78b4" stroke-width="12.6" points="1275.63,-404.78 1265.66,-415.83 1275.68,-426.83 1275.63,-404.78"/>
</a>
</g>
</g>
<!-- Verbal&#45;&gt;performance -->
<g id="edge22" class="edge">
<title>Verbal&#45;&gt;performance</title>
<g id="a_edge22"><a xlink:href="Verbal -&gt; performance.gv.svg" xlink:title="18">
<path fill="none" stroke="#1f78b4" stroke-width="3.6" d="M996.95,-455.07C983.36,-463.79 971,-474.39 961.54,-487.21 893.1,-580.05 1005.74,-661.33 925.54,-744.21 904.71,-765.74 877.94,-779.69 849.28,-788.46"/>
<polygon fill="#1f78b4" stroke="#1f78b4" stroke-width="3.6" points="848.15,-785.14 839.49,-791.24 850.07,-791.87 848.15,-785.14"/>
</a>
</g>
</g>
<!-- Verbal&#45;&gt;coordination -->
<g id="edge50" class="edge">
<title>Verbal&#45;&gt;coordination</title>
<g id="a_edge50"><a xlink:href="Verbal -&gt; coordination.gv.svg" xlink:title="18">
<path fill="none" stroke="#1f78b4" stroke-width="3.6" d="M1001.28,-457.1C986.79,-465.56 973.02,-475.54 961.54,-487.21 934.2,-515.01 956.34,-543.31 925.54,-567.21 899.84,-587.16 868.74,-599.96 836.8,-607.99"/>
<polygon fill="#1f78b4" stroke="#1f78b4" stroke-width="3.6" points="835.8,-604.63 826.87,-610.33 837.41,-611.44 835.8,-604.63"/>
</a>
</g>
</g>
<!-- Verbal&#45;&gt;cognitive engagement -->
<g id="edge28" class="edge">
<title>Verbal&#45;&gt;cognitive engagement</title>
<g id="a_edge28"><a xlink:href="Verbal -&gt; cognitive engagement.gv.svg" xlink:title="1">
<path fill="none" stroke="#1f78b4" stroke-width="0.2" d="M983.9,-384.73C964.42,-380.52 944.5,-376.51 925.54,-373.21 886.62,-366.43 844.36,-360.62 804.88,-355.84"/>
<polygon fill="#1f78b4" stroke="#1f78b4" stroke-width="0.2" points="805.25,-352.36 794.91,-354.65 804.42,-359.31 805.25,-352.36"/>
</a>
</g>
</g>
<!-- Verbal&#45;&gt;affective -->
<g id="edge32" class="edge">
<title>Verbal&#45;&gt;affective</title>
<g id="a_edge32"><a xlink:href="Verbal -&gt; affective.gv.svg" xlink:title="2">
<path fill="none" stroke="#1f78b4" stroke-width="0.4" d="M1006.39,-373.49C990.77,-365.39 975.32,-356.25 961.54,-346.21 942.48,-332.32 946.57,-317.9 925.54,-307.21 865.16,-276.52 787.99,-269.86 730.58,-270.11"/>
<polygon fill="#1f78b4" stroke="#1f78b4" stroke-width="0.4" points="730.42,-266.61 720.46,-270.22 730.5,-273.61 730.42,-266.61"/>
</a>
</g>
</g>
<!-- Verbal&#45;&gt;learning -->
<g id="edge35" class="edge">
<title>Verbal&#45;&gt;learning</title>
<g id="a_edge35"><a xlink:href="Verbal -&gt; learning.gv.svg" xlink:title="6">
<path fill="none" stroke="#1f78b4" stroke-width="1.2" d="M998.07,-455.4C984.22,-464.09 971.49,-474.58 961.54,-487.21 912.41,-549.6 983.23,-607.64 925.54,-662.21 881.19,-704.17 813.64,-714.76 756.44,-714.7"/>
<polygon fill="#1f78b4" stroke="#1f78b4" stroke-width="1.2" points="756.3,-711.2 746.26,-714.58 756.22,-718.2 756.3,-711.2"/>
</a>
</g>
</g>
<!-- Verbal&#45;&gt;interpersonal -->
<g id="edge15" class="edge">
<title>Verbal&#45;&gt;interpersonal</title>
<g id="a_edge15"><a xlink:href="Verbal -&gt; interpersonal.gv.svg" xlink:title="38">
<path fill="none" stroke="#1f78b4" stroke-width="7.6" d="M978.75,-444.21C960.87,-447.93 942.76,-451.67 925.54,-455.21 893.05,-461.9 858.39,-468.97 825,-475.75"/>
<polygon fill="#1f78b4" stroke="#1f78b4" stroke-width="7.6" points="823.62,-469.24 815.15,-477.75 826.27,-482.28 823.62,-469.24"/>
</a>
</g>
</g>
<!-- Verbal&#45;&gt;group composition -->
<g id="edge19" class="edge">
<title>Verbal&#45;&gt;group composition</title>
<g id="a_edge19"><a xlink:href="Verbal -&gt; group composition.gv.svg" xlink:title="36">
<path fill="none" stroke="#1f78b4" stroke-width="7.2" d="M996.49,-454.74C982.98,-463.52 970.75,-474.21 961.54,-487.21 915.83,-551.74 979.24,-783.17 925.54,-841.21 916.86,-850.6 907.06,-858.58 896.45,-865.36"/>
<polygon fill="#1f78b4" stroke="#1f78b4" stroke-width="7.2" points="893.14,-860 887.78,-870.54 899.6,-870.82 893.14,-860"/>
</a>
</g>
</g>
<!-- Verbal&#45;&gt;communication -->
<g id="edge65" class="edge">
<title>Verbal&#45;&gt;communication</title>
<g id="a_edge65"><a xlink:href="Verbal -&gt; communication.gv.svg" xlink:title="13">
<path fill="none" stroke="#1f78b4" stroke-width="2.6" d="M961.54,-415.56C922.02,-415.39 878.94,-415.2 837.74,-415.03"/>
<polygon fill="#1f78b4" stroke="#1f78b4" stroke-width="2.6" points="837.61,-411.53 827.59,-414.98 837.58,-418.53 837.61,-411.53"/>
</a>
</g>
</g>
<!-- interpersonal&#45;&gt;process -->
<g id="edge16" class="edge">
<title>interpersonal&#45;&gt;process</title>
<g id="a_edge16"><a xlink:title="91">
<path fill="none" stroke="black" stroke-width="18.2" d="M413.58,-511.21C390.63,-511.21 367.61,-511.21 345.36,-511.21"/>
<polygon fill="black" stroke="black" stroke-width="18.2" points="345.2,-495.29 335.2,-511.21 345.2,-527.14 345.2,-495.29"/>
</a>
</g>
</g>
<!-- Combined -->
<g id="node16" class="node">
<title>Combined</title>
<g id="a_node16"><a xlink:href="Combined.svg" xlink:title="6">
<ellipse fill="#fb9a99" stroke="#fb9a99" cx="1511.61" cy="-141.21" rx="76.24" ry="21.43"/>
<text text-anchor="middle" x="1511.61" y="-136.21" font-family="Arial" font-size="20.00">Combined</text>
</a>
</g>
</g>
<!-- Combined&#45;&gt;Physiological -->
<g id="edge18" class="edge">
<title>Combined&#45;&gt;Physiological</title>
<g id="a_edge18"><a xlink:title="6">
<path fill="none" stroke="#fb9a99" stroke-width="1.2" d="M1435.29,-143.24C1394.47,-146.48 1343.88,-154.05 1301.6,-171.21 1244.53,-194.38 1188.7,-238.61 1153.12,-270.35"/>
<polygon fill="#fb9a99" stroke="#fb9a99" stroke-width="1.2" points="1150.47,-268.02 1145.4,-277.32 1155.16,-273.22 1150.47,-268.02"/>
</a>
</g>
</g>
<!-- condition -->
<g id="node18" class="node">
<title>condition</title>
<g id="a_node18"><a xlink:href="condition.svg" xlink:title="69">
<ellipse fill="lightgrey" stroke="black" cx="167.58" cy="-891.21" rx="107.46" ry="30.31"/>
<text text-anchor="middle" x="167.58" y="-883.11" font-family="Arial" font-size="32.00">Condition</text>
</a>
</g>
</g>
<!-- group composition&#45;&gt;condition -->
<g id="edge20" class="edge">
<title>group composition&#45;&gt;condition</title>
<g id="a_edge20"><a xlink:title="69">
<path fill="none" stroke="black" stroke-width="13.8" d="M370.93,-891.21C340.87,-891.21 311.61,-891.21 285.11,-891.21"/>
<polygon fill="black" stroke="black" stroke-width="13.8" points="285.09,-879.14 275.09,-891.21 285.09,-903.29 285.09,-879.14"/>
</a>
</g>
</g>
<!-- Speech Features -->
<g id="node19" class="node">
<title>Speech Features</title>
<g id="a_node19"><a xlink:href="Speech_Features.svg" xlink:title="46">
<ellipse fill="#1f78b4" stroke="#1f78b4" cx="1511.61" cy="-340.21" rx="156.04" ry="27.65"/>
<text text-anchor="middle" x="1511.61" y="-333.31" font-family="Arial" font-size="28.00">Speech features</text>
</a>
</g>
</g>
<!-- Speech Features&#45;&gt;Verbal -->
<g id="edge23" class="edge">
<title>Speech Features&#45;&gt;Verbal</title>
<g id="a_edge23"><a xlink:title="46">
<path fill="none" stroke="#1f78b4" stroke-width="9.2" d="M1396.83,-358.96C1365.89,-364.29 1332.42,-370.27 1301.6,-376.21 1287.09,-379.01 1271.97,-382.05 1256.9,-385.15"/>
<polygon fill="#1f78b4" stroke="#1f78b4" stroke-width="9.2" points="1255.16,-377.29 1247,-387.2 1258.43,-393.06 1255.16,-377.29"/>
</a>
</g>
</g>
<!-- Facial Expressions -->
<g id="node20" class="node">
<title>Facial Expressions</title>
<g id="a_node20"><a xlink:href="Facial_Expressions.svg" xlink:title="20">
<ellipse fill="#b2df8a" stroke="#b2df8a" cx="1511.61" cy="-547.21" rx="145.83" ry="23.17"/>
<text text-anchor="middle" x="1511.61" y="-541.31" font-family="Arial" font-size="23.00">Facial expressions</text>
</a>
</g>
</g>
<!-- Head -->
<g id="node21" class="node">
<title>Head</title>
<g id="a_node21"><a xlink:href="Head.svg" xlink:title="52">
<ellipse fill="#b2df8a" stroke="#b2df8a" cx="1113.57" cy="-524.21" rx="61.54" ry="28.07"/>
<text text-anchor="middle" x="1113.57" y="-517.01" font-family="Arial" font-size="29.00">Head</text>
</a>
</g>
</g>
<!-- Facial Expressions&#45;&gt;Head -->
<g id="edge24" class="edge">
<title>Facial Expressions&#45;&gt;Head</title>
<g id="a_edge24"><a xlink:title="20">
<path fill="none" stroke="#b2df8a" stroke-width="4" d="M1374.31,-539.3C1310.54,-535.59 1237.29,-531.34 1184.86,-528.3"/>
<polygon fill="#b2df8a" stroke="#b2df8a" stroke-width="4" points="1184.85,-524.79 1174.66,-527.7 1184.44,-531.78 1184.85,-524.79"/>
</a>
</g>
</g>
<!-- Head&#45;&gt;performance -->
<g id="edge59" class="edge">
<title>Head&#45;&gt;performance</title>
<g id="a_edge59"><a xlink:href="Head -&gt; performance.gv.svg" xlink:title="3">
<path fill="none" stroke="#b2df8a" stroke-width="0.6" d="M1051.87,-526.05C1020.71,-530.22 984.56,-540.61 961.54,-565.21 906.1,-624.47 983.67,-687.59 925.54,-744.21 904.24,-764.96 877.38,-778.54 848.82,-787.18"/>
<polygon fill="#b2df8a" stroke="#b2df8a" stroke-width="0.6" points="847.75,-783.85 839.08,-789.93 849.65,-790.59 847.75,-783.85"/>
</a>
</g>
</g>
<!-- Head&#45;&gt;coordination -->
<g id="edge60" class="edge">
<title>Head&#45;&gt;coordination</title>
<g id="a_edge60"><a xlink:href="Head -&gt; coordination.gv.svg" xlink:title="2">
<path fill="none" stroke="#b2df8a" stroke-width="0.4" d="M1058.72,-537.4C1021.44,-546.34 970.61,-558.12 925.54,-567.21 885.43,-575.3 841.88,-583.26 801.48,-590.29"/>
<polygon fill="#b2df8a" stroke="#b2df8a" stroke-width="0.4" points="800.81,-586.85 791.55,-592.01 802,-593.75 800.81,-586.85"/>
</a>
</g>
</g>
<!-- Head&#45;&gt;cognitive engagement -->
<g id="edge29" class="edge">
<title>Head&#45;&gt;cognitive engagement</title>
<g id="a_edge29"><a xlink:href="Head -&gt; cognitive engagement.gv.svg" xlink:title="1">
<path fill="none" stroke="#b2df8a" stroke-width="0.2" d="M1051.88,-522.03C1021.29,-517.88 985.67,-507.98 961.54,-485.21 923.51,-449.33 965.89,-406.47 925.54,-373.21 897.18,-349.84 861.28,-337.45 824.83,-331.57"/>
<polygon fill="#b2df8a" stroke="#b2df8a" stroke-width="0.2" points="824.93,-328.05 814.54,-330.08 823.93,-334.98 824.93,-328.05"/>
</a>
</g>
</g>
<!-- Head&#45;&gt;affective -->
<g id="edge33" class="edge">
<title>Head&#45;&gt;affective</title>
<g id="a_edge33"><a xlink:href="Head -&gt; affective.gv.svg" xlink:title="1">
<path fill="none" stroke="#b2df8a" stroke-width="0.2" d="M1051.94,-523.23C1020.8,-519.49 984.65,-509.58 961.54,-485.21 906,-426.64 984.96,-361.83 925.54,-307.21 871.43,-257.47 783.97,-255.58 721.99,-262.22"/>
<polygon fill="#b2df8a" stroke="#b2df8a" stroke-width="0.2" points="721.41,-258.76 711.88,-263.4 722.22,-265.72 721.41,-258.76"/>
</a>
</g>
</g>
<!-- Head&#45;&gt;learning -->
<g id="edge37" class="edge">
<title>Head&#45;&gt;learning</title>
<g id="a_edge37"><a xlink:href="Head -&gt; learning.gv.svg" xlink:title="1">
<path fill="none" stroke="#b2df8a" stroke-width="0.2" d="M1052.24,-527.72C1021.75,-532.41 986.11,-542.77 961.54,-565.21 927.59,-596.23 961.26,-633.25 925.54,-662.21 879.55,-699.51 814.57,-710.55 759.19,-711.9"/>
<polygon fill="#b2df8a" stroke="#b2df8a" stroke-width="0.2" points="758.92,-708.4 748.97,-712.04 759.02,-715.4 758.92,-708.4"/>
</a>
</g>
</g>
<!-- Head&#45;&gt;interpersonal -->
<g id="edge25" class="edge">
<title>Head&#45;&gt;interpersonal</title>
<g id="a_edge25"><a xlink:href="Head -&gt; interpersonal.gv.svg" xlink:title="13">
<path fill="none" stroke="#b2df8a" stroke-width="2.6" d="M1052.01,-522.51C1009.96,-521.33 950.92,-519.68 890.99,-517.99"/>
<polygon fill="#b2df8a" stroke="#b2df8a" stroke-width="2.6" points="891.07,-514.5 880.97,-517.71 890.87,-521.49 891.07,-514.5"/>
</a>
</g>
</g>
<!-- Head&#45;&gt;group composition -->
<g id="edge49" class="edge">
<title>Head&#45;&gt;group composition</title>
<g id="a_edge49"><a xlink:href="Head -&gt; group composition.gv.svg" xlink:title="3">
<path fill="none" stroke="#b2df8a" stroke-width="0.6" d="M1051.95,-525.34C1020.41,-529.25 983.88,-539.63 961.54,-565.21 880.18,-658.4 1010.83,-751.61 925.54,-841.21 916.66,-850.54 906.67,-858.48 895.89,-865.21"/>
<polygon fill="#b2df8a" stroke="#b2df8a" stroke-width="0.6" points="893.95,-862.29 887.09,-870.35 897.49,-868.33 893.95,-862.29"/>
</a>
</g>
</g>
<!-- Head&#45;&gt;communication -->
<g id="edge57" class="edge">
<title>Head&#45;&gt;communication</title>
<g id="a_edge57"><a xlink:href="Head -&gt; communication.gv.svg" xlink:title="1">
<path fill="none" stroke="#b2df8a" stroke-width="0.2" d="M1054.83,-515.51C1025.74,-509.61 990.58,-500.1 961.54,-485.21 943.01,-475.71 944.55,-463.73 925.54,-455.21 895.24,-441.64 861.38,-432.4 828.05,-426.14"/>
<polygon fill="#b2df8a" stroke="#b2df8a" stroke-width="0.2" points="828.65,-422.69 818.19,-424.37 827.42,-429.58 828.65,-422.69"/>
</a>
</g>
</g>
<!-- Speech Content -->
<g id="node22" class="node">
<title>Speech Content</title>
<g id="a_node22"><a xlink:href="Speech_Content.svg" xlink:title="24">
<ellipse fill="#1f78b4" stroke="#1f78b4" cx="1511.61" cy="-270.21" rx="130.63" ry="24.08"/>
<text text-anchor="middle" x="1511.61" y="-264.01" font-family="Arial" font-size="24.00">Speech content</text>
</a>
</g>
</g>
<!-- Speech Content&#45;&gt;Verbal -->
<g id="edge26" class="edge">
<title>Speech Content&#45;&gt;Verbal</title>
<g id="a_edge26"><a xlink:title="24">
<path fill="none" stroke="#1f78b4" stroke-width="4.8" d="M1383.87,-275.46C1355.49,-280.57 1326.45,-289.14 1301.6,-303.21 1279.91,-315.49 1285.38,-331.05 1265.6,-346.21 1254.8,-354.49 1242.86,-362.09 1230.58,-368.98"/>
<polygon fill="#1f78b4" stroke="#1f78b4" stroke-width="4.8" points="1228.36,-365.4 1221.58,-373.87 1232.37,-372.78 1228.36,-365.4"/>
</a>
</g>
</g>
<!-- Hand Motion -->
<g id="node23" class="node">
<title>Hand Motion</title>
<g id="a_node23"><a xlink:href="Hand_Motion.svg" xlink:title="16">
<ellipse fill="#e31a1c" stroke="#e31a1c" cx="1511.61" cy="-743.21" rx="98.99" ry="22.76"/>
<text text-anchor="middle" x="1511.61" y="-737.61" font-family="Arial" font-size="22.00">Hand motion</text>
</a>
</g>
</g>
<!-- Body -->
<g id="node24" class="node">
<title>Body</title>
<g id="a_node24"><a xlink:href="Body.svg" xlink:title="116">
<ellipse fill="#e31a1c" stroke="#e31a1c" cx="1113.57" cy="-611.21" rx="77.15" ry="37.45"/>
<text text-anchor="middle" x="1113.57" y="-600.91" font-family="Arial" font-size="41.00">Body</text>
</a>
</g>
</g>
<!-- Hand Motion&#45;&gt;Body -->
<g id="edge30" class="edge">
<title>Hand Motion&#45;&gt;Body</title>
<g id="a_edge30"><a xlink:title="16">
<path fill="none" stroke="#e31a1c" stroke-width="3.2" d="M1412.69,-744.62C1375.5,-741.12 1334.26,-732.03 1301.6,-711.21 1277.27,-695.71 1288.75,-674.42 1265.6,-657.21 1245.59,-642.34 1220.73,-632.23 1196.99,-625.37"/>
<polygon fill="#e31a1c" stroke="#e31a1c" stroke-width="3.2" points="1197.83,-621.97 1187.26,-622.72 1195.99,-628.73 1197.83,-621.97"/>
</a>
</g>
</g>
<!-- Body&#45;&gt;performance -->
<g id="edge44" class="edge">
<title>Body&#45;&gt;performance</title>
<g id="a_edge44"><a xlink:href="Body -&gt; performance.gv.svg" xlink:title="14">
<path fill="none" stroke="#e31a1c" stroke-width="2.8" d="M1038.39,-620.34C1011.53,-626.87 982.65,-638.05 961.54,-657.21 930.56,-685.34 958.2,-718.05 925.54,-744.21 902.67,-762.53 875.29,-774.88 846.78,-783.07"/>
<polygon fill="#e31a1c" stroke="#e31a1c" stroke-width="2.8" points="845.81,-779.7 837.07,-785.69 847.64,-786.46 845.81,-779.7"/>
</a>
</g>
</g>
<!-- Body&#45;&gt;coordination -->
<g id="edge54" class="edge">
<title>Body&#45;&gt;coordination</title>
<g id="a_edge54"><a xlink:href="Body -&gt; coordination.gv.svg" xlink:title="8">
<path fill="none" stroke="#e31a1c" stroke-width="1.6" d="M1036.34,-611.87C982.49,-612.34 907.84,-612.98 838.46,-613.58"/>
<polygon fill="#e31a1c" stroke="#e31a1c" stroke-width="1.6" points="838.23,-610.08 828.26,-613.67 838.29,-617.08 838.23,-610.08"/>
</a>
</g>
</g>
<!-- Body&#45;&gt;cognitive engagement -->
<g id="edge31" class="edge">
<title>Body&#45;&gt;cognitive engagement</title>
<g id="a_edge31"><a xlink:href="Body -&gt; cognitive engagement.gv.svg" xlink:title="4">
<path fill="none" stroke="#e31a1c" stroke-width="0.8" d="M1038.44,-602.69C1010.61,-595.81 981.03,-583.43 961.54,-561.21 905.43,-497.26 987.77,-431.22 925.54,-373.21 892.62,-342.53 847.06,-329.81 802.43,-326.05"/>
<polygon fill="#e31a1c" stroke="#e31a1c" stroke-width="0.8" points="802.55,-322.55 792.33,-325.34 802.06,-329.53 802.55,-322.55"/>
</a>
</g>
</g>
<!-- Body&#45;&gt;affective -->
<g id="edge34" class="edge">
<title>Body&#45;&gt;affective</title>
<g id="a_edge34"><a xlink:href="Body -&gt; affective.gv.svg" xlink:title="4">
<path fill="none" stroke="#e31a1c" stroke-width="0.8" d="M1037.89,-603.17C1009.98,-596.35 980.49,-583.89 961.54,-561.21 888.44,-473.71 1007.18,-386.8 925.54,-307.21 872.5,-255.51 783.81,-254.29 721.26,-261.61"/>
<polygon fill="#e31a1c" stroke="#e31a1c" stroke-width="0.8" points="720.55,-258.18 711.07,-262.91 721.43,-265.12 720.55,-258.18"/>
</a>
</g>
</g>
<!-- Body&#45;&gt;learning -->
<g id="edge38" class="edge">
<title>Body&#45;&gt;learning</title>
<g id="a_edge38"><a xlink:href="Body -&gt; learning.gv.svg" xlink:title="7">
<path fill="none" stroke="#e31a1c" stroke-width="1.4" d="M1047.68,-630.95C1011.91,-641.31 966.55,-653.61 925.54,-662.21 870.06,-673.85 807.62,-683.42 756.17,-690.37"/>
<polygon fill="#e31a1c" stroke="#e31a1c" stroke-width="1.4" points="755.48,-686.93 746.04,-691.72 756.41,-693.87 755.48,-686.93"/>
</a>
</g>
</g>
<!-- Body&#45;&gt;interpersonal -->
<g id="edge61" class="edge">
<title>Body&#45;&gt;interpersonal</title>
<g id="a_edge61"><a xlink:href="Body -&gt; interpersonal.gv.svg" xlink:title="6">
<path fill="none" stroke="#e31a1c" stroke-width="1.2" d="M1043.81,-595.02C1008.5,-586.8 964.77,-576.77 925.54,-568.21 893,-561.11 858.24,-553.76 824.75,-546.8"/>
<polygon fill="#e31a1c" stroke="#e31a1c" stroke-width="1.2" points="825.38,-543.35 814.88,-544.74 823.96,-550.2 825.38,-543.35"/>
</a>
</g>
</g>
<!-- Body&#45;&gt;group composition -->
<g id="edge47" class="edge">
<title>Body&#45;&gt;group composition</title>
<g id="a_edge47"><a xlink:href="Body -&gt; group composition.gv.svg" xlink:title="11">
<path fill="none" stroke="#e31a1c" stroke-width="2.2" d="M1037.44,-617.96C1009.97,-624.16 980.91,-635.75 961.54,-657.21 905.71,-719.07 984.88,-782.71 925.54,-841.21 916.14,-850.48 905.63,-858.35 894.37,-865.01"/>
<polygon fill="#e31a1c" stroke="#e31a1c" stroke-width="2.2" points="892.65,-861.96 885.6,-869.87 896.05,-868.08 892.65,-861.96"/>
</a>
</g>
</g>
<!-- Body&#45;&gt;communication -->
<g id="edge68" class="edge">
<title>Body&#45;&gt;communication</title>
<g id="a_edge68"><a xlink:href="Body -&gt; communication.gv.svg" xlink:title="3">
<path fill="none" stroke="#e31a1c" stroke-width="0.6" d="M1039.18,-601.07C1011.79,-593.95 982.32,-581.84 961.54,-561.21 926.22,-526.17 963.74,-487.09 925.54,-455.21 900.33,-434.17 869.12,-421.4 836.85,-413.99"/>
<polygon fill="#e31a1c" stroke="#e31a1c" stroke-width="0.6" points="837.32,-410.51 826.81,-411.86 835.87,-417.36 837.32,-410.51"/>
</a>
</g>
</g>
<!-- Task&#45;related -->
<g id="node25" class="node">
<title>Task&#45;related</title>
<g id="a_node25"><a xlink:href="Task-related.svg" xlink:title="39">
<ellipse fill="#a6cee3" stroke="#a6cee3" cx="1511.61" cy="-937.21" rx="115.93" ry="26.74"/>
<text text-anchor="middle" x="1511.61" y="-930.61" font-family="Arial" font-size="27.00">Task&#45;related</text>
</a>
</g>
</g>
<!-- Log Data -->
<g id="node26" class="node">
<title>Log Data</title>
<g id="a_node26"><a xlink:href="Log_Data.svg" xlink:title="134">
<ellipse fill="#a6cee3" stroke="#a6cee3" cx="1113.57" cy="-707.21" rx="135.11" ry="41.02"/>
<text text-anchor="middle" x="1113.57" y="-696.21" font-family="Arial" font-size="45.00">Log data</text>
</a>
</g>
</g>
<!-- Task&#45;related&#45;&gt;Log Data -->
<g id="edge39" class="edge">
<title>Task&#45;related&#45;&gt;Log Data</title>
<g id="a_edge39"><a xlink:title="39">
<path fill="none" stroke="#a6cee3" stroke-width="7.8" d="M1396.46,-940.57C1362.25,-935.99 1327.1,-924.89 1301.6,-901.21 1253.25,-856.33 1310.47,-805.57 1265.6,-757.21 1257.07,-748.03 1246.83,-740.53 1235.74,-734.4"/>
<polygon fill="#a6cee3" stroke="#a6cee3" stroke-width="7.8" points="1238.69,-728.25 1226.68,-729.78 1232.48,-740.41 1238.69,-728.25"/>
</a>
</g>
</g>
<!-- Log Data&#45;&gt;performance -->
<g id="edge40" class="edge">
<title>Log Data&#45;&gt;performance</title>
<g id="a_edge40"><a xlink:href="Log Data -&gt; performance.gv.svg" xlink:title="15">
<path fill="none" stroke="#a6cee3" stroke-width="3" d="M1000.4,-729.84C975.76,-734.69 949.78,-739.71 925.54,-744.21 887.22,-751.33 845.84,-758.7 807.07,-765.45"/>
<polygon fill="#a6cee3" stroke="#a6cee3" stroke-width="3" points="806,-762.09 796.74,-767.25 807.2,-768.98 806,-762.09"/>
</a>
</g>
</g>
<!-- Log Data&#45;&gt;coordination -->
<g id="edge52" class="edge">
<title>Log Data&#45;&gt;coordination</title>
<g id="a_edge52"><a xlink:href="Log Data -&gt; coordination.gv.svg" xlink:title="11">
<path fill="none" stroke="#a6cee3" stroke-width="2.2" d="M1009.46,-681.09C982.25,-674.55 952.86,-667.82 925.54,-662.21 886.12,-654.13 843.33,-646.36 803.47,-639.55"/>
<polygon fill="#a6cee3" stroke="#a6cee3" stroke-width="2.2" points="803.85,-636.06 793.4,-637.83 802.67,-642.96 803.85,-636.06"/>
</a>
</g>
</g>
<!-- Log Data&#45;&gt;cognitive engagement -->
<g id="edge70" class="edge">
<title>Log Data&#45;&gt;cognitive engagement</title>
<g id="a_edge70"><a xlink:href="Log Data -&gt; cognitive engagement.gv.svg" xlink:title="1">
<path fill="none" stroke="#a6cee3" stroke-width="0.2" d="M998.8,-685.58C984.58,-678.59 971.54,-669.37 961.54,-657.21 880.69,-558.97 1015.83,-462.86 925.54,-373.21 890.75,-338.67 840.11,-326.34 791.67,-324.03"/>
<polygon fill="#a6cee3" stroke="#a6cee3" stroke-width="0.2" points="791.49,-320.52 781.38,-323.68 791.25,-327.52 791.49,-320.52"/>
</a>
</g>
</g>
<!-- Log Data&#45;&gt;learning -->
<g id="edge42" class="edge">
<title>Log Data&#45;&gt;learning</title>
<g id="a_edge42"><a xlink:href="Log Data -&gt; learning.gv.svg" xlink:title="8">
<path fill="none" stroke="#a6cee3" stroke-width="1.6" d="M978.28,-706.05C910.19,-705.47 828.38,-704.76 763.39,-704.2"/>
<polygon fill="#a6cee3" stroke="#a6cee3" stroke-width="1.6" points="763.14,-700.7 753.11,-704.11 763.08,-707.7 763.14,-700.7"/>
</a>
</g>
</g>
<!-- Log Data&#45;&gt;interpersonal -->
<g id="edge63" class="edge">
<title>Log Data&#45;&gt;interpersonal</title>
<g id="a_edge63"><a xlink:href="Log Data -&gt; interpersonal.gv.svg" xlink:title="12">
<path fill="none" stroke="#a6cee3" stroke-width="2.4" d="M1002.64,-683.58C987.62,-676.87 973.33,-668.26 961.54,-657.21 930.41,-628.03 958.31,-595.54 925.54,-568.21 908.99,-554.42 889.97,-543.68 869.81,-535.35"/>
<polygon fill="#a6cee3" stroke="#a6cee3" stroke-width="2.4" points="871.07,-532.09 860.48,-531.7 868.51,-538.6 871.07,-532.09"/>
</a>
</g>
</g>
<!-- Log Data&#45;&gt;group composition -->
<g id="edge46" class="edge">
<title>Log Data&#45;&gt;group composition</title>
<g id="a_edge46"><a xlink:href="Log Data -&gt; group composition.gv.svg" xlink:title="9">
<path fill="none" stroke="#a6cee3" stroke-width="1.8" d="M1003.23,-730.89C988.04,-737.59 973.54,-746.19 961.54,-757.21 931.62,-784.69 957.31,-815.91 925.54,-841.21 914.24,-850.22 901.84,-857.8 888.77,-864.18"/>
<polygon fill="#a6cee3" stroke="#a6cee3" stroke-width="1.8" points="887.22,-861.04 879.61,-868.41 890.16,-867.4 887.22,-861.04"/>
</a>
</g>
</g>
<!-- Log Data&#45;&gt;communication -->
<g id="edge66" class="edge">
<title>Log Data&#45;&gt;communication</title>
<g id="a_edge66"><a xlink:href="Log Data -&gt; communication.gv.svg" xlink:title="11">
<path fill="none" stroke="#a6cee3" stroke-width="2.2" d="M999.35,-685.12C985.05,-678.19 971.85,-669.11 961.54,-657.21 901.84,-588.28 990.95,-518.75 925.54,-455.21 900.54,-430.93 867.8,-417.05 833.63,-409.65"/>
<polygon fill="#a6cee3" stroke="#a6cee3" stroke-width="2.2" points="833.97,-406.15 823.48,-407.64 832.61,-413.01 833.97,-406.15"/>
</a>
</g>
</g>
<!-- Text -->
<g id="node27" class="node">
<title>Text</title>
<g id="a_node27"><a xlink:href="Text.svg" xlink:title="17">
<ellipse fill="#a6cee3" stroke="#a6cee3" cx="1511.61" cy="-869.21" rx="41.94" ry="23.17"/>
<text text-anchor="middle" x="1511.61" y="-863.31" font-family="Arial" font-size="23.00">Text</text>
</a>
</g>
</g>
<!-- Text&#45;&gt;Log Data -->
<g id="edge41" class="edge">
<title>Text&#45;&gt;Log Data</title>
<g id="a_edge41"><a xlink:title="17">
<path fill="none" stroke="#a6cee3" stroke-width="3.4" d="M1470.49,-873.72C1424.92,-876.64 1350.55,-874.42 1301.6,-837.21 1270.56,-813.62 1294.55,-783.33 1265.6,-757.21 1255.95,-748.52 1244.76,-741.33 1232.91,-735.39"/>
<polygon fill="#a6cee3" stroke="#a6cee3" stroke-width="3.4" points="1234.27,-732.16 1223.73,-731.08 1231.3,-738.5 1234.27,-732.16"/>
</a>
</g>
</g>
<!-- Gross Body Motion -->
<g id="node28" class="node">
<title>Gross Body Motion</title>
<g id="a_node28"><a xlink:href="Gross_Body_Motion.svg" xlink:title="29">
<ellipse fill="#e31a1c" stroke="#e31a1c" cx="1511.61" cy="-677.21" rx="161.85" ry="25.41"/>
<text text-anchor="middle" x="1511.61" y="-671.21" font-family="Arial" font-size="25.00">Gross body motion</text>
</a>
</g>
</g>
<!-- Gross Body Motion&#45;&gt;Body -->
<g id="edge43" class="edge">
<title>Gross Body Motion&#45;&gt;Body</title>
<g id="a_edge43"><a xlink:title="29">
<path fill="none" stroke="#e31a1c" stroke-width="5.8" d="M1397.77,-659.03C1366.6,-653.96 1332.78,-648.42 1301.6,-643.21 1267.14,-637.46 1229.15,-630.99 1196.45,-625.37"/>
<polygon fill="#e31a1c" stroke="#e31a1c" stroke-width="5.8" points="1197.2,-620.35 1186.48,-623.66 1195.48,-630.36 1197.2,-620.35"/>
</a>
</g>
</g>
<!-- Location -->
<g id="node29" class="node">
<title>Location</title>
<g id="a_node29"><a xlink:href="Location.svg" xlink:title="13">
<ellipse fill="#e31a1c" stroke="#e31a1c" cx="1511.61" cy="-611.21" rx="70.01" ry="22.76"/>
<text text-anchor="middle" x="1511.61" y="-605.61" font-family="Arial" font-size="22.00">Location</text>
</a>
</g>
</g>
<!-- Location&#45;&gt;Body -->
<g id="edge45" class="edge">
<title>Location&#45;&gt;Body</title>
<g id="a_edge45"><a xlink:title="13">
<path fill="none" stroke="#e31a1c" stroke-width="2.6" d="M1441.17,-611.21C1374.35,-611.21 1273.13,-611.21 1201.1,-611.21"/>
<polygon fill="#e31a1c" stroke="#e31a1c" stroke-width="2.6" points="1200.69,-607.71 1190.69,-611.21 1200.69,-614.71 1200.69,-607.71"/>
</a>
</g>
</g>
<!-- Head Motion -->
<g id="node30" class="node">
<title>Head Motion</title>
<g id="a_node30"><a xlink:href="Head_Motion.svg" xlink:title="6">
<ellipse fill="#b2df8a" stroke="#b2df8a" cx="1511.61" cy="-484.21" rx="91.85" ry="21.43"/>
<text text-anchor="middle" x="1511.61" y="-479.21" font-family="Arial" font-size="20.00">Head motion</text>
</a>
</g>
</g>
<!-- Head Motion&#45;&gt;Head -->
<g id="edge48" class="edge">
<title>Head Motion&#45;&gt;Head</title>
<g id="a_edge48"><a xlink:title="6">
<path fill="none" stroke="#b2df8a" stroke-width="1.2" d="M1427.1,-492.65C1354.9,-499.94 1251.74,-510.36 1183.99,-517.2"/>
<polygon fill="#b2df8a" stroke="#b2df8a" stroke-width="1.2" points="1183.44,-513.74 1173.84,-518.23 1184.14,-520.7 1183.44,-513.74"/>
</a>
</g>
</g>
<!-- Touch -->
<g id="node31" class="node">
<title>Touch</title>
<g id="a_node31"><a xlink:href="Touch.svg" xlink:title="11">
<ellipse fill="#a6cee3" stroke="#a6cee3" cx="1511.61" cy="-806.21" rx="52.15" ry="21.84"/>
<text text-anchor="middle" x="1511.61" y="-800.91" font-family="Arial" font-size="21.00">Touch</text>
</a>
</g>
</g>
<!-- Touch&#45;&gt;Log Data -->
<g id="edge51" class="edge">
<title>Touch&#45;&gt;Log Data</title>
<g id="a_edge51"><a xlink:title="11">
<path fill="none" stroke="#a6cee3" stroke-width="2.2" d="M1459.77,-803.18C1416.81,-799.56 1354.07,-791.76 1301.6,-775.21 1284.54,-769.83 1282.13,-764.04 1265.6,-757.21 1250.69,-751.06 1234.73,-745.11 1218.97,-739.59"/>
<polygon fill="#a6cee3" stroke="#a6cee3" stroke-width="2.2" points="1219.79,-736.17 1209.19,-736.22 1217.5,-742.79 1219.79,-736.17"/>
</a>
</g>
</g>
<!-- Heart -->
<g id="node32" class="node">
<title>Heart</title>
<g id="a_node32"><a xlink:href="Heart.svg" xlink:title="1">
<ellipse fill="#fb9a99" stroke="#fb9a99" cx="1511.61" cy="-81.21" rx="45.92" ry="21.43"/>
<text text-anchor="middle" x="1511.61" y="-76.21" font-family="Arial" font-size="20.00">Heart</text>
</a>
</g>
</g>
<!-- Heart&#45;&gt;Physiological -->
<g id="edge56" class="edge">
<title>Heart&#45;&gt;Physiological</title>
<g id="a_edge56"><a xlink:title="1">
<path fill="none" stroke="#fb9a99" stroke-width="0.2" d="M1465.64,-79.37C1421.49,-79.41 1353.41,-84.52 1301.6,-111.21 1230.3,-147.94 1171.01,-222.69 1139.36,-268.53"/>
<polygon fill="#fb9a99" stroke="#fb9a99" stroke-width="0.2" points="1136.32,-266.77 1133.59,-277.01 1142.1,-270.71 1136.32,-266.77"/>
</a>
</g>
</g>
<!-- communication&#45;&gt;process -->
<g id="edge58" class="edge">
<title>communication&#45;&gt;process</title>
<g id="a_edge58"><a xlink:title="40">
<path fill="none" stroke="black" stroke-width="8" d="M501.63,-432.44C459.36,-438.65 413.26,-446.31 371.17,-455.21 347.95,-460.13 323.45,-466.16 299.83,-472.42"/>
<polygon fill="black" stroke="black" stroke-width="8" points="297.96,-465.67 290.12,-475.02 301.59,-479.2 297.96,-465.67"/>
</a>
</g>
</g>
<!-- Brain -->
<g id="node34" class="node">
<title>Brain</title>
<g id="a_node34"><a xlink:href="Brain.svg" xlink:title="2">
<ellipse fill="#fb9a99" stroke="#fb9a99" cx="1511.61" cy="-21.21" rx="45.01" ry="21.43"/>
<text text-anchor="middle" x="1511.61" y="-16.21" font-family="Arial" font-size="20.00">Brain</text>
</a>
</g>
</g>
<!-- Brain&#45;&gt;Physiological -->
<g id="edge67" class="edge">
<title>Brain&#45;&gt;Physiological</title>
<g id="a_edge67"><a xlink:title="2">
<path fill="none" stroke="#fb9a99" stroke-width="0.4" d="M1466.52,-17.98C1421.81,-16.78 1352.18,-20.81 1301.6,-51.21 1216.24,-102.52 1158.12,-209.17 1131.37,-267.32"/>
<polygon fill="#fb9a99" stroke="#fb9a99" stroke-width="0.4" points="1128.12,-266 1127.19,-276.56 1134.5,-268.89 1128.12,-266"/>
</a>
</g>
</g>
</g>
</svg>
