<?xml version="1.0" encoding="UTF-8" standalone="no"?>
<!DOCTYPE svg PUBLIC "-//W3C//DTD SVG 1.1//EN"
 "http://www.w3.org/Graphics/SVG/1.1/DTD/svg11.dtd">
<!-- Generated by graphviz version 2.40.1 (20161225.0304)
 -->
<!-- Title: world Pages: 1 -->
<svg width="720pt" height="402pt"
 viewBox="0.00 0.00 720.00 402.42" xmlns="http://www.w3.org/2000/svg" xmlns:xlink="http://www.w3.org/1999/xlink">
<g id="graph0" class="graph" transform="scale(.3416 .3416) rotate(0) translate(36 1142.033)">
<title>world</title>
<polygon fill="#ffffff" stroke="transparent" points="-36,36 -36,-1142.033 2071.7182,-1142.033 2071.7182,36 -36,36"/>
<!-- Visual Attention -->
<g id="node1" class="node">
<title>Visual Attention</title>
<g id="a_node1"><a xlink:href="Visual_Attention.svg" xlink:title="77">
<ellipse fill="#33a02c" stroke="#33a02c" cx="1822.879" cy="-1074.2132" rx="178.7961" ry="31.6406"/>
<text text-anchor="middle" x="1822.879" y="-1065.5132" font-family="Arial" font-size="34.00" fill="#000000">Visual Attention</text>
</a>
</g>
</g>
<!-- Gaze -->
<g id="node2" class="node">
<title>Gaze</title>
<g id="a_node2"><a xlink:href="Gaze.svg" xlink:title="160">
<ellipse fill="#33a02c" stroke="#33a02c" cx="1311.1835" cy="-811.2132" rx="96.3333" ry="44.5955"/>
<text text-anchor="middle" x="1311.1835" y="-798.7132" font-family="Arial" font-size="50.00" fill="#000000">Gaze</text>
</a>
</g>
</g>
<!-- Visual Attention&#45;&gt;Gaze -->
<g id="edge1" class="edge">
<title>Visual Attention&#45;&gt;Gaze</title>
<path fill="none" stroke="#33a02c" stroke-width="15.4" d="M1678.2351,-1055.4546C1654.889,-1049.8623 1631.3942,-1042.6115 1610.0399,-1033.2132 1512.2947,-990.1944 1416.2285,-910.2274 1360.3918,-858.927"/>
<polygon fill="#33a02c" stroke="#33a02c" stroke-width="15.4" points="1369.2762,-848.789 1352.784,-851.8854 1350.9697,-868.5673 1369.2762,-848.789"/>
</g>
<!-- performance -->
<g id="node3" class="node">
<title>performance</title>
<g id="a_node3"><a xlink:href="performance.svg" xlink:title="132">
<ellipse fill="#d3d3d3" stroke="#000000" cx="740.7981" cy="-792.2132" rx="186.8525" ry="39.6962"/>
<text text-anchor="middle" x="740.7981" y="-781.0132" font-family="Arial" font-size="44.00" fill="#000000">performance</text>
</a>
</g>
</g>
<!-- Gaze&#45;&gt;performance -->
<g id="edge2" class="edge">
<title>Gaze&#45;&gt;performance</title>
<g id="a_edge2"><a xlink:href="Gaze -> performance.gv.svg">
<path fill="none" stroke="#33a02c" stroke-width="2.8" d="M1215.0704,-808.0116C1138.871,-805.4733 1029.8955,-801.8433 935.6159,-798.7027"/>
<polygon fill="#33a02c" stroke="#33a02c" stroke-width="2.8" points="935.4819,-795.1964 925.3708,-798.3615 935.2487,-802.1925 935.4819,-795.1964"/>
</a>
</g>
</g>
<!-- coordination -->
<g id="node5" class="node">
<title>coordination</title>
<g id="a_node5"><a xlink:href="coordination.svg" xlink:title="120">
<ellipse fill="#d3d3d3" stroke="#000000" cx="740.7981" cy="-615.2132" rx="173.4827" ry="38.3684"/>
<text text-anchor="middle" x="740.7981" y="-604.6132" font-family="Arial" font-size="42.00" fill="#000000">coordination</text>
</a>
</g>
</g>
<!-- Gaze&#45;&gt;coordination -->
<g id="edge4" class="edge">
<title>Gaze&#45;&gt;coordination</title>
<g id="a_edge4"><a xlink:href="Gaze -> coordination.gv.svg">
<path fill="none" stroke="#33a02c" stroke-width="3.2" d="M1230.0614,-787.1488C1205.8318,-778.8448 1179.5513,-768.7008 1156.3271,-757.2132 1087.6023,-723.219 1083.6073,-690.4595 1012.3271,-662.2132 979.6003,-649.2445 943.2542,-639.8481 908.0732,-633.0417"/>
<polygon fill="#33a02c" stroke="#33a02c" stroke-width="3.2" points="908.6586,-629.5906 898.1852,-631.1899 907.37,-636.471 908.6586,-629.5906"/>
</a>
</g>
</g>
<!-- learning -->
<g id="node12" class="node">
<title>learning</title>
<g id="a_node12"><a xlink:href="learning.svg" xlink:title="80">
<ellipse fill="#d3d3d3" stroke="#000000" cx="740.7981" cy="-703.2132" rx="96.7474" ry="31.6406"/>
<text text-anchor="middle" x="740.7981" y="-694.5132" font-family="Arial" font-size="34.00" fill="#000000">learning</text>
</a>
</g>
</g>
<!-- Gaze&#45;&gt;learning -->
<g id="edge27" class="edge">
<title>Gaze&#45;&gt;learning</title>
<g id="a_edge27"><a xlink:href="Gaze -> learning.gv.svg">
<path fill="none" stroke="#33a02c" stroke-width="2.6" d="M1226.2051,-790.0326C1166.5935,-775.6284 1084.8976,-756.7935 1012.3271,-743.2132 956.0139,-732.6751 892.702,-723.2124 841.3874,-716.1394"/>
<polygon fill="#33a02c" stroke="#33a02c" stroke-width="2.6" points="841.6725,-712.6459 831.2901,-714.7571 840.7229,-719.5812 841.6725,-712.6459"/>
</a>
</g>
</g>
<!-- interpersonal -->
<g id="node15" class="node">
<title>interpersonal</title>
<g id="a_node15"><a xlink:href="interpersonal.svg" xlink:title="182">
<ellipse fill="#d3d3d3" stroke="#000000" cx="740.7981" cy="-511.2132" rx="232.7763" ry="47.2526"/>
<text text-anchor="middle" x="740.7981" y="-497.5132" font-family="Arial" font-size="54.00" fill="#000000">interpersonal</text>
</a>
</g>
</g>
<!-- Gaze&#45;&gt;interpersonal -->
<g id="edge17" class="edge">
<title>Gaze&#45;&gt;interpersonal</title>
<g id="a_edge17"><a xlink:href="Gaze -> interpersonal.gv.svg">
<path fill="none" stroke="#33a02c" stroke-width="3.2" d="M1225.2471,-791.1158C1201.5242,-783.0299 1176.7232,-772.0101 1156.3271,-757.2132 1070.8493,-695.2008 1101.6132,-624.6047 1012.3271,-568.2132 993.0844,-556.0598 971.695,-546.451 949.6068,-538.8614"/>
<polygon fill="#33a02c" stroke="#33a02c" stroke-width="3.2" points="950.6949,-535.5349 940.1019,-535.7308 948.505,-542.1835 950.6949,-535.5349"/>
</a>
</g>
</g>
<!-- group composition -->
<g id="node17" class="node">
<title>group composition</title>
<g id="a_node17"><a xlink:href="group_composition.svg" xlink:title="138">
<ellipse fill="#d3d3d3" stroke="#000000" cx="740.7981" cy="-891.2132" rx="271.558" ry="41.0244"/>
<text text-anchor="middle" x="740.7981" y="-880.2132" font-family="Arial" font-size="45.00" fill="#000000">group composition</text>
</a>
</g>
</g>
<!-- Gaze&#45;&gt;group composition -->
<g id="edge21" class="edge">
<title>Gaze&#45;&gt;group composition</title>
<g id="a_edge21"><a xlink:href="Gaze -> group composition.gv.svg">
<path fill="none" stroke="#33a02c" stroke-width="2" d="M1218.9073,-824.1555C1146.3529,-834.3317 1042.4389,-848.9063 950.0099,-861.87"/>
<polygon fill="#33a02c" stroke="#33a02c" stroke-width="2" points="949.3711,-858.4252 939.9542,-863.2804 950.3434,-865.3574 949.3711,-858.4252"/>
</a>
</g>
</g>
<!-- communication -->
<g id="node33" class="node">
<title>communication</title>
<g id="a_node33"><a xlink:href="communication.svg" xlink:title="80">
<ellipse fill="#d3d3d3" stroke="#000000" cx="740.7981" cy="-414.2132" rx="173.4827" ry="31.6406"/>
<text text-anchor="middle" x="740.7981" y="-405.5132" font-family="Arial" font-size="34.00" fill="#000000">communication</text>
</a>
</g>
</g>
<!-- Gaze&#45;&gt;communication -->
<g id="edge69" class="edge">
<title>Gaze&#45;&gt;communication</title>
<g id="a_edge69"><a xlink:href="Gaze -> communication.gv.svg">
<path fill="none" stroke="#33a02c" stroke-width="1.8" d="M1222.75,-793.5735C1199.116,-785.5416 1174.9865,-773.9351 1156.3271,-757.2132 1045.5888,-657.973 1131.788,-543.761 1012.3271,-455.2132 986.5551,-436.1102 955.5716,-424.2169 923.8969,-417.0631"/>
<polygon fill="#33a02c" stroke="#33a02c" stroke-width="1.8" points="924.5559,-413.6252 914.0497,-414.9923 923.1153,-420.4753 924.5559,-413.6252"/>
</a>
</g>
</g>
<!-- product -->
<g id="node4" class="node">
<title>product</title>
<g id="a_node4"><a xlink:href="product.svg" xlink:title="100">
<ellipse fill="#d3d3d3" stroke="#000000" cx="162.6346" cy="-747.2132" rx="101.2327" ry="35.2113"/>
<text text-anchor="middle" x="162.6346" y="-737.8132" font-family="Arial" font-size="38.00" fill="#000000">product</text>
</a>
</g>
</g>
<!-- performance&#45;&gt;product -->
<g id="edge3" class="edge">
<title>performance&#45;&gt;product</title>
<path fill="none" stroke="#000000" stroke-width="12.6" d="M565.3682,-778.559C469.8312,-771.1231 354.5972,-762.1542 271.9127,-755.7186"/>
<polygon fill="#000000" stroke="#000000" stroke-width="12.6" points="272.5658,-744.7112 261.7403,-754.9269 270.8546,-766.6947 272.5658,-744.7112"/>
</g>
<!-- process -->
<g id="node6" class="node">
<title>process</title>
<g id="a_node6"><a xlink:href="process.svg" xlink:title="220">
<ellipse fill="#d3d3d3" stroke="#000000" cx="162.6346" cy="-511.2132" rx="162.7692" ry="53.066"/>
<text text-anchor="middle" x="162.6346" y="-495.9132" font-family="Arial" font-size="61.00" fill="#000000">process</text>
</a>
</g>
</g>
<!-- performance&#45;&gt;process -->
<g id="edge71" class="edge">
<title>performance&#45;&gt;process</title>
<path fill="none" stroke="#000000" stroke-width=".6" d="M571.9961,-775.1676C537.122,-768.1404 501.2857,-758.2192 469.2691,-744.2132 372.5405,-701.8984 278.4728,-623.1327 220.5874,-568.9848"/>
<polygon fill="#000000" stroke="#000000" stroke-width=".6" points="222.6903,-566.1573 213.0124,-561.8458 217.8893,-571.2515 222.6903,-566.1573"/>
</g>
<!-- coordination&#45;&gt;process -->
<g id="edge5" class="edge">
<title>coordination&#45;&gt;process</title>
<path fill="none" stroke="#000000" stroke-width="12" d="M605.0727,-591.3758C561.6753,-583.7122 513.441,-575.1509 469.2691,-567.2132 418.9413,-558.1692 363.9908,-548.1723 314.6867,-539.1581"/>
<polygon fill="#000000" stroke="#000000" stroke-width="12" points="316.3062,-528.7802 304.5802,-537.3096 312.5279,-549.4375 316.3062,-528.7802"/>
</g>
<!-- Eye Motion -->
<g id="node7" class="node">
<title>Eye Motion</title>
<g id="a_node7"><a xlink:href="Eye_Motion.svg" xlink:title="3">
<ellipse fill="#33a02c" stroke="#33a02c" cx="1822.879" cy="-1003.2132" rx="82.9636" ry="21.4286"/>
<text text-anchor="middle" x="1822.879" y="-998.2132" font-family="Arial" font-size="20.00" fill="#000000">Eye Motion</text>
</a>
</g>
</g>
<!-- Eye Motion&#45;&gt;Gaze -->
<g id="edge6" class="edge">
<title>Eye Motion&#45;&gt;Gaze</title>
<path fill="none" stroke="#33a02c" stroke-width=".6" d="M1741.9975,-998.6271C1701.582,-994.6361 1652.392,-987.1722 1610.0399,-973.2132 1523.4039,-944.6586 1432.4395,-891.5295 1373.9557,-853.9099"/>
<polygon fill="#33a02c" stroke="#33a02c" stroke-width=".6" points="1375.5065,-850.7442 1365.2108,-848.2443 1371.7004,-856.6191 1375.5065,-850.7442"/>
</g>
<!-- EDA -->
<g id="node8" class="node">
<title>EDA</title>
<g id="a_node8"><a xlink:href="EDA.svg" xlink:title="24">
<ellipse fill="#e31a1c" stroke="#e31a1c" cx="1822.879" cy="-204.2132" rx="46.8387" ry="24.0833"/>
<text text-anchor="middle" x="1822.879" y="-198.0132" font-family="Arial" font-size="24.00" fill="#000000">EDA</text>
</a>
</g>
</g>
<!-- Physiological -->
<g id="node9" class="node">
<title>Physiological</title>
<g id="a_node9"><a xlink:href="Physiological.svg" xlink:title="66">
<ellipse fill="#e31a1c" stroke="#e31a1c" cx="1311.1835" cy="-307.2132" rx="143.5854" ry="30.3115"/>
<text text-anchor="middle" x="1311.1835" y="-299.1132" font-family="Arial" font-size="32.00" fill="#000000">Physiological</text>
</a>
</g>
</g>
<!-- EDA&#45;&gt;Physiological -->
<g id="edge7" class="edge">
<title>EDA&#45;&gt;Physiological</title>
<path fill="none" stroke="#e31a1c" stroke-width="4.8" d="M1777.4485,-210.234C1734.237,-216.2021 1667.4848,-226.0492 1610.0399,-237.2132 1544.0247,-250.0428 1470.4693,-267.2344 1412.8505,-281.3695"/>
<polygon fill="#e31a1c" stroke="#e31a1c" stroke-width="4.8" points="1411.7213,-277.322 1403.0151,-283.7906 1413.7292,-285.4785 1411.7213,-277.322"/>
</g>
<!-- Physiological&#45;&gt;performance -->
<g id="edge55" class="edge">
<title>Physiological&#45;&gt;performance</title>
<g id="a_edge55"><a xlink:href="Physiological -> performance.gv.svg">
<path fill="none" stroke="#e31a1c" stroke-width=".4" d="M1192.8634,-324.5933C1179.4995,-330.2262 1166.9084,-337.594 1156.3271,-347.2132 1017.4445,-473.468 1156.0153,-623.4558 1012.3271,-744.2132 990.1988,-762.8101 963.4035,-775.3047 935.3738,-783.541"/>
<polygon fill="#e31a1c" stroke="#e31a1c" stroke-width=".4" points="934.1277,-780.2536 925.4135,-786.2797 935.9836,-787.0031 934.1277,-780.2536"/>
</a>
</g>
</g>
<!-- Physiological&#45;&gt;coordination -->
<g id="edge53" class="edge">
<title>Physiological&#45;&gt;coordination</title>
<g id="a_edge53"><a xlink:href="Physiological -> coordination.gv.svg">
<path fill="none" stroke="#e31a1c" d="M1197.6536,-326.0107C1182.9652,-331.3935 1168.7388,-338.3147 1156.3271,-347.2132 1061.3528,-415.3042 1109.8779,-502.8678 1012.3271,-567.2132 984.8945,-585.308 952.6491,-597.1499 920.1448,-604.7913"/>
<polygon fill="#e31a1c" stroke="#e31a1c" points="919.0584,-601.4471 910.054,-607.0301 920.5747,-608.2809 919.0584,-601.4471"/>
</a>
</g>
</g>
<!-- cognitive engagement -->
<g id="node10" class="node">
<title>cognitive engagement</title>
<g id="a_node10"><a xlink:href="cognitive_engagement.svg" xlink:title="26">
<ellipse fill="#d3d3d3" stroke="#000000" cx="740.7981" cy="-340.2132" rx="177.4676" ry="24.0833"/>
<text text-anchor="middle" x="740.7981" y="-334.0132" font-family="Arial" font-size="24.00" fill="#000000">cognitive engagement</text>
</a>
</g>
</g>
<!-- Physiological&#45;&gt;cognitive engagement -->
<g id="edge8" class="edge">
<title>Physiological&#45;&gt;cognitive engagement</title>
<g id="a_edge8"><a xlink:href="Physiological -> cognitive engagement.gv.svg">
<path fill="none" stroke="#e31a1c" stroke-width="1.2" d="M1172.3809,-315.2437C1094.5879,-319.7445 996.8573,-325.3987 914.0776,-330.188"/>
<polygon fill="#e31a1c" stroke="#e31a1c" stroke-width="1.2" points="913.8401,-326.6958 904.059,-330.7676 914.2445,-333.6841 913.8401,-326.6958"/>
</a>
</g>
</g>
<!-- affective -->
<g id="node11" class="node">
<title>affective</title>
<g id="a_node11"><a xlink:href="affective.svg" xlink:title="20">
<ellipse fill="#d3d3d3" stroke="#000000" cx="740.7981" cy="-275.2132" rx="72.25" ry="23.1702"/>
<text text-anchor="middle" x="740.7981" y="-269.3132" font-family="Arial" font-size="23.00" fill="#000000">affective</text>
</a>
</g>
</g>
<!-- Physiological&#45;&gt;affective -->
<g id="edge10" class="edge">
<title>Physiological&#45;&gt;affective</title>
<g id="a_edge10"><a xlink:href="Physiological -> affective.gv.svg">
<path fill="none" stroke="#e31a1c" stroke-width=".6" d="M1172.3809,-299.426C1062.5665,-293.2652 913.0229,-284.8754 821.8885,-279.7626"/>
<polygon fill="#e31a1c" stroke="#e31a1c" stroke-width=".6" points="822.0711,-276.2674 811.8907,-279.2017 821.6789,-283.2564 822.0711,-276.2674"/>
</a>
</g>
</g>
<!-- Physiological&#45;&gt;learning -->
<g id="edge12" class="edge">
<title>Physiological&#45;&gt;learning</title>
<g id="a_edge12"><a xlink:href="Physiological -> learning.gv.svg">
<path fill="none" stroke="#e31a1c" d="M1194.377,-325.1084C1180.605,-330.6464 1167.5012,-337.851 1156.3271,-347.2132 1038.3335,-446.0743 1135.2494,-569.5519 1012.3271,-662.2132 965.1985,-697.7397 900.1548,-708.4944 845.5434,-710.1277"/>
<polygon fill="#e31a1c" stroke="#e31a1c" points="845.4018,-706.6297 835.4743,-710.3304 845.5428,-713.6283 845.4018,-706.6297"/>
</a>
</g>
</g>
<!-- Physiological&#45;&gt;interpersonal -->
<g id="edge62" class="edge">
<title>Physiological&#45;&gt;interpersonal</title>
<g id="a_edge62"><a xlink:href="Physiological -> interpersonal.gv.svg">
<path fill="none" stroke="#e31a1c" stroke-width="1.2" d="M1206.7294,-328.2138C1189.4777,-333.362 1172.0931,-339.6335 1156.3271,-347.2132 1084.2268,-381.8764 1085.2614,-422.341 1012.3271,-455.2132 989.4711,-465.5147 964.6753,-473.9424 939.6754,-480.8325"/>
<polygon fill="#e31a1c" stroke="#e31a1c" stroke-width="1.2" points="938.4697,-477.5318 929.7129,-483.4958 940.2776,-484.2944 938.4697,-477.5318"/>
</a>
</g>
</g>
<!-- Physiological&#45;&gt;communication -->
<g id="edge64" class="edge">
<title>Physiological&#45;&gt;communication</title>
<g id="a_edge64"><a xlink:href="Physiological -> communication.gv.svg">
<path fill="none" stroke="#e31a1c" stroke-width=".6" d="M1215.6222,-330.0409C1157.1248,-343.5846 1080.6333,-360.5287 1012.3271,-373.2132 972.6806,-380.5756 929.5914,-387.5486 889.6624,-393.5859"/>
<polygon fill="#e31a1c" stroke="#e31a1c" stroke-width=".6" points="888.952,-390.1532 879.583,-395.1003 889.9921,-397.0755 888.952,-390.1532"/>
</a>
</g>
</g>
<!-- cognitive engagement&#45;&gt;process -->
<g id="edge9" class="edge">
<title>cognitive engagement&#45;&gt;process</title>
<path fill="none" stroke="#000000" stroke-width="2.6" d="M582.7078,-351.2751C545.097,-356.1378 505.4057,-363.1375 469.2691,-373.2132 394.2532,-394.1294 314.1536,-430.72 254.6388,-460.9695"/>
<polygon fill="#000000" stroke="#000000" stroke-width="2.6" points="252.947,-457.9035 245.6395,-465.575 256.136,-464.135 252.947,-457.9035"/>
</g>
<!-- affective&#45;&gt;process -->
<g id="edge11" class="edge">
<title>affective&#45;&gt;process</title>
<path fill="none" stroke="#000000" stroke-width="2" d="M668.6471,-274.6453C612.6732,-276.3344 533.9829,-283.431 469.2691,-307.2132 377.7011,-340.8644 286.3623,-406.8659 227.5049,-454.7036"/>
<polygon fill="#000000" stroke="#000000" stroke-width="2" points="224.9364,-452.2832 219.4188,-461.3279 229.3725,-457.6981 224.9364,-452.2832"/>
</g>
<!-- learning&#45;&gt;product -->
<g id="edge13" class="edge">
<title>learning&#45;&gt;product</title>
<path fill="none" stroke="#000000" stroke-width="7.4" d="M646.2967,-710.405C543.6323,-718.2181 379.8554,-730.682 271.7811,-738.9068"/>
<polygon fill="#000000" stroke="#000000" stroke-width="7.4" points="270.9799,-732.474 261.5002,-739.6892 271.9627,-745.3866 270.9799,-732.474"/>
</g>
<!-- learning&#45;&gt;process -->
<g id="edge36" class="edge">
<title>learning&#45;&gt;process</title>
<path fill="none" stroke="#000000" stroke-width=".6" d="M646.1965,-696.1313C593.2631,-690.3917 526.5899,-680.1788 469.2691,-662.2132 391.7121,-637.9052 309.3687,-596.3829 249.5623,-563.0253"/>
<polygon fill="#000000" stroke="#000000" stroke-width=".6" points="250.9669,-559.8 240.5337,-557.956 247.5398,-565.9037 250.9669,-559.8"/>
</g>
<!-- Speech Participation -->
<g id="node13" class="node">
<title>Speech Participation</title>
<g id="a_node13"><a xlink:href="Speech_Participation.svg" xlink:title="63">
<ellipse fill="#1f78b4" stroke="#1f78b4" cx="1822.879" cy="-415.2132" rx="212.6784" ry="29.8983"/>
<text text-anchor="middle" x="1822.879" y="-407.4132" font-family="Arial" font-size="31.00" fill="#000000">Speech Participation</text>
</a>
</g>
</g>
<!-- Verbal -->
<g id="node14" class="node">
<title>Verbal</title>
<g id="a_node14"><a xlink:href="Verbal.svg" xlink:title="266">
<ellipse fill="#1f78b4" stroke="#1f78b4" cx="1311.1835" cy="-416.2132" rx="154.7129" ry="60.2083"/>
<text text-anchor="middle" x="1311.1835" y="-398.7132" font-family="Arial" font-size="70.00" fill="#000000">Verbal</text>
</a>
</g>
</g>
<!-- Speech Participation&#45;&gt;Verbal -->
<g id="edge14" class="edge">
<title>Speech Participation&#45;&gt;Verbal</title>
<path fill="none" stroke="#1f78b4" stroke-width="12.6" d="M1609.9494,-415.6293C1565.3655,-415.7165 1518.9916,-415.8071 1476.4535,-415.8902"/>
<polygon fill="#1f78b4" stroke="#1f78b4" stroke-width="12.6" points="1476.278,-404.8654 1466.2996,-415.9101 1476.3213,-426.9154 1476.278,-404.8654"/>
</g>
<!-- Verbal&#45;&gt;performance -->
<g id="edge22" class="edge">
<title>Verbal&#45;&gt;performance</title>
<g id="a_edge22"><a xlink:href="Verbal -> performance.gv.svg">
<path fill="none" stroke="#1f78b4" stroke-width="3.6" d="M1198.4048,-457.5023C1183.2707,-465.9245 1168.7196,-475.784 1156.3271,-487.2132 1060.0802,-575.9784 1119.0767,-668.4027 1012.3271,-744.2132 988.5697,-761.0851 960.7591,-772.6473 932.1659,-780.4711"/>
<polygon fill="#1f78b4" stroke="#1f78b4" stroke-width="3.6" points="931.2501,-777.0927 922.4438,-782.9833 933.0014,-783.8701 931.2501,-777.0927"/>
</a>
</g>
</g>
<!-- Verbal&#45;&gt;coordination -->
<g id="edge50" class="edge">
<title>Verbal&#45;&gt;coordination</title>
<g id="a_edge50"><a xlink:href="Verbal -> coordination.gv.svg">
<path fill="none" stroke="#1f78b4" stroke-width="3.6" d="M1209.0236,-461.6963C1191.3391,-469.9551 1173.2161,-478.6661 1156.3271,-487.2132 1091.0026,-520.2722 1081.3241,-542.7261 1012.3271,-567.2132 978.1001,-579.3604 940.3123,-588.5235 904.0802,-595.4044"/>
<polygon fill="#1f78b4" stroke="#1f78b4" stroke-width="3.6" points="903.1035,-592.0255 893.9064,-597.2852 904.3761,-598.9089 903.1035,-592.0255"/>
</a>
</g>
</g>
<!-- Verbal&#45;&gt;cognitive engagement -->
<g id="edge28" class="edge">
<title>Verbal&#45;&gt;cognitive engagement</title>
<g id="a_edge28"><a xlink:href="Verbal -> cognitive engagement.gv.svg">
<path fill="none" stroke="#1f78b4" stroke-width=".2" d="M1166.4851,-394.7406C1117.562,-387.6546 1062.6019,-379.8842 1012.3271,-373.2132 971.1214,-367.7455 926.349,-362.1588 885.2665,-357.1737"/>
<polygon fill="#1f78b4" stroke="#1f78b4" stroke-width=".2" points="885.532,-353.6804 875.1838,-355.9533 884.6907,-360.6297 885.532,-353.6804"/>
</a>
</g>
</g>
<!-- Verbal&#45;&gt;affective -->
<g id="edge32" class="edge">
<title>Verbal&#45;&gt;affective</title>
<g id="a_edge32"><a xlink:href="Verbal -> affective.gv.svg">
<path fill="none" stroke="#1f78b4" stroke-width=".4" d="M1207.2058,-371.5248C1150.5684,-348.919 1078.6825,-322.9965 1012.3271,-307.2132 949.5311,-292.2766 876.8322,-284.1791 822.4701,-279.8695"/>
<polygon fill="#1f78b4" stroke="#1f78b4" stroke-width=".4" points="822.4335,-276.3566 812.1954,-279.0827 821.8989,-283.3361 822.4335,-276.3566"/>
</a>
</g>
</g>
<!-- Verbal&#45;&gt;learning -->
<g id="edge35" class="edge">
<title>Verbal&#45;&gt;learning</title>
<g id="a_edge35"><a xlink:href="Verbal -> learning.gv.svg">
<path fill="none" stroke="#1f78b4" stroke-width="1.2" d="M1201.3706,-458.9393C1185.5674,-467.2205 1170.0369,-476.6588 1156.3271,-487.2132 1076.5144,-548.6567 1099.9337,-612.5093 1012.3271,-662.2132 962.7565,-690.3373 900.2713,-701.1356 847.7427,-704.6566"/>
<polygon fill="#1f78b4" stroke="#1f78b4" stroke-width="1.2" points="847.4926,-701.1652 837.7167,-705.2494 847.9059,-708.153 847.4926,-701.1652"/>
</a>
</g>
</g>
<!-- Verbal&#45;&gt;interpersonal -->
<g id="edge15" class="edge">
<title>Verbal&#45;&gt;interpersonal</title>
<g id="a_edge15"><a xlink:href="Verbal -> interpersonal.gv.svg">
<path fill="none" stroke="#1f78b4" stroke-width="7.6" d="M1168.7225,-439.9407C1096.8126,-451.9175 1008.5907,-466.6113 930.9711,-479.5391"/>
<polygon fill="#1f78b4" stroke="#1f78b4" stroke-width="7.6" points="929.8435,-472.9852 921.072,-481.1879 932.0287,-486.1045 929.8435,-472.9852"/>
</a>
</g>
</g>
<!-- Verbal&#45;&gt;group composition -->
<g id="edge19" class="edge">
<title>Verbal&#45;&gt;group composition</title>
<g id="a_edge19"><a xlink:href="Verbal -> group composition.gv.svg">
<path fill="none" stroke="#1f78b4" stroke-width="7.2" d="M1196.2878,-456.601C1181.6336,-465.1225 1167.7808,-475.2495 1156.3271,-487.2132 1038.8672,-609.9037 1144.0485,-733.9786 1012.3271,-841.2132 1001.3344,-850.1624 989.2581,-857.7112 976.4952,-864.0638"/>
<polygon fill="#1f78b4" stroke="#1f78b4" stroke-width="7.2" points="973.461,-858.5285 967.0861,-868.481 978.8155,-869.9341 973.461,-858.5285"/>
</a>
</g>
</g>
<!-- Verbal&#45;&gt;communication -->
<g id="edge65" class="edge">
<title>Verbal&#45;&gt;communication</title>
<g id="a_edge65"><a xlink:href="Verbal -> communication.gv.svg">
<path fill="none" stroke="#1f78b4" stroke-width="2.6" d="M1156.0766,-415.6693C1084.4888,-415.4183 998.9834,-415.1185 924.2184,-414.8563"/>
<polygon fill="#1f78b4" stroke="#1f78b4" stroke-width="2.6" points="924.2274,-411.3565 914.2152,-414.8213 924.2028,-418.3564 924.2274,-411.3565"/>
</a>
</g>
</g>
<!-- interpersonal&#45;&gt;process -->
<g id="edge16" class="edge">
<title>interpersonal&#45;&gt;process</title>
<path fill="none" stroke="#000000" stroke-width="18.2" d="M508.136,-511.2132C450.5338,-511.2132 389.8219,-511.2132 335.6353,-511.2132"/>
<polygon fill="#000000" stroke="#000000" stroke-width="18.2" points="335.5958,-495.2883 325.5957,-511.2132 335.5955,-527.1383 335.5958,-495.2883"/>
</g>
<!-- Combined -->
<g id="node16" class="node">
<title>Combined</title>
<g id="a_node16"><a xlink:href="Combined.svg" xlink:title="6">
<ellipse fill="#e31a1c" stroke="#e31a1c" cx="1822.879" cy="-141.2132" rx="76.2353" ry="21.4286"/>
<text text-anchor="middle" x="1822.879" y="-136.2132" font-family="Arial" font-size="20.00" fill="#000000">Combined</text>
</a>
</g>
</g>
<!-- Combined&#45;&gt;Physiological -->
<g id="edge18" class="edge">
<title>Combined&#45;&gt;Physiological</title>
<path fill="none" stroke="#e31a1c" stroke-width="1.2" d="M1748.3939,-146.4387C1707.0318,-150.6456 1655.0021,-158.1114 1610.0399,-171.2132 1523.5446,-196.4176 1429.942,-242.3361 1370.9743,-273.7862"/>
<polygon fill="#e31a1c" stroke="#e31a1c" stroke-width="1.2" points="1368.9691,-270.8902 1361.8141,-278.7041 1372.2802,-277.0575 1368.9691,-270.8902"/>
</g>
<!-- condition -->
<g id="node18" class="node">
<title>condition</title>
<g id="a_node18"><a xlink:href="condition.svg" xlink:title="69">
<ellipse fill="#d3d3d3" stroke="#000000" cx="162.6346" cy="-891.2132" rx="102.561" ry="30.3115"/>
<text text-anchor="middle" x="162.6346" y="-883.1132" font-family="Arial" font-size="32.00" fill="#000000">condition</text>
</a>
</g>
</g>
<!-- group composition&#45;&gt;condition -->
<g id="edge20" class="edge">
<title>group composition&#45;&gt;condition</title>
<path fill="none" stroke="#000000" stroke-width="13.8" d="M469.0689,-891.2132C400.7681,-891.2132 331.1709,-891.2132 275.6018,-891.2132"/>
<polygon fill="#000000" stroke="#000000" stroke-width="13.8" points="275.3926,-879.1383 265.3925,-891.2132 275.3924,-903.2883 275.3926,-879.1383"/>
</g>
<!-- Speech Features -->
<g id="node19" class="node">
<title>Speech Features</title>
<g id="a_node19"><a xlink:href="Speech_Features.svg" xlink:title="46">
<ellipse fill="#1f78b4" stroke="#1f78b4" cx="1822.879" cy="-340.2132" rx="162.7692" ry="27.6545"/>
<text text-anchor="middle" x="1822.879" y="-333.3132" font-family="Arial" font-size="28.00" fill="#000000">Speech Features</text>
</a>
</g>
</g>
<!-- Speech Features&#45;&gt;Verbal -->
<g id="edge23" class="edge">
<title>Speech Features&#45;&gt;Verbal</title>
<path fill="none" stroke="#1f78b4" stroke-width="9.2" d="M1700.3152,-358.4171C1629.9994,-368.8608 1541.0486,-382.0723 1465.9457,-393.227"/>
<polygon fill="#1f78b4" stroke="#1f78b4" stroke-width="9.2" points="1464.6253,-385.2847 1455.9165,-394.7166 1466.9907,-401.21 1464.6253,-385.2847"/>
</g>
<!-- Facial Expressions -->
<g id="node20" class="node">
<title>Facial Expressions</title>
<g id="a_node20"><a xlink:href="Facial_Expressions.svg" xlink:title="20">
<ellipse fill="#b2df8a" stroke="#b2df8a" cx="1822.879" cy="-547.2132" rx="148.4848" ry="23.1702"/>
<text text-anchor="middle" x="1822.879" y="-541.3132" font-family="Arial" font-size="23.00" fill="#000000">Facial Expressions</text>
</a>
</g>
</g>
<!-- Head -->
<g id="node21" class="node">
<title>Head</title>
<g id="a_node21"><a xlink:href="Head.svg" xlink:title="52">
<ellipse fill="#b2df8a" stroke="#b2df8a" cx="1311.1835" cy="-524.2132" rx="60.623" ry="28.0702"/>
<text text-anchor="middle" x="1311.1835" y="-517.0132" font-family="Arial" font-size="29.00" fill="#000000">Head</text>
</a>
</g>
</g>
<!-- Facial Expressions&#45;&gt;Head -->
<g id="edge24" class="edge">
<title>Facial Expressions&#45;&gt;Head</title>
<path fill="none" stroke="#b2df8a" stroke-width="4" d="M1680.0032,-540.7911C1582.7986,-536.4219 1458.3708,-530.8291 1381.7512,-527.3851"/>
<polygon fill="#b2df8a" stroke="#b2df8a" stroke-width="4" points="1381.8741,-523.8872 1371.727,-526.9345 1381.5597,-530.8801 1381.8741,-523.8872"/>
</g>
<!-- Head&#45;&gt;performance -->
<g id="edge59" class="edge">
<title>Head&#45;&gt;performance</title>
<g id="a_edge59"><a xlink:href="Head -> performance.gv.svg">
<path fill="none" stroke="#b2df8a" stroke-width=".6" d="M1252.0765,-530.8929C1221.5834,-536.4691 1184.8972,-546.6546 1156.3271,-565.2132 1070.7028,-620.833 1100.2075,-692.2312 1012.3271,-744.2132 986.7846,-759.3219 957.6901,-769.9279 928.2619,-777.326"/>
<polygon fill="#b2df8a" stroke="#b2df8a" stroke-width=".6" points="927.1859,-773.9846 918.2738,-779.7139 928.8135,-780.7927 927.1859,-773.9846"/>
</a>
</g>
</g>
<!-- Head&#45;&gt;coordination -->
<g id="edge60" class="edge">
<title>Head&#45;&gt;coordination</title>
<g id="a_edge60"><a xlink:href="Head -> coordination.gv.svg">
<path fill="none" stroke="#b2df8a" stroke-width=".4" d="M1253.6174,-533.3974C1169.497,-546.8181 1010.0855,-572.2508 891.227,-591.2136"/>
<polygon fill="#b2df8a" stroke="#b2df8a" stroke-width=".4" points="890.6251,-587.7653 881.3015,-592.7971 891.728,-594.6778 890.6251,-587.7653"/>
</a>
</g>
</g>
<!-- Head&#45;&gt;cognitive engagement -->
<g id="edge29" class="edge">
<title>Head&#45;&gt;cognitive engagement</title>
<g id="a_edge29"><a xlink:href="Head -> cognitive engagement.gv.svg">
<path fill="none" stroke="#b2df8a" stroke-width=".2" d="M1253.302,-515.5329C1223.3209,-509.5959 1186.7262,-500.0434 1156.3271,-485.2132 1083.457,-449.6636 1087.2873,-404.1129 1012.3271,-373.2132 984.0016,-361.537 952.7073,-353.6501 921.7396,-348.3842"/>
<polygon fill="#b2df8a" stroke="#b2df8a" stroke-width=".2" points="922.1305,-344.9021 911.7008,-346.7651 921.0159,-351.8128 922.1305,-344.9021"/>
</a>
</g>
</g>
<!-- Head&#45;&gt;affective -->
<g id="edge33" class="edge">
<title>Head&#45;&gt;affective</title>
<g id="a_edge33"><a xlink:href="Head -> affective.gv.svg">
<path fill="none" stroke="#b2df8a" stroke-width=".2" d="M1251.3674,-518.2505C1221.0344,-513.0587 1184.711,-503.3526 1156.3271,-485.2132 1070.5838,-430.4168 1101.434,-356.351 1012.3271,-307.2132 953.8042,-274.9409 877.5216,-268.4877 820.7166,-269.2152"/>
<polygon fill="#b2df8a" stroke="#b2df8a" stroke-width=".2" points="820.6298,-265.7161 810.7034,-269.4199 820.7729,-272.7147 820.6298,-265.7161"/>
</a>
</g>
</g>
<!-- Head&#45;&gt;learning -->
<g id="edge37" class="edge">
<title>Head&#45;&gt;learning</title>
<g id="a_edge37"><a xlink:href="Head -> learning.gv.svg">
<path fill="none" stroke="#b2df8a" stroke-width=".2" d="M1254.4467,-534.4724C1224.4458,-541.0667 1187.4802,-551.0835 1156.3271,-565.2132 1086.0518,-597.0871 1084.2338,-634.2132 1012.3271,-662.2132 960.0577,-682.5666 898.4794,-692.8717 847.1896,-698.0656"/>
<polygon fill="#b2df8a" stroke="#b2df8a" stroke-width=".2" points="846.6939,-694.597 837.0746,-699.0377 847.3636,-701.5649 846.6939,-694.597"/>
</a>
</g>
</g>
<!-- Head&#45;&gt;interpersonal -->
<g id="edge25" class="edge">
<title>Head&#45;&gt;interpersonal</title>
<g id="a_edge25"><a xlink:href="Head -> interpersonal.gv.svg">
<path fill="none" stroke="#b2df8a" stroke-width="2.6" d="M1250.4125,-522.8281C1186.1666,-521.3639 1080.7081,-518.9603 982.3445,-516.7184"/>
<polygon fill="#b2df8a" stroke="#b2df8a" stroke-width="2.6" points="982.3144,-513.2169 972.2372,-516.4881 982.1548,-520.2151 982.3144,-513.2169"/>
</a>
</g>
</g>
<!-- Head&#45;&gt;group composition -->
<g id="edge49" class="edge">
<title>Head&#45;&gt;group composition</title>
<g id="a_edge49"><a xlink:href="Head -> group composition.gv.svg">
<path fill="none" stroke="#b2df8a" stroke-width=".6" d="M1250.8568,-528.6183C1219.8392,-533.5546 1183.0469,-543.8539 1156.3271,-565.2132 1048.2548,-651.6046 1123.6331,-759.03 1012.3271,-841.2132 1000.4214,-850.0038 987.438,-857.4013 973.8099,-863.6139"/>
<polygon fill="#b2df8a" stroke="#b2df8a" stroke-width=".6" points="972.0717,-860.5519 964.2773,-867.7281 974.8457,-866.9788 972.0717,-860.5519"/>
</a>
</g>
</g>
<!-- Head&#45;&gt;communication -->
<g id="edge57" class="edge">
<title>Head&#45;&gt;communication</title>
<g id="a_edge57"><a xlink:href="Head -> communication.gv.svg">
<path fill="none" stroke="#b2df8a" stroke-width=".2" d="M1257.7296,-510.5606C1198.1381,-495.6475 1098.7655,-471.6922 1012.3271,-455.2132 972.9321,-447.7027 930.1085,-440.7011 890.3634,-434.6848"/>
<polygon fill="#b2df8a" stroke="#b2df8a" stroke-width=".2" points="890.7381,-431.2019 880.3289,-433.1767 889.6977,-438.1241 890.7381,-431.2019"/>
</a>
</g>
</g>
<!-- Speech Content -->
<g id="node22" class="node">
<title>Speech Content</title>
<g id="a_node22"><a xlink:href="Speech_Content.svg" xlink:title="24">
<ellipse fill="#1f78b4" stroke="#1f78b4" cx="1822.879" cy="-270.2132" rx="133.7865" ry="24.0833"/>
<text text-anchor="middle" x="1822.879" y="-264.0132" font-family="Arial" font-size="24.00" fill="#000000">Speech Content</text>
</a>
</g>
</g>
<!-- Speech Content&#45;&gt;Verbal -->
<g id="edge26" class="edge">
<title>Speech Content&#45;&gt;Verbal</title>
<path fill="none" stroke="#1f78b4" stroke-width="4.8" d="M1710.1362,-283.2365C1677.5512,-288.1976 1642.1305,-294.7569 1610.0399,-303.2132 1547.0385,-319.815 1478.9374,-344.9698 1423.6782,-367.3345"/>
<polygon fill="#1f78b4" stroke="#1f78b4" stroke-width="4.8" points="1421.8979,-363.5245 1414.2202,-371.1858 1425.0658,-371.3043 1421.8979,-363.5245"/>
</g>
<!-- Hand Motion -->
<g id="node23" class="node">
<title>Hand Motion</title>
<g id="a_node23"><a xlink:href="Hand_Motion.svg" xlink:title="16">
<ellipse fill="#a6cee3" stroke="#a6cee3" cx="1822.879" cy="-743.2132" rx="99.9045" ry="22.7556"/>
<text text-anchor="middle" x="1822.879" y="-737.6132" font-family="Arial" font-size="22.00" fill="#000000">Hand Motion</text>
</a>
</g>
</g>
<!-- Body -->
<g id="node24" class="node">
<title>Body</title>
<g id="a_node24"><a xlink:href="Body.svg" xlink:title="116">
<ellipse fill="#a6cee3" stroke="#a6cee3" cx="1311.1835" cy="-611.2132" rx="77.5641" ry="37.4533"/>
<text text-anchor="middle" x="1311.1835" y="-600.9132" font-family="Arial" font-size="41.00" fill="#000000">Body</text>
</a>
</g>
</g>
<!-- Hand Motion&#45;&gt;Body -->
<g id="edge30" class="edge">
<title>Hand Motion&#45;&gt;Body</title>
<path fill="none" stroke="#a6cee3" stroke-width="3.2" d="M1731.9347,-733.8006C1693.9,-728.7681 1649.4626,-721.4476 1610.0399,-711.2132 1543.8809,-694.0378 1530.8408,-678.9582 1466.0399,-657.2132 1440.9239,-648.7851 1413.2589,-640.3138 1388.3455,-632.9786"/>
<polygon fill="#a6cee3" stroke="#a6cee3" stroke-width="3.2" points="1389.1627,-629.571 1378.5822,-630.1203 1387.196,-636.289 1389.1627,-629.571"/>
</g>
<!-- Body&#45;&gt;performance -->
<g id="edge44" class="edge">
<title>Body&#45;&gt;performance</title>
<g id="a_edge44"><a xlink:href="Body -> performance.gv.svg">
<path fill="none" stroke="#a6cee3" stroke-width="2.8" d="M1241.2242,-627.9218C1214.1535,-635.4327 1183.2624,-645.31 1156.3271,-657.2132 1087.934,-687.4373 1082.3281,-717.9267 1012.3271,-744.2132 981.6634,-755.7279 947.9942,-764.5164 915.1165,-771.2133"/>
<polygon fill="#a6cee3" stroke="#a6cee3" stroke-width="2.8" points="914.0737,-767.8517 904.9427,-773.2253 915.4318,-774.7187 914.0737,-767.8517"/>
</a>
</g>
</g>
<!-- Body&#45;&gt;coordination -->
<g id="edge54" class="edge">
<title>Body&#45;&gt;coordination</title>
<g id="a_edge54"><a xlink:href="Body -> coordination.gv.svg">
<path fill="none" stroke="#a6cee3" stroke-width="1.6" d="M1233.3677,-611.7589C1154.2204,-612.314 1028.6866,-613.1943 924.1609,-613.9273"/>
<polygon fill="#a6cee3" stroke="#a6cee3" stroke-width="1.6" points="924.0885,-610.4276 914.1133,-613.9978 924.1376,-617.4275 924.0885,-610.4276"/>
</a>
</g>
</g>
<!-- Body&#45;&gt;cognitive engagement -->
<g id="edge31" class="edge">
<title>Body&#45;&gt;cognitive engagement</title>
<g id="a_edge31"><a xlink:href="Body -> cognitive engagement.gv.svg">
<path fill="none" stroke="#a6cee3" stroke-width=".8" d="M1238.404,-597.4044C1210.966,-589.8073 1180.5604,-578.3217 1156.3271,-561.2132 1070.3459,-500.511 1103.7146,-425.423 1012.3271,-373.2132 986.766,-358.6101 957.6621,-349.1444 928.23,-343.1842"/>
<polygon fill="#a6cee3" stroke="#a6cee3" stroke-width=".8" points="928.717,-339.7143 918.2407,-341.295 927.4161,-346.5924 928.717,-339.7143"/>
</a>
</g>
</g>
<!-- Body&#45;&gt;affective -->
<g id="edge34" class="edge">
<title>Body&#45;&gt;affective</title>
<g id="a_edge34"><a xlink:href="Body -> affective.gv.svg">
<path fill="none" stroke="#a6cee3" stroke-width=".8" d="M1237.1138,-599.1044C1209.5077,-591.7288 1179.3242,-579.9505 1156.3271,-561.2132 1055.7236,-479.2447 1120.4322,-378.9989 1012.3271,-307.2132 955.4402,-269.4382 876.7406,-264.0138 818.7091,-266.5098"/>
<polygon fill="#a6cee3" stroke="#a6cee3" stroke-width=".8" points="818.2943,-263.0265 808.489,-267.0397 818.6568,-270.0171 818.2943,-263.0265"/>
</a>
</g>
</g>
<!-- Body&#45;&gt;learning -->
<g id="edge38" class="edge">
<title>Body&#45;&gt;learning</title>
<g id="a_edge38"><a xlink:href="Body -> learning.gv.svg">
<path fill="none" stroke="#a6cee3" stroke-width="1.4" d="M1237.8644,-624.1281C1177.4044,-634.681 1089.3685,-649.8243 1012.3271,-662.2132 955.1811,-671.4028 891.1686,-681.0973 839.655,-688.7511"/>
<polygon fill="#a6cee3" stroke="#a6cee3" stroke-width="1.4" points="838.9028,-685.3243 829.5246,-690.2539 839.93,-692.2485 838.9028,-685.3243"/>
</a>
</g>
</g>
<!-- Body&#45;&gt;interpersonal -->
<g id="edge61" class="edge">
<title>Body&#45;&gt;interpersonal</title>
<g id="a_edge61"><a xlink:href="Body -> interpersonal.gv.svg">
<path fill="none" stroke="#a6cee3" stroke-width="1.2" d="M1238.0741,-598.3957C1160.0232,-584.7118 1033.2506,-562.486 927.2439,-543.9009"/>
<polygon fill="#a6cee3" stroke="#a6cee3" stroke-width="1.2" points="927.8328,-540.4508 917.3786,-542.1713 926.6239,-547.3457 927.8328,-540.4508"/>
</a>
</g>
</g>
<!-- Body&#45;&gt;group composition -->
<g id="edge47" class="edge">
<title>Body&#45;&gt;group composition</title>
<g id="a_edge47"><a xlink:href="Body -> group composition.gv.svg">
<path fill="none" stroke="#a6cee3" stroke-width="2.2" d="M1237.3404,-623.3448C1210.2262,-630.2312 1180.3214,-640.877 1156.3271,-657.2132 1070.4891,-715.6549 1101.158,-787.4295 1012.3271,-841.2132 998.1026,-849.8256 982.7469,-857.0221 966.828,-863.0281"/>
<polygon fill="#a6cee3" stroke="#a6cee3" stroke-width="2.2" points="965.615,-859.7448 957.3944,-866.4285 967.9887,-866.3301 965.615,-859.7448"/>
</a>
</g>
</g>
<!-- Body&#45;&gt;communication -->
<g id="edge68" class="edge">
<title>Body&#45;&gt;communication</title>
<g id="a_edge68"><a xlink:href="Body -> communication.gv.svg">
<path fill="none" stroke="#a6cee3" stroke-width=".6" d="M1241.8278,-594.009C1214.4043,-585.8893 1183.1055,-574.9316 1156.3271,-561.2132 1085.5983,-524.9794 1085.7626,-485.589 1012.3271,-455.2132 981.2522,-442.3594 946.6873,-433.4762 912.9149,-427.3515"/>
<polygon fill="#a6cee3" stroke="#a6cee3" stroke-width=".6" points="913.3927,-423.8821 902.9409,-425.6172 912.1935,-430.7786 913.3927,-423.8821"/>
</a>
</g>
</g>
<!-- Task&#45;related -->
<g id="node25" class="node">
<title>Task&#45;related</title>
<g id="a_node25"><a xlink:href="Task-related.svg" xlink:title="39">
<ellipse fill="#fb9a99" stroke="#fb9a99" cx="1822.879" cy="-937.2132" rx="118.1737" ry="26.7407"/>
<text text-anchor="middle" x="1822.879" y="-930.6132" font-family="Arial" font-size="27.00" fill="#000000">Task&#45;related</text>
</a>
</g>
</g>
<!-- Log Data -->
<g id="node26" class="node">
<title>Log Data</title>
<g id="a_node26"><a xlink:href="Log_Data.svg" xlink:title="134">
<ellipse fill="#fb9a99" stroke="#fb9a99" cx="1311.1835" cy="-707.2132" rx="140.9288" ry="41.0244"/>
<text text-anchor="middle" x="1311.1835" y="-696.2132" font-family="Arial" font-size="45.00" fill="#000000">Log Data</text>
</a>
</g>
</g>
<!-- Task&#45;related&#45;&gt;Log Data -->
<g id="edge39" class="edge">
<title>Task&#45;related&#45;&gt;Log Data</title>
<path fill="none" stroke="#fb9a99" stroke-width="7.8" d="M1707.9929,-930.903C1675.02,-925.6745 1639.9283,-916.6398 1610.0399,-901.2132 1529.6115,-859.7008 1543.2557,-804.4331 1466.0399,-757.2132 1453.9965,-749.8483 1440.7546,-743.4535 1427.2411,-737.9307"/>
<polygon fill="#fb9a99" stroke="#fb9a99" stroke-width="7.8" points="1429.656,-731.5467 1417.8535,-734.2454 1424.6679,-744.2527 1429.656,-731.5467"/>
</g>
<!-- Log Data&#45;&gt;performance -->
<g id="edge40" class="edge">
<title>Log Data&#45;&gt;performance</title>
<g id="a_edge40"><a xlink:href="Log Data -> performance.gv.svg">
<path fill="none" stroke="#fb9a99" stroke-width="3" d="M1185.6571,-725.9194C1102.7464,-738.2749 993.272,-754.589 903.6716,-767.9415"/>
<polygon fill="#fb9a99" stroke="#fb9a99" stroke-width="3" points="903.056,-764.4945 893.6811,-769.4303 904.0878,-771.418 903.056,-764.4945"/>
</a>
</g>
</g>
<!-- Log Data&#45;&gt;coordination -->
<g id="edge52" class="edge">
<title>Log Data&#45;&gt;coordination</title>
<g id="a_edge52"><a xlink:href="Log Data -> coordination.gv.svg">
<path fill="none" stroke="#fb9a99" stroke-width="2.2" d="M1187.7697,-687.3072C1100.6174,-673.2501 983.3469,-654.335 890.7929,-639.4065"/>
<polygon fill="#fb9a99" stroke="#fb9a99" stroke-width="2.2" points="891.2065,-635.9281 880.7767,-637.791 890.0918,-642.8388 891.2065,-635.9281"/>
</a>
</g>
</g>
<!-- Log Data&#45;&gt;cognitive engagement -->
<g id="edge70" class="edge">
<title>Log Data&#45;&gt;cognitive engagement</title>
<g id="a_edge70"><a xlink:href="Log Data -> cognitive engagement.gv.svg">
<path fill="none" stroke="#fb9a99" stroke-width=".2" d="M1198.1363,-682.5058C1183.0405,-675.9525 1168.5715,-667.6723 1156.3271,-657.2132 1048.7199,-565.2962 1128.2238,-454.429 1012.3271,-373.2132 986.9735,-355.4464 956.9235,-344.5886 926.2132,-338.2731"/>
<polygon fill="#fb9a99" stroke="#fb9a99" stroke-width=".2" points="926.7013,-334.8033 916.2243,-336.3792 925.3973,-341.6808 926.7013,-334.8033"/>
</a>
</g>
</g>
<!-- Log Data&#45;&gt;learning -->
<g id="edge42" class="edge">
<title>Log Data&#45;&gt;learning</title>
<g id="a_edge42"><a xlink:href="Log Data -> learning.gv.svg">
<path fill="none" stroke="#fb9a99" stroke-width="1.6" d="M1170.1893,-706.2244C1070.5035,-705.5254 938.9204,-704.6026 847.8122,-703.9637"/>
<polygon fill="#fb9a99" stroke="#fb9a99" stroke-width="1.6" points="847.7648,-700.4634 837.7404,-703.893 847.7156,-707.4632 847.7648,-700.4634"/>
</a>
</g>
</g>
<!-- Log Data&#45;&gt;interpersonal -->
<g id="edge63" class="edge">
<title>Log Data&#45;&gt;interpersonal</title>
<g id="a_edge63"><a xlink:href="Log Data -> interpersonal.gv.svg">
<path fill="none" stroke="#fb9a99" stroke-width="2.4" d="M1210.2802,-678.5392C1192.0241,-672.2565 1173.3809,-665.0954 1156.3271,-657.2132 1088.0319,-625.6473 1082.1902,-596.138 1012.3271,-568.2132 987.4301,-558.2617 960.5225,-549.9429 933.6558,-543.0174"/>
<polygon fill="#fb9a99" stroke="#fb9a99" stroke-width="2.4" points="934.315,-539.5742 923.7632,-540.5284 932.607,-546.3626 934.315,-539.5742"/>
</a>
</g>
</g>
<!-- Log Data&#45;&gt;group composition -->
<g id="edge46" class="edge">
<title>Log Data&#45;&gt;group composition</title>
<g id="a_edge46"><a xlink:href="Log Data -> group composition.gv.svg">
<path fill="none" stroke="#fb9a99" stroke-width="1.8" d="M1210.8553,-736.1052C1192.4521,-742.3869 1173.609,-749.4916 1156.3271,-757.2132 1088.6795,-787.4385 1081.7979,-815.453 1012.3271,-841.2132 992.0608,-848.7281 970.5091,-855.1469 948.7539,-860.6226"/>
<polygon fill="#fb9a99" stroke="#fb9a99" stroke-width="1.8" points="947.6284,-857.2948 938.7478,-863.0727 949.2933,-864.0939 947.6284,-857.2948"/>
</a>
</g>
</g>
<!-- Log Data&#45;&gt;communication -->
<g id="edge66" class="edge">
<title>Log Data&#45;&gt;communication</title>
<g id="a_edge66"><a xlink:href="Log Data -> communication.gv.svg">
<path fill="none" stroke="#fb9a99" stroke-width="2.2" d="M1201.1058,-681.4475C1185.2526,-675.022 1169.7769,-667.0588 1156.3271,-657.2132 1067.362,-592.0883 1106.2829,-512.9052 1012.3271,-455.2132 985.1736,-438.54 953.6906,-427.7782 921.9895,-420.9776"/>
<polygon fill="#fb9a99" stroke="#fb9a99" stroke-width="2.2" points="922.6436,-417.5391 912.1489,-418.9921 921.2591,-424.4008 922.6436,-417.5391"/>
</a>
</g>
</g>
<!-- Text -->
<g id="node27" class="node">
<title>Text</title>
<g id="a_node27"><a xlink:href="Text.svg" xlink:title="17">
<ellipse fill="#fb9a99" stroke="#fb9a99" cx="1822.879" cy="-869.2132" rx="43.2674" ry="23.1702"/>
<text text-anchor="middle" x="1822.879" y="-863.3132" font-family="Arial" font-size="23.00" fill="#000000">Text</text>
</a>
</g>
</g>
<!-- Text&#45;&gt;Log Data -->
<g id="edge41" class="edge">
<title>Text&#45;&gt;Log Data</title>
<path fill="none" stroke="#fb9a99" stroke-width="3.4" d="M1779.8216,-867.246C1736.0585,-864.2133 1666.8128,-856.543 1610.0399,-837.2132 1540.7335,-813.6161 1533.194,-786.377 1466.0399,-757.2132 1451.5548,-750.9226 1436.0121,-744.9952 1420.5644,-739.5724"/>
<polygon fill="#fb9a99" stroke="#fb9a99" stroke-width="3.4" points="1421.5633,-736.2146 1410.9686,-736.2624 1419.2807,-742.832 1421.5633,-736.2146"/>
</g>
<!-- Gross Body Motion -->
<g id="node28" class="node">
<title>Gross Body Motion</title>
<g id="a_node28"><a xlink:href="Gross_Body_Motion.svg" xlink:title="29">
<ellipse fill="#a6cee3" stroke="#a6cee3" cx="1822.879" cy="-677.2132" rx="161.8549" ry="25.4118"/>
<text text-anchor="middle" x="1822.879" y="-671.2132" font-family="Arial" font-size="25.00" fill="#000000">Gross Body Motion</text>
</a>
</g>
</g>
<!-- Gross Body Motion&#45;&gt;Body -->
<g id="edge43" class="edge">
<title>Gross Body Motion&#45;&gt;Body</title>
<path fill="none" stroke="#a6cee3" stroke-width="5.8" d="M1697.3767,-661.0255C1603.9253,-648.9719 1478.8169,-632.8351 1396.6654,-622.2389"/>
<polygon fill="#a6cee3" stroke="#a6cee3" stroke-width="5.8" points="1397.1827,-617.1887 1386.6156,-620.9427 1395.8842,-627.2553 1397.1827,-617.1887"/>
</g>
<!-- Location -->
<g id="node29" class="node">
<title>Location</title>
<g id="a_node29"><a xlink:href="Location.svg" xlink:title="13">
<ellipse fill="#a6cee3" stroke="#a6cee3" cx="1822.879" cy="-611.2132" rx="70.922" ry="22.7556"/>
<text text-anchor="middle" x="1822.879" y="-605.6132" font-family="Arial" font-size="22.00" fill="#000000">Location</text>
</a>
</g>
</g>
<!-- Location&#45;&gt;Body -->
<g id="edge45" class="edge">
<title>Location&#45;&gt;Body</title>
<path fill="none" stroke="#a6cee3" stroke-width="2.6" d="M1751.9988,-611.2132C1659.9479,-611.2132 1499.2718,-611.2132 1399.4214,-611.2132"/>
<polygon fill="#a6cee3" stroke="#a6cee3" stroke-width="2.6" points="1399.3543,-607.7133 1389.3542,-611.2132 1399.3542,-614.7133 1399.3543,-607.7133"/>
</g>
<!-- Head Motion -->
<g id="node30" class="node">
<title>Head Motion</title>
<g id="a_node30"><a xlink:href="Head_Motion.svg" xlink:title="6">
<ellipse fill="#b2df8a" stroke="#b2df8a" cx="1822.879" cy="-484.2132" rx="91.8478" ry="21.4286"/>
<text text-anchor="middle" x="1822.879" y="-479.2132" font-family="Arial" font-size="20.00" fill="#000000">Head Motion</text>
</a>
</g>
</g>
<!-- Head Motion&#45;&gt;Head -->
<g id="edge48" class="edge">
<title>Head Motion&#45;&gt;Head</title>
<path fill="none" stroke="#b2df8a" stroke-width="1.2" d="M1735.787,-491.0213C1635.8315,-498.835 1473.8445,-511.4978 1381.5301,-518.7141"/>
<polygon fill="#b2df8a" stroke="#b2df8a" stroke-width="1.2" points="1381.1457,-515.2334 1371.449,-519.5022 1381.6913,-522.2121 1381.1457,-515.2334"/>
</g>
<!-- Touch -->
<g id="node31" class="node">
<title>Touch</title>
<g id="a_node31"><a xlink:href="Touch.svg" xlink:title="11">
<ellipse fill="#fb9a99" stroke="#fb9a99" cx="1822.879" cy="-806.2132" rx="53.066" ry="21.8409"/>
<text text-anchor="middle" x="1822.879" y="-800.9132" font-family="Arial" font-size="21.00" fill="#000000">Touch</text>
</a>
</g>
</g>
<!-- Touch&#45;&gt;Log Data -->
<g id="edge51" class="edge">
<title>Touch&#45;&gt;Log Data</title>
<path fill="none" stroke="#fb9a99" stroke-width="2.2" d="M1771.9476,-799.9461C1728.7126,-794.3511 1665.1043,-785.4712 1610.0399,-775.2132 1549.8353,-763.9977 1483.3603,-749.1228 1428.421,-736.1456"/>
<polygon fill="#fb9a99" stroke="#fb9a99" stroke-width="2.2" points="1429.1914,-732.7313 1418.6537,-733.8299 1427.5765,-739.5425 1429.1914,-732.7313"/>
</g>
<!-- Heart -->
<g id="node32" class="node">
<title>Heart</title>
<g id="a_node32"><a xlink:href="Heart.svg" xlink:title="1">
<ellipse fill="#e31a1c" stroke="#e31a1c" cx="1822.879" cy="-81.2132" rx="45.9239" ry="21.4286"/>
<text text-anchor="middle" x="1822.879" y="-76.2132" font-family="Arial" font-size="20.00" fill="#000000">Heart</text>
</a>
</g>
</g>
<!-- Heart&#45;&gt;Physiological -->
<g id="edge56" class="edge">
<title>Heart&#45;&gt;Physiological</title>
<path fill="none" stroke="#e31a1c" stroke-width=".2" d="M1776.6047,-81.9371C1732.4963,-83.9566 1664.8661,-90.561 1610.0399,-111.2132 1509.3155,-149.1546 1407.8728,-225.6719 1352.9338,-271.065"/>
<polygon fill="#e31a1c" stroke="#e31a1c" stroke-width=".2" points="1350.6166,-268.4399 1345.1711,-277.5282 1355.0956,-273.8195 1350.6166,-268.4399"/>
</g>
<!-- communication&#45;&gt;process -->
<g id="edge58" class="edge">
<title>communication&#45;&gt;process</title>
<path fill="none" stroke="#000000" stroke-width="8" d="M604.6222,-433.9369C561.3097,-440.4348 513.2378,-447.8805 469.2691,-455.2132 418.3511,-463.7049 362.8044,-473.6436 313.1482,-482.7719"/>
<polygon fill="#000000" stroke="#000000" stroke-width="8" points="311.8651,-475.8904 303.2986,-484.5861 314.4012,-489.6588 311.8651,-475.8904"/>
</g>
<!-- Brain -->
<g id="node34" class="node">
<title>Brain</title>
<g id="a_node34"><a xlink:href="Brain.svg" xlink:title="2">
<ellipse fill="#e31a1c" stroke="#e31a1c" cx="1822.879" cy="-21.2132" rx="44.5955" ry="21.4286"/>
<text text-anchor="middle" x="1822.879" y="-16.2132" font-family="Arial" font-size="20.00" fill="#000000">Brain</text>
</a>
</g>
</g>
<!-- Brain&#45;&gt;Physiological -->
<g id="edge67" class="edge">
<title>Brain&#45;&gt;Physiological</title>
<path fill="none" stroke="#e31a1c" stroke-width=".4" d="M1778.0739,-20.3456C1733.5572,-21.0997 1664.2851,-26.7169 1610.0399,-51.2132 1496.1613,-102.639 1392.4573,-211.253 1342.5165,-269.0906"/>
<polygon fill="#e31a1c" stroke="#e31a1c" stroke-width=".4" points="1339.6733,-267.0299 1335.831,-276.9035 1344.9919,-271.581 1339.6733,-267.0299"/>
</g>
</g>
</svg>
