<?xml version="1.0" encoding="UTF-8" standalone="no"?>
<!DOCTYPE svg PUBLIC "-//W3C//DTD SVG 1.1//EN"
 "http://www.w3.org/Graphics/SVG/1.1/DTD/svg11.dtd">
<!-- Generated by graphviz version 2.47.0 (20210316.0004)
 -->
<!-- Title: Test Pages: 1 -->
<svg width="489pt" height="314pt"
 viewBox="0.00 0.00 488.56 314.00" xmlns="http://www.w3.org/2000/svg" xmlns:xlink="http://www.w3.org/1999/xlink">
<g id="graph0" class="graph" transform="scale(1 1) rotate(0) translate(4 310)">
<title>Test</title>
<polygon fill="white" stroke="transparent" points="-4,4 -4,-310 484.56,-310 484.56,4 -4,4"/>
<!-- amount of exploration -->
<g id="node1" class="node">
<title>amount of exploration</title>
<g id="a_node1"><a xlink:href="https://scholar.google.com/scholar?hl=en&amp;q=Unraveling%20Students&#39;%20Interaction%20around%20a%20Tangible%20Interface%20Using%20Multimodal%20Learning%20Analytics." xlink:title="amount of exploration">
<ellipse fill="none" stroke="black" cx="384.37" cy="-72" rx="89.88" ry="18"/>
<text text-anchor="middle" x="384.37" y="-68.3" font-family="Times,serif" font-size="14.00">amount of exploration</text>
</a>
</g>
</g>
<!-- learning gain group (high or low -->
<g id="node7" class="node">
<title>learning gain group (high or low</title>
<ellipse fill="none" stroke="black" cx="126.09" cy="-72" rx="126.18" ry="18"/>
<text text-anchor="middle" x="126.09" y="-68.3" font-family="Times,serif" font-size="14.00">learning gain group (high or low</text>
</g>
<!-- amount of exploration&#45;&gt;learning gain group (high or low -->
<g id="edge7" class="edge">
<title>amount of exploration&#45;&gt;learning gain group (high or low</title>
<path fill="none" stroke="black" d="M294.45,-72C284.16,-72 273.48,-72 262.74,-72"/>
<polygon fill="black" stroke="black" points="262.43,-68.5 252.43,-72 262.43,-75.5 262.43,-68.5"/>
</g>
<!-- learning gains -->
<g id="node8" class="node">
<title>learning gains</title>
<ellipse fill="none" stroke="black" cx="126.09" cy="-18" rx="60.39" ry="18"/>
<text text-anchor="middle" x="126.09" y="-14.3" font-family="Times,serif" font-size="14.00">learning gains</text>
</g>
<!-- amount of exploration&#45;&gt;learning gains -->
<g id="edge5" class="edge">
<title>amount of exploration&#45;&gt;learning gains</title>
<path fill="none" stroke="black" d="M321.98,-59.07C280.67,-50.36 226.51,-38.95 185.77,-30.36"/>
<polygon fill="black" stroke="black" points="186.49,-26.94 175.98,-28.3 185.05,-33.79 186.49,-26.94"/>
</g>
<!-- Coherence metrics -->
<g id="node2" class="node">
<title>Coherence metrics</title>
<g id="a_node2"><a xlink:href="https://scholar.google.com/scholar?hl=en&amp;q=The%20Effect%20of%20Mutual%20Gaze%20Perception%20on%20Students’%20Verbal%20Coordination" xlink:title="Coherence metrics">
<ellipse fill="none" stroke="black" cx="384.37" cy="-288" rx="77.19" ry="18"/>
<text text-anchor="middle" x="384.37" y="-284.3" font-family="Times,serif" font-size="14.00">Coherence metrics</text>
</a>
</g>
</g>
<!-- Learning gains -->
<g id="node9" class="node">
<title>Learning gains</title>
<ellipse fill="none" stroke="black" cx="126.09" cy="-207" rx="63.89" ry="18"/>
<text text-anchor="middle" x="126.09" y="-203.3" font-family="Times,serif" font-size="14.00">Learning gains</text>
</g>
<!-- Coherence metrics&#45;&gt;Learning gains -->
<g id="edge2" class="edge">
<title>Coherence metrics&#45;&gt;Learning gains</title>
<path fill="none" stroke="black" d="M333.34,-274.29C318.74,-270.16 302.78,-265.52 288.18,-261 250.51,-249.35 208.26,-235.14 176.48,-224.23"/>
<polygon fill="black" stroke="black" points="177.57,-220.9 166.97,-220.95 175.29,-227.52 177.57,-220.9"/>
</g>
<!-- Convergence measures -->
<g id="node3" class="node">
<title>Convergence measures</title>
<g id="a_node3"><a xlink:href="https://scholar.google.com/scholar?hl=en&amp;q=The%20Effect%20of%20Mutual%20Gaze%20Perception%20on%20Students’%20Verbal%20Coordination" xlink:title="Convergence measures">
<ellipse fill="none" stroke="black" cx="384.37" cy="-234" rx="92.88" ry="18"/>
<text text-anchor="middle" x="384.37" y="-230.3" font-family="Times,serif" font-size="14.00">Convergence measures</text>
</a>
</g>
</g>
<!-- Convergence measures&#45;&gt;Learning gains -->
<g id="edge1" class="edge">
<title>Convergence measures&#45;&gt;Learning gains</title>
<path fill="none" stroke="black" d="M302.28,-225.46C268.27,-221.87 229.13,-217.75 196.48,-214.31"/>
<polygon fill="black" stroke="black" points="196.44,-210.79 186.13,-213.22 195.7,-217.75 196.44,-210.79"/>
</g>
<!-- types of exploration -->
<g id="node4" class="node">
<title>types of exploration</title>
<g id="a_node4"><a xlink:href="https://scholar.google.com/scholar?hl=en&amp;q=Unraveling%20Students&#39;%20Interaction%20around%20a%20Tangible%20Interface%20Using%20Multimodal%20Learning%20Analytics." xlink:title="types of exploration">
<ellipse fill="none" stroke="black" cx="384.37" cy="-18" rx="81.49" ry="18"/>
<text text-anchor="middle" x="384.37" y="-14.3" font-family="Times,serif" font-size="14.00">types of exploration</text>
</a>
</g>
</g>
<!-- types of exploration&#45;&gt;learning gain group (high or low -->
<g id="edge8" class="edge">
<title>types of exploration&#45;&gt;learning gain group (high or low</title>
<path fill="none" stroke="black" d="M324.89,-30.32C290.18,-37.64 245.66,-47.02 207.65,-55.03"/>
<polygon fill="black" stroke="black" points="206.69,-51.65 197.63,-57.14 208.13,-58.5 206.69,-51.65"/>
</g>
<!-- types of exploration&#45;&gt;learning gains -->
<g id="edge6" class="edge">
<title>types of exploration&#45;&gt;learning gains</title>
<path fill="none" stroke="black" d="M302.98,-18C269.07,-18 229.96,-18 197.24,-18"/>
<polygon fill="black" stroke="black" points="196.85,-14.5 186.85,-18 196.85,-21.5 196.85,-14.5"/>
</g>
<!-- N&#45;grams -->
<g id="node5" class="node">
<title>N&#45;grams</title>
<g id="a_node5"><a xlink:href="https://scholar.google.com/scholar?hl=en&amp;q=The%20Effect%20of%20Mutual%20Gaze%20Perception%20on%20Students’%20Verbal%20Coordination" xlink:title="N&#45;grams">
<ellipse fill="none" stroke="black" cx="384.37" cy="-180" rx="42.49" ry="18"/>
<text text-anchor="middle" x="384.37" y="-176.3" font-family="Times,serif" font-size="14.00">N&#45;grams</text>
</a>
</g>
</g>
<!-- N&#45;grams&#45;&gt;Learning gains -->
<g id="edge3" class="edge">
<title>N&#45;grams&#45;&gt;Learning gains</title>
<path fill="none" stroke="black" d="M343.04,-184.25C303.78,-188.39 243.31,-194.76 196.34,-199.7"/>
<polygon fill="black" stroke="black" points="195.81,-196.24 186.23,-200.77 196.55,-203.2 195.81,-196.24"/>
</g>
<!-- Cosine similarity scores -->
<g id="node6" class="node">
<title>Cosine similarity scores</title>
<g id="a_node6"><a xlink:href="https://scholar.google.com/scholar?hl=en&amp;q=The%20Effect%20of%20Mutual%20Gaze%20Perception%20on%20Students’%20Verbal%20Coordination" xlink:title="Cosine similarity scores">
<ellipse fill="none" stroke="black" cx="384.37" cy="-126" rx="96.38" ry="18"/>
<text text-anchor="middle" x="384.37" y="-122.3" font-family="Times,serif" font-size="14.00">Cosine similarity scores</text>
</a>
</g>
</g>
<!-- Cosine similarity scores&#45;&gt;Learning gains -->
<g id="edge4" class="edge">
<title>Cosine similarity scores&#45;&gt;Learning gains</title>
<path fill="none" stroke="black" d="M329.37,-140.84C315.88,-144.68 301.47,-148.89 288.18,-153 250.51,-164.65 208.26,-178.86 176.48,-189.77"/>
<polygon fill="black" stroke="black" points="175.29,-186.48 166.97,-193.05 177.57,-193.1 175.29,-186.48"/>
</g>
</g>
</svg>
