<?xml version="1.0" encoding="UTF-8" standalone="no"?>
<!DOCTYPE svg PUBLIC "-//W3C//DTD SVG 1.1//EN"
 "http://www.w3.org/Graphics/SVG/1.1/DTD/svg11.dtd">
<!-- Generated by graphviz version 2.47.0 (20210316.0004)
 -->
<!-- Title: Test Pages: 1 -->
<svg width="489pt" height="314pt"
 viewBox="0.00 0.00 488.56 314.00" xmlns="http://www.w3.org/2000/svg" xmlns:xlink="http://www.w3.org/1999/xlink">
<g id="graph0" class="graph" transform="scale(1 1) rotate(0) translate(4 310)">
<title>Test</title>
<polygon fill="white" stroke="transparent" points="-4,4 -4,-310 484.56,-310 484.56,4 -4,4"/>
<!-- Convergence measures -->
<g id="node1" class="node">
<title>Convergence measures</title>
<g id="a_node1"><a xlink:href="https://scholar.google.com/scholar?hl=en&amp;q=An%20Interactive%20Table%20for%20Supporting%20Participation%20Balance%20in%20Face-to-Face%20Collaborative%20Learning" xlink:title="Convergence measures">
<ellipse fill="none" stroke="black" cx="384.37" cy="-180" rx="92.88" ry="18"/>
<text text-anchor="middle" x="384.37" y="-176.3" font-family="Times,serif" font-size="14.00">Convergence measures</text>
</a>
</g>
</g>
<!-- Learning gains -->
<g id="node8" class="node">
<title>Learning gains</title>
<ellipse fill="none" stroke="black" cx="126.09" cy="-99" rx="63.89" ry="18"/>
<text text-anchor="middle" x="126.09" y="-95.3" font-family="Times,serif" font-size="14.00">Learning gains</text>
</g>
<!-- Convergence measures&#45;&gt;Learning gains -->
<g id="edge1" class="edge">
<title>Convergence measures&#45;&gt;Learning gains</title>
<path fill="none" stroke="black" d="M329.87,-165.3C316.24,-161.43 301.63,-157.16 288.18,-153 250.51,-141.35 208.26,-127.14 176.48,-116.23"/>
<polygon fill="black" stroke="black" points="177.57,-112.9 166.97,-112.95 175.29,-119.52 177.57,-112.9"/>
</g>
<!-- types of exploration -->
<g id="node2" class="node">
<title>types of exploration</title>
<g id="a_node2"><a xlink:href="https://scholar.google.com/scholar?hl=en&amp;q=An%20Interactive%20Table%20for%20Supporting%20Participation%20Balance%20in%20Face-to-Face%20Collaborative%20Learning" xlink:title="types of exploration">
<ellipse fill="none" stroke="black" cx="384.37" cy="-288" rx="81.49" ry="18"/>
<text text-anchor="middle" x="384.37" y="-284.3" font-family="Times,serif" font-size="14.00">types of exploration</text>
</a>
</g>
</g>
<!-- learning gains -->
<g id="node7" class="node">
<title>learning gains</title>
<ellipse fill="none" stroke="black" cx="126.09" cy="-288" rx="60.39" ry="18"/>
<text text-anchor="middle" x="126.09" y="-284.3" font-family="Times,serif" font-size="14.00">learning gains</text>
</g>
<!-- types of exploration&#45;&gt;learning gains -->
<g id="edge6" class="edge">
<title>types of exploration&#45;&gt;learning gains</title>
<path fill="none" stroke="black" d="M302.98,-288C269.07,-288 229.96,-288 197.24,-288"/>
<polygon fill="black" stroke="black" points="196.85,-284.5 186.85,-288 196.85,-291.5 196.85,-284.5"/>
</g>
<!-- learning gain group (high or low -->
<g id="node9" class="node">
<title>learning gain group (high or low</title>
<ellipse fill="none" stroke="black" cx="126.09" cy="-234" rx="126.18" ry="18"/>
<text text-anchor="middle" x="126.09" y="-230.3" font-family="Times,serif" font-size="14.00">learning gain group (high or low</text>
</g>
<!-- types of exploration&#45;&gt;learning gain group (high or low -->
<g id="edge8" class="edge">
<title>types of exploration&#45;&gt;learning gain group (high or low</title>
<path fill="none" stroke="black" d="M324.89,-275.68C290.18,-268.36 245.66,-258.98 207.65,-250.97"/>
<polygon fill="black" stroke="black" points="208.13,-247.5 197.63,-248.86 206.69,-254.35 208.13,-247.5"/>
</g>
<!-- Cosine similarity scores -->
<g id="node3" class="node">
<title>Cosine similarity scores</title>
<g id="a_node3"><a xlink:href="https://scholar.google.com/scholar?hl=en&amp;q=An%20Interactive%20Table%20for%20Supporting%20Participation%20Balance%20in%20Face-to-Face%20Collaborative%20Learning" xlink:title="Cosine similarity scores">
<ellipse fill="none" stroke="black" cx="384.37" cy="-126" rx="96.38" ry="18"/>
<text text-anchor="middle" x="384.37" y="-122.3" font-family="Times,serif" font-size="14.00">Cosine similarity scores</text>
</a>
</g>
</g>
<!-- Cosine similarity scores&#45;&gt;Learning gains -->
<g id="edge4" class="edge">
<title>Cosine similarity scores&#45;&gt;Learning gains</title>
<path fill="none" stroke="black" d="M300.16,-117.23C266.53,-113.69 228.17,-109.65 196.13,-106.27"/>
<polygon fill="black" stroke="black" points="196.27,-102.77 185.96,-105.2 195.54,-109.73 196.27,-102.77"/>
</g>
<!-- Coherence metrics -->
<g id="node4" class="node">
<title>Coherence metrics</title>
<g id="a_node4"><a xlink:href="https://scholar.google.com/scholar?hl=en&amp;q=An%20Interactive%20Table%20for%20Supporting%20Participation%20Balance%20in%20Face-to-Face%20Collaborative%20Learning" xlink:title="Coherence metrics">
<ellipse fill="none" stroke="black" cx="384.37" cy="-72" rx="77.19" ry="18"/>
<text text-anchor="middle" x="384.37" y="-68.3" font-family="Times,serif" font-size="14.00">Coherence metrics</text>
</a>
</g>
</g>
<!-- Coherence metrics&#45;&gt;Learning gains -->
<g id="edge2" class="edge">
<title>Coherence metrics&#45;&gt;Learning gains</title>
<path fill="none" stroke="black" d="M313.68,-79.34C277.1,-83.2 232.43,-87.9 195.97,-91.74"/>
<polygon fill="black" stroke="black" points="195.49,-88.27 185.92,-92.8 196.23,-95.24 195.49,-88.27"/>
</g>
<!-- N&#45;grams -->
<g id="node5" class="node">
<title>N&#45;grams</title>
<g id="a_node5"><a xlink:href="https://scholar.google.com/scholar?hl=en&amp;q=An%20Interactive%20Table%20for%20Supporting%20Participation%20Balance%20in%20Face-to-Face%20Collaborative%20Learning" xlink:title="N&#45;grams">
<ellipse fill="none" stroke="black" cx="384.37" cy="-18" rx="42.49" ry="18"/>
<text text-anchor="middle" x="384.37" y="-14.3" font-family="Times,serif" font-size="14.00">N&#45;grams</text>
</a>
</g>
</g>
<!-- N&#45;grams&#45;&gt;Learning gains -->
<g id="edge3" class="edge">
<title>N&#45;grams&#45;&gt;Learning gains</title>
<path fill="none" stroke="black" d="M348.44,-27.48C330.39,-32.49 308.04,-38.86 288.18,-45 250.51,-56.65 208.26,-70.86 176.48,-81.77"/>
<polygon fill="black" stroke="black" points="175.29,-78.48 166.97,-85.05 177.57,-85.1 175.29,-78.48"/>
</g>
<!-- amount of exploration -->
<g id="node6" class="node">
<title>amount of exploration</title>
<g id="a_node6"><a xlink:href="https://scholar.google.com/scholar?hl=en&amp;q=An%20Interactive%20Table%20for%20Supporting%20Participation%20Balance%20in%20Face-to-Face%20Collaborative%20Learning" xlink:title="amount of exploration">
<ellipse fill="none" stroke="black" cx="384.37" cy="-234" rx="89.88" ry="18"/>
<text text-anchor="middle" x="384.37" y="-230.3" font-family="Times,serif" font-size="14.00">amount of exploration</text>
</a>
</g>
</g>
<!-- amount of exploration&#45;&gt;learning gains -->
<g id="edge5" class="edge">
<title>amount of exploration&#45;&gt;learning gains</title>
<path fill="none" stroke="black" d="M321.98,-246.93C280.67,-255.64 226.51,-267.05 185.77,-275.64"/>
<polygon fill="black" stroke="black" points="185.05,-272.21 175.98,-277.7 186.49,-279.06 185.05,-272.21"/>
</g>
<!-- amount of exploration&#45;&gt;learning gain group (high or low -->
<g id="edge7" class="edge">
<title>amount of exploration&#45;&gt;learning gain group (high or low</title>
<path fill="none" stroke="black" d="M294.45,-234C284.16,-234 273.48,-234 262.74,-234"/>
<polygon fill="black" stroke="black" points="262.43,-230.5 252.43,-234 262.43,-237.5 262.43,-230.5"/>
</g>
</g>
</svg>
