<?xml version="1.0" encoding="UTF-8" standalone="no"?>
<!DOCTYPE svg PUBLIC "-//W3C//DTD SVG 1.1//EN"
 "http://www.w3.org/Graphics/SVG/1.1/DTD/svg11.dtd">
<!-- Generated by graphviz version 2.47.0 (20210316.0004)
 -->
<!-- Title: Test Pages: 1 -->
<svg width="639pt" height="800pt"
 viewBox="0.00 0.00 639.35 800.00" xmlns="http://www.w3.org/2000/svg" xmlns:xlink="http://www.w3.org/1999/xlink">
<g id="graph0" class="graph" transform="scale(1 1) rotate(0) translate(4 796)">
<title>Test</title>
<polygon fill="white" stroke="transparent" points="-4,4 -4,-796 635.35,-796 635.35,4 -4,4"/>
<!-- target for discussion partner -->
<g id="node1" class="node">
<title>target for discussion partner</title>
<g id="a_node1"><a xlink:href="https://scholar.google.com/scholar?hl=en&amp;q=An%20Interactive%20Table%20for%20Supporting%20Participation%20Balance%20in%20Face-to-Face%20Collaborative%20Learning" xlink:title="target for discussion partner">
<ellipse fill="none" stroke="black" cx="507.21" cy="-72" rx="109.68" ry="18"/>
<text text-anchor="middle" x="507.21" y="-68.3" font-family="Times,serif" font-size="14.00">target for discussion partner</text>
</a>
</g>
</g>
<!-- task success score -->
<g id="node18" class="node">
<title>task success score</title>
<ellipse fill="none" stroke="black" cx="173.53" cy="-45" rx="74.99" ry="18"/>
<text text-anchor="middle" x="173.53" y="-41.3" font-family="Times,serif" font-size="14.00">task success score</text>
</g>
<!-- target for discussion partner&#45;&gt;task success score -->
<g id="edge15" class="edge">
<title>target for discussion partner&#45;&gt;task success score</title>
<path fill="none" stroke="black" d="M408.49,-64.05C359.44,-60.05 300.78,-55.28 254.46,-51.51"/>
<polygon fill="black" stroke="black" points="254.73,-48.02 244.48,-50.69 254.16,-54.99 254.73,-48.02"/>
</g>
<!-- Average stroke pressure -->
<g id="node2" class="node">
<title>Average stroke pressure</title>
<g id="a_node2"><a xlink:href="https://scholar.google.com/scholar?hl=en&amp;q=An%20Interactive%20Table%20for%20Supporting%20Participation%20Balance%20in%20Face-to-Face%20Collaborative%20Learning" xlink:title="Average stroke pressure">
<ellipse fill="none" stroke="black" cx="507.21" cy="-450" rx="96.38" ry="18"/>
<text text-anchor="middle" x="507.21" y="-446.3" font-family="Times,serif" font-size="14.00">Average stroke pressure</text>
</a>
</g>
</g>
<!-- Odds of a student solving correctly a problem -->
<g id="node19" class="node">
<title>Odds of a student solving correctly a problem</title>
<ellipse fill="none" stroke="black" cx="173.53" cy="-288" rx="173.57" ry="18"/>
<text text-anchor="middle" x="173.53" y="-284.3" font-family="Times,serif" font-size="14.00">Odds of a student solving correctly a problem</text>
</g>
<!-- Average stroke pressure&#45;&gt;Odds of a student solving correctly a problem -->
<g id="edge8" class="edge">
<title>Average stroke pressure&#45;&gt;Odds of a student solving correctly a problem</title>
<path fill="none" stroke="black" d="M432.93,-438.45C416.19,-434.58 398.72,-429.53 383.07,-423 314.42,-394.37 243.63,-343.05 204.73,-312.6"/>
<polygon fill="black" stroke="black" points="206.49,-309.52 196.47,-306.07 202.15,-315.02 206.49,-309.52"/>
</g>
<!-- Average stroke time length -->
<g id="node3" class="node">
<title>Average stroke time length</title>
<g id="a_node3"><a xlink:href="https://scholar.google.com/scholar?hl=en&amp;q=An%20Interactive%20Table%20for%20Supporting%20Participation%20Balance%20in%20Face-to-Face%20Collaborative%20Learning" xlink:title="Average stroke time length">
<ellipse fill="none" stroke="black" cx="507.21" cy="-396" rx="107.48" ry="18"/>
<text text-anchor="middle" x="507.21" y="-392.3" font-family="Times,serif" font-size="14.00">Average stroke time length</text>
</a>
</g>
</g>
<!-- Average stroke time length&#45;&gt;Odds of a student solving correctly a problem -->
<g id="edge5" class="edge">
<title>Average stroke time length&#45;&gt;Odds of a student solving correctly a problem</title>
<path fill="none" stroke="black" d="M435.72,-382.51C418.37,-378.65 399.94,-374.09 383.07,-369 327.36,-352.18 265.43,-327.31 223.64,-309.56"/>
<polygon fill="black" stroke="black" points="224.83,-306.26 214.26,-305.55 222.08,-312.7 224.83,-306.26"/>
</g>
<!-- Arduino active hardware blocks -->
<g id="node4" class="node">
<title>Arduino active hardware blocks</title>
<g id="a_node4"><a xlink:href="https://scholar.google.com/scholar?hl=en&amp;q=An%20Interactive%20Table%20for%20Supporting%20Participation%20Balance%20in%20Face-to-Face%20Collaborative%20Learning" xlink:title="Arduino active hardware blocks">
<ellipse fill="none" stroke="black" cx="507.21" cy="-720" rx="124.28" ry="18"/>
<text text-anchor="middle" x="507.21" y="-716.3" font-family="Times,serif" font-size="14.00">Arduino active hardware blocks</text>
</a>
</g>
</g>
<!-- artefact quality -->
<g id="node17" class="node">
<title>artefact quality</title>
<ellipse fill="none" stroke="black" cx="173.53" cy="-612" rx="63.89" ry="18"/>
<text text-anchor="middle" x="173.53" y="-608.3" font-family="Times,serif" font-size="14.00">artefact quality</text>
</g>
<!-- Arduino active hardware blocks&#45;&gt;artefact quality -->
<g id="edge10" class="edge">
<title>Arduino active hardware blocks&#45;&gt;artefact quality</title>
<path fill="none" stroke="black" d="M431.82,-705.63C415.63,-701.97 398.68,-697.71 383.07,-693 324.77,-675.4 259.66,-648.98 217.95,-631.14"/>
<polygon fill="black" stroke="black" points="219.22,-627.87 208.65,-627.13 216.45,-634.3 219.22,-627.87"/>
</g>
<!-- type of activity done in task -->
<g id="node5" class="node">
<title>type of activity done in task</title>
<g id="a_node5"><a xlink:href="https://scholar.google.com/scholar?hl=en&amp;q=An%20Interactive%20Table%20for%20Supporting%20Participation%20Balance%20in%20Face-to-Face%20Collaborative%20Learning" xlink:title="type of activity done in task">
<ellipse fill="none" stroke="black" cx="507.21" cy="-18" rx="109.68" ry="18"/>
<text text-anchor="middle" x="507.21" y="-14.3" font-family="Times,serif" font-size="14.00">type of activity done in task</text>
</a>
</g>
</g>
<!-- type of activity done in task&#45;&gt;task success score -->
<g id="edge14" class="edge">
<title>type of activity done in task&#45;&gt;task success score</title>
<path fill="none" stroke="black" d="M408.49,-25.95C359.44,-29.95 300.78,-34.72 254.46,-38.49"/>
<polygon fill="black" stroke="black" points="254.16,-35.01 244.48,-39.31 254.73,-41.98 254.16,-35.01"/>
</g>
<!-- Total number of pen strokes -->
<g id="node6" class="node">
<title>Total number of pen strokes</title>
<g id="a_node6"><a xlink:href="https://scholar.google.com/scholar?hl=en&amp;q=An%20Interactive%20Table%20for%20Supporting%20Participation%20Balance%20in%20Face-to-Face%20Collaborative%20Learning" xlink:title="Total number of pen strokes">
<ellipse fill="none" stroke="black" cx="507.21" cy="-342" rx="111.28" ry="18"/>
<text text-anchor="middle" x="507.21" y="-338.3" font-family="Times,serif" font-size="14.00">Total number of pen strokes</text>
</a>
</g>
</g>
<!-- Total number of pen strokes&#45;&gt;Odds of a student solving correctly a problem -->
<g id="edge3" class="edge">
<title>Total number of pen strokes&#45;&gt;Odds of a student solving correctly a problem</title>
<path fill="none" stroke="black" d="M428.03,-329.27C383.05,-321.95 326.01,-312.66 277.43,-304.75"/>
<polygon fill="black" stroke="black" points="277.95,-301.29 267.52,-303.14 276.83,-308.2 277.95,-301.29"/>
</g>
<!-- Calculator Use -->
<g id="node7" class="node">
<title>Calculator Use</title>
<g id="a_node7"><a xlink:href="https://scholar.google.com/scholar?hl=en&amp;q=An%20Interactive%20Table%20for%20Supporting%20Participation%20Balance%20in%20Face-to-Face%20Collaborative%20Learning" xlink:title="Calculator Use">
<ellipse fill="none" stroke="black" cx="507.21" cy="-288" rx="63.89" ry="18"/>
<text text-anchor="middle" x="507.21" y="-284.3" font-family="Times,serif" font-size="14.00">Calculator Use</text>
</a>
</g>
</g>
<!-- Calculator Use&#45;&gt;Odds of a student solving correctly a problem -->
<g id="edge2" class="edge">
<title>Calculator Use&#45;&gt;Odds of a student solving correctly a problem</title>
<path fill="none" stroke="black" d="M443.43,-288C418.44,-288 388.27,-288 357.3,-288"/>
<polygon fill="black" stroke="black" points="357.22,-284.5 347.22,-288 357.22,-291.5 357.22,-284.5"/>
</g>
<!-- Arduino measure of complexity -->
<g id="node8" class="node">
<title>Arduino measure of complexity</title>
<g id="a_node8"><a xlink:href="https://scholar.google.com/scholar?hl=en&amp;q=An%20Interactive%20Table%20for%20Supporting%20Participation%20Balance%20in%20Face-to-Face%20Collaborative%20Learning" xlink:title="Arduino measure of complexity">
<ellipse fill="none" stroke="black" cx="507.21" cy="-666" rx="124.28" ry="18"/>
<text text-anchor="middle" x="507.21" y="-662.3" font-family="Times,serif" font-size="14.00">Arduino measure of complexity</text>
</a>
</g>
</g>
<!-- Arduino measure of complexity&#45;&gt;artefact quality -->
<g id="edge9" class="edge">
<title>Arduino measure of complexity&#45;&gt;artefact quality</title>
<path fill="none" stroke="black" d="M423.8,-652.58C366.66,-643.28 291.66,-631.07 238.91,-622.48"/>
<polygon fill="black" stroke="black" points="239.43,-619.02 229,-620.87 238.3,-625.93 239.43,-619.02"/>
</g>
<!-- Average number of points -->
<g id="node9" class="node">
<title>Average number of points</title>
<g id="a_node9"><a xlink:href="https://scholar.google.com/scholar?hl=en&amp;q=An%20Interactive%20Table%20for%20Supporting%20Participation%20Balance%20in%20Face-to-Face%20Collaborative%20Learning" xlink:title="Average number of points">
<ellipse fill="none" stroke="black" cx="507.21" cy="-234" rx="103.98" ry="18"/>
<text text-anchor="middle" x="507.21" y="-230.3" font-family="Times,serif" font-size="14.00">Average number of points</text>
</a>
</g>
</g>
<!-- Average number of points&#45;&gt;Odds of a student solving correctly a problem -->
<g id="edge4" class="edge">
<title>Average number of points&#45;&gt;Odds of a student solving correctly a problem</title>
<path fill="none" stroke="black" d="M430.95,-246.25C385.62,-253.63 327.27,-263.13 277.68,-271.21"/>
<polygon fill="black" stroke="black" points="276.87,-267.79 267.57,-272.85 278,-274.7 276.87,-267.79"/>
</g>
<!-- Average stroke path length -->
<g id="node10" class="node">
<title>Average stroke path length</title>
<g id="a_node10"><a xlink:href="https://scholar.google.com/scholar?hl=en&amp;q=An%20Interactive%20Table%20for%20Supporting%20Participation%20Balance%20in%20Face-to-Face%20Collaborative%20Learning" xlink:title="Average stroke path length">
<ellipse fill="none" stroke="black" cx="507.21" cy="-180" rx="106.68" ry="18"/>
<text text-anchor="middle" x="507.21" y="-176.3" font-family="Times,serif" font-size="14.00">Average stroke path length</text>
</a>
</g>
</g>
<!-- Average stroke path length&#45;&gt;Odds of a student solving correctly a problem -->
<g id="edge6" class="edge">
<title>Average stroke path length&#45;&gt;Odds of a student solving correctly a problem</title>
<path fill="none" stroke="black" d="M436.04,-193.42C418.6,-197.29 400.04,-201.88 383.07,-207 327.36,-223.82 265.43,-248.69 223.64,-266.44"/>
<polygon fill="black" stroke="black" points="222.08,-263.3 214.26,-270.45 224.83,-269.74 222.08,-263.3"/>
</g>
<!-- events -->
<g id="node11" class="node">
<title>events</title>
<g id="a_node11"><a xlink:href="https://scholar.google.com/scholar?hl=en&amp;q=An%20Interactive%20Table%20for%20Supporting%20Participation%20Balance%20in%20Face-to-Face%20Collaborative%20Learning" xlink:title="events">
<ellipse fill="none" stroke="black" cx="507.21" cy="-774" rx="33.29" ry="18"/>
<text text-anchor="middle" x="507.21" y="-770.3" font-family="Times,serif" font-size="14.00">events</text>
</a>
</g>
</g>
<!-- group performance -->
<g id="node16" class="node">
<title>group performance</title>
<ellipse fill="none" stroke="black" cx="173.53" cy="-774" rx="78.79" ry="18"/>
<text text-anchor="middle" x="173.53" y="-770.3" font-family="Times,serif" font-size="14.00">group performance</text>
</g>
<!-- events&#45;&gt;group performance -->
<g id="edge1" class="edge">
<title>events&#45;&gt;group performance</title>
<path fill="none" stroke="black" d="M473.8,-774C425.25,-774 331.91,-774 262.32,-774"/>
<polygon fill="black" stroke="black" points="262.23,-770.5 252.23,-774 262.23,-777.5 262.23,-770.5"/>
</g>
<!-- Arduino active software blocks -->
<g id="node12" class="node">
<title>Arduino active software blocks</title>
<g id="a_node12"><a xlink:href="https://scholar.google.com/scholar?hl=en&amp;q=An%20Interactive%20Table%20for%20Supporting%20Participation%20Balance%20in%20Face-to-Face%20Collaborative%20Learning" xlink:title="Arduino active software blocks">
<ellipse fill="none" stroke="black" cx="507.21" cy="-612" rx="121.58" ry="18"/>
<text text-anchor="middle" x="507.21" y="-608.3" font-family="Times,serif" font-size="14.00">Arduino active software blocks</text>
</a>
</g>
</g>
<!-- Arduino active software blocks&#45;&gt;artefact quality -->
<g id="edge11" class="edge">
<title>Arduino active software blocks&#45;&gt;artefact quality</title>
<path fill="none" stroke="black" d="M385.53,-612C339.25,-612 287.9,-612 247.45,-612"/>
<polygon fill="black" stroke="black" points="247.41,-608.5 237.41,-612 247.41,-615.5 247.41,-608.5"/>
</g>
<!-- Arduino active blocks -->
<g id="node13" class="node">
<title>Arduino active blocks</title>
<g id="a_node13"><a xlink:href="https://scholar.google.com/scholar?hl=en&amp;q=An%20Interactive%20Table%20for%20Supporting%20Participation%20Balance%20in%20Face-to-Face%20Collaborative%20Learning" xlink:title="Arduino active blocks">
<ellipse fill="none" stroke="black" cx="507.21" cy="-558" rx="89.08" ry="18"/>
<text text-anchor="middle" x="507.21" y="-554.3" font-family="Times,serif" font-size="14.00">Arduino active blocks</text>
</a>
</g>
</g>
<!-- Arduino active blocks&#45;&gt;artefact quality -->
<g id="edge12" class="edge">
<title>Arduino active blocks&#45;&gt;artefact quality</title>
<path fill="none" stroke="black" d="M437.08,-569.25C378.79,-578.75 295.98,-592.23 239.03,-601.5"/>
<polygon fill="black" stroke="black" points="238.37,-598.06 229.07,-603.12 239.5,-604.97 238.37,-598.06"/>
</g>
<!-- Average stroke displacement -->
<g id="node14" class="node">
<title>Average stroke displacement</title>
<g id="a_node14"><a xlink:href="https://scholar.google.com/scholar?hl=en&amp;q=An%20Interactive%20Table%20for%20Supporting%20Participation%20Balance%20in%20Face-to-Face%20Collaborative%20Learning" xlink:title="Average stroke displacement">
<ellipse fill="none" stroke="black" cx="507.21" cy="-126" rx="113.98" ry="18"/>
<text text-anchor="middle" x="507.21" y="-122.3" font-family="Times,serif" font-size="14.00">Average stroke displacement</text>
</a>
</g>
</g>
<!-- Average stroke displacement&#45;&gt;Odds of a student solving correctly a problem -->
<g id="edge7" class="edge">
<title>Average stroke displacement&#45;&gt;Odds of a student solving correctly a problem</title>
<path fill="none" stroke="black" d="M427.39,-138.87C412.38,-142.54 397.01,-147.19 383.07,-153 314.42,-181.63 243.63,-232.95 204.73,-263.4"/>
<polygon fill="black" stroke="black" points="202.15,-260.98 196.47,-269.93 206.49,-266.48 202.15,-260.98"/>
</g>
<!-- student work phases -->
<g id="node15" class="node">
<title>student work phases</title>
<g id="a_node15"><a xlink:href="https://scholar.google.com/scholar?hl=en&amp;q=An%20Interactive%20Table%20for%20Supporting%20Participation%20Balance%20in%20Face-to-Face%20Collaborative%20Learning" xlink:title="student work phases">
<ellipse fill="none" stroke="black" cx="507.21" cy="-504" rx="82.59" ry="18"/>
<text text-anchor="middle" x="507.21" y="-500.3" font-family="Times,serif" font-size="14.00">student work phases</text>
</a>
</g>
</g>
<!-- student work phases&#45;&gt;artefact quality -->
<g id="edge13" class="edge">
<title>student work phases&#45;&gt;artefact quality</title>
<path fill="none" stroke="black" d="M444.03,-515.68C424.37,-519.89 402.66,-525.09 383.07,-531 324.77,-548.6 259.66,-575.02 217.95,-592.86"/>
<polygon fill="black" stroke="black" points="216.45,-589.7 208.65,-596.87 219.22,-596.13 216.45,-589.7"/>
</g>
</g>
</svg>
