<?xml version="1.0" encoding="UTF-8" standalone="no"?>
<!DOCTYPE svg PUBLIC "-//W3C//DTD SVG 1.1//EN"
 "http://www.w3.org/Graphics/SVG/1.1/DTD/svg11.dtd">
<!-- Generated by graphviz version 2.47.0 (20210316.0004)
 -->
<!-- Title: Test Pages: 1 -->
<svg width="575pt" height="720pt"
 viewBox="0.00 0.00 575.41 720.00" xmlns="http://www.w3.org/2000/svg" xmlns:xlink="http://www.w3.org/1999/xlink">
<g id="graph0" class="graph" transform="scale(0.9 0.9) rotate(0) translate(4 796)">
<title>Test</title>
<polygon fill="white" stroke="transparent" points="-4,4 -4,-796 635.35,-796 635.35,4 -4,4"/>
<!-- Arduino active blocks -->
<g id="node1" class="node">
<title>Arduino active blocks</title>
<g id="a_node1"><a xlink:href="https://scholar.google.com/scholar?hl=en&amp;q=Supervised%20machine%20learning%20in%20multimodal%20learning%20analytics%20for%20estimating%20success%20in%20project-based%20learning" xlink:title="Arduino active blocks">
<ellipse fill="none" stroke="black" cx="507.21" cy="-234" rx="89.08" ry="18"/>
<text text-anchor="middle" x="507.21" y="-230.3" font-family="Times,serif" font-size="14.00">Arduino active blocks</text>
</a>
</g>
</g>
<!-- artefact quality -->
<g id="node17" class="node">
<title>artefact quality</title>
<ellipse fill="none" stroke="black" cx="173.53" cy="-126" rx="63.89" ry="18"/>
<text text-anchor="middle" x="173.53" y="-122.3" font-family="Times,serif" font-size="14.00">artefact quality</text>
</g>
<!-- Arduino active blocks&#45;&gt;artefact quality -->
<g id="edge12" class="edge">
<title>Arduino active blocks&#45;&gt;artefact quality</title>
<path fill="none" stroke="black" d="M441.5,-221.78C422.51,-217.66 401.82,-212.66 383.07,-207 324.77,-189.4 259.66,-162.98 217.95,-145.14"/>
<polygon fill="black" stroke="black" points="219.22,-141.87 208.65,-141.13 216.45,-148.3 219.22,-141.87"/>
</g>
<!-- Arduino active software blocks -->
<g id="node2" class="node">
<title>Arduino active software blocks</title>
<g id="a_node2"><a xlink:href="https://scholar.google.com/scholar?hl=en&amp;q=Supervised%20machine%20learning%20in%20multimodal%20learning%20analytics%20for%20estimating%20success%20in%20project-based%20learning" xlink:title="Arduino active software blocks">
<ellipse fill="none" stroke="black" cx="507.21" cy="-180" rx="121.58" ry="18"/>
<text text-anchor="middle" x="507.21" y="-176.3" font-family="Times,serif" font-size="14.00">Arduino active software blocks</text>
</a>
</g>
</g>
<!-- Arduino active software blocks&#45;&gt;artefact quality -->
<g id="edge11" class="edge">
<title>Arduino active software blocks&#45;&gt;artefact quality</title>
<path fill="none" stroke="black" d="M424.65,-166.72C367.44,-157.41 292,-145.12 238.99,-136.49"/>
<polygon fill="black" stroke="black" points="239.46,-133.02 229.03,-134.87 238.34,-139.93 239.46,-133.02"/>
</g>
<!-- Average stroke path length -->
<g id="node3" class="node">
<title>Average stroke path length</title>
<g id="a_node3"><a xlink:href="https://scholar.google.com/scholar?hl=en&amp;q=Expertise%20estimation%20based%20on%20simple%20multimodal%20features" xlink:title="Average stroke path length">
<ellipse fill="none" stroke="black" cx="507.21" cy="-612" rx="106.68" ry="18"/>
<text text-anchor="middle" x="507.21" y="-608.3" font-family="Times,serif" font-size="14.00">Average stroke path length</text>
</a>
</g>
</g>
<!-- Odds of a student solving correctly a problem -->
<g id="node16" class="node">
<title>Odds of a student solving correctly a problem</title>
<ellipse fill="none" stroke="black" cx="173.53" cy="-450" rx="173.57" ry="18"/>
<text text-anchor="middle" x="173.53" y="-446.3" font-family="Times,serif" font-size="14.00">Odds of a student solving correctly a problem</text>
</g>
<!-- Average stroke path length&#45;&gt;Odds of a student solving correctly a problem -->
<g id="edge6" class="edge">
<title>Average stroke path length&#45;&gt;Odds of a student solving correctly a problem</title>
<path fill="none" stroke="black" d="M429.35,-599.61C413.72,-595.86 397.61,-591.07 383.07,-585 314.42,-556.37 243.63,-505.05 204.73,-474.6"/>
<polygon fill="black" stroke="black" points="206.49,-471.52 196.47,-468.07 202.15,-477.02 206.49,-471.52"/>
</g>
<!-- Calculator Use -->
<g id="node4" class="node">
<title>Calculator Use</title>
<g id="a_node4"><a xlink:href="https://scholar.google.com/scholar?hl=en&amp;q=Expertise%20estimation%20based%20on%20simple%20multimodal%20features" xlink:title="Calculator Use">
<ellipse fill="none" stroke="black" cx="507.21" cy="-558" rx="63.89" ry="18"/>
<text text-anchor="middle" x="507.21" y="-554.3" font-family="Times,serif" font-size="14.00">Calculator Use</text>
</a>
</g>
</g>
<!-- Calculator Use&#45;&gt;Odds of a student solving correctly a problem -->
<g id="edge2" class="edge">
<title>Calculator Use&#45;&gt;Odds of a student solving correctly a problem</title>
<path fill="none" stroke="black" d="M453.32,-548.27C431.39,-543.76 405.8,-537.86 383.07,-531 327.36,-514.18 265.43,-489.31 223.64,-471.56"/>
<polygon fill="black" stroke="black" points="224.83,-468.26 214.26,-467.55 222.08,-474.7 224.83,-468.26"/>
</g>
<!-- Average stroke displacement -->
<g id="node5" class="node">
<title>Average stroke displacement</title>
<g id="a_node5"><a xlink:href="https://scholar.google.com/scholar?hl=en&amp;q=Expertise%20estimation%20based%20on%20simple%20multimodal%20features" xlink:title="Average stroke displacement">
<ellipse fill="none" stroke="black" cx="507.21" cy="-504" rx="113.98" ry="18"/>
<text text-anchor="middle" x="507.21" y="-500.3" font-family="Times,serif" font-size="14.00">Average stroke displacement</text>
</a>
</g>
</g>
<!-- Average stroke displacement&#45;&gt;Odds of a student solving correctly a problem -->
<g id="edge7" class="edge">
<title>Average stroke displacement&#45;&gt;Odds of a student solving correctly a problem</title>
<path fill="none" stroke="black" d="M427.19,-491.13C382.46,-483.85 326.01,-474.66 277.82,-466.82"/>
<polygon fill="black" stroke="black" points="278.1,-463.32 267.67,-465.16 276.98,-470.23 278.1,-463.32"/>
</g>
<!-- Average number of points -->
<g id="node6" class="node">
<title>Average number of points</title>
<g id="a_node6"><a xlink:href="https://scholar.google.com/scholar?hl=en&amp;q=Expertise%20estimation%20based%20on%20simple%20multimodal%20features" xlink:title="Average number of points">
<ellipse fill="none" stroke="black" cx="507.21" cy="-450" rx="103.98" ry="18"/>
<text text-anchor="middle" x="507.21" y="-446.3" font-family="Times,serif" font-size="14.00">Average number of points</text>
</a>
</g>
</g>
<!-- Average number of points&#45;&gt;Odds of a student solving correctly a problem -->
<g id="edge4" class="edge">
<title>Average number of points&#45;&gt;Odds of a student solving correctly a problem</title>
<path fill="none" stroke="black" d="M403.08,-450C388.5,-450 373.15,-450 357.6,-450"/>
<polygon fill="black" stroke="black" points="357.36,-446.5 347.36,-450 357.36,-453.5 357.36,-446.5"/>
</g>
<!-- events -->
<g id="node7" class="node">
<title>events</title>
<g id="a_node7"><a xlink:href="https://scholar.google.com/scholar?hl=en&amp;q=Analysing%20frequent%20sequential%20patterns%20of%20collaborative%20learning%20activity%20around%20an%20interactive%20tabletop" xlink:title="events">
<ellipse fill="none" stroke="black" cx="507.21" cy="-666" rx="33.29" ry="18"/>
<text text-anchor="middle" x="507.21" y="-662.3" font-family="Times,serif" font-size="14.00">events</text>
</a>
</g>
</g>
<!-- group performance -->
<g id="node19" class="node">
<title>group performance</title>
<ellipse fill="none" stroke="black" cx="173.53" cy="-666" rx="78.79" ry="18"/>
<text text-anchor="middle" x="173.53" y="-662.3" font-family="Times,serif" font-size="14.00">group performance</text>
</g>
<!-- events&#45;&gt;group performance -->
<g id="edge1" class="edge">
<title>events&#45;&gt;group performance</title>
<path fill="none" stroke="black" d="M473.8,-666C425.25,-666 331.91,-666 262.32,-666"/>
<polygon fill="black" stroke="black" points="262.23,-662.5 252.23,-666 262.23,-669.5 262.23,-662.5"/>
</g>
<!-- Average stroke pressure -->
<g id="node8" class="node">
<title>Average stroke pressure</title>
<g id="a_node8"><a xlink:href="https://scholar.google.com/scholar?hl=en&amp;q=Expertise%20estimation%20based%20on%20simple%20multimodal%20features" xlink:title="Average stroke pressure">
<ellipse fill="none" stroke="black" cx="507.21" cy="-396" rx="96.38" ry="18"/>
<text text-anchor="middle" x="507.21" y="-392.3" font-family="Times,serif" font-size="14.00">Average stroke pressure</text>
</a>
</g>
</g>
<!-- Average stroke pressure&#45;&gt;Odds of a student solving correctly a problem -->
<g id="edge8" class="edge">
<title>Average stroke pressure&#45;&gt;Odds of a student solving correctly a problem</title>
<path fill="none" stroke="black" d="M433.83,-407.78C388.08,-415.23 328.25,-424.97 277.59,-433.22"/>
<polygon fill="black" stroke="black" points="276.89,-429.79 267.59,-434.85 278.02,-436.7 276.89,-429.79"/>
</g>
<!-- type of activity done in task -->
<g id="node9" class="node">
<title>type of activity done in task</title>
<g id="a_node9"><a xlink:href="https://scholar.google.com/scholar?hl=en&amp;q=Focused%20or%20Stuck%20Together:%20Multimodal%20Patterns%20Reveal%20Triads’%20Performance%20in%20Collaborative%20Problem%20Solving" xlink:title="type of activity done in task">
<ellipse fill="none" stroke="black" cx="507.21" cy="-774" rx="109.68" ry="18"/>
<text text-anchor="middle" x="507.21" y="-770.3" font-family="Times,serif" font-size="14.00">type of activity done in task</text>
</a>
</g>
</g>
<!-- task success score -->
<g id="node18" class="node">
<title>task success score</title>
<ellipse fill="none" stroke="black" cx="173.53" cy="-747" rx="74.99" ry="18"/>
<text text-anchor="middle" x="173.53" y="-743.3" font-family="Times,serif" font-size="14.00">task success score</text>
</g>
<!-- type of activity done in task&#45;&gt;task success score -->
<g id="edge14" class="edge">
<title>type of activity done in task&#45;&gt;task success score</title>
<path fill="none" stroke="black" d="M408.49,-766.05C359.44,-762.05 300.78,-757.28 254.46,-753.51"/>
<polygon fill="black" stroke="black" points="254.73,-750.02 244.48,-752.69 254.16,-756.99 254.73,-750.02"/>
</g>
<!-- Total number of pen strokes -->
<g id="node10" class="node">
<title>Total number of pen strokes</title>
<g id="a_node10"><a xlink:href="https://scholar.google.com/scholar?hl=en&amp;q=Expertise%20estimation%20based%20on%20simple%20multimodal%20features" xlink:title="Total number of pen strokes">
<ellipse fill="none" stroke="black" cx="507.21" cy="-342" rx="111.28" ry="18"/>
<text text-anchor="middle" x="507.21" y="-338.3" font-family="Times,serif" font-size="14.00">Total number of pen strokes</text>
</a>
</g>
</g>
<!-- Total number of pen strokes&#45;&gt;Odds of a student solving correctly a problem -->
<g id="edge3" class="edge">
<title>Total number of pen strokes&#45;&gt;Odds of a student solving correctly a problem</title>
<path fill="none" stroke="black" d="M434.75,-355.71C417.68,-359.52 399.62,-364 383.07,-369 327.36,-385.82 265.43,-410.69 223.64,-428.44"/>
<polygon fill="black" stroke="black" points="222.08,-425.3 214.26,-432.45 224.83,-431.74 222.08,-425.3"/>
</g>
<!-- student work phases -->
<g id="node11" class="node">
<title>student work phases</title>
<g id="a_node11"><a xlink:href="https://scholar.google.com/scholar?hl=en&amp;q=Supervised%20machine%20learning%20in%20multimodal%20learning%20analytics%20for%20estimating%20success%20in%20project-based%20learning" xlink:title="student work phases">
<ellipse fill="none" stroke="black" cx="507.21" cy="-126" rx="82.59" ry="18"/>
<text text-anchor="middle" x="507.21" y="-122.3" font-family="Times,serif" font-size="14.00">student work phases</text>
</a>
</g>
</g>
<!-- student work phases&#45;&gt;artefact quality -->
<g id="edge13" class="edge">
<title>student work phases&#45;&gt;artefact quality</title>
<path fill="none" stroke="black" d="M424.65,-126C370.43,-126 299.85,-126 247.49,-126"/>
<polygon fill="black" stroke="black" points="247.28,-122.5 237.28,-126 247.28,-129.5 247.28,-122.5"/>
</g>
<!-- Average stroke time length -->
<g id="node12" class="node">
<title>Average stroke time length</title>
<g id="a_node12"><a xlink:href="https://scholar.google.com/scholar?hl=en&amp;q=Expertise%20estimation%20based%20on%20simple%20multimodal%20features" xlink:title="Average stroke time length">
<ellipse fill="none" stroke="black" cx="507.21" cy="-288" rx="107.48" ry="18"/>
<text text-anchor="middle" x="507.21" y="-284.3" font-family="Times,serif" font-size="14.00">Average stroke time length</text>
</a>
</g>
</g>
<!-- Average stroke time length&#45;&gt;Odds of a student solving correctly a problem -->
<g id="edge5" class="edge">
<title>Average stroke time length&#45;&gt;Odds of a student solving correctly a problem</title>
<path fill="none" stroke="black" d="M429.35,-300.39C413.72,-304.14 397.61,-308.93 383.07,-315 314.42,-343.63 243.63,-394.95 204.73,-425.4"/>
<polygon fill="black" stroke="black" points="202.15,-422.98 196.47,-431.93 206.49,-428.48 202.15,-422.98"/>
</g>
<!-- target for discussion partner -->
<g id="node13" class="node">
<title>target for discussion partner</title>
<g id="a_node13"><a xlink:href="https://scholar.google.com/scholar?hl=en&amp;q=Focused%20or%20Stuck%20Together:%20Multimodal%20Patterns%20Reveal%20Triads’%20Performance%20in%20Collaborative%20Problem%20Solving" xlink:title="target for discussion partner">
<ellipse fill="none" stroke="black" cx="507.21" cy="-720" rx="109.68" ry="18"/>
<text text-anchor="middle" x="507.21" y="-716.3" font-family="Times,serif" font-size="14.00">target for discussion partner</text>
</a>
</g>
</g>
<!-- target for discussion partner&#45;&gt;task success score -->
<g id="edge15" class="edge">
<title>target for discussion partner&#45;&gt;task success score</title>
<path fill="none" stroke="black" d="M408.49,-727.95C359.44,-731.95 300.78,-736.72 254.46,-740.49"/>
<polygon fill="black" stroke="black" points="254.16,-737.01 244.48,-741.31 254.73,-743.98 254.16,-737.01"/>
</g>
<!-- Arduino active hardware blocks -->
<g id="node14" class="node">
<title>Arduino active hardware blocks</title>
<g id="a_node14"><a xlink:href="https://scholar.google.com/scholar?hl=en&amp;q=Supervised%20machine%20learning%20in%20multimodal%20learning%20analytics%20for%20estimating%20success%20in%20project-based%20learning" xlink:title="Arduino active hardware blocks">
<ellipse fill="none" stroke="black" cx="507.21" cy="-72" rx="124.28" ry="18"/>
<text text-anchor="middle" x="507.21" y="-68.3" font-family="Times,serif" font-size="14.00">Arduino active hardware blocks</text>
</a>
</g>
</g>
<!-- Arduino active hardware blocks&#45;&gt;artefact quality -->
<g id="edge10" class="edge">
<title>Arduino active hardware blocks&#45;&gt;artefact quality</title>
<path fill="none" stroke="black" d="M423.8,-85.42C366.66,-94.72 291.66,-106.93 238.91,-115.52"/>
<polygon fill="black" stroke="black" points="238.3,-112.07 229,-117.13 239.43,-118.98 238.3,-112.07"/>
</g>
<!-- Arduino measure of complexity -->
<g id="node15" class="node">
<title>Arduino measure of complexity</title>
<g id="a_node15"><a xlink:href="https://scholar.google.com/scholar?hl=en&amp;q=Supervised%20machine%20learning%20in%20multimodal%20learning%20analytics%20for%20estimating%20success%20in%20project-based%20learning" xlink:title="Arduino measure of complexity">
<ellipse fill="none" stroke="black" cx="507.21" cy="-18" rx="124.28" ry="18"/>
<text text-anchor="middle" x="507.21" y="-14.3" font-family="Times,serif" font-size="14.00">Arduino measure of complexity</text>
</a>
</g>
</g>
<!-- Arduino measure of complexity&#45;&gt;artefact quality -->
<g id="edge9" class="edge">
<title>Arduino measure of complexity&#45;&gt;artefact quality</title>
<path fill="none" stroke="black" d="M431.82,-32.37C415.63,-36.03 398.68,-40.29 383.07,-45 324.77,-62.6 259.66,-89.02 217.95,-106.86"/>
<polygon fill="black" stroke="black" points="216.45,-103.7 208.65,-110.87 219.22,-110.13 216.45,-103.7"/>
</g>
</g>
</svg>
