<?xml version="1.0" encoding="UTF-8" standalone="no"?>
<!DOCTYPE svg PUBLIC "-//W3C//DTD SVG 1.1//EN"
 "http://www.w3.org/Graphics/SVG/1.1/DTD/svg11.dtd">
<!-- Generated by graphviz version 2.47.0 (20210316.0004)
 -->
<!-- Title: Test Pages: 1 -->
<svg width="641pt" height="476pt"
 viewBox="0.00 0.00 640.65 476.00" xmlns="http://www.w3.org/2000/svg" xmlns:xlink="http://www.w3.org/1999/xlink">
<g id="graph0" class="graph" transform="scale(1 1) rotate(0) translate(4 472)">
<title>Test</title>
<polygon fill="white" stroke="transparent" points="-4,4 -4,-472 636.65,-472 636.65,4 -4,4"/>
<!-- zooming -->
<g id="node1" class="node">
<title>zooming</title>
<g id="a_node1"><a xlink:href="https://scholar.google.com/scholar?hl=en&amp;q=High%20Accuracy%20Detection%20of%20Collaboration%20From%20Log%20Data%20and%20Superficial%20Speech%20Features" xlink:title="zooming" target="_blank">
<ellipse fill="none" stroke="black" cx="431.81" cy="-126" rx="42.49" ry="18"/>
<text text-anchor="middle" x="431.81" y="-122.3" font-family="Times,serif" font-size="14.00">zooming</text>
</a>
</g>
</g>
<!-- collaboration -->
<g id="node12" class="node">
<title>collaboration</title>
<ellipse fill="none" stroke="black" cx="97.49" cy="-72" rx="57.39" ry="18"/>
<text text-anchor="middle" x="97.49" y="-68.3" font-family="Times,serif" font-size="14.00">collaboration</text>
</g>
<!-- zooming&#45;&gt;collaboration -->
<g id="edge6" class="edge">
<title>zooming&#45;&gt;collaboration</title>
<path fill="none" stroke="black" d="M390.89,-121.4C350.46,-116.56 286.21,-108.35 230.98,-99 205.77,-94.73 178.02,-89.21 154.46,-84.27"/>
<polygon fill="black" stroke="black" points="155.15,-80.84 144.64,-82.19 153.7,-87.69 155.15,-80.84"/>
</g>
<!-- Sequences of meaningful actions -->
<g id="node2" class="node">
<title>Sequences of meaningful actions</title>
<g id="a_node2"><a xlink:href="https://scholar.google.com/scholar?hl=en&amp;q=Capturing%20and%20analyzing%20verbal%20and%20physical%20collaborative%20learning%20interactions%20at%20an%20enriched%20interactive%20tabletop" xlink:title="Sequences of meaningful actions" target="_blank">
<ellipse fill="none" stroke="black" cx="431.81" cy="-180" rx="128.08" ry="18"/>
<text text-anchor="middle" x="431.81" y="-176.3" font-family="Times,serif" font-size="14.00">Sequences of meaningful actions</text>
</a>
</g>
</g>
<!-- Colloboration quality -->
<g id="node14" class="node">
<title>Colloboration quality</title>
<ellipse fill="none" stroke="black" cx="97.49" cy="-180" rx="86.38" ry="18"/>
<text text-anchor="middle" x="97.49" y="-176.3" font-family="Times,serif" font-size="14.00">Colloboration quality</text>
</g>
<!-- Sequences of meaningful actions&#45;&gt;Colloboration quality -->
<g id="edge3" class="edge">
<title>Sequences of meaningful actions&#45;&gt;Colloboration quality</title>
<path fill="none" stroke="black" d="M303.76,-180C267.47,-180 228.55,-180 194.46,-180"/>
<polygon fill="black" stroke="black" points="194.04,-176.5 184.04,-180 194.04,-183.5 194.04,-176.5"/>
</g>
<!-- scrolling -->
<g id="node3" class="node">
<title>scrolling</title>
<g id="a_node3"><a xlink:href="https://scholar.google.com/scholar?hl=en&amp;q=High%20Accuracy%20Detection%20of%20Collaboration%20From%20Log%20Data%20and%20Superficial%20Speech%20Features" xlink:title="scrolling" target="_blank">
<ellipse fill="none" stroke="black" cx="431.81" cy="-72" rx="41.69" ry="18"/>
<text text-anchor="middle" x="431.81" y="-68.3" font-family="Times,serif" font-size="14.00">scrolling</text>
</a>
</g>
</g>
<!-- scrolling&#45;&gt;collaboration -->
<g id="edge5" class="edge">
<title>scrolling&#45;&gt;collaboration</title>
<path fill="none" stroke="black" d="M390.07,-72C333.93,-72 232.14,-72 164.92,-72"/>
<polygon fill="black" stroke="black" points="164.85,-68.5 154.85,-72 164.85,-75.5 164.85,-68.5"/>
</g>
<!-- total number of touch actions -->
<g id="node4" class="node">
<title>total number of touch actions</title>
<g id="a_node4"><a xlink:href="https://scholar.google.com/scholar?hl=en&amp;q=An%20Automatic%20Approach%20for%20Mining%20Patterns%20of%20Collaboration%20around%20an%20Interactive%20Tabletop" xlink:title="total number of touch actions" target="_blank">
<ellipse fill="none" stroke="black" cx="431.81" cy="-342" rx="115.08" ry="18"/>
<text text-anchor="middle" x="431.81" y="-338.3" font-family="Times,serif" font-size="14.00">total number of touch actions</text>
</a>
</g>
</g>
<!-- Collaboration -->
<g id="node10" class="node">
<title>Collaboration</title>
<ellipse fill="none" stroke="black" cx="97.49" cy="-288" rx="59.29" ry="18"/>
<text text-anchor="middle" x="97.49" y="-284.3" font-family="Times,serif" font-size="14.00">Collaboration</text>
</g>
<!-- total number of touch actions&#45;&gt;Collaboration -->
<g id="edge7" class="edge">
<title>total number of touch actions&#45;&gt;Collaboration</title>
<path fill="none" stroke="black" d="M340.1,-331.04C305.83,-326.56 266.54,-321.02 230.98,-315 206.28,-310.82 179.16,-305.43 155.91,-300.57"/>
<polygon fill="black" stroke="black" points="156.38,-297.09 145.87,-298.45 154.93,-303.94 156.38,-297.09"/>
</g>
<!-- card movements -->
<g id="node5" class="node">
<title>card movements</title>
<g id="a_node5"><a xlink:href="https://scholar.google.com/scholar?hl=en&amp;q=High%20Accuracy%20Detection%20of%20Collaboration%20From%20Log%20Data%20and%20Superficial%20Speech%20Features" xlink:title="card movements" target="_blank">
<ellipse fill="none" stroke="black" cx="431.81" cy="-18" rx="69.59" ry="18"/>
<text text-anchor="middle" x="431.81" y="-14.3" font-family="Times,serif" font-size="14.00">card movements</text>
</a>
</g>
</g>
<!-- card movements&#45;&gt;collaboration -->
<g id="edge4" class="edge">
<title>card movements&#45;&gt;collaboration</title>
<path fill="none" stroke="black" d="M368.1,-25.38C328.64,-30.3 276.72,-37.26 230.98,-45 205.77,-49.27 178.02,-54.79 154.46,-59.73"/>
<polygon fill="black" stroke="black" points="153.7,-56.31 144.64,-61.81 155.15,-63.16 153.7,-56.31"/>
</g>
<!-- movement of objects including revisiting past actions -->
<g id="node6" class="node">
<title>movement of objects including revisiting past actions</title>
<g id="a_node6"><a xlink:href="https://scholar.google.com/scholar?hl=en&amp;q=Using%20the%20Tablet%20Gestures%20and%20Speech%20of%20Pairs%20of%20Students%20to%20Classify%20Their%20Collaboration" xlink:title="movement of objects including revisiting past actions" target="_blank">
<ellipse fill="none" stroke="black" cx="431.81" cy="-396" rx="200.66" ry="18"/>
<text text-anchor="middle" x="431.81" y="-392.3" font-family="Times,serif" font-size="14.00">movement of objects including revisiting past actions</text>
</a>
</g>
</g>
<!-- collaboration quality -->
<g id="node13" class="node">
<title>collaboration quality</title>
<ellipse fill="none" stroke="black" cx="97.49" cy="-396" rx="83.69" ry="18"/>
<text text-anchor="middle" x="97.49" y="-392.3" font-family="Times,serif" font-size="14.00">collaboration quality</text>
</g>
<!-- movement of objects including revisiting past actions&#45;&gt;collaboration quality -->
<g id="edge9" class="edge">
<title>movement of objects including revisiting past actions&#45;&gt;collaboration quality</title>
<path fill="none" stroke="black" d="M230.79,-396C217.37,-396 204.25,-396 191.81,-396"/>
<polygon fill="black" stroke="black" points="191.53,-392.5 181.53,-396 191.53,-399.5 191.53,-392.5"/>
</g>
<!-- symmetry of touch actions among group -->
<g id="node7" class="node">
<title>symmetry of touch actions among group</title>
<g id="a_node7"><a xlink:href="https://scholar.google.com/scholar?hl=en&amp;q=An%20Automatic%20Approach%20for%20Mining%20Patterns%20of%20Collaboration%20around%20an%20Interactive%20Tabletop" xlink:title="symmetry of touch actions among group" target="_blank">
<ellipse fill="none" stroke="black" cx="431.81" cy="-288" rx="155.17" ry="18"/>
<text text-anchor="middle" x="431.81" y="-284.3" font-family="Times,serif" font-size="14.00">symmetry of touch actions among group</text>
</a>
</g>
</g>
<!-- symmetry of touch actions among group&#45;&gt;Collaboration -->
<g id="edge8" class="edge">
<title>symmetry of touch actions among group&#45;&gt;Collaboration</title>
<path fill="none" stroke="black" d="M276.33,-288C237.94,-288 198.71,-288 166.9,-288"/>
<polygon fill="black" stroke="black" points="166.85,-284.5 156.85,-288 166.85,-291.5 166.85,-284.5"/>
</g>
<!-- physical participation quantity -->
<g id="node8" class="node">
<title>physical participation quantity</title>
<g id="a_node8"><a xlink:href="https://scholar.google.com/scholar?hl=en&amp;q=Modelling%20and%20Identifying%20Collaborative%20Situations%20in%20a%20Collocated%20Multi-display%20Groupware%20Setting" xlink:title="physical participation quantity" target="_blank">
<ellipse fill="none" stroke="black" cx="431.81" cy="-234" rx="118.08" ry="18"/>
<text text-anchor="middle" x="431.81" y="-230.3" font-family="Times,serif" font-size="14.00">physical participation quantity</text>
</a>
</g>
</g>
<!-- physical participation quantity&#45;&gt;Collaboration -->
<g id="edge1" class="edge">
<title>physical participation quantity&#45;&gt;Collaboration</title>
<path fill="none" stroke="black" d="M338.6,-245.15C304.68,-249.6 266.02,-255.07 230.98,-261 206.28,-265.18 179.16,-270.57 155.91,-275.43"/>
<polygon fill="black" stroke="black" points="154.93,-272.06 145.87,-277.55 156.38,-278.91 154.93,-272.06"/>
</g>
<!-- Convergence measures -->
<g id="node9" class="node">
<title>Convergence measures</title>
<g id="a_node9"><a xlink:href="https://scholar.google.com/scholar?hl=en&amp;q=The%20Effect%20of%20Mutual%20Gaze%20Perception%20on%20Students’%20Verbal%20Coordination" xlink:title="Convergence measures" target="_blank">
<ellipse fill="none" stroke="black" cx="431.81" cy="-450" rx="92.88" ry="18"/>
<text text-anchor="middle" x="431.81" y="-446.3" font-family="Times,serif" font-size="14.00">Convergence measures</text>
</a>
</g>
</g>
<!-- Quality of Collaboration -->
<g id="node11" class="node">
<title>Quality of Collaboration</title>
<ellipse fill="none" stroke="black" cx="97.49" cy="-450" rx="97.48" ry="18"/>
<text text-anchor="middle" x="97.49" y="-446.3" font-family="Times,serif" font-size="14.00">Quality of Collaboration</text>
</g>
<!-- Convergence measures&#45;&gt;Quality of Collaboration -->
<g id="edge2" class="edge">
<title>Convergence measures&#45;&gt;Quality of Collaboration</title>
<path fill="none" stroke="black" d="M338.69,-450C297.34,-450 248.31,-450 205.36,-450"/>
<polygon fill="black" stroke="black" points="205.15,-446.5 195.15,-450 205.15,-453.5 205.15,-446.5"/>
</g>
</g>
</svg>
