<?xml version="1.0" encoding="UTF-8" standalone="no"?>
<!DOCTYPE svg PUBLIC "-//W3C//DTD SVG 1.1//EN"
 "http://www.w3.org/Graphics/SVG/1.1/DTD/svg11.dtd">
<!-- Generated by graphviz version 2.47.0 (20210316.0004)
 -->
<!-- Title: Test Pages: 1 -->
<svg width="489pt" height="314pt"
 viewBox="0.00 0.00 488.56 314.00" xmlns="http://www.w3.org/2000/svg" xmlns:xlink="http://www.w3.org/1999/xlink">
<g id="graph0" class="graph" transform="scale(1 1) rotate(0) translate(4 310)">
<title>Test</title>
<polygon fill="white" stroke="transparent" points="-4,4 -4,-310 484.56,-310 484.56,4 -4,4"/>
<!-- N&#45;grams -->
<g id="node1" class="node">
<title>N&#45;grams</title>
<g id="a_node1"><a xlink:href="https://scholar.google.com/scholar?hl=en&amp;q=The%20Effect%20of%20Mutual%20Gaze%20Perception%20on%20Students’%20Verbal%20Coordination" xlink:title="N&#45;grams">
<ellipse fill="none" stroke="black" cx="384.37" cy="-180" rx="42.49" ry="18"/>
<text text-anchor="middle" x="384.37" y="-176.3" font-family="Times,serif" font-size="14.00">N&#45;grams</text>
</a>
</g>
</g>
<!-- Learning gains -->
<g id="node7" class="node">
<title>Learning gains</title>
<ellipse fill="none" stroke="black" cx="126.09" cy="-99" rx="63.89" ry="18"/>
<text text-anchor="middle" x="126.09" y="-95.3" font-family="Times,serif" font-size="14.00">Learning gains</text>
</g>
<!-- N&#45;grams&#45;&gt;Learning gains -->
<g id="edge3" class="edge">
<title>N&#45;grams&#45;&gt;Learning gains</title>
<path fill="none" stroke="black" d="M348.44,-170.52C330.39,-165.51 308.04,-159.14 288.18,-153 250.51,-141.35 208.26,-127.14 176.48,-116.23"/>
<polygon fill="black" stroke="black" points="177.57,-112.9 166.97,-112.95 175.29,-119.52 177.57,-112.9"/>
</g>
<!-- Convergence measures -->
<g id="node2" class="node">
<title>Convergence measures</title>
<g id="a_node2"><a xlink:href="https://scholar.google.com/scholar?hl=en&amp;q=The%20Effect%20of%20Mutual%20Gaze%20Perception%20on%20Students’%20Verbal%20Coordination" xlink:title="Convergence measures">
<ellipse fill="none" stroke="black" cx="384.37" cy="-126" rx="92.88" ry="18"/>
<text text-anchor="middle" x="384.37" y="-122.3" font-family="Times,serif" font-size="14.00">Convergence measures</text>
</a>
</g>
</g>
<!-- Convergence measures&#45;&gt;Learning gains -->
<g id="edge1" class="edge">
<title>Convergence measures&#45;&gt;Learning gains</title>
<path fill="none" stroke="black" d="M302.28,-117.46C268.27,-113.87 229.13,-109.75 196.48,-106.31"/>
<polygon fill="black" stroke="black" points="196.44,-102.79 186.13,-105.22 195.7,-109.75 196.44,-102.79"/>
</g>
<!-- Coherence metrics -->
<g id="node3" class="node">
<title>Coherence metrics</title>
<g id="a_node3"><a xlink:href="https://scholar.google.com/scholar?hl=en&amp;q=The%20Effect%20of%20Mutual%20Gaze%20Perception%20on%20Students’%20Verbal%20Coordination" xlink:title="Coherence metrics">
<ellipse fill="none" stroke="black" cx="384.37" cy="-72" rx="77.19" ry="18"/>
<text text-anchor="middle" x="384.37" y="-68.3" font-family="Times,serif" font-size="14.00">Coherence metrics</text>
</a>
</g>
</g>
<!-- Coherence metrics&#45;&gt;Learning gains -->
<g id="edge2" class="edge">
<title>Coherence metrics&#45;&gt;Learning gains</title>
<path fill="none" stroke="black" d="M313.68,-79.34C277.1,-83.2 232.43,-87.9 195.97,-91.74"/>
<polygon fill="black" stroke="black" points="195.49,-88.27 185.92,-92.8 196.23,-95.24 195.49,-88.27"/>
</g>
<!-- Cosine similarity scores -->
<g id="node4" class="node">
<title>Cosine similarity scores</title>
<g id="a_node4"><a xlink:href="https://scholar.google.com/scholar?hl=en&amp;q=The%20Effect%20of%20Mutual%20Gaze%20Perception%20on%20Students’%20Verbal%20Coordination" xlink:title="Cosine similarity scores">
<ellipse fill="none" stroke="black" cx="384.37" cy="-18" rx="96.38" ry="18"/>
<text text-anchor="middle" x="384.37" y="-14.3" font-family="Times,serif" font-size="14.00">Cosine similarity scores</text>
</a>
</g>
</g>
<!-- Cosine similarity scores&#45;&gt;Learning gains -->
<g id="edge4" class="edge">
<title>Cosine similarity scores&#45;&gt;Learning gains</title>
<path fill="none" stroke="black" d="M329.37,-32.84C315.88,-36.68 301.47,-40.89 288.18,-45 250.51,-56.65 208.26,-70.86 176.48,-81.77"/>
<polygon fill="black" stroke="black" points="175.29,-78.48 166.97,-85.05 177.57,-85.1 175.29,-78.48"/>
</g>
<!-- amount of exploration -->
<g id="node5" class="node">
<title>amount of exploration</title>
<g id="a_node5"><a xlink:href="https://scholar.google.com/scholar?hl=en&amp;q=Unraveling%20Students&#39;%20Interaction%20around%20a%20Tangible%20Interface%20Using%20Multimodal%20Learning%20Analytics." xlink:title="amount of exploration">
<ellipse fill="none" stroke="black" cx="384.37" cy="-288" rx="89.88" ry="18"/>
<text text-anchor="middle" x="384.37" y="-284.3" font-family="Times,serif" font-size="14.00">amount of exploration</text>
</a>
</g>
</g>
<!-- learning gains -->
<g id="node8" class="node">
<title>learning gains</title>
<ellipse fill="none" stroke="black" cx="126.09" cy="-288" rx="60.39" ry="18"/>
<text text-anchor="middle" x="126.09" y="-284.3" font-family="Times,serif" font-size="14.00">learning gains</text>
</g>
<!-- amount of exploration&#45;&gt;learning gains -->
<g id="edge5" class="edge">
<title>amount of exploration&#45;&gt;learning gains</title>
<path fill="none" stroke="black" d="M294.45,-288C262.64,-288 227.26,-288 197.25,-288"/>
<polygon fill="black" stroke="black" points="196.87,-284.5 186.87,-288 196.87,-291.5 196.87,-284.5"/>
</g>
<!-- learning gain group (high or low -->
<g id="node9" class="node">
<title>learning gain group (high or low</title>
<ellipse fill="none" stroke="black" cx="126.09" cy="-234" rx="126.18" ry="18"/>
<text text-anchor="middle" x="126.09" y="-230.3" font-family="Times,serif" font-size="14.00">learning gain group (high or low</text>
</g>
<!-- amount of exploration&#45;&gt;learning gain group (high or low -->
<g id="edge7" class="edge">
<title>amount of exploration&#45;&gt;learning gain group (high or low</title>
<path fill="none" stroke="black" d="M321.98,-275.07C287.87,-267.88 245.01,-258.85 208.17,-251.08"/>
<polygon fill="black" stroke="black" points="208.46,-247.57 197.95,-248.93 207.01,-254.42 208.46,-247.57"/>
</g>
<!-- types of exploration -->
<g id="node6" class="node">
<title>types of exploration</title>
<g id="a_node6"><a xlink:href="https://scholar.google.com/scholar?hl=en&amp;q=Unraveling%20Students&#39;%20Interaction%20around%20a%20Tangible%20Interface%20Using%20Multimodal%20Learning%20Analytics." xlink:title="types of exploration">
<ellipse fill="none" stroke="black" cx="384.37" cy="-234" rx="81.49" ry="18"/>
<text text-anchor="middle" x="384.37" y="-230.3" font-family="Times,serif" font-size="14.00">types of exploration</text>
</a>
</g>
</g>
<!-- types of exploration&#45;&gt;learning gains -->
<g id="edge6" class="edge">
<title>types of exploration&#45;&gt;learning gains</title>
<path fill="none" stroke="black" d="M324.89,-246.32C283.27,-255.09 227.55,-266.83 185.86,-275.62"/>
<polygon fill="black" stroke="black" points="184.91,-272.24 175.85,-277.73 186.35,-279.09 184.91,-272.24"/>
</g>
<!-- types of exploration&#45;&gt;learning gain group (high or low -->
<g id="edge8" class="edge">
<title>types of exploration&#45;&gt;learning gain group (high or low</title>
<path fill="none" stroke="black" d="M302.98,-234C289.99,-234 276.23,-234 262.36,-234"/>
<polygon fill="black" stroke="black" points="262.25,-230.5 252.25,-234 262.25,-237.5 262.25,-230.5"/>
</g>
</g>
</svg>
