<?xml version="1.0" encoding="UTF-8" standalone="no"?>
<!DOCTYPE svg PUBLIC "-//W3C//DTD SVG 1.1//EN"
 "http://www.w3.org/Graphics/SVG/1.1/DTD/svg11.dtd">
<!-- Generated by graphviz version 2.47.0 (20210316.0004)
 -->
<!-- Title: Test Pages: 1 -->
<svg width="416pt" height="476pt"
 viewBox="0.00 0.00 415.77 476.00" xmlns="http://www.w3.org/2000/svg" xmlns:xlink="http://www.w3.org/1999/xlink">
<g id="graph0" class="graph" transform="scale(1 1) rotate(0) translate(4 472)">
<title>Test</title>
<polygon fill="white" stroke="transparent" points="-4,4 -4,-472 411.77,-472 411.77,4 -4,4"/>
<!-- Average stroke path length -->
<g id="node1" class="node">
<title>Average stroke path length</title>
<g id="a_node1"><a xlink:href="https://scholar.google.com/scholar?hl=en&amp;q=Expertise%20estimation%20based%20on%20simple%20multimodal%20features" xlink:title="Average stroke path length">
<ellipse fill="none" stroke="black" cx="294.03" cy="-342" rx="106.68" ry="18"/>
<text text-anchor="middle" x="294.03" y="-338.3" font-family="Times,serif" font-size="14.00">Average stroke path length</text>
</a>
</g>
</g>
<!-- Expert prediction -->
<g id="node11" class="node">
<title>Expert prediction</title>
<ellipse fill="none" stroke="black" cx="72.14" cy="-180" rx="72.29" ry="18"/>
<text text-anchor="middle" x="72.14" y="-176.3" font-family="Times,serif" font-size="14.00">Expert prediction</text>
</g>
<!-- Average stroke path length&#45;&gt;Expert prediction -->
<g id="edge5" class="edge">
<title>Average stroke path length&#45;&gt;Expert prediction</title>
<path fill="none" stroke="black" d="M213.58,-330.08C201.88,-326.34 190.39,-321.44 180.29,-315 137.76,-287.89 104.78,-237.95 87.22,-207"/>
<polygon fill="black" stroke="black" points="90.17,-205.11 82.27,-198.05 84.05,-208.5 90.17,-205.11"/>
</g>
<!-- Calculator Use -->
<g id="node2" class="node">
<title>Calculator Use</title>
<g id="a_node2"><a xlink:href="https://scholar.google.com/scholar?hl=en&amp;q=Expertise%20estimation%20based%20on%20simple%20multimodal%20features" xlink:title="Calculator Use">
<ellipse fill="none" stroke="black" cx="294.03" cy="-288" rx="63.89" ry="18"/>
<text text-anchor="middle" x="294.03" y="-284.3" font-family="Times,serif" font-size="14.00">Calculator Use</text>
</a>
</g>
</g>
<!-- Calculator Use&#45;&gt;Expert prediction -->
<g id="edge1" class="edge">
<title>Calculator Use&#45;&gt;Expert prediction</title>
<path fill="none" stroke="black" d="M237.58,-279.47C218.82,-275.35 198.12,-269.42 180.29,-261 149.76,-246.58 119.49,-222.57 98.95,-204.42"/>
<polygon fill="black" stroke="black" points="101.09,-201.63 91.31,-197.54 96.4,-206.83 101.09,-201.63"/>
</g>
<!-- Player actions -->
<g id="node3" class="node">
<title>Player actions</title>
<g id="a_node3"><a xlink:href="https://scholar.google.com/scholar?hl=en&amp;q=Gaze%20quality%20assisted%20automatic%20recognition%20of%20social%20contexts%20in%20collaborative%20Tetris" xlink:title="Player actions">
<ellipse fill="none" stroke="black" cx="294.03" cy="-450" rx="60.39" ry="18"/>
<text text-anchor="middle" x="294.03" y="-446.3" font-family="Times,serif" font-size="14.00">Player actions</text>
</a>
</g>
</g>
<!-- social context -->
<g id="node10" class="node">
<title>social context</title>
<ellipse fill="none" stroke="black" cx="72.14" cy="-423" rx="59.59" ry="18"/>
<text text-anchor="middle" x="72.14" y="-419.3" font-family="Times,serif" font-size="14.00">social context</text>
</g>
<!-- Player actions&#45;&gt;social context -->
<g id="edge8" class="edge">
<title>Player actions&#45;&gt;social context</title>
<path fill="none" stroke="black" d="M237.83,-443.22C207.52,-439.5 169.77,-434.86 138.05,-430.97"/>
<polygon fill="black" stroke="black" points="138.34,-427.48 127.99,-429.73 137.49,-434.43 138.34,-427.48"/>
</g>
<!-- zoid acceleration -->
<g id="node4" class="node">
<title>zoid acceleration</title>
<g id="a_node4"><a xlink:href="https://scholar.google.com/scholar?hl=en&amp;q=Gaze%20quality%20assisted%20automatic%20recognition%20of%20social%20contexts%20in%20collaborative%20Tetris" xlink:title="zoid acceleration">
<ellipse fill="none" stroke="black" cx="294.03" cy="-396" rx="70.69" ry="18"/>
<text text-anchor="middle" x="294.03" y="-392.3" font-family="Times,serif" font-size="14.00">zoid acceleration</text>
</a>
</g>
</g>
<!-- zoid acceleration&#45;&gt;social context -->
<g id="edge9" class="edge">
<title>zoid acceleration&#45;&gt;social context</title>
<path fill="none" stroke="black" d="M230.02,-403.74C201.18,-407.28 167.05,-411.47 137.99,-415.04"/>
<polygon fill="black" stroke="black" points="137.44,-411.58 127.95,-416.27 138.3,-418.53 137.44,-411.58"/>
</g>
<!-- Average stroke displacement -->
<g id="node5" class="node">
<title>Average stroke displacement</title>
<g id="a_node5"><a xlink:href="https://scholar.google.com/scholar?hl=en&amp;q=Expertise%20estimation%20based%20on%20simple%20multimodal%20features" xlink:title="Average stroke displacement">
<ellipse fill="none" stroke="black" cx="294.03" cy="-234" rx="113.98" ry="18"/>
<text text-anchor="middle" x="294.03" y="-230.3" font-family="Times,serif" font-size="14.00">Average stroke displacement</text>
</a>
</g>
</g>
<!-- Average stroke displacement&#45;&gt;Expert prediction -->
<g id="edge6" class="edge">
<title>Average stroke displacement&#45;&gt;Expert prediction</title>
<path fill="none" stroke="black" d="M230.09,-219.06C213.85,-215.17 196.41,-210.96 180.29,-207 165.01,-203.24 148.52,-199.12 133.16,-195.26"/>
<polygon fill="black" stroke="black" points="133.81,-191.81 123.26,-192.76 132.1,-198.6 133.81,-191.81"/>
</g>
<!-- Average number of points -->
<g id="node6" class="node">
<title>Average number of points</title>
<g id="a_node6"><a xlink:href="https://scholar.google.com/scholar?hl=en&amp;q=Expertise%20estimation%20based%20on%20simple%20multimodal%20features" xlink:title="Average number of points">
<ellipse fill="none" stroke="black" cx="294.03" cy="-180" rx="103.98" ry="18"/>
<text text-anchor="middle" x="294.03" y="-176.3" font-family="Times,serif" font-size="14.00">Average number of points</text>
</a>
</g>
</g>
<!-- Average number of points&#45;&gt;Expert prediction -->
<g id="edge3" class="edge">
<title>Average number of points&#45;&gt;Expert prediction</title>
<path fill="none" stroke="black" d="M189.85,-180C177.94,-180 165.92,-180 154.36,-180"/>
<polygon fill="black" stroke="black" points="154.33,-176.5 144.33,-180 154.33,-183.5 154.33,-176.5"/>
</g>
<!-- Average stroke pressure -->
<g id="node7" class="node">
<title>Average stroke pressure</title>
<g id="a_node7"><a xlink:href="https://scholar.google.com/scholar?hl=en&amp;q=Expertise%20estimation%20based%20on%20simple%20multimodal%20features" xlink:title="Average stroke pressure">
<ellipse fill="none" stroke="black" cx="294.03" cy="-126" rx="96.38" ry="18"/>
<text text-anchor="middle" x="294.03" y="-122.3" font-family="Times,serif" font-size="14.00">Average stroke pressure</text>
</a>
</g>
</g>
<!-- Average stroke pressure&#45;&gt;Expert prediction -->
<g id="edge7" class="edge">
<title>Average stroke pressure&#45;&gt;Expert prediction</title>
<path fill="none" stroke="black" d="M233.61,-140.09C216.4,-144.21 197.58,-148.75 180.29,-153 165.01,-156.76 148.52,-160.88 133.16,-164.74"/>
<polygon fill="black" stroke="black" points="132.1,-161.4 123.26,-167.24 133.81,-168.19 132.1,-161.4"/>
</g>
<!-- Total number of pen strokes -->
<g id="node8" class="node">
<title>Total number of pen strokes</title>
<g id="a_node8"><a xlink:href="https://scholar.google.com/scholar?hl=en&amp;q=Expertise%20estimation%20based%20on%20simple%20multimodal%20features" xlink:title="Total number of pen strokes">
<ellipse fill="none" stroke="black" cx="294.03" cy="-72" rx="111.28" ry="18"/>
<text text-anchor="middle" x="294.03" y="-68.3" font-family="Times,serif" font-size="14.00">Total number of pen strokes</text>
</a>
</g>
</g>
<!-- Total number of pen strokes&#45;&gt;Expert prediction -->
<g id="edge2" class="edge">
<title>Total number of pen strokes&#45;&gt;Expert prediction</title>
<path fill="none" stroke="black" d="M218.45,-85.25C205.41,-88.85 192.21,-93.37 180.29,-99 149.76,-113.42 119.49,-137.43 98.95,-155.58"/>
<polygon fill="black" stroke="black" points="96.4,-153.17 91.31,-162.46 101.09,-158.37 96.4,-153.17"/>
</g>
<!-- Average stroke time length -->
<g id="node9" class="node">
<title>Average stroke time length</title>
<g id="a_node9"><a xlink:href="https://scholar.google.com/scholar?hl=en&amp;q=Expertise%20estimation%20based%20on%20simple%20multimodal%20features" xlink:title="Average stroke time length">
<ellipse fill="none" stroke="black" cx="294.03" cy="-18" rx="107.48" ry="18"/>
<text text-anchor="middle" x="294.03" y="-14.3" font-family="Times,serif" font-size="14.00">Average stroke time length</text>
</a>
</g>
</g>
<!-- Average stroke time length&#45;&gt;Expert prediction -->
<g id="edge4" class="edge">
<title>Average stroke time length&#45;&gt;Expert prediction</title>
<path fill="none" stroke="black" d="M213.58,-29.92C201.88,-33.66 190.39,-38.56 180.29,-45 137.76,-72.11 104.78,-122.05 87.22,-153"/>
<polygon fill="black" stroke="black" points="84.05,-151.5 82.27,-161.95 90.17,-154.89 84.05,-151.5"/>
</g>
</g>
</svg>
