<?xml version="1.0" encoding="UTF-8" standalone="no"?>
<!DOCTYPE svg PUBLIC "-//W3C//DTD SVG 1.1//EN"
 "http://www.w3.org/Graphics/SVG/1.1/DTD/svg11.dtd">
<!-- Generated by graphviz version 2.47.0 (20210316.0004)
 -->
<!-- Title: Test Pages: 1 -->
<svg width="639pt" height="800pt"
 viewBox="0.00 0.00 639.35 800.00" xmlns="http://www.w3.org/2000/svg" xmlns:xlink="http://www.w3.org/1999/xlink">
<g id="graph0" class="graph" transform="scale(1 1) rotate(0) translate(4 796)">
<title>Test</title>
<polygon fill="white" stroke="transparent" points="-4,4 -4,-796 635.35,-796 635.35,4 -4,4"/>
<!-- Average stroke displacement -->
<g id="node1" class="node">
<title>Average stroke displacement</title>
<g id="a_node1"><a xlink:href="https://scholar.google.com/scholar?hl=en&amp;q=Expertise%20estimation%20based%20on%20simple%20multimodal%20features" xlink:title="Average stroke displacement">
<ellipse fill="none" stroke="black" cx="507.21" cy="-342" rx="113.98" ry="18"/>
<text text-anchor="middle" x="507.21" y="-338.3" font-family="Times,serif" font-size="14.00">Average stroke displacement</text>
</a>
</g>
</g>
<!-- Odds of a student solving correctly a problem -->
<g id="node16" class="node">
<title>Odds of a student solving correctly a problem</title>
<ellipse fill="none" stroke="black" cx="173.53" cy="-180" rx="173.57" ry="18"/>
<text text-anchor="middle" x="173.53" y="-176.3" font-family="Times,serif" font-size="14.00">Odds of a student solving correctly a problem</text>
</g>
<!-- Average stroke displacement&#45;&gt;Odds of a student solving correctly a problem -->
<g id="edge7" class="edge">
<title>Average stroke displacement&#45;&gt;Odds of a student solving correctly a problem</title>
<path fill="none" stroke="black" d="M427.39,-329.13C412.38,-325.46 397.01,-320.81 383.07,-315 314.42,-286.37 243.63,-235.05 204.73,-204.6"/>
<polygon fill="black" stroke="black" points="206.49,-201.52 196.47,-198.07 202.15,-207.02 206.49,-201.52"/>
</g>
<!-- events -->
<g id="node2" class="node">
<title>events</title>
<g id="a_node2"><a xlink:href="https://scholar.google.com/scholar?hl=en&amp;q=Analysing%20frequent%20sequential%20patterns%20of%20collaborative%20learning%20activity%20around%20an%20interactive%20tabletop" xlink:title="events">
<ellipse fill="none" stroke="black" cx="507.21" cy="-396" rx="33.29" ry="18"/>
<text text-anchor="middle" x="507.21" y="-392.3" font-family="Times,serif" font-size="14.00">events</text>
</a>
</g>
</g>
<!-- group performance -->
<g id="node18" class="node">
<title>group performance</title>
<ellipse fill="none" stroke="black" cx="173.53" cy="-396" rx="78.79" ry="18"/>
<text text-anchor="middle" x="173.53" y="-392.3" font-family="Times,serif" font-size="14.00">group performance</text>
</g>
<!-- events&#45;&gt;group performance -->
<g id="edge1" class="edge">
<title>events&#45;&gt;group performance</title>
<path fill="none" stroke="black" d="M473.8,-396C425.25,-396 331.91,-396 262.32,-396"/>
<polygon fill="black" stroke="black" points="262.23,-392.5 252.23,-396 262.23,-399.5 262.23,-392.5"/>
</g>
<!-- student work phases -->
<g id="node3" class="node">
<title>student work phases</title>
<g id="a_node3"><a xlink:href="https://scholar.google.com/scholar?hl=en&amp;q=Supervised%20machine%20learning%20in%20multimodal%20learning%20analytics%20for%20estimating%20success%20in%20project-based%20learning" xlink:title="student work phases">
<ellipse fill="none" stroke="black" cx="507.21" cy="-666" rx="82.59" ry="18"/>
<text text-anchor="middle" x="507.21" y="-662.3" font-family="Times,serif" font-size="14.00">student work phases</text>
</a>
</g>
</g>
<!-- artefact quality -->
<g id="node19" class="node">
<title>artefact quality</title>
<ellipse fill="none" stroke="black" cx="173.53" cy="-558" rx="63.89" ry="18"/>
<text text-anchor="middle" x="173.53" y="-554.3" font-family="Times,serif" font-size="14.00">artefact quality</text>
</g>
<!-- student work phases&#45;&gt;artefact quality -->
<g id="edge13" class="edge">
<title>student work phases&#45;&gt;artefact quality</title>
<path fill="none" stroke="black" d="M444.03,-654.32C424.37,-650.11 402.66,-644.91 383.07,-639 324.77,-621.4 259.66,-594.98 217.95,-577.14"/>
<polygon fill="black" stroke="black" points="219.22,-573.87 208.65,-573.13 216.45,-580.3 219.22,-573.87"/>
</g>
<!-- Average stroke time length -->
<g id="node4" class="node">
<title>Average stroke time length</title>
<g id="a_node4"><a xlink:href="https://scholar.google.com/scholar?hl=en&amp;q=Expertise%20estimation%20based%20on%20simple%20multimodal%20features" xlink:title="Average stroke time length">
<ellipse fill="none" stroke="black" cx="507.21" cy="-288" rx="107.48" ry="18"/>
<text text-anchor="middle" x="507.21" y="-284.3" font-family="Times,serif" font-size="14.00">Average stroke time length</text>
</a>
</g>
</g>
<!-- Average stroke time length&#45;&gt;Odds of a student solving correctly a problem -->
<g id="edge5" class="edge">
<title>Average stroke time length&#45;&gt;Odds of a student solving correctly a problem</title>
<path fill="none" stroke="black" d="M435.72,-274.51C418.37,-270.65 399.94,-266.09 383.07,-261 327.36,-244.18 265.43,-219.31 223.64,-201.56"/>
<polygon fill="black" stroke="black" points="224.83,-198.26 214.26,-197.55 222.08,-204.7 224.83,-198.26"/>
</g>
<!-- Arduino active hardware blocks -->
<g id="node5" class="node">
<title>Arduino active hardware blocks</title>
<g id="a_node5"><a xlink:href="https://scholar.google.com/scholar?hl=en&amp;q=Supervised%20machine%20learning%20in%20multimodal%20learning%20analytics%20for%20estimating%20success%20in%20project-based%20learning" xlink:title="Arduino active hardware blocks">
<ellipse fill="none" stroke="black" cx="507.21" cy="-612" rx="124.28" ry="18"/>
<text text-anchor="middle" x="507.21" y="-608.3" font-family="Times,serif" font-size="14.00">Arduino active hardware blocks</text>
</a>
</g>
</g>
<!-- Arduino active hardware blocks&#45;&gt;artefact quality -->
<g id="edge10" class="edge">
<title>Arduino active hardware blocks&#45;&gt;artefact quality</title>
<path fill="none" stroke="black" d="M423.8,-598.58C366.66,-589.28 291.66,-577.07 238.91,-568.48"/>
<polygon fill="black" stroke="black" points="239.43,-565.02 229,-566.87 238.3,-571.93 239.43,-565.02"/>
</g>
<!-- Arduino measure of complexity -->
<g id="node6" class="node">
<title>Arduino measure of complexity</title>
<g id="a_node6"><a xlink:href="https://scholar.google.com/scholar?hl=en&amp;q=Supervised%20machine%20learning%20in%20multimodal%20learning%20analytics%20for%20estimating%20success%20in%20project-based%20learning" xlink:title="Arduino measure of complexity">
<ellipse fill="none" stroke="black" cx="507.21" cy="-558" rx="124.28" ry="18"/>
<text text-anchor="middle" x="507.21" y="-554.3" font-family="Times,serif" font-size="14.00">Arduino measure of complexity</text>
</a>
</g>
</g>
<!-- Arduino measure of complexity&#45;&gt;artefact quality -->
<g id="edge9" class="edge">
<title>Arduino measure of complexity&#45;&gt;artefact quality</title>
<path fill="none" stroke="black" d="M382.71,-558C337.3,-558 287.35,-558 247.77,-558"/>
<polygon fill="black" stroke="black" points="247.68,-554.5 237.68,-558 247.68,-561.5 247.68,-554.5"/>
</g>
<!-- Arduino active software blocks -->
<g id="node7" class="node">
<title>Arduino active software blocks</title>
<g id="a_node7"><a xlink:href="https://scholar.google.com/scholar?hl=en&amp;q=Supervised%20machine%20learning%20in%20multimodal%20learning%20analytics%20for%20estimating%20success%20in%20project-based%20learning" xlink:title="Arduino active software blocks">
<ellipse fill="none" stroke="black" cx="507.21" cy="-504" rx="121.58" ry="18"/>
<text text-anchor="middle" x="507.21" y="-500.3" font-family="Times,serif" font-size="14.00">Arduino active software blocks</text>
</a>
</g>
</g>
<!-- Arduino active software blocks&#45;&gt;artefact quality -->
<g id="edge11" class="edge">
<title>Arduino active software blocks&#45;&gt;artefact quality</title>
<path fill="none" stroke="black" d="M424.65,-517.28C367.44,-526.59 292,-538.88 238.99,-547.51"/>
<polygon fill="black" stroke="black" points="238.34,-544.07 229.03,-549.13 239.46,-550.98 238.34,-544.07"/>
</g>
<!-- Calculator Use -->
<g id="node8" class="node">
<title>Calculator Use</title>
<g id="a_node8"><a xlink:href="https://scholar.google.com/scholar?hl=en&amp;q=Expertise%20estimation%20based%20on%20simple%20multimodal%20features" xlink:title="Calculator Use">
<ellipse fill="none" stroke="black" cx="507.21" cy="-234" rx="63.89" ry="18"/>
<text text-anchor="middle" x="507.21" y="-230.3" font-family="Times,serif" font-size="14.00">Calculator Use</text>
</a>
</g>
</g>
<!-- Calculator Use&#45;&gt;Odds of a student solving correctly a problem -->
<g id="edge2" class="edge">
<title>Calculator Use&#45;&gt;Odds of a student solving correctly a problem</title>
<path fill="none" stroke="black" d="M451.44,-225.08C404.4,-217.42 335.3,-206.17 277.9,-196.83"/>
<polygon fill="black" stroke="black" points="278.12,-193.32 267.69,-195.17 277,-200.23 278.12,-193.32"/>
</g>
<!-- Average stroke path length -->
<g id="node9" class="node">
<title>Average stroke path length</title>
<g id="a_node9"><a xlink:href="https://scholar.google.com/scholar?hl=en&amp;q=Expertise%20estimation%20based%20on%20simple%20multimodal%20features" xlink:title="Average stroke path length">
<ellipse fill="none" stroke="black" cx="507.21" cy="-180" rx="106.68" ry="18"/>
<text text-anchor="middle" x="507.21" y="-176.3" font-family="Times,serif" font-size="14.00">Average stroke path length</text>
</a>
</g>
</g>
<!-- Average stroke path length&#45;&gt;Odds of a student solving correctly a problem -->
<g id="edge6" class="edge">
<title>Average stroke path length&#45;&gt;Odds of a student solving correctly a problem</title>
<path fill="none" stroke="black" d="M400.35,-180C386.49,-180 371.98,-180 357.29,-180"/>
<polygon fill="black" stroke="black" points="357.1,-176.5 347.1,-180 357.1,-183.5 357.1,-176.5"/>
</g>
<!-- Arduino active blocks -->
<g id="node10" class="node">
<title>Arduino active blocks</title>
<g id="a_node10"><a xlink:href="https://scholar.google.com/scholar?hl=en&amp;q=Supervised%20machine%20learning%20in%20multimodal%20learning%20analytics%20for%20estimating%20success%20in%20project-based%20learning" xlink:title="Arduino active blocks">
<ellipse fill="none" stroke="black" cx="507.21" cy="-450" rx="89.08" ry="18"/>
<text text-anchor="middle" x="507.21" y="-446.3" font-family="Times,serif" font-size="14.00">Arduino active blocks</text>
</a>
</g>
</g>
<!-- Arduino active blocks&#45;&gt;artefact quality -->
<g id="edge12" class="edge">
<title>Arduino active blocks&#45;&gt;artefact quality</title>
<path fill="none" stroke="black" d="M441.5,-462.22C422.51,-466.34 401.82,-471.34 383.07,-477 324.77,-494.6 259.66,-521.02 217.95,-538.86"/>
<polygon fill="black" stroke="black" points="216.45,-535.7 208.65,-542.87 219.22,-542.13 216.45,-535.7"/>
</g>
<!-- Average number of points -->
<g id="node11" class="node">
<title>Average number of points</title>
<g id="a_node11"><a xlink:href="https://scholar.google.com/scholar?hl=en&amp;q=Expertise%20estimation%20based%20on%20simple%20multimodal%20features" xlink:title="Average number of points">
<ellipse fill="none" stroke="black" cx="507.21" cy="-126" rx="103.98" ry="18"/>
<text text-anchor="middle" x="507.21" y="-122.3" font-family="Times,serif" font-size="14.00">Average number of points</text>
</a>
</g>
</g>
<!-- Average number of points&#45;&gt;Odds of a student solving correctly a problem -->
<g id="edge4" class="edge">
<title>Average number of points&#45;&gt;Odds of a student solving correctly a problem</title>
<path fill="none" stroke="black" d="M430.95,-138.25C385.62,-145.63 327.27,-155.13 277.68,-163.21"/>
<polygon fill="black" stroke="black" points="276.87,-159.79 267.57,-164.85 278,-166.7 276.87,-159.79"/>
</g>
<!-- type of activity done in task -->
<g id="node12" class="node">
<title>type of activity done in task</title>
<g id="a_node12"><a xlink:href="https://scholar.google.com/scholar?hl=en&amp;q=Focused%20or%20Stuck%20Together:%20Multimodal%20Patterns%20Reveal%20Triads’%20Performance%20in%20Collaborative%20Problem%20Solving" xlink:title="type of activity done in task">
<ellipse fill="none" stroke="black" cx="507.21" cy="-774" rx="109.68" ry="18"/>
<text text-anchor="middle" x="507.21" y="-770.3" font-family="Times,serif" font-size="14.00">type of activity done in task</text>
</a>
</g>
</g>
<!-- task success score -->
<g id="node17" class="node">
<title>task success score</title>
<ellipse fill="none" stroke="black" cx="173.53" cy="-747" rx="74.99" ry="18"/>
<text text-anchor="middle" x="173.53" y="-743.3" font-family="Times,serif" font-size="14.00">task success score</text>
</g>
<!-- type of activity done in task&#45;&gt;task success score -->
<g id="edge14" class="edge">
<title>type of activity done in task&#45;&gt;task success score</title>
<path fill="none" stroke="black" d="M408.49,-766.05C359.44,-762.05 300.78,-757.28 254.46,-753.51"/>
<polygon fill="black" stroke="black" points="254.73,-750.02 244.48,-752.69 254.16,-756.99 254.73,-750.02"/>
</g>
<!-- Average stroke pressure -->
<g id="node13" class="node">
<title>Average stroke pressure</title>
<g id="a_node13"><a xlink:href="https://scholar.google.com/scholar?hl=en&amp;q=Expertise%20estimation%20based%20on%20simple%20multimodal%20features" xlink:title="Average stroke pressure">
<ellipse fill="none" stroke="black" cx="507.21" cy="-72" rx="96.38" ry="18"/>
<text text-anchor="middle" x="507.21" y="-68.3" font-family="Times,serif" font-size="14.00">Average stroke pressure</text>
</a>
</g>
</g>
<!-- Average stroke pressure&#45;&gt;Odds of a student solving correctly a problem -->
<g id="edge8" class="edge">
<title>Average stroke pressure&#45;&gt;Odds of a student solving correctly a problem</title>
<path fill="none" stroke="black" d="M438.94,-84.78C420.67,-88.79 400.98,-93.59 383.07,-99 327.36,-115.82 265.43,-140.69 223.64,-158.44"/>
<polygon fill="black" stroke="black" points="222.08,-155.3 214.26,-162.45 224.83,-161.74 222.08,-155.3"/>
</g>
<!-- Total number of pen strokes -->
<g id="node14" class="node">
<title>Total number of pen strokes</title>
<g id="a_node14"><a xlink:href="https://scholar.google.com/scholar?hl=en&amp;q=Expertise%20estimation%20based%20on%20simple%20multimodal%20features" xlink:title="Total number of pen strokes">
<ellipse fill="none" stroke="black" cx="507.21" cy="-18" rx="111.28" ry="18"/>
<text text-anchor="middle" x="507.21" y="-14.3" font-family="Times,serif" font-size="14.00">Total number of pen strokes</text>
</a>
</g>
</g>
<!-- Total number of pen strokes&#45;&gt;Odds of a student solving correctly a problem -->
<g id="edge3" class="edge">
<title>Total number of pen strokes&#45;&gt;Odds of a student solving correctly a problem</title>
<path fill="none" stroke="black" d="M428.05,-30.71C412.82,-34.41 397.21,-39.1 383.07,-45 314.42,-73.63 243.63,-124.95 204.73,-155.4"/>
<polygon fill="black" stroke="black" points="202.15,-152.98 196.47,-161.93 206.49,-158.48 202.15,-152.98"/>
</g>
<!-- target for discussion partner -->
<g id="node15" class="node">
<title>target for discussion partner</title>
<g id="a_node15"><a xlink:href="https://scholar.google.com/scholar?hl=en&amp;q=Focused%20or%20Stuck%20Together:%20Multimodal%20Patterns%20Reveal%20Triads’%20Performance%20in%20Collaborative%20Problem%20Solving" xlink:title="target for discussion partner">
<ellipse fill="none" stroke="black" cx="507.21" cy="-720" rx="109.68" ry="18"/>
<text text-anchor="middle" x="507.21" y="-716.3" font-family="Times,serif" font-size="14.00">target for discussion partner</text>
</a>
</g>
</g>
<!-- target for discussion partner&#45;&gt;task success score -->
<g id="edge15" class="edge">
<title>target for discussion partner&#45;&gt;task success score</title>
<path fill="none" stroke="black" d="M408.49,-727.95C359.44,-731.95 300.78,-736.72 254.46,-740.49"/>
<polygon fill="black" stroke="black" points="254.16,-737.01 244.48,-741.31 254.73,-743.98 254.16,-737.01"/>
</g>
</g>
</svg>
