<?xml version="1.0" encoding="UTF-8" standalone="no"?>
<!DOCTYPE svg PUBLIC "-//W3C//DTD SVG 1.1//EN"
 "http://www.w3.org/Graphics/SVG/1.1/DTD/svg11.dtd">
<!-- Generated by graphviz version 2.47.0 (20210316.0004)
 -->
<!-- Title: Test Pages: 1 -->
<svg width="682pt" height="638pt"
 viewBox="0.00 0.00 682.24 638.00" xmlns="http://www.w3.org/2000/svg" xmlns:xlink="http://www.w3.org/1999/xlink">
<g id="graph0" class="graph" transform="scale(1 1) rotate(0) translate(4 634)">
<title>Test</title>
<polygon fill="white" stroke="transparent" points="-4,4 -4,-634 678.24,-634 678.24,4 -4,4"/>
<!-- Fisher’s z&#45;transform (FZT -->
<g id="node1" class="node">
<title>Fisher’s z&#45;transform (FZT</title>
<g id="a_node1"><a xlink:href="https://scholar.google.com/scholar?hl=en&amp;q=Investigating%20collaborative%20learning%20success%20with%20physiological%20coupling%20indices%20based%20on%20electrodermal%20activity" xlink:title="Fisher’s z&#45;transform (FZT">
<ellipse fill="none" stroke="black" cx="516.31" cy="-288" rx="114.28" ry="18"/>
<text text-anchor="middle" x="516.31" y="-284.3" font-family="Times,serif" font-size="14.00">Fisher’s z&#45;transform (FZT</text>
</a>
</g>
</g>
<!-- collaborative will -->
<g id="node12" class="node">
<title>collaborative will</title>
<ellipse fill="none" stroke="black" cx="161.19" cy="-180" rx="72.59" ry="18"/>
<text text-anchor="middle" x="161.19" y="-176.3" font-family="Times,serif" font-size="14.00">collaborative will</text>
</g>
<!-- Fisher’s z&#45;transform (FZT&#45;&gt;collaborative will -->
<g id="edge5" class="edge">
<title>Fisher’s z&#45;transform (FZT&#45;&gt;collaborative will</title>
<path fill="none" stroke="black" d="M427.78,-276.46C404.96,-272.5 380.55,-267.4 358.37,-261 303.54,-245.18 243.25,-218.85 204.17,-200.52"/>
<polygon fill="black" stroke="black" points="205.25,-197.16 194.71,-196.05 202.25,-203.49 205.25,-197.16"/>
</g>
<!-- Directional Agreement (DA -->
<g id="node2" class="node">
<title>Directional Agreement (DA</title>
<g id="a_node2"><a xlink:href="https://scholar.google.com/scholar?hl=en&amp;q=Using%20Physiological%20Synchrony%20as%20an%20Indicator%20of%20Collaboration%20Quality,%20Task%20Performance%20and%20Learning" xlink:title="Directional Agreement (DA">
<ellipse fill="none" stroke="black" cx="516.31" cy="-180" rx="109.68" ry="18"/>
<text text-anchor="middle" x="516.31" y="-176.3" font-family="Times,serif" font-size="14.00">Directional Agreement (DA</text>
</a>
</g>
</g>
<!-- Directional Agreement (DA&#45;&gt;collaborative will -->
<g id="edge3" class="edge">
<title>Directional Agreement (DA&#45;&gt;collaborative will</title>
<path fill="none" stroke="black" d="M406,-180C353.8,-180 292.39,-180 244.26,-180"/>
<polygon fill="black" stroke="black" points="244.2,-176.5 234.2,-180 244.2,-183.5 244.2,-176.5"/>
</g>
<!-- colaboration quality -->
<g id="node18" class="node">
<title>colaboration quality</title>
<ellipse fill="none" stroke="black" cx="161.19" cy="-99" rx="81.49" ry="18"/>
<text text-anchor="middle" x="161.19" y="-95.3" font-family="Times,serif" font-size="14.00">colaboration quality</text>
</g>
<!-- Directional Agreement (DA&#45;&gt;colaboration quality -->
<g id="edge10" class="edge">
<title>Directional Agreement (DA&#45;&gt;colaboration quality: reciprocal interaction</title>
<path fill="none" stroke="black" d="M435.17,-167.77C410.45,-163.58 383.2,-158.54 358.37,-153 311.37,-142.51 258.8,-127.88 219.91,-116.5"/>
<polygon fill="black" stroke="black" points="220.41,-113 209.83,-113.53 218.43,-119.71 220.41,-113"/>
</g>
<!-- Signal Matching (SM -->
<g id="node3" class="node">
<title>Signal Matching (SM</title>
<g id="a_node3"><a xlink:href="https://scholar.google.com/scholar?hl=en&amp;q=Using%20Physiological%20Synchrony%20as%20an%20Indicator%20of%20Collaboration%20Quality,%20Task%20Performance%20and%20Learning" xlink:title="Signal Matching (SM">
<ellipse fill="none" stroke="black" cx="516.31" cy="-126" rx="88.28" ry="18"/>
<text text-anchor="middle" x="516.31" y="-122.3" font-family="Times,serif" font-size="14.00">Signal Matching (SM</text>
</a>
</g>
</g>
<!-- Signal Matching (SM&#45;&gt;collaborative will -->
<g id="edge2" class="edge">
<title>Signal Matching (SM&#45;&gt;collaborative will</title>
<path fill="none" stroke="black" d="M445.12,-136.73C383.77,-146.11 295.1,-159.67 233.44,-169.1"/>
<polygon fill="black" stroke="black" points="232.76,-165.67 223.4,-170.64 233.81,-172.59 232.76,-165.67"/>
</g>
<!-- Signal Matching (SM&#45;&gt;colaboration quality -->
<g id="edge7" class="edge">
<title>Signal Matching (SM&#45;&gt;colaboration quality: reciprocal interaction</title>
<path fill="none" stroke="black" d="M433.41,-119.74C377.98,-115.5 304.87,-109.91 248.53,-105.6"/>
<polygon fill="black" stroke="black" points="248.45,-102.09 238.21,-104.81 247.91,-109.07 248.45,-102.09"/>
</g>
<!-- Galvanic skin response -->
<g id="node4" class="node">
<title>Galvanic skin response</title>
<g id="a_node4"><a xlink:href="https://scholar.google.com/scholar?hl=en&amp;q=Modeling%20Team-level%20Multimodal%20Dynamics%20during%20Multiparty%20Collaboration" xlink:title="Galvanic skin response">
<ellipse fill="none" stroke="black" cx="516.31" cy="-342" rx="92.88" ry="18"/>
<text text-anchor="middle" x="516.31" y="-338.3" font-family="Times,serif" font-size="14.00">Galvanic skin response</text>
</a>
</g>
</g>
<!-- Perceived Collaboration Quality -->
<g id="node17" class="node">
<title>Perceived Collaboration Quality</title>
<ellipse fill="none" stroke="black" cx="161.19" cy="-342" rx="124.58" ry="18"/>
<text text-anchor="middle" x="161.19" y="-338.3" font-family="Times,serif" font-size="14.00">Perceived Collaboration Quality</text>
</g>
<!-- Galvanic skin response&#45;&gt;Perceived Collaboration Quality -->
<g id="edge1" class="edge">
<title>Galvanic skin response&#45;&gt;Perceived Collaboration Quality</title>
<path fill="none" stroke="black" d="M422.99,-342C384.3,-342 338.57,-342 296.28,-342"/>
<polygon fill="black" stroke="black" points="296.19,-338.5 286.19,-342 296.19,-345.5 296.19,-338.5"/>
</g>
<!-- EDA synchrony -->
<g id="node5" class="node">
<title>EDA synchrony</title>
<g id="a_node5"><a xlink:href="https://scholar.google.com/scholar?hl=en&amp;q=Physiological%20evidence%20of%20interpersonal%20dynamics%20in%20a%20cooperative%20production%20task" xlink:title="EDA synchrony">
<ellipse fill="none" stroke="black" cx="516.31" cy="-396" rx="67.69" ry="18"/>
<text text-anchor="middle" x="516.31" y="-392.3" font-family="Times,serif" font-size="14.00">EDA synchrony</text>
</a>
</g>
</g>
<!-- team cohesion -->
<g id="node14" class="node">
<title>team cohesion</title>
<ellipse fill="none" stroke="black" cx="161.19" cy="-396" rx="61.99" ry="18"/>
<text text-anchor="middle" x="161.19" y="-392.3" font-family="Times,serif" font-size="14.00">team cohesion</text>
</g>
<!-- EDA synchrony&#45;&gt;team cohesion -->
<g id="edge11" class="edge">
<title>EDA synchrony&#45;&gt;team cohesion</title>
<path fill="none" stroke="black" d="M448.47,-396C387.01,-396 296.16,-396 233.36,-396"/>
<polygon fill="black" stroke="black" points="233.14,-392.5 223.14,-396 233.14,-399.5 233.14,-392.5"/>
</g>
<!-- Pearson’s correlation (PC -->
<g id="node6" class="node">
<title>Pearson’s correlation (PC</title>
<g id="a_node6"><a xlink:href="https://scholar.google.com/scholar?hl=en&amp;q=Using%20Physiological%20Synchrony%20as%20an%20Indicator%20of%20Collaboration%20Quality,%20Task%20Performance%20and%20Learning" xlink:title="Pearson’s correlation (PC">
<ellipse fill="none" stroke="black" cx="516.31" cy="-18" rx="112.38" ry="18"/>
<text text-anchor="middle" x="516.31" y="-14.3" font-family="Times,serif" font-size="14.00">Pearson’s correlation (PC</text>
</a>
</g>
</g>
<!-- Pearson’s correlation (PC&#45;&gt;colaboration quality -->
<g id="edge9" class="edge">
<title>Pearson’s correlation (PC&#45;&gt;colaboration quality: reciprocal interaction</title>
<path fill="none" stroke="black" d="M434.37,-30.36C409.85,-34.53 382.93,-39.52 358.37,-45 311.37,-55.49 258.8,-70.12 219.91,-81.5"/>
<polygon fill="black" stroke="black" points="218.43,-78.29 209.83,-84.47 220.41,-85 218.43,-78.29"/>
</g>
<!-- cycles of physiological synchrony (PC -->
<g id="node7" class="node">
<title>cycles of physiological synchrony (PC</title>
<g id="a_node7"><a xlink:href="https://scholar.google.com/scholar?hl=en&amp;q=Unpacking%20the%20relationship%20between%20existing%20and%20new%20measures%20of%20physiological%20synchrony%20and%20collaborative%20learning:%20a%20mixed%20methods%20study" xlink:title="cycles of physiological synchrony (PC">
<ellipse fill="none" stroke="black" cx="516.31" cy="-504" rx="147.57" ry="18"/>
<text text-anchor="middle" x="516.31" y="-500.3" font-family="Times,serif" font-size="14.00">cycles of physiological synchrony (PC</text>
</a>
</g>
</g>
<!-- collaboration quality -->
<g id="node15" class="node">
<title>collaboration quality</title>
<ellipse fill="none" stroke="black" cx="161.19" cy="-477" rx="83.69" ry="18"/>
<text text-anchor="middle" x="161.19" y="-473.3" font-family="Times,serif" font-size="14.00">collaboration quality</text>
</g>
<!-- cycles of physiological synchrony (PC&#45;&gt;collaboration quality -->
<g id="edge14" class="edge">
<title>cycles of physiological synchrony (PC&#45;&gt;collaboration quality</title>
<path fill="none" stroke="black" d="M390.81,-494.48C344.49,-490.94 292.91,-487 250.49,-483.75"/>
<polygon fill="black" stroke="black" points="250.7,-480.26 240.47,-482.99 250.17,-487.24 250.7,-480.26"/>
</g>
<!-- Pearson’s correlation coefficient (PCC -->
<g id="node8" class="node">
<title>Pearson’s correlation coefficient (PCC</title>
<g id="a_node8"><a xlink:href="https://scholar.google.com/scholar?hl=en&amp;q=Investigating%20collaborative%20learning%20success%20with%20physiological%20coupling%20indices%20based%20on%20electrodermal%20activity" xlink:title="Pearson’s correlation coefficient (PCC">
<ellipse fill="none" stroke="black" cx="516.31" cy="-234" rx="157.07" ry="18"/>
<text text-anchor="middle" x="516.31" y="-230.3" font-family="Times,serif" font-size="14.00">Pearson’s correlation coefficient (PCC</text>
</a>
</g>
</g>
<!-- Pearson’s correlation coefficient (PCC&#45;&gt;collaborative will -->
<g id="edge4" class="edge">
<title>Pearson’s correlation coefficient (PCC&#45;&gt;collaborative will</title>
<path fill="none" stroke="black" d="M421.14,-219.6C362.31,-210.6 287.75,-199.2 233.76,-190.94"/>
<polygon fill="black" stroke="black" points="234,-187.44 223.58,-189.39 232.94,-194.36 234,-187.44"/>
</g>
<!-- physiological synchrony (DA -->
<g id="node9" class="node">
<title>physiological synchrony (DA</title>
<g id="a_node9"><a xlink:href="https://scholar.google.com/scholar?hl=en&amp;q=Unpacking%20the%20relationship%20between%20existing%20and%20new%20measures%20of%20physiological%20synchrony%20and%20collaborative%20learning:%20a%20mixed%20methods%20study" xlink:title="physiological synchrony (DA">
<ellipse fill="none" stroke="black" cx="516.31" cy="-450" rx="115.08" ry="18"/>
<text text-anchor="middle" x="516.31" y="-446.3" font-family="Times,serif" font-size="14.00">physiological synchrony (DA</text>
</a>
</g>
</g>
<!-- physiological synchrony (DA&#45;&gt;collaboration quality -->
<g id="edge13" class="edge">
<title>physiological synchrony (DA&#45;&gt;collaboration quality</title>
<path fill="none" stroke="black" d="M412.7,-457.85C361.26,-461.78 299.6,-466.49 250.33,-470.26"/>
<polygon fill="black" stroke="black" points="250.03,-466.77 240.33,-471.03 250.56,-473.75 250.03,-466.77"/>
</g>
<!-- brain synchrony -->
<g id="node10" class="node">
<title>brain synchrony</title>
<g id="a_node10"><a xlink:href="https://scholar.google.com/scholar?hl=en&amp;q=Brain-to-Brain%20Synchrony%20Tracks%20Real-World%20Dynamic%20Group%20Interactions%20in%20the%20Classroom" xlink:title="brain synchrony">
<ellipse fill="none" stroke="black" cx="516.31" cy="-558" rx="67.69" ry="18"/>
<text text-anchor="middle" x="516.31" y="-554.3" font-family="Times,serif" font-size="14.00">brain synchrony</text>
</a>
</g>
</g>
<!-- Social dynamics -->
<g id="node13" class="node">
<title>Social dynamics</title>
<ellipse fill="none" stroke="black" cx="161.19" cy="-558" rx="69.59" ry="18"/>
<text text-anchor="middle" x="161.19" y="-554.3" font-family="Times,serif" font-size="14.00">Social dynamics</text>
</g>
<!-- brain synchrony&#45;&gt;Social dynamics -->
<g id="edge12" class="edge">
<title>brain synchrony&#45;&gt;Social dynamics</title>
<path fill="none" stroke="black" d="M448.47,-558C389.47,-558 303.39,-558 241.04,-558"/>
<polygon fill="black" stroke="black" points="240.85,-554.5 230.85,-558 240.85,-561.5 240.85,-554.5"/>
</g>
<!-- Instantaneous Derivative Matching (IDM -->
<g id="node11" class="node">
<title>Instantaneous Derivative Matching (IDM</title>
<g id="a_node11"><a xlink:href="https://scholar.google.com/scholar?hl=en&amp;q=Using%20Physiological%20Synchrony%20as%20an%20Indicator%20of%20Collaboration%20Quality,%20Task%20Performance%20and%20Learning" xlink:title="Instantaneous Derivative Matching (IDM">
<ellipse fill="none" stroke="black" cx="516.31" cy="-72" rx="157.87" ry="18"/>
<text text-anchor="middle" x="516.31" y="-68.3" font-family="Times,serif" font-size="14.00">Instantaneous Derivative Matching (IDM</text>
</a>
</g>
</g>
<!-- Instantaneous Derivative Matching (IDM&#45;&gt;collaborative will -->
<g id="edge6" class="edge">
<title>Instantaneous Derivative Matching (IDM&#45;&gt;collaborative will</title>
<path fill="none" stroke="black" d="M403.23,-84.57C387.82,-88.22 372.46,-92.93 358.37,-99 340,-106.92 340.07,-116.69 322.37,-126 291.08,-142.46 253.77,-155.39 223.03,-164.46"/>
<polygon fill="black" stroke="black" points="221.94,-161.13 213.3,-167.27 223.88,-167.86 221.94,-161.13"/>
</g>
<!-- Instantaneous Derivative Matching (IDM&#45;&gt;colaboration quality -->
<g id="edge8" class="edge">
<title>Instantaneous Derivative Matching (IDM&#45;&gt;colaboration quality: reciprocal interaction</title>
<path fill="none" stroke="black" d="M384.82,-81.98C339.36,-85.45 289.52,-89.26 248.54,-92.4"/>
<polygon fill="black" stroke="black" points="248.02,-88.93 238.32,-93.18 248.56,-95.91 248.02,-88.93"/>
</g>
<!-- colaboration quality: reciprocal interaction -->
<g id="node16" class="node">
<title>colaboration quality: reciprocal interaction</title>
<ellipse fill="none" stroke="black" cx="161.19" cy="-612" rx="161.37" ry="18"/>
<text text-anchor="middle" x="161.19" y="-608.3" font-family="Times,serif" font-size="14.00">colaboration quality: reciprocal interaction</text>
</g>
</g>
</svg>
