<?xml version="1.0" encoding="UTF-8" standalone="no"?>
<!DOCTYPE svg PUBLIC "-//W3C//DTD SVG 1.1//EN"
 "http://www.w3.org/Graphics/SVG/1.1/DTD/svg11.dtd">
<!-- Generated by graphviz version 2.47.0 (20210316.0004)
 -->
<!-- Title: Test Pages: 1 -->
<svg width="632pt" height="1016pt"
 viewBox="0.00 0.00 631.55 1016.00" xmlns="http://www.w3.org/2000/svg" xmlns:xlink="http://www.w3.org/1999/xlink">
<g id="graph0" class="graph" transform="scale(1 1) rotate(0) translate(4 1012)">
<title>Test</title>
<polygon fill="white" stroke="transparent" points="-4,4 -4,-1012 627.55,-1012 627.55,4 -4,4"/>
<!-- Galvanic skin response -->
<g id="node1" class="node">
<title>Galvanic skin response</title>
<g id="a_node1"><a xlink:href="https://scholar.google.com/scholar?hl=en&amp;q=Modeling%20Team-level%20Multimodal%20Dynamics%20during%20Multiparty%20Collaboration" xlink:title="Galvanic skin response">
<ellipse fill="none" stroke="black" cx="465.61" cy="-18" rx="92.88" ry="18"/>
<text text-anchor="middle" x="465.61" y="-14.3" font-family="Times,serif" font-size="14.00">Galvanic skin response</text>
</a>
</g>
</g>
<!-- Task Performance -->
<g id="node19" class="node">
<title>Task Performance</title>
<ellipse fill="none" stroke="black" cx="135.84" cy="-18" rx="75.29" ry="18"/>
<text text-anchor="middle" x="135.84" y="-14.3" font-family="Times,serif" font-size="14.00">Task Performance</text>
</g>
<!-- Galvanic skin response&#45;&gt;Task Performance -->
<g id="edge1" class="edge">
<title>Galvanic skin response&#45;&gt;Task Performance</title>
<path fill="none" stroke="black" d="M372.44,-18C324.98,-18 267.54,-18 221.25,-18"/>
<polygon fill="black" stroke="black" points="221.25,-14.5 211.25,-18 221.25,-21.5 221.25,-14.5"/>
</g>
<!-- Directional Agreement (DA -->
<g id="node2" class="node">
<title>Directional Agreement (DA</title>
<g id="a_node2"><a xlink:href="https://scholar.google.com/scholar?hl=en&amp;q=Investigating%20collaborative%20learning%20success%20with%20physiological%20coupling%20indices%20based%20on%20electrodermal%20activity" xlink:title="Directional Agreement (DA">
<ellipse fill="none" stroke="black" cx="465.61" cy="-288" rx="109.68" ry="18"/>
<text text-anchor="middle" x="465.61" y="-284.3" font-family="Times,serif" font-size="14.00">Directional Agreement (DA</text>
</a>
</g>
</g>
<!-- collaborative learning product -->
<g id="node21" class="node">
<title>collaborative learning product</title>
<ellipse fill="none" stroke="black" cx="135.84" cy="-180" rx="116.98" ry="18"/>
<text text-anchor="middle" x="135.84" y="-176.3" font-family="Times,serif" font-size="14.00">collaborative learning product</text>
</g>
<!-- Directional Agreement (DA&#45;&gt;collaborative learning product -->
<g id="edge14" class="edge">
<title>Directional Agreement (DA&#45;&gt;collaborative learning product</title>
<path fill="none" stroke="black" d="M377.26,-277.3C354.32,-273.32 329.82,-268.01 307.68,-261 260.62,-246.11 209.91,-220.76 176.06,-202.39"/>
<polygon fill="black" stroke="black" points="177.43,-199.14 166.98,-197.4 174.06,-205.28 177.43,-199.14"/>
</g>
<!-- WC &#45; HR high frequency -->
<g id="node3" class="node">
<title>WC &#45; HR high frequency</title>
<g id="a_node3"><a xlink:href="https://scholar.google.com/scholar?hl=en&amp;q=Shared%20Experiences%20of%20Technology%20and%20Trust:%20An%20Experimental%20Study%20of%20Physiological%20Compliance%20Between%20Active%20and%20Passive%20Users%20in%20Technology-Mediated%20Collaborative%20Encounters" xlink:title="WC &#45; HR high frequency">
<ellipse fill="none" stroke="black" cx="465.61" cy="-882" rx="100.98" ry="18"/>
<text text-anchor="middle" x="465.61" y="-878.3" font-family="Times,serif" font-size="14.00">WC &#45; HR high frequency</text>
</a>
</g>
</g>
<!-- Performance in task -->
<g id="node24" class="node">
<title>Performance in task</title>
<ellipse fill="none" stroke="black" cx="135.84" cy="-612" rx="81.79" ry="18"/>
<text text-anchor="middle" x="135.84" y="-608.3" font-family="Times,serif" font-size="14.00">Performance in task</text>
</g>
<!-- WC &#45; HR high frequency&#45;&gt;Performance in task -->
<g id="edge12" class="edge">
<title>WC &#45; HR high frequency&#45;&gt;Performance in task</title>
<path fill="none" stroke="black" d="M367.7,-877.47C346.75,-873.27 325.55,-866.31 307.68,-855 223.72,-801.87 169.37,-691.08 147.62,-639.51"/>
<polygon fill="black" stroke="black" points="150.75,-637.93 143.7,-630.02 144.28,-640.6 150.75,-637.93"/>
</g>
<!-- Instantaneous Derivative Matching (IDM -->
<g id="node4" class="node">
<title>Instantaneous Derivative Matching (IDM</title>
<g id="a_node4"><a xlink:href="https://scholar.google.com/scholar?hl=en&amp;q=Investigating%20collaborative%20learning%20success%20with%20physiological%20coupling%20indices%20based%20on%20electrodermal%20activity" xlink:title="Instantaneous Derivative Matching (IDM">
<ellipse fill="none" stroke="black" cx="465.61" cy="-234" rx="157.87" ry="18"/>
<text text-anchor="middle" x="465.61" y="-230.3" font-family="Times,serif" font-size="14.00">Instantaneous Derivative Matching (IDM</text>
</a>
</g>
</g>
<!-- Instantaneous Derivative Matching (IDM&#45;&gt;collaborative learning product -->
<g id="edge17" class="edge">
<title>Instantaneous Derivative Matching (IDM&#45;&gt;collaborative learning product</title>
<path fill="none" stroke="black" d="M375.05,-219.24C328.78,-211.62 272.49,-202.35 226.24,-194.73"/>
<polygon fill="black" stroke="black" points="226.67,-191.25 216.24,-193.08 225.53,-198.16 226.67,-191.25"/>
</g>
<!-- WC &#45; HR low frequency -->
<g id="node5" class="node">
<title>WC &#45; HR low frequency</title>
<g id="a_node5"><a xlink:href="https://scholar.google.com/scholar?hl=en&amp;q=Shared%20Experiences%20of%20Technology%20and%20Trust:%20An%20Experimental%20Study%20of%20Physiological%20Compliance%20Between%20Active%20and%20Passive%20Users%20in%20Technology-Mediated%20Collaborative%20Encounters" xlink:title="WC &#45; HR low frequency">
<ellipse fill="none" stroke="black" cx="465.61" cy="-828" rx="98.58" ry="18"/>
<text text-anchor="middle" x="465.61" y="-824.3" font-family="Times,serif" font-size="14.00">WC &#45; HR low frequency</text>
</a>
</g>
</g>
<!-- WC &#45; HR low frequency&#45;&gt;Performance in task -->
<g id="edge11" class="edge">
<title>WC &#45; HR low frequency&#45;&gt;Performance in task</title>
<path fill="none" stroke="black" d="M371.55,-822.38C349.64,-818.3 327.05,-811.66 307.68,-801 236.02,-761.56 178.74,-680.48 152.46,-638.49"/>
<polygon fill="black" stroke="black" points="155.4,-636.6 147.18,-629.91 149.44,-640.27 155.4,-636.6"/>
</g>
<!-- WC &#45; EDA -->
<g id="node6" class="node">
<title>WC &#45; EDA</title>
<g id="a_node6"><a xlink:href="https://scholar.google.com/scholar?hl=en&amp;q=Shared%20Experiences%20of%20Technology%20and%20Trust:%20An%20Experimental%20Study%20of%20Physiological%20Compliance%20Between%20Active%20and%20Passive%20Users%20in%20Technology-Mediated%20Collaborative%20Encounters" xlink:title="WC &#45; EDA">
<ellipse fill="none" stroke="black" cx="465.61" cy="-774" rx="51.19" ry="18"/>
<text text-anchor="middle" x="465.61" y="-770.3" font-family="Times,serif" font-size="14.00">WC &#45; EDA</text>
</a>
</g>
</g>
<!-- WC &#45; EDA&#45;&gt;Performance in task -->
<g id="edge6" class="edge">
<title>WC &#45; EDA&#45;&gt;Performance in task</title>
<path fill="none" stroke="black" d="M414.35,-771.7C382.61,-768.73 341.38,-762.03 307.68,-747 248.16,-720.45 191.33,-668.44 160.56,-637.3"/>
<polygon fill="black" stroke="black" points="162.8,-634.58 153.31,-629.86 157.78,-639.46 162.8,-634.58"/>
</g>
<!-- SM &#45; EDA -->
<g id="node7" class="node">
<title>SM &#45; EDA</title>
<g id="a_node7"><a xlink:href="https://scholar.google.com/scholar?hl=en&amp;q=Shared%20Experiences%20of%20Technology%20and%20Trust:%20An%20Experimental%20Study%20of%20Physiological%20Compliance%20Between%20Active%20and%20Passive%20Users%20in%20Technology-Mediated%20Collaborative%20Encounters" xlink:title="SM &#45; EDA">
<ellipse fill="none" stroke="black" cx="465.61" cy="-720" rx="50.09" ry="18"/>
<text text-anchor="middle" x="465.61" y="-716.3" font-family="Times,serif" font-size="14.00">SM &#45; EDA</text>
</a>
</g>
</g>
<!-- SM &#45; EDA&#45;&gt;Performance in task -->
<g id="edge2" class="edge">
<title>SM &#45; EDA&#45;&gt;Performance in task</title>
<path fill="none" stroke="black" d="M417.12,-715.24C385.57,-711.26 343.52,-704.35 307.68,-693 260.19,-677.97 208.98,-652.3 175.14,-633.88"/>
<polygon fill="black" stroke="black" points="176.52,-630.65 166.07,-628.9 173.15,-636.78 176.52,-630.65"/>
</g>
<!-- DA &#45; HR -->
<g id="node8" class="node">
<title>DA &#45; HR</title>
<g id="a_node8"><a xlink:href="https://scholar.google.com/scholar?hl=en&amp;q=Shared%20Experiences%20of%20Technology%20and%20Trust:%20An%20Experimental%20Study%20of%20Physiological%20Compliance%20Between%20Active%20and%20Passive%20Users%20in%20Technology-Mediated%20Collaborative%20Encounters" xlink:title="DA &#45; HR">
<ellipse fill="none" stroke="black" cx="465.61" cy="-666" rx="42.79" ry="18"/>
<text text-anchor="middle" x="465.61" y="-662.3" font-family="Times,serif" font-size="14.00">DA &#45; HR</text>
</a>
</g>
</g>
<!-- DA &#45; HR&#45;&gt;Performance in task -->
<g id="edge9" class="edge">
<title>DA &#45; HR&#45;&gt;Performance in task</title>
<path fill="none" stroke="black" d="M425.4,-659.54C372.79,-650.87 278.29,-635.3 211.8,-624.35"/>
<polygon fill="black" stroke="black" points="212.23,-620.87 201.79,-622.7 211.09,-627.78 212.23,-620.87"/>
</g>
<!-- Signal Matching (SM -->
<g id="node9" class="node">
<title>Signal Matching (SM</title>
<g id="a_node9"><a xlink:href="https://scholar.google.com/scholar?hl=en&amp;q=Investigating%20collaborative%20learning%20success%20with%20physiological%20coupling%20indices%20based%20on%20electrodermal%20activity" xlink:title="Signal Matching (SM">
<ellipse fill="none" stroke="black" cx="465.61" cy="-180" rx="88.28" ry="18"/>
<text text-anchor="middle" x="465.61" y="-176.3" font-family="Times,serif" font-size="14.00">Signal Matching (SM</text>
</a>
</g>
</g>
<!-- Signal Matching (SM&#45;&gt;collaborative learning product -->
<g id="edge13" class="edge">
<title>Signal Matching (SM&#45;&gt;collaborative learning product</title>
<path fill="none" stroke="black" d="M377.21,-180C342.21,-180 301.23,-180 263.11,-180"/>
<polygon fill="black" stroke="black" points="262.96,-176.5 252.96,-180 262.96,-183.5 262.96,-176.5"/>
</g>
<!-- IDM &#45; EDA -->
<g id="node10" class="node">
<title>IDM &#45; EDA</title>
<g id="a_node10"><a xlink:href="https://scholar.google.com/scholar?hl=en&amp;q=Shared%20Experiences%20of%20Technology%20and%20Trust:%20An%20Experimental%20Study%20of%20Physiological%20Compliance%20Between%20Active%20and%20Passive%20Users%20in%20Technology-Mediated%20Collaborative%20Encounters" xlink:title="IDM &#45; EDA">
<ellipse fill="none" stroke="black" cx="465.61" cy="-612" rx="53.89" ry="18"/>
<text text-anchor="middle" x="465.61" y="-608.3" font-family="Times,serif" font-size="14.00">IDM &#45; EDA</text>
</a>
</g>
</g>
<!-- IDM &#45; EDA&#45;&gt;Performance in task -->
<g id="edge3" class="edge">
<title>IDM &#45; EDA&#45;&gt;Performance in task</title>
<path fill="none" stroke="black" d="M411.59,-612C362.09,-612 287.19,-612 228.09,-612"/>
<polygon fill="black" stroke="black" points="228,-608.5 218,-612 228,-615.5 228,-608.5"/>
</g>
<!-- Fisher’s z&#45;transform (FZT -->
<g id="node11" class="node">
<title>Fisher’s z&#45;transform (FZT</title>
<g id="a_node11"><a xlink:href="https://scholar.google.com/scholar?hl=en&amp;q=Investigating%20collaborative%20learning%20success%20with%20physiological%20coupling%20indices%20based%20on%20electrodermal%20activity" xlink:title="Fisher’s z&#45;transform (FZT">
<ellipse fill="none" stroke="black" cx="465.61" cy="-126" rx="114.28" ry="18"/>
<text text-anchor="middle" x="465.61" y="-122.3" font-family="Times,serif" font-size="14.00">Fisher’s z&#45;transform (FZT</text>
</a>
</g>
</g>
<!-- Fisher’s z&#45;transform (FZT&#45;&gt;collaborative learning product -->
<g id="edge16" class="edge">
<title>Fisher’s z&#45;transform (FZT&#45;&gt;collaborative learning product</title>
<path fill="none" stroke="black" d="M385.68,-139C337.75,-146.9 276.4,-157.01 226.62,-165.21"/>
<polygon fill="black" stroke="black" points="225.8,-161.8 216.5,-166.88 226.94,-168.7 225.8,-161.8"/>
</g>
<!-- SM &#45; HR -->
<g id="node12" class="node">
<title>SM &#45; HR</title>
<g id="a_node12"><a xlink:href="https://scholar.google.com/scholar?hl=en&amp;q=Shared%20Experiences%20of%20Technology%20and%20Trust:%20An%20Experimental%20Study%20of%20Physiological%20Compliance%20Between%20Active%20and%20Passive%20Users%20in%20Technology-Mediated%20Collaborative%20Encounters" xlink:title="SM &#45; HR">
<ellipse fill="none" stroke="black" cx="465.61" cy="-558" rx="44.39" ry="18"/>
<text text-anchor="middle" x="465.61" y="-554.3" font-family="Times,serif" font-size="14.00">SM &#45; HR</text>
</a>
</g>
</g>
<!-- SM &#45; HR&#45;&gt;Performance in task -->
<g id="edge7" class="edge">
<title>SM &#45; HR&#45;&gt;Performance in task</title>
<path fill="none" stroke="black" d="M424.42,-564.62C371.66,-573.31 278,-588.74 211.92,-599.63"/>
<polygon fill="black" stroke="black" points="211.27,-596.19 201.98,-601.27 212.41,-603.1 211.27,-596.19"/>
</g>
<!-- DA &#45; EDA -->
<g id="node13" class="node">
<title>DA &#45; EDA</title>
<g id="a_node13"><a xlink:href="https://scholar.google.com/scholar?hl=en&amp;q=Shared%20Experiences%20of%20Technology%20and%20Trust:%20An%20Experimental%20Study%20of%20Physiological%20Compliance%20Between%20Active%20and%20Passive%20Users%20in%20Technology-Mediated%20Collaborative%20Encounters" xlink:title="DA &#45; EDA">
<ellipse fill="none" stroke="black" cx="465.61" cy="-504" rx="48.99" ry="18"/>
<text text-anchor="middle" x="465.61" y="-500.3" font-family="Times,serif" font-size="14.00">DA &#45; EDA</text>
</a>
</g>
</g>
<!-- DA &#45; EDA&#45;&gt;Performance in task -->
<g id="edge4" class="edge">
<title>DA &#45; EDA&#45;&gt;Performance in task</title>
<path fill="none" stroke="black" d="M418.16,-508.63C386.5,-512.59 343.92,-519.53 307.68,-531 260.19,-546.03 208.98,-571.7 175.14,-590.12"/>
<polygon fill="black" stroke="black" points="173.15,-587.22 166.07,-595.1 176.52,-593.35 173.15,-587.22"/>
</g>
<!-- CC &#45; HR -->
<g id="node14" class="node">
<title>CC &#45; HR</title>
<g id="a_node14"><a xlink:href="https://scholar.google.com/scholar?hl=en&amp;q=Shared%20Experiences%20of%20Technology%20and%20Trust:%20An%20Experimental%20Study%20of%20Physiological%20Compliance%20Between%20Active%20and%20Passive%20Users%20in%20Technology-Mediated%20Collaborative%20Encounters" xlink:title="CC &#45; HR">
<ellipse fill="none" stroke="black" cx="465.61" cy="-450" rx="42.49" ry="18"/>
<text text-anchor="middle" x="465.61" y="-446.3" font-family="Times,serif" font-size="14.00">CC &#45; HR</text>
</a>
</g>
</g>
<!-- CC &#45; HR&#45;&gt;Performance in task -->
<g id="edge10" class="edge">
<title>CC &#45; HR&#45;&gt;Performance in task</title>
<path fill="none" stroke="black" d="M423.34,-451.54C390.71,-454.04 344.66,-460.5 307.68,-477 248.16,-503.55 191.33,-555.56 160.56,-586.7"/>
<polygon fill="black" stroke="black" points="157.78,-584.54 153.31,-594.14 162.8,-589.42 157.78,-584.54"/>
</g>
<!-- physiological synchrony -->
<g id="node15" class="node">
<title>physiological synchrony</title>
<g id="a_node15"><a xlink:href="https://scholar.google.com/scholar?hl=en&amp;q=What%20does%20physiological%20synchrony%20reveal%20about%20metacognitive%20experiences%20and%20group%20performance?" xlink:title="physiological synchrony">
<ellipse fill="none" stroke="black" cx="465.61" cy="-936" rx="96.68" ry="18"/>
<text text-anchor="middle" x="465.61" y="-932.3" font-family="Times,serif" font-size="14.00">physiological synchrony</text>
</a>
</g>
</g>
<!-- Objective group performance score -->
<g id="node20" class="node">
<title>Objective group performance score</title>
<ellipse fill="none" stroke="black" cx="135.84" cy="-990" rx="135.68" ry="18"/>
<text text-anchor="middle" x="135.84" y="-986.3" font-family="Times,serif" font-size="14.00">Objective group performance score</text>
</g>
<!-- physiological synchrony&#45;&gt;Objective group performance score -->
<g id="edge20" class="edge">
<title>physiological synchrony&#45;&gt;Objective group performance score</title>
<path fill="none" stroke="black" d="M392.68,-947.85C345.42,-955.64 283.08,-965.91 231.77,-974.36"/>
<polygon fill="black" stroke="black" points="230.96,-970.95 221.66,-976.03 232.09,-977.85 230.96,-970.95"/>
</g>
<!-- Perceived group performance -->
<g id="node22" class="node">
<title>Perceived group performance</title>
<ellipse fill="none" stroke="black" cx="135.84" cy="-936" rx="115.88" ry="18"/>
<text text-anchor="middle" x="135.84" y="-932.3" font-family="Times,serif" font-size="14.00">Perceived group performance</text>
</g>
<!-- physiological synchrony&#45;&gt;Perceived group performance -->
<g id="edge19" class="edge">
<title>physiological synchrony&#45;&gt;Perceived group performance</title>
<path fill="none" stroke="black" d="M368.48,-936C335.22,-936 297.43,-936 262.16,-936"/>
<polygon fill="black" stroke="black" points="261.8,-932.5 251.8,-936 261.8,-939.5 261.8,-932.5"/>
</g>
<!-- Task difficulty -->
<g id="node23" class="node">
<title>Task difficulty</title>
<ellipse fill="none" stroke="black" cx="135.84" cy="-882" rx="62.29" ry="18"/>
<text text-anchor="middle" x="135.84" y="-878.3" font-family="Times,serif" font-size="14.00">Task difficulty</text>
</g>
<!-- physiological synchrony&#45;&gt;Task difficulty -->
<g id="edge18" class="edge">
<title>physiological synchrony&#45;&gt;Task difficulty</title>
<path fill="none" stroke="black" d="M392.68,-924.15C335.2,-914.68 255.41,-901.53 200.29,-892.45"/>
<polygon fill="black" stroke="black" points="200.73,-888.98 190.29,-890.81 199.59,-895.89 200.73,-888.98"/>
</g>
<!-- CC &#45; EDA -->
<g id="node16" class="node">
<title>CC &#45; EDA</title>
<g id="a_node16"><a xlink:href="https://scholar.google.com/scholar?hl=en&amp;q=Shared%20Experiences%20of%20Technology%20and%20Trust:%20An%20Experimental%20Study%20of%20Physiological%20Compliance%20Between%20Active%20and%20Passive%20Users%20in%20Technology-Mediated%20Collaborative%20Encounters" xlink:title="CC &#45; EDA">
<ellipse fill="none" stroke="black" cx="465.61" cy="-396" rx="48.19" ry="18"/>
<text text-anchor="middle" x="465.61" y="-392.3" font-family="Times,serif" font-size="14.00">CC &#45; EDA</text>
</a>
</g>
</g>
<!-- CC &#45; EDA&#45;&gt;Performance in task -->
<g id="edge5" class="edge">
<title>CC &#45; EDA&#45;&gt;Performance in task</title>
<path fill="none" stroke="black" d="M417.33,-396.15C384.72,-398.1 341.34,-404.47 307.68,-423 236.02,-462.44 178.74,-543.52 152.46,-585.51"/>
<polygon fill="black" stroke="black" points="149.44,-583.73 147.18,-594.09 155.4,-587.4 149.44,-583.73"/>
</g>
<!-- Pearson’s correlation coefficient (PCC -->
<g id="node17" class="node">
<title>Pearson’s correlation coefficient (PCC</title>
<g id="a_node17"><a xlink:href="https://scholar.google.com/scholar?hl=en&amp;q=Investigating%20collaborative%20learning%20success%20with%20physiological%20coupling%20indices%20based%20on%20electrodermal%20activity" xlink:title="Pearson’s correlation coefficient (PCC">
<ellipse fill="none" stroke="black" cx="465.61" cy="-72" rx="157.07" ry="18"/>
<text text-anchor="middle" x="465.61" y="-68.3" font-family="Times,serif" font-size="14.00">Pearson’s correlation coefficient (PCC</text>
</a>
</g>
</g>
<!-- Pearson’s correlation coefficient (PCC&#45;&gt;collaborative learning product -->
<g id="edge15" class="edge">
<title>Pearson’s correlation coefficient (PCC&#45;&gt;collaborative learning product</title>
<path fill="none" stroke="black" d="M361.5,-85.61C343.36,-89.17 324.81,-93.58 307.68,-99 260.62,-113.89 209.91,-139.24 176.06,-157.61"/>
<polygon fill="black" stroke="black" points="174.06,-154.72 166.98,-162.6 177.43,-160.86 174.06,-154.72"/>
</g>
<!-- IDM &#45; HR -->
<g id="node18" class="node">
<title>IDM &#45; HR</title>
<g id="a_node18"><a xlink:href="https://scholar.google.com/scholar?hl=en&amp;q=Shared%20Experiences%20of%20Technology%20and%20Trust:%20An%20Experimental%20Study%20of%20Physiological%20Compliance%20Between%20Active%20and%20Passive%20Users%20in%20Technology-Mediated%20Collaborative%20Encounters" xlink:title="IDM &#45; HR">
<ellipse fill="none" stroke="black" cx="465.61" cy="-342" rx="48.19" ry="18"/>
<text text-anchor="middle" x="465.61" y="-338.3" font-family="Times,serif" font-size="14.00">IDM &#45; HR</text>
</a>
</g>
</g>
<!-- IDM &#45; HR&#45;&gt;Performance in task -->
<g id="edge8" class="edge">
<title>IDM &#45; HR&#45;&gt;Performance in task</title>
<path fill="none" stroke="black" d="M417.29,-340.86C384.25,-342.17 340.38,-348.3 307.68,-369 223.72,-422.13 169.37,-532.92 147.62,-584.49"/>
<polygon fill="black" stroke="black" points="144.28,-583.4 143.7,-593.98 150.75,-586.07 144.28,-583.4"/>
</g>
</g>
</svg>
