<?xml version="1.0" encoding="UTF-8" standalone="no"?>
<!DOCTYPE svg PUBLIC "-//W3C//DTD SVG 1.1//EN"
 "http://www.w3.org/Graphics/SVG/1.1/DTD/svg11.dtd">
<!-- Generated by graphviz version 2.47.0 (20210316.0004)
 -->
<!-- Title: Test Pages: 1 -->
<svg width="680pt" height="584pt"
 viewBox="0.00 0.00 679.64 584.00" xmlns="http://www.w3.org/2000/svg" xmlns:xlink="http://www.w3.org/1999/xlink">
<g id="graph0" class="graph" transform="scale(1 1) rotate(0) translate(4 580)">
<title>Test</title>
<polygon fill="white" stroke="transparent" points="-4,4 -4,-580 675.64,-580 675.64,4 -4,4"/>
<!-- EDA synchrony -->
<g id="node1" class="node">
<title>EDA synchrony</title>
<g id="a_node1"><a xlink:href="https://scholar.google.com/scholar?hl=en&amp;q=Predicting%20Collaborative%20Learning%20Quality%20through%20Physiological%20Synchrony%20Recorded%20by%20Wearable%20Biosensors" xlink:title="EDA synchrony">
<ellipse fill="none" stroke="black" cx="513.71" cy="-396" rx="67.69" ry="18"/>
<text text-anchor="middle" x="513.71" y="-392.3" font-family="Times,serif" font-size="14.00">EDA synchrony</text>
</a>
</g>
</g>
<!-- collaboration quality -->
<g id="node11" class="node">
<title>collaboration quality</title>
<ellipse fill="none" stroke="black" cx="159.89" cy="-153" rx="83.69" ry="18"/>
<text text-anchor="middle" x="159.89" y="-149.3" font-family="Times,serif" font-size="14.00">collaboration quality</text>
</g>
<!-- EDA synchrony&#45;&gt;collaboration quality -->
<g id="edge11" class="edge">
<title>EDA synchrony&#45;&gt;collaboration quality</title>
<path fill="none" stroke="black" d="M446.12,-394.25C416.92,-391.1 383.13,-384.07 355.77,-369 271.79,-322.73 205.19,-226.3 176.38,-179.55"/>
<polygon fill="black" stroke="black" points="179.3,-177.63 171.13,-170.89 173.32,-181.26 179.3,-177.63"/>
</g>
<!-- cycles of physiological synchrony (PC -->
<g id="node2" class="node">
<title>cycles of physiological synchrony (PC</title>
<g id="a_node2"><a xlink:href="https://scholar.google.com/scholar?hl=en&amp;q=Unpacking%20the%20relationship%20between%20existing%20and%20new%20measures%20of%20physiological%20synchrony%20and%20collaborative%20learning:%20a%20mixed%20methods%20study" xlink:title="cycles of physiological synchrony (PC">
<ellipse fill="none" stroke="black" cx="513.71" cy="-342" rx="147.57" ry="18"/>
<text text-anchor="middle" x="513.71" y="-338.3" font-family="Times,serif" font-size="14.00">cycles of physiological synchrony (PC</text>
</a>
</g>
</g>
<!-- cycles of physiological synchrony (PC&#45;&gt;collaboration quality -->
<g id="edge2" class="edge">
<title>cycles of physiological synchrony (PC&#45;&gt;collaboration quality</title>
<path fill="none" stroke="black" d="M401.17,-330.28C385.53,-326.51 369.96,-321.54 355.77,-315 283.89,-281.87 216.8,-215.3 183.26,-178.65"/>
<polygon fill="black" stroke="black" points="185.54,-175.96 176.24,-170.88 180.34,-180.65 185.54,-175.96"/>
</g>
<!-- Instantaneous Derivative Matching (IDM -->
<g id="node3" class="node">
<title>Instantaneous Derivative Matching (IDM</title>
<g id="a_node3"><a xlink:href="https://scholar.google.com/scholar?hl=en&amp;q=Using%20Physiological%20Synchrony%20as%20an%20Indicator%20of%20Collaboration%20Quality,%20Task%20Performance%20and%20Learning" xlink:title="Instantaneous Derivative Matching (IDM">
<ellipse fill="none" stroke="black" cx="513.71" cy="-288" rx="157.87" ry="18"/>
<text text-anchor="middle" x="513.71" y="-284.3" font-family="Times,serif" font-size="14.00">Instantaneous Derivative Matching (IDM</text>
</a>
</g>
</g>
<!-- Instantaneous Derivative Matching (IDM&#45;&gt;collaboration quality -->
<g id="edge4" class="edge">
<title>Instantaneous Derivative Matching (IDM&#45;&gt;collaboration quality: reaching consensus</title>
<path fill="none" stroke="black" d="M439.14,-272.1C412.39,-267.48 382.24,-261.31 355.77,-252 300.03,-232.39 241.42,-197.73 203.21,-174.88"/>
<polygon fill="black" stroke="black" points="204.81,-171.75 194.43,-169.62 201.21,-177.76 204.81,-171.75"/>
</g>
<!-- Instantaneous Derivative Matching (IDM&#45;&gt;collaboration quality -->
<g id="edge8" class="edge">
<title>Instantaneous Derivative Matching (IDM&#45;&gt;collaboration quality: information pooling</title>
<path fill="none" stroke="black" d="M382.1,-277.99C373.1,-275.64 364.25,-272.98 355.77,-270 291.08,-247.25 222.52,-204.21 186.48,-176.91"/>
<polygon fill="black" stroke="black" points="188.5,-174.05 178.46,-170.66 184.2,-179.57 188.5,-174.05"/>
</g>
<!-- physiological synchrony (DA -->
<g id="node4" class="node">
<title>physiological synchrony (DA</title>
<g id="a_node4"><a xlink:href="https://scholar.google.com/scholar?hl=en&amp;q=Unpacking%20the%20relationship%20between%20existing%20and%20new%20measures%20of%20physiological%20synchrony%20and%20collaborative%20learning:%20a%20mixed%20methods%20study" xlink:title="physiological synchrony (DA">
<ellipse fill="none" stroke="black" cx="513.71" cy="-234" rx="115.08" ry="18"/>
<text text-anchor="middle" x="513.71" y="-230.3" font-family="Times,serif" font-size="14.00">physiological synchrony (DA</text>
</a>
</g>
</g>
<!-- physiological synchrony (DA&#45;&gt;collaboration quality -->
<g id="edge1" class="edge">
<title>physiological synchrony (DA&#45;&gt;collaboration quality</title>
<path fill="none" stroke="black" d="M430.55,-221.46C406.36,-217.33 379.92,-212.41 355.77,-207 309.23,-196.57 257.2,-182.01 218.61,-170.63"/>
<polygon fill="black" stroke="black" points="219.19,-167.15 208.6,-167.66 217.19,-173.86 219.19,-167.15"/>
</g>
<!-- Galvanic skin response -->
<g id="node5" class="node">
<title>Galvanic skin response</title>
<g id="a_node5"><a xlink:href="https://scholar.google.com/scholar?hl=en&amp;q=Modeling%20Team-level%20Multimodal%20Dynamics%20during%20Multiparty%20Collaboration" xlink:title="Galvanic skin response">
<ellipse fill="none" stroke="black" cx="513.71" cy="-450" rx="92.88" ry="18"/>
<text text-anchor="middle" x="513.71" y="-446.3" font-family="Times,serif" font-size="14.00">Galvanic skin response</text>
</a>
</g>
</g>
<!-- Perceived Collaboration Quality -->
<g id="node10" class="node">
<title>Perceived Collaboration Quality</title>
<ellipse fill="none" stroke="black" cx="159.89" cy="-450" rx="124.58" ry="18"/>
<text text-anchor="middle" x="159.89" y="-446.3" font-family="Times,serif" font-size="14.00">Perceived Collaboration Quality</text>
</g>
<!-- Galvanic skin response&#45;&gt;Perceived Collaboration Quality -->
<g id="edge13" class="edge">
<title>Galvanic skin response&#45;&gt;Perceived Collaboration Quality</title>
<path fill="none" stroke="black" d="M420.73,-450C382.28,-450 336.84,-450 294.8,-450"/>
<polygon fill="black" stroke="black" points="294.76,-446.5 284.76,-450 294.76,-453.5 294.76,-446.5"/>
</g>
<!-- heart rate sychrony -->
<g id="node6" class="node">
<title>heart rate sychrony</title>
<g id="a_node6"><a xlink:href="https://scholar.google.com/scholar?hl=en&amp;q=Predicting%20Collaborative%20Learning%20Quality%20through%20Physiological%20Synchrony%20Recorded%20by%20Wearable%20Biosensors" xlink:title="heart rate sychrony">
<ellipse fill="none" stroke="black" cx="513.71" cy="-180" rx="78.79" ry="18"/>
<text text-anchor="middle" x="513.71" y="-176.3" font-family="Times,serif" font-size="14.00">heart rate sychrony</text>
</a>
</g>
</g>
<!-- heart rate sychrony&#45;&gt;collaboration quality -->
<g id="edge12" class="edge">
<title>heart rate sychrony&#45;&gt;collaboration quality</title>
<path fill="none" stroke="black" d="M438.95,-174.34C383.62,-170.09 307.65,-164.26 249.1,-159.77"/>
<polygon fill="black" stroke="black" points="249.36,-156.28 239.12,-159 248.82,-163.26 249.36,-156.28"/>
</g>
<!-- Directional Agreement (DA -->
<g id="node7" class="node">
<title>Directional Agreement (DA</title>
<g id="a_node7"><a xlink:href="https://scholar.google.com/scholar?hl=en&amp;q=Using%20Physiological%20Synchrony%20as%20an%20Indicator%20of%20Collaboration%20Quality,%20Task%20Performance%20and%20Learning" xlink:title="Directional Agreement (DA">
<ellipse fill="none" stroke="black" cx="513.71" cy="-126" rx="109.68" ry="18"/>
<text text-anchor="middle" x="513.71" y="-122.3" font-family="Times,serif" font-size="14.00">Directional Agreement (DA</text>
</a>
</g>
</g>
<!-- Directional Agreement (DA&#45;&gt;collaboration quality -->
<g id="edge6" class="edge">
<title>Directional Agreement (DA&#45;&gt;collaboration quality: reaching consensus</title>
<path fill="none" stroke="black" d="M404.28,-128.03C350.46,-131.39 286.72,-136.48 237.96,-141.39"/>
<polygon fill="black" stroke="black" points="237.39,-137.93 227.8,-142.43 238.1,-144.89 237.39,-137.93"/>
</g>
<!-- Directional Agreement (DA&#45;&gt;collaboration quality -->
<g id="edge9" class="edge">
<title>Directional Agreement (DA&#45;&gt;collaboration quality: information pooling</title>
<path fill="none" stroke="black" d="M431.55,-138.02C378.54,-143.28 309.16,-148.68 253.91,-151.9"/>
<polygon fill="black" stroke="black" points="253.56,-148.41 243.77,-152.47 253.95,-155.4 253.56,-148.41"/>
</g>
<!-- Pearson’s correlation (PC -->
<g id="node8" class="node">
<title>Pearson’s correlation (PC</title>
<g id="a_node8"><a xlink:href="https://scholar.google.com/scholar?hl=en&amp;q=Using%20Physiological%20Synchrony%20as%20an%20Indicator%20of%20Collaboration%20Quality,%20Task%20Performance%20and%20Learning" xlink:title="Pearson’s correlation (PC">
<ellipse fill="none" stroke="black" cx="513.71" cy="-72" rx="112.38" ry="18"/>
<text text-anchor="middle" x="513.71" y="-68.3" font-family="Times,serif" font-size="14.00">Pearson’s correlation (PC</text>
</a>
</g>
</g>
<!-- Pearson’s correlation (PC&#45;&gt;collaboration quality -->
<g id="edge5" class="edge">
<title>Pearson’s correlation (PC&#45;&gt;collaboration quality: reaching consensus</title>
<path fill="none" stroke="black" d="M410.27,-79.25C392.06,-82.4 373.31,-86.07 355.77,-90 302.55,-101.92 242.16,-119.26 202.9,-133.06"/>
<polygon fill="black" stroke="black" points="201.61,-129.8 193.39,-136.48 203.99,-136.39 201.61,-129.8"/>
</g>
<!-- Pearson’s correlation (PC&#45;&gt;collaboration quality -->
<g id="edge10" class="edge">
<title>Pearson’s correlation (PC&#45;&gt;collaboration quality: information pooling</title>
<path fill="none" stroke="black" d="M459.06,-87.78C428.62,-93.67 389.9,-100.36 355.77,-108 315.37,-117.05 270.84,-129.22 234.56,-138.83"/>
<polygon fill="black" stroke="black" points="233.33,-135.54 224.56,-141.47 235.12,-142.31 233.33,-135.54"/>
</g>
<!-- Signal Matching (SM -->
<g id="node9" class="node">
<title>Signal Matching (SM</title>
<g id="a_node9"><a xlink:href="https://scholar.google.com/scholar?hl=en&amp;q=Using%20Physiological%20Synchrony%20as%20an%20Indicator%20of%20Collaboration%20Quality,%20Task%20Performance%20and%20Learning" xlink:title="Signal Matching (SM">
<ellipse fill="none" stroke="black" cx="513.71" cy="-18" rx="88.28" ry="18"/>
<text text-anchor="middle" x="513.71" y="-14.3" font-family="Times,serif" font-size="14.00">Signal Matching (SM</text>
</a>
</g>
</g>
<!-- Signal Matching (SM&#45;&gt;collaboration quality -->
<g id="edge3" class="edge">
<title>Signal Matching (SM&#45;&gt;collaboration quality: reaching consensus</title>
<path fill="none" stroke="black" d="M425.45,-19C402.4,-22.67 377.81,-28.25 355.77,-36 291.08,-58.75 222.52,-101.79 186.48,-129.09"/>
<polygon fill="black" stroke="black" points="184.2,-126.43 178.46,-135.34 188.5,-131.95 184.2,-126.43"/>
</g>
<!-- Signal Matching (SM&#45;&gt;collaboration quality -->
<g id="edge7" class="edge">
<title>Signal Matching (SM&#45;&gt;collaboration quality: information pooling</title>
<path fill="none" stroke="black" d="M454.14,-31.4C424.11,-36.26 387.33,-42.9 355.77,-54 300.03,-73.61 241.42,-108.27 203.21,-131.12"/>
<polygon fill="black" stroke="black" points="201.21,-128.24 194.43,-136.38 204.81,-134.25 201.21,-128.24"/>
</g>
<!-- collaboration quality: reaching consensus -->
<g id="node12" class="node">
<title>collaboration quality: reaching consensus</title>
<ellipse fill="none" stroke="black" cx="159.89" cy="-504" rx="157.07" ry="18"/>
<text text-anchor="middle" x="159.89" y="-500.3" font-family="Times,serif" font-size="14.00">collaboration quality: reaching consensus</text>
</g>
<!-- collaboration quality: information pooling -->
<g id="node13" class="node">
<title>collaboration quality: information pooling</title>
<ellipse fill="none" stroke="black" cx="159.89" cy="-558" rx="159.77" ry="18"/>
<text text-anchor="middle" x="159.89" y="-554.3" font-family="Times,serif" font-size="14.00">collaboration quality: information pooling</text>
</g>
</g>
</svg>
