<?xml version="1.0" encoding="UTF-8" standalone="no"?>
<!DOCTYPE svg PUBLIC "-//W3C//DTD SVG 1.1//EN"
 "http://www.w3.org/Graphics/SVG/1.1/DTD/svg11.dtd">
<!-- Generated by graphviz version 2.47.0 (20210316.0004)
 -->
<!-- Title: Test Pages: 1 -->
<svg width="682pt" height="651pt"
 viewBox="0.00 0.00 682.24 651.00" xmlns="http://www.w3.org/2000/svg" xmlns:xlink="http://www.w3.org/1999/xlink">
<g id="graph0" class="graph" transform="scale(1 1) rotate(0) translate(4 647)">
<title>Test</title>
<polygon fill="white" stroke="transparent" points="-4,4 -4,-647 678.24,-647 678.24,4 -4,4"/>
<!-- EDA synchrony -->
<g id="node1" class="node">
<title>EDA synchrony</title>
<g id="a_node1"><a xlink:href="https://scholar.google.com/scholar?hl=en&amp;q=Physiological%20evidence%20of%20interpersonal%20dynamics%20in%20a%20cooperative%20production%20task" xlink:title="EDA synchrony">
<ellipse fill="none" stroke="black" cx="516.31" cy="-18" rx="67.69" ry="18"/>
<text text-anchor="middle" x="516.31" y="-14.3" font-family="Times,serif" font-size="14.00">EDA synchrony</text>
</a>
</g>
</g>
<!-- team cohesion -->
<g id="node13" class="node">
<title>team cohesion</title>
<ellipse fill="none" stroke="black" cx="161.19" cy="-18" rx="61.99" ry="18"/>
<text text-anchor="middle" x="161.19" y="-14.3" font-family="Times,serif" font-size="14.00">team cohesion</text>
</g>
<!-- EDA synchrony&#45;&gt;team cohesion -->
<g id="edge11" class="edge">
<title>EDA synchrony&#45;&gt;team cohesion</title>
<path fill="none" stroke="black" d="M448.47,-18C387.01,-18 296.16,-18 233.36,-18"/>
<polygon fill="black" stroke="black" points="233.14,-14.5 223.14,-18 233.14,-21.5 233.14,-14.5"/>
</g>
<!-- cycles of physiological synchrony (PC -->
<g id="node2" class="node">
<title>cycles of physiological synchrony (PC</title>
<g id="a_node2"><a xlink:href="https://scholar.google.com/scholar?hl=en&amp;q=Unpacking%20the%20relationship%20between%20existing%20and%20new%20measures%20of%20physiological%20synchrony%20and%20collaborative%20learning:%20a%20mixed%20methods%20study" xlink:title="cycles of physiological synchrony (PC">
<ellipse fill="none" stroke="black" cx="516.31" cy="-139" rx="147.57" ry="18"/>
<text text-anchor="middle" x="516.31" y="-135.3" font-family="Times,serif" font-size="14.00">cycles of physiological synchrony (PC</text>
</a>
</g>
</g>
<!-- collaboration quality -->
<g id="node14" class="node">
<title>collaboration quality</title>
<ellipse fill="none" stroke="black" cx="161.19" cy="-99" rx="83.69" ry="18"/>
<text text-anchor="middle" x="161.19" y="-95.3" font-family="Times,serif" font-size="14.00">collaboration quality</text>
</g>
<!-- cycles of physiological synchrony (PC&#45;&gt;collaboration quality -->
<g id="edge14" class="edge">
<title>cycles of physiological synchrony (PC&#45;&gt;collaboration quality</title>
<path fill="none" stroke="black" d="M407.44,-126.78C355.46,-120.89 294.07,-113.94 245.72,-108.46"/>
<polygon fill="black" stroke="black" points="245.93,-104.96 235.6,-107.32 245.15,-111.92 245.93,-104.96"/>
</g>
<!-- Instantaneous Derivative Matching (IDM -->
<g id="node3" class="node">
<title>Instantaneous Derivative Matching (IDM</title>
<g id="a_node3"><a xlink:href="https://scholar.google.com/scholar?hl=en&amp;q=Using%20Physiological%20Synchrony%20as%20an%20Indicator%20of%20Collaboration%20Quality,%20Task%20Performance%20and%20Learning" xlink:title="Instantaneous Derivative Matching (IDM">
<ellipse fill="none" stroke="black" cx="516.31" cy="-355" rx="157.87" ry="18"/>
<text text-anchor="middle" x="516.31" y="-351.3" font-family="Times,serif" font-size="14.00">Instantaneous Derivative Matching (IDM</text>
</a>
</g>
</g>
<!-- collaborative will -->
<g id="node12" class="node">
<title>collaborative will</title>
<ellipse fill="none" stroke="black" cx="161.19" cy="-355" rx="72.59" ry="18"/>
<text text-anchor="middle" x="161.19" y="-351.3" font-family="Times,serif" font-size="14.00">collaborative will</text>
</g>
<!-- Instantaneous Derivative Matching (IDM&#45;&gt;collaborative will -->
<g id="edge6" class="edge">
<title>Instantaneous Derivative Matching (IDM&#45;&gt;collaborative will</title>
<path fill="none" stroke="black" d="M358.37,-355C319.14,-355 278.6,-355 244.63,-355"/>
<polygon fill="black" stroke="black" points="244.31,-351.5 234.31,-355 244.31,-358.5 244.31,-351.5"/>
</g>
<!-- colaboration quality -->
<g id="node18" class="node">
<title>colaboration quality</title>
<ellipse fill="none" stroke="black" cx="161.19" cy="-274" rx="81.49" ry="18"/>
<text text-anchor="middle" x="161.19" y="-270.3" font-family="Times,serif" font-size="14.00">colaboration quality</text>
</g>
<!-- Instantaneous Derivative Matching (IDM&#45;&gt;colaboration quality -->
<g id="edge8" class="edge">
<title>Instantaneous Derivative Matching (IDM&#45;&gt;colaboration quality: reciprocal interaction</title>
<path fill="none" stroke="black" d="M422.07,-340.51C401.04,-336.81 378.88,-332.57 358.37,-328 311.37,-317.51 258.8,-302.88 219.91,-291.5"/>
<polygon fill="black" stroke="black" points="220.41,-288 209.83,-288.53 218.43,-294.71 220.41,-288"/>
</g>
<!-- Fisher’s z&#45;transform (FZT -->
<g id="node4" class="node">
<title>Fisher’s z&#45;transform (FZT</title>
<g id="a_node4"><a xlink:href="https://scholar.google.com/scholar?hl=en&amp;q=Investigating%20collaborative%20learning%20success%20with%20physiological%20coupling%20indices%20based%20on%20electrodermal%20activity" xlink:title="Fisher’s z&#45;transform (FZT">
<ellipse fill="none" stroke="black" cx="516.31" cy="-463" rx="114.28" ry="18"/>
<text text-anchor="middle" x="516.31" y="-459.3" font-family="Times,serif" font-size="14.00">Fisher’s z&#45;transform (FZT</text>
</a>
</g>
</g>
<!-- Fisher’s z&#45;transform (FZT&#45;&gt;collaborative will -->
<g id="edge5" class="edge">
<title>Fisher’s z&#45;transform (FZT&#45;&gt;collaborative will</title>
<path fill="none" stroke="black" d="M427.78,-451.46C404.96,-447.5 380.55,-442.4 358.37,-436 303.54,-420.18 243.25,-393.85 204.17,-375.52"/>
<polygon fill="black" stroke="black" points="205.25,-372.16 194.71,-371.05 202.25,-378.49 205.25,-372.16"/>
</g>
<!-- physiological synchrony (DA -->
<g id="node5" class="node">
<title>physiological synchrony (DA</title>
<g id="a_node5"><a xlink:href="https://scholar.google.com/scholar?hl=en&amp;q=Unpacking%20the%20relationship%20between%20existing%20and%20new%20measures%20of%20physiological%20synchrony%20and%20collaborative%20learning:%20a%20mixed%20methods%20study" xlink:title="physiological synchrony (DA">
<ellipse fill="none" stroke="black" cx="516.31" cy="-85" rx="115.08" ry="18"/>
<text text-anchor="middle" x="516.31" y="-81.3" font-family="Times,serif" font-size="14.00">physiological synchrony (DA</text>
</a>
</g>
</g>
<!-- physiological synchrony (DA&#45;&gt;collaboration quality -->
<g id="edge13" class="edge">
<title>physiological synchrony (DA&#45;&gt;collaboration quality</title>
<path fill="none" stroke="black" d="M404.55,-89.39C356.13,-91.31 300,-93.54 253.96,-95.36"/>
<polygon fill="black" stroke="black" points="253.55,-91.87 243.7,-95.77 253.83,-98.87 253.55,-91.87"/>
</g>
<!-- Galvanic skin response -->
<g id="node6" class="node">
<title>Galvanic skin response</title>
<g id="a_node6"><a xlink:href="https://scholar.google.com/scholar?hl=en&amp;q=Modeling%20Team-level%20Multimodal%20Dynamics%20during%20Multiparty%20Collaboration" xlink:title="Galvanic skin response">
<ellipse fill="none" stroke="black" cx="516.31" cy="-517" rx="92.88" ry="18"/>
<text text-anchor="middle" x="516.31" y="-513.3" font-family="Times,serif" font-size="14.00">Galvanic skin response</text>
</a>
</g>
</g>
<!-- Perceived Collaboration Quality -->
<g id="node16" class="node">
<title>Perceived Collaboration Quality</title>
<ellipse fill="none" stroke="black" cx="161.19" cy="-517" rx="124.58" ry="18"/>
<text text-anchor="middle" x="161.19" y="-513.3" font-family="Times,serif" font-size="14.00">Perceived Collaboration Quality</text>
</g>
<!-- Galvanic skin response&#45;&gt;Perceived Collaboration Quality -->
<g id="edge1" class="edge">
<title>Galvanic skin response&#45;&gt;Perceived Collaboration Quality</title>
<path fill="none" stroke="black" d="M422.99,-517C384.3,-517 338.57,-517 296.28,-517"/>
<polygon fill="black" stroke="black" points="296.19,-513.5 286.19,-517 296.19,-520.5 296.19,-513.5"/>
</g>
<!-- Directional Agreement (DA -->
<g id="node7" class="node">
<title>Directional Agreement (DA</title>
<g id="a_node7"><a xlink:href="https://scholar.google.com/scholar?hl=en&amp;q=Using%20Physiological%20Synchrony%20as%20an%20Indicator%20of%20Collaboration%20Quality,%20Task%20Performance%20and%20Learning" xlink:title="Directional Agreement (DA">
<ellipse fill="none" stroke="black" cx="516.31" cy="-301" rx="109.68" ry="18"/>
<text text-anchor="middle" x="516.31" y="-297.3" font-family="Times,serif" font-size="14.00">Directional Agreement (DA</text>
</a>
</g>
</g>
<!-- Directional Agreement (DA&#45;&gt;collaborative will -->
<g id="edge3" class="edge">
<title>Directional Agreement (DA&#45;&gt;collaborative will</title>
<path fill="none" stroke="black" d="M435.18,-313.25C374.61,-322.51 292.21,-335.12 233.83,-344.04"/>
<polygon fill="black" stroke="black" points="232.94,-340.64 223.58,-345.61 234,-347.56 232.94,-340.64"/>
</g>
<!-- Directional Agreement (DA&#45;&gt;colaboration quality -->
<g id="edge10" class="edge">
<title>Directional Agreement (DA&#45;&gt;colaboration quality: reciprocal interaction</title>
<path fill="none" stroke="black" d="M416.47,-293.44C363.58,-289.4 299.07,-284.47 248.26,-280.58"/>
<polygon fill="black" stroke="black" points="248.52,-277.09 238.28,-279.82 247.99,-284.07 248.52,-277.09"/>
</g>
<!-- brain synchrony -->
<g id="node8" class="node">
<title>brain synchrony</title>
<g id="a_node8"><a xlink:href="https://scholar.google.com/scholar?hl=en&amp;q=Brain-to-Brain%20Synchrony%20Tracks%20Real-World%20Dynamic%20Group%20Interactions%20in%20the%20Classroom" xlink:title="brain synchrony">
<ellipse fill="none" stroke="black" cx="516.31" cy="-571" rx="67.69" ry="18"/>
<text text-anchor="middle" x="516.31" y="-567.3" font-family="Times,serif" font-size="14.00">brain synchrony</text>
</a>
</g>
</g>
<!-- Social dynamics -->
<g id="node17" class="node">
<title>Social dynamics</title>
<ellipse fill="none" stroke="black" cx="161.19" cy="-571" rx="69.59" ry="18"/>
<text text-anchor="middle" x="161.19" y="-567.3" font-family="Times,serif" font-size="14.00">Social dynamics</text>
</g>
<!-- brain synchrony&#45;&gt;Social dynamics -->
<g id="edge12" class="edge">
<title>brain synchrony&#45;&gt;Social dynamics</title>
<path fill="none" stroke="black" d="M448.47,-571C389.47,-571 303.39,-571 241.04,-571"/>
<polygon fill="black" stroke="black" points="240.85,-567.5 230.85,-571 240.85,-574.5 240.85,-567.5"/>
</g>
<!-- Pearson’s correlation (PC -->
<g id="node9" class="node">
<title>Pearson’s correlation (PC</title>
<g id="a_node9"><a xlink:href="https://scholar.google.com/scholar?hl=en&amp;q=Using%20Physiological%20Synchrony%20as%20an%20Indicator%20of%20Collaboration%20Quality,%20Task%20Performance%20and%20Learning" xlink:title="Pearson’s correlation (PC">
<ellipse fill="none" stroke="black" cx="516.31" cy="-193" rx="112.38" ry="18"/>
<text text-anchor="middle" x="516.31" y="-189.3" font-family="Times,serif" font-size="14.00">Pearson’s correlation (PC</text>
</a>
</g>
</g>
<!-- Pearson’s correlation (PC&#45;&gt;colaboration quality -->
<g id="edge9" class="edge">
<title>Pearson’s correlation (PC&#45;&gt;colaboration quality: reciprocal interaction</title>
<path fill="none" stroke="black" d="M434.37,-205.36C409.85,-209.53 382.93,-214.52 358.37,-220 311.37,-230.49 258.8,-245.12 219.91,-256.5"/>
<polygon fill="black" stroke="black" points="218.43,-253.29 209.83,-259.47 220.41,-260 218.43,-253.29"/>
</g>
<!-- Pearson’s correlation coefficient (PCC -->
<g id="node10" class="node">
<title>Pearson’s correlation coefficient (PCC</title>
<g id="a_node10"><a xlink:href="https://scholar.google.com/scholar?hl=en&amp;q=Investigating%20collaborative%20learning%20success%20with%20physiological%20coupling%20indices%20based%20on%20electrodermal%20activity" xlink:title="Pearson’s correlation coefficient (PCC">
<ellipse fill="none" stroke="black" cx="516.31" cy="-409" rx="157.07" ry="18"/>
<text text-anchor="middle" x="516.31" y="-405.3" font-family="Times,serif" font-size="14.00">Pearson’s correlation coefficient (PCC</text>
</a>
</g>
</g>
<!-- Pearson’s correlation coefficient (PCC&#45;&gt;collaborative will -->
<g id="edge4" class="edge">
<title>Pearson’s correlation coefficient (PCC&#45;&gt;collaborative will</title>
<path fill="none" stroke="black" d="M421.14,-394.6C362.31,-385.6 287.75,-374.2 233.76,-365.94"/>
<polygon fill="black" stroke="black" points="234,-362.44 223.58,-364.39 232.94,-369.36 234,-362.44"/>
</g>
<!-- Signal Matching (SM -->
<g id="node11" class="node">
<title>Signal Matching (SM</title>
<g id="a_node11"><a xlink:href="https://scholar.google.com/scholar?hl=en&amp;q=Using%20Physiological%20Synchrony%20as%20an%20Indicator%20of%20Collaboration%20Quality,%20Task%20Performance%20and%20Learning" xlink:title="Signal Matching (SM">
<ellipse fill="none" stroke="black" cx="516.31" cy="-247" rx="88.28" ry="18"/>
<text text-anchor="middle" x="516.31" y="-243.3" font-family="Times,serif" font-size="14.00">Signal Matching (SM</text>
</a>
</g>
</g>
<!-- Signal Matching (SM&#45;&gt;collaborative will -->
<g id="edge2" class="edge">
<title>Signal Matching (SM&#45;&gt;collaborative will</title>
<path fill="none" stroke="black" d="M433.77,-253.59C408.86,-257.55 381.86,-263.88 358.37,-274 340,-281.92 340.07,-291.69 322.37,-301 291.08,-317.46 253.77,-330.39 223.03,-339.46"/>
<polygon fill="black" stroke="black" points="221.94,-336.13 213.3,-342.27 223.88,-342.86 221.94,-336.13"/>
</g>
<!-- Signal Matching (SM&#45;&gt;colaboration quality -->
<g id="edge7" class="edge">
<title>Signal Matching (SM&#45;&gt;colaboration quality: reciprocal interaction</title>
<path fill="none" stroke="black" d="M433.41,-253.26C377.98,-257.5 304.87,-263.09 248.53,-267.4"/>
<polygon fill="black" stroke="black" points="247.91,-263.93 238.21,-268.19 248.45,-270.91 247.91,-263.93"/>
</g>
<!-- colaboration quality: reciprocal interaction -->
<g id="node15" class="node">
<title>colaboration quality: reciprocal interaction</title>
<ellipse fill="none" stroke="black" cx="161.19" cy="-625" rx="161.37" ry="18"/>
<text text-anchor="middle" x="161.19" y="-621.3" font-family="Times,serif" font-size="14.00">colaboration quality: reciprocal interaction</text>
</g>
</g>
</svg>
