<?xml version="1.0" encoding="UTF-8" standalone="no"?>
<!DOCTYPE svg PUBLIC "-//W3C//DTD SVG 1.1//EN"
 "http://www.w3.org/Graphics/SVG/1.1/DTD/svg11.dtd">
<!-- Generated by graphviz version 2.47.0 (20210316.0004)
 -->
<!-- Title: Test Pages: 1 -->
<svg width="682pt" height="638pt"
 viewBox="0.00 0.00 682.24 638.00" xmlns="http://www.w3.org/2000/svg" xmlns:xlink="http://www.w3.org/1999/xlink">
<g id="graph0" class="graph" transform="scale(1 1) rotate(0) translate(4 634)">
<title>Test</title>
<polygon fill="white" stroke="transparent" points="-4,4 -4,-634 678.24,-634 678.24,4 -4,4"/>
<!-- Instantaneous Derivative Matching (IDM -->
<g id="node1" class="node">
<title>Instantaneous Derivative Matching (IDM</title>
<g id="a_node1"><a xlink:href="https://scholar.google.com/scholar?hl=en&amp;q=Using%20Physiological%20Synchrony%20as%20an%20Indicator%20of%20Collaboration%20Quality,%20Task%20Performance%20and%20Learning" xlink:title="Instantaneous Derivative Matching (IDM" target="_blank">
<ellipse fill="none" stroke="black" cx="516.31" cy="-180" rx="157.87" ry="18"/>
<text text-anchor="middle" x="516.31" y="-176.3" font-family="Times,serif" font-size="14.00">Instantaneous Derivative Matching (IDM</text>
</a>
</g>
</g>
<!-- collaborative will -->
<g id="node17" class="node">
<title>collaborative will</title>
<ellipse fill="none" stroke="black" cx="161.19" cy="-180" rx="72.59" ry="18"/>
<text text-anchor="middle" x="161.19" y="-176.3" font-family="Times,serif" font-size="14.00">collaborative will</text>
</g>
<!-- Instantaneous Derivative Matching (IDM&#45;&gt;collaborative will -->
<g id="edge6" class="edge">
<title>Instantaneous Derivative Matching (IDM&#45;&gt;collaborative will</title>
<path fill="none" stroke="black" d="M358.37,-180C319.14,-180 278.6,-180 244.63,-180"/>
<polygon fill="black" stroke="black" points="244.31,-176.5 234.31,-180 244.31,-183.5 244.31,-176.5"/>
</g>
<!-- colaboration quality -->
<g id="node18" class="node">
<title>colaboration quality</title>
<ellipse fill="none" stroke="black" cx="161.19" cy="-99" rx="81.49" ry="18"/>
<text text-anchor="middle" x="161.19" y="-95.3" font-family="Times,serif" font-size="14.00">colaboration quality</text>
</g>
<!-- Instantaneous Derivative Matching (IDM&#45;&gt;colaboration quality -->
<g id="edge8" class="edge">
<title>Instantaneous Derivative Matching (IDM&#45;&gt;colaboration quality: reciprocal interaction</title>
<path fill="none" stroke="black" d="M422.07,-165.51C401.04,-161.81 378.88,-157.57 358.37,-153 311.37,-142.51 258.8,-127.88 219.91,-116.5"/>
<polygon fill="black" stroke="black" points="220.41,-113 209.83,-113.53 218.43,-119.71 220.41,-113"/>
</g>
<!-- Directional Agreement (DA -->
<g id="node2" class="node">
<title>Directional Agreement (DA</title>
<g id="a_node2"><a xlink:href="https://scholar.google.com/scholar?hl=en&amp;q=Using%20Physiological%20Synchrony%20as%20an%20Indicator%20of%20Collaboration%20Quality,%20Task%20Performance%20and%20Learning" xlink:title="Directional Agreement (DA" target="_blank">
<ellipse fill="none" stroke="black" cx="516.31" cy="-126" rx="109.68" ry="18"/>
<text text-anchor="middle" x="516.31" y="-122.3" font-family="Times,serif" font-size="14.00">Directional Agreement (DA</text>
</a>
</g>
</g>
<!-- Directional Agreement (DA&#45;&gt;collaborative will -->
<g id="edge3" class="edge">
<title>Directional Agreement (DA&#45;&gt;collaborative will</title>
<path fill="none" stroke="black" d="M435.18,-138.25C374.61,-147.51 292.21,-160.12 233.83,-169.04"/>
<polygon fill="black" stroke="black" points="232.94,-165.64 223.58,-170.61 234,-172.56 232.94,-165.64"/>
</g>
<!-- Directional Agreement (DA&#45;&gt;colaboration quality -->
<g id="edge10" class="edge">
<title>Directional Agreement (DA&#45;&gt;colaboration quality: reciprocal interaction</title>
<path fill="none" stroke="black" d="M416.47,-118.44C363.58,-114.4 299.07,-109.47 248.26,-105.58"/>
<polygon fill="black" stroke="black" points="248.52,-102.09 238.28,-104.82 247.99,-109.07 248.52,-102.09"/>
</g>
<!-- cycles of physiological synchrony (PC -->
<g id="node3" class="node">
<title>cycles of physiological synchrony (PC</title>
<g id="a_node3"><a xlink:href="https://scholar.google.com/scholar?hl=en&amp;q=Unpacking%20the%20relationship%20between%20existing%20and%20new%20measures%20of%20physiological%20synchrony%20and%20collaborative%20learning:%20a%20mixed%20methods%20study" xlink:title="cycles of physiological synchrony (PC" target="_blank">
<ellipse fill="none" stroke="black" cx="516.31" cy="-396" rx="147.57" ry="18"/>
<text text-anchor="middle" x="516.31" y="-392.3" font-family="Times,serif" font-size="14.00">cycles of physiological synchrony (PC</text>
</a>
</g>
</g>
<!-- collaboration quality -->
<g id="node15" class="node">
<title>collaboration quality</title>
<ellipse fill="none" stroke="black" cx="161.19" cy="-369" rx="83.69" ry="18"/>
<text text-anchor="middle" x="161.19" y="-365.3" font-family="Times,serif" font-size="14.00">collaboration quality</text>
</g>
<!-- cycles of physiological synchrony (PC&#45;&gt;collaboration quality -->
<g id="edge14" class="edge">
<title>cycles of physiological synchrony (PC&#45;&gt;collaboration quality</title>
<path fill="none" stroke="black" d="M390.81,-386.48C344.49,-382.94 292.91,-379 250.49,-375.75"/>
<polygon fill="black" stroke="black" points="250.7,-372.26 240.47,-374.99 250.17,-379.24 250.7,-372.26"/>
</g>
<!-- Fisher’s z&#45;transform (FZT -->
<g id="node4" class="node">
<title>Fisher’s z&#45;transform (FZT</title>
<g id="a_node4"><a xlink:href="https://scholar.google.com/scholar?hl=en&amp;q=Investigating%20collaborative%20learning%20success%20with%20physiological%20coupling%20indices%20based%20on%20electrodermal%20activity" xlink:title="Fisher’s z&#45;transform (FZT" target="_blank">
<ellipse fill="none" stroke="black" cx="516.31" cy="-288" rx="114.28" ry="18"/>
<text text-anchor="middle" x="516.31" y="-284.3" font-family="Times,serif" font-size="14.00">Fisher’s z&#45;transform (FZT</text>
</a>
</g>
</g>
<!-- Fisher’s z&#45;transform (FZT&#45;&gt;collaborative will -->
<g id="edge5" class="edge">
<title>Fisher’s z&#45;transform (FZT&#45;&gt;collaborative will</title>
<path fill="none" stroke="black" d="M427.78,-276.46C404.96,-272.5 380.55,-267.4 358.37,-261 303.54,-245.18 243.25,-218.85 204.17,-200.52"/>
<polygon fill="black" stroke="black" points="205.25,-197.16 194.71,-196.05 202.25,-203.49 205.25,-197.16"/>
</g>
<!-- Galvanic skin response -->
<g id="node5" class="node">
<title>Galvanic skin response</title>
<g id="a_node5"><a xlink:href="https://scholar.google.com/scholar?hl=en&amp;q=Modeling%20Team-level%20Multimodal%20Dynamics%20during%20Multiparty%20Collaboration" xlink:title="Galvanic skin response" target="_blank">
<ellipse fill="none" stroke="black" cx="516.31" cy="-450" rx="92.88" ry="18"/>
<text text-anchor="middle" x="516.31" y="-446.3" font-family="Times,serif" font-size="14.00">Galvanic skin response</text>
</a>
</g>
</g>
<!-- Perceived Collaboration Quality -->
<g id="node16" class="node">
<title>Perceived Collaboration Quality</title>
<ellipse fill="none" stroke="black" cx="161.19" cy="-450" rx="124.58" ry="18"/>
<text text-anchor="middle" x="161.19" y="-446.3" font-family="Times,serif" font-size="14.00">Perceived Collaboration Quality</text>
</g>
<!-- Galvanic skin response&#45;&gt;Perceived Collaboration Quality -->
<g id="edge1" class="edge">
<title>Galvanic skin response&#45;&gt;Perceived Collaboration Quality</title>
<path fill="none" stroke="black" d="M422.99,-450C384.3,-450 338.57,-450 296.28,-450"/>
<polygon fill="black" stroke="black" points="296.19,-446.5 286.19,-450 296.19,-453.5 296.19,-446.5"/>
</g>
<!-- Pearson’s correlation (PC -->
<g id="node6" class="node">
<title>Pearson’s correlation (PC</title>
<g id="a_node6"><a xlink:href="https://scholar.google.com/scholar?hl=en&amp;q=Using%20Physiological%20Synchrony%20as%20an%20Indicator%20of%20Collaboration%20Quality,%20Task%20Performance%20and%20Learning" xlink:title="Pearson’s correlation (PC" target="_blank">
<ellipse fill="none" stroke="black" cx="516.31" cy="-18" rx="112.38" ry="18"/>
<text text-anchor="middle" x="516.31" y="-14.3" font-family="Times,serif" font-size="14.00">Pearson’s correlation (PC</text>
</a>
</g>
</g>
<!-- Pearson’s correlation (PC&#45;&gt;colaboration quality -->
<g id="edge9" class="edge">
<title>Pearson’s correlation (PC&#45;&gt;colaboration quality: reciprocal interaction</title>
<path fill="none" stroke="black" d="M434.37,-30.36C409.85,-34.53 382.93,-39.52 358.37,-45 311.37,-55.49 258.8,-70.12 219.91,-81.5"/>
<polygon fill="black" stroke="black" points="218.43,-78.29 209.83,-84.47 220.41,-85 218.43,-78.29"/>
</g>
<!-- physiological synchrony (DA -->
<g id="node7" class="node">
<title>physiological synchrony (DA</title>
<g id="a_node7"><a xlink:href="https://scholar.google.com/scholar?hl=en&amp;q=Unpacking%20the%20relationship%20between%20existing%20and%20new%20measures%20of%20physiological%20synchrony%20and%20collaborative%20learning:%20a%20mixed%20methods%20study" xlink:title="physiological synchrony (DA" target="_blank">
<ellipse fill="none" stroke="black" cx="516.31" cy="-342" rx="115.08" ry="18"/>
<text text-anchor="middle" x="516.31" y="-338.3" font-family="Times,serif" font-size="14.00">physiological synchrony (DA</text>
</a>
</g>
</g>
<!-- physiological synchrony (DA&#45;&gt;collaboration quality -->
<g id="edge13" class="edge">
<title>physiological synchrony (DA&#45;&gt;collaboration quality</title>
<path fill="none" stroke="black" d="M412.7,-349.85C361.26,-353.78 299.6,-358.49 250.33,-362.26"/>
<polygon fill="black" stroke="black" points="250.03,-358.77 240.33,-363.03 250.56,-365.75 250.03,-358.77"/>
</g>
<!-- Signal Matching (SM -->
<g id="node8" class="node">
<title>Signal Matching (SM</title>
<g id="a_node8"><a xlink:href="https://scholar.google.com/scholar?hl=en&amp;q=Using%20Physiological%20Synchrony%20as%20an%20Indicator%20of%20Collaboration%20Quality,%20Task%20Performance%20and%20Learning" xlink:title="Signal Matching (SM" target="_blank">
<ellipse fill="none" stroke="black" cx="516.31" cy="-72" rx="88.28" ry="18"/>
<text text-anchor="middle" x="516.31" y="-68.3" font-family="Times,serif" font-size="14.00">Signal Matching (SM</text>
</a>
</g>
</g>
<!-- Signal Matching (SM&#45;&gt;collaborative will -->
<g id="edge2" class="edge">
<title>Signal Matching (SM&#45;&gt;collaborative will</title>
<path fill="none" stroke="black" d="M433.77,-78.59C408.86,-82.55 381.86,-88.88 358.37,-99 340,-106.92 340.07,-116.69 322.37,-126 291.08,-142.46 253.77,-155.39 223.03,-164.46"/>
<polygon fill="black" stroke="black" points="221.94,-161.13 213.3,-167.27 223.88,-167.86 221.94,-161.13"/>
</g>
<!-- Signal Matching (SM&#45;&gt;colaboration quality -->
<g id="edge7" class="edge">
<title>Signal Matching (SM&#45;&gt;colaboration quality: reciprocal interaction</title>
<path fill="none" stroke="black" d="M433.41,-78.26C377.98,-82.5 304.87,-88.09 248.53,-92.4"/>
<polygon fill="black" stroke="black" points="247.91,-88.93 238.21,-93.19 248.45,-95.91 247.91,-88.93"/>
</g>
<!-- EDA synchrony -->
<g id="node9" class="node">
<title>EDA synchrony</title>
<g id="a_node9"><a xlink:href="https://scholar.google.com/scholar?hl=en&amp;q=Physiological%20evidence%20of%20interpersonal%20dynamics%20in%20a%20cooperative%20production%20task" xlink:title="EDA synchrony" target="_blank">
<ellipse fill="none" stroke="black" cx="516.31" cy="-504" rx="67.69" ry="18"/>
<text text-anchor="middle" x="516.31" y="-500.3" font-family="Times,serif" font-size="14.00">EDA synchrony</text>
</a>
</g>
</g>
<!-- team cohesion -->
<g id="node14" class="node">
<title>team cohesion</title>
<ellipse fill="none" stroke="black" cx="161.19" cy="-504" rx="61.99" ry="18"/>
<text text-anchor="middle" x="161.19" y="-500.3" font-family="Times,serif" font-size="14.00">team cohesion</text>
</g>
<!-- EDA synchrony&#45;&gt;team cohesion -->
<g id="edge11" class="edge">
<title>EDA synchrony&#45;&gt;team cohesion</title>
<path fill="none" stroke="black" d="M448.47,-504C387.01,-504 296.16,-504 233.36,-504"/>
<polygon fill="black" stroke="black" points="233.14,-500.5 223.14,-504 233.14,-507.5 233.14,-500.5"/>
</g>
<!-- brain synchrony -->
<g id="node10" class="node">
<title>brain synchrony</title>
<g id="a_node10"><a xlink:href="https://scholar.google.com/scholar?hl=en&amp;q=Brain-to-Brain%20Synchrony%20Tracks%20Real-World%20Dynamic%20Group%20Interactions%20in%20the%20Classroom" xlink:title="brain synchrony" target="_blank">
<ellipse fill="none" stroke="black" cx="516.31" cy="-558" rx="67.69" ry="18"/>
<text text-anchor="middle" x="516.31" y="-554.3" font-family="Times,serif" font-size="14.00">brain synchrony</text>
</a>
</g>
</g>
<!-- Social dynamics -->
<g id="node12" class="node">
<title>Social dynamics</title>
<ellipse fill="none" stroke="black" cx="161.19" cy="-558" rx="69.59" ry="18"/>
<text text-anchor="middle" x="161.19" y="-554.3" font-family="Times,serif" font-size="14.00">Social dynamics</text>
</g>
<!-- brain synchrony&#45;&gt;Social dynamics -->
<g id="edge12" class="edge">
<title>brain synchrony&#45;&gt;Social dynamics</title>
<path fill="none" stroke="black" d="M448.47,-558C389.47,-558 303.39,-558 241.04,-558"/>
<polygon fill="black" stroke="black" points="240.85,-554.5 230.85,-558 240.85,-561.5 240.85,-554.5"/>
</g>
<!-- Pearson’s correlation coefficient (PCC -->
<g id="node11" class="node">
<title>Pearson’s correlation coefficient (PCC</title>
<g id="a_node11"><a xlink:href="https://scholar.google.com/scholar?hl=en&amp;q=Investigating%20collaborative%20learning%20success%20with%20physiological%20coupling%20indices%20based%20on%20electrodermal%20activity" xlink:title="Pearson’s correlation coefficient (PCC" target="_blank">
<ellipse fill="none" stroke="black" cx="516.31" cy="-234" rx="157.07" ry="18"/>
<text text-anchor="middle" x="516.31" y="-230.3" font-family="Times,serif" font-size="14.00">Pearson’s correlation coefficient (PCC</text>
</a>
</g>
</g>
<!-- Pearson’s correlation coefficient (PCC&#45;&gt;collaborative will -->
<g id="edge4" class="edge">
<title>Pearson’s correlation coefficient (PCC&#45;&gt;collaborative will</title>
<path fill="none" stroke="black" d="M421.14,-219.6C362.31,-210.6 287.75,-199.2 233.76,-190.94"/>
<polygon fill="black" stroke="black" points="234,-187.44 223.58,-189.39 232.94,-194.36 234,-187.44"/>
</g>
<!-- colaboration quality: reciprocal interaction -->
<g id="node13" class="node">
<title>colaboration quality: reciprocal interaction</title>
<ellipse fill="none" stroke="black" cx="161.19" cy="-612" rx="161.37" ry="18"/>
<text text-anchor="middle" x="161.19" y="-608.3" font-family="Times,serif" font-size="14.00">colaboration quality: reciprocal interaction</text>
</g>
</g>
</svg>
