<?xml version="1.0" encoding="UTF-8" standalone="no"?>
<!DOCTYPE svg PUBLIC "-//W3C//DTD SVG 1.1//EN"
 "http://www.w3.org/Graphics/SVG/1.1/DTD/svg11.dtd">
<!-- Generated by graphviz version 2.47.0 (20210316.0004)
 -->
<!-- Title: Test Pages: 1 -->
<svg width="632pt" height="1070pt"
 viewBox="0.00 0.00 631.55 1070.00" xmlns="http://www.w3.org/2000/svg" xmlns:xlink="http://www.w3.org/1999/xlink">
<g id="graph0" class="graph" transform="scale(1 1) rotate(0) translate(4 1066)">
<title>Test</title>
<polygon fill="white" stroke="transparent" points="-4,4 -4,-1066 627.55,-1066 627.55,4 -4,4"/>
<!-- CC &#45; HR -->
<g id="node1" class="node">
<title>CC &#45; HR</title>
<g id="a_node1"><a xlink:href="https://scholar.google.com/scholar?hl=en&amp;q=Shared%20Experiences%20of%20Technology%20and%20Trust:%20An%20Experimental%20Study%20of%20Physiological%20Compliance%20Between%20Active%20and%20Passive%20Users%20in%20Technology-Mediated%20Collaborative%20Encounters" xlink:title="CC &#45; HR">
<ellipse fill="none" stroke="black" cx="465.61" cy="-558" rx="42.49" ry="18"/>
<text text-anchor="middle" x="465.61" y="-554.3" font-family="Times,serif" font-size="14.00">CC &#45; HR</text>
</a>
</g>
</g>
<!-- Performance in task -->
<g id="node23" class="node">
<title>Performance in task</title>
<ellipse fill="none" stroke="black" cx="135.84" cy="-288" rx="81.79" ry="18"/>
<text text-anchor="middle" x="135.84" y="-284.3" font-family="Times,serif" font-size="14.00">Performance in task</text>
</g>
<!-- CC &#45; HR&#45;&gt;Performance in task -->
<g id="edge10" class="edge">
<title>CC &#45; HR&#45;&gt;Performance in task</title>
<path fill="none" stroke="black" d="M423.19,-559.33C389.62,-558.52 342.37,-552.95 307.68,-531 223.72,-477.87 169.37,-367.08 147.62,-315.51"/>
<polygon fill="black" stroke="black" points="150.75,-313.93 143.7,-306.02 144.28,-316.6 150.75,-313.93"/>
</g>
<!-- SM &#45; EDA -->
<g id="node2" class="node">
<title>SM &#45; EDA</title>
<g id="a_node2"><a xlink:href="https://scholar.google.com/scholar?hl=en&amp;q=Shared%20Experiences%20of%20Technology%20and%20Trust:%20An%20Experimental%20Study%20of%20Physiological%20Compliance%20Between%20Active%20and%20Passive%20Users%20in%20Technology-Mediated%20Collaborative%20Encounters" xlink:title="SM &#45; EDA">
<ellipse fill="none" stroke="black" cx="465.61" cy="-504" rx="50.09" ry="18"/>
<text text-anchor="middle" x="465.61" y="-500.3" font-family="Times,serif" font-size="14.00">SM &#45; EDA</text>
</a>
</g>
</g>
<!-- SM &#45; EDA&#45;&gt;Performance in task -->
<g id="edge2" class="edge">
<title>SM &#45; EDA&#45;&gt;Performance in task</title>
<path fill="none" stroke="black" d="M415.56,-503.74C383.16,-501.66 340.74,-495.19 307.68,-477 236.02,-437.56 178.74,-356.48 152.46,-314.49"/>
<polygon fill="black" stroke="black" points="155.4,-312.6 147.18,-305.91 149.44,-316.27 155.4,-312.6"/>
</g>
<!-- Fisher’s z&#45;transform (FZT -->
<g id="node3" class="node">
<title>Fisher’s z&#45;transform (FZT</title>
<g id="a_node3"><a xlink:href="https://scholar.google.com/scholar?hl=en&amp;q=Investigating%20collaborative%20learning%20success%20with%20physiological%20coupling%20indices%20based%20on%20electrodermal%20activity" xlink:title="Fisher’s z&#45;transform (FZT">
<ellipse fill="none" stroke="black" cx="465.61" cy="-828" rx="114.28" ry="18"/>
<text text-anchor="middle" x="465.61" y="-824.3" font-family="Times,serif" font-size="14.00">Fisher’s z&#45;transform (FZT</text>
</a>
</g>
</g>
<!-- collaborative learning product -->
<g id="node22" class="node">
<title>collaborative learning product</title>
<ellipse fill="none" stroke="black" cx="135.84" cy="-720" rx="116.98" ry="18"/>
<text text-anchor="middle" x="135.84" y="-716.3" font-family="Times,serif" font-size="14.00">collaborative learning product</text>
</g>
<!-- Fisher’s z&#45;transform (FZT&#45;&gt;collaborative learning product -->
<g id="edge16" class="edge">
<title>Fisher’s z&#45;transform (FZT&#45;&gt;collaborative learning product</title>
<path fill="none" stroke="black" d="M375.21,-816.95C352.87,-813.01 329.16,-807.8 307.68,-801 260.62,-786.11 209.91,-760.76 176.06,-742.39"/>
<polygon fill="black" stroke="black" points="177.43,-739.14 166.98,-737.4 174.06,-745.28 177.43,-739.14"/>
</g>
<!-- WC &#45; HR low frequency -->
<g id="node4" class="node">
<title>WC &#45; HR low frequency</title>
<g id="a_node4"><a xlink:href="https://scholar.google.com/scholar?hl=en&amp;q=Shared%20Experiences%20of%20Technology%20and%20Trust:%20An%20Experimental%20Study%20of%20Physiological%20Compliance%20Between%20Active%20and%20Passive%20Users%20in%20Technology-Mediated%20Collaborative%20Encounters" xlink:title="WC &#45; HR low frequency">
<ellipse fill="none" stroke="black" cx="465.61" cy="-450" rx="98.58" ry="18"/>
<text text-anchor="middle" x="465.61" y="-446.3" font-family="Times,serif" font-size="14.00">WC &#45; HR low frequency</text>
</a>
</g>
</g>
<!-- WC &#45; HR low frequency&#45;&gt;Performance in task -->
<g id="edge11" class="edge">
<title>WC &#45; HR low frequency&#45;&gt;Performance in task</title>
<path fill="none" stroke="black" d="M375.59,-442.55C352.78,-438.55 328.76,-432.4 307.68,-423 248.16,-396.45 191.33,-344.44 160.56,-313.3"/>
<polygon fill="black" stroke="black" points="162.8,-310.58 153.31,-305.86 157.78,-315.46 162.8,-310.58"/>
</g>
<!-- WC &#45; EDA -->
<g id="node5" class="node">
<title>WC &#45; EDA</title>
<g id="a_node5"><a xlink:href="https://scholar.google.com/scholar?hl=en&amp;q=Shared%20Experiences%20of%20Technology%20and%20Trust:%20An%20Experimental%20Study%20of%20Physiological%20Compliance%20Between%20Active%20and%20Passive%20Users%20in%20Technology-Mediated%20Collaborative%20Encounters" xlink:title="WC &#45; EDA">
<ellipse fill="none" stroke="black" cx="465.61" cy="-396" rx="51.19" ry="18"/>
<text text-anchor="middle" x="465.61" y="-392.3" font-family="Times,serif" font-size="14.00">WC &#45; EDA</text>
</a>
</g>
</g>
<!-- WC &#45; EDA&#45;&gt;Performance in task -->
<g id="edge6" class="edge">
<title>WC &#45; EDA&#45;&gt;Performance in task</title>
<path fill="none" stroke="black" d="M416.07,-391.11C384.65,-387.1 343.13,-380.22 307.68,-369 260.19,-353.97 208.98,-328.3 175.14,-309.88"/>
<polygon fill="black" stroke="black" points="176.52,-306.65 166.07,-304.9 173.15,-312.78 176.52,-306.65"/>
</g>
<!-- Directional Agreement (DA -->
<g id="node6" class="node">
<title>Directional Agreement (DA</title>
<g id="a_node6"><a xlink:href="https://scholar.google.com/scholar?hl=en&amp;q=Investigating%20collaborative%20learning%20success%20with%20physiological%20coupling%20indices%20based%20on%20electrodermal%20activity" xlink:title="Directional Agreement (DA">
<ellipse fill="none" stroke="black" cx="465.61" cy="-774" rx="109.68" ry="18"/>
<text text-anchor="middle" x="465.61" y="-770.3" font-family="Times,serif" font-size="14.00">Directional Agreement (DA</text>
</a>
</g>
</g>
<!-- Directional Agreement (DA&#45;&gt;collaborative learning product -->
<g id="edge14" class="edge">
<title>Directional Agreement (DA&#45;&gt;collaborative learning product</title>
<path fill="none" stroke="black" d="M387.35,-761.27C339.09,-753.32 276.76,-743.05 226.35,-734.75"/>
<polygon fill="black" stroke="black" points="226.87,-731.29 216.43,-733.11 225.73,-738.19 226.87,-731.29"/>
</g>
<!-- IDM &#45; HR -->
<g id="node7" class="node">
<title>IDM &#45; HR</title>
<g id="a_node7"><a xlink:href="https://scholar.google.com/scholar?hl=en&amp;q=Shared%20Experiences%20of%20Technology%20and%20Trust:%20An%20Experimental%20Study%20of%20Physiological%20Compliance%20Between%20Active%20and%20Passive%20Users%20in%20Technology-Mediated%20Collaborative%20Encounters" xlink:title="IDM &#45; HR">
<ellipse fill="none" stroke="black" cx="465.61" cy="-342" rx="48.19" ry="18"/>
<text text-anchor="middle" x="465.61" y="-338.3" font-family="Times,serif" font-size="14.00">IDM &#45; HR</text>
</a>
</g>
</g>
<!-- IDM &#45; HR&#45;&gt;Performance in task -->
<g id="edge8" class="edge">
<title>IDM &#45; HR&#45;&gt;Performance in task</title>
<path fill="none" stroke="black" d="M421.42,-334.88C368.21,-326.12 276.89,-311.07 212.06,-300.39"/>
<polygon fill="black" stroke="black" points="212.33,-296.89 201.89,-298.72 211.19,-303.8 212.33,-296.89"/>
</g>
<!-- CC &#45; EDA -->
<g id="node8" class="node">
<title>CC &#45; EDA</title>
<g id="a_node8"><a xlink:href="https://scholar.google.com/scholar?hl=en&amp;q=Shared%20Experiences%20of%20Technology%20and%20Trust:%20An%20Experimental%20Study%20of%20Physiological%20Compliance%20Between%20Active%20and%20Passive%20Users%20in%20Technology-Mediated%20Collaborative%20Encounters" xlink:title="CC &#45; EDA">
<ellipse fill="none" stroke="black" cx="465.61" cy="-288" rx="48.19" ry="18"/>
<text text-anchor="middle" x="465.61" y="-284.3" font-family="Times,serif" font-size="14.00">CC &#45; EDA</text>
</a>
</g>
</g>
<!-- CC &#45; EDA&#45;&gt;Performance in task -->
<g id="edge5" class="edge">
<title>CC &#45; EDA&#45;&gt;Performance in task</title>
<path fill="none" stroke="black" d="M417.3,-288C368.01,-288 289.55,-288 228.14,-288"/>
<polygon fill="black" stroke="black" points="228.05,-284.5 218.05,-288 228.05,-291.5 228.05,-284.5"/>
</g>
<!-- Galvanic skin response -->
<g id="node9" class="node">
<title>Galvanic skin response</title>
<g id="a_node9"><a xlink:href="https://scholar.google.com/scholar?hl=en&amp;q=Modeling%20Team-level%20Multimodal%20Dynamics%20during%20Multiparty%20Collaboration" xlink:title="Galvanic skin response">
<ellipse fill="none" stroke="black" cx="465.61" cy="-882" rx="92.88" ry="18"/>
<text text-anchor="middle" x="465.61" y="-878.3" font-family="Times,serif" font-size="14.00">Galvanic skin response</text>
</a>
</g>
</g>
<!-- Task Performance -->
<g id="node21" class="node">
<title>Task Performance</title>
<ellipse fill="none" stroke="black" cx="135.84" cy="-882" rx="75.29" ry="18"/>
<text text-anchor="middle" x="135.84" y="-878.3" font-family="Times,serif" font-size="14.00">Task Performance</text>
</g>
<!-- Galvanic skin response&#45;&gt;Task Performance -->
<g id="edge1" class="edge">
<title>Galvanic skin response&#45;&gt;Task Performance</title>
<path fill="none" stroke="black" d="M372.44,-882C324.98,-882 267.54,-882 221.25,-882"/>
<polygon fill="black" stroke="black" points="221.25,-878.5 211.25,-882 221.25,-885.5 221.25,-878.5"/>
</g>
<!-- DA &#45; HR -->
<g id="node10" class="node">
<title>DA &#45; HR</title>
<g id="a_node10"><a xlink:href="https://scholar.google.com/scholar?hl=en&amp;q=Shared%20Experiences%20of%20Technology%20and%20Trust:%20An%20Experimental%20Study%20of%20Physiological%20Compliance%20Between%20Active%20and%20Passive%20Users%20in%20Technology-Mediated%20Collaborative%20Encounters" xlink:title="DA &#45; HR">
<ellipse fill="none" stroke="black" cx="465.61" cy="-234" rx="42.79" ry="18"/>
<text text-anchor="middle" x="465.61" y="-230.3" font-family="Times,serif" font-size="14.00">DA &#45; HR</text>
</a>
</g>
</g>
<!-- DA &#45; HR&#45;&gt;Performance in task -->
<g id="edge9" class="edge">
<title>DA &#45; HR&#45;&gt;Performance in task</title>
<path fill="none" stroke="black" d="M425.4,-240.46C372.79,-249.13 278.29,-264.7 211.8,-275.65"/>
<polygon fill="black" stroke="black" points="211.09,-272.22 201.79,-277.3 212.23,-279.13 211.09,-272.22"/>
</g>
<!-- Signal Matching (SM -->
<g id="node11" class="node">
<title>Signal Matching (SM</title>
<g id="a_node11"><a xlink:href="https://scholar.google.com/scholar?hl=en&amp;q=Investigating%20collaborative%20learning%20success%20with%20physiological%20coupling%20indices%20based%20on%20electrodermal%20activity" xlink:title="Signal Matching (SM">
<ellipse fill="none" stroke="black" cx="465.61" cy="-720" rx="88.28" ry="18"/>
<text text-anchor="middle" x="465.61" y="-716.3" font-family="Times,serif" font-size="14.00">Signal Matching (SM</text>
</a>
</g>
</g>
<!-- Signal Matching (SM&#45;&gt;collaborative learning product -->
<g id="edge13" class="edge">
<title>Signal Matching (SM&#45;&gt;collaborative learning product</title>
<path fill="none" stroke="black" d="M377.21,-720C342.21,-720 301.23,-720 263.11,-720"/>
<polygon fill="black" stroke="black" points="262.96,-716.5 252.96,-720 262.96,-723.5 262.96,-716.5"/>
</g>
<!-- physiological synchrony -->
<g id="node12" class="node">
<title>physiological synchrony</title>
<g id="a_node12"><a xlink:href="https://scholar.google.com/scholar?hl=en&amp;q=What%20does%20physiological%20synchrony%20reveal%20about%20metacognitive%20experiences%20and%20group%20performance?" xlink:title="physiological synchrony">
<ellipse fill="none" stroke="black" cx="465.61" cy="-990" rx="96.68" ry="18"/>
<text text-anchor="middle" x="465.61" y="-986.3" font-family="Times,serif" font-size="14.00">physiological synchrony</text>
</a>
</g>
</g>
<!-- Task difficulty -->
<g id="node19" class="node">
<title>Task difficulty</title>
<ellipse fill="none" stroke="black" cx="135.84" cy="-1044" rx="62.29" ry="18"/>
<text text-anchor="middle" x="135.84" y="-1040.3" font-family="Times,serif" font-size="14.00">Task difficulty</text>
</g>
<!-- physiological synchrony&#45;&gt;Task difficulty -->
<g id="edge18" class="edge">
<title>physiological synchrony&#45;&gt;Task difficulty</title>
<path fill="none" stroke="black" d="M392.68,-1001.85C335.2,-1011.32 255.41,-1024.47 200.29,-1033.55"/>
<polygon fill="black" stroke="black" points="199.59,-1030.11 190.29,-1035.19 200.73,-1037.02 199.59,-1030.11"/>
</g>
<!-- Perceived group performance -->
<g id="node20" class="node">
<title>Perceived group performance</title>
<ellipse fill="none" stroke="black" cx="135.84" cy="-990" rx="115.88" ry="18"/>
<text text-anchor="middle" x="135.84" y="-986.3" font-family="Times,serif" font-size="14.00">Perceived group performance</text>
</g>
<!-- physiological synchrony&#45;&gt;Perceived group performance -->
<g id="edge19" class="edge">
<title>physiological synchrony&#45;&gt;Perceived group performance</title>
<path fill="none" stroke="black" d="M368.48,-990C335.22,-990 297.43,-990 262.16,-990"/>
<polygon fill="black" stroke="black" points="261.8,-986.5 251.8,-990 261.8,-993.5 261.8,-986.5"/>
</g>
<!-- Objective group performance score -->
<g id="node24" class="node">
<title>Objective group performance score</title>
<ellipse fill="none" stroke="black" cx="135.84" cy="-936" rx="135.68" ry="18"/>
<text text-anchor="middle" x="135.84" y="-932.3" font-family="Times,serif" font-size="14.00">Objective group performance score</text>
</g>
<!-- physiological synchrony&#45;&gt;Objective group performance score -->
<g id="edge20" class="edge">
<title>physiological synchrony&#45;&gt;Objective group performance score</title>
<path fill="none" stroke="black" d="M392.68,-978.15C345.42,-970.36 283.08,-960.09 231.77,-951.64"/>
<polygon fill="black" stroke="black" points="232.09,-948.15 221.66,-949.97 230.96,-955.05 232.09,-948.15"/>
</g>
<!-- IDM &#45; EDA -->
<g id="node13" class="node">
<title>IDM &#45; EDA</title>
<g id="a_node13"><a xlink:href="https://scholar.google.com/scholar?hl=en&amp;q=Shared%20Experiences%20of%20Technology%20and%20Trust:%20An%20Experimental%20Study%20of%20Physiological%20Compliance%20Between%20Active%20and%20Passive%20Users%20in%20Technology-Mediated%20Collaborative%20Encounters" xlink:title="IDM &#45; EDA">
<ellipse fill="none" stroke="black" cx="465.61" cy="-180" rx="53.89" ry="18"/>
<text text-anchor="middle" x="465.61" y="-176.3" font-family="Times,serif" font-size="14.00">IDM &#45; EDA</text>
</a>
</g>
</g>
<!-- IDM &#45; EDA&#45;&gt;Performance in task -->
<g id="edge3" class="edge">
<title>IDM &#45; EDA&#45;&gt;Performance in task</title>
<path fill="none" stroke="black" d="M413.6,-185.21C382.49,-189.26 342.2,-196.07 307.68,-207 260.19,-222.03 208.98,-247.7 175.14,-266.12"/>
<polygon fill="black" stroke="black" points="173.15,-263.22 166.07,-271.1 176.52,-269.35 173.15,-263.22"/>
</g>
<!-- DA &#45; EDA -->
<g id="node14" class="node">
<title>DA &#45; EDA</title>
<g id="a_node14"><a xlink:href="https://scholar.google.com/scholar?hl=en&amp;q=Shared%20Experiences%20of%20Technology%20and%20Trust:%20An%20Experimental%20Study%20of%20Physiological%20Compliance%20Between%20Active%20and%20Passive%20Users%20in%20Technology-Mediated%20Collaborative%20Encounters" xlink:title="DA &#45; EDA">
<ellipse fill="none" stroke="black" cx="465.61" cy="-126" rx="48.99" ry="18"/>
<text text-anchor="middle" x="465.61" y="-122.3" font-family="Times,serif" font-size="14.00">DA &#45; EDA</text>
</a>
</g>
</g>
<!-- DA &#45; EDA&#45;&gt;Performance in task -->
<g id="edge4" class="edge">
<title>DA &#45; EDA&#45;&gt;Performance in task</title>
<path fill="none" stroke="black" d="M417.18,-128.05C385.09,-130.87 342.39,-137.51 307.68,-153 248.16,-179.55 191.33,-231.56 160.56,-262.7"/>
<polygon fill="black" stroke="black" points="157.78,-260.54 153.31,-270.14 162.8,-265.42 157.78,-260.54"/>
</g>
<!-- Pearson’s correlation coefficient (PCC -->
<g id="node15" class="node">
<title>Pearson’s correlation coefficient (PCC</title>
<g id="a_node15"><a xlink:href="https://scholar.google.com/scholar?hl=en&amp;q=Investigating%20collaborative%20learning%20success%20with%20physiological%20coupling%20indices%20based%20on%20electrodermal%20activity" xlink:title="Pearson’s correlation coefficient (PCC">
<ellipse fill="none" stroke="black" cx="465.61" cy="-666" rx="157.07" ry="18"/>
<text text-anchor="middle" x="465.61" y="-662.3" font-family="Times,serif" font-size="14.00">Pearson’s correlation coefficient (PCC</text>
</a>
</g>
</g>
<!-- Pearson’s correlation coefficient (PCC&#45;&gt;collaborative learning product -->
<g id="edge15" class="edge">
<title>Pearson’s correlation coefficient (PCC&#45;&gt;collaborative learning product</title>
<path fill="none" stroke="black" d="M375.05,-680.76C328.78,-688.38 272.49,-697.65 226.24,-705.27"/>
<polygon fill="black" stroke="black" points="225.53,-701.84 216.24,-706.92 226.67,-708.75 225.53,-701.84"/>
</g>
<!-- WC &#45; HR high frequency -->
<g id="node16" class="node">
<title>WC &#45; HR high frequency</title>
<g id="a_node16"><a xlink:href="https://scholar.google.com/scholar?hl=en&amp;q=Shared%20Experiences%20of%20Technology%20and%20Trust:%20An%20Experimental%20Study%20of%20Physiological%20Compliance%20Between%20Active%20and%20Passive%20Users%20in%20Technology-Mediated%20Collaborative%20Encounters" xlink:title="WC &#45; HR high frequency">
<ellipse fill="none" stroke="black" cx="465.61" cy="-72" rx="100.98" ry="18"/>
<text text-anchor="middle" x="465.61" y="-68.3" font-family="Times,serif" font-size="14.00">WC &#45; HR high frequency</text>
</a>
</g>
</g>
<!-- WC &#45; HR high frequency&#45;&gt;Performance in task -->
<g id="edge12" class="edge">
<title>WC &#45; HR high frequency&#45;&gt;Performance in task</title>
<path fill="none" stroke="black" d="M370.32,-77.85C348.8,-81.95 326.69,-88.54 307.68,-99 236.02,-138.44 178.74,-219.52 152.46,-261.51"/>
<polygon fill="black" stroke="black" points="149.44,-259.73 147.18,-270.09 155.4,-263.4 149.44,-259.73"/>
</g>
<!-- SM &#45; HR -->
<g id="node17" class="node">
<title>SM &#45; HR</title>
<g id="a_node17"><a xlink:href="https://scholar.google.com/scholar?hl=en&amp;q=Shared%20Experiences%20of%20Technology%20and%20Trust:%20An%20Experimental%20Study%20of%20Physiological%20Compliance%20Between%20Active%20and%20Passive%20Users%20in%20Technology-Mediated%20Collaborative%20Encounters" xlink:title="SM &#45; HR">
<ellipse fill="none" stroke="black" cx="465.61" cy="-18" rx="44.39" ry="18"/>
<text text-anchor="middle" x="465.61" y="-14.3" font-family="Times,serif" font-size="14.00">SM &#45; HR</text>
</a>
</g>
</g>
<!-- SM &#45; HR&#45;&gt;Performance in task -->
<g id="edge7" class="edge">
<title>SM &#45; HR&#45;&gt;Performance in task</title>
<path fill="none" stroke="black" d="M421.48,-16.72C388.03,-17.67 341.78,-23.42 307.68,-45 223.72,-98.13 169.37,-208.92 147.62,-260.49"/>
<polygon fill="black" stroke="black" points="144.28,-259.4 143.7,-269.98 150.75,-262.07 144.28,-259.4"/>
</g>
<!-- Instantaneous Derivative Matching (IDM -->
<g id="node18" class="node">
<title>Instantaneous Derivative Matching (IDM</title>
<g id="a_node18"><a xlink:href="https://scholar.google.com/scholar?hl=en&amp;q=Investigating%20collaborative%20learning%20success%20with%20physiological%20coupling%20indices%20based%20on%20electrodermal%20activity" xlink:title="Instantaneous Derivative Matching (IDM">
<ellipse fill="none" stroke="black" cx="465.61" cy="-612" rx="157.87" ry="18"/>
<text text-anchor="middle" x="465.61" y="-608.3" font-family="Times,serif" font-size="14.00">Instantaneous Derivative Matching (IDM</text>
</a>
</g>
</g>
<!-- Instantaneous Derivative Matching (IDM&#45;&gt;collaborative learning product -->
<g id="edge17" class="edge">
<title>Instantaneous Derivative Matching (IDM&#45;&gt;collaborative learning product</title>
<path fill="none" stroke="black" d="M361.5,-625.61C343.36,-629.17 324.81,-633.58 307.68,-639 260.62,-653.89 209.91,-679.24 176.06,-697.61"/>
<polygon fill="black" stroke="black" points="174.06,-694.72 166.98,-702.6 177.43,-700.86 174.06,-694.72"/>
</g>
</g>
</svg>
