<?xml version="1.0" encoding="UTF-8" standalone="no"?>
<!DOCTYPE svg PUBLIC "-//W3C//DTD SVG 1.1//EN"
 "http://www.w3.org/Graphics/SVG/1.1/DTD/svg11.dtd">
<!-- Generated by graphviz version 2.47.0 (20210316.0004)
 -->
<!-- Title: Test Pages: 1 -->
<svg width="632pt" height="1016pt"
 viewBox="0.00 0.00 631.55 1016.00" xmlns="http://www.w3.org/2000/svg" xmlns:xlink="http://www.w3.org/1999/xlink">
<g id="graph0" class="graph" transform="scale(1 1) rotate(0) translate(4 1012)">
<title>Test</title>
<polygon fill="white" stroke="transparent" points="-4,4 -4,-1012 627.55,-1012 627.55,4 -4,4"/>
<!-- Fisher’s z&#45;transform (FZT -->
<g id="node1" class="node">
<title>Fisher’s z&#45;transform (FZT</title>
<g id="a_node1"><a xlink:href="https://scholar.google.com/scholar?hl=en&amp;q=An%20Interactive%20Table%20for%20Supporting%20Participation%20Balance%20in%20Face-to-Face%20Collaborative%20Learning" xlink:title="Fisher’s z&#45;transform (FZT">
<ellipse fill="none" stroke="black" cx="465.61" cy="-234" rx="114.28" ry="18"/>
<text text-anchor="middle" x="465.61" y="-230.3" font-family="Times,serif" font-size="14.00">Fisher’s z&#45;transform (FZT</text>
</a>
</g>
</g>
<!-- collaborative learning product -->
<g id="node19" class="node">
<title>collaborative learning product</title>
<ellipse fill="none" stroke="black" cx="135.84" cy="-126" rx="116.98" ry="18"/>
<text text-anchor="middle" x="135.84" y="-122.3" font-family="Times,serif" font-size="14.00">collaborative learning product</text>
</g>
<!-- Fisher’s z&#45;transform (FZT&#45;&gt;collaborative learning product -->
<g id="edge16" class="edge">
<title>Fisher’s z&#45;transform (FZT&#45;&gt;collaborative learning product</title>
<path fill="none" stroke="black" d="M375.21,-222.95C352.87,-219.01 329.16,-213.8 307.68,-207 260.62,-192.11 209.91,-166.76 176.06,-148.39"/>
<polygon fill="black" stroke="black" points="177.43,-145.14 166.98,-143.4 174.06,-151.28 177.43,-145.14"/>
</g>
<!-- WC &#45; HR low frequency -->
<g id="node2" class="node">
<title>WC &#45; HR low frequency</title>
<g id="a_node2"><a xlink:href="https://scholar.google.com/scholar?hl=en&amp;q=An%20Interactive%20Table%20for%20Supporting%20Participation%20Balance%20in%20Face-to-Face%20Collaborative%20Learning" xlink:title="WC &#45; HR low frequency">
<ellipse fill="none" stroke="black" cx="465.61" cy="-828" rx="98.58" ry="18"/>
<text text-anchor="middle" x="465.61" y="-824.3" font-family="Times,serif" font-size="14.00">WC &#45; HR low frequency</text>
</a>
</g>
</g>
<!-- Performance in task -->
<g id="node21" class="node">
<title>Performance in task</title>
<ellipse fill="none" stroke="black" cx="135.84" cy="-558" rx="81.79" ry="18"/>
<text text-anchor="middle" x="135.84" y="-554.3" font-family="Times,serif" font-size="14.00">Performance in task</text>
</g>
<!-- WC &#45; HR low frequency&#45;&gt;Performance in task -->
<g id="edge11" class="edge">
<title>WC &#45; HR low frequency&#45;&gt;Performance in task</title>
<path fill="none" stroke="black" d="M369.34,-823.8C347.86,-819.63 326.01,-812.61 307.68,-801 223.72,-747.87 169.37,-637.08 147.62,-585.51"/>
<polygon fill="black" stroke="black" points="150.75,-583.93 143.7,-576.02 144.28,-586.6 150.75,-583.93"/>
</g>
<!-- DA &#45; EDA -->
<g id="node3" class="node">
<title>DA &#45; EDA</title>
<g id="a_node3"><a xlink:href="https://scholar.google.com/scholar?hl=en&amp;q=An%20Interactive%20Table%20for%20Supporting%20Participation%20Balance%20in%20Face-to-Face%20Collaborative%20Learning" xlink:title="DA &#45; EDA">
<ellipse fill="none" stroke="black" cx="465.61" cy="-774" rx="48.99" ry="18"/>
<text text-anchor="middle" x="465.61" y="-770.3" font-family="Times,serif" font-size="14.00">DA &#45; EDA</text>
</a>
</g>
</g>
<!-- DA &#45; EDA&#45;&gt;Performance in task -->
<g id="edge4" class="edge">
<title>DA &#45; EDA&#45;&gt;Performance in task</title>
<path fill="none" stroke="black" d="M416.62,-773.8C384.09,-771.8 341.1,-765.39 307.68,-747 236.02,-707.56 178.74,-626.48 152.46,-584.49"/>
<polygon fill="black" stroke="black" points="155.4,-582.6 147.18,-575.91 149.44,-586.27 155.4,-582.6"/>
</g>
<!-- SM &#45; HR -->
<g id="node4" class="node">
<title>SM &#45; HR</title>
<g id="a_node4"><a xlink:href="https://scholar.google.com/scholar?hl=en&amp;q=An%20Interactive%20Table%20for%20Supporting%20Participation%20Balance%20in%20Face-to-Face%20Collaborative%20Learning" xlink:title="SM &#45; HR">
<ellipse fill="none" stroke="black" cx="465.61" cy="-720" rx="44.39" ry="18"/>
<text text-anchor="middle" x="465.61" y="-716.3" font-family="Times,serif" font-size="14.00">SM &#45; HR</text>
</a>
</g>
</g>
<!-- SM &#45; HR&#45;&gt;Performance in task -->
<g id="edge7" class="edge">
<title>SM &#45; HR&#45;&gt;Performance in task</title>
<path fill="none" stroke="black" d="M421.32,-718.3C388.83,-715.69 343.91,-709.16 307.68,-693 248.16,-666.45 191.33,-614.44 160.56,-583.3"/>
<polygon fill="black" stroke="black" points="162.8,-580.58 153.31,-575.86 157.78,-585.46 162.8,-580.58"/>
</g>
<!-- WC &#45; HR high frequency -->
<g id="node5" class="node">
<title>WC &#45; HR high frequency</title>
<g id="a_node5"><a xlink:href="https://scholar.google.com/scholar?hl=en&amp;q=An%20Interactive%20Table%20for%20Supporting%20Participation%20Balance%20in%20Face-to-Face%20Collaborative%20Learning" xlink:title="WC &#45; HR high frequency">
<ellipse fill="none" stroke="black" cx="465.61" cy="-666" rx="100.98" ry="18"/>
<text text-anchor="middle" x="465.61" y="-662.3" font-family="Times,serif" font-size="14.00">WC &#45; HR high frequency</text>
</a>
</g>
</g>
<!-- WC &#45; HR high frequency&#45;&gt;Performance in task -->
<g id="edge12" class="edge">
<title>WC &#45; HR high frequency&#45;&gt;Performance in task</title>
<path fill="none" stroke="black" d="M381.34,-656C357.25,-651.95 331.13,-646.43 307.68,-639 260.19,-623.97 208.98,-598.3 175.14,-579.88"/>
<polygon fill="black" stroke="black" points="176.52,-576.65 166.07,-574.9 173.15,-582.78 176.52,-576.65"/>
</g>
<!-- IDM &#45; HR -->
<g id="node6" class="node">
<title>IDM &#45; HR</title>
<g id="a_node6"><a xlink:href="https://scholar.google.com/scholar?hl=en&amp;q=An%20Interactive%20Table%20for%20Supporting%20Participation%20Balance%20in%20Face-to-Face%20Collaborative%20Learning" xlink:title="IDM &#45; HR">
<ellipse fill="none" stroke="black" cx="465.61" cy="-612" rx="48.19" ry="18"/>
<text text-anchor="middle" x="465.61" y="-608.3" font-family="Times,serif" font-size="14.00">IDM &#45; HR</text>
</a>
</g>
</g>
<!-- IDM &#45; HR&#45;&gt;Performance in task -->
<g id="edge8" class="edge">
<title>IDM &#45; HR&#45;&gt;Performance in task</title>
<path fill="none" stroke="black" d="M421.42,-604.88C368.21,-596.12 276.89,-581.07 212.06,-570.39"/>
<polygon fill="black" stroke="black" points="212.33,-566.89 201.89,-568.72 211.19,-573.8 212.33,-566.89"/>
</g>
<!-- Pearson’s correlation coefficient (PCC -->
<g id="node7" class="node">
<title>Pearson’s correlation coefficient (PCC</title>
<g id="a_node7"><a xlink:href="https://scholar.google.com/scholar?hl=en&amp;q=An%20Interactive%20Table%20for%20Supporting%20Participation%20Balance%20in%20Face-to-Face%20Collaborative%20Learning" xlink:title="Pearson’s correlation coefficient (PCC">
<ellipse fill="none" stroke="black" cx="465.61" cy="-180" rx="157.07" ry="18"/>
<text text-anchor="middle" x="465.61" y="-176.3" font-family="Times,serif" font-size="14.00">Pearson’s correlation coefficient (PCC</text>
</a>
</g>
</g>
<!-- Pearson’s correlation coefficient (PCC&#45;&gt;collaborative learning product -->
<g id="edge15" class="edge">
<title>Pearson’s correlation coefficient (PCC&#45;&gt;collaborative learning product</title>
<path fill="none" stroke="black" d="M375.05,-165.24C328.78,-157.62 272.49,-148.35 226.24,-140.73"/>
<polygon fill="black" stroke="black" points="226.67,-137.25 216.24,-139.08 225.53,-144.16 226.67,-137.25"/>
</g>
<!-- DA &#45; HR -->
<g id="node8" class="node">
<title>DA &#45; HR</title>
<g id="a_node8"><a xlink:href="https://scholar.google.com/scholar?hl=en&amp;q=An%20Interactive%20Table%20for%20Supporting%20Participation%20Balance%20in%20Face-to-Face%20Collaborative%20Learning" xlink:title="DA &#45; HR">
<ellipse fill="none" stroke="black" cx="465.61" cy="-558" rx="42.79" ry="18"/>
<text text-anchor="middle" x="465.61" y="-554.3" font-family="Times,serif" font-size="14.00">DA &#45; HR</text>
</a>
</g>
</g>
<!-- DA &#45; HR&#45;&gt;Performance in task -->
<g id="edge9" class="edge">
<title>DA &#45; HR&#45;&gt;Performance in task</title>
<path fill="none" stroke="black" d="M422.43,-558C373.52,-558 291.48,-558 227.85,-558"/>
<polygon fill="black" stroke="black" points="227.8,-554.5 217.8,-558 227.8,-561.5 227.8,-554.5"/>
</g>
<!-- physiological synchrony -->
<g id="node9" class="node">
<title>physiological synchrony</title>
<g id="a_node9"><a xlink:href="https://scholar.google.com/scholar?hl=en&amp;q=An%20Interactive%20Table%20for%20Supporting%20Participation%20Balance%20in%20Face-to-Face%20Collaborative%20Learning" xlink:title="physiological synchrony">
<ellipse fill="none" stroke="black" cx="465.61" cy="-882" rx="96.68" ry="18"/>
<text text-anchor="middle" x="465.61" y="-878.3" font-family="Times,serif" font-size="14.00">physiological synchrony</text>
</a>
</g>
</g>
<!-- Perceived group performance -->
<g id="node20" class="node">
<title>Perceived group performance</title>
<ellipse fill="none" stroke="black" cx="135.84" cy="-936" rx="115.88" ry="18"/>
<text text-anchor="middle" x="135.84" y="-932.3" font-family="Times,serif" font-size="14.00">Perceived group performance</text>
</g>
<!-- physiological synchrony&#45;&gt;Perceived group performance -->
<g id="edge19" class="edge">
<title>physiological synchrony&#45;&gt;Perceived group performance</title>
<path fill="none" stroke="black" d="M392.68,-893.85C343.64,-901.93 278.36,-912.68 226.02,-921.31"/>
<polygon fill="black" stroke="black" points="225.36,-917.87 216.06,-922.95 226.5,-924.78 225.36,-917.87"/>
</g>
<!-- Objective group performance score -->
<g id="node22" class="node">
<title>Objective group performance score</title>
<ellipse fill="none" stroke="black" cx="135.84" cy="-882" rx="135.68" ry="18"/>
<text text-anchor="middle" x="135.84" y="-878.3" font-family="Times,serif" font-size="14.00">Objective group performance score</text>
</g>
<!-- physiological synchrony&#45;&gt;Objective group performance score -->
<g id="edge20" class="edge">
<title>physiological synchrony&#45;&gt;Objective group performance score</title>
<path fill="none" stroke="black" d="M368.48,-882C341.45,-882 311.43,-882 282.2,-882"/>
<polygon fill="black" stroke="black" points="281.9,-878.5 271.9,-882 281.9,-885.5 281.9,-878.5"/>
</g>
<!-- Task difficulty -->
<g id="node24" class="node">
<title>Task difficulty</title>
<ellipse fill="none" stroke="black" cx="135.84" cy="-828" rx="62.29" ry="18"/>
<text text-anchor="middle" x="135.84" y="-824.3" font-family="Times,serif" font-size="14.00">Task difficulty</text>
</g>
<!-- physiological synchrony&#45;&gt;Task difficulty -->
<g id="edge18" class="edge">
<title>physiological synchrony&#45;&gt;Task difficulty</title>
<path fill="none" stroke="black" d="M392.68,-870.15C335.2,-860.68 255.41,-847.53 200.29,-838.45"/>
<polygon fill="black" stroke="black" points="200.73,-834.98 190.29,-836.81 199.59,-841.89 200.73,-834.98"/>
</g>
<!-- Signal Matching (SM -->
<g id="node10" class="node">
<title>Signal Matching (SM</title>
<g id="a_node10"><a xlink:href="https://scholar.google.com/scholar?hl=en&amp;q=An%20Interactive%20Table%20for%20Supporting%20Participation%20Balance%20in%20Face-to-Face%20Collaborative%20Learning" xlink:title="Signal Matching (SM">
<ellipse fill="none" stroke="black" cx="465.61" cy="-126" rx="88.28" ry="18"/>
<text text-anchor="middle" x="465.61" y="-122.3" font-family="Times,serif" font-size="14.00">Signal Matching (SM</text>
</a>
</g>
</g>
<!-- Signal Matching (SM&#45;&gt;collaborative learning product -->
<g id="edge13" class="edge">
<title>Signal Matching (SM&#45;&gt;collaborative learning product</title>
<path fill="none" stroke="black" d="M377.21,-126C342.21,-126 301.23,-126 263.11,-126"/>
<polygon fill="black" stroke="black" points="262.96,-122.5 252.96,-126 262.96,-129.5 262.96,-122.5"/>
</g>
<!-- WC &#45; EDA -->
<g id="node11" class="node">
<title>WC &#45; EDA</title>
<g id="a_node11"><a xlink:href="https://scholar.google.com/scholar?hl=en&amp;q=An%20Interactive%20Table%20for%20Supporting%20Participation%20Balance%20in%20Face-to-Face%20Collaborative%20Learning" xlink:title="WC &#45; EDA">
<ellipse fill="none" stroke="black" cx="465.61" cy="-504" rx="51.19" ry="18"/>
<text text-anchor="middle" x="465.61" y="-500.3" font-family="Times,serif" font-size="14.00">WC &#45; EDA</text>
</a>
</g>
</g>
<!-- WC &#45; EDA&#45;&gt;Performance in task -->
<g id="edge6" class="edge">
<title>WC &#45; EDA&#45;&gt;Performance in task</title>
<path fill="none" stroke="black" d="M418.69,-511.57C365.09,-520.4 275.68,-535.13 211.93,-545.63"/>
<polygon fill="black" stroke="black" points="211.23,-542.2 201.93,-547.28 212.37,-549.1 211.23,-542.2"/>
</g>
<!-- Galvanic skin response -->
<g id="node12" class="node">
<title>Galvanic skin response</title>
<g id="a_node12"><a xlink:href="https://scholar.google.com/scholar?hl=en&amp;q=An%20Interactive%20Table%20for%20Supporting%20Participation%20Balance%20in%20Face-to-Face%20Collaborative%20Learning" xlink:title="Galvanic skin response">
<ellipse fill="none" stroke="black" cx="465.61" cy="-990" rx="92.88" ry="18"/>
<text text-anchor="middle" x="465.61" y="-986.3" font-family="Times,serif" font-size="14.00">Galvanic skin response</text>
</a>
</g>
</g>
<!-- Task Performance -->
<g id="node23" class="node">
<title>Task Performance</title>
<ellipse fill="none" stroke="black" cx="135.84" cy="-990" rx="75.29" ry="18"/>
<text text-anchor="middle" x="135.84" y="-986.3" font-family="Times,serif" font-size="14.00">Task Performance</text>
</g>
<!-- Galvanic skin response&#45;&gt;Task Performance -->
<g id="edge1" class="edge">
<title>Galvanic skin response&#45;&gt;Task Performance</title>
<path fill="none" stroke="black" d="M372.44,-990C324.98,-990 267.54,-990 221.25,-990"/>
<polygon fill="black" stroke="black" points="221.25,-986.5 211.25,-990 221.25,-993.5 221.25,-986.5"/>
</g>
<!-- CC &#45; HR -->
<g id="node13" class="node">
<title>CC &#45; HR</title>
<g id="a_node13"><a xlink:href="https://scholar.google.com/scholar?hl=en&amp;q=An%20Interactive%20Table%20for%20Supporting%20Participation%20Balance%20in%20Face-to-Face%20Collaborative%20Learning" xlink:title="CC &#45; HR">
<ellipse fill="none" stroke="black" cx="465.61" cy="-450" rx="42.49" ry="18"/>
<text text-anchor="middle" x="465.61" y="-446.3" font-family="Times,serif" font-size="14.00">CC &#45; HR</text>
</a>
</g>
</g>
<!-- CC &#45; HR&#45;&gt;Performance in task -->
<g id="edge10" class="edge">
<title>CC &#45; HR&#45;&gt;Performance in task</title>
<path fill="none" stroke="black" d="M424.23,-453.89C392.1,-457.7 346.29,-464.78 307.68,-477 260.19,-492.03 208.98,-517.7 175.14,-536.12"/>
<polygon fill="black" stroke="black" points="173.15,-533.22 166.07,-541.1 176.52,-539.35 173.15,-533.22"/>
</g>
<!-- IDM &#45; EDA -->
<g id="node14" class="node">
<title>IDM &#45; EDA</title>
<g id="a_node14"><a xlink:href="https://scholar.google.com/scholar?hl=en&amp;q=An%20Interactive%20Table%20for%20Supporting%20Participation%20Balance%20in%20Face-to-Face%20Collaborative%20Learning" xlink:title="IDM &#45; EDA">
<ellipse fill="none" stroke="black" cx="465.61" cy="-396" rx="53.89" ry="18"/>
<text text-anchor="middle" x="465.61" y="-392.3" font-family="Times,serif" font-size="14.00">IDM &#45; EDA</text>
</a>
</g>
</g>
<!-- IDM &#45; EDA&#45;&gt;Performance in task -->
<g id="edge3" class="edge">
<title>IDM &#45; EDA&#45;&gt;Performance in task</title>
<path fill="none" stroke="black" d="M411.84,-398.54C380.46,-401.63 340.5,-408.36 307.68,-423 248.16,-449.55 191.33,-501.56 160.56,-532.7"/>
<polygon fill="black" stroke="black" points="157.78,-530.54 153.31,-540.14 162.8,-535.42 157.78,-530.54"/>
</g>
<!-- CC &#45; EDA -->
<g id="node15" class="node">
<title>CC &#45; EDA</title>
<g id="a_node15"><a xlink:href="https://scholar.google.com/scholar?hl=en&amp;q=An%20Interactive%20Table%20for%20Supporting%20Participation%20Balance%20in%20Face-to-Face%20Collaborative%20Learning" xlink:title="CC &#45; EDA">
<ellipse fill="none" stroke="black" cx="465.61" cy="-342" rx="48.19" ry="18"/>
<text text-anchor="middle" x="465.61" y="-338.3" font-family="Times,serif" font-size="14.00">CC &#45; EDA</text>
</a>
</g>
</g>
<!-- CC &#45; EDA&#45;&gt;Performance in task -->
<g id="edge5" class="edge">
<title>CC &#45; EDA&#45;&gt;Performance in task</title>
<path fill="none" stroke="black" d="M417.33,-342.15C384.72,-344.1 341.34,-350.47 307.68,-369 236.02,-408.44 178.74,-489.52 152.46,-531.51"/>
<polygon fill="black" stroke="black" points="149.44,-529.73 147.18,-540.09 155.4,-533.4 149.44,-529.73"/>
</g>
<!-- Instantaneous Derivative Matching (IDM -->
<g id="node16" class="node">
<title>Instantaneous Derivative Matching (IDM</title>
<g id="a_node16"><a xlink:href="https://scholar.google.com/scholar?hl=en&amp;q=An%20Interactive%20Table%20for%20Supporting%20Participation%20Balance%20in%20Face-to-Face%20Collaborative%20Learning" xlink:title="Instantaneous Derivative Matching (IDM">
<ellipse fill="none" stroke="black" cx="465.61" cy="-72" rx="157.87" ry="18"/>
<text text-anchor="middle" x="465.61" y="-68.3" font-family="Times,serif" font-size="14.00">Instantaneous Derivative Matching (IDM</text>
</a>
</g>
</g>
<!-- Instantaneous Derivative Matching (IDM&#45;&gt;collaborative learning product -->
<g id="edge17" class="edge">
<title>Instantaneous Derivative Matching (IDM&#45;&gt;collaborative learning product</title>
<path fill="none" stroke="black" d="M375.05,-86.76C328.78,-94.38 272.49,-103.65 226.24,-111.27"/>
<polygon fill="black" stroke="black" points="225.53,-107.84 216.24,-112.92 226.67,-114.75 225.53,-107.84"/>
</g>
<!-- Directional Agreement (DA -->
<g id="node17" class="node">
<title>Directional Agreement (DA</title>
<g id="a_node17"><a xlink:href="https://scholar.google.com/scholar?hl=en&amp;q=An%20Interactive%20Table%20for%20Supporting%20Participation%20Balance%20in%20Face-to-Face%20Collaborative%20Learning" xlink:title="Directional Agreement (DA">
<ellipse fill="none" stroke="black" cx="465.61" cy="-18" rx="109.68" ry="18"/>
<text text-anchor="middle" x="465.61" y="-14.3" font-family="Times,serif" font-size="14.00">Directional Agreement (DA</text>
</a>
</g>
</g>
<!-- Directional Agreement (DA&#45;&gt;collaborative learning product -->
<g id="edge14" class="edge">
<title>Directional Agreement (DA&#45;&gt;collaborative learning product</title>
<path fill="none" stroke="black" d="M377.26,-28.7C354.32,-32.68 329.82,-37.99 307.68,-45 260.62,-59.89 209.91,-85.24 176.06,-103.61"/>
<polygon fill="black" stroke="black" points="174.06,-100.72 166.98,-108.6 177.43,-106.86 174.06,-100.72"/>
</g>
<!-- SM &#45; EDA -->
<g id="node18" class="node">
<title>SM &#45; EDA</title>
<g id="a_node18"><a xlink:href="https://scholar.google.com/scholar?hl=en&amp;q=An%20Interactive%20Table%20for%20Supporting%20Participation%20Balance%20in%20Face-to-Face%20Collaborative%20Learning" xlink:title="SM &#45; EDA">
<ellipse fill="none" stroke="black" cx="465.61" cy="-288" rx="50.09" ry="18"/>
<text text-anchor="middle" x="465.61" y="-284.3" font-family="Times,serif" font-size="14.00">SM &#45; EDA</text>
</a>
</g>
</g>
<!-- SM &#45; EDA&#45;&gt;Performance in task -->
<g id="edge2" class="edge">
<title>SM &#45; EDA&#45;&gt;Performance in task</title>
<path fill="none" stroke="black" d="M415.51,-286.93C382.69,-288.39 339.8,-294.67 307.68,-315 223.72,-368.13 169.37,-478.92 147.62,-530.49"/>
<polygon fill="black" stroke="black" points="144.28,-529.4 143.7,-539.98 150.75,-532.07 144.28,-529.4"/>
</g>
</g>
</svg>
