<?xml version="1.0" encoding="UTF-8" standalone="no"?>
<!DOCTYPE svg PUBLIC "-//W3C//DTD SVG 1.1//EN"
 "http://www.w3.org/Graphics/SVG/1.1/DTD/svg11.dtd">
<!-- Generated by graphviz version 2.47.0 (20210316.0004)
 -->
<!-- Title: Test Pages: 1 -->
<svg width="680pt" height="584pt"
 viewBox="0.00 0.00 679.64 584.00" xmlns="http://www.w3.org/2000/svg" xmlns:xlink="http://www.w3.org/1999/xlink">
<g id="graph0" class="graph" transform="scale(1 1) rotate(0) translate(4 580)">
<title>Test</title>
<polygon fill="white" stroke="transparent" points="-4,4 -4,-580 675.64,-580 675.64,4 -4,4"/>
<!-- cycles of physiological synchrony (PC -->
<g id="node1" class="node">
<title>cycles of physiological synchrony (PC</title>
<g id="a_node1"><a xlink:href="https://scholar.google.com/scholar?hl=en&amp;q=An%20Interactive%20Table%20for%20Supporting%20Participation%20Balance%20in%20Face-to-Face%20Collaborative%20Learning" xlink:title="cycles of physiological synchrony (PC">
<ellipse fill="none" stroke="black" cx="513.71" cy="-396" rx="147.57" ry="18"/>
<text text-anchor="middle" x="513.71" y="-392.3" font-family="Times,serif" font-size="14.00">cycles of physiological synchrony (PC</text>
</a>
</g>
</g>
<!-- collaboration quality -->
<g id="node11" class="node">
<title>collaboration quality</title>
<ellipse fill="none" stroke="black" cx="159.89" cy="-180" rx="83.69" ry="18"/>
<text text-anchor="middle" x="159.89" y="-176.3" font-family="Times,serif" font-size="14.00">collaboration quality</text>
</g>
<!-- cycles of physiological synchrony (PC&#45;&gt;collaboration quality -->
<g id="edge2" class="edge">
<title>cycles of physiological synchrony (PC&#45;&gt;collaboration quality</title>
<path fill="none" stroke="black" d="M398.63,-384.73C383.76,-380.88 369.08,-375.76 355.77,-369 277.91,-329.43 210.65,-248.11 179.44,-206.22"/>
<polygon fill="black" stroke="black" points="182.08,-203.9 173.34,-197.91 176.44,-208.04 182.08,-203.9"/>
</g>
<!-- Galvanic skin response -->
<g id="node2" class="node">
<title>Galvanic skin response</title>
<g id="a_node2"><a xlink:href="https://scholar.google.com/scholar?hl=en&amp;q=An%20Interactive%20Table%20for%20Supporting%20Participation%20Balance%20in%20Face-to-Face%20Collaborative%20Learning" xlink:title="Galvanic skin response">
<ellipse fill="none" stroke="black" cx="513.71" cy="-450" rx="92.88" ry="18"/>
<text text-anchor="middle" x="513.71" y="-446.3" font-family="Times,serif" font-size="14.00">Galvanic skin response</text>
</a>
</g>
</g>
<!-- Perceived Collaboration Quality -->
<g id="node13" class="node">
<title>Perceived Collaboration Quality</title>
<ellipse fill="none" stroke="black" cx="159.89" cy="-450" rx="124.58" ry="18"/>
<text text-anchor="middle" x="159.89" y="-446.3" font-family="Times,serif" font-size="14.00">Perceived Collaboration Quality</text>
</g>
<!-- Galvanic skin response&#45;&gt;Perceived Collaboration Quality -->
<g id="edge13" class="edge">
<title>Galvanic skin response&#45;&gt;Perceived Collaboration Quality</title>
<path fill="none" stroke="black" d="M420.73,-450C382.28,-450 336.84,-450 294.8,-450"/>
<polygon fill="black" stroke="black" points="294.76,-446.5 284.76,-450 294.76,-453.5 294.76,-446.5"/>
</g>
<!-- EDA synchrony -->
<g id="node3" class="node">
<title>EDA synchrony</title>
<g id="a_node3"><a xlink:href="https://scholar.google.com/scholar?hl=en&amp;q=An%20Interactive%20Table%20for%20Supporting%20Participation%20Balance%20in%20Face-to-Face%20Collaborative%20Learning" xlink:title="EDA synchrony">
<ellipse fill="none" stroke="black" cx="513.71" cy="-342" rx="67.69" ry="18"/>
<text text-anchor="middle" x="513.71" y="-338.3" font-family="Times,serif" font-size="14.00">EDA synchrony</text>
</a>
</g>
</g>
<!-- EDA synchrony&#45;&gt;collaboration quality -->
<g id="edge11" class="edge">
<title>EDA synchrony&#45;&gt;collaboration quality</title>
<path fill="none" stroke="black" d="M448.34,-337.3C419.26,-333.59 384.94,-326.93 355.77,-315 289.36,-287.85 223.03,-235.08 187.46,-204.17"/>
<polygon fill="black" stroke="black" points="189.76,-201.52 179.94,-197.55 185.14,-206.78 189.76,-201.52"/>
</g>
<!-- Pearson’s correlation (PC -->
<g id="node4" class="node">
<title>Pearson’s correlation (PC</title>
<g id="a_node4"><a xlink:href="https://scholar.google.com/scholar?hl=en&amp;q=An%20Interactive%20Table%20for%20Supporting%20Participation%20Balance%20in%20Face-to-Face%20Collaborative%20Learning" xlink:title="Pearson’s correlation (PC">
<ellipse fill="none" stroke="black" cx="513.71" cy="-288" rx="112.38" ry="18"/>
<text text-anchor="middle" x="513.71" y="-284.3" font-family="Times,serif" font-size="14.00">Pearson’s correlation (PC</text>
</a>
</g>
</g>
<!-- Pearson’s correlation (PC&#45;&gt;collaboration quality -->
<g id="edge5" class="edge">
<title>Pearson’s correlation (PC&#45;&gt;collaboration quality: reaching consensus</title>
<path fill="none" stroke="black" d="M452.75,-272.79C423.2,-267.58 387.24,-261.12 355.77,-252 307.11,-237.89 254.15,-215.39 215.74,-199.1"/>
<polygon fill="black" stroke="black" points="216.88,-195.78 206.3,-195.1 214.15,-202.23 216.88,-195.78"/>
</g>
<!-- Pearson’s correlation (PC&#45;&gt;collaboration quality -->
<g id="edge10" class="edge">
<title>Pearson’s correlation (PC&#45;&gt;collaboration quality: information pooling</title>
<path fill="none" stroke="black" d="M407.29,-282.08C389.93,-278.82 372.23,-274.77 355.77,-270 296.56,-252.84 231.01,-223.25 193.02,-202.42"/>
<polygon fill="black" stroke="black" points="194.4,-199.19 183.97,-197.33 190.97,-205.29 194.4,-199.19"/>
</g>
<!-- heart rate sychrony -->
<g id="node5" class="node">
<title>heart rate sychrony</title>
<g id="a_node5"><a xlink:href="https://scholar.google.com/scholar?hl=en&amp;q=An%20Interactive%20Table%20for%20Supporting%20Participation%20Balance%20in%20Face-to-Face%20Collaborative%20Learning" xlink:title="heart rate sychrony">
<ellipse fill="none" stroke="black" cx="513.71" cy="-234" rx="78.79" ry="18"/>
<text text-anchor="middle" x="513.71" y="-230.3" font-family="Times,serif" font-size="14.00">heart rate sychrony</text>
</a>
</g>
</g>
<!-- heart rate sychrony&#45;&gt;collaboration quality -->
<g id="edge12" class="edge">
<title>heart rate sychrony&#45;&gt;collaboration quality</title>
<path fill="none" stroke="black" d="M447.77,-224.03C388.71,-214.97 301.45,-201.57 238.69,-191.94"/>
<polygon fill="black" stroke="black" points="238.86,-188.43 228.44,-190.37 237.8,-195.35 238.86,-188.43"/>
</g>
<!-- Instantaneous Derivative Matching (IDM -->
<g id="node6" class="node">
<title>Instantaneous Derivative Matching (IDM</title>
<g id="a_node6"><a xlink:href="https://scholar.google.com/scholar?hl=en&amp;q=An%20Interactive%20Table%20for%20Supporting%20Participation%20Balance%20in%20Face-to-Face%20Collaborative%20Learning" xlink:title="Instantaneous Derivative Matching (IDM">
<ellipse fill="none" stroke="black" cx="513.71" cy="-180" rx="157.87" ry="18"/>
<text text-anchor="middle" x="513.71" y="-176.3" font-family="Times,serif" font-size="14.00">Instantaneous Derivative Matching (IDM</text>
</a>
</g>
</g>
<!-- Instantaneous Derivative Matching (IDM&#45;&gt;collaboration quality -->
<g id="edge4" class="edge">
<title>Instantaneous Derivative Matching (IDM&#45;&gt;collaboration quality: reaching consensus</title>
<path fill="none" stroke="black" d="M366.81,-173.34C327.1,-173.1 285.27,-173.34 249.77,-174.05"/>
<polygon fill="black" stroke="black" points="249.37,-170.55 239.45,-174.27 249.52,-177.55 249.37,-170.55"/>
</g>
<!-- Instantaneous Derivative Matching (IDM&#45;&gt;collaboration quality -->
<g id="edge8" class="edge">
<title>Instantaneous Derivative Matching (IDM&#45;&gt;collaboration quality: information pooling</title>
<path fill="none" stroke="black" d="M366.81,-186.66C327.1,-186.9 285.27,-186.66 249.77,-185.95"/>
<polygon fill="black" stroke="black" points="249.52,-182.45 239.45,-185.73 249.37,-189.45 249.52,-182.45"/>
</g>
<!-- Directional Agreement (DA -->
<g id="node7" class="node">
<title>Directional Agreement (DA</title>
<g id="a_node7"><a xlink:href="https://scholar.google.com/scholar?hl=en&amp;q=An%20Interactive%20Table%20for%20Supporting%20Participation%20Balance%20in%20Face-to-Face%20Collaborative%20Learning" xlink:title="Directional Agreement (DA">
<ellipse fill="none" stroke="black" cx="513.71" cy="-126" rx="109.68" ry="18"/>
<text text-anchor="middle" x="513.71" y="-122.3" font-family="Times,serif" font-size="14.00">Directional Agreement (DA</text>
</a>
</g>
</g>
<!-- Directional Agreement (DA&#45;&gt;collaboration quality -->
<g id="edge6" class="edge">
<title>Directional Agreement (DA&#45;&gt;collaboration quality: reaching consensus</title>
<path fill="none" stroke="black" d="M417.04,-134.6C356.34,-142.83 279.43,-154.87 225.8,-164.66"/>
<polygon fill="black" stroke="black" points="224.92,-161.26 215.73,-166.52 226.2,-168.15 224.92,-161.26"/>
</g>
<!-- Directional Agreement (DA&#45;&gt;collaboration quality -->
<g id="edge9" class="edge">
<title>Directional Agreement (DA&#45;&gt;collaboration quality: information pooling</title>
<path fill="none" stroke="black" d="M450.62,-140.82C394.65,-151.11 311.75,-164.05 248.95,-172.42"/>
<polygon fill="black" stroke="black" points="248.11,-169 238.65,-173.78 249.02,-175.94 248.11,-169"/>
</g>
<!-- physiological synchrony (DA -->
<g id="node8" class="node">
<title>physiological synchrony (DA</title>
<g id="a_node8"><a xlink:href="https://scholar.google.com/scholar?hl=en&amp;q=An%20Interactive%20Table%20for%20Supporting%20Participation%20Balance%20in%20Face-to-Face%20Collaborative%20Learning" xlink:title="physiological synchrony (DA">
<ellipse fill="none" stroke="black" cx="513.71" cy="-72" rx="115.08" ry="18"/>
<text text-anchor="middle" x="513.71" y="-68.3" font-family="Times,serif" font-size="14.00">physiological synchrony (DA</text>
</a>
</g>
</g>
<!-- physiological synchrony (DA&#45;&gt;collaboration quality -->
<g id="edge1" class="edge">
<title>physiological synchrony (DA&#45;&gt;collaboration quality</title>
<path fill="none" stroke="black" d="M425.17,-83.5C402.35,-87.47 377.94,-92.57 355.77,-99 301.76,-114.66 242.45,-140.66 203.62,-158.97"/>
<polygon fill="black" stroke="black" points="201.73,-155.99 194.21,-163.45 204.74,-162.31 201.73,-155.99"/>
</g>
<!-- Signal Matching (SM -->
<g id="node9" class="node">
<title>Signal Matching (SM</title>
<g id="a_node9"><a xlink:href="https://scholar.google.com/scholar?hl=en&amp;q=An%20Interactive%20Table%20for%20Supporting%20Participation%20Balance%20in%20Face-to-Face%20Collaborative%20Learning" xlink:title="Signal Matching (SM">
<ellipse fill="none" stroke="black" cx="513.71" cy="-18" rx="88.28" ry="18"/>
<text text-anchor="middle" x="513.71" y="-14.3" font-family="Times,serif" font-size="14.00">Signal Matching (SM</text>
</a>
</g>
</g>
<!-- Signal Matching (SM&#45;&gt;collaboration quality -->
<g id="edge3" class="edge">
<title>Signal Matching (SM&#45;&gt;collaboration quality: reaching consensus</title>
<path fill="none" stroke="black" d="M425.3,-17.47C402.13,-21.14 377.52,-27.11 355.77,-36 285.64,-64.67 215.6,-121.91 181.78,-155.16"/>
<polygon fill="black" stroke="black" points="179.29,-152.69 174.75,-162.26 184.27,-157.62 179.29,-152.69"/>
</g>
<!-- Signal Matching (SM&#45;&gt;collaboration quality -->
<g id="edge7" class="edge">
<title>Signal Matching (SM&#45;&gt;collaboration quality: information pooling</title>
<path fill="none" stroke="black" d="M450.25,-30.61C420.76,-35.13 385.58,-41.81 355.77,-54 293.43,-79.49 231.17,-127.54 194.35,-156.56"/>
<polygon fill="black" stroke="black" points="192.12,-153.85 186.44,-162.8 196.46,-159.35 192.12,-153.85"/>
</g>
<!-- collaboration quality: reaching consensus -->
<g id="node10" class="node">
<title>collaboration quality: reaching consensus</title>
<ellipse fill="none" stroke="black" cx="159.89" cy="-504" rx="157.07" ry="18"/>
<text text-anchor="middle" x="159.89" y="-500.3" font-family="Times,serif" font-size="14.00">collaboration quality: reaching consensus</text>
</g>
<!-- collaboration quality: information pooling -->
<g id="node12" class="node">
<title>collaboration quality: information pooling</title>
<ellipse fill="none" stroke="black" cx="159.89" cy="-558" rx="159.77" ry="18"/>
<text text-anchor="middle" x="159.89" y="-554.3" font-family="Times,serif" font-size="14.00">collaboration quality: information pooling</text>
</g>
</g>
</svg>
