<?xml version="1.0" encoding="UTF-8" standalone="no"?>
<!DOCTYPE svg PUBLIC "-//W3C//DTD SVG 1.1//EN"
 "http://www.w3.org/Graphics/SVG/1.1/DTD/svg11.dtd">
<!-- Generated by graphviz version 2.47.0 (20210316.0004)
 -->
<!-- Title: Test Pages: 1 -->
<svg width="568pt" height="476pt"
 viewBox="0.00 0.00 567.85 476.00" xmlns="http://www.w3.org/2000/svg" xmlns:xlink="http://www.w3.org/1999/xlink">
<g id="graph0" class="graph" transform="scale(1 1) rotate(0) translate(4 472)">
<title>Test</title>
<polygon fill="white" stroke="transparent" points="-4,4 -4,-472 563.85,-472 563.85,4 -4,4"/>
<!-- Instantaneous Derivative Matching (IDM -->
<g id="node1" class="node">
<title>Instantaneous Derivative Matching (IDM</title>
<g id="a_node1"><a xlink:href="https://scholar.google.com/scholar?hl=en&amp;q=Using%20Physiological%20Synchrony%20as%20an%20Indicator%20of%20Collaboration%20Quality,%20Task%20Performance%20and%20Learning" xlink:title="Instantaneous Derivative Matching (IDM" target="_blank">
<ellipse fill="none" stroke="black" cx="401.92" cy="-234" rx="157.87" ry="18"/>
<text text-anchor="middle" x="401.92" y="-230.3" font-family="Times,serif" font-size="14.00">Instantaneous Derivative Matching (IDM</text>
</a>
</g>
</g>
<!-- learning gains -->
<g id="node12" class="node">
<title>learning gains</title>
<ellipse fill="none" stroke="black" cx="103.99" cy="-207" rx="60.39" ry="18"/>
<text text-anchor="middle" x="103.99" y="-203.3" font-family="Times,serif" font-size="14.00">learning gains</text>
</g>
<!-- Instantaneous Derivative Matching (IDM&#45;&gt;learning gains -->
<g id="edge10" class="edge">
<title>Instantaneous Derivative Matching (IDM&#45;&gt;learning gains</title>
<path fill="none" stroke="black" d="M277.99,-222.78C241.89,-219.49 203.75,-216.01 172.49,-213.16"/>
<polygon fill="black" stroke="black" points="172.44,-209.64 162.17,-212.22 171.81,-216.61 172.44,-209.64"/>
</g>
<!-- dual learning gains -->
<g id="node13" class="node">
<title>dual learning gains</title>
<ellipse fill="none" stroke="black" cx="103.99" cy="-126" rx="77.99" ry="18"/>
<text text-anchor="middle" x="103.99" y="-122.3" font-family="Times,serif" font-size="14.00">dual learning gains</text>
</g>
<!-- Instantaneous Derivative Matching (IDM&#45;&gt;dual learning gains -->
<g id="edge5" class="edge">
<title>Instantaneous Derivative Matching (IDM&#45;&gt;dual learning gains</title>
<path fill="none" stroke="black" d="M288.84,-221.43C273.43,-217.78 258.07,-213.07 243.98,-207 225.61,-199.08 224.89,-190.68 207.98,-180 189,-168.01 167.07,-156.25 148.34,-146.78"/>
<polygon fill="black" stroke="black" points="149.66,-143.52 139.15,-142.18 146.53,-149.79 149.66,-143.52"/>
</g>
<!-- Directional Agreement (DA -->
<g id="node2" class="node">
<title>Directional Agreement (DA</title>
<g id="a_node2"><a xlink:href="https://scholar.google.com/scholar?hl=en&amp;q=Using%20Physiological%20Synchrony%20as%20an%20Indicator%20of%20Collaboration%20Quality,%20Task%20Performance%20and%20Learning" xlink:title="Directional Agreement (DA" target="_blank">
<ellipse fill="none" stroke="black" cx="401.92" cy="-180" rx="109.68" ry="18"/>
<text text-anchor="middle" x="401.92" y="-176.3" font-family="Times,serif" font-size="14.00">Directional Agreement (DA</text>
</a>
</g>
</g>
<!-- Directional Agreement (DA&#45;&gt;learning gains -->
<g id="edge11" class="edge">
<title>Directional Agreement (DA&#45;&gt;learning gains</title>
<path fill="none" stroke="black" d="M305.66,-188.69C262.13,-192.66 211.62,-197.27 172.16,-200.87"/>
<polygon fill="black" stroke="black" points="171.75,-197.39 162.11,-201.79 172.39,-204.36 171.75,-197.39"/>
</g>
<!-- Directional Agreement (DA&#45;&gt;dual learning gains -->
<g id="edge8" class="edge">
<title>Directional Agreement (DA&#45;&gt;dual learning gains</title>
<path fill="none" stroke="black" d="M324.23,-167.15C298.68,-162.77 270.09,-157.78 243.98,-153 221.13,-148.81 196.2,-144.04 173.85,-139.68"/>
<polygon fill="black" stroke="black" points="174.26,-136.19 163.78,-137.71 172.92,-143.06 174.26,-136.19"/>
</g>
<!-- cycles of physiological synchrony (PC -->
<g id="node3" class="node">
<title>cycles of physiological synchrony (PC</title>
<g id="a_node3"><a xlink:href="https://scholar.google.com/scholar?hl=en&amp;q=Unpacking%20the%20relationship%20between%20existing%20and%20new%20measures%20of%20physiological%20synchrony%20and%20collaborative%20learning:%20a%20mixed%20methods%20study" xlink:title="cycles of physiological synchrony (PC" target="_blank">
<ellipse fill="none" stroke="black" cx="401.92" cy="-396" rx="147.57" ry="18"/>
<text text-anchor="middle" x="401.92" y="-392.3" font-family="Times,serif" font-size="14.00">cycles of physiological synchrony (PC</text>
</a>
</g>
</g>
<!-- Learning gains -->
<g id="node10" class="node">
<title>Learning gains</title>
<ellipse fill="none" stroke="black" cx="103.99" cy="-369" rx="63.89" ry="18"/>
<text text-anchor="middle" x="103.99" y="-365.3" font-family="Times,serif" font-size="14.00">Learning gains</text>
</g>
<!-- cycles of physiological synchrony (PC&#45;&gt;Learning gains -->
<g id="edge3" class="edge">
<title>cycles of physiological synchrony (PC&#45;&gt;Learning gains</title>
<path fill="none" stroke="black" d="M283.11,-385.25C246.46,-381.91 207.23,-378.33 174.94,-375.38"/>
<polygon fill="black" stroke="black" points="174.99,-371.87 164.71,-374.45 174.36,-378.84 174.99,-371.87"/>
</g>
<!-- Fisher’s z&#45;transform (FZT -->
<g id="node4" class="node">
<title>Fisher’s z&#45;transform (FZT</title>
<g id="a_node4"><a xlink:href="https://scholar.google.com/scholar?hl=en&amp;q=Investigating%20collaborative%20learning%20success%20with%20physiological%20coupling%20indices%20based%20on%20electrodermal%20activity" xlink:title="Fisher’s z&#45;transform (FZT" target="_blank">
<ellipse fill="none" stroke="black" cx="401.92" cy="-72" rx="114.28" ry="18"/>
<text text-anchor="middle" x="401.92" y="-68.3" font-family="Times,serif" font-size="14.00">Fisher’s z&#45;transform (FZT</text>
</a>
</g>
</g>
<!-- Fisher’s z&#45;transform (FZT&#45;&gt;dual learning gains -->
<g id="edge7" class="edge">
<title>Fisher’s z&#45;transform (FZT&#45;&gt;dual learning gains</title>
<path fill="none" stroke="black" d="M323.03,-85.06C297.79,-89.38 269.68,-94.29 243.98,-99 221.13,-103.19 196.2,-107.96 173.85,-112.32"/>
<polygon fill="black" stroke="black" points="172.92,-108.94 163.78,-114.29 174.26,-115.81 172.92,-108.94"/>
</g>
<!-- Pearson’s correlation (PC -->
<g id="node5" class="node">
<title>Pearson’s correlation (PC</title>
<g id="a_node5"><a xlink:href="https://scholar.google.com/scholar?hl=en&amp;q=Using%20Physiological%20Synchrony%20as%20an%20Indicator%20of%20Collaboration%20Quality,%20Task%20Performance%20and%20Learning" xlink:title="Pearson’s correlation (PC" target="_blank">
<ellipse fill="none" stroke="black" cx="401.92" cy="-288" rx="112.38" ry="18"/>
<text text-anchor="middle" x="401.92" y="-284.3" font-family="Times,serif" font-size="14.00">Pearson’s correlation (PC</text>
</a>
</g>
</g>
<!-- Pearson’s correlation (PC&#45;&gt;learning gains -->
<g id="edge12" class="edge">
<title>Pearson’s correlation (PC&#45;&gt;learning gains</title>
<path fill="none" stroke="black" d="M315.12,-276.43C291.83,-272.42 266.76,-267.32 243.98,-261 210.73,-251.78 174.43,-237.52 147.26,-225.97"/>
<polygon fill="black" stroke="black" points="148.63,-222.75 138.06,-222.01 145.86,-229.18 148.63,-222.75"/>
</g>
<!-- Signal Matching (SM -->
<g id="node6" class="node">
<title>Signal Matching (SM</title>
<g id="a_node6"><a xlink:href="https://scholar.google.com/scholar?hl=en&amp;q=Using%20Physiological%20Synchrony%20as%20an%20Indicator%20of%20Collaboration%20Quality,%20Task%20Performance%20and%20Learning" xlink:title="Signal Matching (SM" target="_blank">
<ellipse fill="none" stroke="black" cx="401.92" cy="-126" rx="88.28" ry="18"/>
<text text-anchor="middle" x="401.92" y="-122.3" font-family="Times,serif" font-size="14.00">Signal Matching (SM</text>
</a>
</g>
</g>
<!-- Signal Matching (SM&#45;&gt;learning gains -->
<g id="edge9" class="edge">
<title>Signal Matching (SM&#45;&gt;learning gains</title>
<path fill="none" stroke="black" d="M326.79,-135.63C300.4,-139.88 270.62,-145.61 243.98,-153 210.73,-162.22 174.43,-176.48 147.26,-188.03"/>
<polygon fill="black" stroke="black" points="145.86,-184.82 138.06,-191.99 148.63,-191.25 145.86,-184.82"/>
</g>
<!-- Signal Matching (SM&#45;&gt;dual learning gains -->
<g id="edge4" class="edge">
<title>Signal Matching (SM&#45;&gt;dual learning gains</title>
<path fill="none" stroke="black" d="M313.33,-126C275.16,-126 230.51,-126 192.36,-126"/>
<polygon fill="black" stroke="black" points="192.3,-122.5 182.3,-126 192.3,-129.5 192.3,-122.5"/>
</g>
<!-- physiological synchrony (PC -->
<g id="node7" class="node">
<title>physiological synchrony (PC</title>
<g id="a_node7"><a xlink:href="https://scholar.google.com/scholar?hl=en&amp;q=Unpacking%20the%20relationship%20between%20existing%20and%20new%20measures%20of%20physiological%20synchrony%20and%20collaborative%20learning:%20a%20mixed%20methods%20study" xlink:title="physiological synchrony (PC" target="_blank">
<ellipse fill="none" stroke="black" cx="401.92" cy="-342" rx="113.18" ry="18"/>
<text text-anchor="middle" x="401.92" y="-338.3" font-family="Times,serif" font-size="14.00">physiological synchrony (PC</text>
</a>
</g>
</g>
<!-- physiological synchrony (PC&#45;&gt;Learning gains -->
<g id="edge2" class="edge">
<title>physiological synchrony (PC&#45;&gt;Learning gains</title>
<path fill="none" stroke="black" d="M303.2,-350.92C261.32,-354.74 213.34,-359.11 175.08,-362.6"/>
<polygon fill="black" stroke="black" points="174.71,-359.12 165.07,-363.52 175.35,-366.1 174.71,-359.12"/>
</g>
<!-- Physiological linkage -->
<g id="node8" class="node">
<title>Physiological linkage</title>
<g id="a_node8"><a xlink:href="https://scholar.google.com/scholar?hl=en&amp;q=Physiological%20Linkage%20of%20Dyadic%20Gaming%20Experience" xlink:title="Physiological linkage" target="_blank">
<ellipse fill="none" stroke="black" cx="401.92" cy="-450" rx="87.18" ry="18"/>
<text text-anchor="middle" x="401.92" y="-446.3" font-family="Times,serif" font-size="14.00">Physiological linkage</text>
</a>
</g>
</g>
<!-- Perceived Comprehension -->
<g id="node11" class="node">
<title>Perceived Comprehension</title>
<ellipse fill="none" stroke="black" cx="103.99" cy="-450" rx="103.98" ry="18"/>
<text text-anchor="middle" x="103.99" y="-446.3" font-family="Times,serif" font-size="14.00">Perceived Comprehension</text>
</g>
<!-- Physiological linkage&#45;&gt;Perceived Comprehension -->
<g id="edge1" class="edge">
<title>Physiological linkage&#45;&gt;Perceived Comprehension</title>
<path fill="none" stroke="black" d="M314.53,-450C284.51,-450 250.38,-450 218.5,-450"/>
<polygon fill="black" stroke="black" points="218.24,-446.5 208.24,-450 218.24,-453.5 218.24,-446.5"/>
</g>
<!-- Pearson’s correlation coefficient (PCC -->
<g id="node9" class="node">
<title>Pearson’s correlation coefficient (PCC</title>
<g id="a_node9"><a xlink:href="https://scholar.google.com/scholar?hl=en&amp;q=Investigating%20collaborative%20learning%20success%20with%20physiological%20coupling%20indices%20based%20on%20electrodermal%20activity" xlink:title="Pearson’s correlation coefficient (PCC" target="_blank">
<ellipse fill="none" stroke="black" cx="401.92" cy="-18" rx="157.07" ry="18"/>
<text text-anchor="middle" x="401.92" y="-14.3" font-family="Times,serif" font-size="14.00">Pearson’s correlation coefficient (PCC</text>
</a>
</g>
</g>
<!-- Pearson’s correlation coefficient (PCC&#45;&gt;dual learning gains -->
<g id="edge6" class="edge">
<title>Pearson’s correlation coefficient (PCC&#45;&gt;dual learning gains</title>
<path fill="none" stroke="black" d="M293.63,-31.18C276.75,-34.76 259.7,-39.28 243.98,-45 204.67,-59.31 163.78,-84.6 136.61,-103.13"/>
<polygon fill="black" stroke="black" points="134.53,-100.32 128.29,-108.88 138.51,-106.07 134.53,-100.32"/>
</g>
</g>
</svg>
