<?xml version="1.0" encoding="UTF-8" standalone="no"?>
<!DOCTYPE svg PUBLIC "-//W3C//DTD SVG 1.1//EN"
 "http://www.w3.org/Graphics/SVG/1.1/DTD/svg11.dtd">
<!-- Generated by graphviz version 2.47.0 (20210316.0004)
 -->
<!-- Title: Test Pages: 1 -->
<svg width="720pt" height="711pt"
 viewBox="0.00 0.00 720.00 711.38" xmlns="http://www.w3.org/2000/svg" xmlns:xlink="http://www.w3.org/1999/xlink">
<g id="graph0" class="graph" transform="scale(0.95 0.95) rotate(0) translate(4 742)">
<title>Test</title>
<polygon fill="white" stroke="transparent" points="-4,4 -4,-742 751.04,-742 751.04,4 -4,4"/>
<!-- EDA synchrony -->
<g id="node1" class="node">
<title>EDA synchrony</title>
<g id="a_node1"><a xlink:href="https://scholar.google.com/scholar?hl=en&amp;q=Predicting%20Collaborative%20Learning%20Quality%20through%20Physiological%20Synchrony%20Recorded%20by%20Wearable%20Biosensors" xlink:title="EDA synchrony">
<ellipse fill="none" stroke="black" cx="620.3" cy="-72" rx="67.69" ry="18"/>
<text text-anchor="middle" x="620.3" y="-68.3" font-family="Times,serif" font-size="14.00">EDA synchrony</text>
</a>
</g>
</g>
<!-- collaboration quality -->
<g id="node20" class="node">
<title>collaboration quality</title>
<ellipse fill="none" stroke="black" cx="228.78" cy="-45" rx="83.69" ry="18"/>
<text text-anchor="middle" x="228.78" y="-41.3" font-family="Times,serif" font-size="14.00">collaboration quality</text>
</g>
<!-- EDA synchrony&#45;&gt;collaboration quality -->
<g id="edge14" class="edge">
<title>EDA synchrony&#45;&gt;collaboration quality</title>
<path fill="none" stroke="black" d="M554.54,-67.51C490.21,-63.05 391.05,-56.18 319.22,-51.2"/>
<polygon fill="black" stroke="black" points="319.05,-47.68 308.83,-50.48 318.57,-54.66 319.05,-47.68"/>
</g>
<!-- DA &#45; EDA -->
<g id="node2" class="node">
<title>DA &#45; EDA</title>
<g id="a_node2"><a xlink:href="https://scholar.google.com/scholar?hl=en&amp;q=Shared%20Experiences%20of%20Technology%20and%20Trust:%20An%20Experimental%20Study%20of%20Physiological%20Compliance%20Between%20Active%20and%20Passive%20Users%20in%20Technology-Mediated%20Collaborative%20Encounters" xlink:title="DA &#45; EDA">
<ellipse fill="none" stroke="black" cx="620.3" cy="-450" rx="48.99" ry="18"/>
<text text-anchor="middle" x="620.3" y="-446.3" font-family="Times,serif" font-size="14.00">DA &#45; EDA</text>
</a>
</g>
</g>
<!-- Self&#45;rated workload -->
<g id="node17" class="node">
<title>Self&#45;rated workload</title>
<ellipse fill="none" stroke="black" cx="228.78" cy="-288" rx="81.49" ry="18"/>
<text text-anchor="middle" x="228.78" y="-284.3" font-family="Times,serif" font-size="14.00">Self&#45;rated workload</text>
</g>
<!-- DA &#45; EDA&#45;&gt;Self&#45;rated workload -->
<g id="edge6" class="edge">
<title>DA &#45; EDA&#45;&gt;Self&#45;rated workload</title>
<path fill="none" stroke="black" d="M574.87,-443.38C550.44,-439.02 519.85,-432.37 493.56,-423 408.25,-392.6 315.53,-340.17 265.94,-310.39"/>
<polygon fill="black" stroke="black" points="267.56,-307.28 257.19,-305.1 263.94,-313.27 267.56,-307.28"/>
</g>
<!-- Physiological linkage -->
<g id="node3" class="node">
<title>Physiological linkage</title>
<g id="a_node3"><a xlink:href="https://scholar.google.com/scholar?hl=en&amp;q=Physiological%20Linkage%20of%20Dyadic%20Gaming%20Experience" xlink:title="Physiological linkage">
<ellipse fill="none" stroke="black" cx="620.3" cy="-504" rx="87.18" ry="18"/>
<text text-anchor="middle" x="620.3" y="-500.3" font-family="Times,serif" font-size="14.00">Physiological linkage</text>
</a>
</g>
</g>
<!-- Behavioral Involvement -->
<g id="node15" class="node">
<title>Behavioral Involvement</title>
<ellipse fill="none" stroke="black" cx="228.78" cy="-504" rx="96.68" ry="18"/>
<text text-anchor="middle" x="228.78" y="-500.3" font-family="Times,serif" font-size="14.00">Behavioral Involvement</text>
</g>
<!-- Physiological linkage&#45;&gt;Behavioral Involvement -->
<g id="edge1" class="edge">
<title>Physiological linkage&#45;&gt;Behavioral Involvement</title>
<path fill="none" stroke="black" d="M532.85,-504C474.78,-504 397.88,-504 336.07,-504"/>
<polygon fill="black" stroke="black" points="335.9,-500.5 325.9,-504 335.9,-507.5 335.9,-500.5"/>
</g>
<!-- SM &#45; EDA -->
<g id="node4" class="node">
<title>SM &#45; EDA</title>
<g id="a_node4"><a xlink:href="https://scholar.google.com/scholar?hl=en&amp;q=Shared%20Experiences%20of%20Technology%20and%20Trust:%20An%20Experimental%20Study%20of%20Physiological%20Compliance%20Between%20Active%20and%20Passive%20Users%20in%20Technology-Mediated%20Collaborative%20Encounters" xlink:title="SM &#45; EDA">
<ellipse fill="none" stroke="black" cx="620.3" cy="-396" rx="50.09" ry="18"/>
<text text-anchor="middle" x="620.3" y="-392.3" font-family="Times,serif" font-size="14.00">SM &#45; EDA</text>
</a>
</g>
</g>
<!-- SM &#45; EDA&#45;&gt;Self&#45;rated workload -->
<g id="edge4" class="edge">
<title>SM &#45; EDA&#45;&gt;Self&#45;rated workload</title>
<path fill="none" stroke="black" d="M575.73,-387.61C551.42,-382.69 520.68,-376.06 493.56,-369 420.24,-349.91 336.83,-323.49 283.79,-306.09"/>
<polygon fill="black" stroke="black" points="284.84,-302.75 274.25,-302.94 282.65,-309.4 284.84,-302.75"/>
</g>
<!-- IDM &#45; EDA -->
<g id="node5" class="node">
<title>IDM &#45; EDA</title>
<g id="a_node5"><a xlink:href="https://scholar.google.com/scholar?hl=en&amp;q=Shared%20Experiences%20of%20Technology%20and%20Trust:%20An%20Experimental%20Study%20of%20Physiological%20Compliance%20Between%20Active%20and%20Passive%20Users%20in%20Technology-Mediated%20Collaborative%20Encounters" xlink:title="IDM &#45; EDA">
<ellipse fill="none" stroke="black" cx="620.3" cy="-342" rx="53.89" ry="18"/>
<text text-anchor="middle" x="620.3" y="-338.3" font-family="Times,serif" font-size="14.00">IDM &#45; EDA</text>
</a>
</g>
</g>
<!-- IDM &#45; EDA&#45;&gt;Self&#45;rated workload -->
<g id="edge5" class="edge">
<title>IDM &#45; EDA&#45;&gt;Self&#45;rated workload</title>
<path fill="none" stroke="black" d="M569.97,-335.16C504.04,-326.02 386.46,-309.72 308.29,-298.88"/>
<polygon fill="black" stroke="black" points="308.39,-295.36 298.01,-297.46 307.43,-302.3 308.39,-295.36"/>
</g>
<!-- physiological concordance index -->
<g id="node6" class="node">
<title>physiological concordance index</title>
<g id="a_node6"><a xlink:href="https://scholar.google.com/scholar?hl=en&amp;q=Are%20we%20together%20or%20not?%20The%20temporal%20interplay%20of%20monitoring,%20physiological%20arousal%20and%20physiological%20synchrony%20during%20a%20collaborative%20exam" xlink:title="physiological concordance index">
<ellipse fill="none" stroke="black" cx="620.3" cy="-612" rx="126.98" ry="18"/>
<text text-anchor="middle" x="620.3" y="-608.3" font-family="Times,serif" font-size="14.00">physiological concordance index</text>
</a>
</g>
</g>
<!-- Monitoring of behavior, cognition, motivations and emotions -->
<g id="node18" class="node">
<title>Monitoring of behavior, cognition, motivations and emotions</title>
<ellipse fill="none" stroke="black" cx="228.78" cy="-558" rx="228.56" ry="18"/>
<text text-anchor="middle" x="228.78" y="-554.3" font-family="Times,serif" font-size="14.00">Monitoring of behavior, cognition, motivations and emotions</text>
</g>
<!-- physiological concordance index&#45;&gt;Monitoring of behavior, cognition, motivations and emotions -->
<g id="edge3" class="edge">
<title>physiological concordance index&#45;&gt;Monitoring of behavior, cognition, motivations and emotions</title>
<path fill="none" stroke="black" d="M540.03,-598C513.82,-593.57 484.47,-588.84 457.56,-585 430.05,-581.08 400.62,-577.29 372.35,-573.85"/>
<polygon fill="black" stroke="black" points="372.76,-570.37 362.41,-572.65 371.92,-577.32 372.76,-570.37"/>
</g>
<!-- physiological synchrony -->
<g id="node7" class="node">
<title>physiological synchrony</title>
<g id="a_node7"><a xlink:href="https://scholar.google.com/scholar?hl=en&amp;q=What%20does%20physiological%20synchrony%20reveal%20about%20metacognitive%20experiences%20and%20group%20performance?" xlink:title="physiological synchrony">
<ellipse fill="none" stroke="black" cx="620.3" cy="-666" rx="96.68" ry="18"/>
<text text-anchor="middle" x="620.3" y="-662.3" font-family="Times,serif" font-size="14.00">physiological synchrony</text>
</a>
</g>
</g>
<!-- Mental effort -->
<g id="node16" class="node">
<title>Mental effort</title>
<ellipse fill="none" stroke="black" cx="228.78" cy="-666" rx="57.69" ry="18"/>
<text text-anchor="middle" x="228.78" y="-662.3" font-family="Times,serif" font-size="14.00">Mental effort</text>
</g>
<!-- physiological synchrony&#45;&gt;Mental effort -->
<g id="edge11" class="edge">
<title>physiological synchrony&#45;&gt;Mental effort</title>
<path fill="none" stroke="black" d="M523.01,-666C452.69,-666 359.14,-666 296.8,-666"/>
<polygon fill="black" stroke="black" points="296.69,-662.5 286.69,-666 296.69,-669.5 296.69,-662.5"/>
</g>
<!-- Task interest -->
<g id="node19" class="node">
<title>Task interest</title>
<ellipse fill="none" stroke="black" cx="228.78" cy="-612" rx="55.79" ry="18"/>
<text text-anchor="middle" x="228.78" y="-608.3" font-family="Times,serif" font-size="14.00">Task interest</text>
</g>
<!-- physiological synchrony&#45;&gt;Task interest -->
<g id="edge12" class="edge">
<title>physiological synchrony&#45;&gt;Task interest</title>
<path fill="none" stroke="black" d="M549.75,-653.65C521.23,-648.78 487.86,-643.32 457.56,-639 401.85,-631.05 338.24,-623.65 292.42,-618.62"/>
<polygon fill="black" stroke="black" points="292.67,-615.12 282.34,-617.52 291.91,-622.08 292.67,-615.12"/>
</g>
<!-- heart rate sychrony -->
<g id="node8" class="node">
<title>heart rate sychrony</title>
<g id="a_node8"><a xlink:href="https://scholar.google.com/scholar?hl=en&amp;q=Predicting%20Collaborative%20Learning%20Quality%20through%20Physiological%20Synchrony%20Recorded%20by%20Wearable%20Biosensors" xlink:title="heart rate sychrony">
<ellipse fill="none" stroke="black" cx="620.3" cy="-18" rx="78.79" ry="18"/>
<text text-anchor="middle" x="620.3" y="-14.3" font-family="Times,serif" font-size="14.00">heart rate sychrony</text>
</a>
</g>
</g>
<!-- heart rate sychrony&#45;&gt;collaboration quality -->
<g id="edge15" class="edge">
<title>heart rate sychrony&#45;&gt;collaboration quality</title>
<path fill="none" stroke="black" d="M544.66,-23.17C480.36,-27.63 387.41,-34.07 319.16,-38.8"/>
<polygon fill="black" stroke="black" points="318.59,-35.34 308.85,-39.52 319.07,-42.32 318.59,-35.34"/>
</g>
<!-- SM &#45; HR -->
<g id="node9" class="node">
<title>SM &#45; HR</title>
<g id="a_node9"><a xlink:href="https://scholar.google.com/scholar?hl=en&amp;q=Shared%20Experiences%20of%20Technology%20and%20Trust:%20An%20Experimental%20Study%20of%20Physiological%20Compliance%20Between%20Active%20and%20Passive%20Users%20in%20Technology-Mediated%20Collaborative%20Encounters" xlink:title="SM &#45; HR">
<ellipse fill="none" stroke="black" cx="620.3" cy="-288" rx="44.39" ry="18"/>
<text text-anchor="middle" x="620.3" y="-284.3" font-family="Times,serif" font-size="14.00">SM &#45; HR</text>
</a>
</g>
</g>
<!-- SM &#45; HR&#45;&gt;Self&#45;rated workload -->
<g id="edge9" class="edge">
<title>SM &#45; HR&#45;&gt;Self&#45;rated workload</title>
<path fill="none" stroke="black" d="M575.75,-288C514.26,-288 400.54,-288 320.3,-288"/>
<polygon fill="black" stroke="black" points="320.19,-284.5 310.19,-288 320.19,-291.5 320.19,-284.5"/>
</g>
<!-- EDA peak detection -->
<g id="node10" class="node">
<title>EDA peak detection</title>
<g id="a_node10"><a xlink:href="https://scholar.google.com/scholar?hl=en&amp;q=Are%20we%20together%20or%20not?%20The%20temporal%20interplay%20of%20monitoring,%20physiological%20arousal%20and%20physiological%20synchrony%20during%20a%20collaborative%20exam" xlink:title="EDA peak detection">
<ellipse fill="none" stroke="black" cx="620.3" cy="-558" rx="81.79" ry="18"/>
<text text-anchor="middle" x="620.3" y="-554.3" font-family="Times,serif" font-size="14.00">EDA peak detection</text>
</a>
</g>
</g>
<!-- EDA peak detection&#45;&gt;Monitoring of behavior, cognition, motivations and emotions -->
<g id="edge2" class="edge">
<title>EDA peak detection&#45;&gt;Monitoring of behavior, cognition, motivations and emotions</title>
<path fill="none" stroke="black" d="M538.12,-558C516.86,-558 492.83,-558 467.79,-558"/>
<polygon fill="black" stroke="black" points="467.77,-554.5 457.77,-558 467.77,-561.5 467.77,-554.5"/>
</g>
<!-- CC &#45; EDA -->
<g id="node11" class="node">
<title>CC &#45; EDA</title>
<g id="a_node11"><a xlink:href="https://scholar.google.com/scholar?hl=en&amp;q=Shared%20Experiences%20of%20Technology%20and%20Trust:%20An%20Experimental%20Study%20of%20Physiological%20Compliance%20Between%20Active%20and%20Passive%20Users%20in%20Technology-Mediated%20Collaborative%20Encounters" xlink:title="CC &#45; EDA">
<ellipse fill="none" stroke="black" cx="620.3" cy="-234" rx="48.19" ry="18"/>
<text text-anchor="middle" x="620.3" y="-230.3" font-family="Times,serif" font-size="14.00">CC &#45; EDA</text>
</a>
</g>
</g>
<!-- CC &#45; EDA&#45;&gt;Self&#45;rated workload -->
<g id="edge7" class="edge">
<title>CC &#45; EDA&#45;&gt;Self&#45;rated workload</title>
<path fill="none" stroke="black" d="M574.99,-240.14C510.17,-249.13 388.49,-266 308.29,-277.12"/>
<polygon fill="black" stroke="black" points="307.66,-273.67 298.23,-278.51 308.62,-280.6 307.66,-273.67"/>
</g>
<!-- IDM &#45; HR -->
<g id="node12" class="node">
<title>IDM &#45; HR</title>
<g id="a_node12"><a xlink:href="https://scholar.google.com/scholar?hl=en&amp;q=Shared%20Experiences%20of%20Technology%20and%20Trust:%20An%20Experimental%20Study%20of%20Physiological%20Compliance%20Between%20Active%20and%20Passive%20Users%20in%20Technology-Mediated%20Collaborative%20Encounters" xlink:title="IDM &#45; HR">
<ellipse fill="none" stroke="black" cx="620.3" cy="-180" rx="48.19" ry="18"/>
<text text-anchor="middle" x="620.3" y="-176.3" font-family="Times,serif" font-size="14.00">IDM &#45; HR</text>
</a>
</g>
</g>
<!-- IDM &#45; HR&#45;&gt;Self&#45;rated workload -->
<g id="edge10" class="edge">
<title>IDM &#45; HR&#45;&gt;Self&#45;rated workload</title>
<path fill="none" stroke="black" d="M577.17,-188.1C552.65,-193.05 521.22,-199.8 493.56,-207 420.24,-226.09 336.83,-252.51 283.79,-269.91"/>
<polygon fill="black" stroke="black" points="282.65,-266.6 274.25,-273.06 284.84,-273.25 282.65,-266.6"/>
</g>
<!-- WC &#45; EDA -->
<g id="node13" class="node">
<title>WC &#45; EDA</title>
<g id="a_node13"><a xlink:href="https://scholar.google.com/scholar?hl=en&amp;q=Shared%20Experiences%20of%20Technology%20and%20Trust:%20An%20Experimental%20Study%20of%20Physiological%20Compliance%20Between%20Active%20and%20Passive%20Users%20in%20Technology-Mediated%20Collaborative%20Encounters" xlink:title="WC &#45; EDA">
<ellipse fill="none" stroke="black" cx="620.3" cy="-126" rx="51.19" ry="18"/>
<text text-anchor="middle" x="620.3" y="-122.3" font-family="Times,serif" font-size="14.00">WC &#45; EDA</text>
</a>
</g>
</g>
<!-- WC &#45; EDA&#45;&gt;Self&#45;rated workload -->
<g id="edge8" class="edge">
<title>WC &#45; EDA&#45;&gt;Self&#45;rated workload</title>
<path fill="none" stroke="black" d="M572.81,-132.99C548.73,-137.35 519.11,-143.9 493.56,-153 408.25,-183.4 315.53,-235.83 265.94,-265.61"/>
<polygon fill="black" stroke="black" points="263.94,-262.73 257.19,-270.9 267.56,-268.72 263.94,-262.73"/>
</g>
<!-- brain synchrony -->
<g id="node14" class="node">
<title>brain synchrony</title>
<g id="a_node14"><a xlink:href="https://scholar.google.com/scholar?hl=en&amp;q=Brain-to-Brain%20Synchrony%20Tracks%20Real-World%20Dynamic%20Group%20Interactions%20in%20the%20Classroom" xlink:title="brain synchrony">
<ellipse fill="none" stroke="black" cx="620.3" cy="-720" rx="67.69" ry="18"/>
<text text-anchor="middle" x="620.3" y="-716.3" font-family="Times,serif" font-size="14.00">brain synchrony</text>
</a>
</g>
</g>
<!-- Engagement -->
<g id="node21" class="node">
<title>Engagement</title>
<ellipse fill="none" stroke="black" cx="228.78" cy="-720" rx="55.49" ry="18"/>
<text text-anchor="middle" x="228.78" y="-716.3" font-family="Times,serif" font-size="14.00">Engagement</text>
</g>
<!-- brain synchrony&#45;&gt;Engagement -->
<g id="edge13" class="edge">
<title>brain synchrony&#45;&gt;Engagement</title>
<path fill="none" stroke="black" d="M552.34,-720C480.09,-720 365.82,-720 294.47,-720"/>
<polygon fill="black" stroke="black" points="294.26,-716.5 284.26,-720 294.26,-723.5 294.26,-716.5"/>
</g>
</g>
</svg>
