<?xml version="1.0" encoding="UTF-8" standalone="no"?>
<!DOCTYPE svg PUBLIC "-//W3C//DTD SVG 1.1//EN"
 "http://www.w3.org/Graphics/SVG/1.1/DTD/svg11.dtd">
<!-- Generated by graphviz version 2.47.0 (20210316.0004)
 -->
<!-- Title: Test Pages: 1 -->
<svg width="437pt" height="314pt"
 viewBox="0.00 0.00 436.57 314.00" xmlns="http://www.w3.org/2000/svg" xmlns:xlink="http://www.w3.org/1999/xlink">
<g id="graph0" class="graph" transform="scale(1 1) rotate(0) translate(4 310)">
<title>Test</title>
<polygon fill="white" stroke="transparent" points="-4,4 -4,-310 432.57,-310 432.57,4 -4,4"/>
<!-- Galvanic skin response -->
<g id="node1" class="node">
<title>Galvanic skin response</title>
<g id="a_node1"><a xlink:href="https://scholar.google.com/scholar?hl=en&amp;q=An%20Interactive%20Table%20for%20Supporting%20Participation%20Balance%20in%20Face-to-Face%20Collaborative%20Learning" xlink:title="Galvanic skin response">
<ellipse fill="none" stroke="black" cx="331.72" cy="-45" rx="92.88" ry="18"/>
<text text-anchor="middle" x="331.72" y="-41.3" font-family="Times,serif" font-size="14.00">Galvanic skin response</text>
</a>
</g>
</g>
<!-- Perceived Valence -->
<g id="node4" class="node">
<title>Perceived Valence</title>
<ellipse fill="none" stroke="black" cx="99.44" cy="-72" rx="75.29" ry="18"/>
<text text-anchor="middle" x="99.44" y="-68.3" font-family="Times,serif" font-size="14.00">Perceived Valence</text>
</g>
<!-- Galvanic skin response&#45;&gt;Perceived Valence -->
<g id="edge3" class="edge">
<title>Galvanic skin response&#45;&gt;Perceived Valence</title>
<path fill="none" stroke="black" d="M251.8,-54.25C227.76,-57.07 201.38,-60.17 177.46,-62.97"/>
<polygon fill="black" stroke="black" points="176.91,-59.51 167.38,-64.15 177.72,-66.46 176.91,-59.51"/>
</g>
<!-- Perceived Arousal -->
<g id="node9" class="node">
<title>Perceived Arousal</title>
<ellipse fill="none" stroke="black" cx="99.44" cy="-18" rx="75.29" ry="18"/>
<text text-anchor="middle" x="99.44" y="-14.3" font-family="Times,serif" font-size="14.00">Perceived Arousal</text>
</g>
<!-- Galvanic skin response&#45;&gt;Perceived Arousal -->
<g id="edge4" class="edge">
<title>Galvanic skin response&#45;&gt;Perceived Arousal</title>
<path fill="none" stroke="black" d="M251.8,-35.75C227.76,-32.93 201.38,-29.83 177.46,-27.03"/>
<polygon fill="black" stroke="black" points="177.72,-23.54 167.38,-25.85 176.91,-30.49 177.72,-23.54"/>
</g>
<!-- physiological synchrony -->
<g id="node2" class="node">
<title>physiological synchrony</title>
<g id="a_node2"><a xlink:href="https://scholar.google.com/scholar?hl=en&amp;q=An%20Interactive%20Table%20for%20Supporting%20Participation%20Balance%20in%20Face-to-Face%20Collaborative%20Learning" xlink:title="physiological synchrony">
<ellipse fill="none" stroke="black" cx="331.72" cy="-153" rx="96.68" ry="18"/>
<text text-anchor="middle" x="331.72" y="-149.3" font-family="Times,serif" font-size="14.00">physiological synchrony</text>
</a>
</g>
</g>
<!-- Emotional valence -->
<g id="node6" class="node">
<title>Emotional valence</title>
<ellipse fill="none" stroke="black" cx="99.44" cy="-180" rx="77.19" ry="18"/>
<text text-anchor="middle" x="99.44" y="-176.3" font-family="Times,serif" font-size="14.00">Emotional valence</text>
</g>
<!-- physiological synchrony&#45;&gt;Emotional valence -->
<g id="edge6" class="edge">
<title>physiological synchrony&#45;&gt;Emotional valence</title>
<path fill="none" stroke="black" d="M249.21,-162.56C226.43,-165.23 201.73,-168.12 179.12,-170.77"/>
<polygon fill="black" stroke="black" points="178.42,-167.33 168.9,-171.97 179.24,-174.29 178.42,-167.33"/>
</g>
<!-- Judgement of confidence -->
<g id="node8" class="node">
<title>Judgement of confidence</title>
<ellipse fill="none" stroke="black" cx="99.44" cy="-126" rx="99.38" ry="18"/>
<text text-anchor="middle" x="99.44" y="-122.3" font-family="Times,serif" font-size="14.00">Judgement of confidence</text>
</g>
<!-- physiological synchrony&#45;&gt;Judgement of confidence -->
<g id="edge5" class="edge">
<title>physiological synchrony&#45;&gt;Judgement of confidence</title>
<path fill="none" stroke="black" d="M249.21,-143.44C231.2,-141.33 211.98,-139.08 193.55,-136.92"/>
<polygon fill="black" stroke="black" points="193.74,-133.42 183.4,-135.73 192.92,-140.37 193.74,-133.42"/>
</g>
<!-- Physiological linkage -->
<g id="node3" class="node">
<title>Physiological linkage</title>
<g id="a_node3"><a xlink:href="https://scholar.google.com/scholar?hl=en&amp;q=An%20Interactive%20Table%20for%20Supporting%20Participation%20Balance%20in%20Face-to-Face%20Collaborative%20Learning" xlink:title="Physiological linkage">
<ellipse fill="none" stroke="black" cx="331.72" cy="-261" rx="87.18" ry="18"/>
<text text-anchor="middle" x="331.72" y="-257.3" font-family="Times,serif" font-size="14.00">Physiological linkage</text>
</a>
</g>
</g>
<!-- Empathy -->
<g id="node5" class="node">
<title>Empathy</title>
<ellipse fill="none" stroke="black" cx="99.44" cy="-288" rx="42.79" ry="18"/>
<text text-anchor="middle" x="99.44" y="-284.3" font-family="Times,serif" font-size="14.00">Empathy</text>
</g>
<!-- Physiological linkage&#45;&gt;Empathy -->
<g id="edge1" class="edge">
<title>Physiological linkage&#45;&gt;Empathy</title>
<path fill="none" stroke="black" d="M255.64,-269.8C221.32,-273.83 181.59,-278.49 150.91,-282.08"/>
<polygon fill="black" stroke="black" points="150.4,-278.62 140.88,-283.26 151.22,-285.57 150.4,-278.62"/>
</g>
<!-- Negative Feelings -->
<g id="node7" class="node">
<title>Negative Feelings</title>
<ellipse fill="none" stroke="black" cx="99.44" cy="-234" rx="74.99" ry="18"/>
<text text-anchor="middle" x="99.44" y="-230.3" font-family="Times,serif" font-size="14.00">Negative Feelings</text>
</g>
<!-- Physiological linkage&#45;&gt;Negative Feelings -->
<g id="edge2" class="edge">
<title>Physiological linkage&#45;&gt;Negative Feelings</title>
<path fill="none" stroke="black" d="M255.64,-252.2C230.38,-249.23 202.18,-245.93 176.82,-242.96"/>
<polygon fill="black" stroke="black" points="177.23,-239.48 166.89,-241.79 176.41,-246.43 177.23,-239.48"/>
</g>
</g>
</svg>
