<?xml version="1.0" encoding="UTF-8" standalone="no"?>
<!DOCTYPE svg PUBLIC "-//W3C//DTD SVG 1.1//EN"
 "http://www.w3.org/Graphics/SVG/1.1/DTD/svg11.dtd">
<!-- Generated by graphviz version 2.47.0 (20210316.0004)
 -->
<!-- Title: Test Pages: 1 -->
<svg width="456pt" height="422pt"
 viewBox="0.00 0.00 456.06 422.00" xmlns="http://www.w3.org/2000/svg" xmlns:xlink="http://www.w3.org/1999/xlink">
<g id="graph0" class="graph" transform="scale(1 1) rotate(0) translate(4 418)">
<title>Test</title>
<polygon fill="white" stroke="transparent" points="-4,4 -4,-418 452.06,-418 452.06,4 -4,4"/>
<!-- DA &#45; EDA -->
<g id="node1" class="node">
<title>DA &#45; EDA</title>
<g id="a_node1"><a xlink:href="https://scholar.google.com/scholar?hl=en&amp;q=An%20Interactive%20Table%20for%20Supporting%20Participation%20Balance%20in%20Face-to-Face%20Collaborative%20Learning" xlink:title="DA &#45; EDA">
<ellipse fill="none" stroke="black" cx="350.57" cy="-342" rx="48.99" ry="18"/>
<text text-anchor="middle" x="350.57" y="-338.3" font-family="Times,serif" font-size="14.00">DA &#45; EDA</text>
</a>
</g>
</g>
<!-- Technology trustworthiness -->
<g id="node10" class="node">
<title>Technology trustworthiness</title>
<ellipse fill="none" stroke="black" cx="108.54" cy="-180" rx="108.58" ry="18"/>
<text text-anchor="middle" x="108.54" y="-176.3" font-family="Times,serif" font-size="14.00">Technology trustworthiness</text>
</g>
<!-- DA &#45; EDA&#45;&gt;Technology trustworthiness -->
<g id="edge4" class="edge">
<title>DA &#45; EDA&#45;&gt;Technology trustworthiness</title>
<path fill="none" stroke="black" d="M306.03,-334.5C288.81,-330.37 269.29,-324.15 253.08,-315 202.7,-286.57 156.25,-236.79 130.51,-206.28"/>
<polygon fill="black" stroke="black" points="132.9,-203.67 123.82,-198.21 127.52,-208.14 132.9,-203.67"/>
</g>
<!-- SM &#45; HR -->
<g id="node2" class="node">
<title>SM &#45; HR</title>
<g id="a_node2"><a xlink:href="https://scholar.google.com/scholar?hl=en&amp;q=An%20Interactive%20Table%20for%20Supporting%20Participation%20Balance%20in%20Face-to-Face%20Collaborative%20Learning" xlink:title="SM &#45; HR">
<ellipse fill="none" stroke="black" cx="350.57" cy="-288" rx="44.39" ry="18"/>
<text text-anchor="middle" x="350.57" y="-284.3" font-family="Times,serif" font-size="14.00">SM &#45; HR</text>
</a>
</g>
</g>
<!-- SM &#45; HR&#45;&gt;Technology trustworthiness -->
<g id="edge7" class="edge">
<title>SM &#45; HR&#45;&gt;Technology trustworthiness</title>
<path fill="none" stroke="black" d="M311.28,-279.55C293.28,-275 271.72,-268.73 253.08,-261 214.45,-244.97 173.13,-220.84 144.79,-203.08"/>
<polygon fill="black" stroke="black" points="146.39,-199.95 136.07,-197.56 142.65,-205.86 146.39,-199.95"/>
</g>
<!-- IDM &#45; HR -->
<g id="node3" class="node">
<title>IDM &#45; HR</title>
<g id="a_node3"><a xlink:href="https://scholar.google.com/scholar?hl=en&amp;q=An%20Interactive%20Table%20for%20Supporting%20Participation%20Balance%20in%20Face-to-Face%20Collaborative%20Learning" xlink:title="IDM &#45; HR">
<ellipse fill="none" stroke="black" cx="350.57" cy="-234" rx="48.19" ry="18"/>
<text text-anchor="middle" x="350.57" y="-230.3" font-family="Times,serif" font-size="14.00">IDM &#45; HR</text>
</a>
</g>
</g>
<!-- IDM &#45; HR&#45;&gt;Technology trustworthiness -->
<g id="edge8" class="edge">
<title>IDM &#45; HR&#45;&gt;Technology trustworthiness</title>
<path fill="none" stroke="black" d="M308.85,-224.84C274.75,-217.17 225.18,-206.02 184.01,-196.75"/>
<polygon fill="black" stroke="black" points="184.54,-193.28 174.01,-194.5 183,-200.11 184.54,-193.28"/>
</g>
<!-- Physiological synchrony -->
<g id="node4" class="node">
<title>Physiological synchrony</title>
<g id="a_node4"><a xlink:href="https://scholar.google.com/scholar?hl=en&amp;q=An%20Interactive%20Table%20for%20Supporting%20Participation%20Balance%20in%20Face-to-Face%20Collaborative%20Learning" xlink:title="Physiological synchrony">
<ellipse fill="none" stroke="black" cx="350.57" cy="-396" rx="97.48" ry="18"/>
<text text-anchor="middle" x="350.57" y="-392.3" font-family="Times,serif" font-size="14.00">Physiological synchrony</text>
</a>
</g>
</g>
<!-- Coh&#45;metrix indices -->
<g id="node9" class="node">
<title>Coh&#45;metrix indices</title>
<ellipse fill="none" stroke="black" cx="108.54" cy="-396" rx="79.09" ry="18"/>
<text text-anchor="middle" x="108.54" y="-392.3" font-family="Times,serif" font-size="14.00">Coh&#45;metrix indices</text>
</g>
<!-- Physiological synchrony&#45;&gt;Coh&#45;metrix indices -->
<g id="edge1" class="edge">
<title>Physiological synchrony&#45;&gt;Coh&#45;metrix indices</title>
<path fill="none" stroke="black" d="M252.98,-396C234.82,-396 215.91,-396 198.01,-396"/>
<polygon fill="black" stroke="black" points="197.9,-392.5 187.9,-396 197.9,-399.5 197.9,-392.5"/>
</g>
<!-- WC &#45; EDA -->
<g id="node5" class="node">
<title>WC &#45; EDA</title>
<g id="a_node5"><a xlink:href="https://scholar.google.com/scholar?hl=en&amp;q=An%20Interactive%20Table%20for%20Supporting%20Participation%20Balance%20in%20Face-to-Face%20Collaborative%20Learning" xlink:title="WC &#45; EDA">
<ellipse fill="none" stroke="black" cx="350.57" cy="-180" rx="51.19" ry="18"/>
<text text-anchor="middle" x="350.57" y="-176.3" font-family="Times,serif" font-size="14.00">WC &#45; EDA</text>
</a>
</g>
</g>
<!-- WC &#45; EDA&#45;&gt;Technology trustworthiness -->
<g id="edge6" class="edge">
<title>WC &#45; EDA&#45;&gt;Technology trustworthiness</title>
<path fill="none" stroke="black" d="M298.96,-180C277.95,-180 252.63,-180 227.42,-180"/>
<polygon fill="black" stroke="black" points="227.4,-176.5 217.4,-180 227.4,-183.5 227.4,-176.5"/>
</g>
<!-- IDM &#45; EDA -->
<g id="node6" class="node">
<title>IDM &#45; EDA</title>
<g id="a_node6"><a xlink:href="https://scholar.google.com/scholar?hl=en&amp;q=An%20Interactive%20Table%20for%20Supporting%20Participation%20Balance%20in%20Face-to-Face%20Collaborative%20Learning" xlink:title="IDM &#45; EDA">
<ellipse fill="none" stroke="black" cx="350.57" cy="-126" rx="53.89" ry="18"/>
<text text-anchor="middle" x="350.57" y="-122.3" font-family="Times,serif" font-size="14.00">IDM &#45; EDA</text>
</a>
</g>
</g>
<!-- IDM &#45; EDA&#45;&gt;Technology trustworthiness -->
<g id="edge3" class="edge">
<title>IDM &#45; EDA&#45;&gt;Technology trustworthiness</title>
<path fill="none" stroke="black" d="M305.27,-135.97C271.3,-143.61 223.66,-154.33 183.88,-163.28"/>
<polygon fill="black" stroke="black" points="182.94,-159.9 173.95,-165.51 184.48,-166.73 182.94,-159.9"/>
</g>
<!-- CC &#45; EDA -->
<g id="node7" class="node">
<title>CC &#45; EDA</title>
<g id="a_node7"><a xlink:href="https://scholar.google.com/scholar?hl=en&amp;q=An%20Interactive%20Table%20for%20Supporting%20Participation%20Balance%20in%20Face-to-Face%20Collaborative%20Learning" xlink:title="CC &#45; EDA">
<ellipse fill="none" stroke="black" cx="350.57" cy="-72" rx="48.19" ry="18"/>
<text text-anchor="middle" x="350.57" y="-68.3" font-family="Times,serif" font-size="14.00">CC &#45; EDA</text>
</a>
</g>
</g>
<!-- CC &#45; EDA&#45;&gt;Technology trustworthiness -->
<g id="edge5" class="edge">
<title>CC &#45; EDA&#45;&gt;Technology trustworthiness</title>
<path fill="none" stroke="black" d="M308.94,-81.05C291.42,-85.54 270.92,-91.6 253.08,-99 214.45,-115.03 173.13,-139.16 144.79,-156.92"/>
<polygon fill="black" stroke="black" points="142.65,-154.14 136.07,-162.44 146.39,-160.05 142.65,-154.14"/>
</g>
<!-- SM &#45; EDA -->
<g id="node8" class="node">
<title>SM &#45; EDA</title>
<g id="a_node8"><a xlink:href="https://scholar.google.com/scholar?hl=en&amp;q=An%20Interactive%20Table%20for%20Supporting%20Participation%20Balance%20in%20Face-to-Face%20Collaborative%20Learning" xlink:title="SM &#45; EDA">
<ellipse fill="none" stroke="black" cx="350.57" cy="-18" rx="50.09" ry="18"/>
<text text-anchor="middle" x="350.57" y="-14.3" font-family="Times,serif" font-size="14.00">SM &#45; EDA</text>
</a>
</g>
</g>
<!-- SM &#45; EDA&#45;&gt;Technology trustworthiness -->
<g id="edge2" class="edge">
<title>SM &#45; EDA&#45;&gt;Technology trustworthiness</title>
<path fill="none" stroke="black" d="M305.07,-25.73C288.08,-29.87 268.99,-36.02 253.08,-45 202.7,-73.43 156.25,-123.21 130.51,-153.72"/>
<polygon fill="black" stroke="black" points="127.52,-151.86 123.82,-161.79 132.9,-156.33 127.52,-151.86"/>
</g>
</g>
</svg>
