<?xml version="1.0" encoding="UTF-8" standalone="no"?>
<!DOCTYPE svg PUBLIC "-//W3C//DTD SVG 1.1//EN"
 "http://www.w3.org/Graphics/SVG/1.1/DTD/svg11.dtd">
<!-- Generated by graphviz version 2.47.0 (20210316.0004)
 -->
<!-- Title: Test Pages: 1 -->
<svg width="682pt" height="638pt"
 viewBox="0.00 0.00 682.24 638.00" xmlns="http://www.w3.org/2000/svg" xmlns:xlink="http://www.w3.org/1999/xlink">
<g id="graph0" class="graph" transform="scale(1 1) rotate(0) translate(4 634)">
<title>Test</title>
<polygon fill="white" stroke="transparent" points="-4,4 -4,-634 678.24,-634 678.24,4 -4,4"/>
<!-- Galvanic skin response -->
<g id="node1" class="node">
<title>Galvanic skin response</title>
<g id="a_node1"><a xlink:href="https://scholar.google.com/scholar?hl=en&amp;q=Modeling%20Team-level%20Multimodal%20Dynamics%20during%20Multiparty%20Collaboration" xlink:title="Galvanic skin response">
<ellipse fill="none" stroke="black" cx="516.31" cy="-18" rx="92.88" ry="18"/>
<text text-anchor="middle" x="516.31" y="-14.3" font-family="Times,serif" font-size="14.00">Galvanic skin response</text>
</a>
</g>
</g>
<!-- Perceived Collaboration Quality -->
<g id="node16" class="node">
<title>Perceived Collaboration Quality</title>
<ellipse fill="none" stroke="black" cx="161.19" cy="-18" rx="124.58" ry="18"/>
<text text-anchor="middle" x="161.19" y="-14.3" font-family="Times,serif" font-size="14.00">Perceived Collaboration Quality</text>
</g>
<!-- Galvanic skin response&#45;&gt;Perceived Collaboration Quality -->
<g id="edge1" class="edge">
<title>Galvanic skin response&#45;&gt;Perceived Collaboration Quality</title>
<path fill="none" stroke="black" d="M422.99,-18C384.3,-18 338.57,-18 296.28,-18"/>
<polygon fill="black" stroke="black" points="296.19,-14.5 286.19,-18 296.19,-21.5 296.19,-14.5"/>
</g>
<!-- Directional Agreement (DA -->
<g id="node2" class="node">
<title>Directional Agreement (DA</title>
<g id="a_node2"><a xlink:href="https://scholar.google.com/scholar?hl=en&amp;q=Using%20Physiological%20Synchrony%20as%20an%20Indicator%20of%20Collaboration%20Quality,%20Task%20Performance%20and%20Learning" xlink:title="Directional Agreement (DA">
<ellipse fill="none" stroke="black" cx="516.31" cy="-234" rx="109.68" ry="18"/>
<text text-anchor="middle" x="516.31" y="-230.3" font-family="Times,serif" font-size="14.00">Directional Agreement (DA</text>
</a>
</g>
</g>
<!-- collaborative will -->
<g id="node14" class="node">
<title>collaborative will</title>
<ellipse fill="none" stroke="black" cx="161.19" cy="-234" rx="72.59" ry="18"/>
<text text-anchor="middle" x="161.19" y="-230.3" font-family="Times,serif" font-size="14.00">collaborative will</text>
</g>
<!-- Directional Agreement (DA&#45;&gt;collaborative will -->
<g id="edge3" class="edge">
<title>Directional Agreement (DA&#45;&gt;collaborative will</title>
<path fill="none" stroke="black" d="M406,-234C353.8,-234 292.39,-234 244.26,-234"/>
<polygon fill="black" stroke="black" points="244.2,-230.5 234.2,-234 244.2,-237.5 244.2,-230.5"/>
</g>
<!-- colaboration quality -->
<g id="node18" class="node">
<title>colaboration quality</title>
<ellipse fill="none" stroke="black" cx="161.19" cy="-153" rx="81.49" ry="18"/>
<text text-anchor="middle" x="161.19" y="-149.3" font-family="Times,serif" font-size="14.00">colaboration quality</text>
</g>
<!-- Directional Agreement (DA&#45;&gt;colaboration quality -->
<g id="edge10" class="edge">
<title>Directional Agreement (DA&#45;&gt;colaboration quality: reciprocal interaction</title>
<path fill="none" stroke="black" d="M435.17,-221.77C410.45,-217.58 383.2,-212.54 358.37,-207 311.37,-196.51 258.8,-181.88 219.91,-170.5"/>
<polygon fill="black" stroke="black" points="220.41,-167 209.83,-167.53 218.43,-173.71 220.41,-167"/>
</g>
<!-- Instantaneous Derivative Matching (IDM -->
<g id="node3" class="node">
<title>Instantaneous Derivative Matching (IDM</title>
<g id="a_node3"><a xlink:href="https://scholar.google.com/scholar?hl=en&amp;q=Using%20Physiological%20Synchrony%20as%20an%20Indicator%20of%20Collaboration%20Quality,%20Task%20Performance%20and%20Learning" xlink:title="Instantaneous Derivative Matching (IDM">
<ellipse fill="none" stroke="black" cx="516.31" cy="-180" rx="157.87" ry="18"/>
<text text-anchor="middle" x="516.31" y="-176.3" font-family="Times,serif" font-size="14.00">Instantaneous Derivative Matching (IDM</text>
</a>
</g>
</g>
<!-- Instantaneous Derivative Matching (IDM&#45;&gt;collaborative will -->
<g id="edge6" class="edge">
<title>Instantaneous Derivative Matching (IDM&#45;&gt;collaborative will</title>
<path fill="none" stroke="black" d="M421.14,-194.4C362.31,-203.4 287.75,-214.8 233.76,-223.06"/>
<polygon fill="black" stroke="black" points="232.94,-219.64 223.58,-224.61 234,-226.56 232.94,-219.64"/>
</g>
<!-- Instantaneous Derivative Matching (IDM&#45;&gt;colaboration quality -->
<g id="edge8" class="edge">
<title>Instantaneous Derivative Matching (IDM&#45;&gt;colaboration quality: reciprocal interaction</title>
<path fill="none" stroke="black" d="M384.82,-170.02C339.36,-166.55 289.52,-162.74 248.54,-159.6"/>
<polygon fill="black" stroke="black" points="248.56,-156.09 238.32,-158.82 248.02,-163.07 248.56,-156.09"/>
</g>
<!-- Signal Matching (SM -->
<g id="node4" class="node">
<title>Signal Matching (SM</title>
<g id="a_node4"><a xlink:href="https://scholar.google.com/scholar?hl=en&amp;q=Using%20Physiological%20Synchrony%20as%20an%20Indicator%20of%20Collaboration%20Quality,%20Task%20Performance%20and%20Learning" xlink:title="Signal Matching (SM">
<ellipse fill="none" stroke="black" cx="516.31" cy="-126" rx="88.28" ry="18"/>
<text text-anchor="middle" x="516.31" y="-122.3" font-family="Times,serif" font-size="14.00">Signal Matching (SM</text>
</a>
</g>
</g>
<!-- Signal Matching (SM&#45;&gt;collaborative will -->
<g id="edge2" class="edge">
<title>Signal Matching (SM&#45;&gt;collaborative will</title>
<path fill="none" stroke="black" d="M433.77,-132.59C408.86,-136.55 381.86,-142.88 358.37,-153 340,-160.92 340.07,-170.69 322.37,-180 291.08,-196.46 253.77,-209.39 223.03,-218.46"/>
<polygon fill="black" stroke="black" points="221.94,-215.13 213.3,-221.27 223.88,-221.86 221.94,-215.13"/>
</g>
<!-- Signal Matching (SM&#45;&gt;colaboration quality -->
<g id="edge7" class="edge">
<title>Signal Matching (SM&#45;&gt;colaboration quality: reciprocal interaction</title>
<path fill="none" stroke="black" d="M433.41,-132.26C377.98,-136.5 304.87,-142.09 248.53,-146.4"/>
<polygon fill="black" stroke="black" points="247.91,-142.93 238.21,-147.19 248.45,-149.91 247.91,-142.93"/>
</g>
<!-- Fisher’s z&#45;transform (FZT -->
<g id="node5" class="node">
<title>Fisher’s z&#45;transform (FZT</title>
<g id="a_node5"><a xlink:href="https://scholar.google.com/scholar?hl=en&amp;q=Investigating%20collaborative%20learning%20success%20with%20physiological%20coupling%20indices%20based%20on%20electrodermal%20activity" xlink:title="Fisher’s z&#45;transform (FZT">
<ellipse fill="none" stroke="black" cx="516.31" cy="-342" rx="114.28" ry="18"/>
<text text-anchor="middle" x="516.31" y="-338.3" font-family="Times,serif" font-size="14.00">Fisher’s z&#45;transform (FZT</text>
</a>
</g>
</g>
<!-- Fisher’s z&#45;transform (FZT&#45;&gt;collaborative will -->
<g id="edge5" class="edge">
<title>Fisher’s z&#45;transform (FZT&#45;&gt;collaborative will</title>
<path fill="none" stroke="black" d="M427.78,-330.46C404.96,-326.5 380.55,-321.4 358.37,-315 303.54,-299.18 243.25,-272.85 204.17,-254.52"/>
<polygon fill="black" stroke="black" points="205.25,-251.16 194.71,-250.05 202.25,-257.49 205.25,-251.16"/>
</g>
<!-- Pearson’s correlation (PC -->
<g id="node6" class="node">
<title>Pearson’s correlation (PC</title>
<g id="a_node6"><a xlink:href="https://scholar.google.com/scholar?hl=en&amp;q=Using%20Physiological%20Synchrony%20as%20an%20Indicator%20of%20Collaboration%20Quality,%20Task%20Performance%20and%20Learning" xlink:title="Pearson’s correlation (PC">
<ellipse fill="none" stroke="black" cx="516.31" cy="-72" rx="112.38" ry="18"/>
<text text-anchor="middle" x="516.31" y="-68.3" font-family="Times,serif" font-size="14.00">Pearson’s correlation (PC</text>
</a>
</g>
</g>
<!-- Pearson’s correlation (PC&#45;&gt;colaboration quality -->
<g id="edge9" class="edge">
<title>Pearson’s correlation (PC&#45;&gt;colaboration quality: reciprocal interaction</title>
<path fill="none" stroke="black" d="M434.37,-84.36C409.85,-88.53 382.93,-93.52 358.37,-99 311.37,-109.49 258.8,-124.12 219.91,-135.5"/>
<polygon fill="black" stroke="black" points="218.43,-132.29 209.83,-138.47 220.41,-139 218.43,-132.29"/>
</g>
<!-- brain synchrony -->
<g id="node7" class="node">
<title>brain synchrony</title>
<g id="a_node7"><a xlink:href="https://scholar.google.com/scholar?hl=en&amp;q=Brain-to-Brain%20Synchrony%20Tracks%20Real-World%20Dynamic%20Group%20Interactions%20in%20the%20Classroom" xlink:title="brain synchrony">
<ellipse fill="none" stroke="black" cx="516.31" cy="-396" rx="67.69" ry="18"/>
<text text-anchor="middle" x="516.31" y="-392.3" font-family="Times,serif" font-size="14.00">brain synchrony</text>
</a>
</g>
</g>
<!-- Social dynamics -->
<g id="node12" class="node">
<title>Social dynamics</title>
<ellipse fill="none" stroke="black" cx="161.19" cy="-396" rx="69.59" ry="18"/>
<text text-anchor="middle" x="161.19" y="-392.3" font-family="Times,serif" font-size="14.00">Social dynamics</text>
</g>
<!-- brain synchrony&#45;&gt;Social dynamics -->
<g id="edge12" class="edge">
<title>brain synchrony&#45;&gt;Social dynamics</title>
<path fill="none" stroke="black" d="M448.47,-396C389.47,-396 303.39,-396 241.04,-396"/>
<polygon fill="black" stroke="black" points="240.85,-392.5 230.85,-396 240.85,-399.5 240.85,-392.5"/>
</g>
<!-- physiological synchrony (DA -->
<g id="node8" class="node">
<title>physiological synchrony (DA</title>
<g id="a_node8"><a xlink:href="https://scholar.google.com/scholar?hl=en&amp;q=Unpacking%20the%20relationship%20between%20existing%20and%20new%20measures%20of%20physiological%20synchrony%20and%20collaborative%20learning:%20a%20mixed%20methods%20study" xlink:title="physiological synchrony (DA">
<ellipse fill="none" stroke="black" cx="516.31" cy="-504" rx="115.08" ry="18"/>
<text text-anchor="middle" x="516.31" y="-500.3" font-family="Times,serif" font-size="14.00">physiological synchrony (DA</text>
</a>
</g>
</g>
<!-- collaboration quality -->
<g id="node15" class="node">
<title>collaboration quality</title>
<ellipse fill="none" stroke="black" cx="161.19" cy="-477" rx="83.69" ry="18"/>
<text text-anchor="middle" x="161.19" y="-473.3" font-family="Times,serif" font-size="14.00">collaboration quality</text>
</g>
<!-- physiological synchrony (DA&#45;&gt;collaboration quality -->
<g id="edge13" class="edge">
<title>physiological synchrony (DA&#45;&gt;collaboration quality</title>
<path fill="none" stroke="black" d="M412.7,-496.15C361.26,-492.22 299.6,-487.51 250.33,-483.74"/>
<polygon fill="black" stroke="black" points="250.56,-480.25 240.33,-482.97 250.03,-487.23 250.56,-480.25"/>
</g>
<!-- Pearson’s correlation coefficient (PCC -->
<g id="node9" class="node">
<title>Pearson’s correlation coefficient (PCC</title>
<g id="a_node9"><a xlink:href="https://scholar.google.com/scholar?hl=en&amp;q=Investigating%20collaborative%20learning%20success%20with%20physiological%20coupling%20indices%20based%20on%20electrodermal%20activity" xlink:title="Pearson’s correlation coefficient (PCC">
<ellipse fill="none" stroke="black" cx="516.31" cy="-288" rx="157.07" ry="18"/>
<text text-anchor="middle" x="516.31" y="-284.3" font-family="Times,serif" font-size="14.00">Pearson’s correlation coefficient (PCC</text>
</a>
</g>
</g>
<!-- Pearson’s correlation coefficient (PCC&#45;&gt;collaborative will -->
<g id="edge4" class="edge">
<title>Pearson’s correlation coefficient (PCC&#45;&gt;collaborative will</title>
<path fill="none" stroke="black" d="M421.14,-273.6C362.31,-264.6 287.75,-253.2 233.76,-244.94"/>
<polygon fill="black" stroke="black" points="234,-241.44 223.58,-243.39 232.94,-248.36 234,-241.44"/>
</g>
<!-- EDA synchrony -->
<g id="node10" class="node">
<title>EDA synchrony</title>
<g id="a_node10"><a xlink:href="https://scholar.google.com/scholar?hl=en&amp;q=Physiological%20evidence%20of%20interpersonal%20dynamics%20in%20a%20cooperative%20production%20task" xlink:title="EDA synchrony">
<ellipse fill="none" stroke="black" cx="516.31" cy="-558" rx="67.69" ry="18"/>
<text text-anchor="middle" x="516.31" y="-554.3" font-family="Times,serif" font-size="14.00">EDA synchrony</text>
</a>
</g>
</g>
<!-- team cohesion -->
<g id="node17" class="node">
<title>team cohesion</title>
<ellipse fill="none" stroke="black" cx="161.19" cy="-558" rx="61.99" ry="18"/>
<text text-anchor="middle" x="161.19" y="-554.3" font-family="Times,serif" font-size="14.00">team cohesion</text>
</g>
<!-- EDA synchrony&#45;&gt;team cohesion -->
<g id="edge11" class="edge">
<title>EDA synchrony&#45;&gt;team cohesion</title>
<path fill="none" stroke="black" d="M448.47,-558C387.01,-558 296.16,-558 233.36,-558"/>
<polygon fill="black" stroke="black" points="233.14,-554.5 223.14,-558 233.14,-561.5 233.14,-554.5"/>
</g>
<!-- cycles of physiological synchrony (PC -->
<g id="node11" class="node">
<title>cycles of physiological synchrony (PC</title>
<g id="a_node11"><a xlink:href="https://scholar.google.com/scholar?hl=en&amp;q=Unpacking%20the%20relationship%20between%20existing%20and%20new%20measures%20of%20physiological%20synchrony%20and%20collaborative%20learning:%20a%20mixed%20methods%20study" xlink:title="cycles of physiological synchrony (PC">
<ellipse fill="none" stroke="black" cx="516.31" cy="-450" rx="147.57" ry="18"/>
<text text-anchor="middle" x="516.31" y="-446.3" font-family="Times,serif" font-size="14.00">cycles of physiological synchrony (PC</text>
</a>
</g>
</g>
<!-- cycles of physiological synchrony (PC&#45;&gt;collaboration quality -->
<g id="edge14" class="edge">
<title>cycles of physiological synchrony (PC&#45;&gt;collaboration quality</title>
<path fill="none" stroke="black" d="M390.81,-459.52C344.49,-463.06 292.91,-467 250.49,-470.25"/>
<polygon fill="black" stroke="black" points="250.17,-466.76 240.47,-471.01 250.7,-473.74 250.17,-466.76"/>
</g>
<!-- colaboration quality: reciprocal interaction -->
<g id="node13" class="node">
<title>colaboration quality: reciprocal interaction</title>
<ellipse fill="none" stroke="black" cx="161.19" cy="-612" rx="161.37" ry="18"/>
<text text-anchor="middle" x="161.19" y="-608.3" font-family="Times,serif" font-size="14.00">colaboration quality: reciprocal interaction</text>
</g>
</g>
</svg>
