<?xml version="1.0" encoding="UTF-8" standalone="no"?>
<!DOCTYPE svg PUBLIC "-//W3C//DTD SVG 1.1//EN"
 "http://www.w3.org/Graphics/SVG/1.1/DTD/svg11.dtd">
<!-- Generated by graphviz version 2.47.0 (20210316.0004)
 -->
<!-- Title: Test Pages: 1 -->
<svg width="425pt" height="720pt"
 viewBox="0.00 0.00 424.97 720.00" xmlns="http://www.w3.org/2000/svg" xmlns:xlink="http://www.w3.org/1999/xlink">
<g id="graph0" class="graph" transform="scale(0.67 0.67) rotate(0) translate(4 1066)">
<title>Test</title>
<polygon fill="white" stroke="transparent" points="-4,4 -4,-1066 627.55,-1066 627.55,4 -4,4"/>
<!-- Instantaneous Derivative Matching (IDM -->
<g id="node1" class="node">
<title>Instantaneous Derivative Matching (IDM</title>
<g id="a_node1"><a xlink:href="https://scholar.google.com/scholar?hl=en&amp;q=Investigating%20collaborative%20learning%20success%20with%20physiological%20coupling%20indices%20based%20on%20electrodermal%20activity" xlink:title="Instantaneous Derivative Matching (IDM" target="_blank">
<ellipse fill="none" stroke="black" cx="465.61" cy="-234" rx="157.87" ry="18"/>
<text text-anchor="middle" x="465.61" y="-230.3" font-family="Times,serif" font-size="14.00">Instantaneous Derivative Matching (IDM</text>
</a>
</g>
</g>
<!-- collaborative learning product -->
<g id="node22" class="node">
<title>collaborative learning product</title>
<ellipse fill="none" stroke="black" cx="135.84" cy="-126" rx="116.98" ry="18"/>
<text text-anchor="middle" x="135.84" y="-122.3" font-family="Times,serif" font-size="14.00">collaborative learning product</text>
</g>
<!-- Instantaneous Derivative Matching (IDM&#45;&gt;collaborative learning product -->
<g id="edge17" class="edge">
<title>Instantaneous Derivative Matching (IDM&#45;&gt;collaborative learning product</title>
<path fill="none" stroke="black" d="M361.5,-220.39C343.36,-216.83 324.81,-212.42 307.68,-207 260.62,-192.11 209.91,-166.76 176.06,-148.39"/>
<polygon fill="black" stroke="black" points="177.43,-145.14 166.98,-143.4 174.06,-151.28 177.43,-145.14"/>
</g>
<!-- DA &#45; HR -->
<g id="node2" class="node">
<title>DA &#45; HR</title>
<g id="a_node2"><a xlink:href="https://scholar.google.com/scholar?hl=en&amp;q=Shared%20Experiences%20of%20Technology%20and%20Trust:%20An%20Experimental%20Study%20of%20Physiological%20Compliance%20Between%20Active%20and%20Passive%20Users%20in%20Technology-Mediated%20Collaborative%20Encounters" xlink:title="DA &#45; HR" target="_blank">
<ellipse fill="none" stroke="black" cx="465.61" cy="-828" rx="42.79" ry="18"/>
<text text-anchor="middle" x="465.61" y="-824.3" font-family="Times,serif" font-size="14.00">DA &#45; HR</text>
</a>
</g>
</g>
<!-- Performance in task -->
<g id="node21" class="node">
<title>Performance in task</title>
<ellipse fill="none" stroke="black" cx="135.84" cy="-558" rx="81.79" ry="18"/>
<text text-anchor="middle" x="135.84" y="-554.3" font-family="Times,serif" font-size="14.00">Performance in task</text>
</g>
<!-- DA &#45; HR&#45;&gt;Performance in task -->
<g id="edge9" class="edge">
<title>DA &#45; HR&#45;&gt;Performance in task</title>
<path fill="none" stroke="black" d="M422.51,-829.31C388.98,-828.45 342.13,-822.81 307.68,-801 223.72,-747.87 169.37,-637.08 147.62,-585.51"/>
<polygon fill="black" stroke="black" points="150.75,-583.93 143.7,-576.02 144.28,-586.6 150.75,-583.93"/>
</g>
<!-- WC &#45; HR low frequency -->
<g id="node3" class="node">
<title>WC &#45; HR low frequency</title>
<g id="a_node3"><a xlink:href="https://scholar.google.com/scholar?hl=en&amp;q=Shared%20Experiences%20of%20Technology%20and%20Trust:%20An%20Experimental%20Study%20of%20Physiological%20Compliance%20Between%20Active%20and%20Passive%20Users%20in%20Technology-Mediated%20Collaborative%20Encounters" xlink:title="WC &#45; HR low frequency" target="_blank">
<ellipse fill="none" stroke="black" cx="465.61" cy="-774" rx="98.58" ry="18"/>
<text text-anchor="middle" x="465.61" y="-770.3" font-family="Times,serif" font-size="14.00">WC &#45; HR low frequency</text>
</a>
</g>
</g>
<!-- WC &#45; HR low frequency&#45;&gt;Performance in task -->
<g id="edge11" class="edge">
<title>WC &#45; HR low frequency&#45;&gt;Performance in task</title>
<path fill="none" stroke="black" d="M371.55,-768.38C349.64,-764.3 327.05,-757.66 307.68,-747 236.02,-707.56 178.74,-626.48 152.46,-584.49"/>
<polygon fill="black" stroke="black" points="155.4,-582.6 147.18,-575.91 149.44,-586.27 155.4,-582.6"/>
</g>
<!-- WC &#45; HR high frequency -->
<g id="node4" class="node">
<title>WC &#45; HR high frequency</title>
<g id="a_node4"><a xlink:href="https://scholar.google.com/scholar?hl=en&amp;q=Shared%20Experiences%20of%20Technology%20and%20Trust:%20An%20Experimental%20Study%20of%20Physiological%20Compliance%20Between%20Active%20and%20Passive%20Users%20in%20Technology-Mediated%20Collaborative%20Encounters" xlink:title="WC &#45; HR high frequency" target="_blank">
<ellipse fill="none" stroke="black" cx="465.61" cy="-720" rx="100.98" ry="18"/>
<text text-anchor="middle" x="465.61" y="-716.3" font-family="Times,serif" font-size="14.00">WC &#45; HR high frequency</text>
</a>
</g>
</g>
<!-- WC &#45; HR high frequency&#45;&gt;Performance in task -->
<g id="edge12" class="edge">
<title>WC &#45; HR high frequency&#45;&gt;Performance in task</title>
<path fill="none" stroke="black" d="M374.36,-712.33C351.92,-708.32 328.38,-702.23 307.68,-693 248.16,-666.45 191.33,-614.44 160.56,-583.3"/>
<polygon fill="black" stroke="black" points="162.8,-580.58 153.31,-575.86 157.78,-585.46 162.8,-580.58"/>
</g>
<!-- Directional Agreement (DA -->
<g id="node5" class="node">
<title>Directional Agreement (DA</title>
<g id="a_node5"><a xlink:href="https://scholar.google.com/scholar?hl=en&amp;q=Investigating%20collaborative%20learning%20success%20with%20physiological%20coupling%20indices%20based%20on%20electrodermal%20activity" xlink:title="Directional Agreement (DA" target="_blank">
<ellipse fill="none" stroke="black" cx="465.61" cy="-180" rx="109.68" ry="18"/>
<text text-anchor="middle" x="465.61" y="-176.3" font-family="Times,serif" font-size="14.00">Directional Agreement (DA</text>
</a>
</g>
</g>
<!-- Directional Agreement (DA&#45;&gt;collaborative learning product -->
<g id="edge14" class="edge">
<title>Directional Agreement (DA&#45;&gt;collaborative learning product</title>
<path fill="none" stroke="black" d="M387.35,-167.27C339.09,-159.32 276.76,-149.05 226.35,-140.75"/>
<polygon fill="black" stroke="black" points="226.87,-137.29 216.43,-139.11 225.73,-144.19 226.87,-137.29"/>
</g>
<!-- IDM &#45; HR -->
<g id="node6" class="node">
<title>IDM &#45; HR</title>
<g id="a_node6"><a xlink:href="https://scholar.google.com/scholar?hl=en&amp;q=Shared%20Experiences%20of%20Technology%20and%20Trust:%20An%20Experimental%20Study%20of%20Physiological%20Compliance%20Between%20Active%20and%20Passive%20Users%20in%20Technology-Mediated%20Collaborative%20Encounters" xlink:title="IDM &#45; HR" target="_blank">
<ellipse fill="none" stroke="black" cx="465.61" cy="-666" rx="48.19" ry="18"/>
<text text-anchor="middle" x="465.61" y="-662.3" font-family="Times,serif" font-size="14.00">IDM &#45; HR</text>
</a>
</g>
</g>
<!-- IDM &#45; HR&#45;&gt;Performance in task -->
<g id="edge8" class="edge">
<title>IDM &#45; HR&#45;&gt;Performance in task</title>
<path fill="none" stroke="black" d="M418.85,-661.46C387.12,-657.51 344.18,-650.56 307.68,-639 260.19,-623.97 208.98,-598.3 175.14,-579.88"/>
<polygon fill="black" stroke="black" points="176.52,-576.65 166.07,-574.9 173.15,-582.78 176.52,-576.65"/>
</g>
<!-- Fisher’s z&#45;transform (FZT -->
<g id="node7" class="node">
<title>Fisher’s z&#45;transform (FZT</title>
<g id="a_node7"><a xlink:href="https://scholar.google.com/scholar?hl=en&amp;q=Investigating%20collaborative%20learning%20success%20with%20physiological%20coupling%20indices%20based%20on%20electrodermal%20activity" xlink:title="Fisher’s z&#45;transform (FZT" target="_blank">
<ellipse fill="none" stroke="black" cx="465.61" cy="-126" rx="114.28" ry="18"/>
<text text-anchor="middle" x="465.61" y="-122.3" font-family="Times,serif" font-size="14.00">Fisher’s z&#45;transform (FZT</text>
</a>
</g>
</g>
<!-- Fisher’s z&#45;transform (FZT&#45;&gt;collaborative learning product -->
<g id="edge16" class="edge">
<title>Fisher’s z&#45;transform (FZT&#45;&gt;collaborative learning product</title>
<path fill="none" stroke="black" d="M350.89,-126C322.53,-126 291.94,-126 263.01,-126"/>
<polygon fill="black" stroke="black" points="262.86,-122.5 252.86,-126 262.86,-129.5 262.86,-122.5"/>
</g>
<!-- IDM &#45; EDA -->
<g id="node8" class="node">
<title>IDM &#45; EDA</title>
<g id="a_node8"><a xlink:href="https://scholar.google.com/scholar?hl=en&amp;q=Shared%20Experiences%20of%20Technology%20and%20Trust:%20An%20Experimental%20Study%20of%20Physiological%20Compliance%20Between%20Active%20and%20Passive%20Users%20in%20Technology-Mediated%20Collaborative%20Encounters" xlink:title="IDM &#45; EDA" target="_blank">
<ellipse fill="none" stroke="black" cx="465.61" cy="-612" rx="53.89" ry="18"/>
<text text-anchor="middle" x="465.61" y="-608.3" font-family="Times,serif" font-size="14.00">IDM &#45; EDA</text>
</a>
</g>
</g>
<!-- IDM &#45; EDA&#45;&gt;Performance in task -->
<g id="edge3" class="edge">
<title>IDM &#45; EDA&#45;&gt;Performance in task</title>
<path fill="none" stroke="black" d="M416.95,-604.15C363.1,-595.28 274.77,-580.72 211.69,-570.33"/>
<polygon fill="black" stroke="black" points="212.23,-566.87 201.8,-568.7 211.09,-573.78 212.23,-566.87"/>
</g>
<!-- Galvanic skin response -->
<g id="node9" class="node">
<title>Galvanic skin response</title>
<g id="a_node9"><a xlink:href="https://scholar.google.com/scholar?hl=en&amp;q=Modeling%20Team-level%20Multimodal%20Dynamics%20during%20Multiparty%20Collaboration" xlink:title="Galvanic skin response" target="_blank">
<ellipse fill="none" stroke="black" cx="465.61" cy="-882" rx="92.88" ry="18"/>
<text text-anchor="middle" x="465.61" y="-878.3" font-family="Times,serif" font-size="14.00">Galvanic skin response</text>
</a>
</g>
</g>
<!-- Task Performance -->
<g id="node23" class="node">
<title>Task Performance</title>
<ellipse fill="none" stroke="black" cx="135.84" cy="-882" rx="75.29" ry="18"/>
<text text-anchor="middle" x="135.84" y="-878.3" font-family="Times,serif" font-size="14.00">Task Performance</text>
</g>
<!-- Galvanic skin response&#45;&gt;Task Performance -->
<g id="edge1" class="edge">
<title>Galvanic skin response&#45;&gt;Task Performance</title>
<path fill="none" stroke="black" d="M372.44,-882C324.98,-882 267.54,-882 221.25,-882"/>
<polygon fill="black" stroke="black" points="221.25,-878.5 211.25,-882 221.25,-885.5 221.25,-878.5"/>
</g>
<!-- CC &#45; EDA -->
<g id="node10" class="node">
<title>CC &#45; EDA</title>
<g id="a_node10"><a xlink:href="https://scholar.google.com/scholar?hl=en&amp;q=Shared%20Experiences%20of%20Technology%20and%20Trust:%20An%20Experimental%20Study%20of%20Physiological%20Compliance%20Between%20Active%20and%20Passive%20Users%20in%20Technology-Mediated%20Collaborative%20Encounters" xlink:title="CC &#45; EDA" target="_blank">
<ellipse fill="none" stroke="black" cx="465.61" cy="-558" rx="48.19" ry="18"/>
<text text-anchor="middle" x="465.61" y="-554.3" font-family="Times,serif" font-size="14.00">CC &#45; EDA</text>
</a>
</g>
</g>
<!-- CC &#45; EDA&#45;&gt;Performance in task -->
<g id="edge5" class="edge">
<title>CC &#45; EDA&#45;&gt;Performance in task</title>
<path fill="none" stroke="black" d="M417.3,-558C368.01,-558 289.55,-558 228.14,-558"/>
<polygon fill="black" stroke="black" points="228.05,-554.5 218.05,-558 228.05,-561.5 228.05,-554.5"/>
</g>
<!-- SM &#45; EDA -->
<g id="node11" class="node">
<title>SM &#45; EDA</title>
<g id="a_node11"><a xlink:href="https://scholar.google.com/scholar?hl=en&amp;q=Shared%20Experiences%20of%20Technology%20and%20Trust:%20An%20Experimental%20Study%20of%20Physiological%20Compliance%20Between%20Active%20and%20Passive%20Users%20in%20Technology-Mediated%20Collaborative%20Encounters" xlink:title="SM &#45; EDA" target="_blank">
<ellipse fill="none" stroke="black" cx="465.61" cy="-504" rx="50.09" ry="18"/>
<text text-anchor="middle" x="465.61" y="-500.3" font-family="Times,serif" font-size="14.00">SM &#45; EDA</text>
</a>
</g>
</g>
<!-- SM &#45; EDA&#45;&gt;Performance in task -->
<g id="edge2" class="edge">
<title>SM &#45; EDA&#45;&gt;Performance in task</title>
<path fill="none" stroke="black" d="M419.72,-511.4C366.22,-520.21 276,-535.07 211.83,-545.64"/>
<polygon fill="black" stroke="black" points="211.07,-542.22 201.77,-547.3 212.21,-549.13 211.07,-542.22"/>
</g>
<!-- WC &#45; EDA -->
<g id="node12" class="node">
<title>WC &#45; EDA</title>
<g id="a_node12"><a xlink:href="https://scholar.google.com/scholar?hl=en&amp;q=Shared%20Experiences%20of%20Technology%20and%20Trust:%20An%20Experimental%20Study%20of%20Physiological%20Compliance%20Between%20Active%20and%20Passive%20Users%20in%20Technology-Mediated%20Collaborative%20Encounters" xlink:title="WC &#45; EDA" target="_blank">
<ellipse fill="none" stroke="black" cx="465.61" cy="-450" rx="51.19" ry="18"/>
<text text-anchor="middle" x="465.61" y="-446.3" font-family="Times,serif" font-size="14.00">WC &#45; EDA</text>
</a>
</g>
</g>
<!-- WC &#45; EDA&#45;&gt;Performance in task -->
<g id="edge6" class="edge">
<title>WC &#45; EDA&#45;&gt;Performance in task</title>
<path fill="none" stroke="black" d="M416.07,-454.89C384.65,-458.9 343.13,-465.78 307.68,-477 260.19,-492.03 208.98,-517.7 175.14,-536.12"/>
<polygon fill="black" stroke="black" points="173.15,-533.22 166.07,-541.1 176.52,-539.35 173.15,-533.22"/>
</g>
<!-- CC &#45; HR -->
<g id="node13" class="node">
<title>CC &#45; HR</title>
<g id="a_node13"><a xlink:href="https://scholar.google.com/scholar?hl=en&amp;q=Shared%20Experiences%20of%20Technology%20and%20Trust:%20An%20Experimental%20Study%20of%20Physiological%20Compliance%20Between%20Active%20and%20Passive%20Users%20in%20Technology-Mediated%20Collaborative%20Encounters" xlink:title="CC &#45; HR" target="_blank">
<ellipse fill="none" stroke="black" cx="465.61" cy="-396" rx="42.49" ry="18"/>
<text text-anchor="middle" x="465.61" y="-392.3" font-family="Times,serif" font-size="14.00">CC &#45; HR</text>
</a>
</g>
</g>
<!-- CC &#45; HR&#45;&gt;Performance in task -->
<g id="edge10" class="edge">
<title>CC &#45; HR&#45;&gt;Performance in task</title>
<path fill="none" stroke="black" d="M423.34,-397.54C390.71,-400.04 344.66,-406.5 307.68,-423 248.16,-449.55 191.33,-501.56 160.56,-532.7"/>
<polygon fill="black" stroke="black" points="157.78,-530.54 153.31,-540.14 162.8,-535.42 157.78,-530.54"/>
</g>
<!-- SM &#45; HR -->
<g id="node14" class="node">
<title>SM &#45; HR</title>
<g id="a_node14"><a xlink:href="https://scholar.google.com/scholar?hl=en&amp;q=Shared%20Experiences%20of%20Technology%20and%20Trust:%20An%20Experimental%20Study%20of%20Physiological%20Compliance%20Between%20Active%20and%20Passive%20Users%20in%20Technology-Mediated%20Collaborative%20Encounters" xlink:title="SM &#45; HR" target="_blank">
<ellipse fill="none" stroke="black" cx="465.61" cy="-342" rx="44.39" ry="18"/>
<text text-anchor="middle" x="465.61" y="-338.3" font-family="Times,serif" font-size="14.00">SM &#45; HR</text>
</a>
</g>
</g>
<!-- SM &#45; HR&#45;&gt;Performance in task -->
<g id="edge7" class="edge">
<title>SM &#45; HR&#45;&gt;Performance in task</title>
<path fill="none" stroke="black" d="M421.15,-341.94C388.16,-343.62 342.67,-349.74 307.68,-369 236.02,-408.44 178.74,-489.52 152.46,-531.51"/>
<polygon fill="black" stroke="black" points="149.44,-529.73 147.18,-540.09 155.4,-533.4 149.44,-529.73"/>
</g>
<!-- Signal Matching (SM -->
<g id="node15" class="node">
<title>Signal Matching (SM</title>
<g id="a_node15"><a xlink:href="https://scholar.google.com/scholar?hl=en&amp;q=Investigating%20collaborative%20learning%20success%20with%20physiological%20coupling%20indices%20based%20on%20electrodermal%20activity" xlink:title="Signal Matching (SM" target="_blank">
<ellipse fill="none" stroke="black" cx="465.61" cy="-72" rx="88.28" ry="18"/>
<text text-anchor="middle" x="465.61" y="-68.3" font-family="Times,serif" font-size="14.00">Signal Matching (SM</text>
</a>
</g>
</g>
<!-- Signal Matching (SM&#45;&gt;collaborative learning product -->
<g id="edge13" class="edge">
<title>Signal Matching (SM&#45;&gt;collaborative learning product</title>
<path fill="none" stroke="black" d="M396.3,-83.25C347.03,-91.37 280.06,-102.4 226.5,-111.23"/>
<polygon fill="black" stroke="black" points="225.61,-107.83 216.31,-112.91 226.75,-114.73 225.61,-107.83"/>
</g>
<!-- physiological synchrony -->
<g id="node16" class="node">
<title>physiological synchrony</title>
<g id="a_node16"><a xlink:href="https://scholar.google.com/scholar?hl=en&amp;q=What%20does%20physiological%20synchrony%20reveal%20about%20metacognitive%20experiences%20and%20group%20performance?" xlink:title="physiological synchrony" target="_blank">
<ellipse fill="none" stroke="black" cx="465.61" cy="-990" rx="96.68" ry="18"/>
<text text-anchor="middle" x="465.61" y="-986.3" font-family="Times,serif" font-size="14.00">physiological synchrony</text>
</a>
</g>
</g>
<!-- Task difficulty -->
<g id="node19" class="node">
<title>Task difficulty</title>
<ellipse fill="none" stroke="black" cx="135.84" cy="-1044" rx="62.29" ry="18"/>
<text text-anchor="middle" x="135.84" y="-1040.3" font-family="Times,serif" font-size="14.00">Task difficulty</text>
</g>
<!-- physiological synchrony&#45;&gt;Task difficulty -->
<g id="edge18" class="edge">
<title>physiological synchrony&#45;&gt;Task difficulty</title>
<path fill="none" stroke="black" d="M392.68,-1001.85C335.2,-1011.32 255.41,-1024.47 200.29,-1033.55"/>
<polygon fill="black" stroke="black" points="199.59,-1030.11 190.29,-1035.19 200.73,-1037.02 199.59,-1030.11"/>
</g>
<!-- Objective group performance score -->
<g id="node20" class="node">
<title>Objective group performance score</title>
<ellipse fill="none" stroke="black" cx="135.84" cy="-990" rx="135.68" ry="18"/>
<text text-anchor="middle" x="135.84" y="-986.3" font-family="Times,serif" font-size="14.00">Objective group performance score</text>
</g>
<!-- physiological synchrony&#45;&gt;Objective group performance score -->
<g id="edge20" class="edge">
<title>physiological synchrony&#45;&gt;Objective group performance score</title>
<path fill="none" stroke="black" d="M368.48,-990C341.45,-990 311.43,-990 282.2,-990"/>
<polygon fill="black" stroke="black" points="281.9,-986.5 271.9,-990 281.9,-993.5 281.9,-986.5"/>
</g>
<!-- Perceived group performance -->
<g id="node24" class="node">
<title>Perceived group performance</title>
<ellipse fill="none" stroke="black" cx="135.84" cy="-936" rx="115.88" ry="18"/>
<text text-anchor="middle" x="135.84" y="-932.3" font-family="Times,serif" font-size="14.00">Perceived group performance</text>
</g>
<!-- physiological synchrony&#45;&gt;Perceived group performance -->
<g id="edge19" class="edge">
<title>physiological synchrony&#45;&gt;Perceived group performance</title>
<path fill="none" stroke="black" d="M392.68,-978.15C343.64,-970.07 278.36,-959.32 226.02,-950.69"/>
<polygon fill="black" stroke="black" points="226.5,-947.22 216.06,-949.05 225.36,-954.13 226.5,-947.22"/>
</g>
<!-- DA &#45; EDA -->
<g id="node17" class="node">
<title>DA &#45; EDA</title>
<g id="a_node17"><a xlink:href="https://scholar.google.com/scholar?hl=en&amp;q=Shared%20Experiences%20of%20Technology%20and%20Trust:%20An%20Experimental%20Study%20of%20Physiological%20Compliance%20Between%20Active%20and%20Passive%20Users%20in%20Technology-Mediated%20Collaborative%20Encounters" xlink:title="DA &#45; EDA" target="_blank">
<ellipse fill="none" stroke="black" cx="465.61" cy="-288" rx="48.99" ry="18"/>
<text text-anchor="middle" x="465.61" y="-284.3" font-family="Times,serif" font-size="14.00">DA &#45; EDA</text>
</a>
</g>
</g>
<!-- DA &#45; EDA&#45;&gt;Performance in task -->
<g id="edge4" class="edge">
<title>DA &#45; EDA&#45;&gt;Performance in task</title>
<path fill="none" stroke="black" d="M416.94,-286.87C383.94,-288.21 340.26,-294.38 307.68,-315 223.72,-368.13 169.37,-478.92 147.62,-530.49"/>
<polygon fill="black" stroke="black" points="144.28,-529.4 143.7,-539.98 150.75,-532.07 144.28,-529.4"/>
</g>
<!-- Pearson’s correlation coefficient (PCC -->
<g id="node18" class="node">
<title>Pearson’s correlation coefficient (PCC</title>
<g id="a_node18"><a xlink:href="https://scholar.google.com/scholar?hl=en&amp;q=Investigating%20collaborative%20learning%20success%20with%20physiological%20coupling%20indices%20based%20on%20electrodermal%20activity" xlink:title="Pearson’s correlation coefficient (PCC" target="_blank">
<ellipse fill="none" stroke="black" cx="465.61" cy="-18" rx="157.07" ry="18"/>
<text text-anchor="middle" x="465.61" y="-14.3" font-family="Times,serif" font-size="14.00">Pearson’s correlation coefficient (PCC</text>
</a>
</g>
</g>
<!-- Pearson’s correlation coefficient (PCC&#45;&gt;collaborative learning product -->
<g id="edge15" class="edge">
<title>Pearson’s correlation coefficient (PCC&#45;&gt;collaborative learning product</title>
<path fill="none" stroke="black" d="M361.5,-31.61C343.36,-35.17 324.81,-39.58 307.68,-45 260.62,-59.89 209.91,-85.24 176.06,-103.61"/>
<polygon fill="black" stroke="black" points="174.06,-100.72 166.98,-108.6 177.43,-106.86 174.06,-100.72"/>
</g>
</g>
</svg>
