<?xml version="1.0" encoding="UTF-8" standalone="no"?>
<!DOCTYPE svg PUBLIC "-//W3C//DTD SVG 1.1//EN"
 "http://www.w3.org/Graphics/SVG/1.1/DTD/svg11.dtd">
<!-- Generated by graphviz version 2.47.0 (20210316.0004)
 -->
<!-- Title: Test Pages: 1 -->
<svg width="568pt" height="476pt"
 viewBox="0.00 0.00 567.85 476.00" xmlns="http://www.w3.org/2000/svg" xmlns:xlink="http://www.w3.org/1999/xlink">
<g id="graph0" class="graph" transform="scale(1 1) rotate(0) translate(4 472)">
<title>Test</title>
<polygon fill="white" stroke="transparent" points="-4,4 -4,-472 563.85,-472 563.85,4 -4,4"/>
<!-- Instantaneous Derivative Matching (IDM -->
<g id="node1" class="node">
<title>Instantaneous Derivative Matching (IDM</title>
<g id="a_node1"><a xlink:href="https://scholar.google.com/scholar?hl=en&amp;q=Using%20Physiological%20Synchrony%20as%20an%20Indicator%20of%20Collaboration%20Quality,%20Task%20Performance%20and%20Learning" xlink:title="Instantaneous Derivative Matching (IDM">
<ellipse fill="none" stroke="black" cx="401.92" cy="-180" rx="157.87" ry="18"/>
<text text-anchor="middle" x="401.92" y="-176.3" font-family="Times,serif" font-size="14.00">Instantaneous Derivative Matching (IDM</text>
</a>
</g>
</g>
<!-- dual learning gains -->
<g id="node10" class="node">
<title>dual learning gains</title>
<ellipse fill="none" stroke="black" cx="103.99" cy="-180" rx="77.99" ry="18"/>
<text text-anchor="middle" x="103.99" y="-176.3" font-family="Times,serif" font-size="14.00">dual learning gains</text>
</g>
<!-- Instantaneous Derivative Matching (IDM&#45;&gt;dual learning gains -->
<g id="edge5" class="edge">
<title>Instantaneous Derivative Matching (IDM&#45;&gt;dual learning gains</title>
<path fill="none" stroke="black" d="M243.86,-180C226.1,-180 208.52,-180 192.14,-180"/>
<polygon fill="black" stroke="black" points="192.11,-176.5 182.11,-180 192.11,-183.5 192.11,-176.5"/>
</g>
<!-- learning gains -->
<g id="node12" class="node">
<title>learning gains</title>
<ellipse fill="none" stroke="black" cx="103.99" cy="-99" rx="60.39" ry="18"/>
<text text-anchor="middle" x="103.99" y="-95.3" font-family="Times,serif" font-size="14.00">learning gains</text>
</g>
<!-- Instantaneous Derivative Matching (IDM&#45;&gt;learning gains -->
<g id="edge10" class="edge">
<title>Instantaneous Derivative Matching (IDM&#45;&gt;learning gains</title>
<path fill="none" stroke="black" d="M301.88,-166.06C282.53,-162.47 262.5,-158.13 243.98,-153 210.73,-143.78 174.43,-129.52 147.26,-117.97"/>
<polygon fill="black" stroke="black" points="148.63,-114.75 138.06,-114.01 145.86,-121.18 148.63,-114.75"/>
</g>
<!-- Directional Agreement (DA -->
<g id="node2" class="node">
<title>Directional Agreement (DA</title>
<g id="a_node2"><a xlink:href="https://scholar.google.com/scholar?hl=en&amp;q=Using%20Physiological%20Synchrony%20as%20an%20Indicator%20of%20Collaboration%20Quality,%20Task%20Performance%20and%20Learning" xlink:title="Directional Agreement (DA">
<ellipse fill="none" stroke="black" cx="401.92" cy="-126" rx="109.68" ry="18"/>
<text text-anchor="middle" x="401.92" y="-122.3" font-family="Times,serif" font-size="14.00">Directional Agreement (DA</text>
</a>
</g>
</g>
<!-- Directional Agreement (DA&#45;&gt;dual learning gains -->
<g id="edge8" class="edge">
<title>Directional Agreement (DA&#45;&gt;dual learning gains</title>
<path fill="none" stroke="black" d="M324.23,-138.85C298.68,-143.23 270.09,-148.22 243.98,-153 221.13,-157.19 196.2,-161.96 173.85,-166.32"/>
<polygon fill="black" stroke="black" points="172.92,-162.94 163.78,-168.29 174.26,-169.81 172.92,-162.94"/>
</g>
<!-- Directional Agreement (DA&#45;&gt;learning gains -->
<g id="edge11" class="edge">
<title>Directional Agreement (DA&#45;&gt;learning gains</title>
<path fill="none" stroke="black" d="M305.66,-117.31C262.13,-113.34 211.62,-108.73 172.16,-105.13"/>
<polygon fill="black" stroke="black" points="172.39,-101.64 162.11,-104.21 171.75,-108.61 172.39,-101.64"/>
</g>
<!-- Physiological linkage -->
<g id="node3" class="node">
<title>Physiological linkage</title>
<g id="a_node3"><a xlink:href="https://scholar.google.com/scholar?hl=en&amp;q=Physiological%20Linkage%20of%20Dyadic%20Gaming%20Experience" xlink:title="Physiological linkage">
<ellipse fill="none" stroke="black" cx="401.92" cy="-342" rx="87.18" ry="18"/>
<text text-anchor="middle" x="401.92" y="-338.3" font-family="Times,serif" font-size="14.00">Physiological linkage</text>
</a>
</g>
</g>
<!-- Perceived Comprehension -->
<g id="node11" class="node">
<title>Perceived Comprehension</title>
<ellipse fill="none" stroke="black" cx="103.99" cy="-342" rx="103.98" ry="18"/>
<text text-anchor="middle" x="103.99" y="-338.3" font-family="Times,serif" font-size="14.00">Perceived Comprehension</text>
</g>
<!-- Physiological linkage&#45;&gt;Perceived Comprehension -->
<g id="edge1" class="edge">
<title>Physiological linkage&#45;&gt;Perceived Comprehension</title>
<path fill="none" stroke="black" d="M314.53,-342C284.51,-342 250.38,-342 218.5,-342"/>
<polygon fill="black" stroke="black" points="218.24,-338.5 208.24,-342 218.24,-345.5 218.24,-338.5"/>
</g>
<!-- Signal Matching (SM -->
<g id="node4" class="node">
<title>Signal Matching (SM</title>
<g id="a_node4"><a xlink:href="https://scholar.google.com/scholar?hl=en&amp;q=Using%20Physiological%20Synchrony%20as%20an%20Indicator%20of%20Collaboration%20Quality,%20Task%20Performance%20and%20Learning" xlink:title="Signal Matching (SM">
<ellipse fill="none" stroke="black" cx="401.92" cy="-72" rx="88.28" ry="18"/>
<text text-anchor="middle" x="401.92" y="-68.3" font-family="Times,serif" font-size="14.00">Signal Matching (SM</text>
</a>
</g>
</g>
<!-- Signal Matching (SM&#45;&gt;dual learning gains -->
<g id="edge4" class="edge">
<title>Signal Matching (SM&#45;&gt;dual learning gains</title>
<path fill="none" stroke="black" d="M319.38,-78.59C294.47,-82.55 267.47,-88.88 243.98,-99 225.61,-106.92 224.89,-115.32 207.98,-126 189,-137.99 167.07,-149.75 148.34,-159.22"/>
<polygon fill="black" stroke="black" points="146.53,-156.21 139.15,-163.82 149.66,-162.48 146.53,-156.21"/>
</g>
<!-- Signal Matching (SM&#45;&gt;learning gains -->
<g id="edge9" class="edge">
<title>Signal Matching (SM&#45;&gt;learning gains</title>
<path fill="none" stroke="black" d="M320.84,-79.31C274.31,-83.55 216.34,-88.84 172.2,-92.87"/>
<polygon fill="black" stroke="black" points="171.79,-89.39 162.15,-93.78 172.43,-96.36 171.79,-89.39"/>
</g>
<!-- Fisher’s z&#45;transform (FZT -->
<g id="node5" class="node">
<title>Fisher’s z&#45;transform (FZT</title>
<g id="a_node5"><a xlink:href="https://scholar.google.com/scholar?hl=en&amp;q=Investigating%20collaborative%20learning%20success%20with%20physiological%20coupling%20indices%20based%20on%20electrodermal%20activity" xlink:title="Fisher’s z&#45;transform (FZT">
<ellipse fill="none" stroke="black" cx="401.92" cy="-288" rx="114.28" ry="18"/>
<text text-anchor="middle" x="401.92" y="-284.3" font-family="Times,serif" font-size="14.00">Fisher’s z&#45;transform (FZT</text>
</a>
</g>
</g>
<!-- Fisher’s z&#45;transform (FZT&#45;&gt;dual learning gains -->
<g id="edge7" class="edge">
<title>Fisher’s z&#45;transform (FZT&#45;&gt;dual learning gains</title>
<path fill="none" stroke="black" d="M307.79,-277.61C286.44,-273.69 264.12,-268.33 243.98,-261 204.67,-246.69 163.78,-221.4 136.61,-202.87"/>
<polygon fill="black" stroke="black" points="138.51,-199.93 128.29,-197.12 134.53,-205.68 138.51,-199.93"/>
</g>
<!-- Pearson’s correlation (PC -->
<g id="node6" class="node">
<title>Pearson’s correlation (PC</title>
<g id="a_node6"><a xlink:href="https://scholar.google.com/scholar?hl=en&amp;q=Using%20Physiological%20Synchrony%20as%20an%20Indicator%20of%20Collaboration%20Quality,%20Task%20Performance%20and%20Learning" xlink:title="Pearson’s correlation (PC">
<ellipse fill="none" stroke="black" cx="401.92" cy="-18" rx="112.38" ry="18"/>
<text text-anchor="middle" x="401.92" y="-14.3" font-family="Times,serif" font-size="14.00">Pearson’s correlation (PC</text>
</a>
</g>
</g>
<!-- Pearson’s correlation (PC&#45;&gt;learning gains -->
<g id="edge12" class="edge">
<title>Pearson’s correlation (PC&#45;&gt;learning gains</title>
<path fill="none" stroke="black" d="M315.12,-29.57C291.83,-33.58 266.76,-38.68 243.98,-45 210.73,-54.22 174.43,-68.48 147.26,-80.03"/>
<polygon fill="black" stroke="black" points="145.86,-76.82 138.06,-83.99 148.63,-83.25 145.86,-76.82"/>
</g>
<!-- Pearson’s correlation coefficient (PCC -->
<g id="node7" class="node">
<title>Pearson’s correlation coefficient (PCC</title>
<g id="a_node7"><a xlink:href="https://scholar.google.com/scholar?hl=en&amp;q=Investigating%20collaborative%20learning%20success%20with%20physiological%20coupling%20indices%20based%20on%20electrodermal%20activity" xlink:title="Pearson’s correlation coefficient (PCC">
<ellipse fill="none" stroke="black" cx="401.92" cy="-234" rx="157.07" ry="18"/>
<text text-anchor="middle" x="401.92" y="-230.3" font-family="Times,serif" font-size="14.00">Pearson’s correlation coefficient (PCC</text>
</a>
</g>
</g>
<!-- Pearson’s correlation coefficient (PCC&#45;&gt;dual learning gains -->
<g id="edge6" class="edge">
<title>Pearson’s correlation coefficient (PCC&#45;&gt;dual learning gains</title>
<path fill="none" stroke="black" d="M312.46,-219.12C290.1,-215.27 266.14,-211.06 243.98,-207 221.13,-202.81 196.2,-198.04 173.85,-193.68"/>
<polygon fill="black" stroke="black" points="174.26,-190.19 163.78,-191.71 172.92,-197.06 174.26,-190.19"/>
</g>
<!-- cycles of physiological synchrony (PC -->
<g id="node8" class="node">
<title>cycles of physiological synchrony (PC</title>
<g id="a_node8"><a xlink:href="https://scholar.google.com/scholar?hl=en&amp;q=Unpacking%20the%20relationship%20between%20existing%20and%20new%20measures%20of%20physiological%20synchrony%20and%20collaborative%20learning:%20a%20mixed%20methods%20study" xlink:title="cycles of physiological synchrony (PC">
<ellipse fill="none" stroke="black" cx="401.92" cy="-450" rx="147.57" ry="18"/>
<text text-anchor="middle" x="401.92" y="-446.3" font-family="Times,serif" font-size="14.00">cycles of physiological synchrony (PC</text>
</a>
</g>
</g>
<!-- Learning gains -->
<g id="node13" class="node">
<title>Learning gains</title>
<ellipse fill="none" stroke="black" cx="103.99" cy="-423" rx="63.89" ry="18"/>
<text text-anchor="middle" x="103.99" y="-419.3" font-family="Times,serif" font-size="14.00">Learning gains</text>
</g>
<!-- cycles of physiological synchrony (PC&#45;&gt;Learning gains -->
<g id="edge3" class="edge">
<title>cycles of physiological synchrony (PC&#45;&gt;Learning gains</title>
<path fill="none" stroke="black" d="M283.11,-439.25C246.46,-435.91 207.23,-432.33 174.94,-429.38"/>
<polygon fill="black" stroke="black" points="174.99,-425.87 164.71,-428.45 174.36,-432.84 174.99,-425.87"/>
</g>
<!-- physiological synchrony (PC -->
<g id="node9" class="node">
<title>physiological synchrony (PC</title>
<g id="a_node9"><a xlink:href="https://scholar.google.com/scholar?hl=en&amp;q=Unpacking%20the%20relationship%20between%20existing%20and%20new%20measures%20of%20physiological%20synchrony%20and%20collaborative%20learning:%20a%20mixed%20methods%20study" xlink:title="physiological synchrony (PC">
<ellipse fill="none" stroke="black" cx="401.92" cy="-396" rx="113.18" ry="18"/>
<text text-anchor="middle" x="401.92" y="-392.3" font-family="Times,serif" font-size="14.00">physiological synchrony (PC</text>
</a>
</g>
</g>
<!-- physiological synchrony (PC&#45;&gt;Learning gains -->
<g id="edge2" class="edge">
<title>physiological synchrony (PC&#45;&gt;Learning gains</title>
<path fill="none" stroke="black" d="M303.2,-404.92C261.32,-408.74 213.34,-413.11 175.08,-416.6"/>
<polygon fill="black" stroke="black" points="174.71,-413.12 165.07,-417.52 175.35,-420.1 174.71,-413.12"/>
</g>
</g>
</svg>
