<?xml version="1.0" encoding="UTF-8" standalone="no"?>
<!DOCTYPE svg PUBLIC "-//W3C//DTD SVG 1.1//EN"
 "http://www.w3.org/Graphics/SVG/1.1/DTD/svg11.dtd">
<!-- Generated by graphviz version 2.47.0 (20210316.0004)
 -->
<!-- Title: Test Pages: 1 -->
<svg width="1080pt" height="751pt"
 viewBox="0.00 0.00 1080.00 750.58" xmlns="http://www.w3.org/2000/svg" xmlns:xlink="http://www.w3.org/1999/xlink">
<g id="graph0" class="graph" transform="scale(0.52 0.52) rotate(0) translate(4 1444)">
<title>Test</title>
<polygon fill="white" stroke="transparent" points="-4,4 -4,-1444 2079.52,-1444 2079.52,4 -4,4"/>
<!-- Group Participation Speaking Cues (Speaking Length, Speaking Turns, Successful Interruptions, Unsuccessful Interruptions, Backchannels -->
<g id="node1" class="node">
<title>Group Participation Speaking Cues (Speaking Length, Speaking Turns, Successful Interruptions, Unsuccessful Interruptions, Backchannels</title>
<g id="a_node1"><a xlink:href="https://scholar.google.com/scholar?hl=en&amp;q=Linking%20Speaking%20and%20Looking%20Behavior%20Patterns%20with%20Group%20Composition,%20Perception,%20and%20Performance" xlink:title="Group Participation Speaking Cues (Speaking Length, Speaking Turns, Successful Interruptions, Unsuccessful Interruptions, Backchannels">
<ellipse fill="none" stroke="black" cx="1493.82" cy="-126" rx="504.21" ry="18"/>
<text text-anchor="middle" x="1493.82" y="-122.3" font-family="Times,serif" font-size="14.00">Group Participation Speaking Cues (Speaking Length, Speaking Turns, Successful Interruptions, Unsuccessful Interruptions, Backchannels</text>
</a>
</g>
</g>
<!-- Group Interpersonal Perception (Perceived Dominance, Perceived Leadership, Perceived Competence, Perceived Liking -->
<g id="node32" class="node">
<title>Group Interpersonal Perception (Perceived Dominance, Perceived Leadership, Perceived Competence, Perceived Liking</title>
<ellipse fill="none" stroke="black" cx="438.06" cy="-72" rx="438.12" ry="18"/>
<text text-anchor="middle" x="438.06" y="-68.3" font-family="Times,serif" font-size="14.00">Group Interpersonal Perception (Perceived Dominance, Perceived Leadership, Perceived Competence, Perceived Liking</text>
</g>
<!-- Group Participation Speaking Cues (Speaking Length, Speaking Turns, Successful Interruptions, Unsuccessful Interruptions, Backchannels&#45;&gt;Group Interpersonal Perception (Perceived Dominance, Perceived Leadership, Perceived Competence, Perceived Liking -->
<g id="edge5" class="edge">
<title>Group Participation Speaking Cues (Speaking Length, Speaking Turns, Successful Interruptions, Unsuccessful Interruptions, Backchannels&#45;&gt;Group Interpersonal Perception (Perceived Dominance, Perceived Leadership, Perceived Competence, Perceived Liking</title>
<path fill="none" stroke="black" d="M1177.85,-111.96C1091.68,-107.96 998.3,-103.46 912.12,-99 843.12,-95.43 768.47,-91.29 699.31,-87.35"/>
<polygon fill="black" stroke="black" points="699.33,-83.84 689.15,-86.77 698.93,-90.83 699.33,-83.84"/>
</g>
<!-- non&#45;verbal speaking metrics (speaking length, interruptions, etc -->
<g id="node2" class="node">
<title>non&#45;verbal speaking metrics (speaking length, interruptions, etc</title>
<g id="a_node2"><a xlink:href="https://scholar.google.com/scholar?hl=en&amp;q=A%20Multimodal-Sensor-Enabled%20Room%20for%20Unobtrusive%20Group%20Meeting%20Analysis" xlink:title="non&#45;verbal speaking metrics (speaking length, interruptions, etc">
<ellipse fill="none" stroke="black" cx="1493.82" cy="-234" rx="237.46" ry="18"/>
<text text-anchor="middle" x="1493.82" y="-230.3" font-family="Times,serif" font-size="14.00">non&#45;verbal speaking metrics (speaking length, interruptions, etc</text>
</a>
</g>
</g>
<!-- Contribution perceived -->
<g id="node29" class="node">
<title>Contribution perceived</title>
<ellipse fill="none" stroke="black" cx="438.06" cy="-234" rx="92.08" ry="18"/>
<text text-anchor="middle" x="438.06" y="-230.3" font-family="Times,serif" font-size="14.00">Contribution perceived</text>
</g>
<!-- non&#45;verbal speaking metrics (speaking length, interruptions, etc&#45;&gt;Contribution perceived -->
<g id="edge4" class="edge">
<title>non&#45;verbal speaking metrics (speaking length, interruptions, etc&#45;&gt;Contribution perceived</title>
<path fill="none" stroke="black" d="M1256.34,-234C1031.67,-234 704.55,-234 540.65,-234"/>
<polygon fill="black" stroke="black" points="540.57,-230.5 530.57,-234 540.57,-237.5 540.57,-230.5"/>
</g>
<!-- Leadership perceived -->
<g id="node40" class="node">
<title>Leadership perceived</title>
<ellipse fill="none" stroke="black" cx="438.06" cy="-180" rx="86.38" ry="18"/>
<text text-anchor="middle" x="438.06" y="-176.3" font-family="Times,serif" font-size="14.00">Leadership perceived</text>
</g>
<!-- non&#45;verbal speaking metrics (speaking length, interruptions, etc&#45;&gt;Leadership perceived -->
<g id="edge3" class="edge">
<title>non&#45;verbal speaking metrics (speaking length, interruptions, etc&#45;&gt;Leadership perceived</title>
<path fill="none" stroke="black" d="M1288.21,-225.01C1176.97,-220 1036.98,-213.47 912.12,-207 779.95,-200.16 627.06,-191.25 531.7,-185.58"/>
<polygon fill="black" stroke="black" points="531.7,-182.07 521.51,-184.97 531.29,-189.06 531.7,-182.07"/>
</g>
<!-- Proximity -->
<g id="node3" class="node">
<title>Proximity</title>
<g id="a_node3"><a xlink:href="https://scholar.google.com/scholar?hl=en&amp;q=Acoustic-Prosodic%20Entrainment%20and%20Rapport%20in%20Collaborative%20Learning%20Dialogues" xlink:title="Proximity">
<ellipse fill="none" stroke="black" cx="1493.82" cy="-396" rx="46.29" ry="18"/>
<text text-anchor="middle" x="1493.82" y="-392.3" font-family="Times,serif" font-size="14.00">Proximity</text>
</a>
</g>
</g>
<!-- rapport level -->
<g id="node36" class="node">
<title>rapport level</title>
<ellipse fill="none" stroke="black" cx="438.06" cy="-342" rx="55.79" ry="18"/>
<text text-anchor="middle" x="438.06" y="-338.3" font-family="Times,serif" font-size="14.00">rapport level</text>
</g>
<!-- Proximity&#45;&gt;rapport level -->
<g id="edge17" class="edge">
<title>Proximity&#45;&gt;rapport level</title>
<path fill="none" stroke="black" d="M1447.64,-394.06C1349.93,-389.83 1111.69,-379.33 912.12,-369 765.98,-361.43 594.51,-351.34 503.49,-345.89"/>
<polygon fill="black" stroke="black" points="503.52,-342.39 493.33,-345.28 503.1,-349.38 503.52,-342.39"/>
</g>
<!-- speech time -->
<g id="node4" class="node">
<title>speech time</title>
<g id="a_node4"><a xlink:href="https://scholar.google.com/scholar?hl=en&amp;q=Using%20the%20Tablet%20Gestures%20and%20Speech%20of%20Pairs%20of%20Students%20to%20Classify%20Their%20Collaboration" xlink:title="speech time">
<ellipse fill="none" stroke="black" cx="1493.82" cy="-558" rx="53.09" ry="18"/>
<text text-anchor="middle" x="1493.82" y="-554.3" font-family="Times,serif" font-size="14.00">speech time</text>
</a>
</g>
</g>
<!-- collaboration quality -->
<g id="node38" class="node">
<title>collaboration quality</title>
<ellipse fill="none" stroke="black" cx="438.06" cy="-504" rx="83.69" ry="18"/>
<text text-anchor="middle" x="438.06" y="-500.3" font-family="Times,serif" font-size="14.00">collaboration quality</text>
</g>
<!-- speech time&#45;&gt;collaboration quality -->
<g id="edge36" class="edge">
<title>speech time&#45;&gt;collaboration quality</title>
<path fill="none" stroke="black" d="M1440.76,-555.76C1339.12,-551.36 1107.15,-541.1 912.12,-531 778.76,-524.09 624.31,-515.09 529.14,-509.42"/>
<polygon fill="black" stroke="black" points="529.17,-505.92 518.98,-508.82 528.76,-512.91 529.17,-505.92"/>
</g>
<!-- Synchrony -->
<g id="node5" class="node">
<title>Synchrony</title>
<g id="a_node5"><a xlink:href="https://scholar.google.com/scholar?hl=en&amp;q=Acoustic-Prosodic%20Entrainment%20and%20Rapport%20in%20Collaborative%20Learning%20Dialogues" xlink:title="Synchrony">
<ellipse fill="none" stroke="black" cx="1493.82" cy="-342" rx="48.99" ry="18"/>
<text text-anchor="middle" x="1493.82" y="-338.3" font-family="Times,serif" font-size="14.00">Synchrony</text>
</a>
</g>
</g>
<!-- Synchrony&#45;&gt;rapport level -->
<g id="edge19" class="edge">
<title>Synchrony&#45;&gt;rapport level</title>
<path fill="none" stroke="black" d="M1444.8,-342C1274.52,-342 699.3,-342 504.32,-342"/>
<polygon fill="black" stroke="black" points="504.22,-338.5 494.22,-342 504.22,-345.5 504.22,-338.5"/>
</g>
<!-- symmetry of speech among group -->
<g id="node6" class="node">
<title>symmetry of speech among group</title>
<g id="a_node6"><a xlink:href="https://scholar.google.com/scholar?hl=en&amp;q=An%20Automatic%20Approach%20for%20Mining%20Patterns%20of%20Collaboration%20around%20an%20Interactive%20Tabletop" xlink:title="symmetry of speech among group">
<ellipse fill="none" stroke="black" cx="1493.82" cy="-720" rx="132.68" ry="18"/>
<text text-anchor="middle" x="1493.82" y="-716.3" font-family="Times,serif" font-size="14.00">symmetry of speech among group</text>
</a>
</g>
</g>
<!-- Collaboration -->
<g id="node26" class="node">
<title>Collaboration</title>
<ellipse fill="none" stroke="black" cx="438.06" cy="-666" rx="59.29" ry="18"/>
<text text-anchor="middle" x="438.06" y="-662.3" font-family="Times,serif" font-size="14.00">Collaboration</text>
</g>
<!-- symmetry of speech among group&#45;&gt;Collaboration -->
<g id="edge35" class="edge">
<title>symmetry of speech among group&#45;&gt;Collaboration</title>
<path fill="none" stroke="black" d="M1367.35,-714.55C1249.72,-709.35 1068.98,-701.12 912.12,-693 767.56,-685.51 598.22,-675.56 506.47,-670.07"/>
<polygon fill="black" stroke="black" points="506.4,-666.56 496.21,-669.46 505.99,-673.55 506.4,-666.56"/>
</g>
<!-- thousands of features prosodic speech -->
<g id="node7" class="node">
<title>thousands of features prosodic speech</title>
<g id="a_node7"><a xlink:href="https://scholar.google.com/scholar?hl=en&amp;q=Using%20the%20Tablet%20Gestures%20and%20Speech%20of%20Pairs%20of%20Students%20to%20Classify%20Their%20Collaboration" xlink:title="thousands of features prosodic speech">
<ellipse fill="none" stroke="black" cx="1493.82" cy="-504" rx="144.87" ry="18"/>
<text text-anchor="middle" x="1493.82" y="-500.3" font-family="Times,serif" font-size="14.00">thousands of features prosodic speech</text>
</a>
</g>
</g>
<!-- thousands of features prosodic speech&#45;&gt;collaboration quality -->
<g id="edge37" class="edge">
<title>thousands of features prosodic speech&#45;&gt;collaboration quality</title>
<path fill="none" stroke="black" d="M1348.78,-504C1129.11,-504 716.49,-504 532.14,-504"/>
<polygon fill="black" stroke="black" points="531.94,-500.5 521.94,-504 531.94,-507.5 531.94,-500.5"/>
</g>
<!-- speech rate -->
<g id="node8" class="node">
<title>speech rate</title>
<g id="a_node8"><a xlink:href="https://scholar.google.com/scholar?hl=en&amp;q=Modeling%20Team-level%20Multimodal%20Dynamics%20during%20Multiparty%20Collaboration" xlink:title="speech rate">
<ellipse fill="none" stroke="black" cx="1493.82" cy="-774" rx="50.09" ry="18"/>
<text text-anchor="middle" x="1493.82" y="-770.3" font-family="Times,serif" font-size="14.00">speech rate</text>
</a>
</g>
</g>
<!-- Perceived Collaboration Quality -->
<g id="node44" class="node">
<title>Perceived Collaboration Quality</title>
<ellipse fill="none" stroke="black" cx="438.06" cy="-774" rx="124.58" ry="18"/>
<text text-anchor="middle" x="438.06" y="-770.3" font-family="Times,serif" font-size="14.00">Perceived Collaboration Quality</text>
</g>
<!-- speech rate&#45;&gt;Perceived Collaboration Quality -->
<g id="edge16" class="edge">
<title>speech rate&#45;&gt;Perceived Collaboration Quality</title>
<path fill="none" stroke="black" d="M1443.76,-774C1289.33,-774 809.46,-774 573.22,-774"/>
<polygon fill="black" stroke="black" points="573.19,-770.5 563.19,-774 573.19,-777.5 573.19,-770.5"/>
</g>
<!-- 1582 audio features (from Emobase -->
<g id="node9" class="node">
<title>1582 audio features (from Emobase</title>
<g id="a_node9"><a xlink:href="https://scholar.google.com/scholar?hl=en&amp;q=High%20Accuracy%20Detection%20of%20Collaboration%20From%20Log%20Data%20and%20Superficial%20Speech%20Features" xlink:title="1582 audio features (from Emobase">
<ellipse fill="none" stroke="black" cx="1493.82" cy="-828" rx="138.38" ry="18"/>
<text text-anchor="middle" x="1493.82" y="-824.3" font-family="Times,serif" font-size="14.00">1582 audio features (from Emobase</text>
</a>
</g>
</g>
<!-- collaboration -->
<g id="node35" class="node">
<title>collaboration</title>
<ellipse fill="none" stroke="black" cx="438.06" cy="-828" rx="57.39" ry="18"/>
<text text-anchor="middle" x="438.06" y="-824.3" font-family="Times,serif" font-size="14.00">collaboration</text>
</g>
<!-- 1582 audio features (from Emobase&#45;&gt;collaboration -->
<g id="edge30" class="edge">
<title>1582 audio features (from Emobase&#45;&gt;collaboration</title>
<path fill="none" stroke="black" d="M1355.33,-828C1126.22,-828 674.8,-828 505.38,-828"/>
<polygon fill="black" stroke="black" points="505.36,-824.5 495.36,-828 505.36,-831.5 505.36,-824.5"/>
</g>
<!-- Speaking Distribution Cues (Speaking Length Skew, Speaking Turns Skew, Successful Interruption Skew, Unsuccessful Interruptions Skew, Backchannels Skew -->
<g id="node10" class="node">
<title>Speaking Distribution Cues (Speaking Length Skew, Speaking Turns Skew, Successful Interruption Skew, Unsuccessful Interruptions Skew, Backchannels Skew</title>
<g id="a_node10"><a xlink:href="https://scholar.google.com/scholar?hl=en&amp;q=Linking%20Speaking%20and%20Looking%20Behavior%20Patterns%20with%20Group%20Composition,%20Perception,%20and%20Performance" xlink:title="Speaking Distribution Cues (Speaking Length Skew, Speaking Turns Skew, Successful Interruption Skew, Unsuccessful Interruptions Skew, Backchannels Skew">
<ellipse fill="none" stroke="black" cx="1493.82" cy="-72" rx="581.9" ry="18"/>
<text text-anchor="middle" x="1493.82" y="-68.3" font-family="Times,serif" font-size="14.00">Speaking Distribution Cues (Speaking Length Skew, Speaking Turns Skew, Successful Interruption Skew, Unsuccessful Interruptions Skew, Backchannels Skew</text>
</a>
</g>
</g>
<!-- Speaking Distribution Cues (Speaking Length Skew, Speaking Turns Skew, Successful Interruption Skew, Unsuccessful Interruptions Skew, Backchannels Skew&#45;&gt;Group Interpersonal Perception (Perceived Dominance, Perceived Leadership, Perceived Competence, Perceived Liking -->
<g id="edge7" class="edge">
<title>Speaking Distribution Cues (Speaking Length Skew, Speaking Turns Skew, Successful Interruption Skew, Unsuccessful Interruptions Skew, Backchannels Skew&#45;&gt;Group Interpersonal Perception (Perceived Dominance, Perceived Leadership, Perceived Competence, Perceived Liking</title>
<path fill="none" stroke="black" d="M912,-72C903.52,-72 895.06,-72 886.62,-72"/>
<polygon fill="black" stroke="black" points="886.35,-68.5 876.35,-72 886.35,-75.5 886.35,-68.5"/>
</g>
<!-- 35 Coh&#45;metrix indices -->
<g id="node11" class="node">
<title>35 Coh&#45;metrix indices</title>
<g id="a_node11"><a xlink:href="https://scholar.google.com/scholar?hl=en&amp;q=Predicting%20the%20Quality%20of%20Collaborative%20Problem%20Solving%20Through%20Linguistic%20Analysis%20of%20Discourse" xlink:title="35 Coh&#45;metrix indices">
<ellipse fill="none" stroke="black" cx="1493.82" cy="-666" rx="90.18" ry="18"/>
<text text-anchor="middle" x="1493.82" y="-662.3" font-family="Times,serif" font-size="14.00">35 Coh&#45;metrix indices</text>
</a>
</g>
</g>
<!-- 35 Coh&#45;metrix indices&#45;&gt;Collaboration -->
<g id="edge32" class="edge">
<title>35 Coh&#45;metrix indices&#45;&gt;Collaboration</title>
<path fill="none" stroke="black" d="M1403.43,-666C1197.12,-666 691.34,-666 507.38,-666"/>
<polygon fill="black" stroke="black" points="507.29,-662.5 497.29,-666 507.29,-669.5 507.29,-662.5"/>
</g>
<!-- verbal dominance and information metrics [9 metrics] -->
<g id="node12" class="node">
<title>verbal dominance and information metrics [9 metrics]</title>
<g id="a_node12"><a xlink:href="https://scholar.google.com/scholar?hl=en&amp;q=A%20Multimodal-Sensor-Enabled%20Room%20for%20Unobtrusive%20Group%20Meeting%20Analysis" xlink:title="verbal dominance and information metrics [9 metrics]">
<ellipse fill="none" stroke="black" cx="1493.82" cy="-180" rx="204.16" ry="18"/>
<text text-anchor="middle" x="1493.82" y="-176.3" font-family="Times,serif" font-size="14.00">verbal dominance and information metrics [9 metrics]</text>
</a>
</g>
</g>
<!-- verbal dominance and information metrics [9 metrics]&#45;&gt;Contribution perceived -->
<g id="edge2" class="edge">
<title>verbal dominance and information metrics [9 metrics]&#45;&gt;Contribution perceived</title>
<path fill="none" stroke="black" d="M1310.69,-187.97C1196.25,-193.11 1045.54,-200.09 912.12,-207 782.33,-213.72 632.56,-222.43 536.91,-228.11"/>
<polygon fill="black" stroke="black" points="536.44,-224.63 526.67,-228.72 536.86,-231.62 536.44,-224.63"/>
</g>
<!-- verbal dominance and information metrics [9 metrics]&#45;&gt;Leadership perceived -->
<g id="edge1" class="edge">
<title>verbal dominance and information metrics [9 metrics]&#45;&gt;Leadership perceived</title>
<path fill="none" stroke="black" d="M1289.65,-180C1062.68,-180 704.87,-180 534.88,-180"/>
<polygon fill="black" stroke="black" points="534.69,-176.5 524.69,-180 534.69,-183.5 534.69,-176.5"/>
</g>
<!-- linguistic features from transcript (65 features -->
<g id="node13" class="node">
<title>linguistic features from transcript (65 features</title>
<g id="a_node13"><a xlink:href="https://scholar.google.com/scholar?hl=en&amp;q=Multimodal%20Analysis%20of%20Vocal%20Collaborative%20Search:A%20Public%20Corpus%20and%20Results" xlink:title="linguistic features from transcript (65 features">
<ellipse fill="none" stroke="black" cx="1493.82" cy="-963" rx="173.57" ry="18"/>
<text text-anchor="middle" x="1493.82" y="-959.3" font-family="Times,serif" font-size="14.00">linguistic features from transcript (65 features</text>
</a>
</g>
</g>
<!-- perception of peer clarity -->
<g id="node27" class="node">
<title>perception of peer clarity</title>
<ellipse fill="none" stroke="black" cx="438.06" cy="-990" rx="100.18" ry="18"/>
<text text-anchor="middle" x="438.06" y="-986.3" font-family="Times,serif" font-size="14.00">perception of peer clarity</text>
</g>
<!-- linguistic features from transcript (65 features&#45;&gt;perception of peer clarity -->
<g id="edge27" class="edge">
<title>linguistic features from transcript (65 features&#45;&gt;perception of peer clarity</title>
<path fill="none" stroke="black" d="M1325.27,-967.29C1107.13,-972.88 732.04,-982.49 547.73,-987.22"/>
<polygon fill="black" stroke="black" points="547.39,-983.72 537.48,-987.48 547.57,-990.72 547.39,-983.72"/>
</g>
<!-- perception of peer understanding -->
<g id="node33" class="node">
<title>perception of peer understanding</title>
<ellipse fill="none" stroke="black" cx="438.06" cy="-936" rx="127.28" ry="18"/>
<text text-anchor="middle" x="438.06" y="-932.3" font-family="Times,serif" font-size="14.00">perception of peer understanding</text>
</g>
<!-- linguistic features from transcript (65 features&#45;&gt;perception of peer understanding -->
<g id="edge25" class="edge">
<title>linguistic features from transcript (65 features&#45;&gt;perception of peer understanding</title>
<path fill="none" stroke="black" d="M1325.27,-958.71C1116.89,-953.37 765.31,-944.36 573.6,-939.45"/>
<polygon fill="black" stroke="black" points="573.55,-935.94 563.46,-939.19 573.37,-942.94 573.55,-935.94"/>
</g>
<!-- perception of peer helpfulness -->
<g id="node42" class="node">
<title>perception of peer helpfulness</title>
<ellipse fill="none" stroke="black" cx="438.06" cy="-882" rx="117.78" ry="18"/>
<text text-anchor="middle" x="438.06" y="-878.3" font-family="Times,serif" font-size="14.00">perception of peer helpfulness</text>
</g>
<!-- linguistic features from transcript (65 features&#45;&gt;perception of peer helpfulness -->
<g id="edge23" class="edge">
<title>linguistic features from transcript (65 features&#45;&gt;perception of peer helpfulness</title>
<path fill="none" stroke="black" d="M1381.81,-976.76C1262.1,-987.32 1067.77,-991.93 912.12,-936 893.3,-929.24 894.89,-915.91 876.12,-909 769.36,-869.71 638.07,-867.13 547.41,-871.77"/>
<polygon fill="black" stroke="black" points="547.19,-868.27 537.39,-872.32 547.57,-875.26 547.19,-868.27"/>
</g>
<!-- Silence and Overlap Cues (Fraction of Silence, Fraction of Nonoverlapped Speech, Fraction of two&#45;people and three&#45;people Overlapped Speech -->
<g id="node14" class="node">
<title>Silence and Overlap Cues (Fraction of Silence, Fraction of Nonoverlapped Speech, Fraction of two&#45;people and three&#45;people Overlapped Speech</title>
<g id="a_node14"><a xlink:href="https://scholar.google.com/scholar?hl=en&amp;q=Linking%20Speaking%20and%20Looking%20Behavior%20Patterns%20with%20Group%20Composition,%20Perception,%20and%20Performance" xlink:title="Silence and Overlap Cues (Fraction of Silence, Fraction of Nonoverlapped Speech, Fraction of two&#45;people and three&#45;people Overlapped Speech">
<ellipse fill="none" stroke="black" cx="1493.82" cy="-18" rx="521.81" ry="18"/>
<text text-anchor="middle" x="1493.82" y="-14.3" font-family="Times,serif" font-size="14.00">Silence and Overlap Cues (Fraction of Silence, Fraction of Nonoverlapped Speech, Fraction of two&#45;people and three&#45;people Overlapped Speech</text>
</a>
</g>
</g>
<!-- Silence and Overlap Cues (Fraction of Silence, Fraction of Nonoverlapped Speech, Fraction of two&#45;people and three&#45;people Overlapped Speech&#45;&gt;Group Interpersonal Perception (Perceived Dominance, Perceived Leadership, Perceived Competence, Perceived Liking -->
<g id="edge6" class="edge">
<title>Silence and Overlap Cues (Fraction of Silence, Fraction of Nonoverlapped Speech, Fraction of two&#45;people and three&#45;people Overlapped Speech&#45;&gt;Group Interpersonal Perception (Perceived Dominance, Perceived Leadership, Perceived Competence, Perceived Liking</title>
<path fill="none" stroke="black" d="M1173.69,-32.23C1088.68,-36.19 996.91,-40.61 912.12,-45 843.12,-48.57 768.47,-52.71 699.31,-56.65"/>
<polygon fill="black" stroke="black" points="698.93,-53.17 689.15,-57.23 699.33,-60.16 698.93,-53.17"/>
</g>
<!-- voice features (4 features -->
<g id="node15" class="node">
<title>voice features (4 features</title>
<g id="a_node15"><a xlink:href="https://scholar.google.com/scholar?hl=en&amp;q=Multimodal%20Analysis%20of%20Vocal%20Collaborative%20Search:A%20Public%20Corpus%20and%20Results" xlink:title="voice features (4 features">
<ellipse fill="none" stroke="black" cx="1493.82" cy="-909" rx="100.18" ry="18"/>
<text text-anchor="middle" x="1493.82" y="-905.3" font-family="Times,serif" font-size="14.00">voice features (4 features</text>
</a>
</g>
</g>
<!-- voice features (4 features&#45;&gt;perception of peer clarity -->
<g id="edge28" class="edge">
<title>voice features (4 features&#45;&gt;perception of peer clarity</title>
<path fill="none" stroke="black" d="M1412.96,-898.28C1298.3,-886.05 1082.13,-874.91 912.12,-936 893.3,-942.76 894.89,-956.09 876.12,-963 764.55,-1004.06 626.19,-1005.03 535.41,-999.57"/>
<polygon fill="black" stroke="black" points="535.6,-996.07 525.4,-998.93 535.16,-1003.06 535.6,-996.07"/>
</g>
<!-- voice features (4 features&#45;&gt;perception of peer understanding -->
<g id="edge26" class="edge">
<title>voice features (4 features&#45;&gt;perception of peer understanding</title>
<path fill="none" stroke="black" d="M1394.63,-911.52C1205.15,-916.37 788.8,-927.04 573.67,-932.55"/>
<polygon fill="black" stroke="black" points="573.48,-929.05 563.58,-932.81 573.66,-936.05 573.48,-929.05"/>
</g>
<!-- voice features (4 features&#45;&gt;perception of peer helpfulness -->
<g id="edge24" class="edge">
<title>voice features (4 features&#45;&gt;perception of peer helpfulness</title>
<path fill="none" stroke="black" d="M1394.63,-906.48C1202.48,-901.56 777.02,-890.66 564.69,-885.22"/>
<polygon fill="black" stroke="black" points="564.52,-881.71 554.43,-884.96 564.34,-888.71 564.52,-881.71"/>
</g>
<!-- talking time -->
<g id="node16" class="node">
<title>talking time</title>
<g id="a_node16"><a xlink:href="https://scholar.google.com/scholar?hl=en&amp;q=Toward%20Using%20Multi-Modal%20Learning%20Analytics%20to%20Support%20and%20Measure%20Collaboration%20in%20Co-Located%20Dyads" xlink:title="talking time">
<ellipse fill="none" stroke="black" cx="1493.82" cy="-450" rx="53.89" ry="18"/>
<text text-anchor="middle" x="1493.82" y="-446.3" font-family="Times,serif" font-size="14.00">talking time</text>
</a>
</g>
</g>
<!-- talking time&#45;&gt;collaboration quality -->
<g id="edge33" class="edge">
<title>talking time&#45;&gt;collaboration quality</title>
<path fill="none" stroke="black" d="M1439.97,-452.27C1337.92,-456.7 1106.65,-466.93 912.12,-477 778.76,-483.91 624.31,-492.91 529.14,-498.58"/>
<polygon fill="black" stroke="black" points="528.76,-495.09 518.98,-499.18 529.17,-502.08 528.76,-495.09"/>
</g>
<!-- 88 GeMAPS acoustic features -->
<g id="node17" class="node">
<title>88 GeMAPS acoustic features</title>
<g id="a_node17"><a xlink:href="https://scholar.google.com/scholar?hl=en&amp;q=Automatic%20Recognition%20of%20Affective%20Laughter%20in%20Spontaneous%20Dyadic%20Interactions%20from%20Audiovisual%20Signals" xlink:title="88 GeMAPS acoustic features">
<ellipse fill="none" stroke="black" cx="1493.82" cy="-1044" rx="118.08" ry="18"/>
<text text-anchor="middle" x="1493.82" y="-1040.3" font-family="Times,serif" font-size="14.00">88 GeMAPS acoustic features</text>
</a>
</g>
</g>
<!-- Voiced Laughter -->
<g id="node28" class="node">
<title>Voiced Laughter</title>
<ellipse fill="none" stroke="black" cx="438.06" cy="-1098" rx="69.59" ry="18"/>
<text text-anchor="middle" x="438.06" y="-1094.3" font-family="Times,serif" font-size="14.00">Voiced Laughter</text>
</g>
<!-- 88 GeMAPS acoustic features&#45;&gt;Voiced Laughter -->
<g id="edge8" class="edge">
<title>88 GeMAPS acoustic features&#45;&gt;Voiced Laughter</title>
<path fill="none" stroke="black" d="M1379.85,-1048.9C1262.82,-1054.06 1074.65,-1062.58 912.12,-1071 772.56,-1078.23 609.91,-1087.75 516.26,-1093.34"/>
<polygon fill="black" stroke="black" points="515.8,-1089.86 506.03,-1093.95 516.22,-1096.85 515.8,-1089.86"/>
</g>
<!-- Speech Laughter -->
<g id="node31" class="node">
<title>Speech Laughter</title>
<ellipse fill="none" stroke="black" cx="438.06" cy="-1152" rx="70.39" ry="18"/>
<text text-anchor="middle" x="438.06" y="-1148.3" font-family="Times,serif" font-size="14.00">Speech Laughter</text>
</g>
<!-- 88 GeMAPS acoustic features&#45;&gt;Speech Laughter -->
<g id="edge13" class="edge">
<title>88 GeMAPS acoustic features&#45;&gt;Speech Laughter</title>
<path fill="none" stroke="black" d="M1427.08,-1029.02C1313.67,-1006.9 1077.5,-977.48 912.12,-1071 887.01,-1085.2 901.12,-1110.61 876.12,-1125 758.91,-1192.46 593.55,-1179.2 503.56,-1164.83"/>
<polygon fill="black" stroke="black" points="503.93,-1161.35 493.49,-1163.17 502.79,-1168.25 503.93,-1161.35"/>
</g>
<!-- Unvoiced Laughter -->
<g id="node43" class="node">
<title>Unvoiced Laughter</title>
<ellipse fill="none" stroke="black" cx="438.06" cy="-1044" rx="79.09" ry="18"/>
<text text-anchor="middle" x="438.06" y="-1040.3" font-family="Times,serif" font-size="14.00">Unvoiced Laughter</text>
</g>
<!-- 88 GeMAPS acoustic features&#45;&gt;Unvoiced Laughter -->
<g id="edge11" class="edge">
<title>88 GeMAPS acoustic features&#45;&gt;Unvoiced Laughter</title>
<path fill="none" stroke="black" d="M1375.52,-1044C1162.7,-1044 717.49,-1044 527.76,-1044"/>
<polygon fill="black" stroke="black" points="527.55,-1040.5 517.55,-1044 527.55,-1047.5 527.55,-1040.5"/>
</g>
<!-- Speaking Activity (Speaking length, Speaking turns, Speaking interruptions, Average speaking turn duration -->
<g id="node18" class="node">
<title>Speaking Activity (Speaking length, Speaking turns, Speaking interruptions, Average speaking turn duration</title>
<g id="a_node18"><a xlink:href="https://scholar.google.com/scholar?hl=en&amp;q=Emergent%20leaders%20through%20looking%20and%20speaking:%20from%20audio-visual%20data%20to%20multimodal%20recognition" xlink:title="Speaking Activity (Speaking length, Speaking turns, Speaking interruptions, Average speaking turn duration">
<ellipse fill="none" stroke="black" cx="1493.82" cy="-1233" rx="394.53" ry="18"/>
<text text-anchor="middle" x="1493.82" y="-1229.3" font-family="Times,serif" font-size="14.00">Speaking Activity (Speaking length, Speaking turns, Speaking interruptions, Average speaking turn duration</text>
</a>
</g>
</g>
<!-- Perception of leadership and dominance from external observers -->
<g id="node37" class="node">
<title>Perception of leadership and dominance from external observers</title>
<ellipse fill="none" stroke="black" cx="438.06" cy="-1260" rx="239.66" ry="18"/>
<text text-anchor="middle" x="438.06" y="-1256.3" font-family="Times,serif" font-size="14.00">Perception of leadership and dominance from external observers</text>
</g>
<!-- Speaking Activity (Speaking length, Speaking turns, Speaking interruptions, Average speaking turn duration&#45;&gt;Perception of leadership and dominance from external observers -->
<g id="edge21" class="edge">
<title>Speaking Activity (Speaking length, Speaking turns, Speaking interruptions, Average speaking turn duration&#45;&gt;Perception of leadership and dominance from external observers</title>
<path fill="none" stroke="black" d="M1149.24,-1241.8C994.4,-1245.77 815.44,-1250.36 675.91,-1253.93"/>
<polygon fill="black" stroke="black" points="675.41,-1250.44 665.51,-1254.2 675.59,-1257.44 675.41,-1250.44"/>
</g>
<!-- Ranked dominance -->
<g id="node41" class="node">
<title>Ranked dominance</title>
<ellipse fill="none" stroke="black" cx="438.06" cy="-1206" rx="79.09" ry="18"/>
<text text-anchor="middle" x="438.06" y="-1202.3" font-family="Times,serif" font-size="14.00">Ranked dominance</text>
</g>
<!-- Speaking Activity (Speaking length, Speaking turns, Speaking interruptions, Average speaking turn duration&#45;&gt;Ranked dominance -->
<g id="edge22" class="edge">
<title>Speaking Activity (Speaking length, Speaking turns, Speaking interruptions, Average speaking turn duration&#45;&gt;Ranked dominance</title>
<path fill="none" stroke="black" d="M1149.24,-1224.2C930.32,-1218.59 663.16,-1211.74 527.41,-1208.26"/>
<polygon fill="black" stroke="black" points="527.16,-1204.76 517.07,-1208 526.98,-1211.75 527.16,-1204.76"/>
</g>
<!-- speech time and frequency -->
<g id="node19" class="node">
<title>speech time and frequency</title>
<g id="a_node19"><a xlink:href="https://scholar.google.com/scholar?hl=en&amp;q=An%20Automatic%20Approach%20for%20Mining%20Patterns%20of%20Collaboration%20around%20an%20Interactive%20Tabletop" xlink:title="speech time and frequency">
<ellipse fill="none" stroke="black" cx="1493.82" cy="-612" rx="105.88" ry="18"/>
<text text-anchor="middle" x="1493.82" y="-608.3" font-family="Times,serif" font-size="14.00">speech time and frequency</text>
</a>
</g>
</g>
<!-- speech time and frequency&#45;&gt;Collaboration -->
<g id="edge34" class="edge">
<title>speech time and frequency&#45;&gt;Collaboration</title>
<path fill="none" stroke="black" d="M1391.05,-616.41C1275.1,-621.5 1079.94,-630.31 912.12,-639 767.56,-646.49 598.22,-656.44 506.47,-661.93"/>
<polygon fill="black" stroke="black" points="505.99,-658.45 496.21,-662.54 506.4,-665.44 505.99,-658.45"/>
</g>
<!-- Sequences of verbal utterances -->
<g id="node20" class="node">
<title>Sequences of verbal utterances</title>
<g id="a_node20"><a xlink:href="https://scholar.google.com/scholar?hl=en&amp;q=Capturing%20and%20analyzing%20verbal%20and%20physical%20collaborative%20learning%20interactions%20at%20an%20enriched%20interactive%20tabletop" xlink:title="Sequences of verbal utterances">
<ellipse fill="none" stroke="black" cx="1493.82" cy="-1314" rx="120.48" ry="18"/>
<text text-anchor="middle" x="1493.82" y="-1310.3" font-family="Times,serif" font-size="14.00">Sequences of verbal utterances</text>
</a>
</g>
</g>
<!-- Colloboration quality -->
<g id="node34" class="node">
<title>Colloboration quality</title>
<ellipse fill="none" stroke="black" cx="438.06" cy="-1314" rx="86.38" ry="18"/>
<text text-anchor="middle" x="438.06" y="-1310.3" font-family="Times,serif" font-size="14.00">Colloboration quality</text>
</g>
<!-- Sequences of verbal utterances&#45;&gt;Colloboration quality -->
<g id="edge29" class="edge">
<title>Sequences of verbal utterances&#45;&gt;Colloboration quality</title>
<path fill="none" stroke="black" d="M1373.48,-1314C1162.52,-1314 727.85,-1314 534.92,-1314"/>
<polygon fill="black" stroke="black" points="534.8,-1310.5 524.8,-1314 534.8,-1317.5 534.8,-1310.5"/>
</g>
<!-- coherence -->
<g id="node21" class="node">
<title>coherence</title>
<g id="a_node21"><a xlink:href="https://scholar.google.com/scholar?hl=en&amp;q=Does%20Seeing%20One%20Another’s%20Gaze%20Affect%20Group%20Dialogue?" xlink:title="coherence">
<ellipse fill="none" stroke="black" cx="1493.82" cy="-1368" rx="46.29" ry="18"/>
<text text-anchor="middle" x="1493.82" y="-1364.3" font-family="Times,serif" font-size="14.00">coherence</text>
</a>
</g>
</g>
<!-- Joint Visual Attention -->
<g id="node39" class="node">
<title>Joint Visual Attention</title>
<ellipse fill="none" stroke="black" cx="438.06" cy="-1368" rx="88.28" ry="18"/>
<text text-anchor="middle" x="438.06" y="-1364.3" font-family="Times,serif" font-size="14.00">Joint Visual Attention</text>
</g>
<!-- coherence&#45;&gt;Joint Visual Attention -->
<g id="edge31" class="edge">
<title>coherence&#45;&gt;Joint Visual Attention</title>
<path fill="none" stroke="black" d="M1447.54,-1368C1289.23,-1368 758.14,-1368 536.99,-1368"/>
<polygon fill="black" stroke="black" points="536.7,-1364.5 526.7,-1368 536.7,-1371.5 536.7,-1364.5"/>
</g>
<!-- 102 extended GeMAPs acoustic features -->
<g id="node22" class="node">
<title>102 extended GeMAPs acoustic features</title>
<g id="a_node22"><a xlink:href="https://scholar.google.com/scholar?hl=en&amp;q=Automatic%20Recognition%20of%20Affective%20Laughter%20in%20Spontaneous%20Dyadic%20Interactions%20from%20Audiovisual%20Signals" xlink:title="102 extended GeMAPs acoustic features">
<ellipse fill="none" stroke="black" cx="1493.82" cy="-1152" rx="155.17" ry="18"/>
<text text-anchor="middle" x="1493.82" y="-1148.3" font-family="Times,serif" font-size="14.00">102 extended GeMAPs acoustic features</text>
</a>
</g>
</g>
<!-- 102 extended GeMAPs acoustic features&#45;&gt;Voiced Laughter -->
<g id="edge9" class="edge">
<title>102 extended GeMAPs acoustic features&#45;&gt;Voiced Laughter</title>
<path fill="none" stroke="black" d="M1348.12,-1145.7C1230.63,-1140.48 1060.66,-1132.69 912.12,-1125 772.56,-1117.77 609.91,-1108.25 516.26,-1102.66"/>
<polygon fill="black" stroke="black" points="516.22,-1099.15 506.03,-1102.05 515.8,-1106.14 516.22,-1099.15"/>
</g>
<!-- 102 extended GeMAPs acoustic features&#45;&gt;Speech Laughter -->
<g id="edge14" class="edge">
<title>102 extended GeMAPs acoustic features&#45;&gt;Speech Laughter</title>
<path fill="none" stroke="black" d="M1338.47,-1152C1110.62,-1152 692.49,-1152 518.4,-1152"/>
<polygon fill="black" stroke="black" points="518.29,-1148.5 508.29,-1152 518.29,-1155.5 518.29,-1148.5"/>
</g>
<!-- Convergence -->
<g id="node23" class="node">
<title>Convergence</title>
<g id="a_node23"><a xlink:href="https://scholar.google.com/scholar?hl=en&amp;q=Acoustic-Prosodic%20Entrainment%20and%20Rapport%20in%20Collaborative%20Learning%20Dialogues" xlink:title="Convergence">
<ellipse fill="none" stroke="black" cx="1493.82" cy="-288" rx="57.39" ry="18"/>
<text text-anchor="middle" x="1493.82" y="-284.3" font-family="Times,serif" font-size="14.00">Convergence</text>
</a>
</g>
</g>
<!-- Convergence&#45;&gt;rapport level -->
<g id="edge18" class="edge">
<title>Convergence&#45;&gt;rapport level</title>
<path fill="none" stroke="black" d="M1436.75,-290.41C1333.13,-294.91 1104.63,-305.03 912.12,-315 765.98,-322.57 594.51,-332.66 503.49,-338.11"/>
<polygon fill="black" stroke="black" points="503.1,-334.62 493.33,-338.72 503.52,-341.61 503.1,-334.62"/>
</g>
<!-- 12 MFCCs -->
<g id="node24" class="node">
<title>12 MFCCs</title>
<g id="a_node24"><a xlink:href="https://scholar.google.com/scholar?hl=en&amp;q=Automatic%20Recognition%20of%20Affective%20Laughter%20in%20Spontaneous%20Dyadic%20Interactions%20from%20Audiovisual%20Signals" xlink:title="12 MFCCs">
<ellipse fill="none" stroke="black" cx="1493.82" cy="-1098" rx="50.09" ry="18"/>
<text text-anchor="middle" x="1493.82" y="-1094.3" font-family="Times,serif" font-size="14.00">12 MFCCs</text>
</a>
</g>
</g>
<!-- 12 MFCCs&#45;&gt;Voiced Laughter -->
<g id="edge10" class="edge">
<title>12 MFCCs&#45;&gt;Voiced Laughter</title>
<path fill="none" stroke="black" d="M1443.76,-1098C1276.04,-1098 724.49,-1098 518.02,-1098"/>
<polygon fill="black" stroke="black" points="517.86,-1094.5 507.86,-1098 517.86,-1101.5 517.86,-1094.5"/>
</g>
<!-- 12 MFCCs&#45;&gt;Speech Laughter -->
<g id="edge15" class="edge">
<title>12 MFCCs&#45;&gt;Speech Laughter</title>
<path fill="none" stroke="black" d="M1443.87,-1100.1C1343.92,-1104.43 1109.17,-1114.8 912.12,-1125 772.96,-1132.21 610.83,-1141.7 517.06,-1147.3"/>
<polygon fill="black" stroke="black" points="516.58,-1143.82 506.81,-1147.91 517,-1150.81 516.58,-1143.82"/>
</g>
<!-- 12 MFCCs&#45;&gt;Unvoiced Laughter -->
<g id="edge12" class="edge">
<title>12 MFCCs&#45;&gt;Unvoiced Laughter</title>
<path fill="none" stroke="black" d="M1443.87,-1095.9C1343.92,-1091.57 1109.17,-1081.2 912.12,-1071 776.78,-1063.99 619.72,-1054.82 524.94,-1049.17"/>
<polygon fill="black" stroke="black" points="525.02,-1045.67 514.83,-1048.57 524.61,-1052.66 525.02,-1045.67"/>
</g>
<!-- 6 One Vs All Features -->
<g id="node25" class="node">
<title>6 One Vs All Features</title>
<g id="a_node25"><a xlink:href="https://scholar.google.com/scholar?hl=en&amp;q=Personality%20classification%20and%20behaviour%20interpretation:%20An%20approach%20based%20on%20feature%20categories" xlink:title="6 One Vs All Features">
<ellipse fill="none" stroke="black" cx="1493.82" cy="-1422" rx="89.88" ry="18"/>
<text text-anchor="middle" x="1493.82" y="-1418.3" font-family="Times,serif" font-size="14.00">6 One Vs All Features</text>
</a>
</g>
</g>
<!-- Social Impressions -->
<g id="node30" class="node">
<title>Social Impressions</title>
<ellipse fill="none" stroke="black" cx="438.06" cy="-1422" rx="77.99" ry="18"/>
<text text-anchor="middle" x="438.06" y="-1418.3" font-family="Times,serif" font-size="14.00">Social Impressions</text>
</g>
<!-- 6 One Vs All Features&#45;&gt;Social Impressions -->
<g id="edge20" class="edge">
<title>6 One Vs All Features&#45;&gt;Social Impressions</title>
<path fill="none" stroke="black" d="M1403.89,-1422C1204.54,-1422 723.96,-1422 526.25,-1422"/>
<polygon fill="black" stroke="black" points="526.2,-1418.5 516.2,-1422 526.2,-1425.5 526.2,-1418.5"/>
</g>
</g>
</svg>
