<?xml version="1.0" encoding="UTF-8" standalone="no"?>
<!DOCTYPE svg PUBLIC "-//W3C//DTD SVG 1.1//EN"
 "http://www.w3.org/Graphics/SVG/1.1/DTD/svg11.dtd">
<!-- Generated by graphviz version 2.47.0 (20210316.0004)
 -->
<!-- Title: Test Pages: 1 -->
<svg width="720pt" height="491pt"
 viewBox="0.00 0.00 720.00 491.05" xmlns="http://www.w3.org/2000/svg" xmlns:xlink="http://www.w3.org/1999/xlink">
<g id="graph0" class="graph" transform="scale(0.35 0.35) rotate(0) translate(4 1417)">
<title>Test</title>
<polygon fill="white" stroke="transparent" points="-4,4 -4,-1417 2079.52,-1417 2079.52,4 -4,4"/>
<!-- linguistic features from transcript (65 features -->
<g id="node1" class="node">
<title>linguistic features from transcript (65 features</title>
<g id="a_node1"><a xlink:href="https://scholar.google.com/scholar?hl=en&amp;q=Multimodal%20Analysis%20of%20Vocal%20Collaborative%20Search:A%20Public%20Corpus%20and%20Results" xlink:title="linguistic features from transcript (65 features" target="_blank">
<ellipse fill="none" stroke="black" cx="1493.82" cy="-99" rx="173.57" ry="18"/>
<text text-anchor="middle" x="1493.82" y="-95.3" font-family="Times,serif" font-size="14.00">linguistic features from transcript (65 features</text>
</a>
</g>
</g>
<!-- perception of peer helpfulness -->
<g id="node28" class="node">
<title>perception of peer helpfulness</title>
<ellipse fill="none" stroke="black" cx="438.06" cy="-126" rx="117.78" ry="18"/>
<text text-anchor="middle" x="438.06" y="-122.3" font-family="Times,serif" font-size="14.00">perception of peer helpfulness</text>
</g>
<!-- linguistic features from transcript (65 features&#45;&gt;perception of peer helpfulness -->
<g id="edge23" class="edge">
<title>linguistic features from transcript (65 features&#45;&gt;perception of peer helpfulness</title>
<path fill="none" stroke="black" d="M1325.27,-103.29C1113.47,-108.72 753.72,-117.94 564.28,-122.79"/>
<polygon fill="black" stroke="black" points="564.19,-119.29 554.28,-123.05 564.37,-126.29 564.19,-119.29"/>
</g>
<!-- perception of peer clarity -->
<g id="node29" class="node">
<title>perception of peer clarity</title>
<ellipse fill="none" stroke="black" cx="438.06" cy="-72" rx="100.18" ry="18"/>
<text text-anchor="middle" x="438.06" y="-68.3" font-family="Times,serif" font-size="14.00">perception of peer clarity</text>
</g>
<!-- linguistic features from transcript (65 features&#45;&gt;perception of peer clarity -->
<g id="edge27" class="edge">
<title>linguistic features from transcript (65 features&#45;&gt;perception of peer clarity</title>
<path fill="none" stroke="black" d="M1325.27,-94.71C1107.13,-89.12 732.04,-79.51 547.73,-74.78"/>
<polygon fill="black" stroke="black" points="547.57,-71.28 537.48,-74.52 547.39,-78.28 547.57,-71.28"/>
</g>
<!-- perception of peer understanding -->
<g id="node30" class="node">
<title>perception of peer understanding</title>
<ellipse fill="none" stroke="black" cx="438.06" cy="-18" rx="127.28" ry="18"/>
<text text-anchor="middle" x="438.06" y="-14.3" font-family="Times,serif" font-size="14.00">perception of peer understanding</text>
</g>
<!-- linguistic features from transcript (65 features&#45;&gt;perception of peer understanding -->
<g id="edge25" class="edge">
<title>linguistic features from transcript (65 features&#45;&gt;perception of peer understanding</title>
<path fill="none" stroke="black" d="M1381.81,-112.76C1262.1,-123.32 1067.77,-127.93 912.12,-72 893.3,-65.24 894.89,-51.91 876.12,-45 771.94,-6.66 644.4,-3.28 554.05,-7.44"/>
<polygon fill="black" stroke="black" points="553.87,-3.95 544.05,-7.94 554.22,-10.94 553.87,-3.95"/>
</g>
<!-- Speaking Activity (Speaking length, Speaking turns, Speaking interruptions, Average speaking turn duration -->
<g id="node2" class="node">
<title>Speaking Activity (Speaking length, Speaking turns, Speaking interruptions, Average speaking turn duration</title>
<g id="a_node2"><a xlink:href="https://scholar.google.com/scholar?hl=en&amp;q=Emergent%20leaders%20through%20looking%20and%20speaking:%20from%20audio-visual%20data%20to%20multimodal%20recognition" xlink:title="Speaking Activity (Speaking length, Speaking turns, Speaking interruptions, Average speaking turn duration" target="_blank">
<ellipse fill="none" stroke="black" cx="1493.82" cy="-194" rx="394.53" ry="18"/>
<text text-anchor="middle" x="1493.82" y="-190.3" font-family="Times,serif" font-size="14.00">Speaking Activity (Speaking length, Speaking turns, Speaking interruptions, Average speaking turn duration</text>
</a>
</g>
</g>
<!-- Ranked dominance -->
<g id="node35" class="node">
<title>Ranked dominance</title>
<ellipse fill="none" stroke="black" cx="438.06" cy="-234" rx="79.09" ry="18"/>
<text text-anchor="middle" x="438.06" y="-230.3" font-family="Times,serif" font-size="14.00">Ranked dominance</text>
</g>
<!-- Speaking Activity (Speaking length, Speaking turns, Speaking interruptions, Average speaking turn duration&#45;&gt;Ranked dominance -->
<g id="edge22" class="edge">
<title>Speaking Activity (Speaking length, Speaking turns, Speaking interruptions, Average speaking turn duration&#45;&gt;Ranked dominance</title>
<path fill="none" stroke="black" d="M1189.8,-205.5C963.86,-214.08 670.45,-225.22 526.51,-230.68"/>
<polygon fill="black" stroke="black" points="526.26,-227.19 516.4,-231.06 526.53,-234.18 526.26,-227.19"/>
</g>
<!-- Perception of leadership and dominance from external observers -->
<g id="node40" class="node">
<title>Perception of leadership and dominance from external observers</title>
<ellipse fill="none" stroke="black" cx="438.06" cy="-180" rx="239.66" ry="18"/>
<text text-anchor="middle" x="438.06" y="-176.3" font-family="Times,serif" font-size="14.00">Perception of leadership and dominance from external observers</text>
</g>
<!-- Speaking Activity (Speaking length, Speaking turns, Speaking interruptions, Average speaking turn duration&#45;&gt;Perception of leadership and dominance from external observers -->
<g id="edge21" class="edge">
<title>Speaking Activity (Speaking length, Speaking turns, Speaking interruptions, Average speaking turn duration&#45;&gt;Perception of leadership and dominance from external observers</title>
<path fill="none" stroke="black" d="M1114.62,-188.98C971.51,-187.07 812.46,-184.96 684.66,-183.26"/>
<polygon fill="black" stroke="black" points="684.39,-179.76 674.34,-183.13 684.3,-186.76 684.39,-179.76"/>
</g>
<!-- symmetry of speech among group -->
<g id="node3" class="node">
<title>symmetry of speech among group</title>
<g id="a_node3"><a xlink:href="https://scholar.google.com/scholar?hl=en&amp;q=An%20Automatic%20Approach%20for%20Mining%20Patterns%20of%20Collaboration%20around%20an%20Interactive%20Tabletop" xlink:title="symmetry of speech among group" target="_blank">
<ellipse fill="none" stroke="black" cx="1493.82" cy="-369" rx="132.68" ry="18"/>
<text text-anchor="middle" x="1493.82" y="-365.3" font-family="Times,serif" font-size="14.00">symmetry of speech among group</text>
</a>
</g>
</g>
<!-- Collaboration -->
<g id="node39" class="node">
<title>Collaboration</title>
<ellipse fill="none" stroke="black" cx="438.06" cy="-315" rx="59.29" ry="18"/>
<text text-anchor="middle" x="438.06" y="-311.3" font-family="Times,serif" font-size="14.00">Collaboration</text>
</g>
<!-- symmetry of speech among group&#45;&gt;Collaboration -->
<g id="edge35" class="edge">
<title>symmetry of speech among group&#45;&gt;Collaboration</title>
<path fill="none" stroke="black" d="M1367.35,-363.55C1249.72,-358.35 1068.98,-350.12 912.12,-342 767.56,-334.51 598.22,-324.56 506.47,-319.07"/>
<polygon fill="black" stroke="black" points="506.4,-315.56 496.21,-318.46 505.99,-322.55 506.4,-315.56"/>
</g>
<!-- Group Participation Speaking Cues (Speaking Length, Speaking Turns, Successful Interruptions, Unsuccessful Interruptions, Backchannels -->
<g id="node4" class="node">
<title>Group Participation Speaking Cues (Speaking Length, Speaking Turns, Successful Interruptions, Unsuccessful Interruptions, Backchannels</title>
<g id="a_node4"><a xlink:href="https://scholar.google.com/scholar?hl=en&amp;q=Linking%20Speaking%20and%20Looking%20Behavior%20Patterns%20with%20Group%20Composition,%20Perception,%20and%20Performance" xlink:title="Group Participation Speaking Cues (Speaking Length, Speaking Turns, Successful Interruptions, Unsuccessful Interruptions, Backchannels" target="_blank">
<ellipse fill="none" stroke="black" cx="1493.82" cy="-531" rx="504.21" ry="18"/>
<text text-anchor="middle" x="1493.82" y="-527.3" font-family="Times,serif" font-size="14.00">Group Participation Speaking Cues (Speaking Length, Speaking Turns, Successful Interruptions, Unsuccessful Interruptions, Backchannels</text>
</a>
</g>
</g>
<!-- Group Interpersonal Perception (Perceived Dominance, Perceived Leadership, Perceived Competence, Perceived Liking -->
<g id="node34" class="node">
<title>Group Interpersonal Perception (Perceived Dominance, Perceived Leadership, Perceived Competence, Perceived Liking</title>
<ellipse fill="none" stroke="black" cx="438.06" cy="-477" rx="438.12" ry="18"/>
<text text-anchor="middle" x="438.06" y="-473.3" font-family="Times,serif" font-size="14.00">Group Interpersonal Perception (Perceived Dominance, Perceived Leadership, Perceived Competence, Perceived Liking</text>
</g>
<!-- Group Participation Speaking Cues (Speaking Length, Speaking Turns, Successful Interruptions, Unsuccessful Interruptions, Backchannels&#45;&gt;Group Interpersonal Perception (Perceived Dominance, Perceived Leadership, Perceived Competence, Perceived Liking -->
<g id="edge5" class="edge">
<title>Group Participation Speaking Cues (Speaking Length, Speaking Turns, Successful Interruptions, Unsuccessful Interruptions, Backchannels&#45;&gt;Group Interpersonal Perception (Perceived Dominance, Perceived Leadership, Perceived Competence, Perceived Liking</title>
<path fill="none" stroke="black" d="M1177.85,-516.96C1091.68,-512.96 998.3,-508.46 912.12,-504 843.12,-500.43 768.47,-496.29 699.31,-492.35"/>
<polygon fill="black" stroke="black" points="699.33,-488.84 689.15,-491.77 698.93,-495.83 699.33,-488.84"/>
</g>
<!-- 102 extended GeMAPs acoustic features -->
<g id="node5" class="node">
<title>102 extended GeMAPs acoustic features</title>
<g id="a_node5"><a xlink:href="https://scholar.google.com/scholar?hl=en&amp;q=Automatic%20Recognition%20of%20Affective%20Laughter%20in%20Spontaneous%20Dyadic%20Interactions%20from%20Audiovisual%20Signals" xlink:title="102 extended GeMAPs acoustic features" target="_blank">
<ellipse fill="none" stroke="black" cx="1493.82" cy="-693" rx="155.17" ry="18"/>
<text text-anchor="middle" x="1493.82" y="-689.3" font-family="Times,serif" font-size="14.00">102 extended GeMAPs acoustic features</text>
</a>
</g>
</g>
<!-- Voiced Laughter -->
<g id="node26" class="node">
<title>Voiced Laughter</title>
<ellipse fill="none" stroke="black" cx="438.06" cy="-639" rx="69.59" ry="18"/>
<text text-anchor="middle" x="438.06" y="-635.3" font-family="Times,serif" font-size="14.00">Voiced Laughter</text>
</g>
<!-- 102 extended GeMAPs acoustic features&#45;&gt;Voiced Laughter -->
<g id="edge9" class="edge">
<title>102 extended GeMAPs acoustic features&#45;&gt;Voiced Laughter</title>
<path fill="none" stroke="black" d="M1348.12,-686.7C1230.63,-681.48 1060.66,-673.69 912.12,-666 772.56,-658.77 609.91,-649.25 516.26,-643.66"/>
<polygon fill="black" stroke="black" points="516.22,-640.15 506.03,-643.05 515.8,-647.14 516.22,-640.15"/>
</g>
<!-- Speech Laughter -->
<g id="node32" class="node">
<title>Speech Laughter</title>
<ellipse fill="none" stroke="black" cx="438.06" cy="-693" rx="70.39" ry="18"/>
<text text-anchor="middle" x="438.06" y="-689.3" font-family="Times,serif" font-size="14.00">Speech Laughter</text>
</g>
<!-- 102 extended GeMAPs acoustic features&#45;&gt;Speech Laughter -->
<g id="edge14" class="edge">
<title>102 extended GeMAPs acoustic features&#45;&gt;Speech Laughter</title>
<path fill="none" stroke="black" d="M1338.47,-693C1110.62,-693 692.49,-693 518.4,-693"/>
<polygon fill="black" stroke="black" points="518.29,-689.5 508.29,-693 518.29,-696.5 518.29,-689.5"/>
</g>
<!-- speech rate -->
<g id="node6" class="node">
<title>speech rate</title>
<g id="a_node6"><a xlink:href="https://scholar.google.com/scholar?hl=en&amp;q=Modeling%20Team-level%20Multimodal%20Dynamics%20during%20Multiparty%20Collaboration" xlink:title="speech rate" target="_blank">
<ellipse fill="none" stroke="black" cx="1493.82" cy="-747" rx="50.09" ry="18"/>
<text text-anchor="middle" x="1493.82" y="-743.3" font-family="Times,serif" font-size="14.00">speech rate</text>
</a>
</g>
</g>
<!-- Perceived Collaboration Quality -->
<g id="node43" class="node">
<title>Perceived Collaboration Quality</title>
<ellipse fill="none" stroke="black" cx="438.06" cy="-747" rx="124.58" ry="18"/>
<text text-anchor="middle" x="438.06" y="-743.3" font-family="Times,serif" font-size="14.00">Perceived Collaboration Quality</text>
</g>
<!-- speech rate&#45;&gt;Perceived Collaboration Quality -->
<g id="edge16" class="edge">
<title>speech rate&#45;&gt;Perceived Collaboration Quality</title>
<path fill="none" stroke="black" d="M1443.76,-747C1289.33,-747 809.46,-747 573.22,-747"/>
<polygon fill="black" stroke="black" points="573.19,-743.5 563.19,-747 573.19,-750.5 573.19,-743.5"/>
</g>
<!-- 1582 audio features (from Emobase -->
<g id="node7" class="node">
<title>1582 audio features (from Emobase</title>
<g id="a_node7"><a xlink:href="https://scholar.google.com/scholar?hl=en&amp;q=High%20Accuracy%20Detection%20of%20Collaboration%20From%20Log%20Data%20and%20Superficial%20Speech%20Features" xlink:title="1582 audio features (from Emobase" target="_blank">
<ellipse fill="none" stroke="black" cx="1493.82" cy="-801" rx="138.38" ry="18"/>
<text text-anchor="middle" x="1493.82" y="-797.3" font-family="Times,serif" font-size="14.00">1582 audio features (from Emobase</text>
</a>
</g>
</g>
<!-- collaboration -->
<g id="node27" class="node">
<title>collaboration</title>
<ellipse fill="none" stroke="black" cx="438.06" cy="-801" rx="57.39" ry="18"/>
<text text-anchor="middle" x="438.06" y="-797.3" font-family="Times,serif" font-size="14.00">collaboration</text>
</g>
<!-- 1582 audio features (from Emobase&#45;&gt;collaboration -->
<g id="edge30" class="edge">
<title>1582 audio features (from Emobase&#45;&gt;collaboration</title>
<path fill="none" stroke="black" d="M1355.33,-801C1126.22,-801 674.8,-801 505.38,-801"/>
<polygon fill="black" stroke="black" points="505.36,-797.5 495.36,-801 505.36,-804.5 505.36,-797.5"/>
</g>
<!-- Speaking Distribution Cues (Speaking Length Skew, Speaking Turns Skew, Successful Interruption Skew, Unsuccessful Interruptions Skew, Backchannels Skew -->
<g id="node8" class="node">
<title>Speaking Distribution Cues (Speaking Length Skew, Speaking Turns Skew, Successful Interruption Skew, Unsuccessful Interruptions Skew, Backchannels Skew</title>
<g id="a_node8"><a xlink:href="https://scholar.google.com/scholar?hl=en&amp;q=Linking%20Speaking%20and%20Looking%20Behavior%20Patterns%20with%20Group%20Composition,%20Perception,%20and%20Performance" xlink:title="Speaking Distribution Cues (Speaking Length Skew, Speaking Turns Skew, Successful Interruption Skew, Unsuccessful Interruptions Skew, Backchannels Skew" target="_blank">
<ellipse fill="none" stroke="black" cx="1493.82" cy="-477" rx="581.9" ry="18"/>
<text text-anchor="middle" x="1493.82" y="-473.3" font-family="Times,serif" font-size="14.00">Speaking Distribution Cues (Speaking Length Skew, Speaking Turns Skew, Successful Interruption Skew, Unsuccessful Interruptions Skew, Backchannels Skew</text>
</a>
</g>
</g>
<!-- Speaking Distribution Cues (Speaking Length Skew, Speaking Turns Skew, Successful Interruption Skew, Unsuccessful Interruptions Skew, Backchannels Skew&#45;&gt;Group Interpersonal Perception (Perceived Dominance, Perceived Leadership, Perceived Competence, Perceived Liking -->
<g id="edge7" class="edge">
<title>Speaking Distribution Cues (Speaking Length Skew, Speaking Turns Skew, Successful Interruption Skew, Unsuccessful Interruptions Skew, Backchannels Skew&#45;&gt;Group Interpersonal Perception (Perceived Dominance, Perceived Leadership, Perceived Competence, Perceived Liking</title>
<path fill="none" stroke="black" d="M912,-477C903.52,-477 895.06,-477 886.62,-477"/>
<polygon fill="black" stroke="black" points="886.35,-473.5 876.35,-477 886.35,-480.5 886.35,-473.5"/>
</g>
<!-- Synchrony -->
<g id="node9" class="node">
<title>Synchrony</title>
<g id="a_node9"><a xlink:href="https://scholar.google.com/scholar?hl=en&amp;q=Acoustic-Prosodic%20Entrainment%20and%20Rapport%20in%20Collaborative%20Learning%20Dialogues" xlink:title="Synchrony" target="_blank">
<ellipse fill="none" stroke="black" cx="1493.82" cy="-963" rx="48.99" ry="18"/>
<text text-anchor="middle" x="1493.82" y="-959.3" font-family="Times,serif" font-size="14.00">Synchrony</text>
</a>
</g>
</g>
<!-- rapport level -->
<g id="node44" class="node">
<title>rapport level</title>
<ellipse fill="none" stroke="black" cx="438.06" cy="-909" rx="55.79" ry="18"/>
<text text-anchor="middle" x="438.06" y="-905.3" font-family="Times,serif" font-size="14.00">rapport level</text>
</g>
<!-- Synchrony&#45;&gt;rapport level -->
<g id="edge19" class="edge">
<title>Synchrony&#45;&gt;rapport level</title>
<path fill="none" stroke="black" d="M1445.01,-960.95C1345.72,-956.65 1109.92,-946.24 912.12,-936 765.98,-928.43 594.51,-918.34 503.49,-912.89"/>
<polygon fill="black" stroke="black" points="503.52,-909.39 493.33,-912.28 503.1,-916.38 503.52,-909.39"/>
</g>
<!-- 35 Coh&#45;metrix indices -->
<g id="node10" class="node">
<title>35 Coh&#45;metrix indices</title>
<g id="a_node10"><a xlink:href="https://scholar.google.com/scholar?hl=en&amp;q=Predicting%20the%20Quality%20of%20Collaborative%20Problem%20Solving%20Through%20Linguistic%20Analysis%20of%20Discourse" xlink:title="35 Coh&#45;metrix indices" target="_blank">
<ellipse fill="none" stroke="black" cx="1493.82" cy="-315" rx="90.18" ry="18"/>
<text text-anchor="middle" x="1493.82" y="-311.3" font-family="Times,serif" font-size="14.00">35 Coh&#45;metrix indices</text>
</a>
</g>
</g>
<!-- 35 Coh&#45;metrix indices&#45;&gt;Collaboration -->
<g id="edge32" class="edge">
<title>35 Coh&#45;metrix indices&#45;&gt;Collaboration</title>
<path fill="none" stroke="black" d="M1403.43,-315C1197.12,-315 691.34,-315 507.38,-315"/>
<polygon fill="black" stroke="black" points="507.29,-311.5 497.29,-315 507.29,-318.5 507.29,-311.5"/>
</g>
<!-- coherence -->
<g id="node11" class="node">
<title>coherence</title>
<g id="a_node11"><a xlink:href="https://scholar.google.com/scholar?hl=en&amp;q=Does%20Seeing%20One%20Another’s%20Gaze%20Affect%20Group%20Dialogue?" xlink:title="coherence" target="_blank">
<ellipse fill="none" stroke="black" cx="1493.82" cy="-1017" rx="46.29" ry="18"/>
<text text-anchor="middle" x="1493.82" y="-1013.3" font-family="Times,serif" font-size="14.00">coherence</text>
</a>
</g>
</g>
<!-- Joint Visual Attention -->
<g id="node31" class="node">
<title>Joint Visual Attention</title>
<ellipse fill="none" stroke="black" cx="438.06" cy="-1017" rx="88.28" ry="18"/>
<text text-anchor="middle" x="438.06" y="-1013.3" font-family="Times,serif" font-size="14.00">Joint Visual Attention</text>
</g>
<!-- coherence&#45;&gt;Joint Visual Attention -->
<g id="edge31" class="edge">
<title>coherence&#45;&gt;Joint Visual Attention</title>
<path fill="none" stroke="black" d="M1447.54,-1017C1289.23,-1017 758.14,-1017 536.99,-1017"/>
<polygon fill="black" stroke="black" points="536.7,-1013.5 526.7,-1017 536.7,-1020.5 536.7,-1013.5"/>
</g>
<!-- non&#45;verbal speaking metrics (speaking length, interruptions, etc -->
<g id="node12" class="node">
<title>non&#45;verbal speaking metrics (speaking length, interruptions, etc</title>
<g id="a_node12"><a xlink:href="https://scholar.google.com/scholar?hl=en&amp;q=A%20Multimodal-Sensor-Enabled%20Room%20for%20Unobtrusive%20Group%20Meeting%20Analysis" xlink:title="non&#45;verbal speaking metrics (speaking length, interruptions, etc" target="_blank">
<ellipse fill="none" stroke="black" cx="1493.82" cy="-1125" rx="237.46" ry="18"/>
<text text-anchor="middle" x="1493.82" y="-1121.3" font-family="Times,serif" font-size="14.00">non&#45;verbal speaking metrics (speaking length, interruptions, etc</text>
</a>
</g>
</g>
<!-- Contribution perceived -->
<g id="node38" class="node">
<title>Contribution perceived</title>
<ellipse fill="none" stroke="black" cx="438.06" cy="-1125" rx="92.08" ry="18"/>
<text text-anchor="middle" x="438.06" y="-1121.3" font-family="Times,serif" font-size="14.00">Contribution perceived</text>
</g>
<!-- non&#45;verbal speaking metrics (speaking length, interruptions, etc&#45;&gt;Contribution perceived -->
<g id="edge4" class="edge">
<title>non&#45;verbal speaking metrics (speaking length, interruptions, etc&#45;&gt;Contribution perceived</title>
<path fill="none" stroke="black" d="M1256.34,-1125C1031.67,-1125 704.55,-1125 540.65,-1125"/>
<polygon fill="black" stroke="black" points="540.57,-1121.5 530.57,-1125 540.57,-1128.5 540.57,-1121.5"/>
</g>
<!-- Leadership perceived -->
<g id="node42" class="node">
<title>Leadership perceived</title>
<ellipse fill="none" stroke="black" cx="438.06" cy="-1071" rx="86.38" ry="18"/>
<text text-anchor="middle" x="438.06" y="-1067.3" font-family="Times,serif" font-size="14.00">Leadership perceived</text>
</g>
<!-- non&#45;verbal speaking metrics (speaking length, interruptions, etc&#45;&gt;Leadership perceived -->
<g id="edge3" class="edge">
<title>non&#45;verbal speaking metrics (speaking length, interruptions, etc&#45;&gt;Leadership perceived</title>
<path fill="none" stroke="black" d="M1288.21,-1116.01C1176.97,-1111 1036.98,-1104.47 912.12,-1098 779.95,-1091.16 627.06,-1082.25 531.7,-1076.58"/>
<polygon fill="black" stroke="black" points="531.7,-1073.07 521.51,-1075.97 531.29,-1080.06 531.7,-1073.07"/>
</g>
<!-- 88 GeMAPS acoustic features -->
<g id="node13" class="node">
<title>88 GeMAPS acoustic features</title>
<g id="a_node13"><a xlink:href="https://scholar.google.com/scholar?hl=en&amp;q=Automatic%20Recognition%20of%20Affective%20Laughter%20in%20Spontaneous%20Dyadic%20Interactions%20from%20Audiovisual%20Signals" xlink:title="88 GeMAPS acoustic features" target="_blank">
<ellipse fill="none" stroke="black" cx="1493.82" cy="-585" rx="118.08" ry="18"/>
<text text-anchor="middle" x="1493.82" y="-581.3" font-family="Times,serif" font-size="14.00">88 GeMAPS acoustic features</text>
</a>
</g>
</g>
<!-- 88 GeMAPS acoustic features&#45;&gt;Voiced Laughter -->
<g id="edge8" class="edge">
<title>88 GeMAPS acoustic features&#45;&gt;Voiced Laughter</title>
<path fill="none" stroke="black" d="M1379.85,-589.9C1262.82,-595.06 1074.65,-603.58 912.12,-612 772.56,-619.23 609.91,-628.75 516.26,-634.34"/>
<polygon fill="black" stroke="black" points="515.8,-630.86 506.03,-634.95 516.22,-637.85 515.8,-630.86"/>
</g>
<!-- 88 GeMAPS acoustic features&#45;&gt;Speech Laughter -->
<g id="edge13" class="edge">
<title>88 GeMAPS acoustic features&#45;&gt;Speech Laughter</title>
<path fill="none" stroke="black" d="M1383.26,-578.57C1237.71,-571.96 989.87,-568.04 912.12,-612 887.01,-626.2 901.12,-651.61 876.12,-666 758.91,-733.46 593.55,-720.2 503.56,-705.83"/>
<polygon fill="black" stroke="black" points="503.93,-702.35 493.49,-704.17 502.79,-709.25 503.93,-702.35"/>
</g>
<!-- Unvoiced Laughter -->
<g id="node33" class="node">
<title>Unvoiced Laughter</title>
<ellipse fill="none" stroke="black" cx="438.06" cy="-585" rx="79.09" ry="18"/>
<text text-anchor="middle" x="438.06" y="-581.3" font-family="Times,serif" font-size="14.00">Unvoiced Laughter</text>
</g>
<!-- 88 GeMAPS acoustic features&#45;&gt;Unvoiced Laughter -->
<g id="edge11" class="edge">
<title>88 GeMAPS acoustic features&#45;&gt;Unvoiced Laughter</title>
<path fill="none" stroke="black" d="M1375.52,-585C1162.7,-585 717.49,-585 527.76,-585"/>
<polygon fill="black" stroke="black" points="527.55,-581.5 517.55,-585 527.55,-588.5 527.55,-581.5"/>
</g>
<!-- verbal dominance and information metrics [9 metrics] -->
<g id="node14" class="node">
<title>verbal dominance and information metrics [9 metrics]</title>
<g id="a_node14"><a xlink:href="https://scholar.google.com/scholar?hl=en&amp;q=A%20Multimodal-Sensor-Enabled%20Room%20for%20Unobtrusive%20Group%20Meeting%20Analysis" xlink:title="verbal dominance and information metrics [9 metrics]" target="_blank">
<ellipse fill="none" stroke="black" cx="1493.82" cy="-1071" rx="204.16" ry="18"/>
<text text-anchor="middle" x="1493.82" y="-1067.3" font-family="Times,serif" font-size="14.00">verbal dominance and information metrics [9 metrics]</text>
</a>
</g>
</g>
<!-- verbal dominance and information metrics [9 metrics]&#45;&gt;Contribution perceived -->
<g id="edge2" class="edge">
<title>verbal dominance and information metrics [9 metrics]&#45;&gt;Contribution perceived</title>
<path fill="none" stroke="black" d="M1310.69,-1078.97C1196.25,-1084.11 1045.54,-1091.09 912.12,-1098 782.33,-1104.72 632.56,-1113.43 536.91,-1119.11"/>
<polygon fill="black" stroke="black" points="536.44,-1115.63 526.67,-1119.72 536.86,-1122.62 536.44,-1115.63"/>
</g>
<!-- verbal dominance and information metrics [9 metrics]&#45;&gt;Leadership perceived -->
<g id="edge1" class="edge">
<title>verbal dominance and information metrics [9 metrics]&#45;&gt;Leadership perceived</title>
<path fill="none" stroke="black" d="M1289.65,-1071C1062.68,-1071 704.87,-1071 534.88,-1071"/>
<polygon fill="black" stroke="black" points="534.69,-1067.5 524.69,-1071 534.69,-1074.5 534.69,-1067.5"/>
</g>
<!-- talking time -->
<g id="node15" class="node">
<title>talking time</title>
<g id="a_node15"><a xlink:href="https://scholar.google.com/scholar?hl=en&amp;q=Toward%20Using%20Multi-Modal%20Learning%20Analytics%20to%20Support%20and%20Measure%20Collaboration%20in%20Co-Located%20Dyads" xlink:title="talking time" target="_blank">
<ellipse fill="none" stroke="black" cx="1493.82" cy="-1287" rx="53.89" ry="18"/>
<text text-anchor="middle" x="1493.82" y="-1283.3" font-family="Times,serif" font-size="14.00">talking time</text>
</a>
</g>
</g>
<!-- collaboration quality -->
<g id="node41" class="node">
<title>collaboration quality</title>
<ellipse fill="none" stroke="black" cx="438.06" cy="-1233" rx="83.69" ry="18"/>
<text text-anchor="middle" x="438.06" y="-1229.3" font-family="Times,serif" font-size="14.00">collaboration quality</text>
</g>
<!-- talking time&#45;&gt;collaboration quality -->
<g id="edge33" class="edge">
<title>talking time&#45;&gt;collaboration quality</title>
<path fill="none" stroke="black" d="M1439.97,-1284.73C1337.92,-1280.3 1106.65,-1270.07 912.12,-1260 778.76,-1253.09 624.31,-1244.09 529.14,-1238.42"/>
<polygon fill="black" stroke="black" points="529.17,-1234.92 518.98,-1237.82 528.76,-1241.91 529.17,-1234.92"/>
</g>
<!-- speech time and frequency -->
<g id="node16" class="node">
<title>speech time and frequency</title>
<g id="a_node16"><a xlink:href="https://scholar.google.com/scholar?hl=en&amp;q=An%20Automatic%20Approach%20for%20Mining%20Patterns%20of%20Collaboration%20around%20an%20Interactive%20Tabletop" xlink:title="speech time and frequency" target="_blank">
<ellipse fill="none" stroke="black" cx="1493.82" cy="-261" rx="105.88" ry="18"/>
<text text-anchor="middle" x="1493.82" y="-257.3" font-family="Times,serif" font-size="14.00">speech time and frequency</text>
</a>
</g>
</g>
<!-- speech time and frequency&#45;&gt;Collaboration -->
<g id="edge34" class="edge">
<title>speech time and frequency&#45;&gt;Collaboration</title>
<path fill="none" stroke="black" d="M1391.05,-265.41C1275.1,-270.5 1079.94,-279.31 912.12,-288 767.56,-295.49 598.22,-305.44 506.47,-310.93"/>
<polygon fill="black" stroke="black" points="505.99,-307.45 496.21,-311.54 506.4,-314.44 505.99,-307.45"/>
</g>
<!-- thousands of features prosodic speech -->
<g id="node17" class="node">
<title>thousands of features prosodic speech</title>
<g id="a_node17"><a xlink:href="https://scholar.google.com/scholar?hl=en&amp;q=Using%20the%20Tablet%20Gestures%20and%20Speech%20of%20Pairs%20of%20Students%20to%20Classify%20Their%20Collaboration" xlink:title="thousands of features prosodic speech" target="_blank">
<ellipse fill="none" stroke="black" cx="1493.82" cy="-1233" rx="144.87" ry="18"/>
<text text-anchor="middle" x="1493.82" y="-1229.3" font-family="Times,serif" font-size="14.00">thousands of features prosodic speech</text>
</a>
</g>
</g>
<!-- thousands of features prosodic speech&#45;&gt;collaboration quality -->
<g id="edge37" class="edge">
<title>thousands of features prosodic speech&#45;&gt;collaboration quality</title>
<path fill="none" stroke="black" d="M1348.78,-1233C1129.11,-1233 716.49,-1233 532.14,-1233"/>
<polygon fill="black" stroke="black" points="531.94,-1229.5 521.94,-1233 531.94,-1236.5 531.94,-1229.5"/>
</g>
<!-- speech time -->
<g id="node18" class="node">
<title>speech time</title>
<g id="a_node18"><a xlink:href="https://scholar.google.com/scholar?hl=en&amp;q=Using%20the%20Tablet%20Gestures%20and%20Speech%20of%20Pairs%20of%20Students%20to%20Classify%20Their%20Collaboration" xlink:title="speech time" target="_blank">
<ellipse fill="none" stroke="black" cx="1493.82" cy="-1179" rx="53.09" ry="18"/>
<text text-anchor="middle" x="1493.82" y="-1175.3" font-family="Times,serif" font-size="14.00">speech time</text>
</a>
</g>
</g>
<!-- speech time&#45;&gt;collaboration quality -->
<g id="edge36" class="edge">
<title>speech time&#45;&gt;collaboration quality</title>
<path fill="none" stroke="black" d="M1440.76,-1181.24C1339.12,-1185.64 1107.15,-1195.9 912.12,-1206 778.76,-1212.91 624.31,-1221.91 529.14,-1227.58"/>
<polygon fill="black" stroke="black" points="528.76,-1224.09 518.98,-1228.18 529.17,-1231.08 528.76,-1224.09"/>
</g>
<!-- Silence and Overlap Cues (Fraction of Silence, Fraction of Nonoverlapped Speech, Fraction of two&#45;people and three&#45;people Overlapped Speech -->
<g id="node19" class="node">
<title>Silence and Overlap Cues (Fraction of Silence, Fraction of Nonoverlapped Speech, Fraction of two&#45;people and three&#45;people Overlapped Speech</title>
<g id="a_node19"><a xlink:href="https://scholar.google.com/scholar?hl=en&amp;q=Linking%20Speaking%20and%20Looking%20Behavior%20Patterns%20with%20Group%20Composition,%20Perception,%20and%20Performance" xlink:title="Silence and Overlap Cues (Fraction of Silence, Fraction of Nonoverlapped Speech, Fraction of two&#45;people and three&#45;people Overlapped Speech" target="_blank">
<ellipse fill="none" stroke="black" cx="1493.82" cy="-423" rx="521.81" ry="18"/>
<text text-anchor="middle" x="1493.82" y="-419.3" font-family="Times,serif" font-size="14.00">Silence and Overlap Cues (Fraction of Silence, Fraction of Nonoverlapped Speech, Fraction of two&#45;people and three&#45;people Overlapped Speech</text>
</a>
</g>
</g>
<!-- Silence and Overlap Cues (Fraction of Silence, Fraction of Nonoverlapped Speech, Fraction of two&#45;people and three&#45;people Overlapped Speech&#45;&gt;Group Interpersonal Perception (Perceived Dominance, Perceived Leadership, Perceived Competence, Perceived Liking -->
<g id="edge6" class="edge">
<title>Silence and Overlap Cues (Fraction of Silence, Fraction of Nonoverlapped Speech, Fraction of two&#45;people and three&#45;people Overlapped Speech&#45;&gt;Group Interpersonal Perception (Perceived Dominance, Perceived Leadership, Perceived Competence, Perceived Liking</title>
<path fill="none" stroke="black" d="M1173.69,-437.23C1088.68,-441.19 996.91,-445.61 912.12,-450 843.12,-453.57 768.47,-457.71 699.31,-461.65"/>
<polygon fill="black" stroke="black" points="698.93,-458.17 689.15,-462.23 699.33,-465.16 698.93,-458.17"/>
</g>
<!-- Convergence -->
<g id="node20" class="node">
<title>Convergence</title>
<g id="a_node20"><a xlink:href="https://scholar.google.com/scholar?hl=en&amp;q=Acoustic-Prosodic%20Entrainment%20and%20Rapport%20in%20Collaborative%20Learning%20Dialogues" xlink:title="Convergence" target="_blank">
<ellipse fill="none" stroke="black" cx="1493.82" cy="-909" rx="57.39" ry="18"/>
<text text-anchor="middle" x="1493.82" y="-905.3" font-family="Times,serif" font-size="14.00">Convergence</text>
</a>
</g>
</g>
<!-- Convergence&#45;&gt;rapport level -->
<g id="edge18" class="edge">
<title>Convergence&#45;&gt;rapport level</title>
<path fill="none" stroke="black" d="M1436.54,-909C1256.67,-909 696.33,-909 504.36,-909"/>
<polygon fill="black" stroke="black" points="504.14,-905.5 494.14,-909 504.14,-912.5 504.14,-905.5"/>
</g>
<!-- Sequences of verbal utterances -->
<g id="node21" class="node">
<title>Sequences of verbal utterances</title>
<g id="a_node21"><a xlink:href="https://scholar.google.com/scholar?hl=en&amp;q=Capturing%20and%20analyzing%20verbal%20and%20physical%20collaborative%20learning%20interactions%20at%20an%20enriched%20interactive%20tabletop" xlink:title="Sequences of verbal utterances" target="_blank">
<ellipse fill="none" stroke="black" cx="1493.82" cy="-1341" rx="120.48" ry="18"/>
<text text-anchor="middle" x="1493.82" y="-1337.3" font-family="Times,serif" font-size="14.00">Sequences of verbal utterances</text>
</a>
</g>
</g>
<!-- Colloboration quality -->
<g id="node37" class="node">
<title>Colloboration quality</title>
<ellipse fill="none" stroke="black" cx="438.06" cy="-1341" rx="86.38" ry="18"/>
<text text-anchor="middle" x="438.06" y="-1337.3" font-family="Times,serif" font-size="14.00">Colloboration quality</text>
</g>
<!-- Sequences of verbal utterances&#45;&gt;Colloboration quality -->
<g id="edge29" class="edge">
<title>Sequences of verbal utterances&#45;&gt;Colloboration quality</title>
<path fill="none" stroke="black" d="M1373.48,-1341C1162.52,-1341 727.85,-1341 534.92,-1341"/>
<polygon fill="black" stroke="black" points="534.8,-1337.5 524.8,-1341 534.8,-1344.5 534.8,-1337.5"/>
</g>
<!-- 6 One Vs All Features -->
<g id="node22" class="node">
<title>6 One Vs All Features</title>
<g id="a_node22"><a xlink:href="https://scholar.google.com/scholar?hl=en&amp;q=Personality%20classification%20and%20behaviour%20interpretation:%20An%20approach%20based%20on%20feature%20categories" xlink:title="6 One Vs All Features" target="_blank">
<ellipse fill="none" stroke="black" cx="1493.82" cy="-1395" rx="89.88" ry="18"/>
<text text-anchor="middle" x="1493.82" y="-1391.3" font-family="Times,serif" font-size="14.00">6 One Vs All Features</text>
</a>
</g>
</g>
<!-- Social Impressions -->
<g id="node36" class="node">
<title>Social Impressions</title>
<ellipse fill="none" stroke="black" cx="438.06" cy="-1395" rx="77.99" ry="18"/>
<text text-anchor="middle" x="438.06" y="-1391.3" font-family="Times,serif" font-size="14.00">Social Impressions</text>
</g>
<!-- 6 One Vs All Features&#45;&gt;Social Impressions -->
<g id="edge20" class="edge">
<title>6 One Vs All Features&#45;&gt;Social Impressions</title>
<path fill="none" stroke="black" d="M1403.89,-1395C1204.54,-1395 723.96,-1395 526.25,-1395"/>
<polygon fill="black" stroke="black" points="526.2,-1391.5 516.2,-1395 526.2,-1398.5 526.2,-1391.5"/>
</g>
<!-- voice features (4 features -->
<g id="node23" class="node">
<title>voice features (4 features</title>
<g id="a_node23"><a xlink:href="https://scholar.google.com/scholar?hl=en&amp;q=Multimodal%20Analysis%20of%20Vocal%20Collaborative%20Search:A%20Public%20Corpus%20and%20Results" xlink:title="voice features (4 features" target="_blank">
<ellipse fill="none" stroke="black" cx="1493.82" cy="-45" rx="100.18" ry="18"/>
<text text-anchor="middle" x="1493.82" y="-41.3" font-family="Times,serif" font-size="14.00">voice features (4 features</text>
</a>
</g>
</g>
<!-- voice features (4 features&#45;&gt;perception of peer helpfulness -->
<g id="edge24" class="edge">
<title>voice features (4 features&#45;&gt;perception of peer helpfulness</title>
<path fill="none" stroke="black" d="M1412.96,-34.28C1298.3,-22.05 1082.13,-10.91 912.12,-72 893.3,-78.76 894.89,-92.09 876.12,-99 769.36,-138.29 638.07,-140.87 547.41,-136.23"/>
<polygon fill="black" stroke="black" points="547.57,-132.74 537.39,-135.68 547.19,-139.73 547.57,-132.74"/>
</g>
<!-- voice features (4 features&#45;&gt;perception of peer clarity -->
<g id="edge28" class="edge">
<title>voice features (4 features&#45;&gt;perception of peer clarity</title>
<path fill="none" stroke="black" d="M1394.63,-47.52C1197.17,-52.58 753.35,-63.95 547.6,-69.22"/>
<polygon fill="black" stroke="black" points="547.29,-65.73 537.38,-69.48 547.47,-72.72 547.29,-65.73"/>
</g>
<!-- voice features (4 features&#45;&gt;perception of peer understanding -->
<g id="edge26" class="edge">
<title>voice features (4 features&#45;&gt;perception of peer understanding</title>
<path fill="none" stroke="black" d="M1394.63,-42.48C1205.15,-37.63 788.8,-26.96 573.67,-21.45"/>
<polygon fill="black" stroke="black" points="573.66,-17.95 563.58,-21.19 573.48,-24.95 573.66,-17.95"/>
</g>
<!-- Proximity -->
<g id="node24" class="node">
<title>Proximity</title>
<g id="a_node24"><a xlink:href="https://scholar.google.com/scholar?hl=en&amp;q=Acoustic-Prosodic%20Entrainment%20and%20Rapport%20in%20Collaborative%20Learning%20Dialogues" xlink:title="Proximity" target="_blank">
<ellipse fill="none" stroke="black" cx="1493.82" cy="-855" rx="46.29" ry="18"/>
<text text-anchor="middle" x="1493.82" y="-851.3" font-family="Times,serif" font-size="14.00">Proximity</text>
</a>
</g>
</g>
<!-- Proximity&#45;&gt;rapport level -->
<g id="edge17" class="edge">
<title>Proximity&#45;&gt;rapport level</title>
<path fill="none" stroke="black" d="M1447.64,-856.94C1349.93,-861.17 1111.69,-871.67 912.12,-882 765.98,-889.57 594.51,-899.66 503.49,-905.11"/>
<polygon fill="black" stroke="black" points="503.1,-901.62 493.33,-905.72 503.52,-908.61 503.1,-901.62"/>
</g>
<!-- 12 MFCCs -->
<g id="node25" class="node">
<title>12 MFCCs</title>
<g id="a_node25"><a xlink:href="https://scholar.google.com/scholar?hl=en&amp;q=Automatic%20Recognition%20of%20Affective%20Laughter%20in%20Spontaneous%20Dyadic%20Interactions%20from%20Audiovisual%20Signals" xlink:title="12 MFCCs" target="_blank">
<ellipse fill="none" stroke="black" cx="1493.82" cy="-639" rx="50.09" ry="18"/>
<text text-anchor="middle" x="1493.82" y="-635.3" font-family="Times,serif" font-size="14.00">12 MFCCs</text>
</a>
</g>
</g>
<!-- 12 MFCCs&#45;&gt;Voiced Laughter -->
<g id="edge10" class="edge">
<title>12 MFCCs&#45;&gt;Voiced Laughter</title>
<path fill="none" stroke="black" d="M1443.76,-639C1276.04,-639 724.49,-639 518.02,-639"/>
<polygon fill="black" stroke="black" points="517.86,-635.5 507.86,-639 517.86,-642.5 517.86,-635.5"/>
</g>
<!-- 12 MFCCs&#45;&gt;Speech Laughter -->
<g id="edge15" class="edge">
<title>12 MFCCs&#45;&gt;Speech Laughter</title>
<path fill="none" stroke="black" d="M1443.87,-641.1C1343.92,-645.43 1109.17,-655.8 912.12,-666 772.96,-673.21 610.83,-682.7 517.06,-688.3"/>
<polygon fill="black" stroke="black" points="516.58,-684.82 506.81,-688.91 517,-691.81 516.58,-684.82"/>
</g>
<!-- 12 MFCCs&#45;&gt;Unvoiced Laughter -->
<g id="edge12" class="edge">
<title>12 MFCCs&#45;&gt;Unvoiced Laughter</title>
<path fill="none" stroke="black" d="M1443.87,-636.9C1343.92,-632.57 1109.17,-622.2 912.12,-612 776.78,-604.99 619.72,-595.82 524.94,-590.17"/>
<polygon fill="black" stroke="black" points="525.02,-586.67 514.83,-589.57 524.61,-593.66 525.02,-586.67"/>
</g>
</g>
</svg>
