<?xml version="1.0" encoding="UTF-8" standalone="no"?>
<!DOCTYPE svg PUBLIC "-//W3C//DTD SVG 1.1//EN"
 "http://www.w3.org/Graphics/SVG/1.1/DTD/svg11.dtd">
<!-- Generated by graphviz version 2.47.0 (20210316.0004)
 -->
<!-- Title: Test Pages: 1 -->
<svg width="720pt" height="500pt"
 viewBox="0.00 0.00 720.00 500.38" xmlns="http://www.w3.org/2000/svg" xmlns:xlink="http://www.w3.org/1999/xlink">
<g id="graph0" class="graph" transform="scale(0.35 0.35) rotate(0) translate(4 1444)">
<title>Test</title>
<polygon fill="white" stroke="transparent" points="-4,4 -4,-1444 2079.52,-1444 2079.52,4 -4,4"/>
<!-- speech time and frequency -->
<g id="node1" class="node">
<title>speech time and frequency</title>
<g id="a_node1"><a xlink:href="https://scholar.google.com/scholar?hl=en&amp;q=An%20Automatic%20Approach%20for%20Mining%20Patterns%20of%20Collaboration%20around%20an%20Interactive%20Tabletop" xlink:title="speech time and frequency">
<ellipse fill="none" stroke="black" cx="1493.82" cy="-126" rx="105.88" ry="18"/>
<text text-anchor="middle" x="1493.82" y="-122.3" font-family="Times,serif" font-size="14.00">speech time and frequency</text>
</a>
</g>
</g>
<!-- Collaboration -->
<g id="node35" class="node">
<title>Collaboration</title>
<ellipse fill="none" stroke="black" cx="438.06" cy="-72" rx="59.29" ry="18"/>
<text text-anchor="middle" x="438.06" y="-68.3" font-family="Times,serif" font-size="14.00">Collaboration</text>
</g>
<!-- speech time and frequency&#45;&gt;Collaboration -->
<g id="edge34" class="edge">
<title>speech time and frequency&#45;&gt;Collaboration</title>
<path fill="none" stroke="black" d="M1391.05,-121.59C1275.1,-116.5 1079.94,-107.69 912.12,-99 767.56,-91.51 598.22,-81.56 506.47,-76.07"/>
<polygon fill="black" stroke="black" points="506.4,-72.56 496.21,-75.46 505.99,-79.55 506.4,-72.56"/>
</g>
<!-- speech time -->
<g id="node2" class="node">
<title>speech time</title>
<g id="a_node2"><a xlink:href="https://scholar.google.com/scholar?hl=en&amp;q=Using%20the%20Tablet%20Gestures%20and%20Speech%20of%20Pairs%20of%20Students%20to%20Classify%20Their%20Collaboration" xlink:title="speech time">
<ellipse fill="none" stroke="black" cx="1493.82" cy="-288" rx="53.09" ry="18"/>
<text text-anchor="middle" x="1493.82" y="-284.3" font-family="Times,serif" font-size="14.00">speech time</text>
</a>
</g>
</g>
<!-- collaboration quality -->
<g id="node27" class="node">
<title>collaboration quality</title>
<ellipse fill="none" stroke="black" cx="438.06" cy="-234" rx="83.69" ry="18"/>
<text text-anchor="middle" x="438.06" y="-230.3" font-family="Times,serif" font-size="14.00">collaboration quality</text>
</g>
<!-- speech time&#45;&gt;collaboration quality -->
<g id="edge36" class="edge">
<title>speech time&#45;&gt;collaboration quality</title>
<path fill="none" stroke="black" d="M1440.76,-285.76C1339.12,-281.36 1107.15,-271.1 912.12,-261 778.76,-254.09 624.31,-245.09 529.14,-239.42"/>
<polygon fill="black" stroke="black" points="529.17,-235.92 518.98,-238.82 528.76,-242.91 529.17,-235.92"/>
</g>
<!-- 102 extended GeMAPs acoustic features -->
<g id="node3" class="node">
<title>102 extended GeMAPs acoustic features</title>
<g id="a_node3"><a xlink:href="https://scholar.google.com/scholar?hl=en&amp;q=Automatic%20Recognition%20of%20Affective%20Laughter%20in%20Spontaneous%20Dyadic%20Interactions%20from%20Audiovisual%20Signals" xlink:title="102 extended GeMAPs acoustic features">
<ellipse fill="none" stroke="black" cx="1493.82" cy="-450" rx="155.17" ry="18"/>
<text text-anchor="middle" x="1493.82" y="-446.3" font-family="Times,serif" font-size="14.00">102 extended GeMAPs acoustic features</text>
</a>
</g>
</g>
<!-- Speech Laughter -->
<g id="node41" class="node">
<title>Speech Laughter</title>
<ellipse fill="none" stroke="black" cx="438.06" cy="-396" rx="70.39" ry="18"/>
<text text-anchor="middle" x="438.06" y="-392.3" font-family="Times,serif" font-size="14.00">Speech Laughter</text>
</g>
<!-- 102 extended GeMAPs acoustic features&#45;&gt;Speech Laughter -->
<g id="edge14" class="edge">
<title>102 extended GeMAPs acoustic features&#45;&gt;Speech Laughter</title>
<path fill="none" stroke="black" d="M1348.12,-443.7C1230.63,-438.48 1060.66,-430.69 912.12,-423 772.96,-415.79 610.83,-406.3 517.06,-400.7"/>
<polygon fill="black" stroke="black" points="517,-397.19 506.81,-400.09 516.58,-404.18 517,-397.19"/>
</g>
<!-- Voiced Laughter -->
<g id="node44" class="node">
<title>Voiced Laughter</title>
<ellipse fill="none" stroke="black" cx="438.06" cy="-450" rx="69.59" ry="18"/>
<text text-anchor="middle" x="438.06" y="-446.3" font-family="Times,serif" font-size="14.00">Voiced Laughter</text>
</g>
<!-- 102 extended GeMAPs acoustic features&#45;&gt;Voiced Laughter -->
<g id="edge9" class="edge">
<title>102 extended GeMAPs acoustic features&#45;&gt;Voiced Laughter</title>
<path fill="none" stroke="black" d="M1338.47,-450C1110.34,-450 691.47,-450 517.76,-450"/>
<polygon fill="black" stroke="black" points="517.67,-446.5 507.67,-450 517.67,-453.5 517.67,-446.5"/>
</g>
<!-- coherence -->
<g id="node4" class="node">
<title>coherence</title>
<g id="a_node4"><a xlink:href="https://scholar.google.com/scholar?hl=en&amp;q=Does%20Seeing%20One%20Another’s%20Gaze%20Affect%20Group%20Dialogue?" xlink:title="coherence">
<ellipse fill="none" stroke="black" cx="1493.82" cy="-504" rx="46.29" ry="18"/>
<text text-anchor="middle" x="1493.82" y="-500.3" font-family="Times,serif" font-size="14.00">coherence</text>
</a>
</g>
</g>
<!-- Joint Visual Attention -->
<g id="node30" class="node">
<title>Joint Visual Attention</title>
<ellipse fill="none" stroke="black" cx="438.06" cy="-504" rx="88.28" ry="18"/>
<text text-anchor="middle" x="438.06" y="-500.3" font-family="Times,serif" font-size="14.00">Joint Visual Attention</text>
</g>
<!-- coherence&#45;&gt;Joint Visual Attention -->
<g id="edge31" class="edge">
<title>coherence&#45;&gt;Joint Visual Attention</title>
<path fill="none" stroke="black" d="M1447.54,-504C1289.23,-504 758.14,-504 536.99,-504"/>
<polygon fill="black" stroke="black" points="536.7,-500.5 526.7,-504 536.7,-507.5 536.7,-500.5"/>
</g>
<!-- 6 One Vs All Features -->
<g id="node5" class="node">
<title>6 One Vs All Features</title>
<g id="a_node5"><a xlink:href="https://scholar.google.com/scholar?hl=en&amp;q=Personality%20classification%20and%20behaviour%20interpretation:%20An%20approach%20based%20on%20feature%20categories" xlink:title="6 One Vs All Features">
<ellipse fill="none" stroke="black" cx="1493.82" cy="-558" rx="89.88" ry="18"/>
<text text-anchor="middle" x="1493.82" y="-554.3" font-family="Times,serif" font-size="14.00">6 One Vs All Features</text>
</a>
</g>
</g>
<!-- Social Impressions -->
<g id="node39" class="node">
<title>Social Impressions</title>
<ellipse fill="none" stroke="black" cx="438.06" cy="-558" rx="77.99" ry="18"/>
<text text-anchor="middle" x="438.06" y="-554.3" font-family="Times,serif" font-size="14.00">Social Impressions</text>
</g>
<!-- 6 One Vs All Features&#45;&gt;Social Impressions -->
<g id="edge20" class="edge">
<title>6 One Vs All Features&#45;&gt;Social Impressions</title>
<path fill="none" stroke="black" d="M1403.89,-558C1204.54,-558 723.96,-558 526.25,-558"/>
<polygon fill="black" stroke="black" points="526.2,-554.5 516.2,-558 526.2,-561.5 526.2,-554.5"/>
</g>
<!-- Group Participation Speaking Cues (Speaking Length, Speaking Turns, Successful Interruptions, Unsuccessful Interruptions, Backchannels -->
<g id="node6" class="node">
<title>Group Participation Speaking Cues (Speaking Length, Speaking Turns, Successful Interruptions, Unsuccessful Interruptions, Backchannels</title>
<g id="a_node6"><a xlink:href="https://scholar.google.com/scholar?hl=en&amp;q=Linking%20Speaking%20and%20Looking%20Behavior%20Patterns%20with%20Group%20Composition,%20Perception,%20and%20Performance" xlink:title="Group Participation Speaking Cues (Speaking Length, Speaking Turns, Successful Interruptions, Unsuccessful Interruptions, Backchannels">
<ellipse fill="none" stroke="black" cx="1493.82" cy="-720" rx="504.21" ry="18"/>
<text text-anchor="middle" x="1493.82" y="-716.3" font-family="Times,serif" font-size="14.00">Group Participation Speaking Cues (Speaking Length, Speaking Turns, Successful Interruptions, Unsuccessful Interruptions, Backchannels</text>
</a>
</g>
</g>
<!-- Group Interpersonal Perception (Perceived Dominance, Perceived Leadership, Perceived Competence, Perceived Liking -->
<g id="node37" class="node">
<title>Group Interpersonal Perception (Perceived Dominance, Perceived Leadership, Perceived Competence, Perceived Liking</title>
<ellipse fill="none" stroke="black" cx="438.06" cy="-666" rx="438.12" ry="18"/>
<text text-anchor="middle" x="438.06" y="-662.3" font-family="Times,serif" font-size="14.00">Group Interpersonal Perception (Perceived Dominance, Perceived Leadership, Perceived Competence, Perceived Liking</text>
</g>
<!-- Group Participation Speaking Cues (Speaking Length, Speaking Turns, Successful Interruptions, Unsuccessful Interruptions, Backchannels&#45;&gt;Group Interpersonal Perception (Perceived Dominance, Perceived Leadership, Perceived Competence, Perceived Liking -->
<g id="edge5" class="edge">
<title>Group Participation Speaking Cues (Speaking Length, Speaking Turns, Successful Interruptions, Unsuccessful Interruptions, Backchannels&#45;&gt;Group Interpersonal Perception (Perceived Dominance, Perceived Leadership, Perceived Competence, Perceived Liking</title>
<path fill="none" stroke="black" d="M1177.85,-705.96C1091.68,-701.96 998.3,-697.46 912.12,-693 843.12,-689.43 768.47,-685.29 699.31,-681.35"/>
<polygon fill="black" stroke="black" points="699.33,-677.84 689.15,-680.77 698.93,-684.83 699.33,-677.84"/>
</g>
<!-- Proximity -->
<g id="node7" class="node">
<title>Proximity</title>
<g id="a_node7"><a xlink:href="https://scholar.google.com/scholar?hl=en&amp;q=Acoustic-Prosodic%20Entrainment%20and%20Rapport%20in%20Collaborative%20Learning%20Dialogues" xlink:title="Proximity">
<ellipse fill="none" stroke="black" cx="1493.82" cy="-882" rx="46.29" ry="18"/>
<text text-anchor="middle" x="1493.82" y="-878.3" font-family="Times,serif" font-size="14.00">Proximity</text>
</a>
</g>
</g>
<!-- rapport level -->
<g id="node42" class="node">
<title>rapport level</title>
<ellipse fill="none" stroke="black" cx="438.06" cy="-828" rx="55.79" ry="18"/>
<text text-anchor="middle" x="438.06" y="-824.3" font-family="Times,serif" font-size="14.00">rapport level</text>
</g>
<!-- Proximity&#45;&gt;rapport level -->
<g id="edge17" class="edge">
<title>Proximity&#45;&gt;rapport level</title>
<path fill="none" stroke="black" d="M1447.64,-880.06C1349.93,-875.83 1111.69,-865.33 912.12,-855 765.98,-847.43 594.51,-837.34 503.49,-831.89"/>
<polygon fill="black" stroke="black" points="503.52,-828.39 493.33,-831.28 503.1,-835.38 503.52,-828.39"/>
</g>
<!-- non&#45;verbal speaking metrics (speaking length, interruptions, etc -->
<g id="node8" class="node">
<title>non&#45;verbal speaking metrics (speaking length, interruptions, etc</title>
<g id="a_node8"><a xlink:href="https://scholar.google.com/scholar?hl=en&amp;q=A%20Multimodal-Sensor-Enabled%20Room%20for%20Unobtrusive%20Group%20Meeting%20Analysis" xlink:title="non&#45;verbal speaking metrics (speaking length, interruptions, etc">
<ellipse fill="none" stroke="black" cx="1493.82" cy="-990" rx="237.46" ry="18"/>
<text text-anchor="middle" x="1493.82" y="-986.3" font-family="Times,serif" font-size="14.00">non&#45;verbal speaking metrics (speaking length, interruptions, etc</text>
</a>
</g>
</g>
<!-- Leadership perceived -->
<g id="node32" class="node">
<title>Leadership perceived</title>
<ellipse fill="none" stroke="black" cx="438.06" cy="-990" rx="86.38" ry="18"/>
<text text-anchor="middle" x="438.06" y="-986.3" font-family="Times,serif" font-size="14.00">Leadership perceived</text>
</g>
<!-- non&#45;verbal speaking metrics (speaking length, interruptions, etc&#45;&gt;Leadership perceived -->
<g id="edge3" class="edge">
<title>non&#45;verbal speaking metrics (speaking length, interruptions, etc&#45;&gt;Leadership perceived</title>
<path fill="none" stroke="black" d="M1256.34,-990C1029.07,-990 696.98,-990 535.03,-990"/>
<polygon fill="black" stroke="black" points="534.61,-986.5 524.61,-990 534.61,-993.5 534.61,-986.5"/>
</g>
<!-- Contribution perceived -->
<g id="node43" class="node">
<title>Contribution perceived</title>
<ellipse fill="none" stroke="black" cx="438.06" cy="-936" rx="92.08" ry="18"/>
<text text-anchor="middle" x="438.06" y="-932.3" font-family="Times,serif" font-size="14.00">Contribution perceived</text>
</g>
<!-- non&#45;verbal speaking metrics (speaking length, interruptions, etc&#45;&gt;Contribution perceived -->
<g id="edge4" class="edge">
<title>non&#45;verbal speaking metrics (speaking length, interruptions, etc&#45;&gt;Contribution perceived</title>
<path fill="none" stroke="black" d="M1288.21,-981.01C1176.97,-976 1036.98,-969.47 912.12,-963 782.33,-956.28 632.56,-947.57 536.91,-941.89"/>
<polygon fill="black" stroke="black" points="536.86,-938.38 526.67,-941.28 536.44,-945.37 536.86,-938.38"/>
</g>
<!-- Synchrony -->
<g id="node9" class="node">
<title>Synchrony</title>
<g id="a_node9"><a xlink:href="https://scholar.google.com/scholar?hl=en&amp;q=Acoustic-Prosodic%20Entrainment%20and%20Rapport%20in%20Collaborative%20Learning%20Dialogues" xlink:title="Synchrony">
<ellipse fill="none" stroke="black" cx="1493.82" cy="-828" rx="48.99" ry="18"/>
<text text-anchor="middle" x="1493.82" y="-824.3" font-family="Times,serif" font-size="14.00">Synchrony</text>
</a>
</g>
</g>
<!-- Synchrony&#45;&gt;rapport level -->
<g id="edge19" class="edge">
<title>Synchrony&#45;&gt;rapport level</title>
<path fill="none" stroke="black" d="M1444.8,-828C1274.52,-828 699.3,-828 504.32,-828"/>
<polygon fill="black" stroke="black" points="504.22,-824.5 494.22,-828 504.22,-831.5 504.22,-824.5"/>
</g>
<!-- symmetry of speech among group -->
<g id="node10" class="node">
<title>symmetry of speech among group</title>
<g id="a_node10"><a xlink:href="https://scholar.google.com/scholar?hl=en&amp;q=An%20Automatic%20Approach%20for%20Mining%20Patterns%20of%20Collaboration%20around%20an%20Interactive%20Tabletop" xlink:title="symmetry of speech among group">
<ellipse fill="none" stroke="black" cx="1493.82" cy="-72" rx="132.68" ry="18"/>
<text text-anchor="middle" x="1493.82" y="-68.3" font-family="Times,serif" font-size="14.00">symmetry of speech among group</text>
</a>
</g>
</g>
<!-- symmetry of speech among group&#45;&gt;Collaboration -->
<g id="edge35" class="edge">
<title>symmetry of speech among group&#45;&gt;Collaboration</title>
<path fill="none" stroke="black" d="M1361.23,-72C1134.98,-72 679.99,-72 507.49,-72"/>
<polygon fill="black" stroke="black" points="507.27,-68.5 497.27,-72 507.27,-75.5 507.27,-68.5"/>
</g>
<!-- Speaking Activity (Speaking length, Speaking turns, Speaking interruptions, Average speaking turn duration -->
<g id="node11" class="node">
<title>Speaking Activity (Speaking length, Speaking turns, Speaking interruptions, Average speaking turn duration</title>
<g id="a_node11"><a xlink:href="https://scholar.google.com/scholar?hl=en&amp;q=Emergent%20leaders%20through%20looking%20and%20speaking:%20from%20audio-visual%20data%20to%20multimodal%20recognition" xlink:title="Speaking Activity (Speaking length, Speaking turns, Speaking interruptions, Average speaking turn duration">
<ellipse fill="none" stroke="black" cx="1493.82" cy="-1071" rx="394.53" ry="18"/>
<text text-anchor="middle" x="1493.82" y="-1067.3" font-family="Times,serif" font-size="14.00">Speaking Activity (Speaking length, Speaking turns, Speaking interruptions, Average speaking turn duration</text>
</a>
</g>
</g>
<!-- Perception of leadership and dominance from external observers -->
<g id="node28" class="node">
<title>Perception of leadership and dominance from external observers</title>
<ellipse fill="none" stroke="black" cx="438.06" cy="-1098" rx="239.66" ry="18"/>
<text text-anchor="middle" x="438.06" y="-1094.3" font-family="Times,serif" font-size="14.00">Perception of leadership and dominance from external observers</text>
</g>
<!-- Speaking Activity (Speaking length, Speaking turns, Speaking interruptions, Average speaking turn duration&#45;&gt;Perception of leadership and dominance from external observers -->
<g id="edge21" class="edge">
<title>Speaking Activity (Speaking length, Speaking turns, Speaking interruptions, Average speaking turn duration&#45;&gt;Perception of leadership and dominance from external observers</title>
<path fill="none" stroke="black" d="M1149.24,-1079.8C994.4,-1083.77 815.44,-1088.36 675.91,-1091.93"/>
<polygon fill="black" stroke="black" points="675.41,-1088.44 665.51,-1092.2 675.59,-1095.44 675.41,-1088.44"/>
</g>
<!-- Ranked dominance -->
<g id="node40" class="node">
<title>Ranked dominance</title>
<ellipse fill="none" stroke="black" cx="438.06" cy="-1044" rx="79.09" ry="18"/>
<text text-anchor="middle" x="438.06" y="-1040.3" font-family="Times,serif" font-size="14.00">Ranked dominance</text>
</g>
<!-- Speaking Activity (Speaking length, Speaking turns, Speaking interruptions, Average speaking turn duration&#45;&gt;Ranked dominance -->
<g id="edge22" class="edge">
<title>Speaking Activity (Speaking length, Speaking turns, Speaking interruptions, Average speaking turn duration&#45;&gt;Ranked dominance</title>
<path fill="none" stroke="black" d="M1149.24,-1062.2C930.32,-1056.59 663.16,-1049.74 527.41,-1046.26"/>
<polygon fill="black" stroke="black" points="527.16,-1042.76 517.07,-1046 526.98,-1049.75 527.16,-1042.76"/>
</g>
<!-- linguistic features from transcript (65 features -->
<g id="node12" class="node">
<title>linguistic features from transcript (65 features</title>
<g id="a_node12"><a xlink:href="https://scholar.google.com/scholar?hl=en&amp;q=Multimodal%20Analysis%20of%20Vocal%20Collaborative%20Search:A%20Public%20Corpus%20and%20Results" xlink:title="linguistic features from transcript (65 features">
<ellipse fill="none" stroke="black" cx="1493.82" cy="-1233" rx="173.57" ry="18"/>
<text text-anchor="middle" x="1493.82" y="-1229.3" font-family="Times,serif" font-size="14.00">linguistic features from transcript (65 features</text>
</a>
</g>
</g>
<!-- perception of peer helpfulness -->
<g id="node26" class="node">
<title>perception of peer helpfulness</title>
<ellipse fill="none" stroke="black" cx="438.06" cy="-1260" rx="117.78" ry="18"/>
<text text-anchor="middle" x="438.06" y="-1256.3" font-family="Times,serif" font-size="14.00">perception of peer helpfulness</text>
</g>
<!-- linguistic features from transcript (65 features&#45;&gt;perception of peer helpfulness -->
<g id="edge23" class="edge">
<title>linguistic features from transcript (65 features&#45;&gt;perception of peer helpfulness</title>
<path fill="none" stroke="black" d="M1325.27,-1237.29C1113.47,-1242.72 753.72,-1251.94 564.28,-1256.79"/>
<polygon fill="black" stroke="black" points="564.19,-1253.29 554.28,-1257.05 564.37,-1260.29 564.19,-1253.29"/>
</g>
<!-- perception of peer understanding -->
<g id="node31" class="node">
<title>perception of peer understanding</title>
<ellipse fill="none" stroke="black" cx="438.06" cy="-1206" rx="127.28" ry="18"/>
<text text-anchor="middle" x="438.06" y="-1202.3" font-family="Times,serif" font-size="14.00">perception of peer understanding</text>
</g>
<!-- linguistic features from transcript (65 features&#45;&gt;perception of peer understanding -->
<g id="edge25" class="edge">
<title>linguistic features from transcript (65 features&#45;&gt;perception of peer understanding</title>
<path fill="none" stroke="black" d="M1325.27,-1228.71C1116.89,-1223.37 765.31,-1214.36 573.6,-1209.45"/>
<polygon fill="black" stroke="black" points="573.55,-1205.94 563.46,-1209.19 573.37,-1212.94 573.55,-1205.94"/>
</g>
<!-- perception of peer clarity -->
<g id="node36" class="node">
<title>perception of peer clarity</title>
<ellipse fill="none" stroke="black" cx="438.06" cy="-1152" rx="100.18" ry="18"/>
<text text-anchor="middle" x="438.06" y="-1148.3" font-family="Times,serif" font-size="14.00">perception of peer clarity</text>
</g>
<!-- linguistic features from transcript (65 features&#45;&gt;perception of peer clarity -->
<g id="edge27" class="edge">
<title>linguistic features from transcript (65 features&#45;&gt;perception of peer clarity</title>
<path fill="none" stroke="black" d="M1381.81,-1246.76C1262.1,-1257.32 1067.77,-1261.93 912.12,-1206 893.3,-1199.24 894.89,-1185.91 876.12,-1179 764.55,-1137.94 626.19,-1136.97 535.41,-1142.43"/>
<polygon fill="black" stroke="black" points="535.16,-1138.94 525.4,-1143.07 535.6,-1145.93 535.16,-1138.94"/>
</g>
<!-- 12 MFCCs -->
<g id="node13" class="node">
<title>12 MFCCs</title>
<g id="a_node13"><a xlink:href="https://scholar.google.com/scholar?hl=en&amp;q=Automatic%20Recognition%20of%20Affective%20Laughter%20in%20Spontaneous%20Dyadic%20Interactions%20from%20Audiovisual%20Signals" xlink:title="12 MFCCs">
<ellipse fill="none" stroke="black" cx="1493.82" cy="-342" rx="50.09" ry="18"/>
<text text-anchor="middle" x="1493.82" y="-338.3" font-family="Times,serif" font-size="14.00">12 MFCCs</text>
</a>
</g>
</g>
<!-- Unvoiced Laughter -->
<g id="node34" class="node">
<title>Unvoiced Laughter</title>
<ellipse fill="none" stroke="black" cx="438.06" cy="-342" rx="79.09" ry="18"/>
<text text-anchor="middle" x="438.06" y="-338.3" font-family="Times,serif" font-size="14.00">Unvoiced Laughter</text>
</g>
<!-- 12 MFCCs&#45;&gt;Unvoiced Laughter -->
<g id="edge12" class="edge">
<title>12 MFCCs&#45;&gt;Unvoiced Laughter</title>
<path fill="none" stroke="black" d="M1443.76,-342C1278.65,-342 741.57,-342 527.91,-342"/>
<polygon fill="black" stroke="black" points="527.68,-338.5 517.68,-342 527.68,-345.5 527.68,-338.5"/>
</g>
<!-- 12 MFCCs&#45;&gt;Speech Laughter -->
<g id="edge15" class="edge">
<title>12 MFCCs&#45;&gt;Speech Laughter</title>
<path fill="none" stroke="black" d="M1443.87,-344.1C1343.92,-348.43 1109.17,-358.8 912.12,-369 772.96,-376.21 610.83,-385.7 517.06,-391.3"/>
<polygon fill="black" stroke="black" points="516.58,-387.82 506.81,-391.91 517,-394.81 516.58,-387.82"/>
</g>
<!-- 12 MFCCs&#45;&gt;Voiced Laughter -->
<g id="edge10" class="edge">
<title>12 MFCCs&#45;&gt;Voiced Laughter</title>
<path fill="none" stroke="black" d="M1444.48,-338.78C1321.93,-331.46 1002.39,-317.96 912.12,-369 887.01,-383.2 901.12,-408.61 876.12,-423 758.75,-490.55 593.1,-477.17 503.19,-462.77"/>
<polygon fill="black" stroke="black" points="503.58,-459.29 493.14,-461.11 502.43,-466.2 503.58,-459.29"/>
</g>
<!-- voice features (4 features -->
<g id="node14" class="node">
<title>voice features (4 features</title>
<g id="a_node14"><a xlink:href="https://scholar.google.com/scholar?hl=en&amp;q=Multimodal%20Analysis%20of%20Vocal%20Collaborative%20Search:A%20Public%20Corpus%20and%20Results" xlink:title="voice features (4 features">
<ellipse fill="none" stroke="black" cx="1493.82" cy="-1179" rx="100.18" ry="18"/>
<text text-anchor="middle" x="1493.82" y="-1175.3" font-family="Times,serif" font-size="14.00">voice features (4 features</text>
</a>
</g>
</g>
<!-- voice features (4 features&#45;&gt;perception of peer helpfulness -->
<g id="edge24" class="edge">
<title>voice features (4 features&#45;&gt;perception of peer helpfulness</title>
<path fill="none" stroke="black" d="M1412.96,-1168.28C1298.3,-1156.05 1082.13,-1144.91 912.12,-1206 893.3,-1212.76 894.89,-1226.09 876.12,-1233 769.36,-1272.29 638.07,-1274.87 547.41,-1270.23"/>
<polygon fill="black" stroke="black" points="547.57,-1266.74 537.39,-1269.68 547.19,-1273.73 547.57,-1266.74"/>
</g>
<!-- voice features (4 features&#45;&gt;perception of peer understanding -->
<g id="edge26" class="edge">
<title>voice features (4 features&#45;&gt;perception of peer understanding</title>
<path fill="none" stroke="black" d="M1394.63,-1181.52C1205.15,-1186.37 788.8,-1197.04 573.67,-1202.55"/>
<polygon fill="black" stroke="black" points="573.48,-1199.05 563.58,-1202.81 573.66,-1206.05 573.48,-1199.05"/>
</g>
<!-- voice features (4 features&#45;&gt;perception of peer clarity -->
<g id="edge28" class="edge">
<title>voice features (4 features&#45;&gt;perception of peer clarity</title>
<path fill="none" stroke="black" d="M1394.63,-1176.48C1197.17,-1171.42 753.35,-1160.05 547.6,-1154.78"/>
<polygon fill="black" stroke="black" points="547.47,-1151.28 537.38,-1154.52 547.29,-1158.27 547.47,-1151.28"/>
</g>
<!-- 1582 audio features (from Emobase -->
<g id="node15" class="node">
<title>1582 audio features (from Emobase</title>
<g id="a_node15"><a xlink:href="https://scholar.google.com/scholar?hl=en&amp;q=High%20Accuracy%20Detection%20of%20Collaboration%20From%20Log%20Data%20and%20Superficial%20Speech%20Features" xlink:title="1582 audio features (from Emobase">
<ellipse fill="none" stroke="black" cx="1493.82" cy="-1314" rx="138.38" ry="18"/>
<text text-anchor="middle" x="1493.82" y="-1310.3" font-family="Times,serif" font-size="14.00">1582 audio features (from Emobase</text>
</a>
</g>
</g>
<!-- collaboration -->
<g id="node38" class="node">
<title>collaboration</title>
<ellipse fill="none" stroke="black" cx="438.06" cy="-1314" rx="57.39" ry="18"/>
<text text-anchor="middle" x="438.06" y="-1310.3" font-family="Times,serif" font-size="14.00">collaboration</text>
</g>
<!-- 1582 audio features (from Emobase&#45;&gt;collaboration -->
<g id="edge30" class="edge">
<title>1582 audio features (from Emobase&#45;&gt;collaboration</title>
<path fill="none" stroke="black" d="M1355.33,-1314C1126.22,-1314 674.8,-1314 505.38,-1314"/>
<polygon fill="black" stroke="black" points="505.36,-1310.5 495.36,-1314 505.36,-1317.5 505.36,-1310.5"/>
</g>
<!-- thousands of features prosodic speech -->
<g id="node16" class="node">
<title>thousands of features prosodic speech</title>
<g id="a_node16"><a xlink:href="https://scholar.google.com/scholar?hl=en&amp;q=Using%20the%20Tablet%20Gestures%20and%20Speech%20of%20Pairs%20of%20Students%20to%20Classify%20Their%20Collaboration" xlink:title="thousands of features prosodic speech">
<ellipse fill="none" stroke="black" cx="1493.82" cy="-234" rx="144.87" ry="18"/>
<text text-anchor="middle" x="1493.82" y="-230.3" font-family="Times,serif" font-size="14.00">thousands of features prosodic speech</text>
</a>
</g>
</g>
<!-- thousands of features prosodic speech&#45;&gt;collaboration quality -->
<g id="edge37" class="edge">
<title>thousands of features prosodic speech&#45;&gt;collaboration quality</title>
<path fill="none" stroke="black" d="M1348.78,-234C1129.11,-234 716.49,-234 532.14,-234"/>
<polygon fill="black" stroke="black" points="531.94,-230.5 521.94,-234 531.94,-237.5 531.94,-230.5"/>
</g>
<!-- speech rate -->
<g id="node17" class="node">
<title>speech rate</title>
<g id="a_node17"><a xlink:href="https://scholar.google.com/scholar?hl=en&amp;q=Modeling%20Team-level%20Multimodal%20Dynamics%20during%20Multiparty%20Collaboration" xlink:title="speech rate">
<ellipse fill="none" stroke="black" cx="1493.82" cy="-1368" rx="50.09" ry="18"/>
<text text-anchor="middle" x="1493.82" y="-1364.3" font-family="Times,serif" font-size="14.00">speech rate</text>
</a>
</g>
</g>
<!-- Perceived Collaboration Quality -->
<g id="node33" class="node">
<title>Perceived Collaboration Quality</title>
<ellipse fill="none" stroke="black" cx="438.06" cy="-1368" rx="124.58" ry="18"/>
<text text-anchor="middle" x="438.06" y="-1364.3" font-family="Times,serif" font-size="14.00">Perceived Collaboration Quality</text>
</g>
<!-- speech rate&#45;&gt;Perceived Collaboration Quality -->
<g id="edge16" class="edge">
<title>speech rate&#45;&gt;Perceived Collaboration Quality</title>
<path fill="none" stroke="black" d="M1443.76,-1368C1289.33,-1368 809.46,-1368 573.22,-1368"/>
<polygon fill="black" stroke="black" points="573.19,-1364.5 563.19,-1368 573.19,-1371.5 573.19,-1364.5"/>
</g>
<!-- verbal dominance and information metrics [9 metrics] -->
<g id="node18" class="node">
<title>verbal dominance and information metrics [9 metrics]</title>
<g id="a_node18"><a xlink:href="https://scholar.google.com/scholar?hl=en&amp;q=A%20Multimodal-Sensor-Enabled%20Room%20for%20Unobtrusive%20Group%20Meeting%20Analysis" xlink:title="verbal dominance and information metrics [9 metrics]">
<ellipse fill="none" stroke="black" cx="1493.82" cy="-936" rx="204.16" ry="18"/>
<text text-anchor="middle" x="1493.82" y="-932.3" font-family="Times,serif" font-size="14.00">verbal dominance and information metrics [9 metrics]</text>
</a>
</g>
</g>
<!-- verbal dominance and information metrics [9 metrics]&#45;&gt;Leadership perceived -->
<g id="edge1" class="edge">
<title>verbal dominance and information metrics [9 metrics]&#45;&gt;Leadership perceived</title>
<path fill="none" stroke="black" d="M1310.69,-943.97C1196.25,-949.11 1045.54,-956.09 912.12,-963 779.95,-969.84 627.06,-978.75 531.7,-984.42"/>
<polygon fill="black" stroke="black" points="531.29,-980.94 521.51,-985.03 531.7,-987.93 531.29,-980.94"/>
</g>
<!-- verbal dominance and information metrics [9 metrics]&#45;&gt;Contribution perceived -->
<g id="edge2" class="edge">
<title>verbal dominance and information metrics [9 metrics]&#45;&gt;Contribution perceived</title>
<path fill="none" stroke="black" d="M1289.65,-936C1065.21,-936 712.82,-936 540.62,-936"/>
<polygon fill="black" stroke="black" points="540.55,-932.5 530.55,-936 540.55,-939.5 540.55,-932.5"/>
</g>
<!-- Sequences of verbal utterances -->
<g id="node19" class="node">
<title>Sequences of verbal utterances</title>
<g id="a_node19"><a xlink:href="https://scholar.google.com/scholar?hl=en&amp;q=Capturing%20and%20analyzing%20verbal%20and%20physical%20collaborative%20learning%20interactions%20at%20an%20enriched%20interactive%20tabletop" xlink:title="Sequences of verbal utterances">
<ellipse fill="none" stroke="black" cx="1493.82" cy="-1422" rx="120.48" ry="18"/>
<text text-anchor="middle" x="1493.82" y="-1418.3" font-family="Times,serif" font-size="14.00">Sequences of verbal utterances</text>
</a>
</g>
</g>
<!-- Colloboration quality -->
<g id="node29" class="node">
<title>Colloboration quality</title>
<ellipse fill="none" stroke="black" cx="438.06" cy="-1422" rx="86.38" ry="18"/>
<text text-anchor="middle" x="438.06" y="-1418.3" font-family="Times,serif" font-size="14.00">Colloboration quality</text>
</g>
<!-- Sequences of verbal utterances&#45;&gt;Colloboration quality -->
<g id="edge29" class="edge">
<title>Sequences of verbal utterances&#45;&gt;Colloboration quality</title>
<path fill="none" stroke="black" d="M1373.48,-1422C1162.52,-1422 727.85,-1422 534.92,-1422"/>
<polygon fill="black" stroke="black" points="534.8,-1418.5 524.8,-1422 534.8,-1425.5 534.8,-1418.5"/>
</g>
<!-- talking time -->
<g id="node20" class="node">
<title>talking time</title>
<g id="a_node20"><a xlink:href="https://scholar.google.com/scholar?hl=en&amp;q=Toward%20Using%20Multi-Modal%20Learning%20Analytics%20to%20Support%20and%20Measure%20Collaboration%20in%20Co-Located%20Dyads" xlink:title="talking time">
<ellipse fill="none" stroke="black" cx="1493.82" cy="-180" rx="53.89" ry="18"/>
<text text-anchor="middle" x="1493.82" y="-176.3" font-family="Times,serif" font-size="14.00">talking time</text>
</a>
</g>
</g>
<!-- talking time&#45;&gt;collaboration quality -->
<g id="edge33" class="edge">
<title>talking time&#45;&gt;collaboration quality</title>
<path fill="none" stroke="black" d="M1439.97,-182.27C1337.92,-186.7 1106.65,-196.93 912.12,-207 778.76,-213.91 624.31,-222.91 529.14,-228.58"/>
<polygon fill="black" stroke="black" points="528.76,-225.09 518.98,-229.18 529.17,-232.08 528.76,-225.09"/>
</g>
<!-- Silence and Overlap Cues (Fraction of Silence, Fraction of Nonoverlapped Speech, Fraction of two&#45;people and three&#45;people Overlapped Speech -->
<g id="node21" class="node">
<title>Silence and Overlap Cues (Fraction of Silence, Fraction of Nonoverlapped Speech, Fraction of two&#45;people and three&#45;people Overlapped Speech</title>
<g id="a_node21"><a xlink:href="https://scholar.google.com/scholar?hl=en&amp;q=Linking%20Speaking%20and%20Looking%20Behavior%20Patterns%20with%20Group%20Composition,%20Perception,%20and%20Performance" xlink:title="Silence and Overlap Cues (Fraction of Silence, Fraction of Nonoverlapped Speech, Fraction of two&#45;people and three&#45;people Overlapped Speech">
<ellipse fill="none" stroke="black" cx="1493.82" cy="-666" rx="521.81" ry="18"/>
<text text-anchor="middle" x="1493.82" y="-662.3" font-family="Times,serif" font-size="14.00">Silence and Overlap Cues (Fraction of Silence, Fraction of Nonoverlapped Speech, Fraction of two&#45;people and three&#45;people Overlapped Speech</text>
</a>
</g>
</g>
<!-- Silence and Overlap Cues (Fraction of Silence, Fraction of Nonoverlapped Speech, Fraction of two&#45;people and three&#45;people Overlapped Speech&#45;&gt;Group Interpersonal Perception (Perceived Dominance, Perceived Leadership, Perceived Competence, Perceived Liking -->
<g id="edge6" class="edge">
<title>Silence and Overlap Cues (Fraction of Silence, Fraction of Nonoverlapped Speech, Fraction of two&#45;people and three&#45;people Overlapped Speech&#45;&gt;Group Interpersonal Perception (Perceived Dominance, Perceived Leadership, Perceived Competence, Perceived Liking</title>
<path fill="none" stroke="black" d="M971.73,-666C943.34,-666 914.93,-666 886.83,-666"/>
<polygon fill="black" stroke="black" points="886.49,-662.5 876.49,-666 886.49,-669.5 886.49,-662.5"/>
</g>
<!-- Speaking Distribution Cues (Speaking Length Skew, Speaking Turns Skew, Successful Interruption Skew, Unsuccessful Interruptions Skew, Backchannels Skew -->
<g id="node22" class="node">
<title>Speaking Distribution Cues (Speaking Length Skew, Speaking Turns Skew, Successful Interruption Skew, Unsuccessful Interruptions Skew, Backchannels Skew</title>
<g id="a_node22"><a xlink:href="https://scholar.google.com/scholar?hl=en&amp;q=Linking%20Speaking%20and%20Looking%20Behavior%20Patterns%20with%20Group%20Composition,%20Perception,%20and%20Performance" xlink:title="Speaking Distribution Cues (Speaking Length Skew, Speaking Turns Skew, Successful Interruption Skew, Unsuccessful Interruptions Skew, Backchannels Skew">
<ellipse fill="none" stroke="black" cx="1493.82" cy="-612" rx="581.9" ry="18"/>
<text text-anchor="middle" x="1493.82" y="-608.3" font-family="Times,serif" font-size="14.00">Speaking Distribution Cues (Speaking Length Skew, Speaking Turns Skew, Successful Interruption Skew, Unsuccessful Interruptions Skew, Backchannels Skew</text>
</a>
</g>
</g>
<!-- Speaking Distribution Cues (Speaking Length Skew, Speaking Turns Skew, Successful Interruption Skew, Unsuccessful Interruptions Skew, Backchannels Skew&#45;&gt;Group Interpersonal Perception (Perceived Dominance, Perceived Leadership, Perceived Competence, Perceived Liking -->
<g id="edge7" class="edge">
<title>Speaking Distribution Cues (Speaking Length Skew, Speaking Turns Skew, Successful Interruption Skew, Unsuccessful Interruptions Skew, Backchannels Skew&#45;&gt;Group Interpersonal Perception (Perceived Dominance, Perceived Leadership, Perceived Competence, Perceived Liking</title>
<path fill="none" stroke="black" d="M1161.52,-626.8C1079.97,-630.61 992.88,-634.82 912.12,-639 843.12,-642.57 768.47,-646.71 699.31,-650.65"/>
<polygon fill="black" stroke="black" points="698.93,-647.17 689.15,-651.23 699.33,-654.16 698.93,-647.17"/>
</g>
<!-- 88 GeMAPS acoustic features -->
<g id="node23" class="node">
<title>88 GeMAPS acoustic features</title>
<g id="a_node23"><a xlink:href="https://scholar.google.com/scholar?hl=en&amp;q=Automatic%20Recognition%20of%20Affective%20Laughter%20in%20Spontaneous%20Dyadic%20Interactions%20from%20Audiovisual%20Signals" xlink:title="88 GeMAPS acoustic features">
<ellipse fill="none" stroke="black" cx="1493.82" cy="-396" rx="118.08" ry="18"/>
<text text-anchor="middle" x="1493.82" y="-392.3" font-family="Times,serif" font-size="14.00">88 GeMAPS acoustic features</text>
</a>
</g>
</g>
<!-- 88 GeMAPS acoustic features&#45;&gt;Unvoiced Laughter -->
<g id="edge11" class="edge">
<title>88 GeMAPS acoustic features&#45;&gt;Unvoiced Laughter</title>
<path fill="none" stroke="black" d="M1379.85,-391.1C1262.82,-385.94 1074.65,-377.42 912.12,-369 776.78,-361.99 619.72,-352.82 524.94,-347.17"/>
<polygon fill="black" stroke="black" points="525.02,-343.67 514.83,-346.57 524.61,-350.66 525.02,-343.67"/>
</g>
<!-- 88 GeMAPS acoustic features&#45;&gt;Speech Laughter -->
<g id="edge13" class="edge">
<title>88 GeMAPS acoustic features&#45;&gt;Speech Laughter</title>
<path fill="none" stroke="black" d="M1375.52,-396C1159.12,-396 702.45,-396 518.41,-396"/>
<polygon fill="black" stroke="black" points="518.27,-392.5 508.27,-396 518.27,-399.5 518.27,-392.5"/>
</g>
<!-- 88 GeMAPS acoustic features&#45;&gt;Voiced Laughter -->
<g id="edge8" class="edge">
<title>88 GeMAPS acoustic features&#45;&gt;Voiced Laughter</title>
<path fill="none" stroke="black" d="M1379.85,-400.9C1262.82,-406.06 1074.65,-414.58 912.12,-423 772.56,-430.23 609.91,-439.75 516.26,-445.34"/>
<polygon fill="black" stroke="black" points="515.8,-441.86 506.03,-445.95 516.22,-448.85 515.8,-441.86"/>
</g>
<!-- 35 Coh&#45;metrix indices -->
<g id="node24" class="node">
<title>35 Coh&#45;metrix indices</title>
<g id="a_node24"><a xlink:href="https://scholar.google.com/scholar?hl=en&amp;q=Predicting%20the%20Quality%20of%20Collaborative%20Problem%20Solving%20Through%20Linguistic%20Analysis%20of%20Discourse" xlink:title="35 Coh&#45;metrix indices">
<ellipse fill="none" stroke="black" cx="1493.82" cy="-18" rx="90.18" ry="18"/>
<text text-anchor="middle" x="1493.82" y="-14.3" font-family="Times,serif" font-size="14.00">35 Coh&#45;metrix indices</text>
</a>
</g>
</g>
<!-- 35 Coh&#45;metrix indices&#45;&gt;Collaboration -->
<g id="edge32" class="edge">
<title>35 Coh&#45;metrix indices&#45;&gt;Collaboration</title>
<path fill="none" stroke="black" d="M1405.25,-21.78C1291.56,-26.76 1086.99,-35.94 912.12,-45 767.56,-52.49 598.22,-62.44 506.47,-67.93"/>
<polygon fill="black" stroke="black" points="505.99,-64.45 496.21,-68.54 506.4,-71.44 505.99,-64.45"/>
</g>
<!-- Convergence -->
<g id="node25" class="node">
<title>Convergence</title>
<g id="a_node25"><a xlink:href="https://scholar.google.com/scholar?hl=en&amp;q=Acoustic-Prosodic%20Entrainment%20and%20Rapport%20in%20Collaborative%20Learning%20Dialogues" xlink:title="Convergence">
<ellipse fill="none" stroke="black" cx="1493.82" cy="-774" rx="57.39" ry="18"/>
<text text-anchor="middle" x="1493.82" y="-770.3" font-family="Times,serif" font-size="14.00">Convergence</text>
</a>
</g>
</g>
<!-- Convergence&#45;&gt;rapport level -->
<g id="edge18" class="edge">
<title>Convergence&#45;&gt;rapport level</title>
<path fill="none" stroke="black" d="M1436.75,-776.41C1333.13,-780.91 1104.63,-791.03 912.12,-801 765.98,-808.57 594.51,-818.66 503.49,-824.11"/>
<polygon fill="black" stroke="black" points="503.1,-820.62 493.33,-824.72 503.52,-827.61 503.1,-820.62"/>
</g>
</g>
</svg>
