<?xml version="1.0" encoding="UTF-8" standalone="no"?>
<!DOCTYPE svg PUBLIC "-//W3C//DTD SVG 1.1//EN"
 "http://www.w3.org/Graphics/SVG/1.1/DTD/svg11.dtd">
<!-- Generated by graphviz version 2.47.0 (20210316.0004)
 -->
<!-- Title: Test Pages: 1 -->
<svg width="309pt" height="152pt"
 viewBox="0.00 0.00 309.18 152.00" xmlns="http://www.w3.org/2000/svg" xmlns:xlink="http://www.w3.org/1999/xlink">
<g id="graph0" class="graph" transform="scale(1 1) rotate(0) translate(4 148)">
<title>Test</title>
<polygon fill="white" stroke="transparent" points="-4,4 -4,-148 305.18,-148 305.18,4 -4,4"/>
<!-- speech rate -->
<g id="node1" class="node">
<title>speech rate</title>
<g id="a_node1"><a xlink:href="https://scholar.google.com/scholar?hl=en&amp;q=Modeling%20Team-level%20Multimodal%20Dynamics%20during%20Multiparty%20Collaboration" xlink:title="speech rate">
<ellipse fill="none" stroke="black" cx="243.98" cy="-45" rx="50.09" ry="18"/>
<text text-anchor="middle" x="243.98" y="-41.3" font-family="Times,serif" font-size="14.00">speech rate</text>
</a>
</g>
</g>
<!-- Perceived Arousal -->
<g id="node3" class="node">
<title>Perceived Arousal</title>
<ellipse fill="none" stroke="black" cx="75.39" cy="-72" rx="75.29" ry="18"/>
<text text-anchor="middle" x="75.39" y="-68.3" font-family="Times,serif" font-size="14.00">Perceived Arousal</text>
</g>
<!-- speech rate&#45;&gt;Perceived Arousal -->
<g id="edge3" class="edge">
<title>speech rate&#45;&gt;Perceived Arousal</title>
<path fill="none" stroke="black" d="M197.9,-52.31C182.52,-54.8 164.91,-57.65 147.96,-60.4"/>
<polygon fill="black" stroke="black" points="147.4,-56.95 138.09,-62 148.52,-63.86 147.4,-56.95"/>
</g>
<!-- Perceived Valence -->
<g id="node5" class="node">
<title>Perceived Valence</title>
<ellipse fill="none" stroke="black" cx="75.39" cy="-18" rx="75.29" ry="18"/>
<text text-anchor="middle" x="75.39" y="-14.3" font-family="Times,serif" font-size="14.00">Perceived Valence</text>
</g>
<!-- speech rate&#45;&gt;Perceived Valence -->
<g id="edge2" class="edge">
<title>speech rate&#45;&gt;Perceived Valence</title>
<path fill="none" stroke="black" d="M197.9,-37.69C182.52,-35.2 164.91,-32.35 147.96,-29.6"/>
<polygon fill="black" stroke="black" points="148.52,-26.14 138.09,-28 147.4,-33.05 148.52,-26.14"/>
</g>
<!-- dialogue acts -->
<g id="node2" class="node">
<title>dialogue acts</title>
<g id="a_node2"><a xlink:href="https://scholar.google.com/scholar?hl=en&amp;q=The%20Additive%20Value%20of%20Multimodal%20Features%20for%20Predicting%20Engagement,%20Frustration,%20and%20Learning%20during%20Tutoring" xlink:title="dialogue acts">
<ellipse fill="none" stroke="black" cx="243.98" cy="-126" rx="57.39" ry="18"/>
<text text-anchor="middle" x="243.98" y="-122.3" font-family="Times,serif" font-size="14.00">dialogue acts</text>
</a>
</g>
</g>
<!-- frustration -->
<g id="node4" class="node">
<title>frustration</title>
<ellipse fill="none" stroke="black" cx="75.39" cy="-126" rx="47.39" ry="18"/>
<text text-anchor="middle" x="75.39" y="-122.3" font-family="Times,serif" font-size="14.00">frustration</text>
</g>
<!-- dialogue acts&#45;&gt;frustration -->
<g id="edge1" class="edge">
<title>dialogue acts&#45;&gt;frustration</title>
<path fill="none" stroke="black" d="M186.58,-126C169.46,-126 150.65,-126 133.48,-126"/>
<polygon fill="black" stroke="black" points="133.04,-122.5 123.04,-126 133.04,-129.5 133.04,-122.5"/>
</g>
</g>
</svg>
