<?xml version="1.0" encoding="UTF-8" standalone="no"?>
<!DOCTYPE svg PUBLIC "-//W3C//DTD SVG 1.1//EN"
 "http://www.w3.org/Graphics/SVG/1.1/DTD/svg11.dtd">
<!-- Generated by graphviz version 2.47.0 (20210316.0004)
 -->
<!-- Title: Test Pages: 1 -->
<svg width="1080pt" height="761pt"
 viewBox="0.00 0.00 1080.00 760.75" xmlns="http://www.w3.org/2000/svg" xmlns:xlink="http://www.w3.org/1999/xlink">
<g id="graph0" class="graph" transform="scale(0.52 0.52) rotate(0) translate(4 1463.63)">
<title>Test</title>
<polygon fill="white" stroke="transparent" points="-4,4 -4,-1463.63 2079.52,-1463.63 2079.52,4 -4,4"/>
<!-- 102 extended GeMAPs acoustic features -->
<g id="node1" class="node">
<title>102 extended GeMAPs acoustic features</title>
<g id="a_node1"><a xlink:href="https://scholar.google.com/scholar?hl=en&amp;q=Automatic%20Recognition%20of%20Affective%20Laughter%20in%20Spontaneous%20Dyadic%20Interactions%20from%20Audiovisual%20Signals" xlink:title="102 extended GeMAPs acoustic features">
<ellipse fill="none" stroke="black" cx="1493.82" cy="-145.63" rx="155.17" ry="18"/>
<text text-anchor="middle" x="1493.82" y="-141.93" font-family="Times,serif" font-size="14.00">102 extended GeMAPs acoustic features</text>
</a>
</g>
</g>
<!-- Voiced Laughter -->
<g id="node42" class="node">
<title>Voiced Laughter</title>
<ellipse fill="none" stroke="black" cx="438.06" cy="-91.63" rx="69.59" ry="18"/>
<text text-anchor="middle" x="438.06" y="-87.93" font-family="Times,serif" font-size="14.00">Voiced Laughter</text>
</g>
<!-- 102 extended GeMAPs acoustic features&#45;&gt;Voiced Laughter -->
<g id="edge9" class="edge">
<title>102 extended GeMAPs acoustic features&#45;&gt;Voiced Laughter</title>
<path fill="none" stroke="black" d="M1348.12,-139.33C1230.63,-134.11 1060.66,-126.32 912.12,-118.63 772.56,-111.4 609.91,-101.88 516.26,-96.29"/>
<polygon fill="black" stroke="black" points="516.22,-92.78 506.03,-95.68 515.8,-99.77 516.22,-92.78"/>
</g>
<!-- Speech Laughter -->
<g id="node44" class="node">
<title>Speech Laughter</title>
<ellipse fill="none" stroke="black" cx="438.06" cy="-145.63" rx="70.39" ry="18"/>
<text text-anchor="middle" x="438.06" y="-141.93" font-family="Times,serif" font-size="14.00">Speech Laughter</text>
</g>
<!-- 102 extended GeMAPs acoustic features&#45;&gt;Speech Laughter -->
<g id="edge14" class="edge">
<title>102 extended GeMAPs acoustic features&#45;&gt;Speech Laughter</title>
<path fill="none" stroke="black" d="M1338.47,-145.63C1110.62,-145.63 692.49,-145.63 518.4,-145.63"/>
<polygon fill="black" stroke="black" points="518.29,-142.13 508.29,-145.63 518.29,-149.13 518.29,-142.13"/>
</g>
<!-- talking time -->
<g id="node2" class="node">
<title>talking time</title>
<g id="a_node2"><a xlink:href="https://scholar.google.com/scholar?hl=en&amp;q=Toward%20Using%20Multi-Modal%20Learning%20Analytics%20to%20Support%20and%20Measure%20Collaboration%20in%20Co-Located%20Dyads" xlink:title="talking time">
<ellipse fill="none" stroke="black" cx="1493.82" cy="-307.63" rx="53.89" ry="18"/>
<text text-anchor="middle" x="1493.82" y="-303.93" font-family="Times,serif" font-size="14.00">talking time</text>
</a>
</g>
</g>
<!-- collaboration quality -->
<g id="node37" class="node">
<title>collaboration quality</title>
<ellipse fill="none" stroke="black" cx="438.06" cy="-253.63" rx="83.69" ry="18"/>
<text text-anchor="middle" x="438.06" y="-249.93" font-family="Times,serif" font-size="14.00">collaboration quality</text>
</g>
<!-- talking time&#45;&gt;collaboration quality -->
<g id="edge33" class="edge">
<title>talking time&#45;&gt;collaboration quality</title>
<path fill="none" stroke="black" d="M1439.97,-305.36C1337.92,-300.93 1106.65,-290.7 912.12,-280.63 778.76,-273.72 624.31,-264.72 529.14,-259.06"/>
<polygon fill="black" stroke="black" points="529.17,-255.55 518.98,-258.45 528.76,-262.54 529.17,-255.55"/>
</g>
<!-- non&#45;verbal speaking metrics (speaking length, interruptions, etc -->
<g id="node3" class="node">
<title>non&#45;verbal speaking metrics (speaking length, interruptions, etc</title>
<g id="a_node3"><a xlink:href="https://scholar.google.com/scholar?hl=en&amp;q=A%20Multimodal-Sensor-Enabled%20Room%20for%20Unobtrusive%20Group%20Meeting%20Analysis" xlink:title="non&#45;verbal speaking metrics (speaking length, interruptions, etc">
<ellipse fill="none" stroke="black" cx="1493.82" cy="-415.63" rx="237.46" ry="18"/>
<text text-anchor="middle" x="1493.82" y="-411.93" font-family="Times,serif" font-size="14.00">non&#45;verbal speaking metrics (speaking length, interruptions, etc</text>
</a>
</g>
</g>
<!-- Contribution perceived -->
<g id="node38" class="node">
<title>Contribution perceived</title>
<ellipse fill="none" stroke="black" cx="438.06" cy="-415.63" rx="92.08" ry="18"/>
<text text-anchor="middle" x="438.06" y="-411.93" font-family="Times,serif" font-size="14.00">Contribution perceived</text>
</g>
<!-- non&#45;verbal speaking metrics (speaking length, interruptions, etc&#45;&gt;Contribution perceived -->
<g id="edge4" class="edge">
<title>non&#45;verbal speaking metrics (speaking length, interruptions, etc&#45;&gt;Contribution perceived</title>
<path fill="none" stroke="black" d="M1256.34,-415.63C1031.67,-415.63 704.55,-415.63 540.65,-415.63"/>
<polygon fill="black" stroke="black" points="540.57,-412.13 530.57,-415.63 540.57,-419.13 540.57,-412.13"/>
</g>
<!-- Leadership perceived -->
<g id="node43" class="node">
<title>Leadership perceived</title>
<ellipse fill="none" stroke="black" cx="438.06" cy="-361.63" rx="86.38" ry="18"/>
<text text-anchor="middle" x="438.06" y="-357.93" font-family="Times,serif" font-size="14.00">Leadership perceived</text>
</g>
<!-- non&#45;verbal speaking metrics (speaking length, interruptions, etc&#45;&gt;Leadership perceived -->
<g id="edge3" class="edge">
<title>non&#45;verbal speaking metrics (speaking length, interruptions, etc&#45;&gt;Leadership perceived</title>
<path fill="none" stroke="black" d="M1288.21,-406.64C1176.97,-401.63 1036.98,-395.1 912.12,-388.63 779.95,-381.79 627.06,-372.88 531.7,-367.21"/>
<polygon fill="black" stroke="black" points="531.7,-363.7 521.51,-366.6 531.29,-370.69 531.7,-363.7"/>
</g>
<!-- verbal dominance and information metrics [9 metrics] -->
<g id="node4" class="node">
<title>verbal dominance and information metrics [9 metrics]</title>
<g id="a_node4"><a xlink:href="https://scholar.google.com/scholar?hl=en&amp;q=A%20Multimodal-Sensor-Enabled%20Room%20for%20Unobtrusive%20Group%20Meeting%20Analysis" xlink:title="verbal dominance and information metrics [9 metrics]">
<ellipse fill="none" stroke="black" cx="1493.82" cy="-361.63" rx="204.16" ry="18"/>
<text text-anchor="middle" x="1493.82" y="-357.93" font-family="Times,serif" font-size="14.00">verbal dominance and information metrics [9 metrics]</text>
</a>
</g>
</g>
<!-- verbal dominance and information metrics [9 metrics]&#45;&gt;Contribution perceived -->
<g id="edge2" class="edge">
<title>verbal dominance and information metrics [9 metrics]&#45;&gt;Contribution perceived</title>
<path fill="none" stroke="black" d="M1310.69,-369.6C1196.25,-374.74 1045.54,-381.72 912.12,-388.63 782.33,-395.35 632.56,-404.06 536.91,-409.74"/>
<polygon fill="black" stroke="black" points="536.44,-406.26 526.67,-410.35 536.86,-413.25 536.44,-406.26"/>
</g>
<!-- verbal dominance and information metrics [9 metrics]&#45;&gt;Leadership perceived -->
<g id="edge1" class="edge">
<title>verbal dominance and information metrics [9 metrics]&#45;&gt;Leadership perceived</title>
<path fill="none" stroke="black" d="M1289.65,-361.63C1062.68,-361.63 704.87,-361.63 534.88,-361.63"/>
<polygon fill="black" stroke="black" points="534.69,-358.13 524.69,-361.63 534.69,-365.13 534.69,-358.13"/>
</g>
<!-- speech rate -->
<g id="node5" class="node">
<title>speech rate</title>
<g id="a_node5"><a xlink:href="https://scholar.google.com/scholar?hl=en&amp;q=Modeling%20Team-level%20Multimodal%20Dynamics%20during%20Multiparty%20Collaboration" xlink:title="speech rate">
<ellipse fill="none" stroke="black" cx="1493.82" cy="-469.63" rx="50.09" ry="18"/>
<text text-anchor="middle" x="1493.82" y="-465.93" font-family="Times,serif" font-size="14.00">speech rate</text>
</a>
</g>
</g>
<!-- Perceived Collaboration Quality -->
<g id="node29" class="node">
<title>Perceived Collaboration Quality</title>
<ellipse fill="none" stroke="black" cx="438.06" cy="-469.63" rx="124.58" ry="18"/>
<text text-anchor="middle" x="438.06" y="-465.93" font-family="Times,serif" font-size="14.00">Perceived Collaboration Quality</text>
</g>
<!-- speech rate&#45;&gt;Perceived Collaboration Quality -->
<g id="edge16" class="edge">
<title>speech rate&#45;&gt;Perceived Collaboration Quality</title>
<path fill="none" stroke="black" d="M1443.76,-469.63C1289.33,-469.63 809.46,-469.63 573.22,-469.63"/>
<polygon fill="black" stroke="black" points="573.19,-466.13 563.19,-469.63 573.19,-473.13 573.19,-466.13"/>
</g>
<!-- Group Participation Speaking Cues (Speaking Length, Speaking Turns, Successful Interruptions, Unsuccessful Interruptions, Backchannels -->
<g id="node6" class="node">
<title>Group Participation Speaking Cues (Speaking Length, Speaking Turns, Successful Interruptions, Unsuccessful Interruptions, Backchannels</title>
<g id="a_node6"><a xlink:href="https://scholar.google.com/scholar?hl=en&amp;q=Linking%20Speaking%20and%20Looking%20Behavior%20Patterns%20with%20Group%20Composition,%20Perception,%20and%20Performance" xlink:title="Group Participation Speaking Cues (Speaking Length, Speaking Turns, Successful Interruptions, Unsuccessful Interruptions, Backchannels">
<ellipse fill="none" stroke="black" cx="1493.82" cy="-631.63" rx="504.21" ry="18"/>
<text text-anchor="middle" x="1493.82" y="-627.93" font-family="Times,serif" font-size="14.00">Group Participation Speaking Cues (Speaking Length, Speaking Turns, Successful Interruptions, Unsuccessful Interruptions, Backchannels</text>
</a>
</g>
</g>
<!-- Group Interpersonal Perception (Perceived Dominance, Perceived Leadership, Perceived Competence, Perceived Liking -->
<g id="node41" class="node">
<title>Group Interpersonal Perception (Perceived Dominance, Perceived Leadership, Perceived Competence, Perceived Liking</title>
<ellipse fill="none" stroke="black" cx="438.06" cy="-577.63" rx="438.12" ry="18"/>
<text text-anchor="middle" x="438.06" y="-573.93" font-family="Times,serif" font-size="14.00">Group Interpersonal Perception (Perceived Dominance, Perceived Leadership, Perceived Competence, Perceived Liking</text>
</g>
<!-- Group Participation Speaking Cues (Speaking Length, Speaking Turns, Successful Interruptions, Unsuccessful Interruptions, Backchannels&#45;&gt;Group Interpersonal Perception (Perceived Dominance, Perceived Leadership, Perceived Competence, Perceived Liking -->
<g id="edge5" class="edge">
<title>Group Participation Speaking Cues (Speaking Length, Speaking Turns, Successful Interruptions, Unsuccessful Interruptions, Backchannels&#45;&gt;Group Interpersonal Perception (Perceived Dominance, Perceived Leadership, Perceived Competence, Perceived Liking</title>
<path fill="none" stroke="black" d="M1177.85,-617.59C1091.68,-613.59 998.3,-609.09 912.12,-604.63 843.12,-601.06 768.47,-596.92 699.31,-592.98"/>
<polygon fill="black" stroke="black" points="699.33,-589.47 689.15,-592.4 698.93,-596.46 699.33,-589.47"/>
</g>
<!-- symmetry of speech among group -->
<g id="node7" class="node">
<title>symmetry of speech among group</title>
<g id="a_node7"><a xlink:href="https://scholar.google.com/scholar?hl=en&amp;q=An%20Automatic%20Approach%20for%20Mining%20Patterns%20of%20Collaboration%20around%20an%20Interactive%20Tabletop" xlink:title="symmetry of speech among group">
<ellipse fill="none" stroke="black" cx="1493.82" cy="-793.63" rx="132.68" ry="18"/>
<text text-anchor="middle" x="1493.82" y="-789.93" font-family="Times,serif" font-size="14.00">symmetry of speech among group</text>
</a>
</g>
</g>
<!-- Collaboration -->
<g id="node30" class="node">
<title>Collaboration</title>
<ellipse fill="none" stroke="black" cx="438.06" cy="-739.63" rx="59.29" ry="18"/>
<text text-anchor="middle" x="438.06" y="-735.93" font-family="Times,serif" font-size="14.00">Collaboration</text>
</g>
<!-- symmetry of speech among group&#45;&gt;Collaboration -->
<g id="edge35" class="edge">
<title>symmetry of speech among group&#45;&gt;Collaboration</title>
<path fill="none" stroke="black" d="M1367.35,-788.18C1249.72,-782.98 1068.98,-774.75 912.12,-766.63 767.56,-759.14 598.22,-749.19 506.47,-743.7"/>
<polygon fill="black" stroke="black" points="506.4,-740.19 496.21,-743.09 505.99,-747.18 506.4,-740.19"/>
</g>
<!-- Silence and Overlap Cues (Fraction of Silence, Fraction of Nonoverlapped Speech, Fraction of two&#45;people and three&#45;people Overlapped Speech -->
<g id="node8" class="node">
<title>Silence and Overlap Cues (Fraction of Silence, Fraction of Nonoverlapped Speech, Fraction of two&#45;people and three&#45;people Overlapped Speech</title>
<g id="a_node8"><a xlink:href="https://scholar.google.com/scholar?hl=en&amp;q=Linking%20Speaking%20and%20Looking%20Behavior%20Patterns%20with%20Group%20Composition,%20Perception,%20and%20Performance" xlink:title="Silence and Overlap Cues (Fraction of Silence, Fraction of Nonoverlapped Speech, Fraction of two&#45;people and three&#45;people Overlapped Speech">
<ellipse fill="none" stroke="black" cx="1493.82" cy="-577.63" rx="521.81" ry="18"/>
<text text-anchor="middle" x="1493.82" y="-573.93" font-family="Times,serif" font-size="14.00">Silence and Overlap Cues (Fraction of Silence, Fraction of Nonoverlapped Speech, Fraction of two&#45;people and three&#45;people Overlapped Speech</text>
</a>
</g>
</g>
<!-- Silence and Overlap Cues (Fraction of Silence, Fraction of Nonoverlapped Speech, Fraction of two&#45;people and three&#45;people Overlapped Speech&#45;&gt;Group Interpersonal Perception (Perceived Dominance, Perceived Leadership, Perceived Competence, Perceived Liking -->
<g id="edge6" class="edge">
<title>Silence and Overlap Cues (Fraction of Silence, Fraction of Nonoverlapped Speech, Fraction of two&#45;people and three&#45;people Overlapped Speech&#45;&gt;Group Interpersonal Perception (Perceived Dominance, Perceived Leadership, Perceived Competence, Perceived Liking</title>
<path fill="none" stroke="black" d="M971.73,-577.63C943.34,-577.63 914.93,-577.63 886.83,-577.63"/>
<polygon fill="black" stroke="black" points="886.49,-574.13 876.49,-577.63 886.49,-581.13 886.49,-574.13"/>
</g>
<!-- Convergence -->
<g id="node9" class="node">
<title>Convergence</title>
<g id="a_node9"><a xlink:href="https://scholar.google.com/scholar?hl=en&amp;q=Acoustic-Prosodic%20Entrainment%20and%20Rapport%20in%20Collaborative%20Learning%20Dialogues" xlink:title="Convergence">
<ellipse fill="none" stroke="black" cx="1493.82" cy="-955.63" rx="57.39" ry="18"/>
<text text-anchor="middle" x="1493.82" y="-951.93" font-family="Times,serif" font-size="14.00">Convergence</text>
</a>
</g>
</g>
<!-- rapport level -->
<g id="node27" class="node">
<title>rapport level</title>
<ellipse fill="none" stroke="black" cx="438.06" cy="-901.63" rx="55.79" ry="18"/>
<text text-anchor="middle" x="438.06" y="-897.93" font-family="Times,serif" font-size="14.00">rapport level</text>
</g>
<!-- Convergence&#45;&gt;rapport level -->
<g id="edge18" class="edge">
<title>Convergence&#45;&gt;rapport level</title>
<path fill="none" stroke="black" d="M1436.75,-953.22C1333.13,-948.72 1104.63,-938.6 912.12,-928.63 765.98,-921.06 594.51,-910.97 503.49,-905.52"/>
<polygon fill="black" stroke="black" points="503.52,-902.02 493.33,-904.91 503.1,-909.01 503.52,-902.02"/>
</g>
<!-- Synchrony -->
<g id="node10" class="node">
<title>Synchrony</title>
<g id="a_node10"><a xlink:href="https://scholar.google.com/scholar?hl=en&amp;q=Acoustic-Prosodic%20Entrainment%20and%20Rapport%20in%20Collaborative%20Learning%20Dialogues" xlink:title="Synchrony">
<ellipse fill="none" stroke="black" cx="1493.82" cy="-901.63" rx="48.99" ry="18"/>
<text text-anchor="middle" x="1493.82" y="-897.93" font-family="Times,serif" font-size="14.00">Synchrony</text>
</a>
</g>
</g>
<!-- Synchrony&#45;&gt;rapport level -->
<g id="edge19" class="edge">
<title>Synchrony&#45;&gt;rapport level</title>
<path fill="none" stroke="black" d="M1444.8,-901.63C1274.52,-901.63 699.3,-901.63 504.32,-901.63"/>
<polygon fill="black" stroke="black" points="504.22,-898.13 494.22,-901.63 504.22,-905.13 504.22,-898.13"/>
</g>
<!-- 6 One Vs All Features -->
<g id="node11" class="node">
<title>6 One Vs All Features</title>
<g id="a_node11"><a xlink:href="https://scholar.google.com/scholar?hl=en&amp;q=Personality%20classification%20and%20behaviour%20interpretation:%20An%20approach%20based%20on%20feature%20categories" xlink:title="6 One Vs All Features">
<ellipse fill="none" stroke="black" cx="1493.82" cy="-1009.63" rx="89.88" ry="18"/>
<text text-anchor="middle" x="1493.82" y="-1005.93" font-family="Times,serif" font-size="14.00">6 One Vs All Features</text>
</a>
</g>
</g>
<!-- Social Impressions -->
<g id="node34" class="node">
<title>Social Impressions</title>
<ellipse fill="none" stroke="black" cx="438.06" cy="-1009.63" rx="77.99" ry="18"/>
<text text-anchor="middle" x="438.06" y="-1005.93" font-family="Times,serif" font-size="14.00">Social Impressions</text>
</g>
<!-- 6 One Vs All Features&#45;&gt;Social Impressions -->
<g id="edge20" class="edge">
<title>6 One Vs All Features&#45;&gt;Social Impressions</title>
<path fill="none" stroke="black" d="M1403.89,-1009.63C1204.54,-1009.63 723.96,-1009.63 526.25,-1009.63"/>
<polygon fill="black" stroke="black" points="526.2,-1006.13 516.2,-1009.63 526.2,-1013.13 526.2,-1006.13"/>
</g>
<!-- 35 Coh&#45;metrix indices -->
<g id="node12" class="node">
<title>35 Coh&#45;metrix indices</title>
<g id="a_node12"><a xlink:href="https://scholar.google.com/scholar?hl=en&amp;q=Predicting%20the%20Quality%20of%20Collaborative%20Problem%20Solving%20Through%20Linguistic%20Analysis%20of%20Discourse" xlink:title="35 Coh&#45;metrix indices">
<ellipse fill="none" stroke="black" cx="1493.82" cy="-739.63" rx="90.18" ry="18"/>
<text text-anchor="middle" x="1493.82" y="-735.93" font-family="Times,serif" font-size="14.00">35 Coh&#45;metrix indices</text>
</a>
</g>
</g>
<!-- 35 Coh&#45;metrix indices&#45;&gt;Collaboration -->
<g id="edge32" class="edge">
<title>35 Coh&#45;metrix indices&#45;&gt;Collaboration</title>
<path fill="none" stroke="black" d="M1403.43,-739.63C1197.12,-739.63 691.34,-739.63 507.38,-739.63"/>
<polygon fill="black" stroke="black" points="507.29,-736.13 497.29,-739.63 507.29,-743.13 507.29,-736.13"/>
</g>
<!-- voice features (4 features -->
<g id="node13" class="node">
<title>voice features (4 features</title>
<g id="a_node13"><a xlink:href="https://scholar.google.com/scholar?hl=en&amp;q=Multimodal%20Analysis%20of%20Vocal%20Collaborative%20Search:A%20Public%20Corpus%20and%20Results" xlink:title="voice features (4 features">
<ellipse fill="none" stroke="black" cx="1493.82" cy="-1144.63" rx="100.18" ry="18"/>
<text text-anchor="middle" x="1493.82" y="-1140.93" font-family="Times,serif" font-size="14.00">voice features (4 features</text>
</a>
</g>
</g>
<!-- perception of peer understanding -->
<g id="node33" class="node">
<title>perception of peer understanding</title>
<ellipse fill="none" stroke="black" cx="438.06" cy="-1171.63" rx="127.28" ry="18"/>
<text text-anchor="middle" x="438.06" y="-1167.93" font-family="Times,serif" font-size="14.00">perception of peer understanding</text>
</g>
<!-- voice features (4 features&#45;&gt;perception of peer understanding -->
<g id="edge26" class="edge">
<title>voice features (4 features&#45;&gt;perception of peer understanding</title>
<path fill="none" stroke="black" d="M1394.63,-1147.15C1205.15,-1152 788.8,-1162.67 573.67,-1168.18"/>
<polygon fill="black" stroke="black" points="573.48,-1164.68 563.58,-1168.44 573.66,-1171.68 573.48,-1164.68"/>
</g>
<!-- perception of peer clarity -->
<g id="node36" class="node">
<title>perception of peer clarity</title>
<ellipse fill="none" stroke="black" cx="438.06" cy="-1117.63" rx="100.18" ry="18"/>
<text text-anchor="middle" x="438.06" y="-1113.93" font-family="Times,serif" font-size="14.00">perception of peer clarity</text>
</g>
<!-- voice features (4 features&#45;&gt;perception of peer clarity -->
<g id="edge28" class="edge">
<title>voice features (4 features&#45;&gt;perception of peer clarity</title>
<path fill="none" stroke="black" d="M1394.63,-1142.11C1197.17,-1137.05 753.35,-1125.68 547.6,-1120.41"/>
<polygon fill="black" stroke="black" points="547.47,-1116.91 537.38,-1120.15 547.29,-1123.9 547.47,-1116.91"/>
</g>
<!-- perception of peer helpfulness -->
<g id="node39" class="node">
<title>perception of peer helpfulness</title>
<ellipse fill="none" stroke="black" cx="438.06" cy="-1063.63" rx="117.78" ry="18"/>
<text text-anchor="middle" x="438.06" y="-1059.93" font-family="Times,serif" font-size="14.00">perception of peer helpfulness</text>
</g>
<!-- voice features (4 features&#45;&gt;perception of peer helpfulness -->
<g id="edge24" class="edge">
<title>voice features (4 features&#45;&gt;perception of peer helpfulness</title>
<path fill="none" stroke="black" d="M1412.96,-1155.35C1298.3,-1167.58 1082.13,-1178.72 912.12,-1117.63 893.3,-1110.87 894.89,-1097.54 876.12,-1090.63 769.36,-1051.34 638.07,-1048.76 547.41,-1053.4"/>
<polygon fill="black" stroke="black" points="547.19,-1049.9 537.39,-1053.95 547.57,-1056.89 547.19,-1049.9"/>
</g>
<!-- 12 MFCCs -->
<g id="node14" class="node">
<title>12 MFCCs</title>
<g id="a_node14"><a xlink:href="https://scholar.google.com/scholar?hl=en&amp;q=Automatic%20Recognition%20of%20Affective%20Laughter%20in%20Spontaneous%20Dyadic%20Interactions%20from%20Audiovisual%20Signals" xlink:title="12 MFCCs">
<ellipse fill="none" stroke="black" cx="1493.82" cy="-37.63" rx="50.09" ry="18"/>
<text text-anchor="middle" x="1493.82" y="-33.93" font-family="Times,serif" font-size="14.00">12 MFCCs</text>
</a>
</g>
</g>
<!-- Unvoiced Laughter -->
<g id="node35" class="node">
<title>Unvoiced Laughter</title>
<ellipse fill="none" stroke="black" cx="438.06" cy="-37.63" rx="79.09" ry="18"/>
<text text-anchor="middle" x="438.06" y="-33.93" font-family="Times,serif" font-size="14.00">Unvoiced Laughter</text>
</g>
<!-- 12 MFCCs&#45;&gt;Unvoiced Laughter -->
<g id="edge12" class="edge">
<title>12 MFCCs&#45;&gt;Unvoiced Laughter</title>
<path fill="none" stroke="black" d="M1443.76,-37.63C1278.65,-37.63 741.57,-37.63 527.91,-37.63"/>
<polygon fill="black" stroke="black" points="527.68,-34.13 517.68,-37.63 527.68,-41.13 527.68,-34.13"/>
</g>
<!-- 12 MFCCs&#45;&gt;Voiced Laughter -->
<g id="edge10" class="edge">
<title>12 MFCCs&#45;&gt;Voiced Laughter</title>
<path fill="none" stroke="black" d="M1443.87,-39.73C1343.92,-44.06 1109.17,-54.43 912.12,-64.63 772.56,-71.86 609.91,-81.38 516.26,-86.97"/>
<polygon fill="black" stroke="black" points="515.8,-83.49 506.03,-87.58 516.22,-90.48 515.8,-83.49"/>
</g>
<!-- 12 MFCCs&#45;&gt;Speech Laughter -->
<g id="edge15" class="edge">
<title>12 MFCCs&#45;&gt;Speech Laughter</title>
<path fill="none" stroke="black" d="M1451.76,-27.74C1351.75,-6 1090.68,36.34 912.12,-64.63 887.01,-78.83 901.12,-104.24 876.12,-118.63 758.91,-186.09 593.55,-172.83 503.56,-158.46"/>
<polygon fill="black" stroke="black" points="503.93,-154.98 493.49,-156.8 502.79,-161.88 503.93,-154.98"/>
</g>
<!-- 1582 audio features (from Emobase -->
<g id="node15" class="node">
<title>1582 audio features (from Emobase</title>
<g id="a_node15"><a xlink:href="https://scholar.google.com/scholar?hl=en&amp;q=High%20Accuracy%20Detection%20of%20Collaboration%20From%20Log%20Data%20and%20Superficial%20Speech%20Features" xlink:title="1582 audio features (from Emobase">
<ellipse fill="none" stroke="black" cx="1493.82" cy="-1225.63" rx="138.38" ry="18"/>
<text text-anchor="middle" x="1493.82" y="-1221.93" font-family="Times,serif" font-size="14.00">1582 audio features (from Emobase</text>
</a>
</g>
</g>
<!-- collaboration -->
<g id="node40" class="node">
<title>collaboration</title>
<ellipse fill="none" stroke="black" cx="438.06" cy="-1225.63" rx="57.39" ry="18"/>
<text text-anchor="middle" x="438.06" y="-1221.93" font-family="Times,serif" font-size="14.00">collaboration</text>
</g>
<!-- 1582 audio features (from Emobase&#45;&gt;collaboration -->
<g id="edge30" class="edge">
<title>1582 audio features (from Emobase&#45;&gt;collaboration</title>
<path fill="none" stroke="black" d="M1355.33,-1225.63C1126.22,-1225.63 674.8,-1225.63 505.38,-1225.63"/>
<polygon fill="black" stroke="black" points="505.36,-1222.13 495.36,-1225.63 505.36,-1229.13 505.36,-1222.13"/>
</g>
<!-- 88 GeMAPS acoustic features -->
<g id="node16" class="node">
<title>88 GeMAPS acoustic features</title>
<g id="a_node16"><a xlink:href="https://scholar.google.com/scholar?hl=en&amp;q=Automatic%20Recognition%20of%20Affective%20Laughter%20in%20Spontaneous%20Dyadic%20Interactions%20from%20Audiovisual%20Signals" xlink:title="88 GeMAPS acoustic features">
<ellipse fill="none" stroke="black" cx="1493.82" cy="-91.63" rx="118.08" ry="18"/>
<text text-anchor="middle" x="1493.82" y="-87.93" font-family="Times,serif" font-size="14.00">88 GeMAPS acoustic features</text>
</a>
</g>
</g>
<!-- 88 GeMAPS acoustic features&#45;&gt;Unvoiced Laughter -->
<g id="edge11" class="edge">
<title>88 GeMAPS acoustic features&#45;&gt;Unvoiced Laughter</title>
<path fill="none" stroke="black" d="M1379.85,-86.73C1262.82,-81.57 1074.65,-73.05 912.12,-64.63 776.78,-57.62 619.72,-48.45 524.94,-42.8"/>
<polygon fill="black" stroke="black" points="525.02,-39.3 514.83,-42.2 524.61,-46.29 525.02,-39.3"/>
</g>
<!-- 88 GeMAPS acoustic features&#45;&gt;Voiced Laughter -->
<g id="edge8" class="edge">
<title>88 GeMAPS acoustic features&#45;&gt;Voiced Laughter</title>
<path fill="none" stroke="black" d="M1375.52,-91.63C1158.86,-91.63 701.33,-91.63 517.74,-91.63"/>
<polygon fill="black" stroke="black" points="517.62,-88.13 507.62,-91.63 517.62,-95.13 517.62,-88.13"/>
</g>
<!-- 88 GeMAPS acoustic features&#45;&gt;Speech Laughter -->
<g id="edge13" class="edge">
<title>88 GeMAPS acoustic features&#45;&gt;Speech Laughter</title>
<path fill="none" stroke="black" d="M1379.85,-96.53C1262.82,-101.69 1074.65,-110.21 912.12,-118.63 772.96,-125.84 610.83,-135.33 517.06,-140.93"/>
<polygon fill="black" stroke="black" points="516.58,-137.45 506.81,-141.54 517,-144.44 516.58,-137.45"/>
</g>
<!-- speech time and frequency -->
<g id="node17" class="node">
<title>speech time and frequency</title>
<g id="a_node17"><a xlink:href="https://scholar.google.com/scholar?hl=en&amp;q=An%20Automatic%20Approach%20for%20Mining%20Patterns%20of%20Collaboration%20around%20an%20Interactive%20Tabletop" xlink:title="speech time and frequency">
<ellipse fill="none" stroke="black" cx="1493.82" cy="-685.63" rx="105.88" ry="18"/>
<text text-anchor="middle" x="1493.82" y="-681.93" font-family="Times,serif" font-size="14.00">speech time and frequency</text>
</a>
</g>
</g>
<!-- speech time and frequency&#45;&gt;Collaboration -->
<g id="edge34" class="edge">
<title>speech time and frequency&#45;&gt;Collaboration</title>
<path fill="none" stroke="black" d="M1391.05,-690.04C1275.1,-695.13 1079.94,-703.94 912.12,-712.63 767.56,-720.12 598.22,-730.07 506.47,-735.56"/>
<polygon fill="black" stroke="black" points="505.99,-732.08 496.21,-736.17 506.4,-739.07 505.99,-732.08"/>
</g>
<!-- speech time -->
<g id="node18" class="node">
<title>speech time</title>
<g id="a_node18"><a xlink:href="https://scholar.google.com/scholar?hl=en&amp;q=Using%20the%20Tablet%20Gestures%20and%20Speech%20of%20Pairs%20of%20Students%20to%20Classify%20Their%20Collaboration" xlink:title="speech time">
<ellipse fill="none" stroke="black" cx="1493.82" cy="-253.63" rx="53.09" ry="18"/>
<text text-anchor="middle" x="1493.82" y="-249.93" font-family="Times,serif" font-size="14.00">speech time</text>
</a>
</g>
</g>
<!-- speech time&#45;&gt;collaboration quality -->
<g id="edge36" class="edge">
<title>speech time&#45;&gt;collaboration quality</title>
<path fill="none" stroke="black" d="M1440.2,-253.63C1272.26,-253.63 747.49,-253.63 532.42,-253.63"/>
<polygon fill="black" stroke="black" points="532.11,-250.13 522.11,-253.63 532.11,-257.13 532.11,-250.13"/>
</g>
<!-- Proximity -->
<g id="node19" class="node">
<title>Proximity</title>
<g id="a_node19"><a xlink:href="https://scholar.google.com/scholar?hl=en&amp;q=Acoustic-Prosodic%20Entrainment%20and%20Rapport%20in%20Collaborative%20Learning%20Dialogues" xlink:title="Proximity">
<ellipse fill="none" stroke="black" cx="1493.82" cy="-847.63" rx="46.29" ry="18"/>
<text text-anchor="middle" x="1493.82" y="-843.93" font-family="Times,serif" font-size="14.00">Proximity</text>
</a>
</g>
</g>
<!-- Proximity&#45;&gt;rapport level -->
<g id="edge17" class="edge">
<title>Proximity&#45;&gt;rapport level</title>
<path fill="none" stroke="black" d="M1447.64,-849.57C1349.93,-853.8 1111.69,-864.3 912.12,-874.63 765.98,-882.2 594.51,-892.29 503.49,-897.74"/>
<polygon fill="black" stroke="black" points="503.1,-894.25 493.33,-898.35 503.52,-901.24 503.1,-894.25"/>
</g>
<!-- Speaking Distribution Cues (Speaking Length Skew, Speaking Turns Skew, Successful Interruption Skew, Unsuccessful Interruptions Skew, Backchannels Skew -->
<g id="node20" class="node">
<title>Speaking Distribution Cues (Speaking Length Skew, Speaking Turns Skew, Successful Interruption Skew, Unsuccessful Interruptions Skew, Backchannels Skew</title>
<g id="a_node20"><a xlink:href="https://scholar.google.com/scholar?hl=en&amp;q=Linking%20Speaking%20and%20Looking%20Behavior%20Patterns%20with%20Group%20Composition,%20Perception,%20and%20Performance" xlink:title="Speaking Distribution Cues (Speaking Length Skew, Speaking Turns Skew, Successful Interruption Skew, Unsuccessful Interruptions Skew, Backchannels Skew">
<ellipse fill="none" stroke="black" cx="1493.82" cy="-523.63" rx="581.9" ry="18"/>
<text text-anchor="middle" x="1493.82" y="-519.93" font-family="Times,serif" font-size="14.00">Speaking Distribution Cues (Speaking Length Skew, Speaking Turns Skew, Successful Interruption Skew, Unsuccessful Interruptions Skew, Backchannels Skew</text>
</a>
</g>
</g>
<!-- Speaking Distribution Cues (Speaking Length Skew, Speaking Turns Skew, Successful Interruption Skew, Unsuccessful Interruptions Skew, Backchannels Skew&#45;&gt;Group Interpersonal Perception (Perceived Dominance, Perceived Leadership, Perceived Competence, Perceived Liking -->
<g id="edge7" class="edge">
<title>Speaking Distribution Cues (Speaking Length Skew, Speaking Turns Skew, Successful Interruption Skew, Unsuccessful Interruptions Skew, Backchannels Skew&#45;&gt;Group Interpersonal Perception (Perceived Dominance, Perceived Leadership, Perceived Competence, Perceived Liking</title>
<path fill="none" stroke="black" d="M1161.52,-538.43C1079.97,-542.24 992.88,-546.45 912.12,-550.63 843.12,-554.2 768.47,-558.34 699.31,-562.28"/>
<polygon fill="black" stroke="black" points="698.93,-558.8 689.15,-562.86 699.33,-565.79 698.93,-558.8"/>
</g>
<!-- thousands of features prosodic speech -->
<g id="node21" class="node">
<title>thousands of features prosodic speech</title>
<g id="a_node21"><a xlink:href="https://scholar.google.com/scholar?hl=en&amp;q=Using%20the%20Tablet%20Gestures%20and%20Speech%20of%20Pairs%20of%20Students%20to%20Classify%20Their%20Collaboration" xlink:title="thousands of features prosodic speech">
<ellipse fill="none" stroke="black" cx="1493.82" cy="-199.63" rx="144.87" ry="18"/>
<text text-anchor="middle" x="1493.82" y="-195.93" font-family="Times,serif" font-size="14.00">thousands of features prosodic speech</text>
</a>
</g>
</g>
<!-- thousands of features prosodic speech&#45;&gt;collaboration quality -->
<g id="edge37" class="edge">
<title>thousands of features prosodic speech&#45;&gt;collaboration quality</title>
<path fill="none" stroke="black" d="M1356.7,-205.55C1239,-210.77 1064.31,-218.75 912.12,-226.63 778.76,-233.54 624.31,-242.54 529.14,-248.21"/>
<polygon fill="black" stroke="black" points="528.76,-244.72 518.98,-248.81 529.17,-251.71 528.76,-244.72"/>
</g>
<!-- Sequences of verbal utterances -->
<g id="node22" class="node">
<title>Sequences of verbal utterances</title>
<g id="a_node22"><a xlink:href="https://scholar.google.com/scholar?hl=en&amp;q=Capturing%20and%20analyzing%20verbal%20and%20physical%20collaborative%20learning%20interactions%20at%20an%20enriched%20interactive%20tabletop" xlink:title="Sequences of verbal utterances">
<ellipse fill="none" stroke="black" cx="1493.82" cy="-1279.63" rx="120.48" ry="18"/>
<text text-anchor="middle" x="1493.82" y="-1275.93" font-family="Times,serif" font-size="14.00">Sequences of verbal utterances</text>
</a>
</g>
</g>
<!-- Colloboration quality -->
<g id="node26" class="node">
<title>Colloboration quality</title>
<ellipse fill="none" stroke="black" cx="438.06" cy="-1279.63" rx="86.38" ry="18"/>
<text text-anchor="middle" x="438.06" y="-1275.93" font-family="Times,serif" font-size="14.00">Colloboration quality</text>
</g>
<!-- Sequences of verbal utterances&#45;&gt;Colloboration quality -->
<g id="edge29" class="edge">
<title>Sequences of verbal utterances&#45;&gt;Colloboration quality</title>
<path fill="none" stroke="black" d="M1373.48,-1279.63C1162.52,-1279.63 727.85,-1279.63 534.92,-1279.63"/>
<polygon fill="black" stroke="black" points="534.8,-1276.13 524.8,-1279.63 534.8,-1283.13 534.8,-1276.13"/>
</g>
<!-- linguistic features from transcript (65 features -->
<g id="node23" class="node">
<title>linguistic features from transcript (65 features</title>
<g id="a_node23"><a xlink:href="https://scholar.google.com/scholar?hl=en&amp;q=Multimodal%20Analysis%20of%20Vocal%20Collaborative%20Search:A%20Public%20Corpus%20and%20Results" xlink:title="linguistic features from transcript (65 features">
<ellipse fill="none" stroke="black" cx="1493.82" cy="-1090.63" rx="173.57" ry="18"/>
<text text-anchor="middle" x="1493.82" y="-1086.93" font-family="Times,serif" font-size="14.00">linguistic features from transcript (65 features</text>
</a>
</g>
</g>
<!-- linguistic features from transcript (65 features&#45;&gt;perception of peer understanding -->
<g id="edge25" class="edge">
<title>linguistic features from transcript (65 features&#45;&gt;perception of peer understanding</title>
<path fill="none" stroke="black" d="M1381.81,-1076.87C1262.1,-1066.31 1067.77,-1061.7 912.12,-1117.63 893.3,-1124.39 894.89,-1137.72 876.12,-1144.63 771.94,-1182.97 644.4,-1186.35 554.05,-1182.19"/>
<polygon fill="black" stroke="black" points="554.22,-1178.69 544.05,-1181.69 553.87,-1185.68 554.22,-1178.69"/>
</g>
<!-- linguistic features from transcript (65 features&#45;&gt;perception of peer clarity -->
<g id="edge27" class="edge">
<title>linguistic features from transcript (65 features&#45;&gt;perception of peer clarity</title>
<path fill="none" stroke="black" d="M1325.27,-1094.92C1107.13,-1100.51 732.04,-1110.12 547.73,-1114.85"/>
<polygon fill="black" stroke="black" points="547.39,-1111.35 537.48,-1115.11 547.57,-1118.35 547.39,-1111.35"/>
</g>
<!-- linguistic features from transcript (65 features&#45;&gt;perception of peer helpfulness -->
<g id="edge23" class="edge">
<title>linguistic features from transcript (65 features&#45;&gt;perception of peer helpfulness</title>
<path fill="none" stroke="black" d="M1325.27,-1086.34C1113.47,-1080.91 753.72,-1071.69 564.28,-1066.84"/>
<polygon fill="black" stroke="black" points="564.37,-1063.34 554.28,-1066.58 564.19,-1070.34 564.37,-1063.34"/>
</g>
<!-- coherence -->
<g id="node24" class="node">
<title>coherence</title>
<g id="a_node24"><a xlink:href="https://scholar.google.com/scholar?hl=en&amp;q=Does%20Seeing%20One%20Another’s%20Gaze%20Affect%20Group%20Dialogue?" xlink:title="coherence">
<ellipse fill="none" stroke="black" cx="1493.82" cy="-1333.63" rx="46.29" ry="18"/>
<text text-anchor="middle" x="1493.82" y="-1329.93" font-family="Times,serif" font-size="14.00">coherence</text>
</a>
</g>
</g>
<!-- Joint Visual Attention -->
<g id="node32" class="node">
<title>Joint Visual Attention</title>
<ellipse fill="none" stroke="black" cx="438.06" cy="-1333.63" rx="88.28" ry="18"/>
<text text-anchor="middle" x="438.06" y="-1329.93" font-family="Times,serif" font-size="14.00">Joint Visual Attention</text>
</g>
<!-- coherence&#45;&gt;Joint Visual Attention -->
<g id="edge31" class="edge">
<title>coherence&#45;&gt;Joint Visual Attention</title>
<path fill="none" stroke="black" d="M1447.54,-1333.63C1289.23,-1333.63 758.14,-1333.63 536.99,-1333.63"/>
<polygon fill="black" stroke="black" points="536.7,-1330.13 526.7,-1333.63 536.7,-1337.13 536.7,-1330.13"/>
</g>
<!-- Speaking Activity (Speaking length, Speaking turns, Speaking interruptions, Average speaking turn duration -->
<g id="node25" class="node">
<title>Speaking Activity (Speaking length, Speaking turns, Speaking interruptions, Average speaking turn duration</title>
<g id="a_node25"><a xlink:href="https://scholar.google.com/scholar?hl=en&amp;q=Emergent%20leaders%20through%20looking%20and%20speaking:%20from%20audio-visual%20data%20to%20multimodal%20recognition" xlink:title="Speaking Activity (Speaking length, Speaking turns, Speaking interruptions, Average speaking turn duration">
<ellipse fill="none" stroke="black" cx="1493.82" cy="-1414.63" rx="394.53" ry="18"/>
<text text-anchor="middle" x="1493.82" y="-1410.93" font-family="Times,serif" font-size="14.00">Speaking Activity (Speaking length, Speaking turns, Speaking interruptions, Average speaking turn duration</text>
</a>
</g>
</g>
<!-- Ranked dominance -->
<g id="node28" class="node">
<title>Ranked dominance</title>
<ellipse fill="none" stroke="black" cx="438.06" cy="-1441.63" rx="79.09" ry="18"/>
<text text-anchor="middle" x="438.06" y="-1437.93" font-family="Times,serif" font-size="14.00">Ranked dominance</text>
</g>
<!-- Speaking Activity (Speaking length, Speaking turns, Speaking interruptions, Average speaking turn duration&#45;&gt;Ranked dominance -->
<g id="edge22" class="edge">
<title>Speaking Activity (Speaking length, Speaking turns, Speaking interruptions, Average speaking turn duration&#45;&gt;Ranked dominance</title>
<path fill="none" stroke="black" d="M1149.24,-1423.43C930.32,-1429.04 663.16,-1435.89 527.41,-1439.37"/>
<polygon fill="black" stroke="black" points="526.98,-1435.88 517.07,-1439.63 527.16,-1442.87 526.98,-1435.88"/>
</g>
<!-- Perception of leadership and dominance from external observers -->
<g id="node31" class="node">
<title>Perception of leadership and dominance from external observers</title>
<ellipse fill="none" stroke="black" cx="438.06" cy="-1387.63" rx="239.66" ry="18"/>
<text text-anchor="middle" x="438.06" y="-1383.93" font-family="Times,serif" font-size="14.00">Perception of leadership and dominance from external observers</text>
</g>
<!-- Speaking Activity (Speaking length, Speaking turns, Speaking interruptions, Average speaking turn duration&#45;&gt;Perception of leadership and dominance from external observers -->
<g id="edge21" class="edge">
<title>Speaking Activity (Speaking length, Speaking turns, Speaking interruptions, Average speaking turn duration&#45;&gt;Perception of leadership and dominance from external observers</title>
<path fill="none" stroke="black" d="M1149.24,-1405.83C994.4,-1401.86 815.44,-1397.27 675.91,-1393.7"/>
<polygon fill="black" stroke="black" points="675.59,-1390.19 665.51,-1393.43 675.41,-1397.19 675.59,-1390.19"/>
</g>
</g>
</svg>
