<?xml version="1.0" encoding="UTF-8" standalone="no"?>
<!DOCTYPE svg PUBLIC "-//W3C//DTD SVG 1.1//EN"
 "http://www.w3.org/Graphics/SVG/1.1/DTD/svg11.dtd">
<!-- Generated by graphviz version 2.47.0 (20210316.0004)
 -->
<!-- Title: Test Pages: 1 -->
<svg width="1080pt" height="733pt"
 viewBox="0.00 0.00 1080.00 732.82" xmlns="http://www.w3.org/2000/svg" xmlns:xlink="http://www.w3.org/1999/xlink">
<g id="graph0" class="graph" transform="scale(0.52 0.52) rotate(0) translate(4 1409.74)">
<title>Test</title>
<polygon fill="white" stroke="transparent" points="-4,4 -4,-1409.74 2079.52,-1409.74 2079.52,4 -4,4"/>
<!-- 102 extended GeMAPs acoustic features -->
<g id="node1" class="node">
<title>102 extended GeMAPs acoustic features</title>
<g id="a_node1"><a xlink:href="https://scholar.google.com/scholar?hl=en&amp;q=An%20Interactive%20Table%20for%20Supporting%20Participation%20Balance%20in%20Face-to-Face%20Collaborative%20Learning" xlink:title="102 extended GeMAPs acoustic features">
<ellipse fill="none" stroke="black" cx="1493.82" cy="-145.74" rx="155.17" ry="18"/>
<text text-anchor="middle" x="1493.82" y="-142.04" font-family="Times,serif" font-size="14.00">102 extended GeMAPs acoustic features</text>
</a>
</g>
</g>
<!-- Voiced Laughter -->
<g id="node38" class="node">
<title>Voiced Laughter</title>
<ellipse fill="none" stroke="black" cx="438.06" cy="-91.74" rx="69.59" ry="18"/>
<text text-anchor="middle" x="438.06" y="-88.04" font-family="Times,serif" font-size="14.00">Voiced Laughter</text>
</g>
<!-- 102 extended GeMAPs acoustic features&#45;&gt;Voiced Laughter -->
<g id="edge9" class="edge">
<title>102 extended GeMAPs acoustic features&#45;&gt;Voiced Laughter</title>
<path fill="none" stroke="black" d="M1348.12,-139.44C1230.63,-134.22 1060.66,-126.44 912.12,-118.74 772.56,-111.52 609.91,-101.99 516.26,-96.4"/>
<polygon fill="black" stroke="black" points="516.22,-92.89 506.03,-95.79 515.8,-99.88 516.22,-92.89"/>
</g>
<!-- Speech Laughter -->
<g id="node44" class="node">
<title>Speech Laughter</title>
<ellipse fill="none" stroke="black" cx="438.06" cy="-145.74" rx="70.39" ry="18"/>
<text text-anchor="middle" x="438.06" y="-142.04" font-family="Times,serif" font-size="14.00">Speech Laughter</text>
</g>
<!-- 102 extended GeMAPs acoustic features&#45;&gt;Speech Laughter -->
<g id="edge14" class="edge">
<title>102 extended GeMAPs acoustic features&#45;&gt;Speech Laughter</title>
<path fill="none" stroke="black" d="M1338.47,-145.74C1110.62,-145.74 692.49,-145.74 518.4,-145.74"/>
<polygon fill="black" stroke="black" points="518.29,-142.24 508.29,-145.74 518.29,-149.24 518.29,-142.24"/>
</g>
<!-- talking time -->
<g id="node2" class="node">
<title>talking time</title>
<g id="a_node2"><a xlink:href="https://scholar.google.com/scholar?hl=en&amp;q=An%20Interactive%20Table%20for%20Supporting%20Participation%20Balance%20in%20Face-to-Face%20Collaborative%20Learning" xlink:title="talking time">
<ellipse fill="none" stroke="black" cx="1493.82" cy="-307.74" rx="53.89" ry="18"/>
<text text-anchor="middle" x="1493.82" y="-304.04" font-family="Times,serif" font-size="14.00">talking time</text>
</a>
</g>
</g>
<!-- collaboration quality -->
<g id="node30" class="node">
<title>collaboration quality</title>
<ellipse fill="none" stroke="black" cx="438.06" cy="-253.74" rx="83.69" ry="18"/>
<text text-anchor="middle" x="438.06" y="-250.04" font-family="Times,serif" font-size="14.00">collaboration quality</text>
</g>
<!-- talking time&#45;&gt;collaboration quality -->
<g id="edge33" class="edge">
<title>talking time&#45;&gt;collaboration quality</title>
<path fill="none" stroke="black" d="M1439.97,-305.47C1337.92,-301.05 1106.65,-290.82 912.12,-280.74 778.76,-273.84 624.31,-264.83 529.14,-259.17"/>
<polygon fill="black" stroke="black" points="529.17,-255.66 518.98,-258.56 528.76,-262.65 529.17,-255.66"/>
</g>
<!-- coherence -->
<g id="node3" class="node">
<title>coherence</title>
<g id="a_node3"><a xlink:href="https://scholar.google.com/scholar?hl=en&amp;q=An%20Interactive%20Table%20for%20Supporting%20Participation%20Balance%20in%20Face-to-Face%20Collaborative%20Learning" xlink:title="coherence">
<ellipse fill="none" stroke="black" cx="1493.82" cy="-361.74" rx="46.29" ry="18"/>
<text text-anchor="middle" x="1493.82" y="-358.04" font-family="Times,serif" font-size="14.00">coherence</text>
</a>
</g>
</g>
<!-- Joint Visual Attention -->
<g id="node41" class="node">
<title>Joint Visual Attention</title>
<ellipse fill="none" stroke="black" cx="438.06" cy="-361.74" rx="88.28" ry="18"/>
<text text-anchor="middle" x="438.06" y="-358.04" font-family="Times,serif" font-size="14.00">Joint Visual Attention</text>
</g>
<!-- coherence&#45;&gt;Joint Visual Attention -->
<g id="edge31" class="edge">
<title>coherence&#45;&gt;Joint Visual Attention</title>
<path fill="none" stroke="black" d="M1447.54,-361.74C1289.23,-361.74 758.14,-361.74 536.99,-361.74"/>
<polygon fill="black" stroke="black" points="536.7,-358.24 526.7,-361.74 536.7,-365.24 536.7,-358.24"/>
</g>
<!-- Speaking Activity (Speaking length, Speaking turns, Speaking interruptions, Average speaking turn duration -->
<g id="node4" class="node">
<title>Speaking Activity (Speaking length, Speaking turns, Speaking interruptions, Average speaking turn duration</title>
<g id="a_node4"><a xlink:href="https://scholar.google.com/scholar?hl=en&amp;q=An%20Interactive%20Table%20for%20Supporting%20Participation%20Balance%20in%20Face-to-Face%20Collaborative%20Learning" xlink:title="Speaking Activity (Speaking length, Speaking turns, Speaking interruptions, Average speaking turn duration">
<ellipse fill="none" stroke="black" cx="1493.82" cy="-442.74" rx="394.53" ry="18"/>
<text text-anchor="middle" x="1493.82" y="-439.04" font-family="Times,serif" font-size="14.00">Speaking Activity (Speaking length, Speaking turns, Speaking interruptions, Average speaking turn duration</text>
</a>
</g>
</g>
<!-- Perception of leadership and dominance from external observers -->
<g id="node26" class="node">
<title>Perception of leadership and dominance from external observers</title>
<ellipse fill="none" stroke="black" cx="438.06" cy="-469.74" rx="239.66" ry="18"/>
<text text-anchor="middle" x="438.06" y="-466.04" font-family="Times,serif" font-size="14.00">Perception of leadership and dominance from external observers</text>
</g>
<!-- Speaking Activity (Speaking length, Speaking turns, Speaking interruptions, Average speaking turn duration&#45;&gt;Perception of leadership and dominance from external observers -->
<g id="edge21" class="edge">
<title>Speaking Activity (Speaking length, Speaking turns, Speaking interruptions, Average speaking turn duration&#45;&gt;Perception of leadership and dominance from external observers</title>
<path fill="none" stroke="black" d="M1149.24,-451.55C994.4,-455.52 815.44,-460.1 675.91,-463.68"/>
<polygon fill="black" stroke="black" points="675.41,-460.19 665.51,-463.94 675.59,-467.18 675.41,-460.19"/>
</g>
<!-- Ranked dominance -->
<g id="node28" class="node">
<title>Ranked dominance</title>
<ellipse fill="none" stroke="black" cx="438.06" cy="-415.74" rx="79.09" ry="18"/>
<text text-anchor="middle" x="438.06" y="-412.04" font-family="Times,serif" font-size="14.00">Ranked dominance</text>
</g>
<!-- Speaking Activity (Speaking length, Speaking turns, Speaking interruptions, Average speaking turn duration&#45;&gt;Ranked dominance -->
<g id="edge22" class="edge">
<title>Speaking Activity (Speaking length, Speaking turns, Speaking interruptions, Average speaking turn duration&#45;&gt;Ranked dominance</title>
<path fill="none" stroke="black" d="M1149.24,-433.94C930.32,-428.33 663.16,-421.49 527.41,-418.01"/>
<polygon fill="black" stroke="black" points="527.16,-414.5 517.07,-417.74 526.98,-421.5 527.16,-414.5"/>
</g>
<!-- 88 GeMAPS acoustic features -->
<g id="node5" class="node">
<title>88 GeMAPS acoustic features</title>
<g id="a_node5"><a xlink:href="https://scholar.google.com/scholar?hl=en&amp;q=An%20Interactive%20Table%20for%20Supporting%20Participation%20Balance%20in%20Face-to-Face%20Collaborative%20Learning" xlink:title="88 GeMAPS acoustic features">
<ellipse fill="none" stroke="black" cx="1493.82" cy="-37.74" rx="118.08" ry="18"/>
<text text-anchor="middle" x="1493.82" y="-34.04" font-family="Times,serif" font-size="14.00">88 GeMAPS acoustic features</text>
</a>
</g>
</g>
<!-- Unvoiced Laughter -->
<g id="node33" class="node">
<title>Unvoiced Laughter</title>
<ellipse fill="none" stroke="black" cx="438.06" cy="-37.74" rx="79.09" ry="18"/>
<text text-anchor="middle" x="438.06" y="-34.04" font-family="Times,serif" font-size="14.00">Unvoiced Laughter</text>
</g>
<!-- 88 GeMAPS acoustic features&#45;&gt;Unvoiced Laughter -->
<g id="edge11" class="edge">
<title>88 GeMAPS acoustic features&#45;&gt;Unvoiced Laughter</title>
<path fill="none" stroke="black" d="M1375.52,-37.74C1162.7,-37.74 717.49,-37.74 527.76,-37.74"/>
<polygon fill="black" stroke="black" points="527.55,-34.24 517.55,-37.74 527.55,-41.24 527.55,-34.24"/>
</g>
<!-- 88 GeMAPS acoustic features&#45;&gt;Voiced Laughter -->
<g id="edge8" class="edge">
<title>88 GeMAPS acoustic features&#45;&gt;Voiced Laughter</title>
<path fill="none" stroke="black" d="M1379.85,-42.64C1262.82,-47.8 1074.65,-56.33 912.12,-64.74 772.56,-71.97 609.91,-81.5 516.26,-87.09"/>
<polygon fill="black" stroke="black" points="515.8,-83.61 506.03,-87.7 516.22,-90.6 515.8,-83.61"/>
</g>
<!-- 88 GeMAPS acoustic features&#45;&gt;Speech Laughter -->
<g id="edge13" class="edge">
<title>88 GeMAPS acoustic features&#45;&gt;Speech Laughter</title>
<path fill="none" stroke="black" d="M1427.08,-22.77C1313.67,-0.65 1077.5,28.77 912.12,-64.74 887.01,-78.94 901.12,-104.36 876.12,-118.74 758.91,-186.21 593.55,-172.95 503.56,-158.58"/>
<polygon fill="black" stroke="black" points="503.93,-155.09 493.49,-156.92 502.79,-162 503.93,-155.09"/>
</g>
<!-- 12 MFCCs -->
<g id="node6" class="node">
<title>12 MFCCs</title>
<g id="a_node6"><a xlink:href="https://scholar.google.com/scholar?hl=en&amp;q=An%20Interactive%20Table%20for%20Supporting%20Participation%20Balance%20in%20Face-to-Face%20Collaborative%20Learning" xlink:title="12 MFCCs">
<ellipse fill="none" stroke="black" cx="1493.82" cy="-91.74" rx="50.09" ry="18"/>
<text text-anchor="middle" x="1493.82" y="-88.04" font-family="Times,serif" font-size="14.00">12 MFCCs</text>
</a>
</g>
</g>
<!-- 12 MFCCs&#45;&gt;Unvoiced Laughter -->
<g id="edge12" class="edge">
<title>12 MFCCs&#45;&gt;Unvoiced Laughter</title>
<path fill="none" stroke="black" d="M1443.87,-89.64C1343.92,-85.31 1109.17,-74.95 912.12,-64.74 776.78,-57.74 619.72,-48.57 524.94,-42.92"/>
<polygon fill="black" stroke="black" points="525.02,-39.42 514.83,-42.32 524.61,-46.41 525.02,-39.42"/>
</g>
<!-- 12 MFCCs&#45;&gt;Voiced Laughter -->
<g id="edge10" class="edge">
<title>12 MFCCs&#45;&gt;Voiced Laughter</title>
<path fill="none" stroke="black" d="M1443.76,-91.74C1276.04,-91.74 724.49,-91.74 518.02,-91.74"/>
<polygon fill="black" stroke="black" points="517.86,-88.24 507.86,-91.74 517.86,-95.24 517.86,-88.24"/>
</g>
<!-- 12 MFCCs&#45;&gt;Speech Laughter -->
<g id="edge15" class="edge">
<title>12 MFCCs&#45;&gt;Speech Laughter</title>
<path fill="none" stroke="black" d="M1443.87,-93.85C1343.92,-98.18 1109.17,-108.54 912.12,-118.74 772.96,-125.95 610.83,-135.44 517.06,-141.04"/>
<polygon fill="black" stroke="black" points="516.58,-137.56 506.81,-141.65 517,-144.55 516.58,-137.56"/>
</g>
<!-- Convergence -->
<g id="node7" class="node">
<title>Convergence</title>
<g id="a_node7"><a xlink:href="https://scholar.google.com/scholar?hl=en&amp;q=An%20Interactive%20Table%20for%20Supporting%20Participation%20Balance%20in%20Face-to-Face%20Collaborative%20Learning" xlink:title="Convergence">
<ellipse fill="none" stroke="black" cx="1493.82" cy="-604.74" rx="57.39" ry="18"/>
<text text-anchor="middle" x="1493.82" y="-601.04" font-family="Times,serif" font-size="14.00">Convergence</text>
</a>
</g>
</g>
<!-- rapport level -->
<g id="node39" class="node">
<title>rapport level</title>
<ellipse fill="none" stroke="black" cx="438.06" cy="-550.74" rx="55.79" ry="18"/>
<text text-anchor="middle" x="438.06" y="-547.04" font-family="Times,serif" font-size="14.00">rapport level</text>
</g>
<!-- Convergence&#45;&gt;rapport level -->
<g id="edge18" class="edge">
<title>Convergence&#45;&gt;rapport level</title>
<path fill="none" stroke="black" d="M1436.75,-602.33C1333.13,-597.84 1104.63,-587.71 912.12,-577.74 765.98,-570.18 594.51,-560.09 503.49,-554.64"/>
<polygon fill="black" stroke="black" points="503.52,-551.13 493.33,-554.03 503.1,-558.12 503.52,-551.13"/>
</g>
<!-- Group Participation Speaking Cues (Speaking Length, Speaking Turns, Successful Interruptions, Unsuccessful Interruptions, Backchannels -->
<g id="node8" class="node">
<title>Group Participation Speaking Cues (Speaking Length, Speaking Turns, Successful Interruptions, Unsuccessful Interruptions, Backchannels</title>
<g id="a_node8"><a xlink:href="https://scholar.google.com/scholar?hl=en&amp;q=An%20Interactive%20Table%20for%20Supporting%20Participation%20Balance%20in%20Face-to-Face%20Collaborative%20Learning" xlink:title="Group Participation Speaking Cues (Speaking Length, Speaking Turns, Successful Interruptions, Unsuccessful Interruptions, Backchannels">
<ellipse fill="none" stroke="black" cx="1493.82" cy="-766.74" rx="504.21" ry="18"/>
<text text-anchor="middle" x="1493.82" y="-763.04" font-family="Times,serif" font-size="14.00">Group Participation Speaking Cues (Speaking Length, Speaking Turns, Successful Interruptions, Unsuccessful Interruptions, Backchannels</text>
</a>
</g>
</g>
<!-- Group Interpersonal Perception (Perceived Dominance, Perceived Leadership, Perceived Competence, Perceived Liking -->
<g id="node29" class="node">
<title>Group Interpersonal Perception (Perceived Dominance, Perceived Leadership, Perceived Competence, Perceived Liking</title>
<ellipse fill="none" stroke="black" cx="438.06" cy="-712.74" rx="438.12" ry="18"/>
<text text-anchor="middle" x="438.06" y="-709.04" font-family="Times,serif" font-size="14.00">Group Interpersonal Perception (Perceived Dominance, Perceived Leadership, Perceived Competence, Perceived Liking</text>
</g>
<!-- Group Participation Speaking Cues (Speaking Length, Speaking Turns, Successful Interruptions, Unsuccessful Interruptions, Backchannels&#45;&gt;Group Interpersonal Perception (Perceived Dominance, Perceived Leadership, Perceived Competence, Perceived Liking -->
<g id="edge5" class="edge">
<title>Group Participation Speaking Cues (Speaking Length, Speaking Turns, Successful Interruptions, Unsuccessful Interruptions, Backchannels&#45;&gt;Group Interpersonal Perception (Perceived Dominance, Perceived Leadership, Perceived Competence, Perceived Liking</title>
<path fill="none" stroke="black" d="M1177.85,-752.71C1091.68,-748.7 998.3,-744.21 912.12,-739.74 843.12,-736.17 768.47,-732.04 699.31,-728.09"/>
<polygon fill="black" stroke="black" points="699.33,-724.59 689.15,-727.51 698.93,-731.58 699.33,-724.59"/>
</g>
<!-- verbal dominance and information metrics [9 metrics] -->
<g id="node9" class="node">
<title>verbal dominance and information metrics [9 metrics]</title>
<g id="a_node9"><a xlink:href="https://scholar.google.com/scholar?hl=en&amp;q=An%20Interactive%20Table%20for%20Supporting%20Participation%20Balance%20in%20Face-to-Face%20Collaborative%20Learning" xlink:title="verbal dominance and information metrics [9 metrics]">
<ellipse fill="none" stroke="black" cx="1493.82" cy="-874.74" rx="204.16" ry="18"/>
<text text-anchor="middle" x="1493.82" y="-871.04" font-family="Times,serif" font-size="14.00">verbal dominance and information metrics [9 metrics]</text>
</a>
</g>
</g>
<!-- Leadership perceived -->
<g id="node32" class="node">
<title>Leadership perceived</title>
<ellipse fill="none" stroke="black" cx="438.06" cy="-874.74" rx="86.38" ry="18"/>
<text text-anchor="middle" x="438.06" y="-871.04" font-family="Times,serif" font-size="14.00">Leadership perceived</text>
</g>
<!-- verbal dominance and information metrics [9 metrics]&#45;&gt;Leadership perceived -->
<g id="edge1" class="edge">
<title>verbal dominance and information metrics [9 metrics]&#45;&gt;Leadership perceived</title>
<path fill="none" stroke="black" d="M1289.65,-874.74C1062.68,-874.74 704.87,-874.74 534.88,-874.74"/>
<polygon fill="black" stroke="black" points="534.69,-871.24 524.69,-874.74 534.69,-878.24 534.69,-871.24"/>
</g>
<!-- Contribution perceived -->
<g id="node34" class="node">
<title>Contribution perceived</title>
<ellipse fill="none" stroke="black" cx="438.06" cy="-820.74" rx="92.08" ry="18"/>
<text text-anchor="middle" x="438.06" y="-817.04" font-family="Times,serif" font-size="14.00">Contribution perceived</text>
</g>
<!-- verbal dominance and information metrics [9 metrics]&#45;&gt;Contribution perceived -->
<g id="edge2" class="edge">
<title>verbal dominance and information metrics [9 metrics]&#45;&gt;Contribution perceived</title>
<path fill="none" stroke="black" d="M1310.69,-866.77C1196.25,-861.64 1045.54,-854.65 912.12,-847.74 782.33,-841.02 632.56,-832.31 536.91,-826.63"/>
<polygon fill="black" stroke="black" points="536.86,-823.12 526.67,-826.02 536.44,-830.11 536.86,-823.12"/>
</g>
<!-- thousands of features prosodic speech -->
<g id="node10" class="node">
<title>thousands of features prosodic speech</title>
<g id="a_node10"><a xlink:href="https://scholar.google.com/scholar?hl=en&amp;q=An%20Interactive%20Table%20for%20Supporting%20Participation%20Balance%20in%20Face-to-Face%20Collaborative%20Learning" xlink:title="thousands of features prosodic speech">
<ellipse fill="none" stroke="black" cx="1493.82" cy="-253.74" rx="144.87" ry="18"/>
<text text-anchor="middle" x="1493.82" y="-250.04" font-family="Times,serif" font-size="14.00">thousands of features prosodic speech</text>
</a>
</g>
</g>
<!-- thousands of features prosodic speech&#45;&gt;collaboration quality -->
<g id="edge37" class="edge">
<title>thousands of features prosodic speech&#45;&gt;collaboration quality</title>
<path fill="none" stroke="black" d="M1348.78,-253.74C1129.11,-253.74 716.49,-253.74 532.14,-253.74"/>
<polygon fill="black" stroke="black" points="531.94,-250.24 521.94,-253.74 531.94,-257.24 531.94,-250.24"/>
</g>
<!-- linguistic features from transcript (65 features -->
<g id="node11" class="node">
<title>linguistic features from transcript (65 features</title>
<g id="a_node11"><a xlink:href="https://scholar.google.com/scholar?hl=en&amp;q=An%20Interactive%20Table%20for%20Supporting%20Participation%20Balance%20in%20Face-to-Face%20Collaborative%20Learning" xlink:title="linguistic features from transcript (65 features">
<ellipse fill="none" stroke="black" cx="1493.82" cy="-1009.74" rx="173.57" ry="18"/>
<text text-anchor="middle" x="1493.82" y="-1006.04" font-family="Times,serif" font-size="14.00">linguistic features from transcript (65 features</text>
</a>
</g>
</g>
<!-- perception of peer clarity -->
<g id="node31" class="node">
<title>perception of peer clarity</title>
<ellipse fill="none" stroke="black" cx="438.06" cy="-1036.74" rx="100.18" ry="18"/>
<text text-anchor="middle" x="438.06" y="-1033.04" font-family="Times,serif" font-size="14.00">perception of peer clarity</text>
</g>
<!-- linguistic features from transcript (65 features&#45;&gt;perception of peer clarity -->
<g id="edge27" class="edge">
<title>linguistic features from transcript (65 features&#45;&gt;perception of peer clarity</title>
<path fill="none" stroke="black" d="M1325.27,-1014.04C1107.13,-1019.63 732.04,-1029.24 547.73,-1033.96"/>
<polygon fill="black" stroke="black" points="547.39,-1030.47 537.48,-1034.22 547.57,-1037.47 547.39,-1030.47"/>
</g>
<!-- perception of peer helpfulness -->
<g id="node40" class="node">
<title>perception of peer helpfulness</title>
<ellipse fill="none" stroke="black" cx="438.06" cy="-982.74" rx="117.78" ry="18"/>
<text text-anchor="middle" x="438.06" y="-979.04" font-family="Times,serif" font-size="14.00">perception of peer helpfulness</text>
</g>
<!-- linguistic features from transcript (65 features&#45;&gt;perception of peer helpfulness -->
<g id="edge23" class="edge">
<title>linguistic features from transcript (65 features&#45;&gt;perception of peer helpfulness</title>
<path fill="none" stroke="black" d="M1325.27,-1005.45C1113.47,-1000.02 753.72,-990.81 564.28,-985.95"/>
<polygon fill="black" stroke="black" points="564.37,-982.45 554.28,-985.7 564.19,-989.45 564.37,-982.45"/>
</g>
<!-- perception of peer understanding -->
<g id="node43" class="node">
<title>perception of peer understanding</title>
<ellipse fill="none" stroke="black" cx="438.06" cy="-928.74" rx="127.28" ry="18"/>
<text text-anchor="middle" x="438.06" y="-925.04" font-family="Times,serif" font-size="14.00">perception of peer understanding</text>
</g>
<!-- linguistic features from transcript (65 features&#45;&gt;perception of peer understanding -->
<g id="edge25" class="edge">
<title>linguistic features from transcript (65 features&#45;&gt;perception of peer understanding</title>
<path fill="none" stroke="black" d="M1381.81,-1023.5C1262.1,-1034.06 1067.77,-1038.68 912.12,-982.74 893.3,-975.98 894.89,-962.65 876.12,-955.74 771.94,-917.41 644.4,-914.02 554.05,-918.19"/>
<polygon fill="black" stroke="black" points="553.87,-914.69 544.05,-918.69 554.22,-921.68 553.87,-914.69"/>
</g>
<!-- Silence and Overlap Cues (Fraction of Silence, Fraction of Nonoverlapped Speech, Fraction of two&#45;people and three&#45;people Overlapped Speech -->
<g id="node12" class="node">
<title>Silence and Overlap Cues (Fraction of Silence, Fraction of Nonoverlapped Speech, Fraction of two&#45;people and three&#45;people Overlapped Speech</title>
<g id="a_node12"><a xlink:href="https://scholar.google.com/scholar?hl=en&amp;q=An%20Interactive%20Table%20for%20Supporting%20Participation%20Balance%20in%20Face-to-Face%20Collaborative%20Learning" xlink:title="Silence and Overlap Cues (Fraction of Silence, Fraction of Nonoverlapped Speech, Fraction of two&#45;people and three&#45;people Overlapped Speech">
<ellipse fill="none" stroke="black" cx="1493.82" cy="-712.74" rx="521.81" ry="18"/>
<text text-anchor="middle" x="1493.82" y="-709.04" font-family="Times,serif" font-size="14.00">Silence and Overlap Cues (Fraction of Silence, Fraction of Nonoverlapped Speech, Fraction of two&#45;people and three&#45;people Overlapped Speech</text>
</a>
</g>
</g>
<!-- Silence and Overlap Cues (Fraction of Silence, Fraction of Nonoverlapped Speech, Fraction of two&#45;people and three&#45;people Overlapped Speech&#45;&gt;Group Interpersonal Perception (Perceived Dominance, Perceived Leadership, Perceived Competence, Perceived Liking -->
<g id="edge6" class="edge">
<title>Silence and Overlap Cues (Fraction of Silence, Fraction of Nonoverlapped Speech, Fraction of two&#45;people and three&#45;people Overlapped Speech&#45;&gt;Group Interpersonal Perception (Perceived Dominance, Perceived Leadership, Perceived Competence, Perceived Liking</title>
<path fill="none" stroke="black" d="M971.73,-712.74C943.34,-712.74 914.93,-712.74 886.83,-712.74"/>
<polygon fill="black" stroke="black" points="886.49,-709.24 876.49,-712.74 886.49,-716.24 886.49,-709.24"/>
</g>
<!-- speech time -->
<g id="node13" class="node">
<title>speech time</title>
<g id="a_node13"><a xlink:href="https://scholar.google.com/scholar?hl=en&amp;q=An%20Interactive%20Table%20for%20Supporting%20Participation%20Balance%20in%20Face-to-Face%20Collaborative%20Learning" xlink:title="speech time">
<ellipse fill="none" stroke="black" cx="1493.82" cy="-199.74" rx="53.09" ry="18"/>
<text text-anchor="middle" x="1493.82" y="-196.04" font-family="Times,serif" font-size="14.00">speech time</text>
</a>
</g>
</g>
<!-- speech time&#45;&gt;collaboration quality -->
<g id="edge36" class="edge">
<title>speech time&#45;&gt;collaboration quality</title>
<path fill="none" stroke="black" d="M1440.76,-201.98C1339.12,-206.39 1107.15,-216.65 912.12,-226.74 778.76,-233.65 624.31,-242.65 529.14,-248.32"/>
<polygon fill="black" stroke="black" points="528.76,-244.84 518.98,-248.93 529.17,-251.82 528.76,-244.84"/>
</g>
<!-- symmetry of speech among group -->
<g id="node14" class="node">
<title>symmetry of speech among group</title>
<g id="a_node14"><a xlink:href="https://scholar.google.com/scholar?hl=en&amp;q=An%20Interactive%20Table%20for%20Supporting%20Participation%20Balance%20in%20Face-to-Face%20Collaborative%20Learning" xlink:title="symmetry of speech among group">
<ellipse fill="none" stroke="black" cx="1493.82" cy="-1171.74" rx="132.68" ry="18"/>
<text text-anchor="middle" x="1493.82" y="-1168.04" font-family="Times,serif" font-size="14.00">symmetry of speech among group</text>
</a>
</g>
</g>
<!-- Collaboration -->
<g id="node35" class="node">
<title>Collaboration</title>
<ellipse fill="none" stroke="black" cx="438.06" cy="-1117.74" rx="59.29" ry="18"/>
<text text-anchor="middle" x="438.06" y="-1114.04" font-family="Times,serif" font-size="14.00">Collaboration</text>
</g>
<!-- symmetry of speech among group&#45;&gt;Collaboration -->
<g id="edge35" class="edge">
<title>symmetry of speech among group&#45;&gt;Collaboration</title>
<path fill="none" stroke="black" d="M1367.35,-1166.29C1249.72,-1161.09 1068.98,-1152.87 912.12,-1144.74 767.56,-1137.26 598.22,-1127.31 506.47,-1121.82"/>
<polygon fill="black" stroke="black" points="506.4,-1118.31 496.21,-1121.2 505.99,-1125.29 506.4,-1118.31"/>
</g>
<!-- Speaking Distribution Cues (Speaking Length Skew, Speaking Turns Skew, Successful Interruption Skew, Unsuccessful Interruptions Skew, Backchannels Skew -->
<g id="node15" class="node">
<title>Speaking Distribution Cues (Speaking Length Skew, Speaking Turns Skew, Successful Interruption Skew, Unsuccessful Interruptions Skew, Backchannels Skew</title>
<g id="a_node15"><a xlink:href="https://scholar.google.com/scholar?hl=en&amp;q=An%20Interactive%20Table%20for%20Supporting%20Participation%20Balance%20in%20Face-to-Face%20Collaborative%20Learning" xlink:title="Speaking Distribution Cues (Speaking Length Skew, Speaking Turns Skew, Successful Interruption Skew, Unsuccessful Interruptions Skew, Backchannels Skew">
<ellipse fill="none" stroke="black" cx="1493.82" cy="-658.74" rx="581.9" ry="18"/>
<text text-anchor="middle" x="1493.82" y="-655.04" font-family="Times,serif" font-size="14.00">Speaking Distribution Cues (Speaking Length Skew, Speaking Turns Skew, Successful Interruption Skew, Unsuccessful Interruptions Skew, Backchannels Skew</text>
</a>
</g>
</g>
<!-- Speaking Distribution Cues (Speaking Length Skew, Speaking Turns Skew, Successful Interruption Skew, Unsuccessful Interruptions Skew, Backchannels Skew&#45;&gt;Group Interpersonal Perception (Perceived Dominance, Perceived Leadership, Perceived Competence, Perceived Liking -->
<g id="edge7" class="edge">
<title>Speaking Distribution Cues (Speaking Length Skew, Speaking Turns Skew, Successful Interruption Skew, Unsuccessful Interruptions Skew, Backchannels Skew&#45;&gt;Group Interpersonal Perception (Perceived Dominance, Perceived Leadership, Perceived Competence, Perceived Liking</title>
<path fill="none" stroke="black" d="M1161.52,-673.54C1079.97,-677.35 992.88,-681.56 912.12,-685.74 843.12,-689.32 768.47,-693.45 699.31,-697.4"/>
<polygon fill="black" stroke="black" points="698.93,-693.91 689.15,-697.98 699.33,-700.9 698.93,-693.91"/>
</g>
<!-- 6 One Vs All Features -->
<g id="node16" class="node">
<title>6 One Vs All Features</title>
<g id="a_node16"><a xlink:href="https://scholar.google.com/scholar?hl=en&amp;q=An%20Interactive%20Table%20for%20Supporting%20Participation%20Balance%20in%20Face-to-Face%20Collaborative%20Learning" xlink:title="6 One Vs All Features">
<ellipse fill="none" stroke="black" cx="1493.82" cy="-1225.74" rx="89.88" ry="18"/>
<text text-anchor="middle" x="1493.82" y="-1222.04" font-family="Times,serif" font-size="14.00">6 One Vs All Features</text>
</a>
</g>
</g>
<!-- Social Impressions -->
<g id="node36" class="node">
<title>Social Impressions</title>
<ellipse fill="none" stroke="black" cx="438.06" cy="-1225.74" rx="77.99" ry="18"/>
<text text-anchor="middle" x="438.06" y="-1222.04" font-family="Times,serif" font-size="14.00">Social Impressions</text>
</g>
<!-- 6 One Vs All Features&#45;&gt;Social Impressions -->
<g id="edge20" class="edge">
<title>6 One Vs All Features&#45;&gt;Social Impressions</title>
<path fill="none" stroke="black" d="M1403.89,-1225.74C1204.54,-1225.74 723.96,-1225.74 526.25,-1225.74"/>
<polygon fill="black" stroke="black" points="526.2,-1222.24 516.2,-1225.74 526.2,-1229.24 526.2,-1222.24"/>
</g>
<!-- speech rate -->
<g id="node17" class="node">
<title>speech rate</title>
<g id="a_node17"><a xlink:href="https://scholar.google.com/scholar?hl=en&amp;q=An%20Interactive%20Table%20for%20Supporting%20Participation%20Balance%20in%20Face-to-Face%20Collaborative%20Learning" xlink:title="speech rate">
<ellipse fill="none" stroke="black" cx="1493.82" cy="-1279.74" rx="50.09" ry="18"/>
<text text-anchor="middle" x="1493.82" y="-1276.04" font-family="Times,serif" font-size="14.00">speech rate</text>
</a>
</g>
</g>
<!-- Perceived Collaboration Quality -->
<g id="node42" class="node">
<title>Perceived Collaboration Quality</title>
<ellipse fill="none" stroke="black" cx="438.06" cy="-1279.74" rx="124.58" ry="18"/>
<text text-anchor="middle" x="438.06" y="-1276.04" font-family="Times,serif" font-size="14.00">Perceived Collaboration Quality</text>
</g>
<!-- speech rate&#45;&gt;Perceived Collaboration Quality -->
<g id="edge16" class="edge">
<title>speech rate&#45;&gt;Perceived Collaboration Quality</title>
<path fill="none" stroke="black" d="M1443.76,-1279.74C1289.33,-1279.74 809.46,-1279.74 573.22,-1279.74"/>
<polygon fill="black" stroke="black" points="573.19,-1276.24 563.19,-1279.74 573.19,-1283.24 573.19,-1276.24"/>
</g>
<!-- non&#45;verbal speaking metrics (speaking length, interruptions, etc -->
<g id="node18" class="node">
<title>non&#45;verbal speaking metrics (speaking length, interruptions, etc</title>
<g id="a_node18"><a xlink:href="https://scholar.google.com/scholar?hl=en&amp;q=An%20Interactive%20Table%20for%20Supporting%20Participation%20Balance%20in%20Face-to-Face%20Collaborative%20Learning" xlink:title="non&#45;verbal speaking metrics (speaking length, interruptions, etc">
<ellipse fill="none" stroke="black" cx="1493.82" cy="-820.74" rx="237.46" ry="18"/>
<text text-anchor="middle" x="1493.82" y="-817.04" font-family="Times,serif" font-size="14.00">non&#45;verbal speaking metrics (speaking length, interruptions, etc</text>
</a>
</g>
</g>
<!-- non&#45;verbal speaking metrics (speaking length, interruptions, etc&#45;&gt;Leadership perceived -->
<g id="edge3" class="edge">
<title>non&#45;verbal speaking metrics (speaking length, interruptions, etc&#45;&gt;Leadership perceived</title>
<path fill="none" stroke="black" d="M1288.21,-829.73C1176.97,-834.75 1036.98,-841.28 912.12,-847.74 779.95,-854.59 627.06,-863.49 531.7,-869.17"/>
<polygon fill="black" stroke="black" points="531.29,-865.69 521.51,-869.77 531.7,-872.67 531.29,-865.69"/>
</g>
<!-- non&#45;verbal speaking metrics (speaking length, interruptions, etc&#45;&gt;Contribution perceived -->
<g id="edge4" class="edge">
<title>non&#45;verbal speaking metrics (speaking length, interruptions, etc&#45;&gt;Contribution perceived</title>
<path fill="none" stroke="black" d="M1256.34,-820.74C1031.67,-820.74 704.55,-820.74 540.65,-820.74"/>
<polygon fill="black" stroke="black" points="540.57,-817.24 530.57,-820.74 540.57,-824.24 540.57,-817.24"/>
</g>
<!-- Synchrony -->
<g id="node19" class="node">
<title>Synchrony</title>
<g id="a_node19"><a xlink:href="https://scholar.google.com/scholar?hl=en&amp;q=An%20Interactive%20Table%20for%20Supporting%20Participation%20Balance%20in%20Face-to-Face%20Collaborative%20Learning" xlink:title="Synchrony">
<ellipse fill="none" stroke="black" cx="1493.82" cy="-550.74" rx="48.99" ry="18"/>
<text text-anchor="middle" x="1493.82" y="-547.04" font-family="Times,serif" font-size="14.00">Synchrony</text>
</a>
</g>
</g>
<!-- Synchrony&#45;&gt;rapport level -->
<g id="edge19" class="edge">
<title>Synchrony&#45;&gt;rapport level</title>
<path fill="none" stroke="black" d="M1444.8,-550.74C1274.52,-550.74 699.3,-550.74 504.32,-550.74"/>
<polygon fill="black" stroke="black" points="504.22,-547.24 494.22,-550.74 504.22,-554.24 504.22,-547.24"/>
</g>
<!-- speech time and frequency -->
<g id="node20" class="node">
<title>speech time and frequency</title>
<g id="a_node20"><a xlink:href="https://scholar.google.com/scholar?hl=en&amp;q=An%20Interactive%20Table%20for%20Supporting%20Participation%20Balance%20in%20Face-to-Face%20Collaborative%20Learning" xlink:title="speech time and frequency">
<ellipse fill="none" stroke="black" cx="1493.82" cy="-1117.74" rx="105.88" ry="18"/>
<text text-anchor="middle" x="1493.82" y="-1114.04" font-family="Times,serif" font-size="14.00">speech time and frequency</text>
</a>
</g>
</g>
<!-- speech time and frequency&#45;&gt;Collaboration -->
<g id="edge34" class="edge">
<title>speech time and frequency&#45;&gt;Collaboration</title>
<path fill="none" stroke="black" d="M1387.44,-1117.74C1172.18,-1117.74 687.15,-1117.74 507.6,-1117.74"/>
<polygon fill="black" stroke="black" points="507.49,-1114.24 497.49,-1117.74 507.49,-1121.24 507.49,-1114.24"/>
</g>
<!-- Sequences of verbal utterances -->
<g id="node21" class="node">
<title>Sequences of verbal utterances</title>
<g id="a_node21"><a xlink:href="https://scholar.google.com/scholar?hl=en&amp;q=An%20Interactive%20Table%20for%20Supporting%20Participation%20Balance%20in%20Face-to-Face%20Collaborative%20Learning" xlink:title="Sequences of verbal utterances">
<ellipse fill="none" stroke="black" cx="1493.82" cy="-1333.74" rx="120.48" ry="18"/>
<text text-anchor="middle" x="1493.82" y="-1330.04" font-family="Times,serif" font-size="14.00">Sequences of verbal utterances</text>
</a>
</g>
</g>
<!-- Colloboration quality -->
<g id="node37" class="node">
<title>Colloboration quality</title>
<ellipse fill="none" stroke="black" cx="438.06" cy="-1333.74" rx="86.38" ry="18"/>
<text text-anchor="middle" x="438.06" y="-1330.04" font-family="Times,serif" font-size="14.00">Colloboration quality</text>
</g>
<!-- Sequences of verbal utterances&#45;&gt;Colloboration quality -->
<g id="edge29" class="edge">
<title>Sequences of verbal utterances&#45;&gt;Colloboration quality</title>
<path fill="none" stroke="black" d="M1373.48,-1333.74C1162.52,-1333.74 727.85,-1333.74 534.92,-1333.74"/>
<polygon fill="black" stroke="black" points="534.8,-1330.24 524.8,-1333.74 534.8,-1337.24 534.8,-1330.24"/>
</g>
<!-- Proximity -->
<g id="node22" class="node">
<title>Proximity</title>
<g id="a_node22"><a xlink:href="https://scholar.google.com/scholar?hl=en&amp;q=An%20Interactive%20Table%20for%20Supporting%20Participation%20Balance%20in%20Face-to-Face%20Collaborative%20Learning" xlink:title="Proximity">
<ellipse fill="none" stroke="black" cx="1493.82" cy="-496.74" rx="46.29" ry="18"/>
<text text-anchor="middle" x="1493.82" y="-493.04" font-family="Times,serif" font-size="14.00">Proximity</text>
</a>
</g>
</g>
<!-- Proximity&#45;&gt;rapport level -->
<g id="edge17" class="edge">
<title>Proximity&#45;&gt;rapport level</title>
<path fill="none" stroke="black" d="M1447.64,-498.68C1349.93,-502.91 1111.69,-513.41 912.12,-523.74 765.98,-531.31 594.51,-541.4 503.49,-546.85"/>
<polygon fill="black" stroke="black" points="503.1,-543.37 493.33,-547.46 503.52,-550.36 503.1,-543.37"/>
</g>
<!-- 35 Coh&#45;metrix indices -->
<g id="node23" class="node">
<title>35 Coh&#45;metrix indices</title>
<g id="a_node23"><a xlink:href="https://scholar.google.com/scholar?hl=en&amp;q=An%20Interactive%20Table%20for%20Supporting%20Participation%20Balance%20in%20Face-to-Face%20Collaborative%20Learning" xlink:title="35 Coh&#45;metrix indices">
<ellipse fill="none" stroke="black" cx="1493.82" cy="-1063.74" rx="90.18" ry="18"/>
<text text-anchor="middle" x="1493.82" y="-1060.04" font-family="Times,serif" font-size="14.00">35 Coh&#45;metrix indices</text>
</a>
</g>
</g>
<!-- 35 Coh&#45;metrix indices&#45;&gt;Collaboration -->
<g id="edge32" class="edge">
<title>35 Coh&#45;metrix indices&#45;&gt;Collaboration</title>
<path fill="none" stroke="black" d="M1405.25,-1067.53C1291.56,-1072.51 1086.99,-1081.69 912.12,-1090.74 767.56,-1098.23 598.22,-1108.18 506.47,-1113.67"/>
<polygon fill="black" stroke="black" points="505.99,-1110.2 496.21,-1114.29 506.4,-1117.18 505.99,-1110.2"/>
</g>
<!-- voice features (4 features -->
<g id="node24" class="node">
<title>voice features (4 features</title>
<g id="a_node24"><a xlink:href="https://scholar.google.com/scholar?hl=en&amp;q=An%20Interactive%20Table%20for%20Supporting%20Participation%20Balance%20in%20Face-to-Face%20Collaborative%20Learning" xlink:title="voice features (4 features">
<ellipse fill="none" stroke="black" cx="1493.82" cy="-955.74" rx="100.18" ry="18"/>
<text text-anchor="middle" x="1493.82" y="-952.04" font-family="Times,serif" font-size="14.00">voice features (4 features</text>
</a>
</g>
</g>
<!-- voice features (4 features&#45;&gt;perception of peer clarity -->
<g id="edge28" class="edge">
<title>voice features (4 features&#45;&gt;perception of peer clarity</title>
<path fill="none" stroke="black" d="M1412.96,-945.02C1298.3,-932.79 1082.13,-921.65 912.12,-982.74 893.3,-989.51 894.89,-1002.84 876.12,-1009.74 764.55,-1050.8 626.19,-1051.77 535.41,-1046.31"/>
<polygon fill="black" stroke="black" points="535.6,-1042.82 525.4,-1045.67 535.16,-1049.8 535.6,-1042.82"/>
</g>
<!-- voice features (4 features&#45;&gt;perception of peer helpfulness -->
<g id="edge24" class="edge">
<title>voice features (4 features&#45;&gt;perception of peer helpfulness</title>
<path fill="none" stroke="black" d="M1394.63,-958.26C1202.48,-963.18 777.02,-974.08 564.69,-979.53"/>
<polygon fill="black" stroke="black" points="564.34,-976.03 554.43,-979.79 564.52,-983.03 564.34,-976.03"/>
</g>
<!-- voice features (4 features&#45;&gt;perception of peer understanding -->
<g id="edge26" class="edge">
<title>voice features (4 features&#45;&gt;perception of peer understanding</title>
<path fill="none" stroke="black" d="M1394.63,-953.23C1205.15,-948.37 788.8,-937.71 573.67,-932.19"/>
<polygon fill="black" stroke="black" points="573.66,-928.69 563.58,-931.93 573.48,-935.69 573.66,-928.69"/>
</g>
<!-- 1582 audio features (from Emobase -->
<g id="node25" class="node">
<title>1582 audio features (from Emobase</title>
<g id="a_node25"><a xlink:href="https://scholar.google.com/scholar?hl=en&amp;q=An%20Interactive%20Table%20for%20Supporting%20Participation%20Balance%20in%20Face-to-Face%20Collaborative%20Learning" xlink:title="1582 audio features (from Emobase">
<ellipse fill="none" stroke="black" cx="1493.82" cy="-1387.74" rx="138.38" ry="18"/>
<text text-anchor="middle" x="1493.82" y="-1384.04" font-family="Times,serif" font-size="14.00">1582 audio features (from Emobase</text>
</a>
</g>
</g>
<!-- collaboration -->
<g id="node27" class="node">
<title>collaboration</title>
<ellipse fill="none" stroke="black" cx="438.06" cy="-1387.74" rx="57.39" ry="18"/>
<text text-anchor="middle" x="438.06" y="-1384.04" font-family="Times,serif" font-size="14.00">collaboration</text>
</g>
<!-- 1582 audio features (from Emobase&#45;&gt;collaboration -->
<g id="edge30" class="edge">
<title>1582 audio features (from Emobase&#45;&gt;collaboration</title>
<path fill="none" stroke="black" d="M1355.33,-1387.74C1126.22,-1387.74 674.8,-1387.74 505.38,-1387.74"/>
<polygon fill="black" stroke="black" points="505.36,-1384.24 495.36,-1387.74 505.36,-1391.24 505.36,-1384.24"/>
</g>
</g>
</svg>
